<?xml version="1.0" encoding="UTF-8" standalone="no"?><!DOCTYPE svg PUBLIC "-//W3C//DTD SVG 1.1//EN" "http://www.w3.org/Graphics/SVG/1.1/DTD/svg11.dtd"><svg width="100%" height="100%" viewBox="0 0 179 250" version="1.1" xmlns="http://www.w3.org/2000/svg" xmlns:xlink="http://www.w3.org/1999/xlink" xml:space="preserve" xmlns:serif="http://www.serif.com/" style="fill-rule:evenodd;clip-rule:evenodd;stroke-linejoin:round;stroke-miterlimit:2;"><g id="g6836"><g id="_5D" serif:id="5D"><path id="rect7030-4" d="M178.583,8.008c-0,-4.42 -3.589,-8.008 -8.008,-8.008l-162.567,0c-4.42,0 -8.008,3.588 -8.008,8.008l-0,233.433c-0,4.419 3.588,8.008 8.008,8.008l162.567,-0c4.419,-0 8.008,-3.589 8.008,-8.008l-0,-233.433Z" style="fill:#fff;"/></g><path id="path7062-5" d="M13.774,55.979c-1.729,-2.855 -3.548,-5.63 -5.82,-8c2.272,-2.371 4.091,-5.145 5.82,-8c1.729,2.855 3.547,5.629 5.82,8c-2.273,2.37 -4.091,5.145 -5.82,8Z" style="fill:#3f3f3f;fill-rule:nonzero;"/><path id="path7064-0" d="M130.705,64.556c-4.149,-6.852 -8.514,-13.511 -13.969,-19.2c5.455,-5.689 9.82,-12.348 13.969,-19.2c4.149,6.852 8.513,13.511 13.968,19.2c-5.455,5.689 -9.819,12.348 -13.968,19.2Z" style="fill:#3f3f3f;fill-rule:nonzero;"/><path id="path7066-9" d="M164.81,209.47c-1.729,-2.855 -3.548,-5.629 -5.821,-8c2.273,-2.37 4.092,-5.145 5.821,-8c1.728,2.855 3.547,5.63 5.82,8c-2.273,2.371 -4.092,5.145 -5.82,8Z" style="fill:#3f3f3f;fill-rule:nonzero;"/><path id="path7068-2" d="M47.878,64.556c-4.149,-6.852 -8.514,-13.511 -13.969,-19.2c5.455,-5.689 9.82,-12.348 13.969,-19.2c4.149,6.852 8.514,13.511 13.969,19.2c-5.455,5.689 -9.82,12.348 -13.969,19.2Z" style="fill:#3f3f3f;fill-rule:nonzero;"/><path id="path7070-0" d="M130.705,117.474c-4.149,-6.852 -8.514,-13.511 -13.969,-19.2c5.455,-5.689 9.82,-12.348 13.969,-19.2c4.149,6.852 8.513,13.511 13.968,19.2c-5.455,5.689 -9.819,12.348 -13.968,19.2Z" style="fill:#3f3f3f;fill-rule:nonzero;"/><path id="path7072-0" d="M47.878,117.474c-4.149,-6.852 -8.514,-13.511 -13.969,-19.2c5.455,-5.689 9.82,-12.348 13.969,-19.2c4.149,6.852 8.514,13.511 13.969,19.2c-5.455,5.689 -9.82,12.348 -13.969,19.2Z" style="fill:#3f3f3f;fill-rule:nonzero;"/><path id="path7074-4" d="M89.291,91.012c-4.149,-6.852 -8.514,-13.511 -13.968,-19.2c5.454,-5.689 9.819,-12.348 13.968,-19.2c4.149,6.852 8.514,13.511 13.969,19.2c-5.455,5.689 -9.82,12.348 -13.969,19.2Z" style="fill:#3f3f3f;fill-rule:nonzero;"/><path id="path7084-9" d="M47.878,223.297c-4.149,-6.852 -8.514,-13.511 -13.969,-19.2c5.455,-5.689 9.82,-12.348 13.969,-19.2c4.149,6.852 8.514,13.511 13.969,19.2c-5.455,5.689 -9.82,12.348 -13.969,19.2Z" style="fill:#3f3f3f;fill-rule:nonzero;"/><path id="path7086-7" d="M130.705,223.303c-4.149,-6.852 -8.514,-13.512 -13.969,-19.2c5.455,-5.689 9.82,-12.349 13.969,-19.2c4.149,6.851 8.513,13.511 13.968,19.2c-5.455,5.688 -9.819,12.348 -13.968,19.2Z" style="fill:#3f3f3f;fill-rule:nonzero;"/><path id="path7088-6" d="M130.705,170.38c-4.149,-6.852 -8.514,-13.512 -13.969,-19.2c5.455,-5.689 9.82,-12.349 13.969,-19.2c4.149,6.851 8.513,13.511 13.968,19.2c-5.455,5.688 -9.819,12.348 -13.968,19.2Z" style="fill:#3f3f3f;fill-rule:nonzero;"/><path id="path7090-8" d="M47.878,170.354c-4.149,-6.852 -8.514,-13.512 -13.969,-19.2c5.455,-5.689 9.82,-12.348 13.969,-19.2c4.149,6.852 8.514,13.511 13.969,19.2c-5.455,5.688 -9.82,12.348 -13.969,19.2Z" style="fill:#3f3f3f;fill-rule:nonzero;"/><path id="path7092-79" d="M89.291,196.837c-4.149,-6.852 -8.514,-13.511 -13.968,-19.2c5.454,-5.689 9.819,-12.348 13.968,-19.2c4.149,6.852 8.514,13.511 13.969,19.2c-5.455,5.689 -9.82,12.348 -13.969,19.2Z" style="fill:#3f3f3f;fill-rule:nonzero;"/><g id="g8345-9-6-9-5"><rect id="path31-8-2-5-6" x="5.758" y="11.071" width="2.559" height="26.399" style="fill:#3f3f3f;fill-rule:nonzero;"/><path id="path33-2-0-3-1" d="M15.902,11.07c-2.463,0 -4.443,2.25 -4.443,5.045l-0,16.311c-0,2.795 1.981,5.044 4.443,5.044l1.438,-0c2.463,-0 4.448,-2.249 4.448,-5.044l-0,-16.311c-0,-2.795 -1.986,-5.045 -4.448,-5.045l-1.438,0Zm0.744,2.496c1.454,0 2.624,1.116 2.624,2.511l-0,16.527c-0,1.395 -1.17,2.521 -2.624,2.521c-1.455,0 -2.628,-1.126 -2.628,-2.521l-0,-16.527c-0,-1.394 1.173,-2.511 2.628,-2.511Z" style="fill:#3f3f3f;fill-rule:nonzero;"/></g><g id="g8345-5-0-8-9"><rect id="path31-1-3-1-4" x="170.264" y="211.979" width="2.559" height="26.399" style="fill:#3f3f3f;fill-rule:nonzero;"/><path id="path33-5-5-1-9" d="M162.679,238.379c2.463,-0 4.443,-2.25 4.443,-5.045l-0,-16.311c-0,-2.795 -1.981,-5.044 -4.443,-5.044l-1.438,0c-2.464,0 -4.448,2.249 -4.448,5.044l0,16.311c0,2.795 1.985,5.045 4.448,5.045l1.438,-0Zm-0.744,-2.497c-1.454,0 -2.624,-1.115 -2.624,-2.51l0,-16.527c0,-1.395 1.17,-2.521 2.624,-2.521c1.454,-0 2.628,1.126 2.628,2.521l-0,16.527c-0,1.394 -1.174,2.51 -2.628,2.51Z" style="fill:#3f3f3f;fill-rule:nonzero;"/></g></g></svg>