<?xml version="1.0" encoding="UTF-8" standalone="no"?><!DOCTYPE svg PUBLIC "-//W3C//DTD SVG 1.1//EN" "http://www.w3.org/Graphics/SVG/1.1/DTD/svg11.dtd"><svg width="100%" height="100%" viewBox="0 0 179 250" version="1.1" xmlns="http://www.w3.org/2000/svg" xmlns:xlink="http://www.w3.org/1999/xlink" xml:space="preserve" xmlns:serif="http://www.serif.com/" style="fill-rule:evenodd;clip-rule:evenodd;stroke-linejoin:round;stroke-miterlimit:2;"><g id="g8542-3-6"><g id="g8587-4-9"><path id="rect7263-6-4" d="M178.583,8.008c-0,-4.42 -3.589,-8.008 -8.008,-8.008l-162.567,-0c-4.42,-0 -8.008,3.588 -8.008,8.008l0,233.433c0,4.419 3.588,8.008 8.008,8.008l162.567,-0c4.419,-0 8.008,-3.589 8.008,-8.008l-0,-233.433Z" style="fill:#fff;"/><path id="path7293-3-2" d="M47.878,26.156c-7.381,10.526 -15.278,16.583 -15.409,24.795c-0.044,2.659 1.393,7.178 5.897,8.043c2.921,0.559 6.944,-1.806 7.028,-6.61c-0.013,-0.956 1.012,-0.931 1.003,0.379c-0.138,3.79 -1.337,8.202 -3.353,11.793l9.669,-0c-2.016,-3.591 -3.216,-8.003 -3.354,-11.793c-0.009,-1.31 1.016,-1.335 1.004,-0.379c0.084,4.804 4.106,7.169 7.028,6.61c4.503,-0.865 5.941,-5.384 5.897,-8.043c-0.132,-8.212 -8.029,-14.269 -15.41,-24.795Z" style="fill-rule:nonzero;"/><path id="path7295-4-8" d="M13.774,39.979c-3.449,4.385 -7.138,6.909 -7.2,10.331c-0.021,1.108 0.651,2.991 2.755,3.351c1.365,0.233 3.245,-0.752 3.284,-2.754c-0.008,-0.398 0.473,-0.388 0.469,0.158c-0.064,1.579 -0.625,3.417 -1.567,4.914l4.517,-0c-0.941,-1.497 -1.502,-3.335 -1.566,-4.914c-0.008,-0.546 0.474,-0.556 0.468,-0.158c0.04,2.002 1.919,2.987 3.284,2.754c2.104,-0.36 2.776,-2.243 2.755,-3.351c-0.061,-3.422 -3.751,-5.946 -7.199,-10.331Z" style="fill-rule:nonzero;"/><path id="path7297-5-1" d="M47.878,170.381c-7.381,-10.526 -15.278,-16.583 -15.409,-24.795c-0.044,-2.659 1.393,-7.179 5.897,-8.044c2.921,-0.559 6.944,1.806 7.028,6.61c-0.013,0.957 1.012,0.932 1.003,-0.379c-0.138,-3.789 -1.337,-8.201 -3.353,-11.792l9.669,-0c-2.016,3.591 -3.216,8.003 -3.354,11.792c-0.009,1.311 1.016,1.336 1.004,0.379c0.084,-4.804 4.106,-7.169 7.028,-6.61c4.503,0.865 5.941,5.385 5.897,8.044c-0.132,8.212 -8.029,14.269 -15.41,24.795Z" style="fill-rule:nonzero;"/><path id="path7299-3-5" d="M164.809,209.47c-3.448,-4.385 -7.138,-6.909 -7.199,-10.331c-0.021,-1.108 0.651,-2.991 2.755,-3.351c1.365,-0.233 3.244,0.752 3.284,2.754c-0.008,0.398 0.473,0.388 0.468,-0.158c-0.064,-1.579 -0.624,-3.417 -1.566,-4.914l4.517,0c-0.942,1.497 -1.502,3.335 -1.567,4.914c-0.008,0.546 0.475,0.556 0.469,0.158c0.039,-2.002 1.919,-2.987 3.284,-2.754c2.104,0.36 2.775,2.243 2.755,3.351c-0.062,3.422 -3.751,5.946 -7.2,10.331Z" style="fill-rule:nonzero;"/><path id="path7301-4-0" d="M130.704,26.156c-7.38,10.526 -15.278,16.583 -15.409,24.795c-0.044,2.659 1.394,7.178 5.897,8.043c2.922,0.559 6.944,-1.806 7.028,-6.61c-0.013,-0.956 1.013,-0.931 1.003,0.379c-0.137,3.79 -1.337,8.202 -3.353,11.793l9.669,-0c-2.016,-3.591 -3.216,-8.003 -3.353,-11.793c-0.01,-1.31 1.016,-1.335 1.003,-0.379c0.084,4.804 4.106,7.169 7.028,6.61c4.503,-0.865 5.941,-5.384 5.897,-8.043c-0.131,-8.212 -8.029,-14.269 -15.41,-24.795Z" style="fill-rule:nonzero;"/><path id="path7303-7-8" d="M47.878,79.068c-7.381,10.526 -15.278,16.583 -15.409,24.795c-0.044,2.659 1.393,7.179 5.897,8.044c2.921,0.558 6.944,-1.806 7.028,-6.61c-0.013,-0.957 1.012,-0.932 1.003,0.379c-0.138,3.789 -1.337,8.201 -3.353,11.792l9.669,0c-2.016,-3.591 -3.216,-8.003 -3.354,-11.792c-0.009,-1.311 1.016,-1.336 1.004,-0.379c0.084,4.804 4.106,7.168 7.028,6.61c4.503,-0.865 5.941,-5.385 5.897,-8.044c-0.132,-8.212 -8.029,-14.269 -15.41,-24.795Z" style="fill-rule:nonzero;"/><path id="path7305-6-7" d="M89.291,60.268c-7.381,10.526 -15.278,16.583 -15.409,24.795c-0.044,2.659 1.394,7.179 5.897,8.044c2.921,0.558 6.944,-1.806 7.028,-6.61c-0.013,-0.957 1.013,-0.932 1.003,0.379c-0.138,3.789 -1.337,8.201 -3.353,11.792l9.669,0c-2.016,-3.591 -3.216,-8.003 -3.353,-11.792c-0.01,-1.311 1.015,-1.336 1.003,-0.379c0.084,4.804 4.106,7.168 7.028,6.61c4.503,-0.865 5.941,-5.385 5.897,-8.044c-0.132,-8.212 -8.029,-14.269 -15.41,-24.795Z" style="fill-rule:nonzero;"/><path id="path7309-8-5" d="M130.704,79.068c-7.38,10.526 -15.278,16.583 -15.409,24.795c-0.044,2.659 1.394,7.179 5.897,8.044c2.922,0.558 6.944,-1.806 7.028,-6.61c-0.013,-0.957 1.013,-0.932 1.003,0.379c-0.137,3.789 -1.337,8.201 -3.353,11.792l9.669,0c-2.016,-3.591 -3.216,-8.003 -3.353,-11.792c-0.01,-1.311 1.016,-1.336 1.003,-0.379c0.084,4.804 4.106,7.168 7.028,6.61c4.503,-0.865 5.941,-5.385 5.897,-8.044c-0.131,-8.212 -8.029,-14.269 -15.41,-24.795Z" style="fill-rule:nonzero;"/><path id="path7313-6-8" d="M47.878,223.293c-7.381,-10.526 -15.278,-16.583 -15.409,-24.795c-0.044,-2.659 1.393,-7.178 5.897,-8.044c2.921,-0.558 6.944,1.806 7.028,6.61c-0.013,0.957 1.012,0.932 1.003,-0.379c-0.138,-3.789 -1.337,-8.201 -3.353,-11.792l9.669,-0c-2.016,3.591 -3.216,8.003 -3.354,11.792c-0.009,1.311 1.016,1.336 1.004,0.379c0.084,-4.804 4.106,-7.168 7.028,-6.61c4.503,0.866 5.941,5.385 5.897,8.044c-0.132,8.212 -8.029,14.269 -15.41,24.795Z" style="fill-rule:nonzero;"/><path id="path7315-7-3" d="M130.704,223.293c-7.38,-10.526 -15.278,-16.583 -15.409,-24.795c-0.044,-2.659 1.394,-7.178 5.897,-8.044c2.922,-0.558 6.944,1.806 7.028,6.61c-0.013,0.957 1.013,0.932 1.003,-0.379c-0.137,-3.789 -1.337,-8.201 -3.353,-11.792l9.669,-0c-2.016,3.591 -3.216,8.003 -3.353,11.792c-0.01,1.311 1.016,1.336 1.003,0.379c0.084,-4.804 4.106,-7.168 7.028,-6.61c4.503,0.866 5.941,5.385 5.897,8.044c-0.131,8.212 -8.029,14.269 -15.41,24.795Z" style="fill-rule:nonzero;"/><path id="path7317-0-2" d="M89.291,189.181c-7.381,-10.526 -15.278,-16.583 -15.409,-24.795c-0.044,-2.659 1.394,-7.179 5.897,-8.044c2.921,-0.559 6.944,1.806 7.028,6.61c-0.013,0.957 1.013,0.932 1.003,-0.379c-0.138,-3.789 -1.337,-8.201 -3.353,-11.792l9.669,-0c-2.016,3.591 -3.216,8.003 -3.353,11.792c-0.01,1.311 1.015,1.336 1.003,0.379c0.084,-4.804 4.106,-7.169 7.028,-6.61c4.503,0.865 5.941,5.385 5.897,8.044c-0.132,8.212 -8.029,14.269 -15.41,24.795Z" style="fill-rule:nonzero;"/><path id="path7319-5-6" d="M130.704,170.381c-7.38,-10.526 -15.278,-16.583 -15.409,-24.795c-0.044,-2.659 1.394,-7.179 5.897,-8.044c2.922,-0.559 6.944,1.806 7.028,6.61c-0.013,0.957 1.013,0.932 1.003,-0.379c-0.137,-3.789 -1.337,-8.201 -3.353,-11.792l9.669,-0c-2.016,3.591 -3.216,8.003 -3.353,11.792c-0.01,1.311 1.016,1.336 1.003,0.379c0.084,-4.804 4.106,-7.169 7.028,-6.61c4.503,0.865 5.941,5.385 5.897,8.044c-0.131,8.212 -8.029,14.269 -15.41,24.795Z" style="fill-rule:nonzero;"/><rect id="path31-5-4-7" x="5.758" y="11.071" width="2.559" height="26.399" style="fill-rule:nonzero;"/><path id="path33-4-6-8" d="M15.902,11.07c-2.463,0 -4.443,2.25 -4.443,5.045l-0,16.311c-0,2.795 1.981,5.044 4.443,5.044l1.438,-0c2.463,-0 4.448,-2.249 4.448,-5.044l-0,-16.311c-0,-2.795 -1.986,-5.045 -4.448,-5.045l-1.438,0Zm0.744,2.496c1.454,0 2.624,1.116 2.624,2.511l-0,16.527c-0,1.395 -1.17,2.521 -2.624,2.521c-1.455,0 -2.628,-1.126 -2.628,-2.521l-0,-16.527c-0,-1.394 1.173,-2.511 2.628,-2.511Z" style="fill-rule:nonzero;"/><g id="g8583-6-9"><rect id="path31-5-5-6-7" x="170.264" y="211.979" width="2.559" height="26.399" style="fill-rule:nonzero;"/><path id="path33-4-3-7-9" d="M162.679,238.379c2.463,-0 4.443,-2.25 4.443,-5.045l-0,-16.311c-0,-2.795 -1.981,-5.044 -4.443,-5.044l-1.438,0c-2.464,0 -4.448,2.249 -4.448,5.044l0,16.311c0,2.795 1.985,5.045 4.448,5.045l1.438,-0Zm-0.744,-2.497c-1.454,0 -2.624,-1.115 -2.624,-2.51l0,-16.527c0,-1.395 1.17,-2.521 2.624,-2.521c1.454,-0 2.628,1.126 2.628,2.521l-0,16.527c-0,1.394 -1.174,2.51 -2.628,2.51Z" style="fill-rule:nonzero;"/></g></g></g></svg>