<?xml version="1.0" encoding="UTF-8" standalone="no"?><!DOCTYPE svg PUBLIC "-//W3C//DTD SVG 1.1//EN" "http://www.w3.org/Graphics/SVG/1.1/DTD/svg11.dtd"><svg width="100%" height="100%" viewBox="0 0 179 250" version="1.1" xmlns="http://www.w3.org/2000/svg" xmlns:xlink="http://www.w3.org/1999/xlink" xml:space="preserve" xmlns:serif="http://www.serif.com/" style="fill-rule:evenodd;clip-rule:evenodd;stroke-linejoin:round;stroke-miterlimit:2;"><g id="g11103-4-9"><g id="_5D" serif:id="5D"><path id="rect10278-0-6" d="M178.583,8.008c-0,-4.42 -3.589,-8.008 -8.008,-8.008l-162.567,0c-4.42,0 -8.008,3.588 -8.008,8.008l-0,233.433c-0,4.419 3.588,8.008 8.008,8.008l162.567,-0c4.419,-0 8.008,-3.589 8.008,-8.008l-0,-233.433Z" style="fill:#fff;"/></g><path id="path10308-5-1" d="M47.878,117.468c0,0 -3.733,-6.124 -8.769,-13.325c-3.368,-4.818 -6.062,-10.036 -6.312,-14.53c-0.287,-5.134 2.431,-10.285 7.353,-10.534c4.919,-0.25 6.915,3.958 7.728,7.428c0.813,-3.47 2.81,-7.678 7.728,-7.428c4.922,0.249 7.641,5.4 7.353,10.534c-0.25,4.494 -2.943,9.712 -6.312,14.53c-5.036,7.201 -8.769,13.325 -8.769,13.325Z" style="fill:#3f3f3f;fill-rule:nonzero;"/><path id="path10310-7-8" d="M13.774,55.979c-0,-0 -1.78,-2.552 -4.181,-5.552c-1.606,-2.008 -2.89,-4.182 -3.009,-6.055c-0.137,-2.139 1.159,-4.285 3.505,-4.389c2.345,-0.104 3.297,1.649 3.685,3.095c0.387,-1.446 1.339,-3.199 3.684,-3.095c2.347,0.104 3.643,2.25 3.506,4.389c-0.119,1.873 -1.403,4.047 -3.01,6.055c-2.4,3 -4.18,5.552 -4.18,5.552Z" style="fill:#3f3f3f;fill-rule:nonzero;"/><path id="path10312-3-5" d="M164.809,193.47c0,0 -1.779,2.552 -4.18,5.552c-1.606,2.008 -2.89,4.182 -3.01,6.055c-0.137,2.139 1.159,4.285 3.506,4.389c2.345,0.104 3.297,-1.649 3.684,-3.095c0.388,1.446 1.34,3.199 3.685,3.095c2.346,-0.104 3.643,-2.25 3.506,-4.389c-0.12,-1.873 -1.404,-4.047 -3.01,-6.055c-2.401,-3 -4.181,-5.552 -4.181,-5.552Z" style="fill:#3f3f3f;fill-rule:nonzero;"/><path id="path10314-8-8" d="M89.291,98.668c0,0 -3.733,-6.124 -8.768,-13.325c-3.369,-4.818 -6.062,-10.036 -6.313,-14.53c-0.287,-5.134 2.431,-10.285 7.353,-10.534c4.919,-0.25 6.916,3.958 7.728,7.428c0.813,-3.47 2.81,-7.678 7.728,-7.428c4.922,0.249 7.641,5.4 7.354,10.534c-0.251,4.494 -2.944,9.712 -6.313,14.53c-5.036,7.201 -8.769,13.325 -8.769,13.325Z" style="fill:#3f3f3f;fill-rule:nonzero;"/><path id="path10318-3-7" d="M47.878,64.556c0,-0 -3.733,-6.124 -8.769,-13.325c-3.368,-4.819 -6.062,-10.036 -6.312,-14.531c-0.287,-5.133 2.431,-10.284 7.353,-10.534c4.919,-0.249 6.915,3.959 7.728,7.428c0.813,-3.469 2.81,-7.677 7.728,-7.428c4.922,0.25 7.641,5.401 7.353,10.534c-0.25,4.495 -2.943,9.712 -6.312,14.531c-5.036,7.201 -8.769,13.325 -8.769,13.325Z" style="fill:#3f3f3f;fill-rule:nonzero;"/><path id="path10322-4-6" d="M130.704,117.468c0,0 -3.733,-6.124 -8.768,-13.325c-3.369,-4.818 -6.062,-10.036 -6.313,-14.53c-0.287,-5.134 2.432,-10.285 7.353,-10.534c4.919,-0.25 6.916,3.958 7.728,7.428c0.813,-3.47 2.81,-7.678 7.729,-7.428c4.921,0.249 7.64,5.4 7.353,10.534c-0.251,4.494 -2.944,9.712 -6.313,14.53c-5.035,7.201 -8.769,13.325 -8.769,13.325Z" style="fill:#3f3f3f;fill-rule:nonzero;"/><path id="path10324-9-8" d="M130.704,64.556c0,-0 -3.733,-6.124 -8.768,-13.325c-3.369,-4.819 -6.062,-10.036 -6.313,-14.531c-0.287,-5.133 2.432,-10.284 7.353,-10.534c4.919,-0.249 6.916,3.959 7.728,7.428c0.813,-3.469 2.81,-7.677 7.729,-7.428c4.921,0.25 7.64,5.401 7.353,10.534c-0.251,4.495 -2.944,9.712 -6.313,14.531c-5.035,7.201 -8.769,13.325 -8.769,13.325Z" style="fill:#3f3f3f;fill-rule:nonzero;"/><path id="path10332-8-6" d="M89.291,150.781c0,-0 -3.733,6.124 -8.768,13.325c-3.369,4.818 -6.062,10.036 -6.313,14.53c-0.287,5.134 2.431,10.284 7.353,10.534c4.919,0.249 6.916,-3.958 7.728,-7.428c0.813,3.47 2.81,7.677 7.728,7.428c4.922,-0.25 7.641,-5.4 7.354,-10.534c-0.251,-4.494 -2.944,-9.712 -6.313,-14.53c-5.036,-7.201 -8.769,-13.325 -8.769,-13.325Z" style="fill:#3f3f3f;fill-rule:nonzero;"/><path id="path10334-5-0" d="M130.704,131.981c0,-0 -3.733,6.124 -8.768,13.325c-3.369,4.818 -6.062,10.036 -6.313,14.53c-0.287,5.134 2.432,10.284 7.353,10.534c4.919,0.249 6.916,-3.958 7.728,-7.428c0.813,3.47 2.81,7.677 7.729,7.428c4.921,-0.25 7.64,-5.4 7.353,-10.534c-0.251,-4.494 -2.944,-9.712 -6.313,-14.53c-5.035,-7.201 -8.769,-13.325 -8.769,-13.325Z" style="fill:#3f3f3f;fill-rule:nonzero;"/><path id="path10336-3-5" d="M47.878,131.981c0,-0 -3.733,6.124 -8.769,13.325c-3.368,4.818 -6.062,10.036 -6.312,14.53c-0.287,5.134 2.431,10.284 7.353,10.534c4.919,0.249 6.915,-3.958 7.728,-7.428c0.813,3.47 2.81,7.677 7.728,7.428c4.922,-0.25 7.641,-5.4 7.353,-10.534c-0.25,-4.494 -2.943,-9.712 -6.312,-14.53c-5.036,-7.201 -8.769,-13.325 -8.769,-13.325Z" style="fill:#3f3f3f;fill-rule:nonzero;"/><path id="path10338-2-9" d="M130.704,184.893c0,-0 -3.733,6.124 -8.768,13.325c-3.369,4.819 -6.062,10.036 -6.313,14.53c-0.287,5.134 2.432,10.285 7.353,10.534c4.919,0.25 6.916,-3.958 7.728,-7.427c0.813,3.469 2.81,7.677 7.729,7.427c4.921,-0.249 7.64,-5.4 7.353,-10.534c-0.251,-4.494 -2.944,-9.711 -6.313,-14.53c-5.035,-7.201 -8.769,-13.325 -8.769,-13.325Z" style="fill:#3f3f3f;fill-rule:nonzero;"/><path id="path10340-9-7" d="M47.878,184.893c0,-0 -3.733,6.124 -8.769,13.325c-3.368,4.819 -6.062,10.036 -6.312,14.53c-0.287,5.134 2.431,10.285 7.353,10.534c4.919,0.25 6.915,-3.958 7.728,-7.427c0.813,3.469 2.81,7.677 7.728,7.427c4.922,-0.249 7.641,-5.4 7.353,-10.534c-0.25,-4.494 -2.943,-9.711 -6.312,-14.53c-5.036,-7.201 -8.769,-13.325 -8.769,-13.325Z" style="fill:#3f3f3f;fill-rule:nonzero;"/><g id="g7724-24-8-9-7"><g id="g8345-9-7-5-1"><rect id="path31-8-2-9-8" x="5.758" y="11.071" width="2.559" height="26.399" style="fill:#3f3f3f;fill-rule:nonzero;"/><path id="path33-2-3-1-6" d="M15.902,11.07c-2.463,0 -4.443,2.25 -4.443,5.045l-0,16.311c-0,2.795 1.981,5.044 4.443,5.044l1.438,-0c2.464,-0 4.448,-2.249 4.448,-5.044l-0,-16.311c-0,-2.795 -1.985,-5.045 -4.448,-5.045l-1.438,0Zm0.744,2.496c1.454,0 2.624,1.116 2.624,2.511l-0,16.527c-0,1.395 -1.17,2.521 -2.624,2.521c-1.454,0 -2.628,-1.126 -2.628,-2.521l-0,-16.527c-0,-1.394 1.174,-2.511 2.628,-2.511Z" style="fill:#3f3f3f;fill-rule:nonzero;"/></g></g><g id="g7724-2-5-0-2-7"><g id="g8345-5-0-9-6-9"><g id="g10963-5-1"><rect id="path31-1-3-2-1-5" x="170.264" y="211.979" width="2.559" height="26.399" style="fill:#3f3f3f;fill-rule:nonzero;"/><path id="path33-5-5-3-3-1" d="M162.679,238.379c2.463,-0 4.443,-2.25 4.443,-5.045l0,-16.311c0,-2.795 -1.981,-5.044 -4.443,-5.044l-1.438,0c-2.464,0 -4.448,2.249 -4.448,5.044l0,16.311c0,2.795 1.985,5.045 4.448,5.045l1.438,-0Zm-0.744,-2.497c-1.454,0 -2.624,-1.115 -2.624,-2.51l0,-16.527c0,-1.395 1.17,-2.521 2.624,-2.521c1.454,-0 2.628,1.126 2.628,2.521l0,16.527c0,1.394 -1.174,2.51 -2.628,2.51Z" style="fill:#3f3f3f;fill-rule:nonzero;"/></g></g></g></g></svg>