<?xml version="1.0" encoding="UTF-8" standalone="no"?><!DOCTYPE svg PUBLIC "-//W3C//DTD SVG 1.1//EN" "http://www.w3.org/Graphics/SVG/1.1/DTD/svg11.dtd"><svg width="100%" height="100%" viewBox="0 0 179 250" version="1.1" xmlns="http://www.w3.org/2000/svg" xmlns:xlink="http://www.w3.org/1999/xlink" xml:space="preserve" xmlns:serif="http://www.serif.com/" style="fill-rule:evenodd;clip-rule:evenodd;stroke-linejoin:round;stroke-miterlimit:2;"><g id="g6716"><path id="rect6486-8" d="M178.583,8.008c-0,-4.42 -3.589,-8.008 -8.008,-8.008l-162.567,0c-4.42,0 -8.008,3.588 -8.008,8.008l0,233.433c0,4.419 3.588,8.008 8.008,8.008l162.567,-0c4.419,-0 8.008,-3.589 8.008,-8.008l-0,-233.433Z" style="fill:#fff;"/><path id="path6516-8" d="M89.291,64.556c-4.149,-6.852 -8.514,-13.511 -13.968,-19.2c5.454,-5.689 9.819,-12.348 13.968,-19.2c4.149,6.852 8.514,13.511 13.969,19.2c-5.455,5.689 -9.82,12.348 -13.969,19.2Z" style="fill:#3f3f3f;fill-rule:nonzero;"/><path id="path6518-2" d="M13.774,55.979c-1.729,-2.855 -3.548,-5.63 -5.82,-8c2.272,-2.371 4.091,-5.145 5.82,-8c1.729,2.855 3.547,5.629 5.82,8c-2.273,2.37 -4.091,5.145 -5.82,8Z" style="fill:#3f3f3f;fill-rule:nonzero;"/><path id="path6522-0" d="M164.809,209.47c-1.728,-2.855 -3.547,-5.629 -5.82,-8c2.273,-2.37 4.092,-5.145 5.82,-8c1.729,2.855 3.548,5.63 5.821,8c-2.273,2.371 -4.092,5.145 -5.821,8Z" style="fill:#3f3f3f;fill-rule:nonzero;"/><path id="path6538-6" d="M89.291,223.293c-4.149,-6.852 -8.514,-13.511 -13.968,-19.2c5.454,-5.689 9.819,-12.348 13.968,-19.2c4.149,6.852 8.514,13.511 13.969,19.2c-5.455,5.689 -9.82,12.348 -13.969,19.2Z" style="fill:#3f3f3f;fill-rule:nonzero;"/><path id="path15-34-1-4-2" d="M6.259,37.414l0.129,-1.628c0.406,-5.031 1.487,-6.728 7.618,-11.98c2.977,-2.546 3.953,-3.802 4.09,-5.259c0.389,-3.437 -2.652,-4.51 -4.633,-4.525c-2.567,-0.024 -5.472,1.538 -4.085,5.17l-2.881,0.862c-0.579,-3.387 0.016,-6.565 2.712,-7.975c3.6,-1.838 8.216,-1.117 10.547,1.779c1.566,1.943 1.924,4.633 1.084,6.737c-2.455,5.377 -10.783,7.742 -11.471,13.963l9.205,-0l-0,-3.464l2.712,0l0,6.376l-15.027,-0.057l0,0.001Z" style="fill:#3f3f3f;fill-rule:nonzero;"/><path id="path15-5-4-6-4" d="M172.322,212.035l-0.129,1.628c-0.406,5.031 -1.487,6.728 -7.618,11.98c-2.977,2.545 -3.953,3.801 -4.09,5.259c-0.39,3.437 2.652,4.51 4.633,4.525c2.567,0.024 5.472,-1.539 4.085,-5.17l2.881,-0.862c0.579,3.387 -0.017,6.564 -2.712,7.975c-3.6,1.838 -8.216,1.117 -10.547,-1.779c-1.566,-1.944 -1.924,-4.633 -1.084,-6.737c2.455,-5.377 10.783,-7.742 11.471,-13.963l-9.205,0l0,3.463l-2.712,0l-0,-6.375l15.027,0.057l-0,-0.001Z" style="fill:#3f3f3f;fill-rule:nonzero;"/></g></svg>