<?xml version="1.0" encoding="UTF-8" standalone="no"?><!DOCTYPE svg PUBLIC "-//W3C//DTD SVG 1.1//EN" "http://www.w3.org/Graphics/SVG/1.1/DTD/svg11.dtd"><svg width="100%" height="100%" viewBox="0 0 179 250" version="1.1" xmlns="http://www.w3.org/2000/svg" xmlns:xlink="http://www.w3.org/1999/xlink" xml:space="preserve" xmlns:serif="http://www.serif.com/" style="fill-rule:evenodd;clip-rule:evenodd;stroke-linejoin:round;stroke-miterlimit:2;"><g id="g5421"><g id="_5D" serif:id="5D"><path id="rect6355-6-85-4-0-5" d="M178.583,8.008c-0,-4.42 -3.589,-8.008 -8.008,-8.008l-162.567,0c-4.42,0 -8.008,3.588 -8.008,8.008l0,233.433c0,4.419 3.588,8.008 8.008,8.008l162.567,-0c4.419,-0 8.008,-3.589 8.008,-8.008l-0,-233.433Z" style="fill:#fff;"/></g><path id="path147-0-8-1-6-7-2-1-6-3" d="M89.288,26.489c-7.855,0.17 -11.377,9.002 -5.559,15.861c0.843,1 0.93,1.575 -0.615,0.614c-3.916,-2.616 -11.426,-0.897 -11.811,7.1c-0.475,9.853 13.31,12.692 15.898,2.215c0.137,-1.106 1.036,-1.08 0.819,0.489c-0.236,4.258 -1.567,8.239 -3.398,12.121l9.338,-0c-1.83,-3.882 -3.162,-7.863 -3.398,-12.121c-0.217,-1.569 0.683,-1.595 0.819,-0.489c2.589,10.477 16.373,7.638 15.898,-2.215c-0.384,-7.997 -7.894,-9.716 -11.811,-7.1c-1.545,0.961 -1.458,0.386 -0.614,-0.614c5.817,-6.859 2.295,-15.691 -5.56,-15.861c0,-0.001 0,-0 -0.008,-0l0.002,-0Z" style="fill-rule:nonzero;"/><path id="path147-0-8-1-6-1-4-5-4-2" d="M89.288,223.626c-7.855,-0.171 -11.377,-9.003 -5.559,-15.862c0.843,-1 0.93,-1.574 -0.615,-0.613c-3.916,2.615 -11.426,0.896 -11.811,-7.101c-0.475,-9.853 13.31,-12.692 15.898,-2.215c0.137,1.106 1.036,1.08 0.819,-0.489c-0.236,-4.258 -1.567,-8.239 -3.398,-12.12l9.338,-0c-1.83,3.881 -3.162,7.862 -3.398,12.12c-0.217,1.569 0.683,1.595 0.819,0.489c2.589,-10.477 16.373,-7.638 15.898,2.215c-0.384,7.997 -7.894,9.716 -11.811,7.101c-1.545,-0.961 -1.458,-0.387 -0.614,0.613c5.817,6.859 2.295,15.691 -5.56,15.862c0,-0 0,-0 -0.008,-0l0.002,-0Z" style="fill-rule:nonzero;"/><path id="path147-6-9-8-7-0-5-4-9-1" d="M164.811,209.47c3.141,-0.071 4.55,-3.751 2.223,-6.609c-0.337,-0.416 -0.372,-0.656 0.246,-0.255c1.567,1.09 4.571,0.373 4.725,-2.959c0.19,-4.105 -5.324,-5.288 -6.36,-0.923c-0.054,0.461 -0.414,0.45 -0.327,-0.203c0.094,-1.775 0.627,-3.433 1.359,-5.051l-3.735,0c0.732,1.618 1.265,3.276 1.359,5.051c0.087,0.653 -0.273,0.664 -0.327,0.203c-1.036,-4.365 -6.55,-3.182 -6.36,0.923c0.154,3.332 3.158,4.049 4.725,2.959c0.618,-0.401 0.583,-0.161 0.245,0.255c-2.326,2.858 -0.918,6.538 2.224,6.609c0.001,0 0,0 0,0l0.003,0Z" style="fill-rule:nonzero;"/><path id="path147-6-9-8-7-4-5-9-2-7" d="M13.773,39.979c-3.142,0.07 -4.551,3.751 -2.224,6.609c0.337,0.416 0.372,0.656 -0.246,0.255c-1.567,-1.09 -4.57,-0.373 -4.724,2.959c-0.19,4.105 5.324,5.288 6.359,0.923c0.054,-0.461 0.414,-0.451 0.328,0.203c-0.095,1.775 -0.627,3.433 -1.36,5.051l3.735,-0c-0.732,-1.618 -1.264,-3.276 -1.359,-5.051c-0.087,-0.654 0.273,-0.664 0.328,-0.203c1.035,4.365 6.549,3.182 6.359,-0.923c-0.154,-3.332 -3.158,-4.049 -4.724,-2.959c-0.618,0.401 -0.584,0.161 -0.246,-0.255c2.327,-2.858 0.918,-6.538 -2.224,-6.609c-0.001,-0 0,-0 0,-0l-0.002,-0Z" style="fill-rule:nonzero;"/><path id="path15-9-1-0-1" d="M5.859,37.414l0.129,-1.628c0.406,-5.031 1.487,-6.728 7.618,-11.98c2.977,-2.545 3.953,-3.802 4.09,-5.259c0.39,-3.437 -2.652,-4.51 -4.633,-4.525c-2.567,-0.024 -5.472,1.539 -4.085,5.17l-2.881,0.862c-0.579,-3.387 0.017,-6.565 2.712,-7.975c3.6,-1.838 8.216,-1.117 10.547,1.779c1.566,1.944 1.924,4.633 1.084,6.737c-2.455,5.377 -10.783,7.742 -11.471,13.963l9.205,-0l-0,-3.463l2.712,-0l0,6.375l-15.027,-0.056l0,-0Z" style="fill-rule:nonzero;"/><path id="path15-5-7-4-9-4" d="M172.322,212.035l-0.129,1.628c-0.406,5.031 -1.487,6.728 -7.618,11.98c-2.977,2.545 -3.953,3.801 -4.09,5.259c-0.39,3.437 2.652,4.51 4.633,4.525c2.567,0.024 5.472,-1.539 4.085,-5.17l2.881,-0.862c0.579,3.387 -0.017,6.565 -2.712,7.975c-3.6,1.838 -8.216,1.117 -10.547,-1.779c-1.566,-1.944 -1.924,-4.633 -1.084,-6.737c2.455,-5.377 10.783,-7.742 11.471,-13.963l-9.205,0l0,3.463l-2.712,0l-0,-6.375l15.027,0.057l-0,-0.001Z" style="fill-rule:nonzero;"/></g></svg>