<?xml version="1.0" encoding="UTF-8" standalone="no"?><!DOCTYPE svg PUBLIC "-//W3C//DTD SVG 1.1//EN" "http://www.w3.org/Graphics/SVG/1.1/DTD/svg11.dtd"><svg width="100%" height="100%" viewBox="0 0 179 250" version="1.1" xmlns="http://www.w3.org/2000/svg" xmlns:xlink="http://www.w3.org/1999/xlink" xml:space="preserve" xmlns:serif="http://www.serif.com/" style="fill-rule:evenodd;clip-rule:evenodd;stroke-linejoin:round;stroke-miterlimit:2;"><g id="g11398-8-7"><g id="_5D" serif:id="5D"><path id="rect9734-4-5" d="M178.583,8.008c-0,-4.42 -3.589,-8.008 -8.008,-8.008l-162.567,0c-4.42,0 -8.008,3.588 -8.008,8.008l0,233.433c0,4.419 3.588,8.008 8.008,8.008l162.567,-0c4.419,-0 8.008,-3.589 8.008,-8.008l-0,-233.433Z" style="fill:#fff;"/></g><path id="path9766-0-8" d="M13.774,55.979c-0,-0 -1.78,-2.552 -4.181,-5.552c-1.606,-2.008 -2.89,-4.182 -3.009,-6.055c-0.137,-2.139 1.159,-4.285 3.505,-4.389c2.345,-0.104 3.297,1.649 3.685,3.095c0.387,-1.446 1.339,-3.199 3.684,-3.095c2.347,0.104 3.643,2.25 3.506,4.389c-0.119,1.873 -1.403,4.047 -3.01,6.055c-2.4,3 -4.18,5.552 -4.18,5.552Z" style="fill:#3f3f3f;fill-rule:nonzero;"/><path id="path9768-3-3" d="M164.809,193.47c0,0 -1.779,2.552 -4.18,5.552c-1.606,2.008 -2.89,4.182 -3.01,6.055c-0.137,2.139 1.16,4.285 3.506,4.389c2.345,0.104 3.297,-1.649 3.684,-3.095c0.388,1.446 1.34,3.199 3.685,3.095c2.346,-0.104 3.643,-2.25 3.506,-4.389c-0.12,-1.873 -1.404,-4.047 -3.01,-6.055c-2.401,-3 -4.181,-5.552 -4.181,-5.552Z" style="fill:#3f3f3f;fill-rule:nonzero;"/><path id="path9772-1-7" d="M89.291,64.556c0,-0 -3.733,-6.124 -8.768,-13.325c-3.369,-4.819 -6.062,-10.036 -6.313,-14.531c-0.287,-5.133 2.431,-10.284 7.353,-10.534c4.919,-0.249 6.916,3.959 7.728,7.428c0.813,-3.469 2.81,-7.677 7.728,-7.428c4.922,0.25 7.641,5.401 7.354,10.534c-0.251,4.495 -2.944,9.712 -6.313,14.531c-5.036,7.201 -8.769,13.325 -8.769,13.325Z" style="fill:#3f3f3f;fill-rule:nonzero;"/><path id="path9786-2-1" d="M89.291,184.893c0,-0 -3.733,6.124 -8.768,13.325c-3.369,4.819 -6.062,10.036 -6.313,14.53c-0.287,5.134 2.431,10.285 7.353,10.534c4.919,0.25 6.916,-3.958 7.728,-7.427c0.813,3.469 2.81,7.677 7.728,7.427c4.922,-0.249 7.641,-5.4 7.354,-10.534c-0.251,-4.494 -2.944,-9.711 -6.313,-14.53c-5.036,-7.201 -8.769,-13.325 -8.769,-13.325Z" style="fill:#3f3f3f;fill-rule:nonzero;"/><path id="path15-34-0-0-4" d="M6.259,37.414l0.129,-1.628c0.406,-5.031 1.487,-6.728 7.618,-11.98c2.977,-2.546 3.953,-3.802 4.09,-5.259c0.39,-3.437 -2.652,-4.51 -4.633,-4.525c-2.567,-0.024 -5.472,1.539 -4.085,5.17l-2.881,0.862c-0.579,-3.387 0.017,-6.565 2.712,-7.975c3.6,-1.838 8.216,-1.117 10.547,1.779c1.566,1.944 1.924,4.633 1.084,6.737c-2.455,5.377 -10.783,7.742 -11.471,13.963l9.205,-0l-0,-3.464l2.712,0l0,6.376l-15.027,-0.057l0,0.001Z" style="fill:#3f3f3f;fill-rule:nonzero;"/><path id="path15-5-4-5-2-7" d="M172.322,212.035l-0.129,1.628c-0.406,5.031 -1.487,6.728 -7.618,11.98c-2.977,2.545 -3.953,3.801 -4.09,5.259c-0.39,3.437 2.652,4.51 4.633,4.525c2.567,0.024 5.472,-1.539 4.085,-5.17l2.881,-0.862c0.579,3.387 -0.017,6.565 -2.712,7.975c-3.6,1.838 -8.216,1.117 -10.547,-1.779c-1.566,-1.944 -1.924,-4.633 -1.084,-6.737c2.455,-5.377 10.783,-7.742 11.471,-13.963l-9.205,0l0,3.463l-2.712,0l-0,-6.375l15.027,0.057l-0,-0.001Z" style="fill:#3f3f3f;fill-rule:nonzero;"/></g></svg>