<?xml version="1.0" encoding="UTF-8" standalone="no"?><!DOCTYPE svg PUBLIC "-//W3C//DTD SVG 1.1//EN" "http://www.w3.org/Graphics/SVG/1.1/DTD/svg11.dtd"><svg width="100%" height="100%" viewBox="0 0 179 250" version="1.1" xmlns="http://www.w3.org/2000/svg" xmlns:xlink="http://www.w3.org/1999/xlink" xml:space="preserve" xmlns:serif="http://www.serif.com/" style="fill-rule:evenodd;clip-rule:evenodd;stroke-linejoin:round;stroke-miterlimit:2;"><g id="g8417-9-8"><path id="rect6716-2-0" d="M178.583,8.008c-0,-4.42 -3.589,-8.008 -8.008,-8.008l-162.567,-0c-4.42,-0 -8.008,3.588 -8.008,8.008l0,233.433c0,4.419 3.588,8.008 8.008,8.008l162.567,-0c4.419,-0 8.008,-3.589 8.008,-8.008l-0,-233.433Z" style="fill:#fff;"/><path id="path6748-4-0" d="M13.774,39.979c-3.449,4.385 -7.138,6.909 -7.2,10.331c-0.02,1.108 0.651,2.991 2.755,3.351c1.365,0.233 3.245,-0.752 3.284,-2.754c-0.008,-0.398 0.473,-0.388 0.469,0.158c-0.064,1.579 -0.625,3.417 -1.567,4.914l4.518,-0c-0.942,-1.497 -1.503,-3.335 -1.567,-4.914c-0.008,-0.546 0.475,-0.556 0.469,-0.158c0.039,2.002 1.918,2.987 3.283,2.754c2.104,-0.36 2.776,-2.243 2.755,-3.351c-0.061,-3.422 -3.751,-5.946 -7.199,-10.331Z" style="fill-rule:nonzero;"/><path id="path6752-9-1" d="M164.809,209.47c-3.448,-4.385 -7.138,-6.909 -7.199,-10.331c-0.021,-1.108 0.651,-2.991 2.755,-3.351c1.365,-0.233 3.244,0.752 3.284,2.754c-0.008,0.398 0.473,0.388 0.468,-0.158c-0.064,-1.579 -0.624,-3.417 -1.566,-4.914l4.517,0c-0.942,1.497 -1.502,3.335 -1.566,4.914c-0.008,0.546 0.474,0.556 0.468,0.158c0.039,-2.002 1.919,-2.987 3.284,-2.754c2.104,0.36 2.776,2.243 2.755,3.351c-0.062,3.422 -3.751,5.946 -7.2,10.331Z" style="fill-rule:nonzero;"/><path id="path6760-2-4" d="M89.291,26.156c-7.38,10.526 -15.278,16.583 -15.409,24.795c-0.044,2.659 1.394,7.178 5.897,8.043c2.921,0.559 6.944,-1.806 7.028,-6.61c-0.013,-0.956 1.013,-0.931 1.003,0.379c-0.138,3.79 -1.337,8.202 -3.353,11.793l9.669,-0c-2.016,-3.591 -3.216,-8.003 -3.353,-11.793c-0.01,-1.31 1.016,-1.335 1.003,-0.379c0.084,4.804 4.106,7.169 7.028,6.61c4.503,-0.865 5.941,-5.384 5.897,-8.043c-0.131,-8.212 -8.029,-14.269 -15.41,-24.795Z" style="fill-rule:nonzero;"/><path id="path6774-6-2" d="M89.291,223.293c-7.38,-10.526 -15.278,-16.583 -15.409,-24.795c-0.044,-2.659 1.394,-7.178 5.897,-8.044c2.921,-0.558 6.944,1.806 7.028,6.61c-0.013,0.957 1.013,0.932 1.003,-0.379c-0.138,-3.789 -1.337,-8.201 -3.353,-11.792l9.669,-0c-2.016,3.591 -3.216,8.003 -3.353,11.792c-0.01,1.311 1.016,1.336 1.003,0.379c0.084,-4.804 4.106,-7.168 7.028,-6.61c4.503,0.866 5.941,5.385 5.897,8.044c-0.131,8.212 -8.029,14.269 -15.41,24.795Z" style="fill-rule:nonzero;"/><path id="path15-3-8-9" d="M6.259,37.414l0.129,-1.628c0.406,-5.031 1.487,-6.728 7.618,-11.98c2.977,-2.545 3.953,-3.802 4.09,-5.259c0.39,-3.437 -2.652,-4.51 -4.633,-4.525c-2.567,-0.024 -5.472,1.539 -4.085,5.169l-2.881,0.863c-0.579,-3.387 0.017,-6.565 2.712,-7.975c3.6,-1.838 8.216,-1.118 10.547,1.779c1.566,1.943 1.924,4.633 1.084,6.737c-2.455,5.377 -10.783,7.742 -11.471,13.963l9.205,-0l-0,-3.464l2.712,0l0,6.376l-15.027,-0.057l0,0.001Z" style="fill-rule:nonzero;"/><path id="path15-3-5-1-4" d="M172.322,212.035l-0.129,1.628c-0.406,5.031 -1.487,6.728 -7.618,11.98c-2.977,2.545 -3.953,3.801 -4.09,5.259c-0.39,3.437 2.652,4.51 4.633,4.525c2.567,0.024 5.472,-1.539 4.085,-5.17l2.881,-0.862c0.579,3.387 -0.017,6.564 -2.712,7.975c-3.6,1.838 -8.216,1.117 -10.547,-1.779c-1.566,-1.944 -1.924,-4.633 -1.084,-6.737c2.455,-5.377 10.783,-7.742 11.471,-13.963l-9.205,0l0,3.463l-2.712,0l-0,-6.375l15.027,0.056l-0,0Z" style="fill-rule:nonzero;"/></g></svg>