<?xml version="1.0" encoding="UTF-8" standalone="no"?><!DOCTYPE svg PUBLIC "-//W3C//DTD SVG 1.1//EN" "http://www.w3.org/Graphics/SVG/1.1/DTD/svg11.dtd"><svg width="100%" height="100%" viewBox="0 0 179 250" version="1.1" xmlns="http://www.w3.org/2000/svg" xmlns:xlink="http://www.w3.org/1999/xlink" xml:space="preserve" xmlns:serif="http://www.serif.com/" style="fill-rule:evenodd;clip-rule:evenodd;stroke-linejoin:round;stroke-miterlimit:2;"><g id="g8426-7-4"><path id="rect6784-5-9" d="M178.583,8.008c-0,-4.42 -3.589,-8.008 -8.008,-8.008l-162.567,-0c-4.42,-0 -8.008,3.588 -8.008,8.008l0,233.433c0,4.419 3.588,8.008 8.008,8.008l162.567,-0c4.419,-0 8.008,-3.589 8.008,-8.008l-0,-233.433Z" style="fill:#fff;"/><path id="path6816-2-4" d="M13.774,39.979c-3.449,4.385 -7.138,6.909 -7.2,10.331c-0.021,1.108 0.651,2.991 2.755,3.351c1.365,0.233 3.245,-0.752 3.284,-2.754c-0.008,-0.398 0.473,-0.388 0.469,0.158c-0.064,1.579 -0.625,3.417 -1.567,4.914l4.518,-0c-0.942,-1.497 -1.503,-3.335 -1.567,-4.914c-0.008,-0.546 0.475,-0.556 0.469,-0.158c0.039,2.002 1.918,2.987 3.283,2.754c2.104,-0.36 2.776,-2.243 2.755,-3.351c-0.061,-3.422 -3.751,-5.946 -7.199,-10.331Z" style="fill-rule:nonzero;"/><path id="path6820-0-2" d="M164.809,209.47c-3.448,-4.385 -7.138,-6.909 -7.199,-10.331c-0.021,-1.108 0.651,-2.991 2.755,-3.351c1.365,-0.233 3.244,0.752 3.284,2.754c-0.008,0.398 0.473,0.388 0.468,-0.158c-0.064,-1.579 -0.624,-3.417 -1.566,-4.914l4.517,0c-0.942,1.497 -1.502,3.335 -1.566,4.914c-0.008,0.546 0.474,0.556 0.468,0.158c0.039,-2.002 1.919,-2.987 3.284,-2.754c2.104,0.36 2.776,2.243 2.755,3.351c-0.062,3.422 -3.751,5.946 -7.2,10.331Z" style="fill-rule:nonzero;"/><path id="path6828-8-3" d="M89.291,26.156c-7.38,10.526 -15.278,16.583 -15.409,24.795c-0.044,2.659 1.394,7.178 5.897,8.043c2.921,0.559 6.944,-1.806 7.028,-6.61c-0.013,-0.956 1.013,-0.931 1.003,0.379c-0.138,3.79 -1.337,8.202 -3.353,11.793l9.669,-0c-2.016,-3.591 -3.216,-8.003 -3.353,-11.793c-0.01,-1.31 1.016,-1.335 1.003,-0.379c0.084,4.804 4.106,7.169 7.028,6.61c4.503,-0.865 5.941,-5.384 5.897,-8.043c-0.131,-8.212 -8.029,-14.269 -15.41,-24.795Z" style="fill-rule:nonzero;"/><path id="path6842-0-7" d="M89.291,223.293c-7.38,-10.526 -15.278,-16.583 -15.409,-24.795c-0.044,-2.659 1.394,-7.178 5.897,-8.044c2.921,-0.558 6.944,1.806 7.028,6.61c-0.013,0.957 1.013,0.932 1.003,-0.379c-0.138,-3.789 -1.337,-8.201 -3.353,-11.792l9.669,-0c-2.016,3.591 -3.216,8.003 -3.353,11.792c-0.01,1.311 1.016,1.336 1.003,0.379c0.084,-4.804 4.106,-7.168 7.028,-6.61c4.503,0.866 5.941,5.385 5.897,8.044c-0.131,8.212 -8.029,14.269 -15.41,24.795Z" style="fill-rule:nonzero;"/><path id="path6844-7-0" d="M89.291,105.524c-7.38,10.526 -15.278,16.583 -15.409,24.795c-0.044,2.659 1.394,7.179 5.897,8.044c2.921,0.559 6.944,-1.806 7.028,-6.61c-0.013,-0.957 1.013,-0.932 1.003,0.379c-0.138,3.789 -1.337,8.201 -3.353,11.792l9.669,0c-2.016,-3.591 -3.216,-8.003 -3.353,-11.792c-0.01,-1.311 1.016,-1.336 1.003,-0.379c0.084,4.804 4.106,7.169 7.028,6.61c4.503,-0.865 5.941,-5.385 5.897,-8.044c-0.131,-8.212 -8.029,-14.269 -15.41,-24.795Z" style="fill-rule:nonzero;"/><path id="path17-9-11-4" d="M5.205,31.683l2.032,-1.495c1.764,2.873 3.737,4.765 6.755,4.44c4.527,-0.311 6.403,-5.058 5.456,-8.634c-0.916,-3.208 -4.666,-4.771 -7.646,-3.061c-0.704,0.406 -1.383,0.737 -1.515,0.737c-0.313,-0 -1.021,-1.408 -0.924,-1.838c2.001,-2.921 6.858,-8.039 6.858,-8.039l-7.589,-0l-0,3.427l-2.913,0l-0,-6.15l14.834,0l-0,2.087c-0,-0 -3.975,4.122 -5.288,6.379c3.235,0.119 5.842,2.169 6.778,5.41c0.546,1.706 0.301,5.609 -0.413,7.291c-1.195,2.805 -4.456,5.08 -7.438,5.211c-5.006,0.336 -7.662,-3.171 -8.987,-5.765Z" style="fill-rule:nonzero;"/><path id="path17-9-1-0-8" d="M173.376,217.766l-2.032,1.495c-1.764,-2.873 -3.737,-4.765 -6.755,-4.44c-4.527,0.311 -6.403,5.058 -5.456,8.634c0.916,3.208 4.665,4.771 7.646,3.061c0.704,-0.406 1.383,-0.737 1.515,-0.737c0.313,0 1.021,1.408 0.924,1.838c-2.001,2.921 -6.858,8.039 -6.858,8.039l7.589,0l0,-3.427l2.913,-0l0,6.15l-14.834,-0l0,-2.087c0,0 3.975,-4.122 5.288,-6.379c-3.235,-0.119 -5.842,-2.169 -6.778,-5.41c-0.546,-1.706 -0.301,-5.609 0.413,-7.291c1.195,-2.805 4.456,-5.08 7.438,-5.211c5.006,-0.336 7.661,3.171 8.987,5.765Z" style="fill-rule:nonzero;"/></g></svg>