<?xml version="1.0" encoding="UTF-8" standalone="no"?><!DOCTYPE svg PUBLIC "-//W3C//DTD SVG 1.1//EN" "http://www.w3.org/Graphics/SVG/1.1/DTD/svg11.dtd"><svg width="100%" height="100%" viewBox="0 0 179 250" version="1.1" xmlns="http://www.w3.org/2000/svg" xmlns:xlink="http://www.w3.org/1999/xlink" xml:space="preserve" xmlns:serif="http://www.serif.com/" style="fill-rule:evenodd;clip-rule:evenodd;stroke-linejoin:round;stroke-miterlimit:2;"><g id="g6725"><path id="rect6554-0" d="M178.583,8.008c-0,-4.42 -3.589,-8.008 -8.008,-8.008l-162.567,0c-4.42,0 -8.008,3.588 -8.008,8.008l0,233.433c0,4.419 3.588,8.008 8.008,8.008l162.567,-0c4.419,-0 8.008,-3.589 8.008,-8.008l-0,-233.433Z" style="fill:#fff;"/><path id="path6584-3" d="M89.291,64.556c-4.149,-6.852 -8.514,-13.511 -13.968,-19.2c5.454,-5.689 9.819,-12.348 13.968,-19.2c4.149,6.852 8.514,13.511 13.969,19.2c-5.455,5.689 -9.82,12.348 -13.969,19.2Z" style="fill:#3f3f3f;fill-rule:nonzero;"/><path id="path6586-2" d="M13.774,55.979c-1.729,-2.855 -3.548,-5.63 -5.82,-8c2.272,-2.371 4.091,-5.145 5.82,-8c1.729,2.855 3.547,5.629 5.82,8c-2.273,2.37 -4.091,5.145 -5.82,8Z" style="fill:#3f3f3f;fill-rule:nonzero;"/><path id="path6590-7" d="M164.809,209.47c-1.728,-2.855 -3.547,-5.629 -5.82,-8c2.273,-2.37 4.092,-5.145 5.82,-8c1.729,2.855 3.548,5.63 5.821,8c-2.273,2.371 -4.092,5.145 -5.821,8Z" style="fill:#3f3f3f;fill-rule:nonzero;"/><path id="path6600-5" d="M89.291,143.924c-4.149,-6.851 -8.514,-13.511 -13.968,-19.2c5.454,-5.688 9.819,-12.348 13.968,-19.2c4.149,6.852 8.514,13.512 13.969,19.2c-5.455,5.689 -9.82,12.349 -13.969,19.2Z" style="fill:#3f3f3f;fill-rule:nonzero;"/><path id="path6606-3" d="M89.291,223.293c-4.149,-6.852 -8.514,-13.511 -13.968,-19.2c5.454,-5.689 9.819,-12.348 13.968,-19.2c4.149,6.852 8.514,13.511 13.969,19.2c-5.455,5.689 -9.82,12.348 -13.969,19.2Z" style="fill:#3f3f3f;fill-rule:nonzero;"/><path id="path17-2-9-4-8" d="M5.205,31.683l2.032,-1.495c1.764,2.873 3.737,4.765 6.754,4.44c4.528,-0.311 6.404,-5.058 5.457,-8.634c-0.916,-3.208 -4.666,-4.771 -7.646,-3.061c-0.704,0.406 -1.383,0.737 -1.515,0.737c-0.313,-0 -1.021,-1.408 -0.924,-1.838c2.001,-2.921 6.858,-8.039 6.858,-8.039l-7.589,-0l-0,3.427l-2.913,0l-0,-6.15l14.834,0l-0,2.087c-0,-0 -3.975,4.122 -5.288,6.379c3.235,0.119 5.842,2.169 6.778,5.41c0.546,1.706 0.301,5.609 -0.414,7.291c-1.194,2.805 -4.455,5.08 -7.437,5.211c-5.006,0.336 -7.662,-3.171 -8.987,-5.765Z" style="fill:#3f3f3f;fill-rule:nonzero;"/><path id="path17-5-3-3-8" d="M173.376,217.766l-2.032,1.494c-1.764,-2.872 -3.737,-4.764 -6.755,-4.439c-4.527,0.311 -6.403,5.057 -5.456,8.634c0.916,3.208 4.665,4.771 7.646,3.061c0.704,-0.406 1.382,-0.737 1.515,-0.737c0.313,0 1.021,1.408 0.924,1.837c-2.001,2.922 -6.859,8.04 -6.859,8.04l7.59,0l0,-3.427l2.913,-0l-0,6.15l-14.834,-0l0,-2.087c0,0 3.975,-4.122 5.288,-6.379c-3.235,-0.119 -5.842,-2.169 -6.778,-5.41c-0.546,-1.706 -0.301,-5.609 0.413,-7.291c1.194,-2.805 4.456,-5.08 7.438,-5.211c5.006,-0.336 7.661,3.171 8.987,5.765Z" style="fill:#3f3f3f;fill-rule:nonzero;"/></g></svg>