<?xml version="1.0" encoding="UTF-8" standalone="no"?><!DOCTYPE svg PUBLIC "-//W3C//DTD SVG 1.1//EN" "http://www.w3.org/Graphics/SVG/1.1/DTD/svg11.dtd"><svg width="100%" height="100%" viewBox="0 0 179 250" version="1.1" xmlns="http://www.w3.org/2000/svg" xmlns:xlink="http://www.w3.org/1999/xlink" xml:space="preserve" xmlns:serif="http://www.serif.com/" style="fill-rule:evenodd;clip-rule:evenodd;stroke-linejoin:round;stroke-miterlimit:2;"><g id="g11369-4-9"><g id="_5D" serif:id="5D"><path id="rect9802-4-3" d="M178.583,8.008c-0,-4.42 -3.589,-8.008 -8.008,-8.008l-162.567,0c-4.42,0 -8.008,3.588 -8.008,8.008l0,233.433c0,4.419 3.588,8.008 8.008,8.008l162.567,-0c4.419,-0 8.008,-3.589 8.008,-8.008l-0,-233.433Z" style="fill:#fff;"/></g><path id="path9834-5-2" d="M13.774,55.979c-0,-0 -1.78,-2.552 -4.181,-5.552c-1.606,-2.008 -2.89,-4.182 -3.009,-6.055c-0.137,-2.139 1.159,-4.285 3.505,-4.389c2.345,-0.104 3.297,1.649 3.685,3.095c0.387,-1.446 1.339,-3.199 3.684,-3.095c2.347,0.104 3.643,2.25 3.506,4.389c-0.119,1.873 -1.403,4.047 -3.01,6.055c-2.4,3 -4.18,5.552 -4.18,5.552Z" style="fill:#3f3f3f;fill-rule:nonzero;"/><path id="path9836-5-8" d="M164.809,193.47c0,0 -1.779,2.552 -4.18,5.552c-1.606,2.008 -2.89,4.182 -3.01,6.055c-0.137,2.139 1.159,4.285 3.506,4.389c2.345,0.104 3.297,-1.649 3.684,-3.095c0.388,1.446 1.34,3.199 3.685,3.095c2.346,-0.104 3.643,-2.25 3.506,-4.389c-0.12,-1.873 -1.404,-4.047 -3.01,-6.055c-2.401,-3 -4.181,-5.552 -4.181,-5.552Z" style="fill:#3f3f3f;fill-rule:nonzero;"/><path id="path9840-3-6" d="M89.291,64.556c0,-0 -3.733,-6.124 -8.768,-13.325c-3.369,-4.819 -6.062,-10.036 -6.313,-14.531c-0.287,-5.133 2.431,-10.284 7.353,-10.534c4.919,-0.249 6.916,3.959 7.728,7.428c0.813,-3.469 2.81,-7.677 7.728,-7.428c4.922,0.25 7.641,5.401 7.354,10.534c-0.251,4.495 -2.944,9.712 -6.313,14.531c-5.036,7.201 -8.769,13.325 -8.769,13.325Z" style="fill:#3f3f3f;fill-rule:nonzero;"/><path id="path9850-2-3" d="M89.291,143.924c0,0 -3.733,-6.124 -8.768,-13.325c-3.369,-4.818 -6.062,-10.036 -6.313,-14.53c-0.287,-5.134 2.431,-10.284 7.353,-10.534c4.919,-0.249 6.916,3.958 7.728,7.428c0.813,-3.47 2.81,-7.677 7.728,-7.428c4.922,0.25 7.641,5.4 7.354,10.534c-0.251,4.494 -2.944,9.712 -6.313,14.53c-5.036,7.201 -8.769,13.325 -8.769,13.325Z" style="fill:#3f3f3f;fill-rule:nonzero;"/><path id="path9854-8-0" d="M89.291,184.893c0,-0 -3.733,6.124 -8.768,13.325c-3.369,4.819 -6.062,10.036 -6.313,14.53c-0.287,5.134 2.431,10.285 7.353,10.534c4.919,0.25 6.916,-3.958 7.728,-7.427c0.813,3.469 2.81,7.677 7.728,7.427c4.922,-0.249 7.641,-5.4 7.354,-10.534c-0.251,-4.494 -2.944,-9.711 -6.313,-14.53c-5.036,-7.201 -8.769,-13.325 -8.769,-13.325Z" style="fill:#3f3f3f;fill-rule:nonzero;"/><path id="path17-2-9-8-4" d="M5.205,31.683l2.032,-1.495c1.764,2.873 3.737,4.765 6.755,4.44c4.527,-0.311 6.403,-5.058 5.456,-8.634c-0.916,-3.208 -4.666,-4.771 -7.646,-3.061c-0.704,0.406 -1.383,0.737 -1.515,0.737c-0.313,-0 -1.021,-1.408 -0.924,-1.838c2.001,-2.921 6.858,-8.039 6.858,-8.039l-7.589,-0l-0,3.427l-2.913,0l-0,-6.15l14.834,0l-0,2.087c-0,-0 -3.975,4.122 -5.288,6.379c3.235,0.119 5.842,2.169 6.778,5.41c0.546,1.706 0.301,5.609 -0.413,7.291c-1.195,2.805 -4.456,5.08 -7.438,5.211c-5.006,0.336 -7.662,-3.171 -8.987,-5.765Z" style="fill:#3f3f3f;fill-rule:nonzero;"/><path id="path17-5-3-9-1-3" d="M173.376,217.766l-2.032,1.494c-1.764,-2.872 -3.737,-4.764 -6.755,-4.439c-4.527,0.311 -6.403,5.057 -5.456,8.634c0.916,3.208 4.665,4.771 7.646,3.061c0.704,-0.406 1.383,-0.737 1.515,-0.737c0.313,0 1.021,1.408 0.924,1.837c-2.001,2.922 -6.858,8.04 -6.858,8.04l7.589,0l0,-3.427l2.913,-0l0,6.15l-14.834,-0l0,-2.087c0,0 3.975,-4.122 5.288,-6.379c-3.235,-0.119 -5.842,-2.169 -6.778,-5.41c-0.546,-1.706 -0.301,-5.609 0.413,-7.291c1.195,-2.805 4.456,-5.08 7.438,-5.211c5.006,-0.336 7.661,3.171 8.987,5.765Z" style="fill:#3f3f3f;fill-rule:nonzero;"/></g></svg>