<?xml version="1.0" encoding="UTF-8" standalone="no"?><!DOCTYPE svg PUBLIC "-//W3C//DTD SVG 1.1//EN" "http://www.w3.org/Graphics/SVG/1.1/DTD/svg11.dtd"><svg width="100%" height="100%" viewBox="0 0 179 250" version="1.1" xmlns="http://www.w3.org/2000/svg" xmlns:xlink="http://www.w3.org/1999/xlink" xml:space="preserve" xmlns:serif="http://www.serif.com/" style="fill-rule:evenodd;clip-rule:evenodd;stroke-linejoin:round;stroke-miterlimit:2;"><g id="g6735"><path id="rect6622-5" d="M178.583,8.008c-0,-4.42 -3.589,-8.008 -8.008,-8.008l-162.567,0c-4.42,0 -8.008,3.588 -8.008,8.008l0,233.433c0,4.419 3.588,8.008 8.008,8.008l162.567,-0c4.419,-0 8.008,-3.589 8.008,-8.008l-0,-233.433Z" style="fill:#fff;"/><path id="path6654-0" d="M13.774,55.979c-1.729,-2.855 -3.548,-5.63 -5.821,-8c2.273,-2.371 4.092,-5.145 5.821,-8c1.728,2.855 3.547,5.629 5.82,8c-2.273,2.37 -4.092,5.145 -5.82,8Z" style="fill:#3f3f3f;fill-rule:nonzero;"/><path id="path6656-6" d="M130.704,64.556c-4.149,-6.852 -8.513,-13.511 -13.968,-19.2c5.455,-5.689 9.819,-12.348 13.968,-19.2c4.149,6.852 8.514,13.511 13.969,19.2c-5.455,5.689 -9.82,12.348 -13.969,19.2Z" style="fill:#3f3f3f;fill-rule:nonzero;"/><path id="path6658-8" d="M164.809,209.47c-1.728,-2.855 -3.547,-5.629 -5.82,-8c2.273,-2.37 4.092,-5.145 5.82,-8c1.729,2.855 3.548,5.63 5.821,8c-2.273,2.371 -4.092,5.145 -5.821,8Z" style="fill:#3f3f3f;fill-rule:nonzero;"/><path id="path6660-7" d="M47.878,64.556c-4.149,-6.852 -8.514,-13.511 -13.969,-19.2c5.455,-5.689 9.82,-12.348 13.969,-19.2c4.149,6.852 8.514,13.511 13.969,19.2c-5.455,5.689 -9.82,12.348 -13.969,19.2Z" style="fill:#3f3f3f;fill-rule:nonzero;"/><path id="path6676-4" d="M47.878,223.297c-4.149,-6.852 -8.514,-13.511 -13.969,-19.2c5.455,-5.689 9.82,-12.348 13.969,-19.2c4.149,6.852 8.514,13.511 13.969,19.2c-5.455,5.689 -9.82,12.348 -13.969,19.2Z" style="fill:#3f3f3f;fill-rule:nonzero;"/><path id="path6678-8" d="M130.704,223.303c-4.149,-6.852 -8.513,-13.512 -13.968,-19.2c5.455,-5.689 9.819,-12.349 13.968,-19.2c4.149,6.851 8.514,13.511 13.969,19.2c-5.455,5.688 -9.82,12.348 -13.969,19.2Z" style="fill:#3f3f3f;fill-rule:nonzero;"/><path id="path19-3-1-9-0" d="M13.958,37.467l-0,-2.332l2.104,0l0,-3.846l-10.526,-0l0,-2.714l11.39,-17.505l1.861,0.01l-0,17.495l3.222,-0l0,2.714l-3.222,-0l-0.061,3.846l1.764,0l-0,2.335l-6.532,0l-0,-0.003Zm2.104,-19.988l-7.232,11.097l7.232,-0l0,-11.097Z" style="fill:#3f3f3f;fill-rule:nonzero;"/><path id="path19-4-46-7-7" d="M164.623,211.982l0,2.332l-2.104,-0l-0,3.846l10.526,0l-0,2.714l-11.39,17.505l-1.861,-0.01l0,-17.495l-3.222,-0l-0,-2.714l3.222,-0l0.061,-3.846l-1.764,-0l-0,-2.335l6.532,-0l0,0.003Zm-2.104,19.988l7.231,-11.097l-7.231,0l-0,11.097Z" style="fill:#3f3f3f;fill-rule:nonzero;"/></g></svg>