<?xml version="1.0" encoding="UTF-8" standalone="no"?><!DOCTYPE svg PUBLIC "-//W3C//DTD SVG 1.1//EN" "http://www.w3.org/Graphics/SVG/1.1/DTD/svg11.dtd"><svg width="100%" height="100%" viewBox="0 0 179 250" version="1.1" xmlns="http://www.w3.org/2000/svg" xmlns:xlink="http://www.w3.org/1999/xlink" xml:space="preserve" xmlns:serif="http://www.serif.com/" style="fill-rule:evenodd;clip-rule:evenodd;stroke-linejoin:round;stroke-miterlimit:2;"><g id="g6746"><path id="rect6690-8" d="M178.583,8.008c-0,-4.42 -3.589,-8.008 -8.008,-8.008l-162.567,0c-4.42,0 -8.008,3.588 -8.008,8.008l0,233.433c0,4.419 3.588,8.008 8.008,8.008l162.567,-0c4.419,-0 8.008,-3.589 8.008,-8.008l-0,-233.433Z" style="fill:#fff;"/><path id="path6722-9" d="M13.774,55.979c-1.729,-2.855 -3.548,-5.63 -5.821,-8c2.273,-2.371 4.092,-5.145 5.821,-8c1.728,2.855 3.547,5.629 5.82,8c-2.273,2.37 -4.092,5.145 -5.82,8Z" style="fill:#3f3f3f;fill-rule:nonzero;"/><path id="path6724-6" d="M130.704,64.556c-4.149,-6.852 -8.514,-13.511 -13.968,-19.2c5.454,-5.689 9.819,-12.348 13.968,-19.2c4.149,6.852 8.514,13.511 13.969,19.2c-5.455,5.689 -9.82,12.348 -13.969,19.2Z" style="fill:#3f3f3f;fill-rule:nonzero;"/><path id="path6726-3" d="M164.809,209.47c-1.728,-2.855 -3.547,-5.629 -5.82,-8c2.273,-2.37 4.092,-5.145 5.82,-8c1.729,2.855 3.548,5.63 5.821,8c-2.273,2.371 -4.092,5.145 -5.821,8Z" style="fill:#3f3f3f;fill-rule:nonzero;"/><path id="path6728-7" d="M47.878,64.556c-4.149,-6.852 -8.514,-13.511 -13.969,-19.2c5.455,-5.689 9.82,-12.348 13.969,-19.2c4.149,6.852 8.514,13.511 13.969,19.2c-5.455,5.689 -9.82,12.348 -13.969,19.2Z" style="fill:#3f3f3f;fill-rule:nonzero;"/><path id="path6736-0" d="M89.291,143.924c-4.149,-6.851 -8.514,-13.511 -13.969,-19.2c5.455,-5.688 9.82,-12.348 13.969,-19.2c4.149,6.852 8.514,13.512 13.969,19.2c-5.455,5.689 -9.82,12.349 -13.969,19.2Z" style="fill:#3f3f3f;fill-rule:nonzero;"/><path id="path6744-9" d="M47.878,223.297c-4.149,-6.852 -8.514,-13.511 -13.969,-19.2c5.455,-5.689 9.82,-12.348 13.969,-19.2c4.149,6.852 8.514,13.511 13.969,19.2c-5.455,5.689 -9.82,12.348 -13.969,19.2Z" style="fill:#3f3f3f;fill-rule:nonzero;"/><path id="path6746-2" d="M130.704,223.303c-4.149,-6.852 -8.514,-13.512 -13.968,-19.2c5.454,-5.689 9.819,-12.349 13.968,-19.2c4.149,6.851 8.514,13.511 13.969,19.2c-5.455,5.688 -9.82,12.348 -13.969,19.2Z" style="fill:#3f3f3f;fill-rule:nonzero;"/><path id="path21-9-8-2-7" d="M5.451,30.636l2.588,-0.025c0.494,1.593 1.586,3.213 3.069,3.662c4.191,1.003 6.887,-1.383 7.774,-4.133c1.077,-3.335 -0.024,-8.019 -2.909,-9.682c-2.39,-1.379 -5.941,-0.216 -7.573,2.733l-1.812,-1.129l0.973,-10.992l11.84,0l-0,2.598l-9.595,0l-0.152,4.58c2.065,-1.478 5.24,-1.462 7.304,-0.426c3.909,1.9 5.726,6.218 4.967,11.307c-1.054,5.063 -3.376,7.931 -8.614,8.341c-5.827,0.053 -7.884,-4.027 -7.86,-6.834l0,-0Z" style="fill:#3f3f3f;fill-rule:nonzero;"/><path id="path21-3-0-8-6" d="M173.129,218.813l-2.587,0.025c-0.494,-1.593 -1.586,-3.213 -3.07,-3.662c-4.19,-1.003 -6.886,1.382 -7.773,4.132c-1.077,3.336 0.024,8.02 2.908,9.683c2.391,1.378 5.942,0.216 7.574,-2.734l1.812,1.13l-0.973,10.992l-11.84,-0l0,-2.598l9.595,-0l0.152,-4.58c-2.066,1.477 -5.24,1.462 -7.304,0.426c-3.909,-1.9 -5.726,-6.218 -4.967,-11.308c1.053,-5.062 3.376,-7.93 8.614,-8.34c5.827,-0.053 7.884,4.027 7.859,6.834l0,0Z" style="fill:#3f3f3f;fill-rule:nonzero;"/></g></svg>