<?xml version="1.0" encoding="UTF-8" standalone="no"?><!DOCTYPE svg PUBLIC "-//W3C//DTD SVG 1.1//EN" "http://www.w3.org/Graphics/SVG/1.1/DTD/svg11.dtd"><svg width="100%" height="100%" viewBox="0 0 179 250" version="1.1" xmlns="http://www.w3.org/2000/svg" xmlns:xlink="http://www.w3.org/1999/xlink" xml:space="preserve" xmlns:serif="http://www.serif.com/" style="fill-rule:evenodd;clip-rule:evenodd;stroke-linejoin:round;stroke-miterlimit:2;"><g id="g11305-8-4"><g id="_5D" serif:id="5D"><path id="rect9938-9-5" d="M178.583,8.008c-0,-4.42 -3.589,-8.008 -8.008,-8.008l-162.567,0c-4.42,0 -8.008,3.588 -8.008,8.008l0,233.433c0,4.419 3.588,8.008 8.008,8.008l162.567,-0c4.419,-0 8.008,-3.589 8.008,-8.008l-0,-233.433Z" style="fill:#fff;"/></g><path id="path9970-5-6" d="M13.774,55.979c-0,-0 -1.78,-2.552 -4.181,-5.552c-1.606,-2.008 -2.89,-4.182 -3.009,-6.055c-0.137,-2.139 1.159,-4.285 3.505,-4.389c2.345,-0.104 3.297,1.649 3.685,3.095c0.387,-1.446 1.339,-3.199 3.684,-3.095c2.347,0.104 3.643,2.25 3.506,4.389c-0.119,1.873 -1.403,4.047 -3.01,6.055c-2.4,3 -4.18,5.552 -4.18,5.552Z" style="fill:#3f3f3f;fill-rule:nonzero;"/><path id="path9972-9-9" d="M164.809,193.47c0,0 -1.779,2.552 -4.18,5.552c-1.606,2.008 -2.89,4.182 -3.01,6.055c-0.137,2.139 1.159,4.285 3.506,4.389c2.345,0.104 3.297,-1.649 3.684,-3.095c0.388,1.446 1.34,3.199 3.685,3.095c2.346,-0.104 3.643,-2.25 3.506,-4.389c-0.12,-1.873 -1.404,-4.047 -3.01,-6.055c-2.401,-3 -4.181,-5.552 -4.181,-5.552Z" style="fill:#3f3f3f;fill-rule:nonzero;"/><path id="path9978-0-4" d="M47.878,64.556c0,-0 -3.733,-6.124 -8.769,-13.325c-3.368,-4.819 -6.062,-10.036 -6.312,-14.531c-0.287,-5.133 2.431,-10.284 7.353,-10.534c4.919,-0.249 6.915,3.959 7.728,7.428c0.813,-3.469 2.81,-7.677 7.728,-7.428c4.922,0.25 7.641,5.401 7.353,10.534c-0.25,4.495 -2.943,9.712 -6.312,14.531c-5.036,7.201 -8.769,13.325 -8.769,13.325Z" style="fill:#3f3f3f;fill-rule:nonzero;"/><path id="path9984-9-5" d="M130.704,64.556c0,-0 -3.733,-6.124 -8.768,-13.325c-3.369,-4.819 -6.062,-10.036 -6.313,-14.531c-0.287,-5.133 2.432,-10.284 7.353,-10.534c4.919,-0.249 6.916,3.959 7.728,7.428c0.813,-3.469 2.81,-7.677 7.729,-7.428c4.921,0.25 7.64,5.401 7.353,10.534c-0.251,4.495 -2.944,9.712 -6.313,14.531c-5.035,7.201 -8.769,13.325 -8.769,13.325Z" style="fill:#3f3f3f;fill-rule:nonzero;"/><path id="path9986-7-3" d="M89.291,143.924c0,0 -3.733,-6.124 -8.768,-13.325c-3.369,-4.818 -6.063,-10.036 -6.313,-14.53c-0.287,-5.134 2.431,-10.284 7.353,-10.534c4.919,-0.249 6.916,3.958 7.728,7.428c0.813,-3.47 2.81,-7.677 7.728,-7.428c4.922,0.25 7.641,5.4 7.354,10.534c-0.251,4.494 -2.944,9.712 -6.313,14.53c-5.036,7.201 -8.769,13.325 -8.769,13.325Z" style="fill:#3f3f3f;fill-rule:nonzero;"/><path id="path9998-0-9" d="M130.704,184.893c0,-0 -3.733,6.124 -8.768,13.325c-3.369,4.819 -6.062,10.036 -6.313,14.53c-0.287,5.134 2.432,10.285 7.353,10.534c4.919,0.25 6.916,-3.958 7.728,-7.427c0.813,3.469 2.81,7.677 7.729,7.427c4.921,-0.249 7.64,-5.4 7.353,-10.534c-0.251,-4.494 -2.944,-9.711 -6.313,-14.53c-5.035,-7.201 -8.769,-13.325 -8.769,-13.325Z" style="fill:#3f3f3f;fill-rule:nonzero;"/><path id="path10000-8-2" d="M47.878,184.893c0,-0 -3.733,6.124 -8.769,13.325c-3.368,4.819 -6.062,10.036 -6.312,14.53c-0.287,5.134 2.431,10.285 7.353,10.534c4.919,0.25 6.915,-3.958 7.728,-7.427c0.813,3.469 2.81,7.677 7.728,7.427c4.922,-0.249 7.641,-5.4 7.353,-10.534c-0.25,-4.494 -2.943,-9.711 -6.312,-14.53c-5.036,-7.201 -8.769,-13.325 -8.769,-13.325Z" style="fill:#3f3f3f;fill-rule:nonzero;"/><path id="path21-9-5-1-8" d="M5.451,30.636l2.588,-0.025c0.494,1.593 1.586,3.213 3.07,3.662c4.19,1.003 6.886,-1.383 7.773,-4.133c1.077,-3.335 -0.024,-8.019 -2.909,-9.682c-2.39,-1.379 -5.941,-0.216 -7.573,2.733l-1.812,-1.129l0.973,-10.992l11.84,0l-0,2.598l-9.595,0l-0.152,4.58c2.065,-1.478 5.24,-1.462 7.304,-0.426c3.909,1.9 5.726,6.218 4.967,11.307c-1.054,5.063 -3.376,7.931 -8.614,8.341c-5.827,0.053 -7.884,-4.027 -7.86,-6.834l0,-0Z" style="fill:#3f3f3f;fill-rule:nonzero;"/><path id="path21-3-0-6-3-8" d="M173.129,218.813l-2.587,0.025c-0.494,-1.593 -1.586,-3.213 -3.07,-3.662c-4.19,-1.003 -6.886,1.382 -7.773,4.132c-1.077,3.336 0.024,8.02 2.908,9.683c2.391,1.379 5.942,0.216 7.574,-2.733l1.812,1.129l-0.973,10.992l-11.84,-0l0,-2.598l9.595,-0l0.152,-4.58c-2.066,1.477 -5.24,1.462 -7.304,0.426c-3.909,-1.9 -5.726,-6.218 -4.967,-11.307c1.053,-5.063 3.376,-7.931 8.614,-8.341c5.827,-0.053 7.884,4.027 7.859,6.834l0,0Z" style="fill:#3f3f3f;fill-rule:nonzero;"/></g></svg>