<?xml version="1.0" encoding="UTF-8" standalone="no"?><!DOCTYPE svg PUBLIC "-//W3C//DTD SVG 1.1//EN" "http://www.w3.org/Graphics/SVG/1.1/DTD/svg11.dtd"><svg width="100%" height="100%" viewBox="0 0 179 250" version="1.1" xmlns="http://www.w3.org/2000/svg" xmlns:xlink="http://www.w3.org/1999/xlink" xml:space="preserve" xmlns:serif="http://www.serif.com/" style="fill-rule:evenodd;clip-rule:evenodd;stroke-linejoin:round;stroke-miterlimit:2;"><g id="g8447-5-9"><g id="g8459-0-4"><path id="rect6920-5-5" d="M0,241.441c0,4.419 3.588,8.008 8.008,8.008l162.567,-0c4.419,-0 8.008,-3.589 8.008,-8.008l-0,-233.433c-0,-4.42 -3.589,-8.008 -8.008,-8.008l-162.567,-0c-4.42,-0 -8.008,3.588 -8.008,8.008l-0,233.433Z" style="fill:#fff;"/><path id="path6950-9-9" d="M130.705,223.293c7.38,-10.526 15.278,-16.583 15.409,-24.795c0.044,-2.659 -1.394,-7.179 -5.897,-8.044c-2.922,-0.558 -6.944,1.806 -7.028,6.61c0.013,0.957 -1.013,0.932 -1.003,-0.379c0.137,-3.789 1.337,-8.201 3.353,-11.792l-9.669,-0c2.016,3.591 3.216,8.003 3.353,11.792c0.01,1.311 -1.016,1.336 -1.003,0.379c-0.084,-4.804 -4.106,-7.168 -7.028,-6.61c-4.503,0.865 -5.941,5.385 -5.897,8.044c0.131,8.212 8.029,14.269 15.41,24.795Z" style="fill-rule:nonzero;"/><path id="path6952-6-0" d="M164.809,209.47c3.448,-4.386 7.138,-6.909 7.199,-10.331c0.021,-1.108 -0.651,-2.991 -2.755,-3.352c-1.365,-0.232 -3.244,0.753 -3.283,2.755c0.008,0.398 -0.473,0.388 -0.469,-0.158c0.064,-1.579 0.625,-3.417 1.567,-4.914l-4.518,0c0.942,1.497 1.503,3.335 1.567,4.914c0.008,0.546 -0.475,0.556 -0.469,0.158c-0.039,-2.002 -1.918,-2.987 -3.283,-2.755c-2.104,0.361 -2.776,2.244 -2.756,3.352c0.062,3.422 3.752,5.945 7.2,10.331Z" style="fill-rule:nonzero;"/><path id="path6956-5-0" d="M13.773,39.978c3.449,4.386 7.139,6.91 7.2,10.332c0.021,1.108 -0.651,2.991 -2.755,3.351c-1.365,0.233 -3.245,-0.752 -3.284,-2.754c0.008,-0.398 -0.473,-0.388 -0.469,0.158c0.064,1.579 0.625,3.417 1.567,4.913l-4.517,0c0.942,-1.496 1.502,-3.334 1.566,-4.913c0.008,-0.546 -0.474,-0.556 -0.468,-0.158c-0.04,2.002 -1.919,2.987 -3.284,2.754c-2.104,-0.36 -2.776,-2.243 -2.755,-3.351c0.061,-3.422 3.751,-5.946 7.199,-10.332Z" style="fill-rule:nonzero;"/><path id="path6958-4-1" d="M47.878,223.293c7.381,-10.526 15.278,-16.583 15.41,-24.795c0.044,-2.659 -1.394,-7.179 -5.897,-8.044c-2.922,-0.558 -6.944,1.806 -7.028,6.61c0.012,0.957 -1.013,0.932 -1.003,-0.379c0.137,-3.789 1.337,-8.201 3.353,-11.792l-9.669,-0c2.016,3.591 3.215,8.003 3.353,11.792c0.01,1.311 -1.016,1.336 -1.003,0.379c-0.084,-4.804 -4.107,-7.168 -7.028,-6.61c-4.503,0.865 -5.941,5.385 -5.897,8.044c0.131,8.212 8.028,14.269 15.409,24.795Z" style="fill-rule:nonzero;"/><path id="path6970-5-5" d="M130.705,26.156c7.38,10.526 15.278,16.583 15.409,24.795c0.044,2.659 -1.394,7.178 -5.897,8.043c-2.922,0.559 -6.944,-1.806 -7.028,-6.61c0.013,-0.956 -1.013,-0.931 -1.003,0.379c0.137,3.79 1.337,8.202 3.353,11.793l-9.669,-0c2.016,-3.591 3.216,-8.003 3.353,-11.793c0.01,-1.31 -1.016,-1.335 -1.003,-0.379c-0.084,4.804 -4.106,7.169 -7.028,6.61c-4.503,-0.865 -5.941,-5.384 -5.897,-8.043c0.131,-8.212 8.029,-14.269 15.41,-24.795Z" style="fill-rule:nonzero;"/><path id="path6972-5-8" d="M47.878,26.156c7.381,10.526 15.278,16.583 15.41,24.795c0.044,2.659 -1.394,7.178 -5.897,8.043c-2.922,0.559 -6.944,-1.806 -7.028,-6.61c0.012,-0.956 -1.013,-0.931 -1.003,0.379c0.137,3.79 1.337,8.202 3.353,11.793l-9.669,-0c2.016,-3.591 3.215,-8.003 3.353,-11.793c0.01,-1.31 -1.016,-1.335 -1.003,-0.379c-0.084,4.804 -4.107,7.169 -7.028,6.61c-4.503,-0.865 -5.941,-5.384 -5.897,-8.043c0.131,-8.212 8.028,-14.269 15.409,-24.795Z" style="fill-rule:nonzero;"/><path id="path6980-6-3" d="M89.291,143.924c7.381,-10.525 15.279,-16.582 15.41,-24.794c0.044,-2.659 -1.394,-7.179 -5.897,-8.044c-2.922,-0.559 -6.944,1.806 -7.028,6.61c0.013,0.956 -1.013,0.932 -1.003,-0.379c0.137,-3.789 1.337,-8.201 3.353,-11.793l-9.669,0c2.016,3.592 3.216,8.004 3.353,11.793c0.01,1.311 -1.016,1.335 -1.003,0.379c-0.084,-4.804 -4.106,-7.169 -7.028,-6.61c-4.503,0.865 -5.941,5.385 -5.897,8.044c0.131,8.212 8.029,14.269 15.409,24.794Z" style="fill-rule:nonzero;"/><path id="path21-4-5-5" d="M173.131,218.813l-2.588,0.025c-0.493,-1.593 -1.586,-3.213 -3.069,-3.663c-4.19,-1.002 -6.886,1.383 -7.774,4.133c-1.076,3.336 0.024,8.02 2.909,9.683c2.391,1.378 5.942,0.215 7.573,-2.734l1.813,1.13l-0.973,10.992l-11.84,-0l0,-2.599l9.594,0l0.153,-4.579c-2.066,1.477 -5.24,1.462 -7.304,0.426c-3.91,-1.9 -5.726,-6.218 -4.967,-11.308c1.053,-5.062 3.376,-7.93 8.614,-8.34c5.827,-0.053 7.884,4.027 7.859,6.834l0,0Z" style="fill-rule:nonzero;"/><path id="path21-4-9-2-8" d="M5.453,30.635l2.588,-0.024c0.494,1.593 1.586,3.213 3.069,3.662c4.191,1.003 6.886,-1.383 7.774,-4.133c1.077,-3.335 -0.024,-8.019 -2.909,-9.682c-2.39,-1.379 -5.942,-0.216 -7.573,2.733l-1.812,-1.129l0.973,-10.992l11.839,0l0,2.598l-9.594,0l-0.152,4.579c2.065,-1.477 5.239,-1.461 7.304,-0.425c3.909,1.899 5.726,6.218 4.967,11.307c-1.054,5.062 -3.376,7.931 -8.615,8.341c-5.826,0.053 -7.883,-4.028 -7.859,-6.834l0,-0.001Z" style="fill-rule:nonzero;"/></g></g></svg>