<?xml version="1.0" encoding="UTF-8" standalone="no"?><!DOCTYPE svg PUBLIC "-//W3C//DTD SVG 1.1//EN" "http://www.w3.org/Graphics/SVG/1.1/DTD/svg11.dtd"><svg width="100%" height="100%" viewBox="0 0 179 250" version="1.1" xmlns="http://www.w3.org/2000/svg" xmlns:xlink="http://www.w3.org/1999/xlink" xml:space="preserve" xmlns:serif="http://www.serif.com/" style="fill-rule:evenodd;clip-rule:evenodd;stroke-linejoin:round;stroke-miterlimit:2;"><g id="g5455"><g id="_5D" serif:id="5D"><path id="rect6355-6-85-3-7-9-4" d="M178.583,8.008c-0,-4.42 -3.589,-8.008 -8.008,-8.008l-162.567,0c-4.42,0 -8.008,3.588 -8.008,8.008l-0,233.433c-0,4.419 3.588,8.008 8.008,8.008l162.567,-0c4.419,-0 8.008,-3.589 8.008,-8.008l-0,-233.433Z" style="fill:#fff;"/></g><path id="path147-0-8-1-6-13-2-8-2-5" d="M130.701,26.489c-7.854,0.17 -11.377,9.002 -5.559,15.861c0.843,1 0.93,1.575 -0.615,0.614c-3.916,-2.616 -11.426,-0.897 -11.811,7.1c-0.475,9.853 13.31,12.692 15.898,2.215c0.137,-1.106 1.036,-1.08 0.819,0.489c-0.236,4.258 -1.567,8.239 -3.398,12.121l9.338,-0c-1.83,-3.882 -3.162,-7.863 -3.398,-12.121c-0.217,-1.569 0.683,-1.595 0.819,-0.489c2.589,10.477 16.373,7.638 15.898,-2.215c-0.384,-7.997 -7.894,-9.716 -11.811,-7.1c-1.545,0.961 -1.458,0.386 -0.614,-0.614c5.817,-6.859 2.295,-15.691 -5.559,-15.861c-0,-0.001 -0,-0 -0.008,-0l0.001,-0Z" style="fill-rule:nonzero;"/><path id="path147-0-8-1-6-75-2-83-7-6-4" d="M47.875,26.489c-7.855,0.17 -11.377,9.002 -5.56,15.861c0.844,1 0.931,1.575 -0.614,0.614c-3.917,-2.616 -11.426,-0.897 -11.811,7.1c-0.475,9.853 13.31,12.692 15.898,2.215c0.137,-1.106 1.036,-1.08 0.819,0.489c-0.236,4.258 -1.567,8.239 -3.398,12.121l9.338,-0c-1.83,-3.882 -3.162,-7.863 -3.398,-12.121c-0.217,-1.569 0.683,-1.595 0.819,-0.489c2.588,10.477 16.373,7.638 15.898,-2.215c-0.384,-7.997 -7.894,-9.716 -11.811,-7.1c-1.545,0.961 -1.458,0.386 -0.614,-0.614c5.817,-6.859 2.295,-15.691 -5.56,-15.861c0,-0.001 0,-0 -0.008,-0l0.002,-0Z" style="fill-rule:nonzero;"/><path id="path147-0-8-1-6-7-5-5-7-6-8-5" d="M130.701,223.626c-7.854,-0.171 -11.377,-9.003 -5.559,-15.862c0.843,-1 0.93,-1.574 -0.615,-0.613c-3.916,2.615 -11.426,0.896 -11.811,-7.101c-0.475,-9.853 13.31,-12.692 15.898,-2.215c0.137,1.106 1.036,1.08 0.819,-0.489c-0.236,-4.258 -1.567,-8.239 -3.398,-12.12l9.338,-0c-1.83,3.881 -3.162,7.862 -3.398,12.12c-0.217,1.569 0.683,1.595 0.819,0.489c2.589,-10.477 16.373,-7.638 15.898,2.215c-0.384,7.997 -7.894,9.716 -11.811,7.101c-1.545,-0.961 -1.458,-0.387 -0.614,0.613c5.817,6.859 2.295,15.691 -5.559,15.862c-0,-0 -0,-0 -0.008,-0l0.001,-0Z" style="fill-rule:nonzero;"/><path id="path147-0-8-1-6-75-6-1-2-4-9-5" d="M47.875,223.626c-7.855,-0.171 -11.377,-9.003 -5.56,-15.862c0.844,-1 0.931,-1.574 -0.614,-0.613c-3.917,2.615 -11.426,0.896 -11.811,-7.101c-0.475,-9.853 13.31,-12.692 15.898,-2.215c0.137,1.106 1.036,1.08 0.819,-0.489c-0.236,-4.258 -1.567,-8.239 -3.398,-12.12l9.338,-0c-1.83,3.881 -3.162,7.862 -3.398,12.12c-0.217,1.569 0.683,1.595 0.819,0.489c2.588,-10.477 16.373,-7.638 15.898,2.215c-0.384,7.997 -7.894,9.716 -11.811,7.101c-1.545,-0.961 -1.458,-0.387 -0.614,0.613c5.817,6.859 2.295,15.691 -5.56,15.862c0,-0 0,-0 -0.008,-0l0.002,-0Z" style="fill-rule:nonzero;"/><path id="path147-0-8-1-6-1-1-0-5-6-4-0" d="M89.288,105.857c-7.855,0.17 -11.377,9.003 -5.56,15.861c0.844,1.001 0.931,1.575 -0.614,0.614c-3.916,-2.616 -11.426,-0.896 -11.811,7.101c-0.475,9.853 13.31,12.692 15.898,2.214c0.137,-1.105 1.036,-1.08 0.819,0.489c-0.236,4.259 -1.567,8.239 -3.398,12.121l9.338,0c-1.83,-3.882 -3.162,-7.862 -3.398,-12.121c-0.217,-1.569 0.683,-1.594 0.819,-0.489c2.589,10.478 16.373,7.639 15.898,-2.214c-0.384,-7.997 -7.894,-9.717 -11.811,-7.101c-1.545,0.961 -1.458,0.387 -0.614,-0.614c5.817,-6.858 2.295,-15.691 -5.56,-15.861c0,0 0,0 -0.008,0l0.002,0Z" style="fill-rule:nonzero;"/><path id="path147-6-9-8-7-0-5-6-7-4-6" d="M164.811,209.47c3.141,-0.071 4.55,-3.751 2.223,-6.609c-0.337,-0.416 -0.372,-0.656 0.246,-0.255c1.567,1.09 4.571,0.373 4.725,-2.959c0.19,-4.105 -5.324,-5.288 -6.36,-0.923c-0.054,0.461 -0.414,0.45 -0.327,-0.203c0.094,-1.775 0.627,-3.433 1.359,-5.051l-3.735,0c0.732,1.618 1.265,3.276 1.359,5.051c0.087,0.653 -0.273,0.664 -0.328,0.203c-1.035,-4.365 -6.549,-3.182 -6.359,0.923c0.154,3.332 3.158,4.049 4.725,2.959c0.618,-0.401 0.583,-0.161 0.245,0.255c-2.326,2.858 -0.918,6.538 2.224,6.609c0.001,0 0,0 0,0l0.003,0Z" style="fill-rule:nonzero;"/><path id="path147-6-9-8-7-4-5-62-2-3-8" d="M13.773,39.979c-3.142,0.07 -4.551,3.751 -2.224,6.609c0.337,0.416 0.372,0.656 -0.246,0.255c-1.567,-1.09 -4.57,-0.373 -4.724,2.959c-0.19,4.105 5.324,5.288 6.359,0.923c0.055,-0.461 0.414,-0.451 0.328,0.203c-0.095,1.775 -0.628,3.433 -1.36,5.051l3.735,-0c-0.732,-1.618 -1.265,-3.276 -1.359,-5.051c-0.087,-0.654 0.273,-0.664 0.328,-0.203c1.035,4.365 6.549,3.182 6.359,-0.923c-0.154,-3.332 -3.158,-4.049 -4.724,-2.959c-0.618,0.401 -0.584,0.161 -0.246,-0.255c2.327,-2.858 0.918,-6.538 -2.224,-6.609c-0.001,-0 0,-0 0,-0l-0.002,-0Z" style="fill-rule:nonzero;"/><path id="path21-39-8-1" d="M5.451,30.636l2.588,-0.025c0.494,1.593 1.586,3.213 3.07,3.663c4.19,1.002 6.886,-1.383 7.773,-4.133c1.077,-3.336 -0.024,-8.02 -2.909,-9.683c-2.39,-1.378 -5.941,-0.215 -7.573,2.734l-1.812,-1.13l0.973,-10.992l11.84,0l-0,2.599l-9.595,-0l-0.152,4.579c2.065,-1.477 5.24,-1.462 7.304,-0.426c3.909,1.9 5.726,6.218 4.967,11.308c-1.054,5.062 -3.376,7.93 -8.614,8.34c-5.827,0.054 -7.884,-4.027 -7.86,-6.834l0,-0Z" style="fill-rule:nonzero;"/><path id="path21-3-4-1-8" d="M173.129,218.813l-2.587,0.025c-0.494,-1.593 -1.586,-3.213 -3.07,-3.662c-4.19,-1.003 -6.886,1.383 -7.773,4.133c-1.077,3.335 0.024,8.019 2.908,9.682c2.391,1.379 5.942,0.216 7.574,-2.733l1.812,1.129l-0.973,10.992l-11.84,-0l0,-2.598l9.595,-0l0.152,-4.58c-2.066,1.478 -5.24,1.462 -7.304,0.426c-3.909,-1.9 -5.726,-6.218 -4.967,-11.307c1.053,-5.063 3.376,-7.931 8.614,-8.341c5.827,-0.053 7.884,4.027 7.859,6.834l0,0Z" style="fill-rule:nonzero;"/></g></svg>