<?xml version="1.0" encoding="UTF-8" standalone="no"?><!DOCTYPE svg PUBLIC "-//W3C//DTD SVG 1.1//EN" "http://www.w3.org/Graphics/SVG/1.1/DTD/svg11.dtd"><svg width="100%" height="100%" viewBox="0 0 179 250" version="1.1" xmlns="http://www.w3.org/2000/svg" xmlns:xlink="http://www.w3.org/1999/xlink" xml:space="preserve" xmlns:serif="http://www.serif.com/" style="fill-rule:evenodd;clip-rule:evenodd;stroke-linejoin:round;stroke-miterlimit:2;"><g id="g5468"><path id="rect6355-6-85-3-2-3-6" d="M178.583,7.972c-0,-4.4 -3.573,-7.972 -7.973,-7.972l-162.638,0c-4.4,0 -7.972,3.572 -7.972,7.972l0,233.504c0,4.4 3.572,7.973 7.972,7.973l162.638,-0c4.4,-0 7.973,-3.573 7.973,-7.973l-0,-233.504Z" style="fill:#fff;"/><path id="path147-0-8-1-6-13-2-5-7-1" d="M130.701,26.489c-7.854,0.17 -11.377,9.002 -5.559,15.861c0.843,1 0.93,1.574 -0.615,0.614c-3.916,-2.616 -11.426,-0.897 -11.811,7.1c-0.475,9.853 13.31,12.692 15.898,2.215c0.137,-1.105 1.036,-1.08 0.82,0.489c-0.236,4.259 -1.568,8.239 -3.399,12.121l9.338,-0c-1.83,-3.882 -3.162,-7.862 -3.398,-12.121c-0.217,-1.569 0.683,-1.594 0.819,-0.489c2.589,10.477 16.373,7.638 15.898,-2.215c-0.384,-7.997 -7.894,-9.716 -11.811,-7.1c-1.545,0.96 -1.458,0.386 -0.614,-0.614c5.817,-6.859 2.295,-15.691 -5.559,-15.861c-0,-0 -0,-0 -0.008,-0l0.001,-0Z" style="fill-rule:nonzero;"/><path id="path147-0-8-1-6-75-2-83-8-8-7" d="M47.875,26.489c-7.855,0.17 -11.377,9.002 -5.56,15.861c0.844,1 0.931,1.574 -0.614,0.614c-3.917,-2.616 -11.426,-0.897 -11.811,7.1c-0.475,9.853 13.31,12.692 15.898,2.215c0.137,-1.105 1.036,-1.08 0.819,0.489c-0.236,4.259 -1.567,8.239 -3.398,12.121l9.338,-0c-1.83,-3.882 -3.162,-7.862 -3.398,-12.121c-0.217,-1.569 0.683,-1.594 0.819,-0.489c2.588,10.477 16.373,7.638 15.898,-2.215c-0.384,-7.997 -7.894,-9.716 -11.811,-7.1c-1.545,0.96 -1.458,0.386 -0.614,-0.614c5.817,-6.859 2.295,-15.691 -5.56,-15.861c0,-0 0,-0 -0.008,-0l0.002,-0Z" style="fill-rule:nonzero;"/><path id="path147-0-8-1-6-7-5-5-7-8-7-8" d="M130.701,223.626c-7.854,-0.171 -11.377,-9.003 -5.559,-15.862c0.843,-1 0.93,-1.574 -0.615,-0.613c-3.916,2.615 -11.426,0.896 -11.811,-7.101c-0.475,-9.853 13.31,-12.692 15.898,-2.215c0.137,1.106 1.036,1.08 0.82,-0.489c-0.236,-4.258 -1.568,-8.239 -3.399,-12.12l9.338,-0c-1.83,3.881 -3.162,7.862 -3.398,12.12c-0.217,1.569 0.683,1.595 0.819,0.489c2.589,-10.477 16.373,-7.638 15.898,2.215c-0.384,7.997 -7.894,9.716 -11.811,7.101c-1.545,-0.961 -1.458,-0.387 -0.614,0.613c5.817,6.859 2.295,15.691 -5.559,15.862c-0,-0 -0,-0 -0.008,-0l0.001,-0Z" style="fill-rule:nonzero;"/><path id="path147-0-8-1-6-75-6-1-2-0-6-8" d="M47.875,223.626c-7.855,-0.171 -11.377,-9.003 -5.56,-15.862c0.844,-1 0.931,-1.574 -0.614,-0.613c-3.917,2.615 -11.426,0.896 -11.811,-7.101c-0.475,-9.853 13.31,-12.692 15.898,-2.215c0.137,1.106 1.036,1.08 0.819,-0.489c-0.236,-4.258 -1.567,-8.239 -3.398,-12.12l9.338,-0c-1.83,3.881 -3.162,7.862 -3.398,12.12c-0.217,1.569 0.683,1.595 0.819,0.489c2.588,-10.477 16.373,-7.638 15.898,2.215c-0.384,7.997 -7.894,9.716 -11.811,7.101c-1.545,-0.961 -1.458,-0.387 -0.614,0.613c5.817,6.859 2.295,15.691 -5.56,15.862c0,-0 0,-0 -0.008,-0l0.002,-0Z" style="fill-rule:nonzero;"/><path id="path147-0-8-1-6-7-5-7-3-0-9-6-4" d="M130.701,105.857c-7.854,0.17 -11.377,9.003 -5.559,15.861c0.843,1.001 0.93,1.575 -0.615,0.614c-3.916,-2.616 -11.426,-0.896 -11.811,7.101c-0.475,9.853 13.31,12.692 15.898,2.214c0.137,-1.105 1.036,-1.08 0.82,0.489c-0.236,4.259 -1.568,8.239 -3.399,12.121l9.338,0c-1.83,-3.882 -3.162,-7.862 -3.398,-12.121c-0.217,-1.569 0.683,-1.594 0.819,-0.489c2.589,10.478 16.373,7.639 15.898,-2.214c-0.384,-7.997 -7.894,-9.717 -11.811,-7.101c-1.545,0.961 -1.458,0.387 -0.614,-0.614c5.817,-6.858 2.295,-15.691 -5.559,-15.861c-0,0 -0,0 -0.008,0l0.001,0Z" style="fill-rule:nonzero;"/><path id="path147-0-8-1-6-75-6-6-5-3-0-0-2" d="M47.875,105.857c-7.855,0.17 -11.377,9.003 -5.56,15.861c0.844,1.001 0.931,1.575 -0.614,0.614c-3.917,-2.616 -11.426,-0.896 -11.811,7.101c-0.475,9.853 13.31,12.692 15.898,2.214c0.137,-1.105 1.036,-1.08 0.819,0.489c-0.236,4.259 -1.567,8.239 -3.398,12.121l9.338,0c-1.83,-3.882 -3.162,-7.862 -3.398,-12.121c-0.217,-1.569 0.683,-1.594 0.819,-0.489c2.588,10.478 16.373,7.639 15.898,-2.214c-0.384,-7.997 -7.894,-9.717 -11.811,-7.101c-1.545,0.961 -1.458,0.387 -0.614,-0.614c5.817,-6.858 2.295,-15.691 -5.56,-15.861c0,0 0,0 -0.008,0l0.002,0Z" style="fill-rule:nonzero;"/><path id="path147-6-9-8-7-0-5-6-4-2-8" d="M164.811,209.47c3.142,-0.071 4.55,-3.751 2.224,-6.609c-0.338,-0.416 -0.373,-0.656 0.245,-0.255c1.567,1.09 4.571,0.373 4.725,-2.959c0.19,-4.105 -5.324,-5.288 -6.359,-0.923c-0.055,0.461 -0.415,0.45 -0.328,-0.203c0.094,-1.775 0.627,-3.433 1.359,-5.051l-3.735,0c0.732,1.618 1.265,3.276 1.359,5.051c0.087,0.653 -0.273,0.664 -0.327,0.203c-1.036,-4.365 -6.55,-3.182 -6.36,0.923c0.154,3.332 3.158,4.049 4.725,2.959c0.618,-0.401 0.583,-0.161 0.246,0.255c-2.327,2.858 -0.918,6.538 2.223,6.609c0.001,0 0,0 0,0l0.003,0Z" style="fill-rule:nonzero;"/><path id="path147-6-9-8-7-4-5-62-0-2-9" d="M13.773,39.979c-3.142,0.07 -4.551,3.751 -2.224,6.609c0.337,0.416 0.372,0.656 -0.246,0.255c-1.567,-1.09 -4.57,-0.373 -4.724,2.959c-0.19,4.105 5.324,5.288 6.359,0.923c0.055,-0.461 0.414,-0.45 0.328,0.203c-0.095,1.775 -0.627,3.433 -1.36,5.051l3.735,-0c-0.732,-1.618 -1.264,-3.276 -1.359,-5.051c-0.087,-0.653 0.273,-0.664 0.328,-0.203c1.035,4.365 6.549,3.182 6.359,-0.923c-0.154,-3.332 -3.158,-4.049 -4.724,-2.959c-0.618,0.401 -0.584,0.161 -0.246,-0.255c2.327,-2.858 0.918,-6.538 -2.224,-6.609c-0.001,-0 0,-0 0,-0l-0.002,-0Z" style="fill-rule:nonzero;"/><path id="path23-8-1-4" d="M6.02,29.348c-0.325,-2.222 -0.317,-7.966 -0.051,-9.665c0.819,-5.205 2.807,-7.588 6.138,-8.365c3.235,-0.757 7.779,0.086 8.775,4.437l-2.704,0.052c-1.462,-2.942 -5.163,-2.156 -7.248,-0.876c-1.663,1.019 -2.415,5.276 -2.093,5.538c0,-0 3.145,-2.33 5.625,-2.159c5.299,0.553 7.485,5.148 7.3,9.488c-0.169,5.22 -1.824,9.394 -7.441,9.672c-5.34,-0.206 -7.787,-3.118 -8.301,-8.122l-0,0Zm13.17,-1.378c0.029,-3.622 -1.614,-6.336 -4.728,-6.634c-3.11,-0.299 -6.248,2.737 -6.031,6.428c0.217,3.708 1.652,6.826 5.424,6.81c4.058,-0.016 5.316,-4.026 5.335,-6.604Z" style="fill-rule:nonzero;"/><path id="path23-6-8-9-6" d="M172.561,220.101c0.325,2.222 0.317,7.966 0.052,9.665c-0.82,5.205 -2.808,7.587 -6.139,8.365c-3.235,0.757 -7.779,-0.086 -8.775,-4.437l2.704,-0.052c1.462,2.942 5.163,2.156 7.248,0.876c1.663,-1.019 2.415,-5.276 2.093,-5.538c-0,0 -3.145,2.33 -5.625,2.158c-5.299,-0.552 -7.485,-5.147 -7.3,-9.487c0.169,-5.22 1.824,-9.394 7.441,-9.672c5.34,0.206 7.787,3.118 8.301,8.122l0,-0Zm-13.17,1.378c-0.029,3.622 1.614,6.336 4.728,6.634c3.11,0.299 6.248,-2.737 6.031,-6.428c-0.217,-3.708 -1.652,-6.827 -5.424,-6.81c-4.058,0.016 -5.316,4.026 -5.335,6.604Z" style="fill-rule:nonzero;"/></g></svg>