<?xml version="1.0" encoding="UTF-8" standalone="no"?><!DOCTYPE svg PUBLIC "-//W3C//DTD SVG 1.1//EN" "http://www.w3.org/Graphics/SVG/1.1/DTD/svg11.dtd"><svg width="100%" height="100%" viewBox="0 0 179 250" version="1.1" xmlns="http://www.w3.org/2000/svg" xmlns:xlink="http://www.w3.org/1999/xlink" xml:space="preserve" xmlns:serif="http://www.serif.com/" style="fill-rule:evenodd;clip-rule:evenodd;stroke-linejoin:round;stroke-miterlimit:2;"><g id="g6758"><path id="rect6758-6" d="M178.583,8.008c-0,-4.42 -3.589,-8.008 -8.008,-8.008l-162.567,0c-4.42,0 -8.008,3.588 -8.008,8.008l0,233.433c0,4.419 3.588,8.008 8.008,8.008l162.567,-0c4.419,-0 8.008,-3.589 8.008,-8.008l-0,-233.433Z" style="fill:#fff;"/><path id="path6790-5" d="M13.774,55.979c-1.729,-2.855 -3.548,-5.63 -5.821,-8c2.273,-2.371 4.092,-5.145 5.821,-8c1.728,2.855 3.547,5.629 5.82,8c-2.273,2.37 -4.092,5.145 -5.82,8Z" style="fill:#3f3f3f;fill-rule:nonzero;"/><path id="path6792-5" d="M130.704,64.556c-4.149,-6.852 -8.514,-13.511 -13.968,-19.2c5.454,-5.689 9.819,-12.348 13.968,-19.2c4.149,6.852 8.514,13.511 13.969,19.2c-5.455,5.689 -9.82,12.348 -13.969,19.2Z" style="fill:#3f3f3f;fill-rule:nonzero;"/><path id="path6794-1" d="M164.809,209.47c-1.728,-2.855 -3.547,-5.629 -5.82,-8c2.273,-2.37 4.092,-5.145 5.82,-8c1.729,2.855 3.548,5.63 5.821,8c-2.273,2.371 -4.092,5.145 -5.821,8Z" style="fill:#3f3f3f;fill-rule:nonzero;"/><path id="path6796-2" d="M47.878,64.556c-4.149,-6.852 -8.514,-13.511 -13.969,-19.2c5.455,-5.689 9.82,-12.348 13.969,-19.2c4.149,6.852 8.514,13.511 13.969,19.2c-5.455,5.689 -9.82,12.348 -13.969,19.2Z" style="fill:#3f3f3f;fill-rule:nonzero;"/><path id="path6806-6" d="M47.878,143.899c-4.149,-6.852 -8.514,-13.512 -13.969,-19.2c5.455,-5.689 9.82,-12.349 13.969,-19.2c4.149,6.851 8.514,13.511 13.969,19.2c-5.455,5.688 -9.82,12.348 -13.969,19.2Z" style="fill:#3f3f3f;fill-rule:nonzero;"/><path id="path6808-6" d="M130.704,143.911c-4.149,-6.852 -8.514,-13.511 -13.968,-19.2c5.454,-5.689 9.819,-12.348 13.968,-19.2c4.149,6.852 8.514,13.511 13.969,19.2c-5.455,5.689 -9.82,12.348 -13.969,19.2Z" style="fill:#3f3f3f;fill-rule:nonzero;"/><path id="path6812-0" d="M47.878,223.297c-4.149,-6.852 -8.514,-13.511 -13.969,-19.2c5.455,-5.689 9.82,-12.348 13.969,-19.2c4.149,6.852 8.514,13.511 13.969,19.2c-5.455,5.689 -9.82,12.348 -13.969,19.2Z" style="fill:#3f3f3f;fill-rule:nonzero;"/><path id="path6814-4" d="M130.704,223.303c-4.149,-6.852 -8.514,-13.512 -13.968,-19.2c5.454,-5.689 9.819,-12.349 13.968,-19.2c4.149,6.851 8.514,13.511 13.969,19.2c-5.455,5.688 -9.82,12.348 -13.969,19.2Z" style="fill:#3f3f3f;fill-rule:nonzero;"/><path id="path23-5-3-5-5" d="M6.02,29.348c-0.325,-2.222 -0.317,-7.966 -0.051,-9.665c0.819,-5.206 2.808,-7.588 6.138,-8.365c3.235,-0.758 7.779,0.086 8.776,4.436l-2.705,0.053c-1.462,-2.941 -5.163,-2.156 -7.248,-0.876c-1.663,1.02 -2.415,5.276 -2.093,5.538c0,-0 3.146,-2.33 5.625,-2.158c5.299,0.552 7.485,5.148 7.3,9.487c-0.169,5.22 -1.824,9.395 -7.441,9.672c-5.34,-0.206 -7.787,-3.117 -8.301,-8.122l-0,-0Zm13.17,-1.379c0.029,-3.621 -1.614,-6.336 -4.728,-6.633c-3.11,-0.3 -6.248,2.736 -6.031,6.428c0.217,3.707 1.652,6.826 5.424,6.809c4.058,-0.016 5.316,-4.026 5.335,-6.604Z" style="fill:#3f3f3f;fill-rule:nonzero;"/><path id="path23-6-5-6-6" d="M172.561,220.1c0.325,2.222 0.317,7.966 0.051,9.666c-0.82,5.205 -2.808,7.587 -6.138,8.365c-3.235,0.757 -7.779,-0.086 -8.776,-4.437l2.704,-0.052c1.463,2.942 5.164,2.156 7.249,0.876c1.663,-1.019 2.415,-5.276 2.093,-5.538c-0,0 -3.146,2.33 -5.626,2.158c-5.299,-0.552 -7.484,-5.148 -7.299,-9.487c0.169,-5.22 1.824,-9.394 7.44,-9.672c5.341,0.206 7.788,3.118 8.302,8.122l-0,-0.001Zm-13.17,1.379c-0.029,3.622 1.614,6.336 4.728,6.634c3.11,0.299 6.248,-2.737 6.031,-6.429c-0.217,-3.707 -1.652,-6.826 -5.424,-6.809c-4.058,0.016 -5.316,4.026 -5.335,6.604Z" style="fill:#3f3f3f;fill-rule:nonzero;"/></g></svg>