<?xml version="1.0" encoding="UTF-8" standalone="no"?><!DOCTYPE svg PUBLIC "-//W3C//DTD SVG 1.1//EN" "http://www.w3.org/Graphics/SVG/1.1/DTD/svg11.dtd"><svg width="100%" height="100%" viewBox="0 0 179 250" version="1.1" xmlns="http://www.w3.org/2000/svg" xmlns:xlink="http://www.w3.org/1999/xlink" xml:space="preserve" xmlns:serif="http://www.serif.com/" style="fill-rule:evenodd;clip-rule:evenodd;stroke-linejoin:round;stroke-miterlimit:2;"><g id="g8484-9-4"><path id="rect6988-1-0" d="M178.583,8.008c-0,-4.42 -3.589,-8.008 -8.008,-8.008l-162.567,-0c-4.42,-0 -8.008,3.588 -8.008,8.008l0,233.433c0,4.419 3.588,8.008 8.008,8.008l162.567,-0c4.419,-0 8.008,-3.589 8.008,-8.008l-0,-233.433Z" style="fill:#fff;"/><path id="path7018-7-4" d="M47.878,26.156c-7.381,10.526 -15.278,16.583 -15.409,24.795c-0.044,2.659 1.393,7.178 5.897,8.043c2.921,0.559 6.944,-1.806 7.028,-6.61c-0.013,-0.956 1.012,-0.931 1.003,0.379c-0.138,3.79 -1.337,8.202 -3.353,11.793l9.669,-0c-2.016,-3.591 -3.216,-8.003 -3.354,-11.793c-0.009,-1.31 1.016,-1.335 1.004,-0.379c0.084,4.804 4.106,7.169 7.028,6.61c4.503,-0.865 5.941,-5.384 5.897,-8.043c-0.132,-8.212 -8.029,-14.269 -15.41,-24.795Z" style="fill-rule:nonzero;"/><path id="path7020-0-8" d="M13.774,39.979c-3.449,4.385 -7.138,6.909 -7.2,10.331c-0.021,1.108 0.651,2.991 2.755,3.351c1.365,0.233 3.245,-0.752 3.284,-2.754c-0.008,-0.398 0.473,-0.388 0.469,0.158c-0.064,1.579 -0.625,3.417 -1.567,4.914l4.517,-0c-0.941,-1.497 -1.502,-3.335 -1.566,-4.914c-0.008,-0.546 0.474,-0.556 0.468,-0.158c0.04,2.002 1.919,2.987 3.284,2.754c2.104,-0.36 2.776,-2.243 2.755,-3.351c-0.061,-3.422 -3.751,-5.946 -7.199,-10.331Z" style="fill-rule:nonzero;"/><path id="path7024-7-1" d="M164.809,209.47c-3.448,-4.385 -7.138,-6.909 -7.199,-10.331c-0.021,-1.108 0.651,-2.991 2.755,-3.351c1.365,-0.233 3.244,0.752 3.284,2.754c-0.008,0.398 0.473,0.388 0.468,-0.158c-0.064,-1.579 -0.624,-3.417 -1.566,-4.914l4.517,0c-0.942,1.497 -1.502,3.335 -1.567,4.914c-0.008,0.546 0.475,0.556 0.469,0.158c0.039,-2.002 1.919,-2.987 3.284,-2.754c2.104,0.36 2.775,2.243 2.755,3.351c-0.062,3.422 -3.751,5.946 -7.2,10.331Z" style="fill-rule:nonzero;"/><path id="path7026-2-6" d="M130.704,26.156c-7.38,10.526 -15.278,16.583 -15.409,24.795c-0.044,2.659 1.394,7.178 5.897,8.043c2.922,0.559 6.944,-1.806 7.028,-6.61c-0.013,-0.956 1.013,-0.931 1.003,0.379c-0.137,3.79 -1.337,8.202 -3.353,11.793l9.669,-0c-2.016,-3.591 -3.216,-8.003 -3.353,-11.793c-0.01,-1.31 1.016,-1.335 1.003,-0.379c0.084,4.804 4.106,7.169 7.028,6.61c4.503,-0.865 5.941,-5.384 5.897,-8.043c-0.131,-8.212 -8.029,-14.269 -15.41,-24.795Z" style="fill-rule:nonzero;"/><path id="path7036-9-6" d="M47.878,105.524c-7.381,10.526 -15.278,16.583 -15.409,24.795c-0.044,2.659 1.393,7.179 5.897,8.044c2.921,0.559 6.944,-1.806 7.028,-6.61c-0.013,-0.957 1.012,-0.932 1.003,0.379c-0.138,3.789 -1.337,8.201 -3.353,11.792l9.669,0c-2.016,-3.591 -3.216,-8.003 -3.354,-11.792c-0.009,-1.311 1.016,-1.336 1.004,-0.379c0.084,4.804 4.106,7.169 7.028,6.61c4.503,-0.865 5.941,-5.385 5.897,-8.044c-0.132,-8.212 -8.029,-14.269 -15.41,-24.795Z" style="fill-rule:nonzero;"/><path id="path7038-9-6" d="M47.878,223.293c-7.381,-10.526 -15.278,-16.583 -15.409,-24.795c-0.044,-2.659 1.393,-7.178 5.897,-8.044c2.921,-0.558 6.944,1.806 7.028,6.61c-0.013,0.957 1.012,0.932 1.003,-0.379c-0.138,-3.789 -1.337,-8.201 -3.353,-11.792l9.669,-0c-2.016,3.591 -3.216,8.003 -3.354,11.792c-0.009,1.311 1.016,1.336 1.004,0.379c0.084,-4.804 4.106,-7.168 7.028,-6.61c4.503,0.866 5.941,5.385 5.897,8.044c-0.132,8.212 -8.029,14.269 -15.41,24.795Z" style="fill-rule:nonzero;"/><path id="path7040-0-9" d="M130.704,223.293c-7.38,-10.526 -15.278,-16.583 -15.409,-24.795c-0.044,-2.659 1.394,-7.178 5.897,-8.044c2.922,-0.558 6.944,1.806 7.028,6.61c-0.013,0.957 1.013,0.932 1.003,-0.379c-0.137,-3.789 -1.337,-8.201 -3.353,-11.792l9.669,-0c-2.016,3.591 -3.216,8.003 -3.353,11.792c-0.01,1.311 1.016,1.336 1.003,0.379c0.084,-4.804 4.106,-7.168 7.028,-6.61c4.503,0.866 5.941,5.385 5.897,8.044c-0.131,8.212 -8.029,14.269 -15.41,24.795Z" style="fill-rule:nonzero;"/><path id="path7050-2-9" d="M130.704,105.524c-7.38,10.526 -15.278,16.583 -15.409,24.795c-0.044,2.659 1.394,7.179 5.897,8.044c2.922,0.559 6.944,-1.806 7.028,-6.61c-0.013,-0.957 1.013,-0.932 1.003,0.379c-0.137,3.789 -1.337,8.201 -3.353,11.792l9.669,0c-2.016,-3.591 -3.216,-8.003 -3.353,-11.792c-0.01,-1.311 1.016,-1.336 1.003,-0.379c0.084,4.804 4.106,7.169 7.028,6.61c4.503,-0.865 5.941,-5.385 5.897,-8.044c-0.131,-8.212 -8.029,-14.269 -15.41,-24.795Z" style="fill-rule:nonzero;"/><path id="path23-1-9-8" d="M6.02,29.348c-0.325,-2.222 -0.317,-7.966 -0.051,-9.665c0.819,-5.206 2.808,-7.588 6.138,-8.365c3.235,-0.758 7.779,0.086 8.776,4.436l-2.705,0.053c-1.462,-2.942 -5.163,-2.156 -7.248,-0.876c-1.663,1.02 -2.415,5.276 -2.093,5.538c0,-0 3.146,-2.33 5.625,-2.158c5.299,0.552 7.485,5.148 7.3,9.487c-0.169,5.22 -1.824,9.395 -7.441,9.672c-5.34,-0.206 -7.787,-3.117 -8.301,-8.122l-0,-0Zm13.17,-1.379c0.029,-3.621 -1.614,-6.336 -4.728,-6.633c-3.11,-0.3 -6.248,2.736 -6.031,6.428c0.217,3.707 1.652,6.826 5.424,6.809c4.058,-0.016 5.316,-4.026 5.335,-6.604Z" style="fill-rule:nonzero;"/><path id="path23-1-5-6-4" d="M172.561,220.101c0.325,2.222 0.317,7.966 0.051,9.665c-0.82,5.206 -2.808,7.588 -6.138,8.365c-3.235,0.758 -7.779,-0.086 -8.776,-4.436l2.704,-0.053c1.463,2.941 5.164,2.156 7.249,0.876c1.663,-1.02 2.415,-5.276 2.093,-5.538c-0,-0 -3.146,2.33 -5.626,2.158c-5.299,-0.552 -7.484,-5.148 -7.299,-9.487c0.169,-5.22 1.824,-9.395 7.44,-9.673c5.341,0.207 7.788,3.118 8.302,8.123l-0,-0Zm-13.17,1.379c-0.029,3.621 1.614,6.335 4.728,6.633c3.11,0.3 6.248,-2.736 6.031,-6.428c-0.217,-3.708 -1.652,-6.826 -5.424,-6.809c-4.058,0.016 -5.316,4.025 -5.335,6.604Z" style="fill-rule:nonzero;"/></g></svg>