<?xml version="1.0" encoding="UTF-8" standalone="no"?><!DOCTYPE svg PUBLIC "-//W3C//DTD SVG 1.1//EN" "http://www.w3.org/Graphics/SVG/1.1/DTD/svg11.dtd"><svg width="100%" height="100%" viewBox="0 0 179 250" version="1.1" xmlns="http://www.w3.org/2000/svg" xmlns:xlink="http://www.w3.org/1999/xlink" xml:space="preserve" xmlns:serif="http://www.serif.com/" style="fill-rule:evenodd;clip-rule:evenodd;stroke-linejoin:round;stroke-miterlimit:2;"><g id="g11270-7-7"><g id="_5D" serif:id="5D"><path id="rect10006-6-1" d="M178.583,8.008c-0,-4.42 -3.589,-8.008 -8.008,-8.008l-162.567,0c-4.42,0 -8.008,3.588 -8.008,8.008l-0,233.433c-0,4.419 3.588,8.008 8.008,8.008l162.567,-0c4.419,-0 8.008,-3.589 8.008,-8.008l-0,-233.433Z" style="fill:#fff;"/></g><path id="path10038-5-0" d="M13.774,55.979c-0,-0 -1.78,-2.552 -4.181,-5.552c-1.606,-2.008 -2.89,-4.182 -3.009,-6.055c-0.137,-2.139 1.159,-4.285 3.505,-4.389c2.345,-0.104 3.297,1.649 3.685,3.095c0.387,-1.446 1.339,-3.199 3.684,-3.095c2.347,0.104 3.643,2.25 3.506,4.389c-0.119,1.873 -1.403,4.047 -3.01,6.055c-2.4,3 -4.18,5.552 -4.18,5.552Z" style="fill:#3f3f3f;fill-rule:nonzero;"/><path id="path10040-7-6" d="M164.809,193.47c0,0 -1.779,2.552 -4.18,5.552c-1.606,2.008 -2.89,4.182 -3.01,6.055c-0.137,2.139 1.159,4.285 3.506,4.389c2.345,0.104 3.297,-1.649 3.684,-3.095c0.388,1.446 1.34,3.199 3.685,3.095c2.346,-0.104 3.643,-2.25 3.506,-4.389c-0.12,-1.873 -1.404,-4.047 -3.01,-6.055c-2.401,-3 -4.181,-5.552 -4.181,-5.552Z" style="fill:#3f3f3f;fill-rule:nonzero;"/><path id="path10046-1-1" d="M47.878,64.556c0,-0 -3.733,-6.124 -8.769,-13.325c-3.368,-4.819 -6.062,-10.036 -6.312,-14.531c-0.287,-5.133 2.431,-10.284 7.353,-10.534c4.919,-0.249 6.915,3.959 7.728,7.428c0.813,-3.469 2.81,-7.677 7.728,-7.428c4.922,0.25 7.641,5.401 7.353,10.534c-0.25,4.495 -2.943,9.712 -6.312,14.531c-5.036,7.201 -8.769,13.325 -8.769,13.325Z" style="fill:#3f3f3f;fill-rule:nonzero;"/><path id="path10048-2-0" d="M130.704,143.924c0,0 -3.733,-6.124 -8.768,-13.325c-3.369,-4.818 -6.062,-10.036 -6.313,-14.53c-0.287,-5.134 2.432,-10.284 7.353,-10.534c4.919,-0.249 6.916,3.958 7.728,7.428c0.813,-3.47 2.81,-7.677 7.729,-7.428c4.921,0.25 7.64,5.4 7.353,10.534c-0.251,4.494 -2.944,9.712 -6.313,14.53c-5.035,7.201 -8.769,13.325 -8.769,13.325Z" style="fill:#3f3f3f;fill-rule:nonzero;"/><path id="path10052-3-1" d="M130.704,64.556c0,-0 -3.733,-6.124 -8.768,-13.325c-3.369,-4.819 -6.062,-10.036 -6.313,-14.531c-0.287,-5.133 2.432,-10.284 7.353,-10.534c4.919,-0.249 6.916,3.959 7.728,7.428c0.813,-3.469 2.81,-7.677 7.729,-7.428c4.921,0.25 7.64,5.401 7.353,10.534c-0.251,4.495 -2.944,9.712 -6.313,14.531c-5.035,7.201 -8.769,13.325 -8.769,13.325Z" style="fill:#3f3f3f;fill-rule:nonzero;"/><path id="path10056-4-2" d="M47.878,143.924c0,0 -3.733,-6.124 -8.769,-13.325c-3.368,-4.818 -6.062,-10.036 -6.312,-14.53c-0.287,-5.134 2.431,-10.284 7.353,-10.534c4.919,-0.249 6.915,3.958 7.728,7.428c0.813,-3.47 2.81,-7.677 7.728,-7.428c4.922,0.25 7.641,5.4 7.353,10.534c-0.25,4.494 -2.943,9.712 -6.312,14.53c-5.036,7.201 -8.769,13.325 -8.769,13.325Z" style="fill:#3f3f3f;fill-rule:nonzero;"/><path id="path10066-9-2" d="M130.704,184.893c0,-0 -3.733,6.124 -8.768,13.325c-3.369,4.819 -6.062,10.036 -6.313,14.53c-0.287,5.134 2.432,10.285 7.353,10.534c4.919,0.25 6.916,-3.958 7.728,-7.427c0.813,3.469 2.81,7.677 7.729,7.427c4.921,-0.249 7.64,-5.4 7.353,-10.534c-0.251,-4.494 -2.944,-9.711 -6.313,-14.53c-5.035,-7.201 -8.769,-13.325 -8.769,-13.325Z" style="fill:#3f3f3f;fill-rule:nonzero;"/><path id="path10068-1-2" d="M47.878,184.893c0,-0 -3.733,6.124 -8.769,13.325c-3.368,4.819 -6.062,10.036 -6.312,14.53c-0.287,5.134 2.431,10.285 7.353,10.534c4.919,0.25 6.915,-3.958 7.728,-7.427c0.813,3.469 2.81,7.677 7.728,7.427c4.922,-0.249 7.641,-5.4 7.353,-10.534c-0.25,-4.494 -2.943,-9.711 -6.312,-14.53c-5.036,-7.201 -8.769,-13.325 -8.769,-13.325Z" style="fill:#3f3f3f;fill-rule:nonzero;"/><path id="path23-5-2-7-3" d="M6.02,29.348c-0.325,-2.222 -0.317,-7.966 -0.051,-9.665c0.819,-5.205 2.808,-7.587 6.138,-8.365c3.235,-0.757 7.779,0.086 8.776,4.437l-2.704,0.052c-1.463,-2.942 -5.164,-2.156 -7.249,-0.876c-1.663,1.019 -2.415,5.276 -2.093,5.538c0,-0 3.146,-2.33 5.625,-2.158c5.299,0.552 7.485,5.147 7.3,9.487c-0.169,5.22 -1.824,9.394 -7.441,9.672c-5.34,-0.206 -7.787,-3.118 -8.301,-8.122l-0,0Zm13.17,-1.378c0.029,-3.622 -1.614,-6.336 -4.728,-6.634c-3.11,-0.299 -6.248,2.737 -6.031,6.428c0.217,3.708 1.652,6.827 5.424,6.81c4.058,-0.016 5.316,-4.026 5.335,-6.604Z" style="fill:#3f3f3f;fill-rule:nonzero;"/><path id="path23-6-5-1-7-1" d="M172.561,220.101c0.325,2.222 0.317,7.966 0.051,9.665c-0.819,5.205 -2.808,7.587 -6.138,8.365c-3.235,0.757 -7.779,-0.086 -8.776,-4.437l2.704,-0.052c1.463,2.942 5.164,2.156 7.249,0.876c1.663,-1.019 2.415,-5.276 2.093,-5.538c-0,0 -3.146,2.33 -5.626,2.158c-5.298,-0.552 -7.484,-5.147 -7.299,-9.487c0.169,-5.22 1.824,-9.394 7.44,-9.672c5.341,0.206 7.788,3.118 8.302,8.122l0,-0Zm-13.17,1.378c-0.029,3.622 1.614,6.336 4.728,6.634c3.11,0.299 6.248,-2.737 6.031,-6.428c-0.217,-3.708 -1.652,-6.827 -5.424,-6.81c-4.058,0.016 -5.316,4.026 -5.335,6.604Z" style="fill:#3f3f3f;fill-rule:nonzero;"/></g></svg>