<?xml version="1.0" encoding="UTF-8" standalone="no"?><!DOCTYPE svg PUBLIC "-//W3C//DTD SVG 1.1//EN" "http://www.w3.org/Graphics/SVG/1.1/DTD/svg11.dtd"><svg width="100%" height="100%" viewBox="0 0 179 250" version="1.1" xmlns="http://www.w3.org/2000/svg" xmlns:xlink="http://www.w3.org/1999/xlink" xml:space="preserve" xmlns:serif="http://www.serif.com/" style="fill-rule:evenodd;clip-rule:evenodd;stroke-linejoin:round;stroke-miterlimit:2;"><g id="g11234-8-5"><path id="rect10074-2-8" d="M178.583,8.008c-0,-4.42 -3.589,-8.008 -8.008,-8.008l-162.567,-0c-4.42,-0 -8.008,3.588 -8.008,8.008l0,233.433c0,4.419 3.588,8.008 8.008,8.008l162.567,-0c4.419,-0 8.008,-3.589 8.008,-8.008l-0,-233.433Z" style="fill:#fff;"/><path id="path10106-2-3" d="M13.774,55.979c-0,-0 -1.78,-2.552 -4.181,-5.552c-1.606,-2.008 -2.89,-4.182 -3.009,-6.055c-0.137,-2.139 1.159,-4.285 3.505,-4.389c2.345,-0.104 3.297,1.649 3.685,3.095c0.387,-1.446 1.339,-3.199 3.684,-3.095c2.347,0.104 3.643,2.25 3.506,4.389c-0.119,1.873 -1.403,4.047 -3.01,6.055c-2.4,3 -4.18,5.552 -4.18,5.552Z" style="fill:#3f3f3f;fill-rule:nonzero;"/><path id="path10108-3-1" d="M164.809,193.47c0,0 -1.779,2.552 -4.18,5.552c-1.606,2.008 -2.89,4.182 -3.01,6.055c-0.137,2.139 1.16,4.285 3.506,4.389c2.345,0.104 3.297,-1.649 3.684,-3.095c0.388,1.446 1.34,3.199 3.685,3.095c2.346,-0.104 3.643,-2.25 3.506,-4.389c-0.12,-1.873 -1.404,-4.047 -3.01,-6.055c-2.401,-3 -4.181,-5.552 -4.181,-5.552Z" style="fill:#3f3f3f;fill-rule:nonzero;"/><path id="path10110-3-5" d="M89.291,104.24c0,0 -3.733,-6.124 -8.768,-13.325c-3.369,-4.819 -6.062,-10.036 -6.313,-14.53c-0.287,-5.134 2.431,-10.285 7.353,-10.534c4.919,-0.25 6.916,3.958 7.728,7.427c0.813,-3.469 2.81,-7.677 7.728,-7.427c4.922,0.249 7.641,5.4 7.354,10.534c-0.251,4.494 -2.944,9.711 -6.313,14.53c-5.036,7.201 -8.769,13.325 -8.769,13.325Z" style="fill:#3f3f3f;fill-rule:nonzero;"/><path id="path10114-8-3" d="M47.878,64.556c0,-0 -3.733,-6.124 -8.769,-13.325c-3.368,-4.819 -6.062,-10.036 -6.312,-14.531c-0.287,-5.133 2.431,-10.284 7.353,-10.534c4.919,-0.249 6.915,3.959 7.728,7.428c0.813,-3.469 2.81,-7.677 7.728,-7.428c4.922,0.25 7.641,5.401 7.353,10.534c-0.25,4.495 -2.943,9.712 -6.312,14.531c-5.036,7.201 -8.769,13.325 -8.769,13.325Z" style="fill:#3f3f3f;fill-rule:nonzero;"/><path id="path10116-2-5" d="M130.704,143.924c0,0 -3.733,-6.124 -8.768,-13.325c-3.369,-4.818 -6.062,-10.036 -6.313,-14.53c-0.287,-5.134 2.432,-10.284 7.353,-10.534c4.919,-0.249 6.916,3.958 7.728,7.428c0.813,-3.47 2.81,-7.677 7.729,-7.428c4.921,0.25 7.64,5.4 7.353,10.534c-0.251,4.494 -2.944,9.712 -6.313,14.53c-5.035,7.201 -8.769,13.325 -8.769,13.325Z" style="fill:#3f3f3f;fill-rule:nonzero;"/><path id="path10120-6-5" d="M130.704,64.556c0,-0 -3.733,-6.124 -8.768,-13.325c-3.369,-4.819 -6.062,-10.036 -6.313,-14.531c-0.287,-5.133 2.432,-10.284 7.353,-10.534c4.919,-0.249 6.916,3.959 7.728,7.428c0.813,-3.469 2.81,-7.677 7.729,-7.428c4.921,0.25 7.64,5.401 7.353,10.534c-0.251,4.495 -2.944,9.712 -6.313,14.531c-5.035,7.201 -8.769,13.325 -8.769,13.325Z" style="fill:#3f3f3f;fill-rule:nonzero;"/><path id="path10124-1-1" d="M47.878,143.924c0,0 -3.733,-6.124 -8.769,-13.325c-3.368,-4.818 -6.062,-10.036 -6.312,-14.53c-0.287,-5.134 2.431,-10.284 7.353,-10.534c4.919,-0.249 6.915,3.958 7.728,7.428c0.813,-3.47 2.81,-7.677 7.728,-7.428c4.922,0.25 7.641,5.4 7.353,10.534c-0.25,4.494 -2.943,9.712 -6.312,14.53c-5.036,7.201 -8.769,13.325 -8.769,13.325Z" style="fill:#3f3f3f;fill-rule:nonzero;"/><path id="path10134-7-3" d="M130.704,184.893c0,-0 -3.733,6.124 -8.768,13.325c-3.369,4.819 -6.062,10.036 -6.313,14.53c-0.287,5.134 2.432,10.285 7.353,10.534c4.919,0.25 6.916,-3.958 7.728,-7.427c0.813,3.469 2.81,7.677 7.729,7.427c4.921,-0.249 7.64,-5.4 7.353,-10.534c-0.251,-4.494 -2.944,-9.711 -6.313,-14.53c-5.035,-7.201 -8.769,-13.325 -8.769,-13.325Z" style="fill:#3f3f3f;fill-rule:nonzero;"/><path id="path10136-5-7" d="M47.878,184.893c0,-0 -3.733,6.124 -8.769,13.325c-3.368,4.819 -6.062,10.036 -6.312,14.53c-0.287,5.134 2.431,10.285 7.353,10.534c4.919,0.25 6.915,-3.958 7.728,-7.427c0.813,3.469 2.81,7.677 7.728,7.427c4.922,-0.249 7.641,-5.4 7.353,-10.534c-0.25,-4.494 -2.943,-9.711 -6.312,-14.53c-5.036,-7.201 -8.769,-13.325 -8.769,-13.325Z" style="fill:#3f3f3f;fill-rule:nonzero;"/><path id="path25-43-2-3-9" d="M9.715,37.467c1.736,-9.178 3.584,-16.069 8.437,-23.547l-9.864,-0l-0,3.219l-2.619,-0l0,-6.069l14.428,0l1.779,2.85c-5.154,5.626 -9.871,23.813 -9.036,23.547l-3.125,0Z" style="fill:#3f3f3f;fill-rule:nonzero;"/><path id="path25-7-0-2-8-2" d="M168.867,211.982c-1.737,9.178 -3.585,16.069 -8.438,23.547l9.864,0l0,-3.219l2.619,0l-0,6.069l-14.428,-0l-1.779,-2.85c5.154,-5.626 9.871,-23.813 9.036,-23.547l3.126,-0Z" style="fill:#3f3f3f;fill-rule:nonzero;"/></g></svg>