<?xml version="1.0" encoding="UTF-8" standalone="no"?><!DOCTYPE svg PUBLIC "-//W3C//DTD SVG 1.1//EN" "http://www.w3.org/Graphics/SVG/1.1/DTD/svg11.dtd"><svg width="100%" height="100%" viewBox="0 0 179 250" version="1.1" xmlns="http://www.w3.org/2000/svg" xmlns:xlink="http://www.w3.org/1999/xlink" xml:space="preserve" xmlns:serif="http://www.serif.com/" style="fill-rule:evenodd;clip-rule:evenodd;stroke-linejoin:round;stroke-miterlimit:2;"><g id="g8497-6-8"><path id="rect7056-4-2" d="M178.583,8.008c-0,-4.42 -3.589,-8.008 -8.008,-8.008l-162.567,-0c-4.42,-0 -8.008,3.588 -8.008,8.008l0,233.433c0,4.419 3.588,8.008 8.008,8.008l162.567,-0c4.419,-0 8.008,-3.589 8.008,-8.008l-0,-233.433Z" style="fill:#fff;"/><path id="path7086-8-0" d="M47.878,26.156c-7.38,10.526 -15.278,16.583 -15.409,24.795c-0.044,2.659 1.394,7.178 5.897,8.043c2.921,0.559 6.944,-1.806 7.028,-6.61c-0.013,-0.956 1.013,-0.931 1.003,0.379c-0.138,3.79 -1.337,8.202 -3.353,11.793l9.669,-0c-2.016,-3.591 -3.216,-8.003 -3.353,-11.793c-0.01,-1.31 1.016,-1.335 1.003,-0.379c0.084,4.804 4.106,7.169 7.028,6.61c4.503,-0.865 5.941,-5.384 5.897,-8.043c-0.132,-8.212 -8.029,-14.269 -15.41,-24.795Z" style="fill-rule:nonzero;"/><path id="path7088-9-3" d="M13.774,39.979c-3.449,4.385 -7.138,6.909 -7.2,10.331c-0.02,1.108 0.652,2.991 2.756,3.351c1.365,0.233 3.244,-0.752 3.283,-2.754c-0.008,-0.398 0.473,-0.388 0.469,0.158c-0.064,1.579 -0.625,3.417 -1.567,4.914l4.518,-0c-0.942,-1.497 -1.503,-3.335 -1.567,-4.914c-0.008,-0.546 0.475,-0.556 0.469,-0.158c0.039,2.002 1.918,2.987 3.283,2.754c2.104,-0.36 2.776,-2.243 2.755,-3.351c-0.061,-3.422 -3.751,-5.946 -7.199,-10.331Z" style="fill-rule:nonzero;"/><path id="path7092-7-0" d="M164.81,209.47c-3.449,-4.385 -7.139,-6.909 -7.2,-10.331c-0.021,-1.108 0.651,-2.991 2.755,-3.351c1.365,-0.233 3.245,0.752 3.284,2.754c-0.008,0.398 0.473,0.388 0.468,-0.158c-0.064,-1.579 -0.624,-3.417 -1.566,-4.914l4.517,0c-0.942,1.497 -1.502,3.335 -1.566,4.914c-0.008,0.546 0.474,0.556 0.468,0.158c0.039,-2.002 1.919,-2.987 3.284,-2.754c2.104,0.36 2.776,2.243 2.755,3.351c-0.062,3.422 -3.751,5.946 -7.199,10.331Z" style="fill-rule:nonzero;"/><path id="path7094-3-5" d="M130.705,26.156c-7.381,10.526 -15.279,16.583 -15.41,24.795c-0.044,2.659 1.394,7.178 5.897,8.043c2.922,0.559 6.944,-1.806 7.028,-6.61c-0.013,-0.956 1.013,-0.931 1.003,0.379c-0.137,3.79 -1.337,8.202 -3.353,11.793l9.669,-0c-2.016,-3.591 -3.216,-8.003 -3.353,-11.793c-0.01,-1.31 1.016,-1.335 1.003,-0.379c0.084,4.804 4.106,7.169 7.028,6.61c4.503,-0.865 5.941,-5.384 5.897,-8.043c-0.131,-8.212 -8.029,-14.269 -15.409,-24.795Z" style="fill-rule:nonzero;"/><path id="path7098-7-3" d="M89.291,65.84c-7.38,10.526 -15.278,16.583 -15.409,24.795c-0.044,2.659 1.394,7.178 5.897,8.044c2.922,0.558 6.944,-1.806 7.028,-6.61c-0.013,-0.957 1.013,-0.932 1.003,0.379c-0.137,3.789 -1.337,8.201 -3.353,11.792l9.669,0c-2.016,-3.591 -3.216,-8.003 -3.353,-11.792c-0.01,-1.311 1.016,-1.336 1.003,-0.379c0.084,4.804 4.106,7.168 7.028,6.61c4.503,-0.866 5.941,-5.385 5.897,-8.044c-0.131,-8.212 -8.029,-14.269 -15.41,-24.795Z" style="fill-rule:nonzero;"/><path id="path7105-0-7" d="M47.878,105.524c-7.38,10.526 -15.278,16.583 -15.409,24.795c-0.044,2.659 1.394,7.179 5.897,8.044c2.921,0.559 6.944,-1.806 7.028,-6.61c-0.013,-0.957 1.013,-0.932 1.003,0.379c-0.138,3.789 -1.337,8.201 -3.353,11.792l9.669,0c-2.016,-3.591 -3.216,-8.003 -3.353,-11.792c-0.01,-1.311 1.016,-1.336 1.003,-0.379c0.084,4.804 4.106,7.169 7.028,6.61c4.503,-0.865 5.941,-5.385 5.897,-8.044c-0.132,-8.212 -8.029,-14.269 -15.41,-24.795Z" style="fill-rule:nonzero;"/><path id="path7107-6-3" d="M47.878,223.293c-7.38,-10.526 -15.278,-16.583 -15.409,-24.795c-0.044,-2.659 1.394,-7.178 5.897,-8.044c2.921,-0.558 6.944,1.806 7.028,6.61c-0.013,0.957 1.013,0.932 1.003,-0.379c-0.138,-3.789 -1.337,-8.201 -3.353,-11.792l9.669,-0c-2.016,3.591 -3.216,8.003 -3.353,11.792c-0.01,1.311 1.016,1.336 1.003,0.379c0.084,-4.804 4.106,-7.168 7.028,-6.61c4.503,0.866 5.941,5.385 5.897,8.044c-0.132,8.212 -8.029,14.269 -15.41,24.795Z" style="fill-rule:nonzero;"/><path id="path7109-5-0" d="M130.705,223.293c-7.381,-10.526 -15.279,-16.583 -15.41,-24.795c-0.044,-2.659 1.394,-7.178 5.897,-8.044c2.922,-0.558 6.944,1.806 7.028,6.61c-0.013,0.957 1.013,0.932 1.003,-0.379c-0.137,-3.789 -1.337,-8.201 -3.353,-11.792l9.669,-0c-2.016,3.591 -3.216,8.003 -3.353,11.792c-0.01,1.311 1.016,1.336 1.003,0.379c0.084,-4.804 4.106,-7.168 7.028,-6.61c4.503,0.866 5.941,5.385 5.897,8.044c-0.131,8.212 -8.029,14.269 -15.409,24.795Z" style="fill-rule:nonzero;"/><path id="path7119-1-9" d="M130.705,105.524c-7.381,10.526 -15.279,16.583 -15.41,24.795c-0.044,2.659 1.394,7.179 5.897,8.044c2.922,0.559 6.944,-1.806 7.028,-6.61c-0.013,-0.957 1.013,-0.932 1.003,0.379c-0.137,3.789 -1.337,8.201 -3.353,11.792l9.669,0c-2.016,-3.591 -3.216,-8.003 -3.353,-11.792c-0.01,-1.311 1.016,-1.336 1.003,-0.379c0.084,4.804 4.106,7.169 7.028,6.61c4.503,-0.865 5.941,-5.385 5.897,-8.044c-0.131,-8.212 -8.029,-14.269 -15.409,-24.795Z" style="fill-rule:nonzero;"/><path id="path25-4-6-4" d="M9.715,37.467c1.736,-9.178 3.584,-16.069 8.437,-23.548l-9.864,0l0,3.22l-2.619,-0l0,-6.069l14.428,0l1.779,2.849c-5.154,5.627 -9.871,23.814 -9.036,23.548l-3.125,0Z" style="fill-rule:nonzero;"/><path id="path25-4-1-9-1" d="M168.867,211.982c-1.737,9.178 -3.585,16.069 -8.438,23.547l9.864,0l0,-3.219l2.619,0l-0,6.069l-14.428,-0l-1.779,-2.85c5.154,-5.626 9.871,-23.813 9.036,-23.547l3.126,-0Z" style="fill-rule:nonzero;"/></g></svg>