<?xml version="1.0" encoding="UTF-8" standalone="no"?><!DOCTYPE svg PUBLIC "-//W3C//DTD SVG 1.1//EN" "http://www.w3.org/Graphics/SVG/1.1/DTD/svg11.dtd"><svg width="100%" height="100%" viewBox="0 0 179 250" version="1.1" xmlns="http://www.w3.org/2000/svg" xmlns:xlink="http://www.w3.org/1999/xlink" xml:space="preserve" xmlns:serif="http://www.serif.com/" style="fill-rule:evenodd;clip-rule:evenodd;stroke-linejoin:round;stroke-miterlimit:2;"><g id="g6771"><path id="rect6826-9" d="M178.583,8.008c-0,-4.42 -3.589,-8.008 -8.008,-8.008l-162.567,0c-4.42,0 -8.008,3.588 -8.008,8.008l0,233.433c0,4.419 3.588,8.008 8.008,8.008l162.567,-0c4.419,-0 8.008,-3.589 8.008,-8.008l-0,-233.433Z" style="fill:#fff;"/><path id="path6858-4" d="M13.774,55.979c-1.729,-2.855 -3.548,-5.63 -5.82,-8c2.272,-2.371 4.091,-5.145 5.82,-8c1.729,2.855 3.547,5.629 5.82,8c-2.273,2.37 -4.091,5.145 -5.82,8Z" style="fill:#3f3f3f;fill-rule:nonzero;"/><path id="path6860-1" d="M130.705,64.556c-4.149,-6.852 -8.514,-13.511 -13.969,-19.2c5.455,-5.689 9.82,-12.348 13.969,-19.2c4.149,6.852 8.514,13.511 13.968,19.2c-5.454,5.689 -9.819,12.348 -13.968,19.2Z" style="fill:#3f3f3f;fill-rule:nonzero;"/><path id="path6862-0" d="M164.81,209.47c-1.729,-2.855 -3.548,-5.629 -5.821,-8c2.273,-2.37 4.092,-5.145 5.821,-8c1.728,2.855 3.547,5.63 5.82,8c-2.273,2.371 -4.092,5.145 -5.82,8Z" style="fill:#3f3f3f;fill-rule:nonzero;"/><path id="path6864-5" d="M47.878,64.556c-4.149,-6.852 -8.514,-13.511 -13.968,-19.2c5.454,-5.689 9.819,-12.348 13.968,-19.2c4.149,6.852 8.514,13.511 13.969,19.2c-5.455,5.689 -9.82,12.348 -13.969,19.2Z" style="fill:#3f3f3f;fill-rule:nonzero;"/><path id="path6870-5" d="M89.291,104.227c-4.149,-6.852 -8.514,-13.511 -13.968,-19.2c5.454,-5.688 9.819,-12.348 13.968,-19.2c4.149,6.852 8.514,13.512 13.969,19.2c-5.455,5.689 -9.82,12.348 -13.969,19.2Z" style="fill:#3f3f3f;fill-rule:nonzero;"/><path id="path6874-1" d="M47.878,143.899c-4.149,-6.852 -8.514,-13.512 -13.968,-19.2c5.454,-5.689 9.819,-12.349 13.968,-19.2c4.149,6.851 8.514,13.511 13.969,19.2c-5.455,5.688 -9.82,12.348 -13.969,19.2Z" style="fill:#3f3f3f;fill-rule:nonzero;"/><path id="path6876-6" d="M130.705,143.911c-4.149,-6.852 -8.514,-13.511 -13.969,-19.2c5.455,-5.689 9.82,-12.348 13.969,-19.2c4.149,6.852 8.514,13.511 13.968,19.2c-5.454,5.689 -9.819,12.348 -13.968,19.2Z" style="fill:#3f3f3f;fill-rule:nonzero;"/><path id="path6880-5" d="M47.878,223.297c-4.149,-6.852 -8.514,-13.511 -13.968,-19.2c5.454,-5.689 9.819,-12.348 13.968,-19.2c4.149,6.852 8.514,13.511 13.969,19.2c-5.455,5.689 -9.82,12.348 -13.969,19.2Z" style="fill:#3f3f3f;fill-rule:nonzero;"/><path id="path6882-9" d="M130.705,223.303c-4.149,-6.852 -8.514,-13.512 -13.969,-19.2c5.455,-5.689 9.82,-12.349 13.969,-19.2c4.149,6.851 8.514,13.511 13.968,19.2c-5.454,5.688 -9.819,12.348 -13.968,19.2Z" style="fill:#3f3f3f;fill-rule:nonzero;"/><path id="path25-43-4-8-8" d="M9.715,37.467c1.736,-9.178 3.584,-16.069 8.437,-23.547l-9.864,-0l0,3.219l-2.619,-0l0,-6.069l14.428,0l1.779,2.85c-5.154,5.626 -9.871,23.813 -9.036,23.547l-3.125,0Z" style="fill:#3f3f3f;fill-rule:nonzero;"/><path id="path25-7-0-7-6" d="M168.867,211.982c-1.737,9.178 -3.585,16.069 -8.438,23.547l9.864,0l0,-3.219l2.619,0l-0,6.069l-14.428,-0l-1.779,-2.85c5.154,-5.626 9.871,-23.813 9.036,-23.547l3.126,-0Z" style="fill:#3f3f3f;fill-rule:nonzero;"/></g></svg>