<?xml version="1.0" encoding="UTF-8" standalone="no"?><!DOCTYPE svg PUBLIC "-//W3C//DTD SVG 1.1//EN" "http://www.w3.org/Graphics/SVG/1.1/DTD/svg11.dtd"><svg width="100%" height="100%" viewBox="0 0 179 250" version="1.1" xmlns="http://www.w3.org/2000/svg" xmlns:xlink="http://www.w3.org/1999/xlink" xml:space="preserve" xmlns:serif="http://www.serif.com/" style="fill-rule:evenodd;clip-rule:evenodd;stroke-linejoin:round;stroke-miterlimit:2;"><g id="g6785"><path id="rect6894-2" d="M178.583,8.008c-0,-4.42 -3.589,-8.008 -8.008,-8.008l-162.567,0c-4.42,0 -8.008,3.588 -8.008,8.008l0,233.433c0,4.419 3.588,8.008 8.008,8.008l162.567,-0c4.419,-0 8.008,-3.589 8.008,-8.008l-0,-233.433Z" style="fill:#fff;"/><path id="path6926-2" d="M13.774,55.979c-1.729,-2.855 -3.548,-5.63 -5.82,-8c2.272,-2.371 4.091,-5.145 5.82,-8c1.729,2.855 3.547,5.629 5.82,8c-2.273,2.37 -4.091,5.145 -5.82,8Z" style="fill:#3f3f3f;fill-rule:nonzero;"/><path id="path6928-9" d="M130.705,64.556c-4.149,-6.852 -8.514,-13.511 -13.969,-19.2c5.455,-5.689 9.82,-12.348 13.969,-19.2c4.149,6.852 8.514,13.511 13.968,19.2c-5.454,5.689 -9.819,12.348 -13.968,19.2Z" style="fill:#3f3f3f;fill-rule:nonzero;"/><path id="path6930-6" d="M164.81,209.47c-1.729,-2.855 -3.548,-5.629 -5.821,-8c2.273,-2.37 4.092,-5.145 5.821,-8c1.728,2.855 3.547,5.63 5.82,8c-2.273,2.371 -4.092,5.145 -5.82,8Z" style="fill:#3f3f3f;fill-rule:nonzero;"/><path id="path6932-2" d="M47.878,64.556c-4.149,-6.852 -8.514,-13.511 -13.968,-19.2c5.454,-5.689 9.819,-12.348 13.968,-19.2c4.149,6.852 8.514,13.511 13.969,19.2c-5.455,5.689 -9.82,12.348 -13.969,19.2Z" style="fill:#3f3f3f;fill-rule:nonzero;"/><path id="path6938-4" d="M89.291,104.227c-4.149,-6.852 -8.514,-13.511 -13.968,-19.2c5.454,-5.688 9.819,-12.348 13.968,-19.2c4.149,6.852 8.514,13.512 13.969,19.2c-5.455,5.689 -9.82,12.348 -13.969,19.2Z" style="fill:#3f3f3f;fill-rule:nonzero;"/><path id="path6942-4" d="M47.878,143.899c-4.149,-6.852 -8.514,-13.512 -13.968,-19.2c5.454,-5.689 9.819,-12.349 13.968,-19.2c4.149,6.851 8.514,13.511 13.969,19.2c-5.455,5.688 -9.82,12.348 -13.969,19.2Z" style="fill:#3f3f3f;fill-rule:nonzero;"/><path id="path6944-9" d="M130.705,143.911c-4.149,-6.852 -8.514,-13.511 -13.969,-19.2c5.455,-5.689 9.82,-12.348 13.969,-19.2c4.149,6.852 8.514,13.511 13.968,19.2c-5.454,5.689 -9.819,12.348 -13.968,19.2Z" style="fill:#3f3f3f;fill-rule:nonzero;"/><path id="path6948-4" d="M47.878,223.297c-4.149,-6.852 -8.514,-13.511 -13.968,-19.2c5.454,-5.689 9.819,-12.348 13.968,-19.2c4.149,6.852 8.514,13.511 13.969,19.2c-5.455,5.689 -9.82,12.348 -13.969,19.2Z" style="fill:#3f3f3f;fill-rule:nonzero;"/><path id="path6950-4" d="M130.705,223.303c-4.149,-6.852 -8.514,-13.512 -13.969,-19.2c5.455,-5.689 9.82,-12.349 13.969,-19.2c4.149,6.851 8.514,13.511 13.968,19.2c-5.454,5.688 -9.819,12.348 -13.968,19.2Z" style="fill:#3f3f3f;fill-rule:nonzero;"/><path id="path6956-4" d="M89.291,183.598c-4.149,-6.852 -8.514,-13.512 -13.968,-19.2c5.454,-5.689 9.82,-12.348 13.968,-19.2c4.149,6.852 8.514,13.511 13.969,19.2c-5.455,5.688 -9.82,12.348 -13.969,19.2Z" style="fill:#3f3f3f;fill-rule:nonzero;"/><path id="path27-00-7-8-6" d="M5.197,29.737c0.125,-3.544 1.407,-4.873 3.93,-6.727c-2.013,-1.452 -2.861,-3.593 -2.689,-5.414c0.415,-4.412 3.822,-6.617 7.539,-6.523c3.72,0.099 6.922,3.048 7.172,6.253c0.217,2.787 -0.611,4.132 -2.588,5.598c2.346,1.981 3.845,3.282 3.789,6.772c-0.055,3.491 -3.025,7.645 -8.201,7.772c-5.175,0.126 -9.081,-4.187 -8.952,-7.731Zm14.448,0.013c0.221,-3.209 -2.616,-5.373 -5.817,-5.405c-3.118,-0.033 -5.906,2.628 -5.906,5.509c-0,3.093 3.627,4.775 5.97,4.782c2.848,0.013 5.561,-2.123 5.753,-4.886Zm-1.024,-11.479c0.06,-2.699 -2.431,-4.636 -5.002,-4.559c-2.287,0.071 -4.705,1.814 -4.709,4.072c0,2.828 2.752,4.24 5.103,4.294c2.133,0.048 4.559,-1.765 4.608,-3.807Z" style="fill:#3f3f3f;fill-rule:nonzero;"/><path id="path27-0-1-9-8" d="M156.233,219.712c0.125,3.544 1.407,4.873 3.93,6.727c-2.013,1.452 -2.862,3.593 -2.689,5.414c0.415,4.412 3.821,6.617 7.538,6.523c3.721,-0.099 6.922,-3.048 7.172,-6.253c0.217,-2.787 -0.611,-4.132 -2.587,-5.598c2.346,-1.981 3.844,-3.282 3.789,-6.772c-0.055,-3.491 -3.025,-7.645 -8.201,-7.771c-5.176,-0.127 -9.081,4.186 -8.952,7.73Zm14.448,-0.013c0.221,3.209 -2.616,5.373 -5.818,5.405c-3.117,0.033 -5.906,-2.628 -5.906,-5.509c0,-3.093 3.628,-4.775 5.971,-4.782c2.848,-0.013 5.56,2.123 5.753,4.886Zm-1.025,11.479c0.061,2.699 -2.43,4.636 -5.002,4.559c-2.286,-0.071 -4.704,-1.814 -4.708,-4.072c-0,-2.828 2.752,-4.24 5.102,-4.294c2.134,-0.048 4.56,1.765 4.608,3.807Z" style="fill:#3f3f3f;fill-rule:nonzero;"/></g></svg>