<?xml version="1.0" encoding="UTF-8" standalone="no"?><!DOCTYPE svg PUBLIC "-//W3C//DTD SVG 1.1//EN" "http://www.w3.org/Graphics/SVG/1.1/DTD/svg11.dtd"><svg width="100%" height="100%" viewBox="0 0 179 250" version="1.1" xmlns="http://www.w3.org/2000/svg" xmlns:xlink="http://www.w3.org/1999/xlink" xml:space="preserve" xmlns:serif="http://www.serif.com/" style="fill-rule:evenodd;clip-rule:evenodd;stroke-linejoin:round;stroke-miterlimit:2;"><g id="g5495"><path id="rect6355-6-85-3-3-4-3" d="M178.583,7.972c-0,-4.4 -3.573,-7.972 -7.973,-7.972l-162.638,0c-4.4,0 -7.972,3.572 -7.972,7.972l0,233.504c0,4.4 3.572,7.973 7.972,7.973l162.638,-0c4.4,-0 7.973,-3.573 7.973,-7.973l-0,-233.504Z" style="fill:#fff;"/><path id="path147-0-8-1-6-13-2-2-3-8" d="M130.701,26.489c-7.854,0.17 -11.377,9.002 -5.559,15.861c0.843,1 0.93,1.574 -0.615,0.614c-3.916,-2.616 -11.426,-0.897 -11.811,7.1c-0.475,9.853 13.31,12.692 15.898,2.215c0.137,-1.105 1.036,-1.08 0.82,0.489c-0.236,4.259 -1.568,8.239 -3.399,12.121l9.338,-0c-1.83,-3.882 -3.162,-7.862 -3.398,-12.121c-0.217,-1.569 0.683,-1.594 0.819,-0.489c2.589,10.477 16.373,7.638 15.898,-2.215c-0.384,-7.997 -7.894,-9.716 -11.811,-7.1c-1.545,0.96 -1.458,0.386 -0.614,-0.614c5.817,-6.859 2.295,-15.691 -5.559,-15.861c-0,-0 -0,-0 -0.008,-0l0.001,-0Z" style="fill-rule:nonzero;"/><path id="path147-0-8-1-6-75-2-83-9-8-9" d="M47.875,26.489c-7.855,0.17 -11.377,9.002 -5.56,15.861c0.844,1 0.931,1.574 -0.614,0.614c-3.917,-2.616 -11.426,-0.897 -11.811,7.1c-0.475,9.853 13.31,12.692 15.898,2.215c0.137,-1.105 1.036,-1.08 0.819,0.489c-0.236,4.259 -1.567,8.239 -3.398,12.121l9.338,-0c-1.83,-3.882 -3.162,-7.862 -3.398,-12.121c-0.217,-1.569 0.683,-1.594 0.819,-0.489c2.588,10.477 16.373,7.638 15.898,-2.215c-0.384,-7.997 -7.894,-9.716 -11.811,-7.1c-1.545,0.96 -1.458,0.386 -0.614,-0.614c5.817,-6.859 2.295,-15.691 -5.56,-15.861c0,-0 0,-0 -0.008,-0l0.002,-0Z" style="fill-rule:nonzero;"/><path id="path147-0-8-1-6-7-5-5-7-62-3-0" d="M130.701,223.626c-7.854,-0.171 -11.377,-9.003 -5.559,-15.862c0.843,-1 0.93,-1.574 -0.615,-0.613c-3.916,2.615 -11.426,0.896 -11.811,-7.101c-0.475,-9.853 13.31,-12.692 15.898,-2.215c0.137,1.106 1.036,1.081 0.82,-0.489c-0.236,-4.258 -1.568,-8.239 -3.399,-12.12l9.338,-0c-1.83,3.881 -3.162,7.862 -3.398,12.12c-0.217,1.57 0.683,1.595 0.819,0.489c2.589,-10.477 16.373,-7.638 15.898,2.215c-0.384,7.997 -7.894,9.716 -11.811,7.101c-1.545,-0.961 -1.458,-0.387 -0.614,0.613c5.817,6.859 2.295,15.691 -5.559,15.862c-0,-0 -0,-0 -0.008,-0l0.001,-0Z" style="fill-rule:nonzero;"/><path id="path147-0-8-1-6-75-6-1-2-41-4-5" d="M47.875,223.626c-7.855,-0.171 -11.377,-9.003 -5.56,-15.862c0.844,-1 0.931,-1.574 -0.614,-0.613c-3.917,2.615 -11.426,0.896 -11.811,-7.101c-0.475,-9.853 13.31,-12.692 15.898,-2.215c0.137,1.106 1.036,1.081 0.819,-0.489c-0.236,-4.258 -1.567,-8.239 -3.398,-12.12l9.338,-0c-1.83,3.881 -3.162,7.862 -3.398,12.12c-0.217,1.57 0.683,1.595 0.819,0.489c2.588,-10.477 16.373,-7.638 15.898,2.215c-0.384,7.997 -7.894,9.716 -11.811,7.101c-1.545,-0.961 -1.458,-0.387 -0.614,0.613c5.817,6.859 2.295,15.691 -5.56,15.862c0,-0 0,-0 -0.008,-0l0.002,-0Z" style="fill-rule:nonzero;"/><path id="path147-0-8-1-6-2-00-7-5-5-3" d="M89.288,66.173c-7.854,0.17 -11.376,9.003 -5.559,15.861c0.843,1.001 0.93,1.575 -0.615,0.614c-3.916,-2.616 -11.426,-0.896 -11.811,7.1c-0.475,9.854 13.31,12.692 15.898,2.215c0.137,-1.105 1.036,-1.08 0.82,0.489c-0.236,4.259 -1.568,8.239 -3.399,12.121l9.338,-0c-1.83,-3.882 -3.162,-7.862 -3.398,-12.121c-0.217,-1.569 0.683,-1.594 0.819,-0.489c2.589,10.477 16.373,7.639 15.898,-2.215c-0.384,-7.996 -7.894,-9.716 -11.811,-7.1c-1.545,0.961 -1.458,0.387 -0.614,-0.614c5.817,-6.858 2.295,-15.691 -5.559,-15.861c-0,-0 -0,0 -0.008,0l0.001,0Z" style="fill-rule:nonzero;"/><path id="path147-0-8-1-6-7-5-7-3-0-4-4-6" d="M130.701,105.857c-7.854,0.17 -11.377,9.003 -5.559,15.861c0.843,1.001 0.93,1.575 -0.615,0.614c-3.916,-2.616 -11.426,-0.896 -11.811,7.101c-0.475,9.853 13.31,12.692 15.898,2.214c0.137,-1.105 1.036,-1.08 0.82,0.489c-0.236,4.259 -1.568,8.24 -3.399,12.121l9.338,0c-1.83,-3.881 -3.162,-7.862 -3.398,-12.121c-0.217,-1.569 0.683,-1.594 0.819,-0.489c2.589,10.478 16.373,7.639 15.898,-2.214c-0.384,-7.997 -7.894,-9.717 -11.811,-7.101c-1.545,0.961 -1.458,0.387 -0.614,-0.614c5.817,-6.858 2.295,-15.691 -5.559,-15.861c-0,0 -0,0 -0.008,0l0.001,0Z" style="fill-rule:nonzero;"/><path id="path147-0-8-1-6-75-6-6-5-3-2-4-8" d="M47.875,105.857c-7.855,0.17 -11.377,9.003 -5.56,15.861c0.844,1.001 0.931,1.575 -0.614,0.614c-3.917,-2.616 -11.426,-0.896 -11.811,7.101c-0.475,9.853 13.31,12.692 15.898,2.214c0.137,-1.105 1.036,-1.08 0.819,0.489c-0.236,4.259 -1.567,8.24 -3.398,12.121l9.338,0c-1.83,-3.881 -3.162,-7.862 -3.398,-12.121c-0.217,-1.569 0.683,-1.594 0.819,-0.489c2.588,10.478 16.373,7.639 15.898,-2.214c-0.384,-7.997 -7.894,-9.717 -11.811,-7.101c-1.545,0.961 -1.458,0.387 -0.614,-0.614c5.817,-6.858 2.295,-15.691 -5.56,-15.861c0,0 0,0 -0.008,0l0.002,0Z" style="fill-rule:nonzero;"/><path id="path147-0-8-1-6-2-0-8-6-42-9-6" d="M89.288,183.941c-7.854,-0.17 -11.376,-9.002 -5.559,-15.861c0.843,-1 0.93,-1.575 -0.615,-0.614c-3.916,2.616 -11.426,0.897 -11.811,-7.1c-0.475,-9.853 13.31,-12.692 15.898,-2.215c0.137,1.105 1.036,1.08 0.82,-0.489c-0.236,-4.259 -1.568,-8.239 -3.398,-12.121l9.337,0c-1.83,3.882 -3.162,7.862 -3.398,12.121c-0.217,1.569 0.683,1.594 0.819,0.489c2.589,-10.477 16.373,-7.638 15.898,2.215c-0.384,7.997 -7.894,9.716 -11.811,7.1c-1.545,-0.961 -1.458,-0.386 -0.614,0.614c5.817,6.859 2.295,15.691 -5.559,15.861c-0,0 -0,0 -0.008,0l0.001,0Z" style="fill-rule:nonzero;"/><path id="path147-6-9-8-7-0-5-6-1-6-9" d="M164.811,209.47c3.142,-0.071 4.55,-3.751 2.224,-6.609c-0.338,-0.416 -0.373,-0.656 0.245,-0.255c1.567,1.09 4.571,0.373 4.725,-2.959c0.19,-4.105 -5.324,-5.288 -6.359,-0.923c-0.055,0.461 -0.415,0.45 -0.328,-0.203c0.094,-1.775 0.627,-3.433 1.359,-5.051l-3.735,0c0.732,1.618 1.265,3.276 1.359,5.051c0.087,0.653 -0.273,0.664 -0.327,0.203c-1.036,-4.365 -6.55,-3.182 -6.36,0.923c0.154,3.332 3.158,4.049 4.725,2.959c0.618,-0.401 0.583,-0.161 0.246,0.255c-2.327,2.858 -0.918,6.538 2.223,6.609c0,0 0,0 0,0l0.003,0Z" style="fill-rule:nonzero;"/><path id="path147-6-9-8-7-4-5-62-4-0-0" d="M13.773,39.979c-3.142,0.07 -4.551,3.751 -2.224,6.609c0.337,0.416 0.372,0.656 -0.246,0.255c-1.567,-1.09 -4.57,-0.373 -4.724,2.959c-0.19,4.105 5.324,5.288 6.359,0.923c0.055,-0.461 0.414,-0.45 0.328,0.203c-0.095,1.775 -0.627,3.433 -1.36,5.051l3.735,-0c-0.732,-1.618 -1.264,-3.276 -1.359,-5.051c-0.087,-0.653 0.273,-0.664 0.328,-0.203c1.035,4.365 6.549,3.182 6.359,-0.923c-0.154,-3.332 -3.158,-4.049 -4.724,-2.959c-0.618,0.401 -0.584,0.161 -0.246,-0.255c2.327,-2.858 0.918,-6.538 -2.224,-6.609l-0.002,-0Z" style="fill-rule:nonzero;"/><path id="path27-3-3-2" d="M5.197,29.737c0.125,-3.544 1.407,-4.873 3.93,-6.727c-2.013,-1.452 -2.861,-3.593 -2.689,-5.414c0.415,-4.412 3.821,-6.617 7.539,-6.523c3.72,0.099 6.922,3.048 7.172,6.253c0.217,2.787 -0.611,4.132 -2.588,5.598c2.346,1.981 3.845,3.282 3.789,6.772c-0.055,3.491 -3.025,7.645 -8.201,7.772c-5.175,0.126 -9.081,-4.187 -8.952,-7.731Zm14.448,0.013c0.221,-3.209 -2.616,-5.373 -5.818,-5.404c-3.117,-0.034 -5.905,2.627 -5.905,5.508c-0,3.093 3.627,4.775 5.97,4.782c2.848,0.013 5.561,-2.123 5.753,-4.886Zm-1.024,-11.478c0.061,-2.7 -2.431,-4.637 -5.002,-4.56c-2.287,0.07 -4.705,1.814 -4.709,4.072c0,2.828 2.752,4.24 5.103,4.295c2.133,0.048 4.559,-1.766 4.608,-3.807Z" style="fill-rule:nonzero;"/><path id="path27-0-0-5-0" d="M156.233,219.712c0.125,3.544 1.407,4.873 3.93,6.728c-2.013,1.451 -2.862,3.592 -2.689,5.414c0.415,4.411 3.821,6.616 7.538,6.522c3.721,-0.099 6.922,-3.048 7.172,-6.253c0.217,-2.787 -0.611,-4.132 -2.587,-5.598c2.346,-1.981 3.844,-3.282 3.789,-6.772c-0.056,-3.491 -3.025,-7.645 -8.201,-7.771c-5.176,-0.127 -9.081,4.186 -8.952,7.73Zm14.448,-0.013c0.221,3.209 -2.616,5.373 -5.818,5.405c-3.117,0.033 -5.906,-2.628 -5.906,-5.509c0,-3.093 3.628,-4.775 5.971,-4.782c2.848,-0.013 5.56,2.124 5.753,4.886Zm-1.025,11.479c0.061,2.699 -2.43,4.636 -5.002,4.559c-2.286,-0.071 -4.704,-1.814 -4.708,-4.072c-0,-2.828 2.752,-4.24 5.102,-4.294c2.133,-0.048 4.56,1.765 4.608,3.807Z" style="fill-rule:nonzero;"/></g></svg>