<?xml version="1.0" encoding="UTF-8" standalone="no"?><!DOCTYPE svg PUBLIC "-//W3C//DTD SVG 1.1//EN" "http://www.w3.org/Graphics/SVG/1.1/DTD/svg11.dtd"><svg width="100%" height="100%" viewBox="0 0 179 250" version="1.1" xmlns="http://www.w3.org/2000/svg" xmlns:xlink="http://www.w3.org/1999/xlink" xml:space="preserve" xmlns:serif="http://www.serif.com/" style="fill-rule:evenodd;clip-rule:evenodd;stroke-linejoin:round;stroke-miterlimit:2;"><g id="g8511-1-4"><path id="rect7125-2-7" d="M178.583,8.008c-0,-4.42 -3.589,-8.008 -8.008,-8.008l-162.567,-0c-4.42,-0 -8.008,3.588 -8.008,8.008l0,233.433c0,4.419 3.588,8.008 8.008,8.008l162.567,-0c4.419,-0 8.008,-3.589 8.008,-8.008l-0,-233.433Z" style="fill:#fff;"/><path id="path7155-4-0" d="M47.878,26.156c-7.381,10.526 -15.278,16.583 -15.409,24.795c-0.044,2.659 1.393,7.178 5.897,8.043c2.921,0.559 6.944,-1.806 7.028,-6.61c-0.013,-0.956 1.012,-0.931 1.003,0.379c-0.138,3.79 -1.337,8.202 -3.353,11.793l9.669,-0c-2.016,-3.591 -3.216,-8.003 -3.354,-11.793c-0.009,-1.31 1.016,-1.335 1.004,-0.379c0.084,4.804 4.106,7.169 7.028,6.61c4.503,-0.865 5.941,-5.384 5.897,-8.043c-0.132,-8.212 -8.029,-14.269 -15.41,-24.795Z" style="fill-rule:nonzero;"/><path id="path7157-2-9" d="M13.774,39.979c-3.449,4.385 -7.138,6.909 -7.2,10.331c-0.021,1.108 0.651,2.991 2.755,3.351c1.365,0.233 3.245,-0.752 3.284,-2.754c-0.008,-0.398 0.473,-0.388 0.469,0.158c-0.064,1.579 -0.625,3.417 -1.567,4.914l4.517,-0c-0.941,-1.497 -1.502,-3.335 -1.566,-4.914c-0.008,-0.546 0.474,-0.556 0.468,-0.158c0.04,2.002 1.919,2.987 3.284,2.754c2.104,-0.36 2.776,-2.243 2.755,-3.351c-0.061,-3.422 -3.751,-5.946 -7.199,-10.331Z" style="fill-rule:nonzero;"/><path id="path7162-7-0" d="M164.809,209.47c-3.448,-4.385 -7.138,-6.909 -7.199,-10.331c-0.021,-1.108 0.651,-2.991 2.755,-3.351c1.365,-0.233 3.244,0.752 3.284,2.754c-0.008,0.398 0.473,0.388 0.468,-0.158c-0.064,-1.579 -0.624,-3.417 -1.566,-4.914l4.517,0c-0.942,1.497 -1.502,3.335 -1.567,4.914c-0.008,0.546 0.475,0.556 0.469,0.158c0.039,-2.002 1.919,-2.987 3.284,-2.754c2.104,0.36 2.775,2.243 2.755,3.351c-0.062,3.422 -3.751,5.946 -7.2,10.331Z" style="fill-rule:nonzero;"/><path id="path7164-8-3" d="M130.704,26.156c-7.38,10.526 -15.278,16.583 -15.409,24.795c-0.044,2.659 1.394,7.178 5.897,8.043c2.922,0.559 6.944,-1.806 7.028,-6.61c-0.013,-0.956 1.013,-0.931 1.003,0.379c-0.137,3.79 -1.337,8.202 -3.353,11.793l9.669,-0c-2.016,-3.591 -3.216,-8.003 -3.353,-11.793c-0.01,-1.31 1.016,-1.335 1.003,-0.379c0.084,4.804 4.106,7.169 7.028,6.61c4.503,-0.865 5.941,-5.384 5.897,-8.043c-0.131,-8.212 -8.029,-14.269 -15.41,-24.795Z" style="fill-rule:nonzero;"/><path id="path7168-3-2" d="M89.291,65.84c-7.381,10.526 -15.278,16.583 -15.409,24.795c-0.044,2.659 1.394,7.178 5.897,8.044c2.921,0.558 6.944,-1.806 7.028,-6.61c-0.013,-0.957 1.013,-0.932 1.003,0.379c-0.138,3.789 -1.337,8.201 -3.353,11.792l9.669,0c-2.016,-3.591 -3.216,-8.003 -3.353,-11.792c-0.01,-1.311 1.015,-1.336 1.003,-0.379c0.084,4.804 4.106,7.168 7.028,6.61c4.503,-0.866 5.941,-5.385 5.897,-8.044c-0.132,-8.212 -8.029,-14.269 -15.41,-24.795Z" style="fill-rule:nonzero;"/><path id="path7174-5-0" d="M47.878,105.524c-7.381,10.526 -15.278,16.583 -15.409,24.795c-0.044,2.659 1.393,7.179 5.897,8.044c2.921,0.559 6.944,-1.806 7.028,-6.61c-0.013,-0.957 1.012,-0.932 1.003,0.379c-0.138,3.789 -1.337,8.201 -3.353,11.792l9.669,0c-2.016,-3.591 -3.216,-8.003 -3.354,-11.792c-0.009,-1.311 1.016,-1.336 1.004,-0.379c0.084,4.804 4.106,7.169 7.028,6.61c4.503,-0.865 5.941,-5.385 5.897,-8.044c-0.132,-8.212 -8.029,-14.269 -15.41,-24.795Z" style="fill-rule:nonzero;"/><path id="path7176-7-0" d="M47.878,223.293c-7.381,-10.526 -15.278,-16.583 -15.409,-24.795c-0.044,-2.659 1.393,-7.178 5.897,-8.044c2.921,-0.558 6.944,1.806 7.028,6.61c-0.013,0.957 1.012,0.932 1.003,-0.379c-0.138,-3.789 -1.337,-8.201 -3.353,-11.792l9.669,-0c-2.016,3.591 -3.216,8.003 -3.354,11.792c-0.009,1.311 1.016,1.336 1.004,0.379c0.084,-4.804 4.106,-7.168 7.028,-6.61c4.503,0.866 5.941,5.385 5.897,8.044c-0.132,8.212 -8.029,14.269 -15.41,24.795Z" style="fill-rule:nonzero;"/><path id="path7178-9-4" d="M130.704,223.293c-7.38,-10.526 -15.278,-16.583 -15.409,-24.795c-0.044,-2.659 1.394,-7.178 5.897,-8.044c2.922,-0.558 6.944,1.806 7.028,6.61c-0.013,0.957 1.013,0.932 1.003,-0.379c-0.137,-3.789 -1.337,-8.201 -3.353,-11.792l9.669,-0c-2.016,3.591 -3.216,8.003 -3.353,11.792c-0.01,1.311 1.016,1.336 1.003,0.379c0.084,-4.804 4.106,-7.168 7.028,-6.61c4.503,0.866 5.941,5.385 5.897,8.044c-0.131,8.212 -8.029,14.269 -15.41,24.795Z" style="fill-rule:nonzero;"/><path id="path7180-5-1" d="M89.291,183.609c-7.381,-10.526 -15.278,-16.583 -15.409,-24.795c-0.044,-2.659 1.394,-7.179 5.897,-8.044c2.921,-0.558 6.944,1.806 7.028,6.61c-0.013,0.957 1.013,0.932 1.003,-0.379c-0.138,-3.789 -1.337,-8.201 -3.353,-11.792l9.669,-0c-2.016,3.591 -3.216,8.003 -3.353,11.792c-0.01,1.311 1.015,1.336 1.003,0.379c0.084,-4.804 4.106,-7.168 7.028,-6.61c4.503,0.865 5.941,5.385 5.897,8.044c-0.132,8.212 -8.029,14.269 -15.41,24.795Z" style="fill-rule:nonzero;"/><path id="path7189-7-7" d="M130.704,105.524c-7.38,10.526 -15.278,16.583 -15.409,24.795c-0.044,2.659 1.394,7.179 5.897,8.044c2.922,0.559 6.944,-1.806 7.028,-6.61c-0.013,-0.957 1.013,-0.932 1.003,0.379c-0.137,3.789 -1.337,8.201 -3.353,11.792l9.669,0c-2.016,-3.591 -3.216,-8.003 -3.353,-11.792c-0.01,-1.311 1.016,-1.336 1.003,-0.379c0.084,4.804 4.106,7.169 7.028,6.61c4.503,-0.865 5.941,-5.385 5.897,-8.044c-0.131,-8.212 -8.029,-14.269 -15.41,-24.795Z" style="fill-rule:nonzero;"/><path id="path27-43-30-7" d="M5.197,29.737c0.125,-3.544 1.407,-4.873 3.93,-6.728c-2.013,-1.452 -2.861,-3.592 -2.689,-5.414c0.415,-4.411 3.821,-6.616 7.539,-6.522c3.72,0.099 6.922,3.048 7.172,6.253c0.217,2.787 -0.611,4.132 -2.588,5.598c2.346,1.981 3.844,3.282 3.789,6.772c-0.055,3.491 -3.025,7.645 -8.201,7.771c-5.175,0.127 -9.081,-4.186 -8.952,-7.73Zm14.448,0.013c0.221,-3.209 -2.616,-5.373 -5.818,-5.405c-3.117,-0.033 -5.906,2.628 -5.906,5.509c0,3.093 3.628,4.775 5.971,4.782c2.848,0.013 5.56,-2.123 5.753,-4.886Zm-1.025,-11.479c0.061,-2.699 -2.43,-4.636 -5.001,-4.559c-2.287,0.071 -4.705,1.814 -4.709,4.072c-0,2.828 2.752,4.24 5.103,4.294c2.133,0.048 4.559,-1.765 4.607,-3.807Z" style="fill-rule:nonzero;"/><path id="path27-43-3-4-8" d="M156.232,219.712c0.126,3.544 1.408,4.873 3.931,6.727c-2.013,1.452 -2.862,3.593 -2.689,5.414c0.414,4.412 3.821,6.617 7.538,6.523c3.72,-0.099 6.922,-3.048 7.172,-6.253c0.217,-2.787 -0.611,-4.132 -2.588,-5.598c2.347,-1.981 3.845,-3.282 3.79,-6.772c-0.056,-3.491 -3.025,-7.645 -8.201,-7.772c-5.176,-0.126 -9.081,4.187 -8.952,7.731l-0.001,-0Zm14.448,-0.013c0.222,3.209 -2.615,5.373 -5.817,5.404c-3.118,0.034 -5.906,-2.627 -5.906,-5.508c-0,-3.093 3.628,-4.775 5.971,-4.782c2.848,-0.013 5.56,2.123 5.753,4.886l-0.001,-0Zm-1.024,11.478c0.061,2.7 -2.431,4.637 -5.002,4.56c-2.286,-0.071 -4.704,-1.814 -4.709,-4.072c0,-2.828 2.753,-4.24 5.103,-4.294c2.133,-0.048 4.56,1.765 4.608,3.806Z" style="fill-rule:nonzero;"/></g></svg>