<?xml version="1.0" encoding="UTF-8" standalone="no"?><!DOCTYPE svg PUBLIC "-//W3C//DTD SVG 1.1//EN" "http://www.w3.org/Graphics/SVG/1.1/DTD/svg11.dtd"><svg width="100%" height="100%" viewBox="0 0 179 250" version="1.1" xmlns="http://www.w3.org/2000/svg" xmlns:xlink="http://www.w3.org/1999/xlink" xml:space="preserve" xmlns:serif="http://www.serif.com/" style="fill-rule:evenodd;clip-rule:evenodd;stroke-linejoin:round;stroke-miterlimit:2;"><g id="g11195-3-7"><g id="_5D" serif:id="5D"><path id="rect10142-4-2" d="M178.583,8.008c-0,-4.42 -3.589,-8.008 -8.008,-8.008l-162.567,0c-4.42,0 -8.008,3.588 -8.008,8.008l-0,233.433c-0,4.419 3.588,8.008 8.008,8.008l162.567,-0c4.419,-0 8.008,-3.589 8.008,-8.008l-0,-233.433Z" style="fill:#fff;"/></g><path id="path10174-9-0" d="M13.774,55.979c-0,-0 -1.78,-2.552 -4.181,-5.552c-1.606,-2.008 -2.89,-4.182 -3.009,-6.055c-0.137,-2.139 1.159,-4.285 3.505,-4.389c2.345,-0.104 3.297,1.649 3.685,3.095c0.387,-1.446 1.339,-3.199 3.684,-3.095c2.347,0.104 3.643,2.25 3.506,4.389c-0.119,1.873 -1.403,4.047 -3.01,6.055c-2.4,3 -4.18,5.552 -4.18,5.552Z" style="fill:#3f3f3f;fill-rule:nonzero;"/><path id="path10176-9-9" d="M164.809,193.47c0,0.003 -1.779,2.552 -4.18,5.552c-1.606,2.008 -2.89,4.182 -3.01,6.055c-0.137,2.139 1.159,4.285 3.506,4.389c2.345,0.104 3.297,-1.649 3.684,-3.095c0.388,1.446 1.34,3.199 3.685,3.095c2.346,-0.104 3.643,-2.25 3.506,-4.389c-0.12,-1.873 -1.404,-4.047 -3.01,-6.055c-2.401,-3 -4.179,-5.55 -4.181,-5.552Z" style="fill:#3f3f3f;fill-rule:nonzero;"/><path id="path10178-8-4" d="M89.291,104.24c0,0 -3.733,-6.124 -8.768,-13.325c-3.369,-4.819 -6.063,-10.036 -6.313,-14.53c-0.287,-5.134 2.431,-10.285 7.353,-10.534c4.919,-0.25 6.916,3.958 7.728,7.427c0.813,-3.469 2.81,-7.677 7.728,-7.427c4.922,0.249 7.641,5.4 7.354,10.534c-0.251,4.494 -2.944,9.711 -6.313,14.53c-5.036,7.201 -8.769,13.325 -8.769,13.325Z" style="fill:#3f3f3f;fill-rule:nonzero;"/><path id="path10182-1-9" d="M47.878,64.556c0,-0 -3.733,-6.124 -8.769,-13.325c-3.368,-4.819 -6.062,-10.036 -6.312,-14.531c-0.287,-5.133 2.431,-10.284 7.353,-10.534c4.919,-0.249 6.915,3.959 7.728,7.428c0.813,-3.469 2.81,-7.677 7.728,-7.428c4.922,0.25 7.641,5.401 7.353,10.534c-0.25,4.495 -2.943,9.712 -6.312,14.531c-5.036,7.201 -8.769,13.325 -8.769,13.325Z" style="fill:#3f3f3f;fill-rule:nonzero;"/><path id="path10184-9-1" d="M130.704,143.924c0,0 -3.733,-6.124 -8.768,-13.325c-3.369,-4.818 -6.062,-10.036 -6.313,-14.53c-0.287,-5.134 2.432,-10.284 7.353,-10.534c4.919,-0.249 6.916,3.958 7.728,7.428c0.813,-3.47 2.81,-7.677 7.729,-7.428c4.921,0.25 7.64,5.4 7.353,10.534c-0.251,4.494 -2.944,9.712 -6.313,14.53c-5.035,7.201 -8.769,13.325 -8.769,13.325Z" style="fill:#3f3f3f;fill-rule:nonzero;"/><path id="path10188-5-4" d="M130.704,64.556c0,-0 -3.733,-6.124 -8.768,-13.325c-3.369,-4.819 -6.062,-10.036 -6.313,-14.531c-0.287,-5.133 2.432,-10.284 7.353,-10.534c4.919,-0.249 6.916,3.959 7.728,7.428c0.813,-3.469 2.81,-7.677 7.729,-7.428c4.921,0.25 7.64,5.401 7.353,10.534c-0.251,4.495 -2.944,9.712 -6.313,14.531c-5.035,7.201 -8.769,13.325 -8.769,13.325Z" style="fill:#3f3f3f;fill-rule:nonzero;"/><path id="path10192-3-6" d="M47.878,143.924c0,0 -3.733,-6.124 -8.769,-13.325c-3.368,-4.818 -6.062,-10.036 -6.312,-14.53c-0.287,-5.134 2.431,-10.284 7.353,-10.534c4.919,-0.249 6.915,3.958 7.728,7.428c0.813,-3.47 2.81,-7.677 7.728,-7.428c4.922,0.25 7.641,5.4 7.353,10.534c-0.25,4.494 -2.943,9.712 -6.312,14.53c-5.036,7.201 -8.769,13.325 -8.769,13.325Z" style="fill:#3f3f3f;fill-rule:nonzero;"/><path id="path10196-7-3" d="M89.291,145.209c0,-0 -3.733,6.124 -8.768,13.325c-3.369,4.818 -6.063,10.036 -6.313,14.53c-0.287,5.134 2.431,10.284 7.353,10.534c4.919,0.25 6.916,-3.958 7.728,-7.428c0.813,3.47 2.81,7.678 7.729,7.428c4.921,-0.25 7.64,-5.4 7.353,-10.534c-0.251,-4.494 -2.944,-9.712 -6.313,-14.53c-5.036,-7.201 -8.769,-13.325 -8.769,-13.325Z" style="fill:#3f3f3f;fill-rule:nonzero;"/><path id="path10202-2-8" d="M130.704,184.893c0,-0 -3.733,6.124 -8.768,13.325c-3.369,4.819 -6.062,10.036 -6.313,14.53c-0.287,5.134 2.432,10.285 7.353,10.534c4.919,0.25 6.916,-3.958 7.728,-7.427c0.813,3.469 2.81,7.677 7.729,7.427c4.921,-0.249 7.64,-5.4 7.353,-10.534c-0.251,-4.494 -2.944,-9.711 -6.313,-14.53c-5.035,-7.201 -8.769,-13.325 -8.769,-13.325Z" style="fill:#3f3f3f;fill-rule:nonzero;"/><path id="path10204-9-4" d="M47.878,184.893c0,-0 -3.733,6.124 -8.769,13.325c-3.368,4.819 -6.062,10.036 -6.312,14.53c-0.287,5.134 2.431,10.285 7.353,10.534c4.919,0.25 6.915,-3.958 7.728,-7.427c0.813,3.469 2.81,7.677 7.728,7.427c4.922,-0.249 7.641,-5.4 7.353,-10.534c-0.25,-4.494 -2.943,-9.711 -6.312,-14.53c-5.036,-7.201 -8.769,-13.325 -8.769,-13.325Z" style="fill:#3f3f3f;fill-rule:nonzero;"/><path id="path27-00-0-7-4" d="M5.197,29.737c0.125,-3.544 1.407,-4.873 3.93,-6.727c-2.013,-1.452 -2.861,-3.593 -2.689,-5.414c0.415,-4.412 3.821,-6.617 7.539,-6.523c3.72,0.099 6.922,3.048 7.172,6.253c0.217,2.787 -0.611,4.132 -2.588,5.598c2.346,1.981 3.844,3.282 3.789,6.772c-0.055,3.491 -3.025,7.645 -8.201,7.772c-5.175,0.126 -9.081,-4.187 -8.952,-7.731Zm14.448,0.013c0.221,-3.209 -2.616,-5.373 -5.818,-5.405c-3.117,-0.033 -5.906,2.628 -5.906,5.509c0,3.093 3.628,4.775 5.971,4.782c2.848,0.013 5.561,-2.123 5.753,-4.886Zm-1.025,-11.479c0.061,-2.699 -2.43,-4.636 -5.001,-4.559c-2.287,0.071 -4.705,1.814 -4.709,4.072c-0,2.828 2.752,4.24 5.103,4.294c2.133,0.048 4.559,-1.765 4.607,-3.807Z" style="fill:#3f3f3f;fill-rule:nonzero;"/><path id="path27-0-1-0-8-9" d="M156.233,219.712c0.125,3.544 1.407,4.873 3.93,6.727c-2.013,1.452 -2.862,3.593 -2.689,5.414c0.414,4.412 3.821,6.617 7.538,6.523c3.72,-0.099 6.922,-3.048 7.172,-6.253c0.217,-2.787 -0.611,-4.132 -2.588,-5.598c2.347,-1.981 3.845,-3.282 3.79,-6.772c-0.056,-3.491 -3.025,-7.645 -8.201,-7.772c-5.176,-0.126 -9.081,4.187 -8.952,7.731Zm14.448,-0.013c0.221,3.209 -2.616,5.373 -5.818,5.405c-3.117,0.033 -5.906,-2.628 -5.906,-5.509c0,-3.093 3.628,-4.775 5.971,-4.782c2.848,-0.013 5.56,2.123 5.753,4.886Zm-1.025,11.479c0.061,2.699 -2.43,4.636 -5.002,4.559c-2.286,-0.071 -4.704,-1.814 -4.708,-4.072c-0,-2.828 2.752,-4.24 5.102,-4.294c2.133,-0.048 4.56,1.765 4.608,3.807Z" style="fill:#3f3f3f;fill-rule:nonzero;"/></g></svg>