<?xml version="1.0" encoding="UTF-8" standalone="no"?><!DOCTYPE svg PUBLIC "-//W3C//DTD SVG 1.1//EN" "http://www.w3.org/Graphics/SVG/1.1/DTD/svg11.dtd"><svg width="100%" height="100%" viewBox="0 0 179 250" version="1.1" xmlns="http://www.w3.org/2000/svg" xmlns:xlink="http://www.w3.org/1999/xlink" xml:space="preserve" xmlns:serif="http://www.serif.com/" style="fill-rule:evenodd;clip-rule:evenodd;stroke-linejoin:round;stroke-miterlimit:2;"><g id="g5510"><path id="rect6355-6-85-3-78-4-6" d="M178.583,7.972c-0,-4.4 -3.573,-7.972 -7.973,-7.972l-162.638,0c-4.4,0 -7.972,3.572 -7.972,7.972l0,233.504c0,4.4 3.572,7.973 7.972,7.973l162.638,-0c4.4,-0 7.973,-3.573 7.973,-7.973l-0,-233.504Z" style="fill:#fff;"/><path id="path147-0-8-1-6-13-2-9-8-8" d="M130.701,26.489c-7.854,0.17 -11.377,9.002 -5.559,15.861c0.843,1 0.93,1.574 -0.615,0.614c-3.916,-2.616 -11.426,-0.897 -11.811,7.1c-0.475,9.853 13.31,12.692 15.898,2.215c0.137,-1.105 1.036,-1.08 0.82,0.489c-0.236,4.259 -1.568,8.239 -3.399,12.121l9.338,-0c-1.83,-3.882 -3.162,-7.862 -3.398,-12.121c-0.217,-1.569 0.683,-1.594 0.819,-0.489c2.589,10.477 16.373,7.638 15.898,-2.215c-0.384,-7.997 -7.894,-9.716 -11.811,-7.1c-1.545,0.96 -1.458,0.386 -0.614,-0.614c5.817,-6.859 2.295,-15.691 -5.559,-15.861c-0,-0 -0,-0 -0.008,-0l0.001,-0Z" style="fill-rule:nonzero;"/><path id="path147-0-8-1-6-75-2-83-3-5-0" d="M47.875,26.489c-7.855,0.17 -11.377,9.002 -5.56,15.861c0.844,1 0.931,1.574 -0.614,0.614c-3.917,-2.616 -11.426,-0.897 -11.811,7.1c-0.475,9.853 13.31,12.692 15.898,2.215c0.137,-1.105 1.036,-1.08 0.819,0.489c-0.236,4.259 -1.567,8.239 -3.398,12.121l9.338,-0c-1.83,-3.882 -3.162,-7.862 -3.398,-12.121c-0.217,-1.569 0.683,-1.594 0.819,-0.489c2.588,10.477 16.373,7.638 15.898,-2.215c-0.384,-7.997 -7.894,-9.716 -11.811,-7.1c-1.545,0.96 -1.458,0.386 -0.614,-0.614c5.817,-6.859 2.295,-15.691 -5.56,-15.861c0,-0 0,-0 -0.008,-0l0.002,-0Z" style="fill-rule:nonzero;"/><path id="path147-0-8-1-6-7-5-5-7-63-0-4" d="M130.701,223.626c-7.854,-0.171 -11.377,-9.003 -5.559,-15.862c0.843,-1 0.93,-1.574 -0.615,-0.613c-3.916,2.615 -11.426,0.896 -11.811,-7.101c-0.475,-9.853 13.31,-12.692 15.898,-2.215c0.137,1.106 1.036,1.08 0.82,-0.489c-0.236,-4.258 -1.568,-8.239 -3.399,-12.12l9.338,-0c-1.83,3.881 -3.162,7.862 -3.398,12.12c-0.217,1.569 0.683,1.595 0.819,0.489c2.589,-10.477 16.373,-7.638 15.898,2.215c-0.384,7.997 -7.894,9.716 -11.811,7.101c-1.545,-0.961 -1.458,-0.387 -0.614,0.613c5.817,6.859 2.295,15.691 -5.559,15.862c-0,-0 -0,-0 -0.008,-0l0.001,-0Z" style="fill-rule:nonzero;"/><path id="path147-0-8-1-6-75-6-1-2-46-5-0" d="M47.875,223.626c-7.855,-0.171 -11.377,-9.003 -5.56,-15.862c0.844,-1 0.931,-1.574 -0.614,-0.613c-3.917,2.615 -11.426,0.896 -11.811,-7.101c-0.475,-9.853 13.31,-12.692 15.898,-2.215c0.137,1.106 1.036,1.08 0.819,-0.489c-0.236,-4.258 -1.567,-8.239 -3.398,-12.12l9.338,-0c-1.83,3.881 -3.162,7.862 -3.398,12.12c-0.217,1.569 0.683,1.595 0.819,0.489c2.588,-10.477 16.373,-7.638 15.898,2.215c-0.384,7.997 -7.894,9.716 -11.811,7.101c-1.545,-0.961 -1.458,-0.387 -0.614,0.613c5.817,6.859 2.295,15.691 -5.56,15.862c0,-0 0,-0 -0.008,-0l0.002,-0Z" style="fill-rule:nonzero;"/><path id="path147-0-8-1-6-1-1-0-5-61-2-0" d="M89.288,105.857c-7.855,0.17 -11.377,9.003 -5.559,15.861c0.843,1.001 0.93,1.575 -0.615,0.614c-3.916,-2.616 -11.426,-0.896 -11.811,7.101c-0.475,9.853 13.31,12.692 15.898,2.214c0.137,-1.105 1.036,-1.08 0.819,0.489c-0.236,4.259 -1.567,8.239 -3.398,12.121l9.338,0c-1.83,-3.882 -3.162,-7.862 -3.398,-12.121c-0.217,-1.569 0.683,-1.594 0.819,-0.489c2.589,10.478 16.373,7.639 15.898,-2.214c-0.384,-7.997 -7.894,-9.717 -11.811,-7.101c-1.545,0.961 -1.458,0.387 -0.614,-0.614c5.817,-6.858 2.295,-15.691 -5.56,-15.861c0,0 0,0 -0.008,0l0.002,0Z" style="fill-rule:nonzero;"/><path id="path147-6-9-8-7-0-5-6-5-2-8" d="M164.811,209.47c3.141,-0.071 4.55,-3.751 2.224,-6.609c-0.338,-0.416 -0.373,-0.656 0.245,-0.255c1.567,1.09 4.571,0.373 4.725,-2.959c0.19,-4.105 -5.324,-5.288 -6.359,-0.923c-0.055,0.461 -0.415,0.45 -0.328,-0.203c0.094,-1.775 0.627,-3.433 1.359,-5.051l-3.735,0c0.732,1.618 1.265,3.276 1.359,5.051c0.087,0.653 -0.273,0.664 -0.327,0.203c-1.036,-4.365 -6.55,-3.182 -6.36,0.923c0.154,3.332 3.158,4.049 4.725,2.959c0.618,-0.401 0.583,-0.161 0.246,0.255c-2.327,2.858 -0.918,6.538 2.223,6.609c0,0 0,0 0,0l0.003,0Z" style="fill-rule:nonzero;"/><path id="path147-0-8-1-6-75-2-9-77-4-4-2" d="M47.875,79.401c-7.855,0.17 -11.377,9.003 -5.56,15.861c0.844,1.001 0.931,1.575 -0.614,0.614c-3.916,-2.616 -11.426,-0.896 -11.811,7.1c-0.475,9.853 13.31,12.692 15.898,2.215c0.137,-1.105 1.036,-1.08 0.819,0.489c-0.236,4.259 -1.567,8.239 -3.398,12.121l9.338,-0c-1.83,-3.882 -3.162,-7.862 -3.398,-12.121c-0.217,-1.569 0.683,-1.594 0.819,-0.489c2.588,10.477 16.373,7.638 15.898,-2.215c-0.384,-7.996 -7.894,-9.716 -11.811,-7.1c-1.545,0.961 -1.458,0.387 -0.614,-0.614c5.817,-6.858 2.295,-15.691 -5.56,-15.861c0,-0 0,-0 -0.008,-0l0.002,-0Z" style="fill-rule:nonzero;"/><path id="path147-0-8-1-6-75-2-8-0-6-4-4" d="M47.875,170.713c-7.855,-0.17 -11.377,-9.002 -5.56,-15.861c0.844,-1.001 0.931,-1.575 -0.614,-0.614c-3.917,2.616 -11.426,0.896 -11.811,-7.1c-0.475,-9.853 13.31,-12.692 15.898,-2.215c0.137,1.105 1.036,1.08 0.819,-0.489c-0.236,-4.259 -1.567,-8.239 -3.398,-12.121l9.338,0c-1.83,3.882 -3.162,7.862 -3.398,12.121c-0.217,1.569 0.683,1.594 0.819,0.489c2.588,-10.477 16.373,-7.638 15.898,2.215c-0.384,7.996 -7.894,9.716 -11.811,7.1c-1.545,-0.961 -1.458,-0.387 -0.614,0.614c5.817,6.859 2.295,15.691 -5.56,15.861c0,0 0,0 -0.008,0l0.002,0Z" style="fill-rule:nonzero;"/><path id="path147-0-8-1-6-75-2-9-7-1-36-2-4" d="M130.701,79.401c-7.854,0.17 -11.377,9.003 -5.559,15.861c0.843,1.001 0.93,1.575 -0.615,0.614c-3.916,-2.616 -11.426,-0.896 -11.811,7.1c-0.475,9.853 13.31,12.692 15.898,2.215c0.137,-1.105 1.036,-1.08 0.82,0.489c-0.236,4.259 -1.568,8.239 -3.399,12.121l9.338,-0c-1.83,-3.882 -3.162,-7.862 -3.398,-12.121c-0.217,-1.569 0.683,-1.594 0.819,-0.489c2.589,10.477 16.373,7.638 15.898,-2.215c-0.384,-7.996 -7.894,-9.716 -11.811,-7.1c-1.545,0.961 -1.458,0.387 -0.614,-0.614c5.817,-6.858 2.295,-15.691 -5.559,-15.861c-0,-0 -0,-0 -0.008,-0l0.001,-0Z" style="fill-rule:nonzero;"/><path id="path147-0-8-1-6-75-2-8-5-1-55-5-4" d="M130.701,170.713c-7.854,-0.17 -11.377,-9.002 -5.559,-15.861c0.843,-1.001 0.93,-1.575 -0.615,-0.614c-3.916,2.616 -11.426,0.896 -11.811,-7.1c-0.475,-9.853 13.31,-12.692 15.898,-2.215c0.137,1.105 1.036,1.08 0.82,-0.489c-0.236,-4.259 -1.568,-8.239 -3.399,-12.121l9.338,0c-1.83,3.882 -3.162,7.862 -3.398,12.121c-0.217,1.569 0.683,1.594 0.819,0.489c2.589,-10.477 16.373,-7.638 15.898,2.215c-0.384,7.996 -7.894,9.716 -11.811,7.1c-1.545,-0.961 -1.458,-0.387 -0.614,0.614c5.817,6.859 2.295,15.691 -5.559,15.861c-0,0 -0,0 -0.008,0l0.001,0Z" style="fill-rule:nonzero;"/><path id="path147-6-9-8-7-4-5-62-7-8-4" d="M13.773,39.979c-3.142,0.07 -4.551,3.751 -2.224,6.609c0.337,0.416 0.372,0.656 -0.246,0.255c-1.567,-1.09 -4.57,-0.373 -4.724,2.959c-0.19,4.105 5.324,5.288 6.359,0.923c0.055,-0.461 0.414,-0.45 0.328,0.203c-0.095,1.775 -0.627,3.433 -1.36,5.051l3.735,-0c-0.732,-1.618 -1.264,-3.276 -1.359,-5.051c-0.087,-0.653 0.273,-0.664 0.328,-0.203c1.035,4.365 6.549,3.182 6.359,-0.923c-0.154,-3.332 -3.158,-4.049 -4.724,-2.959c-0.618,0.401 -0.584,0.161 -0.246,-0.255c2.327,-2.858 0.918,-6.538 -2.224,-6.609l-0.002,-0Z" style="fill-rule:nonzero;"/><path id="path29-2-3-4" d="M6.398,32.381l2.415,-0.766c0.912,2.435 2.753,3.155 4.701,2.999c3.495,-0.278 4.656,-4.185 4.917,-7.639c-1.362,1.444 -3.407,2.178 -5.151,2.103c-5.573,-0.298 -6.999,-4.759 -7.051,-9.427c-0.152,-3.937 1.475,-6.788 4.267,-8.098c1.479,-0.663 4.865,-0.663 6.352,0.123c3.415,1.802 4.681,4.914 4.452,12.345c-0,6.113 -1.298,13.233 -7.851,13.388c-3.784,0.524 -6.661,-2.422 -7.051,-5.028Zm9.486,-6.699c1.137,-0.719 1.777,-1.395 2.287,-2.406c0.417,-0.831 0.562,-1.264 0.442,-2.982c-0.309,-4.432 -2.632,-6.949 -6.002,-6.45c-1.881,0.283 -2.909,1.335 -3.5,3.29c-1.089,3.617 0.294,7.848 2.881,8.823c1.165,0.442 2.965,0.315 3.892,-0.275Z" style="fill-rule:nonzero;"/><path id="path29-6-1-3-7" d="M172.183,217.068l-2.415,0.766c-0.912,-2.435 -2.753,-3.155 -4.701,-2.999c-3.495,0.278 -4.656,4.186 -4.917,7.639c1.362,-1.444 3.407,-2.178 5.151,-2.103c5.573,0.298 6.999,4.759 7.051,9.427c0.152,3.937 -1.475,6.788 -4.267,8.098c-1.479,0.663 -4.865,0.663 -6.352,-0.123c-3.415,-1.802 -4.681,-4.914 -4.452,-12.345c0,-6.113 1.298,-13.233 7.851,-13.388c3.784,-0.524 6.661,2.422 7.051,5.028Zm-9.486,6.699c-1.137,0.719 -1.777,1.395 -2.287,2.406c-0.417,0.831 -0.563,1.264 -0.442,2.982c0.309,4.432 2.632,6.948 6.002,6.45c1.881,-0.283 2.909,-1.335 3.5,-3.29c1.089,-3.618 -0.294,-7.848 -2.881,-8.823c-1.165,-0.442 -2.965,-0.315 -3.892,0.275Z" style="fill-rule:nonzero;"/></g></svg>