<?xml version="1.0" encoding="UTF-8" standalone="no"?><!DOCTYPE svg PUBLIC "-//W3C//DTD SVG 1.1//EN" "http://www.w3.org/Graphics/SVG/1.1/DTD/svg11.dtd"><svg width="100%" height="100%" viewBox="0 0 179 250" version="1.1" xmlns="http://www.w3.org/2000/svg" xmlns:xlink="http://www.w3.org/1999/xlink" xml:space="preserve" xmlns:serif="http://www.serif.com/" style="fill-rule:evenodd;clip-rule:evenodd;stroke-linejoin:round;stroke-miterlimit:2;"><g id="g8526-6-2"><path id="rect7195-8-7" d="M178.583,8.008c-0,-4.42 -3.589,-8.008 -8.008,-8.008l-162.567,-0c-4.42,-0 -8.008,3.588 -8.008,8.008l0,233.433c0,4.419 3.588,8.008 8.008,8.008l162.567,-0c4.419,-0 8.008,-3.589 8.008,-8.008l-0,-233.433Z" style="fill:#fff;"/><path id="path7225-5-2" d="M47.878,26.156c-7.381,10.526 -15.278,16.583 -15.409,24.795c-0.044,2.659 1.394,7.178 5.897,8.043c2.921,0.559 6.944,-1.806 7.028,-6.61c-0.013,-0.956 1.013,-0.931 1.003,0.379c-0.138,3.79 -1.337,8.202 -3.353,11.793l9.669,-0c-2.016,-3.591 -3.216,-8.003 -3.353,-11.793c-0.01,-1.31 1.015,-1.335 1.003,-0.379c0.084,4.804 4.106,7.169 7.028,6.61c4.503,-0.865 5.941,-5.384 5.897,-8.043c-0.132,-8.212 -8.029,-14.269 -15.41,-24.795Z" style="fill-rule:nonzero;"/><path id="path7227-2-8" d="M13.774,39.979c-3.449,4.385 -7.138,6.909 -7.2,10.331c-0.02,1.108 0.651,2.991 2.755,3.351c1.365,0.233 3.245,-0.752 3.284,-2.754c-0.008,-0.398 0.473,-0.388 0.469,0.158c-0.064,1.579 -0.625,3.417 -1.567,4.914l4.518,-0c-0.942,-1.497 -1.503,-3.335 -1.567,-4.914c-0.008,-0.546 0.475,-0.556 0.469,-0.158c0.039,2.002 1.918,2.987 3.283,2.754c2.104,-0.36 2.776,-2.243 2.755,-3.351c-0.061,-3.422 -3.751,-5.946 -7.199,-10.331Z" style="fill-rule:nonzero;"/><path id="path7229-4-8" d="M47.878,170.381c-7.381,-10.526 -15.278,-16.583 -15.409,-24.795c-0.044,-2.659 1.394,-7.179 5.897,-8.044c2.921,-0.559 6.944,1.806 7.028,6.61c-0.013,0.957 1.013,0.932 1.003,-0.379c-0.138,-3.789 -1.337,-8.201 -3.353,-11.792l9.669,-0c-2.016,3.591 -3.216,8.003 -3.353,11.792c-0.01,1.311 1.015,1.336 1.003,0.379c0.084,-4.804 4.106,-7.169 7.028,-6.61c4.503,0.865 5.941,5.385 5.897,8.044c-0.132,8.212 -8.029,14.269 -15.41,24.795Z" style="fill-rule:nonzero;"/><path id="path7231-7-8" d="M164.809,209.47c-3.448,-4.385 -7.138,-6.909 -7.199,-10.331c-0.021,-1.108 0.651,-2.991 2.755,-3.351c1.365,-0.233 3.244,0.752 3.284,2.754c-0.008,0.398 0.473,0.388 0.468,-0.158c-0.064,-1.579 -0.624,-3.417 -1.566,-4.914l4.517,0c-0.942,1.497 -1.502,3.335 -1.566,4.914c-0.008,0.546 0.474,0.556 0.468,0.158c0.039,-2.002 1.919,-2.987 3.284,-2.754c2.104,0.36 2.776,2.243 2.755,3.351c-0.062,3.422 -3.751,5.946 -7.2,10.331Z" style="fill-rule:nonzero;"/><path id="path7233-8-9" d="M130.705,26.156c-7.381,10.526 -15.279,16.583 -15.41,24.795c-0.044,2.659 1.394,7.178 5.897,8.043c2.922,0.559 6.944,-1.806 7.028,-6.61c-0.013,-0.956 1.013,-0.931 1.003,0.379c-0.137,3.79 -1.337,8.202 -3.353,11.793l9.669,-0c-2.016,-3.591 -3.216,-8.003 -3.353,-11.793c-0.01,-1.31 1.016,-1.335 1.003,-0.379c0.084,4.804 4.106,7.169 7.028,6.61c4.503,-0.865 5.941,-5.384 5.897,-8.043c-0.131,-8.212 -8.029,-14.269 -15.409,-24.795Z" style="fill-rule:nonzero;"/><path id="path7235-9-4" d="M47.878,79.068c-7.381,10.526 -15.278,16.583 -15.409,24.795c-0.044,2.659 1.394,7.179 5.897,8.044c2.921,0.558 6.944,-1.806 7.028,-6.61c-0.013,-0.957 1.013,-0.932 1.003,0.379c-0.138,3.789 -1.337,8.201 -3.353,11.792l9.669,0c-2.016,-3.591 -3.216,-8.003 -3.353,-11.792c-0.01,-1.311 1.015,-1.336 1.003,-0.379c0.084,4.804 4.106,7.168 7.028,6.61c4.503,-0.865 5.941,-5.385 5.897,-8.044c-0.132,-8.212 -8.029,-14.269 -15.41,-24.795Z" style="fill-rule:nonzero;"/><path id="path7241-7-2" d="M130.705,79.068c-7.381,10.526 -15.279,16.583 -15.41,24.795c-0.044,2.659 1.394,7.179 5.897,8.044c2.922,0.558 6.944,-1.806 7.028,-6.61c-0.013,-0.957 1.013,-0.932 1.003,0.379c-0.137,3.789 -1.337,8.201 -3.353,11.792l9.669,0c-2.016,-3.591 -3.216,-8.003 -3.353,-11.792c-0.01,-1.311 1.016,-1.336 1.003,-0.379c0.084,4.804 4.106,7.168 7.028,6.61c4.503,-0.865 5.941,-5.385 5.897,-8.044c-0.131,-8.212 -8.029,-14.269 -15.409,-24.795Z" style="fill-rule:nonzero;"/><path id="path7245-1-6" d="M47.878,223.293c-7.381,-10.526 -15.278,-16.583 -15.409,-24.795c-0.044,-2.659 1.394,-7.178 5.897,-8.044c2.921,-0.558 6.944,1.806 7.028,6.61c-0.013,0.957 1.013,0.932 1.003,-0.379c-0.138,-3.789 -1.337,-8.201 -3.353,-11.792l9.669,-0c-2.016,3.591 -3.216,8.003 -3.353,11.792c-0.01,1.311 1.015,1.336 1.003,0.379c0.084,-4.804 4.106,-7.168 7.028,-6.61c4.503,0.866 5.941,5.385 5.897,8.044c-0.132,8.212 -8.029,14.269 -15.41,24.795Z" style="fill-rule:nonzero;"/><path id="path7247-0-6" d="M130.705,223.293c-7.381,-10.526 -15.279,-16.583 -15.41,-24.795c-0.044,-2.659 1.394,-7.178 5.897,-8.044c2.922,-0.558 6.944,1.806 7.028,6.61c-0.013,0.957 1.013,0.932 1.003,-0.379c-0.137,-3.789 -1.337,-8.201 -3.353,-11.792l9.669,-0c-2.016,3.591 -3.216,8.003 -3.353,11.792c-0.01,1.311 1.016,1.336 1.003,0.379c0.084,-4.804 4.106,-7.168 7.028,-6.61c4.503,0.866 5.941,5.385 5.897,8.044c-0.131,8.212 -8.029,14.269 -15.409,24.795Z" style="fill-rule:nonzero;"/><path id="path7251-3-6" d="M130.705,170.381c-7.381,-10.526 -15.279,-16.583 -15.41,-24.795c-0.044,-2.659 1.394,-7.179 5.897,-8.044c2.922,-0.559 6.944,1.806 7.028,6.61c-0.013,0.957 1.013,0.932 1.003,-0.379c-0.137,-3.789 -1.337,-8.201 -3.353,-11.792l9.669,-0c-2.016,3.591 -3.216,8.003 -3.353,11.792c-0.01,1.311 1.016,1.336 1.003,0.379c0.084,-4.804 4.106,-7.169 7.028,-6.61c4.503,0.865 5.941,5.385 5.897,8.044c-0.131,8.212 -8.029,14.269 -15.409,24.795Z" style="fill-rule:nonzero;"/><path id="path7255-7-8" d="M89.291,105.524c-7.38,10.526 -15.278,16.583 -15.409,24.795c-0.044,2.659 1.394,7.179 5.897,8.044c2.921,0.559 6.944,-1.806 7.028,-6.61c-0.013,-0.957 1.013,-0.932 1.003,0.379c-0.138,3.789 -1.337,8.201 -3.353,11.792l9.669,0c-2.016,-3.591 -3.216,-8.003 -3.353,-11.792c-0.01,-1.311 1.016,-1.336 1.003,-0.379c0.084,4.804 4.106,7.169 7.028,6.61c4.503,-0.865 5.941,-5.385 5.897,-8.044c-0.131,-8.212 -8.029,-14.269 -15.41,-24.795Z" style="fill-rule:nonzero;"/><path id="path29-33-4-4" d="M6.398,32.381l2.415,-0.766c0.912,2.435 2.752,3.155 4.7,2.999c3.496,-0.278 4.657,-4.186 4.918,-7.639c-1.362,1.444 -3.408,2.178 -5.151,2.103c-5.573,-0.298 -6.999,-4.759 -7.051,-9.427c-0.152,-3.937 1.475,-6.788 4.267,-8.098c1.479,-0.663 4.865,-0.663 6.352,0.123c3.415,1.801 4.681,4.914 4.452,12.345c-0,6.113 -1.298,13.233 -7.851,13.388c-3.784,0.524 -6.661,-2.422 -7.051,-5.028l0,0Zm9.486,-6.699c1.137,-0.72 1.777,-1.395 2.287,-2.406c0.417,-0.831 0.562,-1.264 0.442,-2.982c-0.31,-4.432 -2.632,-6.948 -6.003,-6.45c-1.88,0.283 -2.908,1.335 -3.499,3.29c-1.089,3.618 0.293,7.848 2.881,8.823c1.165,0.442 2.965,0.315 3.892,-0.275l0,0Z" style="fill-rule:nonzero;"/><path id="path29-33-3-8-6" d="M172.183,217.068l-2.415,0.766c-0.913,-2.435 -2.753,-3.156 -4.701,-2.999c-3.495,0.278 -4.656,4.185 -4.917,7.639c1.362,-1.444 3.407,-2.178 5.151,-2.103c5.573,0.298 6.999,4.759 7.051,9.427c0.152,3.937 -1.475,6.788 -4.267,8.098c-1.479,0.663 -4.865,0.663 -6.352,-0.123c-3.415,-1.802 -4.681,-4.914 -4.452,-12.345c0,-6.113 1.298,-13.233 7.851,-13.388c3.784,-0.524 6.661,2.422 7.051,5.028l-0,-0Zm-9.486,6.699c-1.137,0.719 -1.777,1.395 -2.287,2.406c-0.418,0.831 -0.563,1.264 -0.442,2.982c0.309,4.432 2.632,6.948 6.002,6.45c1.881,-0.283 2.909,-1.335 3.5,-3.29c1.089,-3.618 -0.294,-7.848 -2.881,-8.823c-1.165,-0.442 -2.965,-0.315 -3.892,0.275l-0,-0Z" style="fill-rule:nonzero;"/></g></svg>