<?xml version="1.0" encoding="UTF-8" standalone="no"?><!DOCTYPE svg PUBLIC "-//W3C//DTD SVG 1.1//EN" "http://www.w3.org/Graphics/SVG/1.1/DTD/svg11.dtd"><svg width="100%" height="100%" viewBox="0 0 179 250" version="1.1" xmlns="http://www.w3.org/2000/svg" xmlns:xlink="http://www.w3.org/1999/xlink" xml:space="preserve" xmlns:serif="http://www.serif.com/" style="fill-rule:evenodd;clip-rule:evenodd;stroke-linejoin:round;stroke-miterlimit:2;"><g id="g6800"><path id="rect6962-4" d="M178.583,8.008c-0,-4.42 -3.589,-8.008 -8.008,-8.008l-162.567,0c-4.42,0 -8.008,3.588 -8.008,8.008l0,233.433c0,4.419 3.588,8.008 8.008,8.008l162.567,-0c4.419,-0 8.008,-3.589 8.008,-8.008l-0,-233.433Z" style="fill:#fff;"/><path id="path6994-9" d="M13.774,55.979c-1.729,-2.855 -3.548,-5.63 -5.82,-8c2.272,-2.371 4.091,-5.145 5.82,-8c1.729,2.855 3.547,5.629 5.82,8c-2.273,2.37 -4.091,5.145 -5.82,8Z" style="fill:#3f3f3f;fill-rule:nonzero;"/><path id="path6996-5" d="M130.705,64.556c-4.149,-6.852 -8.514,-13.511 -13.969,-19.2c5.455,-5.689 9.82,-12.348 13.969,-19.2c4.149,6.852 8.514,13.511 13.968,19.2c-5.454,5.689 -9.819,12.348 -13.968,19.2Z" style="fill:#3f3f3f;fill-rule:nonzero;"/><path id="path6998-7" d="M164.81,209.47c-1.729,-2.855 -3.548,-5.629 -5.821,-8c2.273,-2.37 4.092,-5.145 5.821,-8c1.728,2.855 3.547,5.63 5.82,8c-2.273,2.371 -4.092,5.145 -5.82,8Z" style="fill:#3f3f3f;fill-rule:nonzero;"/><path id="path7000-7" d="M47.878,64.556c-4.149,-6.852 -8.514,-13.511 -13.968,-19.2c5.454,-5.689 9.819,-12.348 13.968,-19.2c4.149,6.852 8.514,13.511 13.969,19.2c-5.455,5.689 -9.82,12.348 -13.969,19.2Z" style="fill:#3f3f3f;fill-rule:nonzero;"/><path id="path7002-0" d="M130.705,117.474c-4.149,-6.852 -8.514,-13.511 -13.969,-19.2c5.455,-5.689 9.82,-12.348 13.969,-19.2c4.149,6.852 8.514,13.511 13.968,19.2c-5.454,5.689 -9.819,12.348 -13.968,19.2Z" style="fill:#3f3f3f;fill-rule:nonzero;"/><path id="path7004-0" d="M47.878,117.474c-4.149,-6.852 -8.514,-13.511 -13.968,-19.2c5.454,-5.689 9.819,-12.348 13.968,-19.2c4.149,6.852 8.514,13.511 13.969,19.2c-5.455,5.689 -9.82,12.348 -13.969,19.2Z" style="fill:#3f3f3f;fill-rule:nonzero;"/><path id="path7008-2" d="M89.291,143.924c-4.149,-6.851 -8.514,-13.511 -13.968,-19.2c5.454,-5.688 9.819,-12.348 13.968,-19.2c4.149,6.852 8.514,13.512 13.969,19.2c-5.455,5.689 -9.82,12.349 -13.969,19.2Z" style="fill:#3f3f3f;fill-rule:nonzero;"/><path id="path7016-2" d="M47.878,223.297c-4.149,-6.852 -8.514,-13.511 -13.968,-19.2c5.454,-5.689 9.819,-12.348 13.968,-19.2c4.149,6.852 8.514,13.511 13.969,19.2c-5.455,5.689 -9.82,12.348 -13.969,19.2Z" style="fill:#3f3f3f;fill-rule:nonzero;"/><path id="path7018-0" d="M130.705,223.303c-4.149,-6.852 -8.514,-13.512 -13.969,-19.2c5.455,-5.689 9.82,-12.349 13.969,-19.2c4.149,6.851 8.514,13.511 13.968,19.2c-5.454,5.688 -9.819,12.348 -13.968,19.2Z" style="fill:#3f3f3f;fill-rule:nonzero;"/><path id="path7020-7" d="M130.705,170.379c-4.149,-6.851 -8.514,-13.511 -13.969,-19.2c5.455,-5.688 9.82,-12.348 13.969,-19.2c4.149,6.852 8.514,13.512 13.968,19.2c-5.454,5.689 -9.819,12.349 -13.968,19.2Z" style="fill:#3f3f3f;fill-rule:nonzero;"/><path id="path7022-4" d="M47.878,170.354c-4.149,-6.852 -8.514,-13.512 -13.968,-19.2c5.454,-5.689 9.819,-12.348 13.968,-19.2c4.149,6.852 8.514,13.511 13.969,19.2c-5.455,5.688 -9.82,12.348 -13.969,19.2Z" style="fill:#3f3f3f;fill-rule:nonzero;"/><path id="path29-5-3-7-8" d="M6.398,32.381l2.415,-0.766c0.912,2.435 2.753,3.155 4.701,2.999c3.495,-0.278 4.656,-4.186 4.917,-7.639c-1.362,1.444 -3.407,2.178 -5.151,2.103c-5.573,-0.298 -6.999,-4.759 -7.051,-9.428c-0.152,-3.936 1.475,-6.787 4.267,-8.097c1.479,-0.663 4.865,-0.663 6.352,0.123c3.415,1.801 4.681,4.914 4.452,12.345c-0,6.113 -1.298,13.233 -7.851,13.388c-3.784,0.524 -6.661,-2.422 -7.051,-5.028Zm9.486,-6.699c1.137,-0.72 1.777,-1.395 2.287,-2.406c0.417,-0.831 0.563,-1.264 0.442,-2.982c-0.309,-4.432 -2.632,-6.949 -6.002,-6.45c-1.881,0.283 -2.909,1.335 -3.5,3.29c-1.089,3.617 0.294,7.848 2.881,8.823c1.165,0.442 2.965,0.315 3.892,-0.275Z" style="fill:#3f3f3f;fill-rule:nonzero;"/><path id="path29-6-2-9-2" d="M172.183,217.068l-2.415,0.766c-0.912,-2.435 -2.752,-3.156 -4.701,-2.999c-3.495,0.278 -4.656,4.185 -4.917,7.639c1.362,-1.444 3.408,-2.178 5.151,-2.103c5.573,0.298 6.999,4.759 7.051,9.427c0.152,3.937 -1.475,6.788 -4.267,8.098c-1.479,0.663 -4.865,0.663 -6.352,-0.123c-3.415,-1.802 -4.681,-4.914 -4.452,-12.345c0,-6.113 1.298,-13.233 7.851,-13.388c3.784,-0.524 6.661,2.422 7.051,5.028Zm-9.486,6.699c-1.137,0.719 -1.777,1.395 -2.287,2.406c-0.417,0.831 -0.562,1.264 -0.442,2.982c0.31,4.432 2.632,6.948 6.003,6.45c1.88,-0.283 2.908,-1.335 3.499,-3.29c1.089,-3.618 -0.293,-7.849 -2.881,-8.823c-1.165,-0.442 -2.965,-0.315 -3.892,0.275Z" style="fill:#3f3f3f;fill-rule:nonzero;"/></g></svg>