<?xml version="1.0" encoding="UTF-8" standalone="no"?><!DOCTYPE svg PUBLIC "-//W3C//DTD SVG 1.1//EN" "http://www.w3.org/Graphics/SVG/1.1/DTD/svg11.dtd"><svg width="100%" height="100%" viewBox="0 0 179 250" version="1.1" xmlns="http://www.w3.org/2000/svg" xmlns:xlink="http://www.w3.org/1999/xlink" xml:space="preserve" xmlns:serif="http://www.serif.com/" style="fill-rule:evenodd;clip-rule:evenodd;stroke-linejoin:round;stroke-miterlimit:2;"><g id="g11153-5-1"><g id="_5D" serif:id="5D"><path id="rect10210-5-4" d="M178.583,8.008c-0,-4.42 -3.589,-8.008 -8.008,-8.008l-162.567,0c-4.42,0 -8.008,3.588 -8.008,8.008l-0,233.433c-0,4.419 3.588,8.008 8.008,8.008l162.567,-0c4.419,-0 8.008,-3.589 8.008,-8.008l-0,-233.433Z" style="fill:#fff;"/></g><path id="path10240-7-9" d="M47.878,117.468c0,0 -3.733,-6.124 -8.769,-13.325c-3.368,-4.818 -6.062,-10.036 -6.312,-14.53c-0.287,-5.134 2.431,-10.285 7.353,-10.534c4.919,-0.25 6.915,3.958 7.728,7.428c0.813,-3.47 2.81,-7.678 7.728,-7.428c4.922,0.249 7.641,5.4 7.353,10.534c-0.25,4.494 -2.943,9.712 -6.312,14.53c-5.036,7.201 -8.769,13.325 -8.769,13.325Z" style="fill:#3f3f3f;fill-rule:nonzero;"/><path id="path10242-3-8" d="M13.774,55.979c-0,-0.003 -1.78,-2.552 -4.181,-5.552c-1.606,-2.008 -2.89,-4.182 -3.009,-6.055c-0.137,-2.139 1.159,-4.285 3.505,-4.389c2.345,-0.104 3.297,1.649 3.685,3.095c0.387,-1.446 1.339,-3.199 3.684,-3.095c2.347,0.104 3.643,2.25 3.506,4.389c-0.119,1.873 -1.403,4.047 -3.01,6.055c-2.4,3 -4.179,5.55 -4.18,5.552Z" style="fill:#3f3f3f;fill-rule:nonzero;"/><path id="path10244-4-5" d="M164.809,193.47c0,0 -1.779,2.552 -4.18,5.552c-1.606,2.008 -2.89,4.182 -3.01,6.055c-0.137,2.139 1.159,4.285 3.506,4.389c2.345,0.104 3.297,-1.649 3.684,-3.095c0.388,1.446 1.34,3.199 3.685,3.095c2.346,-0.104 3.643,-2.25 3.506,-4.389c-0.12,-1.873 -1.404,-4.047 -3.01,-6.055c-2.401,-3 -4.181,-5.552 -4.181,-5.552Z" style="fill:#3f3f3f;fill-rule:nonzero;"/><path id="path10250-9-0" d="M47.878,64.556c0,-0 -3.733,-6.124 -8.769,-13.325c-3.368,-4.819 -6.062,-10.036 -6.312,-14.531c-0.287,-5.133 2.431,-10.284 7.353,-10.534c4.919,-0.249 6.915,3.959 7.728,7.428c0.813,-3.469 2.81,-7.677 7.728,-7.428c4.922,0.25 7.641,5.401 7.353,10.534c-0.25,4.495 -2.943,9.712 -6.312,14.531c-5.036,7.201 -8.769,13.325 -8.769,13.325Z" style="fill:#3f3f3f;fill-rule:nonzero;"/><path id="path10254-7-3" d="M130.704,117.468c0,0 -3.733,-6.124 -8.768,-13.325c-3.369,-4.818 -6.062,-10.036 -6.313,-14.53c-0.287,-5.134 2.432,-10.285 7.353,-10.534c4.919,-0.25 6.916,3.958 7.728,7.428c0.813,-3.47 2.81,-7.678 7.729,-7.428c4.921,0.249 7.64,5.4 7.353,10.534c-0.251,4.494 -2.944,9.712 -6.313,14.53c-5.035,7.201 -8.769,13.325 -8.769,13.325Z" style="fill:#3f3f3f;fill-rule:nonzero;"/><path id="path10256-4-7" d="M130.704,64.556c0,-0 -3.733,-6.124 -8.768,-13.325c-3.369,-4.819 -6.062,-10.036 -6.313,-14.531c-0.287,-5.133 2.432,-10.284 7.353,-10.534c4.919,-0.249 6.916,3.959 7.728,7.428c0.813,-3.469 2.81,-7.677 7.729,-7.428c4.921,0.25 7.64,5.401 7.353,10.534c-0.251,4.495 -2.944,9.712 -6.313,14.531c-5.035,7.201 -8.769,13.325 -8.769,13.325Z" style="fill:#3f3f3f;fill-rule:nonzero;"/><path id="path10258-5-9" d="M89.291,143.924c0,0 -3.733,-6.124 -8.768,-13.325c-3.369,-4.818 -6.063,-10.036 -6.313,-14.53c-0.287,-5.134 2.431,-10.284 7.353,-10.534c4.919,-0.249 6.916,3.958 7.728,7.428c0.813,-3.47 2.81,-7.677 7.728,-7.428c4.922,0.25 7.641,5.4 7.354,10.534c-0.251,4.494 -2.944,9.712 -6.313,14.53c-5.036,7.201 -8.769,13.325 -8.769,13.325Z" style="fill:#3f3f3f;fill-rule:nonzero;"/><path id="path10266-8-9" d="M130.704,131.981c0,-0 -3.733,6.124 -8.768,13.325c-3.369,4.818 -6.062,10.036 -6.313,14.53c-0.287,5.134 2.432,10.284 7.353,10.534c4.919,0.249 6.916,-3.958 7.728,-7.428c0.813,3.47 2.81,7.677 7.729,7.428c4.921,-0.25 7.64,-5.4 7.353,-10.534c-0.251,-4.494 -2.944,-9.712 -6.313,-14.53c-5.035,-7.201 -8.769,-13.325 -8.769,-13.325Z" style="fill:#3f3f3f;fill-rule:nonzero;"/><path id="path10268-2-7" d="M47.878,131.981c0,-0 -3.733,6.124 -8.769,13.325c-3.368,4.818 -6.062,10.036 -6.312,14.53c-0.287,5.134 2.431,10.284 7.353,10.534c4.919,0.249 6.915,-3.958 7.728,-7.428c0.813,3.47 2.81,7.677 7.728,7.428c4.922,-0.25 7.641,-5.4 7.353,-10.534c-0.25,-4.494 -2.943,-9.712 -6.312,-14.53c-5.036,-7.201 -8.769,-13.325 -8.769,-13.325Z" style="fill:#3f3f3f;fill-rule:nonzero;"/><path id="path10270-1-4" d="M130.704,184.893c0,-0 -3.733,6.124 -8.768,13.325c-3.369,4.819 -6.062,10.036 -6.313,14.53c-0.287,5.134 2.432,10.285 7.353,10.534c4.919,0.25 6.916,-3.958 7.728,-7.427c0.813,3.469 2.81,7.677 7.729,7.427c4.921,-0.249 7.64,-5.4 7.353,-10.534c-0.251,-4.494 -2.944,-9.711 -6.313,-14.53c-5.035,-7.201 -8.769,-13.325 -8.769,-13.325Z" style="fill:#3f3f3f;fill-rule:nonzero;"/><path id="path10272-0-7" d="M47.878,184.893c0,-0 -3.733,6.124 -8.769,13.325c-3.368,4.819 -6.062,10.036 -6.312,14.53c-0.287,5.134 2.431,10.285 7.353,10.534c4.919,0.25 6.915,-3.958 7.728,-7.427c0.813,3.469 2.81,7.677 7.728,7.427c4.922,-0.249 7.641,-5.4 7.353,-10.534c-0.25,-4.494 -2.943,-9.711 -6.312,-14.53c-5.036,-7.201 -8.769,-13.325 -8.769,-13.325Z" style="fill:#3f3f3f;fill-rule:nonzero;"/><path id="path29-5-8-5-4" d="M6.398,32.381l2.415,-0.766c0.912,2.435 2.752,3.155 4.7,2.999c3.496,-0.278 4.657,-4.186 4.918,-7.639c-1.362,1.444 -3.408,2.178 -5.151,2.103c-5.573,-0.298 -6.999,-4.759 -7.051,-9.427c-0.152,-3.937 1.475,-6.788 4.267,-8.098c1.479,-0.663 4.865,-0.663 6.352,0.123c3.415,1.801 4.681,4.914 4.452,12.345c-0,6.113 -1.298,13.233 -7.851,13.388c-3.784,0.524 -6.661,-2.422 -7.051,-5.028Zm9.486,-6.699c1.137,-0.72 1.777,-1.395 2.287,-2.406c0.417,-0.831 0.562,-1.264 0.442,-2.982c-0.31,-4.432 -2.632,-6.949 -6.003,-6.45c-1.88,0.283 -2.908,1.335 -3.499,3.29c-1.089,3.617 0.293,7.848 2.881,8.823c1.165,0.442 2.965,0.315 3.892,-0.275Z" style="fill:#3f3f3f;fill-rule:nonzero;"/><path id="path29-6-2-3-6-6" d="M172.183,217.068l-2.415,0.766c-0.912,-2.435 -2.753,-3.156 -4.701,-2.999c-3.495,0.278 -4.656,4.185 -4.917,7.639c1.362,-1.444 3.407,-2.178 5.151,-2.103c5.573,0.298 6.999,4.759 7.051,9.427c0.152,3.937 -1.475,6.788 -4.267,8.098c-1.479,0.663 -4.865,0.663 -6.352,-0.123c-3.415,-1.802 -4.681,-4.914 -4.452,-12.345c0,-6.113 1.298,-13.233 7.851,-13.388c3.784,-0.524 6.661,2.422 7.051,5.028Zm-9.486,6.699c-1.137,0.719 -1.777,1.395 -2.287,2.406c-0.418,0.831 -0.562,1.264 -0.442,2.982c0.309,4.432 2.632,6.948 6.002,6.45c1.881,-0.283 2.909,-1.335 3.5,-3.29c1.089,-3.618 -0.294,-7.849 -2.881,-8.823c-1.165,-0.442 -2.965,-0.315 -3.892,0.275Z" style="fill:#3f3f3f;fill-rule:nonzero;"/></g></svg>