<?xml version="1.0" encoding="UTF-8" standalone="no"?><!DOCTYPE svg PUBLIC "-//W3C//DTD SVG 1.1//EN" "http://www.w3.org/Graphics/SVG/1.1/DTD/svg11.dtd"><svg width="100%" height="100%" viewBox="0 0 179 250" version="1.1" xmlns="http://www.w3.org/2000/svg" xmlns:xlink="http://www.w3.org/1999/xlink" xml:space="preserve" xmlns:serif="http://www.serif.com/" style="fill-rule:evenodd;clip-rule:evenodd;stroke-linejoin:round;stroke-miterlimit:2;"><g id="g11425-5-5"><g id="_5D" serif:id="5D"><path id="rect9666-2-2" d="M178.583,8.008c-0,-4.42 -3.589,-8.008 -8.008,-8.008l-162.567,0c-4.42,0 -8.008,3.588 -8.008,8.008l0,233.433c0,4.419 3.588,8.008 8.008,8.008l162.567,-0c4.419,-0 8.008,-3.589 8.008,-8.008l-0,-233.433Z" style="fill:#fff;"/></g><path id="path9698-0-0" d="M13.774,55.979c-0,-0 -1.78,-2.552 -4.181,-5.552c-1.606,-2.008 -2.89,-4.182 -3.009,-6.055c-0.137,-2.139 1.159,-4.285 3.505,-4.389c2.345,-0.104 3.297,1.649 3.685,3.095c0.387,-1.446 1.339,-3.199 3.684,-3.095c2.347,0.104 3.643,2.25 3.506,4.389c-0.119,1.873 -1.403,4.047 -3.01,6.055c-2.4,3 -4.18,5.552 -4.18,5.552Z" style="fill:#3f3f3f;fill-rule:nonzero;"/><path id="path9700-3-2" d="M164.809,193.47c0,0 -1.779,2.552 -4.18,5.552c-1.606,2.008 -2.89,4.182 -3.01,6.055c-0.137,2.139 1.16,4.285 3.506,4.389c2.345,0.104 3.297,-1.649 3.684,-3.095c0.388,1.446 1.34,3.199 3.685,3.095c2.346,-0.104 3.643,-2.25 3.506,-4.389c-0.12,-1.873 -1.404,-4.047 -3.01,-6.055c-2.401,-3 -4.181,-5.552 -4.181,-5.552Z" style="fill:#3f3f3f;fill-rule:nonzero;"/><path id="path9714-6-6" d="M89.291,143.924c0,0 -3.733,-6.124 -8.768,-13.325c-3.369,-4.818 -6.062,-10.036 -6.313,-14.53c-0.287,-5.134 2.431,-10.284 7.353,-10.534c4.919,-0.249 6.916,3.958 7.728,7.428c0.813,-3.47 2.81,-7.677 7.728,-7.428c4.922,0.25 7.641,5.4 7.354,10.534c-0.251,4.494 -2.944,9.712 -6.313,14.53c-5.036,7.201 -8.769,13.325 -8.769,13.325Z" style="fill:#3f3f3f;fill-rule:nonzero;"/><path id="path41-87-8-3-9" d="M5.699,37.47l0,-2.257l2.154,-0l4.588,-24.143l2.612,0l5.054,24.143l1.739,-0l0,2.257l-5.926,0l-0,-2.257l1.599,-0l-0.639,-3.7l-5.978,0l-0.462,3.7l1.599,-0l0,2.257l-6.34,0Zm10.671,-8.592l-2.599,-12.922l-2.434,12.922l5.033,-0Z" style="fill:#3f3f3f;fill-rule:nonzero;"/><path id="path41-8-5-1-8-7" d="M156.735,211.979l-0,2.257l2.154,0l4.588,24.143l2.611,-0l5.055,-24.143l1.739,0l-0,-2.257l-5.927,-0l0,2.257l1.6,0l-0.639,3.7l-5.979,-0l-0.462,-3.7l1.6,0l-0,-2.257l-6.34,-0Zm10.671,8.592l-2.599,12.922l-2.435,-12.922l5.034,0Z" style="fill:#3f3f3f;fill-rule:nonzero;"/></g></svg>