<?xml version="1.0" encoding="UTF-8" standalone="no"?><!DOCTYPE svg PUBLIC "-//W3C//DTD SVG 1.1//EN" "http://www.w3.org/Graphics/SVG/1.1/DTD/svg11.dtd"><svg width="100%" height="100%" viewBox="0 0 179 250" version="1.1" xmlns="http://www.w3.org/2000/svg" xmlns:xlink="http://www.w3.org/1999/xlink" xml:space="preserve" xmlns:serif="http://www.serif.com/" style="fill-rule:evenodd;clip-rule:evenodd;stroke-linejoin:round;stroke-miterlimit:2;"><g id="g6708"><path id="rect6367-6" d="M178.583,8.008c-0,-4.42 -3.589,-8.008 -8.008,-8.008l-162.567,0c-4.42,0 -8.008,3.588 -8.008,8.008l0,233.433c0,4.419 3.588,8.008 8.008,8.008l162.567,-0c4.419,-0 8.008,-3.589 8.008,-8.008l-0,-233.433Z" style="fill:#fff;"/><path id="path6399-9" d="M13.774,55.979c-1.729,-2.855 -3.548,-5.63 -5.82,-8c2.272,-2.371 4.091,-5.145 5.82,-8c1.729,2.855 3.547,5.629 5.82,8c-2.273,2.37 -4.091,5.145 -5.82,8Z" style="fill:#3f3f3f;fill-rule:nonzero;"/><path id="path6403-1" d="M164.81,209.47c-1.729,-2.855 -3.548,-5.629 -5.821,-8c2.273,-2.37 4.092,-5.145 5.821,-8c1.728,2.855 3.547,5.63 5.82,8c-2.273,2.371 -4.092,5.145 -5.82,8Z" style="fill:#3f3f3f;fill-rule:nonzero;"/><path id="path6413-1" d="M89.291,143.924c-4.149,-6.851 -8.514,-13.511 -13.968,-19.2c5.454,-5.688 9.819,-12.348 13.968,-19.2c4.149,6.852 8.514,13.512 13.969,19.2c-5.455,5.689 -9.82,12.349 -13.969,19.2Z" style="fill:#3f3f3f;fill-rule:nonzero;"/><path id="path41-87-9-4-8" d="M5.699,37.47l0,-2.257l2.154,-0l4.588,-24.143l2.612,0l5.054,24.143l1.739,-0l0,2.257l-5.926,0l-0,-2.257l1.599,-0l-0.639,-3.7l-5.979,0l-0.461,3.7l1.599,-0l0,2.257l-6.34,0Zm10.671,-8.592l-2.599,-12.922l-2.434,12.922l5.033,-0Z" style="fill:#3f3f3f;fill-rule:nonzero;"/><path id="path41-8-5-6-1" d="M156.735,211.979l-0,2.257l2.154,-0l4.588,24.143l2.611,-0l5.055,-24.143l1.739,-0l-0,-2.257l-5.927,-0l0,2.257l1.6,-0l-0.639,3.7l-5.979,-0l-0.462,-3.7l1.6,-0l-0,-2.257l-6.34,-0Zm10.671,8.592l-2.599,12.922l-2.435,-12.922l5.034,0Z" style="fill:#3f3f3f;fill-rule:nonzero;"/></g></svg>