<?xml version="1.0" encoding="UTF-8" standalone="no"?><!DOCTYPE svg PUBLIC "-//W3C//DTD SVG 1.1//EN" "http://www.w3.org/Graphics/SVG/1.1/DTD/svg11.dtd"><svg width="100%" height="100%" viewBox="0 0 179 250" version="1.1" xmlns="http://www.w3.org/2000/svg" xmlns:xlink="http://www.w3.org/1999/xlink" xml:space="preserve" xmlns:serif="http://www.serif.com/" style="fill-rule:evenodd;clip-rule:evenodd;stroke-linejoin:round;stroke-miterlimit:2;"><g id="g8409-3-3"><path id="rect6355-6-85-62-9-7" d="M178.583,8.008c-0,-4.42 -3.589,-8.008 -8.008,-8.008l-162.567,-0c-4.42,-0 -8.008,3.588 -8.008,8.008l0,233.433c0,4.419 3.588,8.008 8.008,8.008l162.567,-0c4.419,-0 8.008,-3.589 8.008,-8.008l-0,-233.433Z" style="fill:#fff;"/><path id="path153-0-1-2-5-5-5-3-4" d="M13.774,39.979c-3.449,4.385 -7.138,6.909 -7.2,10.331c-0.02,1.108 0.651,2.991 2.755,3.351c1.365,0.233 3.245,-0.752 3.284,-2.754c-0.008,-0.398 0.473,-0.388 0.469,0.158c-0.064,1.579 -0.625,3.417 -1.567,4.914l4.518,-0c-0.942,-1.497 -1.503,-3.335 -1.567,-4.914c-0.008,-0.546 0.475,-0.556 0.469,-0.158c0.039,2.002 1.918,2.987 3.283,2.754c2.104,-0.36 2.776,-2.243 2.755,-3.351c-0.061,-3.422 -3.751,-5.946 -7.199,-10.331Z" style="fill-rule:nonzero;"/><path id="path153-0-1-2-5-6-5-9-1-9" d="M164.809,209.47c-3.448,-4.385 -7.138,-6.909 -7.199,-10.331c-0.021,-1.108 0.651,-2.991 2.755,-3.351c1.365,-0.233 3.244,0.752 3.284,2.754c-0.008,0.398 0.473,0.388 0.468,-0.158c-0.064,-1.579 -0.624,-3.417 -1.566,-4.914l4.517,0c-0.942,1.497 -1.502,3.335 -1.566,4.914c-0.008,0.546 0.474,0.556 0.468,0.158c0.039,-2.002 1.919,-2.987 3.284,-2.754c2.104,0.36 2.776,2.243 2.755,3.351c-0.062,3.422 -3.751,5.946 -7.2,10.331Z" style="fill-rule:nonzero;"/><path id="path153-6-3-1-6-92-7-2-9-8" d="M89.291,105.524c-7.38,10.526 -15.278,16.583 -15.409,24.795c-0.044,2.659 1.394,7.179 5.897,8.044c2.921,0.559 6.944,-1.806 7.028,-6.61c-0.013,-0.957 1.013,-0.932 1.003,0.379c-0.138,3.789 -1.337,8.201 -3.353,11.792l9.669,0c-2.016,-3.591 -3.216,-8.003 -3.353,-11.792c-0.01,-1.311 1.016,-1.336 1.003,-0.379c0.084,4.804 4.106,7.169 7.028,6.61c4.503,-0.865 5.941,-5.385 5.897,-8.044c-0.131,-8.212 -8.029,-14.269 -15.41,-24.795Z" style="fill-rule:nonzero;"/><path id="path41-4-9-2" d="M5.699,37.47l0,-2.257l2.154,-0l4.588,-24.143l2.612,0l5.054,24.143l1.739,-0l0,2.257l-5.926,0l-0,-2.257l1.599,-0l-0.639,-3.7l-5.978,0l-0.462,3.7l1.599,-0l0,2.257l-6.34,0Zm10.671,-8.592l-2.599,-12.922l-2.434,12.922l5.033,-0Z" style="fill-rule:nonzero;"/><path id="path41-4-2-4-0" d="M156.735,211.979l-0,2.257l2.154,0l4.588,24.143l2.611,-0l5.055,-24.143l1.739,0l-0,-2.257l-5.927,-0l0,2.257l1.6,0l-0.639,3.7l-5.979,-0l-0.462,-3.7l1.6,0l-0,-2.257l-6.34,-0Zm10.671,8.592l-2.599,12.922l-2.435,-12.922l5.034,0Z" style="fill-rule:nonzero;"/></g></svg>