<?xml version="1.0" encoding="UTF-8" standalone="no"?><!DOCTYPE svg PUBLIC "-//W3C//DTD SVG 1.1//EN" "http://www.w3.org/Graphics/SVG/1.1/DTD/svg11.dtd"><svg width="100%" height="100%" viewBox="0 0 179 250" version="1.1" xmlns="http://www.w3.org/2000/svg" xmlns:xlink="http://www.w3.org/1999/xlink" xml:space="preserve" xmlns:serif="http://www.serif.com/" style="fill-rule:evenodd;clip-rule:evenodd;stroke-linejoin:round;stroke-miterlimit:2;"><g id="g5120"><path id="rect6355-6-85-9-3-2" d="M178.583,7.972c-0,-4.4 -3.573,-7.972 -7.973,-7.972l-162.638,0c-4.4,0 -7.972,3.572 -7.972,7.972l0,233.504c0,4.4 3.572,7.973 7.972,7.973l162.638,-0c4.4,-0 7.973,-3.573 7.973,-7.973l-0,-233.504Z" style="fill:#fff;"/><path id="path147-0-8-1-6-1-1-0-9-1-8" d="M89.288,105.857c-7.855,0.17 -11.377,9.003 -5.559,15.861c0.843,1.001 0.93,1.575 -0.615,0.614c-3.916,-2.616 -11.426,-0.896 -11.811,7.101c-0.475,9.853 13.31,12.692 15.898,2.214c0.137,-1.105 1.036,-1.08 0.819,0.489c-0.236,4.259 -1.567,8.239 -3.398,12.121l9.338,0c-1.83,-3.882 -3.162,-7.862 -3.398,-12.121c-0.217,-1.569 0.683,-1.594 0.819,-0.489c2.589,10.478 16.373,7.639 15.898,-2.214c-0.384,-7.997 -7.894,-9.717 -11.811,-7.101c-1.545,0.961 -1.458,0.387 -0.614,-0.614c5.817,-6.858 2.295,-15.691 -5.56,-15.861c0,-0 0,0 -0.008,0l0.002,0Z" style="fill-rule:nonzero;"/><path id="path147-6-9-8-7-0-5-0-8-3" d="M164.811,209.47c3.141,-0.071 4.55,-3.751 2.223,-6.609c-0.337,-0.416 -0.372,-0.656 0.246,-0.255c1.567,1.09 4.571,0.373 4.725,-2.959c0.19,-4.105 -5.324,-5.288 -6.36,-0.923c-0.054,0.461 -0.414,0.45 -0.327,-0.203c0.094,-1.775 0.627,-3.433 1.359,-5.051l-3.735,0c0.732,1.618 1.265,3.276 1.359,5.051c0.087,0.653 -0.273,0.664 -0.327,0.203c-1.036,-4.365 -6.55,-3.182 -6.36,0.923c0.154,3.332 3.158,4.049 4.725,2.959c0.618,-0.401 0.583,-0.161 0.245,0.255c-2.326,2.858 -0.918,6.538 2.224,6.609c0.001,0 0,0 0,0l0.003,0Z" style="fill-rule:nonzero;"/><path id="path41-6-3-5-1" d="M5.699,37.47l0,-2.257l2.154,-0l4.588,-24.143l2.612,0l5.054,24.143l1.739,-0l0,2.257l-5.926,0l-0,-2.257l1.599,-0l-0.639,-3.7l-5.978,0l-0.462,3.7l1.599,-0l0,2.257l-6.34,0Zm10.671,-8.592l-2.599,-12.922l-2.434,12.922l5.033,-0Z" style="fill-rule:nonzero;"/><path id="path41-6-4-0-2-8" d="M156.735,211.979l-0,2.257l2.153,0l4.589,24.143l2.611,-0l5.055,-24.143l1.739,0l-0,-2.257l-5.927,-0l0,2.257l1.6,0l-0.639,3.7l-5.979,-0l-0.462,-3.7l1.6,0l-0,-2.257l-6.34,-0Zm10.671,8.592l-2.599,12.922l-2.435,-12.922l5.034,0Z" style="fill-rule:nonzero;"/><path id="path147-6-9-8-7-4-5-6-8-9" d="M13.773,39.979c-3.142,0.07 -4.551,3.751 -2.224,6.608c0.337,0.417 0.372,0.657 -0.246,0.256c-1.567,-1.09 -4.57,-0.373 -4.724,2.959c-0.19,4.105 5.324,5.288 6.359,0.923c0.054,-0.461 0.414,-0.451 0.328,0.203c-0.095,1.775 -0.627,3.433 -1.36,5.051l3.735,-0c-0.732,-1.618 -1.264,-3.276 -1.359,-5.051c-0.087,-0.654 0.273,-0.664 0.328,-0.203c1.035,4.365 6.549,3.182 6.359,-0.923c-0.154,-3.332 -3.158,-4.049 -4.724,-2.959c-0.618,0.401 -0.584,0.161 -0.246,-0.256c2.327,-2.857 0.918,-6.537 -2.224,-6.608c-0.001,-0 0,-0 0,-0l-0.002,-0Z" style="fill-rule:nonzero;"/></g></svg>