<?xml version="1.0" encoding="UTF-8" standalone="no"?><!DOCTYPE svg PUBLIC "-//W3C//DTD SVG 1.1//EN" "http://www.w3.org/Graphics/SVG/1.1/DTD/svg11.dtd"><svg width="100%" height="100%" viewBox="0 0 179 250" version="1.1" xmlns="http://www.w3.org/2000/svg" xmlns:xlink="http://www.w3.org/1999/xlink" xml:space="preserve" xmlns:serif="http://www.serif.com/" style="fill-rule:evenodd;clip-rule:evenodd;"><g id="g30887"><g id="g16050-6-4"><path id="rect13329-74-2-5" d="M178.583,8.542c-0,-4.714 -3.828,-8.542 -8.543,-8.542l-161.498,-0c-4.714,-0 -8.542,3.828 -8.542,8.542l0,232.365c0,4.714 3.828,8.542 8.542,8.542l161.498,-0c4.715,-0 8.543,-3.828 8.543,-8.542l-0,-232.365Z" style="fill:#fff;"/><rect id="use15838-4-7" x="12.928" y="13.612" width="152.728" height="222.226" style="fill:#1b05d1;stroke:#1b05d1;stroke-width:1px;"/></g><g id="g26504"><rect id="WHITE-INNER-BORDER" serif:id="WHITE INNER BORDER" x="16.165" y="16.843" width="146.252" height="215.762" style="fill:none;stroke:#fffbfb;stroke-width:1.26px;"/><g id="g26502"><rect id="WHITE-INNER-BORDER2" serif:id="WHITE INNER BORDER2" x="46.48" y="47.234" width="85.622" height="154.98" style="fill:none;stroke:#fffbfb;stroke-width:0.62px;"/><path id="path26486" d="M48.462,49.192l0,151.065l81.658,-0l-0,-151.065l-81.658,-0Zm40.83,2.669c18.482,-0 33.691,15.192 33.691,33.653c-0.007,5.467 -1.348,10.851 -3.907,15.684c5.302,6.696 8.189,14.988 8.19,23.526c-0.014,8.528 -2.907,16.807 -8.209,23.491c2.571,4.842 3.918,10.239 3.926,15.72c0,18.461 -15.209,33.653 -33.691,33.653c-0.001,-0 -0.001,-0 -0.002,-0c-18.482,-0 -33.691,-15.192 -33.691,-33.653c0.007,-5.468 1.348,-10.851 3.906,-15.685c-5.302,-6.696 -8.189,-14.989 -8.189,-23.526c0.014,-8.528 2.907,-16.806 8.209,-23.491c-2.571,-4.842 -3.919,-10.238 -3.926,-15.719c-0,-18.462 15.209,-33.653 33.691,-33.653c0.001,-0 0.001,-0 0.002,-0Z" style="fill:none;fill-rule:nonzero;stroke:#fffbfb;stroke-width:0.62px;"/><path id="WHITE-INNER-BORDER1" serif:id="WHITE INNER BORDER" d="M133.953,46.203c-0,-0.496 -0.403,-0.899 -0.9,-0.899l-87.525,-0c-0.497,-0 -0.9,0.403 -0.9,0.899l0,157.043c0,0.496 0.403,0.899 0.9,0.899l87.525,0c0.497,0 0.9,-0.403 0.9,-0.899l-0,-157.043Z" style="fill:none;stroke:#fffbfb;stroke-width:0.62px;"/><path id="path26490" d="M59.516,148.206c-5.287,-6.686 -8.164,-14.962 -8.164,-23.482c0,-8.513 2.873,-16.782 8.152,-23.466" style="fill:none;fill-rule:nonzero;stroke:#fffbfb;stroke-opacity:0.99;stroke-width:1.27px;"/><path id="path26492" d="M119.064,101.242c5.287,6.687 8.165,14.963 8.165,23.482c-0,8.513 -2.873,16.783 -8.152,23.467" style="fill:none;fill-rule:nonzero;stroke:#fffbfb;stroke-opacity:0.99;stroke-width:1.27px;"/><path id="path26494" d="M60.523,146.434c-4.729,-6.251 -7.289,-13.875 -7.289,-21.71c-0,-7.837 2.562,-15.465 7.294,-21.716" style="fill:none;fill-rule:nonzero;stroke:#fffbfb;stroke-opacity:0.99;stroke-width:0.6px;"/><path id="path26496" d="M118.059,103.016c4.728,6.25 7.288,13.874 7.288,21.708c-0,7.837 -2.561,15.464 -7.293,21.715" style="fill:none;fill-rule:nonzero;stroke:#fffbfb;stroke-opacity:0.99;stroke-width:0.6px;"/><ellipse id="BOTTOM-CIRCLE" serif:id="BOTTOM CIRCLE" cx="89.291" cy="163.934" rx="33.702" ry="33.659" style="fill:none;stroke:#fffbfb;stroke-opacity:0.99;stroke-width:1.13px;"/><ellipse id="TOP-CIRCLE" serif:id="TOP CIRCLE" cx="89.291" cy="85.514" rx="33.702" ry="33.659" style="fill:none;stroke:#fff;stroke-width:1.13px;"/></g></g></g></svg>