<?xml version="1.0" encoding="UTF-8" standalone="no"?><!DOCTYPE svg PUBLIC "-//W3C//DTD SVG 1.1//EN" "http://www.w3.org/Graphics/SVG/1.1/DTD/svg11.dtd"><svg width="100%" height="100%" viewBox="0 0 179 250" version="1.1" xmlns="http://www.w3.org/2000/svg" xmlns:xlink="http://www.w3.org/1999/xlink" xml:space="preserve" xmlns:serif="http://www.serif.com/" style="fill-rule:evenodd;clip-rule:evenodd;stroke-linejoin:round;stroke-miterlimit:2;"><g id="g4254"><g id="g11322-4-2"><path id="rect6355-6-85-3-39-1-8" d="M178.583,8.008c-0,-4.42 -3.589,-8.008 -8.008,-8.008l-162.567,0c-4.42,0 -8.008,3.588 -8.008,8.008l0,233.433c0,4.419 3.588,8.008 8.008,8.008l162.567,-0c4.419,-0 8.008,-3.589 8.008,-8.008l-0,-233.433Z" style="fill:#fff;"/><path id="path147-6-9-8-7-0-5-6-79-2-4" d="M164.811,209.47c3.141,-0.071 4.55,-3.751 2.223,-6.609c-0.337,-0.416 -0.372,-0.656 0.246,-0.255c1.567,1.09 4.571,0.373 4.725,-2.959c0.19,-4.105 -5.324,-5.288 -6.36,-0.923c-0.054,0.461 -0.414,0.45 -0.327,-0.203c0.094,-1.775 0.627,-3.433 1.359,-5.051l-3.735,0c0.732,1.618 1.265,3.276 1.359,5.051c0.087,0.653 -0.273,0.664 -0.327,0.203c-1.036,-4.365 -6.55,-3.182 -6.36,0.923c0.154,3.332 3.158,4.049 4.725,2.959c0.618,-0.401 0.583,-0.161 0.246,0.255c-2.327,2.858 -0.918,6.538 2.223,6.609c0,0 0,0 0,0l0.003,0Z" style="fill-rule:nonzero;"/><path id="path147-6-9-8-7-4-5-62-3-3-7" d="M13.773,39.979c-3.142,0.071 -4.551,3.751 -2.224,6.609c0.337,0.416 0.372,0.656 -0.246,0.255c-1.567,-1.09 -4.57,-0.373 -4.724,2.959c-0.19,4.105 5.324,5.288 6.359,0.923c0.054,-0.461 0.414,-0.451 0.328,0.203c-0.095,1.775 -0.627,3.433 -1.36,5.051l3.735,-0c-0.732,-1.618 -1.265,-3.276 -1.359,-5.051c-0.087,-0.654 0.273,-0.664 0.328,-0.203c1.035,4.365 6.549,3.182 6.359,-0.923c-0.154,-3.332 -3.158,-4.049 -4.724,-2.959c-0.619,0.401 -0.584,0.161 -0.246,-0.255c2.327,-2.858 0.918,-6.538 -2.224,-6.609c-0.001,-0 0,-0 0,-0l-0.002,-0Z" style="fill-rule:nonzero;"/><path id="path35-5-6-2" d="M13.687,11.07l0,2.764l2.684,-0c-0,-0 0.065,2.663 0.088,8.314c0.021,5.487 0.133,8.208 -0.217,9.771c-0.94,3.602 -6.159,3.621 -7.196,1.032c-0.602,-1.506 -0.442,-2.677 -0.47,-4.194l-2.885,-0c0,-0 0.017,0.763 0.021,1.698c0.017,4.049 1.358,5.986 4.496,6.75c3.226,0.872 6.999,-0.458 8.34,-3.215c0.8,-1.571 0.708,-1.679 0.728,-11.18c0.012,-6.339 0.108,-8.976 0.108,-8.976l2.47,-0l0,-2.764l-8.167,0Z" style="fill-rule:nonzero;"/><path id="path35-6-4-1-2" d="M164.894,238.379l-0,-2.764l-2.684,0c0,0 -0.065,-2.664 -0.088,-8.314c-0.021,-5.487 -0.133,-8.208 0.217,-9.771c0.94,-3.602 6.159,-3.622 7.196,-1.032c0.602,1.506 0.442,2.677 0.47,4.194l2.885,0c-0,0 -0.017,-0.763 -0.021,-1.698c-0.017,-4.05 -1.358,-5.986 -4.496,-6.75c-3.226,-0.872 -6.999,0.458 -8.34,3.215c-0.799,1.571 -0.708,1.679 -0.727,11.18c-0.012,6.339 -0.108,8.976 -0.108,8.976l-2.471,0l-0,2.764l8.167,-0Z" style="fill-rule:nonzero;"/></g><g id="g4210"><g id="g4164"><g id="g5275-8-4-5"><g id="JC"><g id="g3799-8-1-3"><path id="path3306-4-9-5" d="M129.282,23.95c0.683,-0.98 3.641,5.855 5.54,11.035c0.933,2.545 2.18,4.643 1.665,5.312c-1.352,1.373 -4.854,0.144 -7.401,-1.817c-2.721,-2.096 -4.642,-5.179 -4.642,-5.179l4.838,-9.351Zm23.87,5.066l0.108,4.02c-2.344,2.117 -5.255,4.714 -8.663,8.667l8.697,-0.017c0.604,49.651 0.547,148.456 0.473,148.446c-0,-0 -10.111,-10.272 -9.865,-10.309c0.011,-0.002 -0.288,-59.807 -0.326,-100.037c-0.08,-0.19 5.287,-0.2 5.627,-2.832c0.226,-1.74 -5.627,-1.499 -5.719,-1.615c0.012,-18.084 -0.054,-30.85 -0.054,-30.85l-5.376,-0.177l15.098,-15.296Zm-31.587,18.618c0.782,1.561 2.026,7.562 2.978,7.419c4.372,-1.454 5.781,5.017 1.257,5.35c-1.713,0.126 -3.626,-2.113 -4.699,-4.898c-0.515,-1.46 0.015,-8.455 0.464,-7.871Zm-0.985,9c1.29,2.112 2.523,9.829 4.873,9.392c2.145,-0.49 3.518,1.395 3.309,3.046c-1.1,4.638 -8.96,0.232 -11.023,-0.837c1.022,-2.329 2.466,-8.135 2.841,-11.601Zm16.587,21.757c-1.799,4.081 -1.316,7.433 0.21,11.538c-4.667,2.004 -8.835,4.205 -13.436,6.61c-0.143,0.464 -0.881,-15.703 0.863,-23.232c0.524,-1.117 2.415,-0.225 3.507,0.32c2.954,1.398 6.128,2.971 8.856,4.764Zm-82.838,73.872c0.953,7.599 -1.157,24.801 -1.157,24.801c0,-0 -11.269,-6.256 -12.051,-6.744c2.131,-3.959 -0.782,-13.157 -0.464,-11.51c0.751,-0.526 13.423,-7.315 13.672,-6.547Zm4.648,31.538c-0.203,0.487 -1.012,6.176 -1.262,6.197c-0.821,0.071 -2.025,-5.57 -4.117,-7.432c-3.951,0.457 -4.414,-2.228 -3.641,-3.525c-0.192,-0.57 1.275,-1.808 2.645,-1.69c3.407,1.335 8.001,2.516 6.375,6.45Zm45.331,9.711c-0,0 -2.97,16.724 -2.983,16.703c-7.339,1.063 -14.413,2.281 -20.956,1.538c1.291,-17.383 3.323,-32.416 8.899,-35.024l-11.552,-9.317c-0,0 -12.828,8.019 -12.096,7.899c0.317,-0.085 0.567,-6.821 0.754,-17.712c-0.325,-28.426 -16.646,-57.204 -17.279,-56.915c-0.346,-0.232 13.903,-1.348 24.146,3.075l0.46,-37.642c0,0 -5.076,-2.54 -6.016,-3.715c-1.875,-6.549 3.179,-8.222 6.209,-6.585c1.417,-4.977 3.571,-17.281 3.649,-17.277c6.841,-1.134 13.917,-2.013 20.913,-1.613c-1.174,5.789 -1.917,10.195 -2.295,16.018c-0.883,8.683 -2.658,16.908 -7.215,18.863c0.811,-0.322 11.329,8.98 11.329,8.98l12.925,-7.964c-4.155,27.089 2.947,53.398 15.204,74.681c-6.176,0.714 -13.17,0.375 -24.084,-2.898c0,0 0.614,37.715 0.618,37.506c12.074,4.77 5.484,14.058 -0.63,11.399Zm-46.957,3.376c-0.044,0.384 -0.22,4.644 -0.22,4.644c-1.709,-2.011 -3.086,-7.906 -3.426,-7.806c-0,-0 -2.194,0.345 -2.877,-0.384c-2.226,-2.377 -0.037,-5.185 2.187,-4.659c2.213,0.57 4.645,4.368 4.336,8.205Zm-22.695,-127.869c0,0 0.474,66.885 0.462,100.409c-8.44,-0.132 -6.784,4.57 0.112,4.075l0.023,30.909l4.572,0.16c-0,-0 -8.606,9.009 -14.062,14.762l-0.125,-2.925l8.304,-8.984l-8.598,0.015l-0.03,-148.312l9.342,9.891Zm14.358,155.349c-2.082,0.455 -4.254,-9.177 -7.866,-15.022c4.105,-2.468 10.579,2.225 12.034,5.99c-0.948,3.191 -4.227,8.998 -4.168,9.032Z" style="fill:#bdbdbd;fill-rule:nonzero;"/><path id="path3304-4-6-6" d="M23.693,19.125l-0,211.2l131.199,-0l0,-211.2l-131.199,-0Zm43.174,0.817l63.164,0.05c-0.884,1.786 -1.723,4.094 -1.723,4.094c1.93,0.777 3.427,3.674 4.354,6.118c0.813,2.144 2.221,7.381 4.074,9.932c-3.242,1.847 -11.392,-2.274 -12.554,-7.885l-2.732,4.661c-18.5,-3.597 -38.515,-0.985 -44.641,-0.134c-3.004,-5.759 -7.285,-10.898 -9.942,-16.836Zm79.966,0.667c2.334,0.004 4.48,0.013 6.058,0.032l0,7.444l-16.533,17.005l6.55,0.279l-0.227,29.318c-2.395,0.501 -5.209,3.011 -5.209,3.011l-11.105,-5.952c0,0 2.88,-1.211 2.801,-3.143c-0.115,-2.161 -1.404,-3.928 -3.963,-3.266c-0.587,0.086 -0.855,-0.158 -1.421,-1.485c-1.084,-2.54 -2.155,-5.33 -1.737,-5.244c1.363,1.093 1.159,1.153 2.762,1.876c2.991,0.827 4.812,-1.968 3.867,-4.23c-0.881,-2.086 -2.346,-2.206 -3.815,-1.992c-0.215,-0.05 -0.398,-0.287 -0.543,-0.56c-0.467,-0.95 -1.174,-2.641 -1.728,-5.241c-0.853,-4.009 -1.045,-9.027 -0.422,-10.29c0.861,-1.744 2.05,-4.107 2.05,-4.107c2.316,4.434 7.363,8.319 13.035,6.944c0.191,-0.12 0.229,-0.746 -0.028,-1.113c-2.09,-3.338 -2.443,-6.208 -3.77,-9.577c-1.396,-3.526 -2.442,-5.132 -4.078,-6.435l1.781,-3.242c0,0 8.675,-0.043 15.675,-0.032l0,-0Zm-121.092,0.154l39.923,0l10.286,17.404c0.203,0.344 0.5,0.222 0.725,0.553l-3.049,16.351c-4.8,-2.219 -8.838,3.522 -6.218,8.174c-14.795,5.426 -31.824,18.985 -31.824,18.985l-0.111,-13.457l-9.732,-10.119l-0,-37.891Zm127.669,8.115c-0.592,16.582 0.241,-1.963 -0.219,52.905l0.324,104.639c0.581,1.75 0.825,2.433 0.6,4.197l-10.25,-10.87l-0.013,-30.417c-0,0 -9.697,-14.382 -11.93,-21.025c-5.912,-14.706 -7.462,-23.25 -8.178,-35.32l1.074,-1.712l-1.198,-1.54l-0.007,-4.109l1.596,-1.63l-1.461,-1.859l0.406,-3.837l1.139,-1.018c-1.014,-1.127 -0.67,-2.724 -0.496,-3.84c0.289,-0.875 0.763,-0.752 1.466,-0.582c3.649,0.989 7.336,3.628 10.706,5.671c-0.147,1.997 -2.609,6.55 0.818,11.573c1.267,0.953 4.945,0.604 5.267,0.748l-0.028,15.468l-2.588,0.15l1.944,-2.195l-2.641,0.199l1.792,-1.869l-2.75,-0.112l2.022,-2.098l-2.703,0.054l1.998,-2.026l-2.55,-0.074l1.685,-1.854l-2.805,0.216l2.047,-2.218l-3.005,0.055l2.278,-2.07l-2.997,0.021l0.899,-1.029l-0.798,-0.402c-0.815,0.381 -5.672,2.953 -5.672,2.953c0.042,0.423 4.113,-1.097 4.296,-1.022c1.227,5.429 6.512,17.436 9.999,20.938l0.244,-33.932c0.533,-0.496 1.384,-0.25 1.927,-0.47c1.768,0.092 4.722,-2.876 3.179,-3.464c-0.807,-0.179 -5.276,-0.946 -5.289,-1.17c0.234,-9.661 0.341,-19.722 -0.069,-30.221c-1.249,-0.186 -5.334,-0.42 -5.334,-0.42c0,-0 14.981,-15.698 15.275,-15.382l0,0Zm-57.857,7.867c2.059,0 3.339,0.2 3.046,0.73c-0.076,0.269 0.484,-0.56 0.484,-0.56c0,-0.359 14.727,0.369 21.99,1.759c0.122,1.002 -0.133,1.467 -0.052,3.318c-4.44,-0.74 -7.676,0.715 -8.651,3.843c-0.592,1.696 -0.315,3.223 0.589,7.758c0.877,4.404 0.887,3.929 0.783,4.525c-0.123,0.698 -0.874,1.478 -1.953,2.357c-0.533,0.434 -0.655,1.349 -0.655,1.349c0,-0 0.357,-0.186 0.555,-0.448c0.48,-0.639 1.103,-0.573 1.811,-0.944c1.668,-0.874 1.613,-1.721 0.629,-5.337c-0.356,-1.456 -0.86,-2.877 -1.032,-4.366c0,-0 0.572,0.449 1.252,0.918c1.063,0.661 1.925,1.387 3.152,1.587c-1.192,-1.271 -2.407,-1.803 -3.34,-3.109c2.322,0.806 4.985,0.48 6.374,-0.166c0,-0 -0.283,1.826 -0.394,4.283c-0.282,6.215 -1.74,12.839 -5.857,16.667c-5.893,5.479 -15.576,1.762 -20.949,-3.314l-0.582,0.886c3.608,3.04 9.86,6.834 15.949,6.097c-2.546,2.132 -8.162,5.664 -8.162,5.664c-3.852,-2.805 -6.693,-5.603 -10.921,-8.64l-0.735,0.489l11.628,9.26l12.528,-8.295c-0,-0 -0.521,7.958 -0.717,10.867l5.436,-4.825l-4.193,-6.232l4.444,-4.591c0,0 -0.752,0.106 0.069,-1.311c2.49,-6.736 2.841,-13.243 3.473,-20.118c0.411,2.569 0.895,3.918 1.842,6.249c0.87,2.245 1.211,2.229 2.191,1.901c5.315,-0.448 2.909,9.849 -3.372,3.114c-0.276,-0.286 -0.73,-0.636 -0.751,-0.568c-0.13,0.413 1.666,5.835 2.362,7.086c0.735,1.321 0.742,1.507 1.833,1.394c2.043,-0.211 2.735,0.52 2.942,2.679c-0.272,4.083 -4.672,2.359 -7.49,1.104c-0.255,-0.196 1.322,1.442 1.886,2.019c0.768,0.785 0.892,1.287 0.892,1.287l-0.166,2.166l-4.313,3.954l3.545,5.256l-0.147,1.878l-3.789,4.565l4.037,4.399l0.05,1.568l-3.281,4.384l4.396,3.54l0.214,1.412c-0,0 -2.823,5.244 -2.747,5.435c0.064,0.16 4.765,3.419 4.765,3.419l0.473,2.208l-2.043,5.597l4.886,2.801l0.894,2.529l-1.374,5.186l5.066,2.35l1.445,2.921l-0.94,5.451l5.678,1.689l1.506,2.396l-0.197,4.793l1.45,0.144l-0,1.387l-1.628,-0.216l-0.245,6.611l1.873,0.162l-0,1.242l-2.356,-0l-0.961,-0.982l0.453,-7.434l-7.263,-1.217l-0.69,-0.935l1.217,-6.889l-6.818,-1.981l-0.918,-1.668l1.933,-7.167l-6.872,-3.034l-0.453,-1.33l2.917,-6.362l-6.314,-3.08l-0.396,-1.526l3.506,-6.558l-6.256,-4.572l0.184,1.161l5.05,3.621l-2.925,5.597c0.03,2.361 2.014,7.751 2.828,10.267l-9.638,6.508c4.129,2.497 9.341,2.415 14.124,3.351c-0,-0 0.21,0.668 0.569,1.268c1.392,2.241 2.644,5.092 4.197,8.033c-1.144,0.541 -2.868,0.712 -2.868,0.712c-3.398,10.266 -0.556,24.463 -6.386,32.376c0,-0 -0.123,0.05 -0.201,0.073c-0.547,0.188 -0.93,-0.723 -0.93,-1.337c-0,-0.693 0.489,-1.272 1.14,-1.403l0,-0.72c-1.049,0.138 -1.86,1.032 -1.86,2.123c0,0.649 0.288,1.229 0.74,1.622c-0.264,0.076 -1.028,0.434 -1.028,0.434l-1.784,-1.959l3.938,-3.899l0.007,-1.306c-1.676,1.75 -5.038,5.205 -5.038,5.205l2.146,2.265l-1.061,0.496l-1.739,-1.92l-3.903,4.026l-0.999,-0.685c1.315,-1.733 2.171,-2.297 4.138,-4.345c-1.009,-1.199 -4.789,-4.86 -4.931,-4.997l-0.01,1.308l3.868,3.767l-3.921,3.871c-0,-0 -2.389,-0.755 -3.337,-1.107c1.287,1.064 3.599,1.976 4.855,2.896c5.693,3.372 0.286,10.345 -4.964,8.613c-0.15,-0.561 -2.875,16.49 -2.875,16.49c-0,0 -17.316,1.71 -21.058,1.745c0.517,-2.466 1.436,-11.381 1.436,-11.381c1.021,-8.672 1.809,-19.569 7.507,-23.173c0,0 -0.873,-0.933 -1.626,-1.409c-0.018,0.012 0.671,0.711 0.694,0.793c-0,0.252 -0.147,0.411 -0.314,0.544c-1.207,0.983 -2.68,3.021 -2.626,3.074c-4.703,-4.101 -12.063,-7.632 -16.499,-6.166c-1.75,0.369 -2.527,2.062 -3.455,0.688c3.132,-19.331 -1.252,-40.109 -6.36,-54.89c1.61,-0.571 9.869,-6.133 9.869,-6.133c-4.274,-2.616 -13.141,-2.063 -14.627,-3.074c-0.583,0.326 -0.976,0.952 -0.976,1.669c0,1.053 0.846,1.906 1.894,1.906c0.197,0 0.387,-0.029 0.565,-0.085c0.494,1.216 0.915,2.279 0.915,2.279l-5.563,-2.432l1.813,-6.112l-0.608,-1.356l-2.212,7.959l7.1,3.054l0.481,1.412l-2.944,6.038l6.349,3.777l0.268,1.202l-3.417,6.482l6.148,4.743l-4.498,5.835l5.535,4.669l-0.062,0.774l-4.586,5.302l4.741,4.894l0.132,1.981l-5.167,4.613l4.462,6.508c-1.86,1.255 -2.899,2.687 -4.118,4.114l-1.089,-0.479l3.964,-3.016l-4.235,-6.143l-4.465,4.05l2.42,3.965l-1.476,-0.673l-1.352,-2.125l0.221,-2.17l4.412,-4.034l-3.793,-5.517l-0.031,-1.011c0,0 2.359,-2.722 4.076,-4.746l-4.807,-5.326l3.932,-5.039l-4.947,-4.228l0.139,1.268l3.65,3.092l-2.802,3.408c-0.201,2.054 0.244,5.579 -0.8,7.126c1.688,1.659 0.805,5.658 -0.024,6.954c1.613,1.917 0.691,6.126 -0.338,6.304c1.231,1.55 0.741,4.693 -0.289,5.715c-0.329,0.177 4.397,1.888 7.378,3.944c-2.48,4.636 -1.902,8.997 -2.684,10.569c-1.073,-3.11 -2.448,-6.418 -3.634,-8.799c-0.125,-0.247 -0.388,-0.192 -0.782,-0.199c-4.929,-0.44 -4.46,-4.521 -0.763,-5.566c-3.68,-1.809 -8.468,-5.706 -11.211,-6.744c0.541,-1.123 0.852,-3.065 0.933,-4.773c0.274,-2.542 -0.949,-6.443 -0.949,-6.443l1.561,-0.968c0.311,-1.342 2.056,-1.37 2.225,-2.326c-0.369,-4.108 -8.356,-19.837 -10.042,-21.614c-0.639,11.224 0.581,23.407 -0.03,34.609c-7.529,-0.026 -9.138,4.013 -0.04,4.655c-0.171,10.164 -0.009,30.582 -0.009,30.582l5.377,0.038c-0,-0 -13.288,13.894 -14.541,15.066c-1.135,-48.414 -1.084,-160.312 -1.084,-160.312l10.153,10.201l0.111,31.783c3.399,3.457 5.346,8.499 7.369,11.765l5.552,2.71l-1.305,4.479l0.559,1.274l1.733,-6.338l-6.074,-2.898l-0.643,-1.312l1.023,-5.971l-5.749,-1.981l-0.996,-1.373l0.36,-5.832l-1.206,-0.365l-0,-1.156l1.199,0.101l0.427,-6.547l-1.626,-0.479l-0,-2.255c1.24,0.698 2.187,1.401 3.112,2.539l-0.573,7.271l7.287,1.467l0.541,0.77l-1.339,7.268l7.65,2.35c-0.785,-1.94 -1.826,-3.755 -2.692,-5.665c1.05,-0.306 2.148,-0.374 3.212,-0.602c0.287,-9.818 -0.046,-20.034 0.259,-29.268c2.733,-0.77 4.078,-2.563 5.947,-3.074c0.697,-0 1.262,0.569 1.262,1.269c0,0.635 -0.465,1.155 -1.071,1.248l0,0.639c0.956,-0.098 1.706,-0.9 1.706,-1.887c-0,-0.672 -0.347,-1.263 -0.871,-1.603l1.06,-0.382l1.857,2.109l-3.752,3.614l0,1.091l4.712,-4.732l-2.084,-2.415l1.241,-0.647l1.901,2.012c-0,-0 4.093,-4.207 3.839,-4.284c-3.58,-4.573 -0.065,-10.181 5.361,-8.056c1.223,-5.815 2.388,-11.063 3.349,-17.086c-1.279,-0.154 11.901,-1.955 18.077,-1.953l0.001,-0Zm10.046,4.52c-2.44,-0.046 -5.535,1.19 -7.456,2.14c-1.766,0.787 -1.427,1.264 -0.322,0.925c1.6,-0.424 3.3,-0.852 4.854,-1.152c1.665,-0.327 4.09,-0.026 5.357,0.6c0.936,0.462 1.263,0.189 0.852,-0.709c-0.595,-1.288 -1.822,-1.777 -3.285,-1.804Zm12.393,1.938c1.084,0.033 2.167,0.487 2.971,1.564l-0.044,0.993c-1.94,-1.707 -5.227,-1.121 -7.072,-0.135c0.529,-1.359 2.338,-2.476 4.145,-2.422l0,0Zm-15.333,1.027c-1.635,0.014 -3.198,0.31 -4.404,1.526c2.356,-0.961 5.805,-1.053 8.318,-0.068c0.506,0.182 1.352,0.832 1.352,0.832l-0.34,0.222c-0,-0 -0.729,-0.024 -1.366,-0.248c-2.288,-0.809 -5.111,-0.951 -7.673,0.21c-0.656,0.293 -1.191,0.675 -1.855,0.901l0.015,0.786c0.979,0.016 1.897,0.524 2.557,0.896c2.245,1.244 3.34,1.118 5.477,1.105c0.496,-0.003 1.128,-0.161 1.128,-0.161c0,-0 -0.849,0.659 -1.467,0.864c-1.6,0.699 -2.731,0.79 -4.229,1.641c2.272,-0.182 5.551,-1.093 7.462,-2.477c1.312,-1.027 1.671,-1.283 1.115,-1.692c-0.509,-0.374 -0.9,-0.388 -0.201,-1.105c0.248,-0.256 0.671,-0.791 0.671,-0.895c-0.008,-0.514 -3.111,-2.164 -4.912,-2.279c-0.55,-0.035 -1.103,-0.062 -1.648,-0.058l-0,0Zm14.73,1.092c1.226,-0.049 2.37,0.296 3.422,1.502l-0.054,0.562c-2.367,-1.843 -5.157,-1.141 -7.326,-0.391c0.592,-0.78 1.826,-1.318 2.706,-1.51c0.426,-0.086 0.844,-0.146 1.252,-0.163l-0,0Zm-16,2.133l0.519,0.011c0.481,2.571 2.448,1.988 2.89,0.155l0.612,0.176c-0.51,1.328 -1.248,1.865 -1.952,1.894c-1.03,0.042 -1.988,-1.001 -2.069,-2.236l-0,-0Zm-0.661,0.008c0.127,0.709 0.693,1.757 0.873,1.921c-0.091,-0.021 -1.137,-0.267 -1.475,-0.413c-1.327,-0.574 -1.465,-0.8 -0.787,-1.159c0.46,-0.244 0.897,-0.329 1.389,-0.349Zm15.391,0.456c0.15,0.01 0.27,0.041 0.312,0.069c0.339,2.079 1.91,1.646 2.293,0.263c0.18,-0.017 0.406,0.011 0.713,0.121c-0.56,1.105 -1.346,1.646 -2.064,1.645c-0.814,0 -1.543,-0.694 -1.751,-2.042c0.167,-0.055 0.347,-0.066 0.497,-0.056l0,-0Zm-10.209,0.015c0,-0 0.851,0.366 1.045,0.668c0.133,0.3 -0.176,0.533 -0.836,0.742c-0.301,0.096 -1.18,0.118 -1.18,0.118c0.506,-0.495 0.624,-0.829 0.971,-1.528Zm8.917,0.064c0.069,-0.002 0.131,0.003 0.183,0.016c0.226,1.273 0.581,1.452 0.888,1.945c-0.942,0.071 -2.486,-0.658 -2.557,-1.011l0.008,-0.238c0.164,-0.308 0.993,-0.693 1.477,-0.712l0.001,0Zm5.112,0.575l0.688,0.355l-0.092,0.521c-0.545,0.252 -1.116,0.421 -1.723,0.483c0.367,-0.256 0.75,-0.833 1.127,-1.359Zm-12.31,6.738c-0.443,0.026 -1.16,0.526 -1.651,1.194c-1.941,2.643 0.195,5.314 2.886,3.787c0.606,-0.343 1.452,-0.447 2.067,-0.853c1.3,-0.901 0.082,-1.65 -0.821,-1.463c-0.369,0.085 -0.798,0.27 -1.271,0.585c-1.629,1.085 -2.532,0.927 -2.686,-0.388c-0.166,-1.42 2.013,-2.06 1.81,-2.72c-0.068,-0.107 -0.186,-0.151 -0.334,-0.142Zm-3.097,7.622c-0.22,0.066 -0.433,0.822 -0.901,2.062c-0.321,0.789 -0.42,1.449 -0.1,1.445c0.107,-0.002 0.262,-0.078 0.47,-0.246c0.6,-0.4 1.538,-0.936 3.803,-0.311c1.245,0.411 2.642,0.051 3.455,-0.178c0.634,-0.179 1.543,-0.355 2.27,-0.021c0.711,0.343 1.49,0.863 1.345,0.326c-0.036,-0.136 -0.08,-0.922 -0.09,-1.388c-0.023,-1.097 -0.098,-2.012 -0.887,-1.151c-0.341,0.373 -0.753,0.375 -1.526,0.069c-0.55,-0.218 -0.937,-0.365 -1.364,-0.085c-0.604,0.397 -1.126,0.497 -2.242,0.118c-0.529,-0.181 -1.085,-0.197 -1.755,0.217c-1.114,0.688 -1.82,0.019 -2.247,-0.685c-0.085,-0.139 -0.158,-0.194 -0.231,-0.172l-0,0Zm-34.419,1.455l-4.375,4.494l4.204,4.407l-0,-1.055l-3.146,-3.309l3.01,-3.073c0.439,-0.604 1.561,-0.473 1.913,-0.515c-0.243,-0.751 -0.916,-0.658 -1.606,-0.949Zm-0.171,2.679c-0.967,0.088 -1.728,0.894 -1.728,1.888c0,0.994 0.761,1.802 1.728,1.89l-0,-0.639c-0.616,-0.084 -1.092,-0.609 -1.092,-1.251c0,-0.641 0.476,-1.166 1.092,-1.25l-0,-0.638Zm35.827,0.091c-0.089,-0.007 -0.152,0.005 -0.188,0.035c-0.299,0.259 0.754,1.27 1.763,1.46c0.773,0.145 1.771,0.026 1.771,0.147c-0.422,0.104 -0.92,0.326 -1.137,0.479c-0.047,0.316 0.185,0.643 0.46,0.687c0.296,0.049 0.528,-0.262 0.752,-0.352c0.189,-0.072 0.449,-0.028 0.655,-0.028c0.659,-0.002 1.478,0.467 1.658,0.382c0.207,-0.098 0.243,-0.584 0.127,-0.726c-0.4,-0.316 -0.905,-0.444 -1.414,-0.579c-0,0 0.592,-0.128 0.819,-0.182c0.335,-0.079 0.604,-0.1 0.817,-0.404c0.132,-0.19 0.144,-0.52 -0.082,-0.516c-1.316,0.019 -2.986,0.562 -4.56,0.032c-0.675,-0.242 -1.173,-0.416 -1.441,-0.435l0,0Zm13.386,1.736l-4.32,3.712l3.696,5.406l4.717,-3.804l-3.037,-4.677l-1.056,-0.637Zm-54.4,0.876l-4.458,4.737l4.643,4.681l4.506,-4.525l-4.691,-4.893Zm54.279,2.458c0.655,0 1.186,0.537 1.186,1.195c-0,0.658 -0.531,1.19 -1.186,1.19c-0.655,0 -1.189,-0.532 -1.189,-1.19c0,-0.658 0.533,-1.195 1.189,-1.195Zm-54.174,1.207c0.655,-0 1.188,0.535 1.188,1.193c0,0.658 -0.533,1.19 -1.188,1.19c-0.656,0 -1.186,-0.532 -1.186,-1.19c-0,-0.658 0.53,-1.193 1.186,-1.193Zm48.631,0.824l3.265,4.797l-3.948,3.4c0.064,-0.798 0.107,-1.443 0.148,-2.031c0.885,-0.263 1.534,-1.087 1.534,-2.062c0,-0.864 -0.51,-1.608 -1.243,-1.95c0.059,-0.616 0.135,-1.297 0.244,-2.154Zm-54.332,0.871l0,1.28l3.627,3.751l-3.625,3.797l0.074,1.217l4.83,-4.948l-4.906,-5.097Zm10.783,0.284l-4.501,4.766l4.501,4.689l-0,-1.512l-3.084,-3.255l3.084,-3.18l-0,-1.508Zm73.556,0.345c0.689,-0.023 1.437,0.05 2.292,0.208c-0.392,1.552 1.251,2.389 1.488,2.045c0.03,-0.005 0.156,-0.276 -0,-0.295c-1.179,-0.145 -1.086,-1.556 -0.946,-1.562c1.302,0.04 2.148,0.018 2.282,0.601c0.082,0.359 -0.127,0.913 -0.886,1.537c-0.892,0.717 -4.997,0.701 -4.997,0.701c-0.016,-0.006 0.009,1.171 -0.403,1.847c-0.362,0.594 -0.864,1.253 -0.52,1.525c0.592,0.276 0.993,0.943 1.077,1.712c0.16,1.613 -0.092,5.495 -0.035,5.536c-0.691,0.066 -1.484,0.141 -2.247,0.14c-1.272,-0.002 -2.459,-0.22 -2.943,-1.07c-1.948,-2.62 -1.388,-8.004 -0.04,-9.855c2.274,-2.072 3.807,-3.001 5.874,-3.07l0.004,0Zm-19.944,0.744l-0.085,1.093c-0.944,0.225 -1.645,1.077 -1.645,2.093c-0,0.9 0.55,1.669 1.331,1.988l-0.119,1.537l-2.731,-3.847l3.249,-2.864Zm-10.378,0.701c0.361,0.26 0.598,0.681 0.598,1.159c-0,0.548 -0.309,1.025 -0.76,1.264c0.059,-0.913 0.101,-1.663 0.162,-2.423Zm-43.234,1.067c-0.896,0.171 -1.58,0.927 -1.58,1.871c-0,0.943 0.684,1.717 1.58,1.869l-0,-0.65c-0.542,-0.141 -0.942,-0.63 -0.942,-1.219c0,-0.59 0.4,-1.082 0.942,-1.225l-0,-0.646Zm-10.734,0.072c-0.03,0.253 0.01,0.46 -0,0.639c0.697,0 1.262,0.571 1.262,1.271c0,0.701 -0.565,1.266 -1.262,1.266c-0.021,0.265 0.017,0.522 -0,0.637c1.048,0 1.898,-0.85 1.898,-1.903c0,-1.052 -0.85,-1.91 -1.898,-1.91Zm64.203,0.028l-0.197,2.532c-0.403,-0.252 -0.674,-0.701 -0.674,-1.214c0,-0.594 0.359,-1.101 0.871,-1.318Zm-5.07,1.863l-4.676,4.676l4.524,5.007l4.138,-4.485l-3.986,-5.198Zm-53.559,0.47l-4.463,4.782l4.56,4.681l4.621,-4.619l-4.718,-4.844Zm53.377,3.207c0.655,-0 1.188,0.537 1.188,1.195c0,0.658 -0.533,1.19 -1.188,1.19c-0.656,0 -1.187,-0.532 -1.187,-1.19c0,-0.658 0.531,-1.195 1.187,-1.195Zm-53.273,0.466c0.655,-0 1.186,0.534 1.186,1.192c0,0.658 -0.531,1.19 -1.186,1.19c-0.655,-0 -1.189,-0.532 -1.189,-1.19c0,-0.658 0.533,-1.192 1.189,-1.192Zm47.485,1.117l0.015,1.19l3.991,4.201l-3.739,4.378l0.085,1.283l4.786,-5.727l-5.138,-5.325Zm-53.125,0.424c-0.067,0.391 -0.068,0.785 -0.087,1.177l3.76,3.811l-3.549,3.68l-0.139,1.435l4.924,-4.995l-4.909,-5.108Zm10.696,0.621l-4.323,4.476l4.323,4.376l-0,-1.352l-2.983,-3.048l2.983,-3.058l-0,-1.394Zm52.915,1.269l0.023,1.055c-0.761,0.33 -1.293,1.092 -1.293,1.977c-0,0.917 0.571,1.695 1.375,2.003l0.022,1.086l-2.859,-3.02l2.732,-3.101Zm-83.468,0.498l1.395,1.693c-0.237,0.319 -0.379,0.715 -0.379,1.144c-0,1.052 0.85,1.903 1.898,1.903c0.299,-0 0.581,-0.072 0.833,-0.196l1.696,2.059l-5.799,-1.101l0.356,-5.502Zm19.77,0.537l0,0.638c0.687,0.012 1.242,0.572 1.242,1.265c0,0.692 -0.555,1.253 -1.242,1.265l0,0.638c1.038,-0.012 1.876,-0.858 1.876,-1.903c0,-1.045 -0.838,-1.891 -1.876,-1.903Zm53.227,0.133l0,0.751c0.55,0.199 0.946,0.727 0.946,1.347c0,0.619 -0.396,1.143 -0.946,1.341l0,0.751c0.95,-0.219 1.663,-1.072 1.663,-2.092c-0,-1.021 -0.712,-1.878 -1.663,-2.098Zm-42.444,0.227c-0.841,0.195 -1.469,0.95 -1.469,1.854c0,0.905 0.628,1.66 1.469,1.855l-0,-0.666c-0.485,-0.176 -0.833,-0.639 -0.833,-1.189c-0,-0.549 0.348,-1.012 0.833,-1.189l-0,-0.665Zm52.954,0.469l0.05,2.361c-0.389,-0.254 -0.643,-0.692 -0.643,-1.193c0,-0.48 0.233,-0.909 0.593,-1.168l0,-0Zm-81.686,0.84l1.503,1.83c-0.129,0.044 -0.267,0.066 -0.41,0.066c-0.697,-0 -1.264,-0.565 -1.264,-1.265c-0,-0.229 0.066,-0.445 0.171,-0.631Zm77.312,1.249l-4.295,5.058l4.788,3.711l3.703,-4.726l-4.196,-4.043Zm-53.636,0.085l-4.586,4.697l3.257,3.576l-1.611,-0.153c-0.679,-0.778 -1.427,-2.016 -2.676,-2.676l0.123,0.933c0.064,-0.044 1.516,1.372 1.286,1.603l-1.281,-0.094c-0.103,0.028 -0.05,0.473 -0.05,0.473c3.433,0.332 6.948,1.005 10.603,2.266l-0.096,-0.655l-0.572,-0.251c-0,-0 0.359,-0.435 0.659,-0.77l0,-1.18l-1.523,1.732l-0.735,-0.272l2.258,-2.304l0,-0.871l-2.991,2.949l-1.46,-0.404l3.979,-3.934l-4.584,-4.665Zm53.555,3.254c0.655,0 1.186,0.532 1.186,1.19c-0,0.658 -0.531,1.194 -1.186,1.194c-0.655,-0 -1.184,-0.536 -1.184,-1.194c-0,-0.658 0.529,-1.19 1.184,-1.19Zm-53.679,0.341c0.656,0 1.189,0.534 1.189,1.192c0,0.658 -0.533,1.19 -1.189,1.19c-0.654,0 -1.185,-0.532 -1.185,-1.19c-0,-0.658 0.531,-1.192 1.185,-1.192Zm-26.794,0.231l-0.481,5.944l5.936,1.991l0.987,-6.555l-6.442,-1.38Zm-2.404,0.373l0.454,0.101l-0.166,3.175l-0.288,-0.052l-0,-3.224Zm77.083,1.108l0.088,1.268l4.176,2.997l-3.177,4.248l0.271,1.502l4.355,-5.762l-5.713,-4.253Zm-65.971,0.592l1.34,2.237c-0.364,0.348 -0.593,0.836 -0.593,1.381c0,1.053 0.846,1.906 1.894,1.906c0.213,0 0.418,-0.036 0.609,-0.101l1.22,2.035l-5.687,-1.794l1.217,-5.664Zm76.56,0.202l0.125,0.93c-0.55,0.389 -0.91,1.034 -0.91,1.762c-0,0.931 0.59,1.718 1.414,2.016l0.104,0.794l-3.041,-2.258l2.308,-3.244Zm-82.174,0.318c0.656,0 1.186,0.534 1.186,1.192c0,0.658 -0.53,1.191 -1.186,1.191c-0.655,-0 -1.184,-0.533 -1.184,-1.191c0,-0.658 0.529,-1.192 1.184,-1.192Zm82.416,1.483l0.27,2.038c-0.788,-0.696 -0.741,-1.247 -0.27,-2.038Zm-10.499,0.193l0.093,0.729c0.694,0.095 1.233,0.689 1.233,1.412c-0,0.598 -0.369,1.103 -0.889,1.315l0.093,0.735c0.873,-0.271 1.512,-1.085 1.512,-2.05c0,-1.153 -0.907,-2.088 -2.042,-2.141Zm-64.621,0.605l1.227,2.055c-0.086,0.018 -0.176,0.03 -0.268,0.03c-0.697,0 -1.258,-0.567 -1.258,-1.268c0,-0.312 0.113,-0.595 0.299,-0.817l-0,0Zm70.873,1.571l-3.486,5.311l4.908,3.424l3.041,-5.306l-4.463,-3.429Zm-80.997,1.72l3.96,1.424l-0.631,3.762l-0.776,-1.205c0.242,-0.32 0.389,-0.717 0.389,-1.148c-0,-1.053 -0.855,-1.908 -1.903,-1.908c-0.142,0 -0.282,0.015 -0.415,0.044l-0.624,-0.969Zm6.249,1.213l-1.209,6.249l5.874,2.664l1.649,-6.601l-6.314,-2.312Zm75.26,0.177c0.655,-0 1.189,0.532 1.189,1.19c0,0.658 -0.534,1.19 -1.189,1.19c-0.655,0 -1.186,-0.532 -1.186,-1.19c0,-0.658 0.531,-1.19 1.186,-1.19Zm-80.505,0.175c0.012,-0.001 0.023,-0 0.035,-0c1.106,0.021 1.573,0.934 1.135,1.823l-1.17,-1.823Zm103.809,1.312l-0.016,1.393l-1.658,0.291l1.674,-1.684Zm-18.276,0.815l0.259,1.214c-0.555,0.389 -0.918,1.031 -0.918,1.762c-0,1.052 0.75,1.927 1.743,2.112l0.268,1.258l-3.35,-2.323c-0,-0 1.082,-2.623 1.998,-4.023Zm-77.746,0.759c0.655,-0 1.189,0.532 1.189,1.19c-0,0.658 -0.534,1.195 -1.189,1.195c-0.655,-0 -1.186,-0.537 -1.186,-1.195c-0,-0.658 0.531,-1.19 1.186,-1.19Zm96.042,0.627c-0,0 -0.008,0.97 -0,1.395l-0.945,-0.273l0.945,-1.122Zm-17.866,0.625l0.484,2.276c-0.504,-0.219 -0.855,-0.723 -0.855,-1.311c-0,-0.372 0.139,-0.71 0.371,-0.965Zm-10.316,1.599c-0.077,-0 -0.148,0.02 -0.223,0.029c0.087,0.298 0.156,0.474 0.223,0.691c0.786,-0 1.425,0.642 1.425,1.431c0,0.586 -0.359,1.073 -0.86,1.293l0.166,0.72c0.822,-0.299 1.411,-1.084 1.411,-2.013c-0,-1.187 -0.961,-2.151 -2.142,-2.151l-0,-0Zm-60.372,0.285c0.277,0.627 0.658,1.246 1.003,2.088c-0.102,0.027 -0.133,0.047 -0.244,0.047c-0.697,0 -1.26,-0.564 -1.26,-1.264c0,-0.459 0.137,-0.648 0.501,-0.871Zm66.604,1.256l-2.773,6.209l5.54,3.271l2.56,-5.956l-5.327,-3.524Zm-76.216,2.303c-0.233,0.002 -0.442,0.025 -0.629,0.069c-0.547,0.736 0.228,3.556 1.681,3.523c0.531,-0.342 0.847,-1.006 0.847,-1.686c-0,-1.053 -0.85,-1.912 -1.899,-1.906Zm5.144,0.42l-1.575,6.006l5.706,3.195l2.18,-5.871l-6.311,-3.33Zm-5.144,0.218c0.697,0.032 1.263,0.568 1.263,1.268c-0,0.399 -0.183,0.755 -0.469,0.988c-1.091,0.821 -1.251,-2.363 -1.075,-2.199c0.079,-0.041 0.172,-0.062 0.281,-0.057l0,-0Zm77.391,0.739c0.655,-0 1.185,0.537 1.186,1.195c-0,0.658 -0.531,1.19 -1.186,1.19c-0.656,0 -1.185,-0.532 -1.185,-1.19c0,-0.658 0.529,-1.195 1.185,-1.195Zm5.027,2l0.474,1.521c-0.322,0.377 -0.519,0.865 -0.519,1.4c-0,1.003 0.683,1.841 1.607,2.078l0.415,1.33l-3.6,-2.111l1.623,-4.218Zm-75.122,0.451c0.655,0 1.184,0.532 1.184,1.19c0,0.659 -0.529,1.191 -1.184,1.191c-0.656,-0 -1.186,-0.532 -1.186,-1.191c-0,-0.658 0.53,-1.19 1.186,-1.19Zm6.135,0.902l0.693,2.319c-0.501,0.344 -0.832,0.92 -0.832,1.576c-0,1.045 0.837,1.893 1.874,1.906l0.581,1.938l-4.652,-2.677l2.336,-5.062Zm69.747,1.078l0.519,1.662c-0.366,-0.258 -0.608,-0.687 -0.608,-1.172c0,-0.172 0.033,-0.337 0.089,-0.49Zm-10.502,0.53l4.734,2.492c-0.664,1.791 -1.231,3.031 -2.2,4.801c-0.361,-0.655 -0.632,-1.34 -0.88,-2.042c0.568,-0.386 0.942,-1.037 0.942,-1.777c-0,-1.144 -0.892,-2.082 -2.014,-2.148c-0.043,-0.003 -0.24,-0.031 -0.24,-0.031l-0.342,-1.295Zm-70.105,0.829l0.453,1.174l4.457,2.584l-1.911,4.658l0.404,1.362l2.627,-6.438l-6.03,-3.34Zm11.751,0.536l0.647,2.166c-0.592,-0.104 -1.042,-0.619 -1.042,-1.244c0,-0.364 0.151,-0.69 0.395,-0.922Zm59.016,0.697c0.753,0.038 1.217,0.647 1.217,1.412c0,0.423 -0.185,0.8 -0.476,1.061l-0.741,-2.473Zm6.207,0.579l-2.51,6.19l6.28,2.836l1.73,-6.152l-5.5,-2.874Zm-75.466,1.054c-1.905,0.043 -0.934,3.829 0,3.813c1.048,0 1.898,-0.853 1.898,-1.906c0,-1.053 -0.85,-1.946 -1.898,-1.907Zm0,0.639c0.697,-0 1.264,0.568 1.264,1.268c0,0.7 -0.567,1.268 -1.264,1.268c-0.553,-0.232 -0.702,-2.465 0,-2.536Zm5.513,0.595l-2.633,5.947l5.26,3.708l3.099,-6.15l-5.726,-3.505Zm71.514,1.151c0.655,-0 1.184,0.532 1.184,1.19c0,0.658 -0.529,1.19 -1.184,1.19c-0.655,0 -1.186,-0.532 -1.186,-1.19c0,-0.658 0.531,-1.19 1.186,-1.19Zm5.248,2.054l0.43,0.895c-0.208,0.332 -0.332,0.722 -0.332,1.143c-0,1.109 0.836,2.022 1.91,2.137l0.526,1.093l-3.528,-1.61l0.994,-3.658Zm-75.155,0.428c0.656,-0 1.186,0.532 1.186,1.19c0,0.658 -0.53,1.195 -1.186,1.195c-0.655,-0 -1.189,-0.537 -1.189,-1.195c0,-0.658 0.534,-1.19 1.189,-1.19Zm5.699,1.265c0,-0 0.265,1.034 0.6,2.423c-0.642,0.306 -1.088,0.962 -1.088,1.724c-0,1.053 0.849,1.906 1.898,1.906c0.007,0 0.015,0 0.023,0c0.178,0.834 0.336,1.637 0.449,2.315l-4.523,-3.248l2.641,-5.12Zm70.301,0.062l0.748,1.556c-0.462,-0.236 -0.796,-0.716 -0.779,-1.273c0.008,-0.159 0.018,-0.162 0.031,-0.283Zm-10.665,0.848l5.567,2.446l-1.584,5.557l-1.274,-2.23c0.526,-0.391 0.867,-1.016 0.867,-1.723c-0,-1.187 -0.961,-2.152 -2.143,-2.152c-0.177,0 -0.346,0.026 -0.51,0.066l-0.923,-1.964Zm-70.28,0.895l0.375,1.299l3.908,2.878l-2.273,4.184l0.241,1.552l3.214,-6.081l-5.465,-3.832Zm11.399,1.26c0.175,0.739 0.36,1.543 0.535,2.341c-0.641,-0.059 -1.143,-0.599 -1.143,-1.259c0,-0.459 0.245,-0.858 0.608,-1.082Zm60.314,0.463c0.787,0 1.426,0.642 1.426,1.432c0,0.417 -0.18,0.792 -0.465,1.053l-1.158,-2.47c0.064,-0.009 0.13,-0.015 0.197,-0.015l0,0Zm6.172,0.066l-1.46,6.901l6.159,2.055l1.298,-6.532l-5.997,-2.424Zm-76.874,1.486c-1.433,0.348 -0.664,3.658 -0,3.812c0.499,0.116 0.975,-0.202 1.317,-0.533c0.357,-0.347 0.581,-0.834 0.581,-1.373c-0,-1.052 -0.85,-1.906 -1.898,-1.906Zm0.251,0.634c0.572,0.066 1.011,0.659 1.011,1.272c0,0.7 -0.565,1.268 -1.262,1.268c-0.786,-0.241 -0.52,-2.454 -0,-2.536c0.086,-0.014 0.17,-0.014 0.251,-0.005l0,0.001Zm4.935,0.825l-3.029,5.198l4.854,3.742l3.524,-4.75l-5.349,-4.19Zm-21.819,0.005l0.653,0.488l-0.658,0.733l0.005,-1.221Zm95.544,0.591c0.656,-0 1.186,0.532 1.186,1.19c0,0.658 -0.53,1.195 -1.186,1.195c-0.655,-0 -1.185,-0.537 -1.185,-1.195c-0,-0.658 0.53,-1.19 1.185,-1.19Zm5.334,1.143c0.064,0.239 0.287,0.672 0.586,1.187c-0.171,0.31 -0.271,0.663 -0.271,1.042c0,1.187 0.956,2.147 2.138,2.147c0.057,0 0.115,-0.003 0.171,-0.007c0.355,0.526 0.612,0.899 0.612,0.899l-3.986,-1.171l0.75,-4.097Zm-100.878,0.238l1.264,0.629l-1.295,1.068l0.031,-1.697Zm22.961,1.602c0.656,-0 1.191,0.532 1.191,1.19c-0,0.658 -0.535,1.192 -1.191,1.192c-0.655,0 -1.184,-0.534 -1.184,-1.192c-0,-0.658 0.529,-1.19 1.184,-1.19Zm78.975,0.129c0.343,0.553 0.716,1.128 1.061,1.649c-0.624,-0.151 -1.087,-0.715 -1.087,-1.389c-0,-0.089 0.011,-0.175 0.026,-0.26l0,0Zm-101.96,0.725l1.775,0.289l-1.502,1.911l2.647,-0.121l-1.818,1.98l2.93,0.067l-2.285,1.947l3.083,0.037l-2.291,1.916l3.375,-0.154l-2.418,2.085l3.336,-0.014l-2.488,2.097l3.264,0.044l-2.121,1.884l2.849,0.033l-3.22,2.271c-1.375,-0.604 -3.22,-0.946 -5.076,-0.986l-0.04,-15.286Zm28.722,0.874l0.218,1.719c-0.731,0.266 -1.255,0.967 -1.255,1.793c-0,0.991 0.753,1.804 1.716,1.896l0.251,2.01l-4.171,-3.41l3.241,-4.008Zm63.19,0.766l5.315,1.565l-1.035,5.489c0,-0 -0.623,-1.007 -1.336,-2.117c0.384,-0.388 0.62,-0.919 0.62,-1.509c-0,-1.187 -0.96,-2.151 -2.143,-2.151c-0.217,-0 -0.426,0.032 -0.623,0.092c-0.279,-0.528 -0.798,-1.369 -0.798,-1.369Zm7.329,1.466l-0.771,6.256l6.492,1.211c-0,0 0.308,-3.917 0.481,-5.802l-6.202,-1.665Zm-70.22,0.144l0.299,2.374c-0.571,-0.121 -0.999,-0.628 -0.999,-1.238c-0,-0.497 0.286,-0.927 0.7,-1.136Zm64.312,0.385c0.787,0 1.426,0.644 1.426,1.433c0,0.335 -0.114,0.64 -0.306,0.883c-0.474,-0.751 -0.967,-1.561 -1.383,-2.292c0.086,-0.016 0.173,-0.024 0.263,-0.024l0,0Zm-20.813,0.153l0,0.394l1.094,0.282l-1.107,1.33l-0.01,1.261l2.096,-2.256l0.776,0.18l-2.88,2.981l-0.01,1.258l3.85,-3.956l1.158,0.265l-4.048,4.147l4.482,4.676l4.8,-4.894l-3.39,-3.537l1.874,0.207l2.521,2.581l-0,-1.014l-1.226,-1.408l1.229,0.043l-0,-0.316l0.038,0.006c-3.946,-0.985 -8.401,-1.772 -11.247,-2.23l0,0Zm-54.159,0.243c-0.352,0.143 -0.423,3.321 0.073,3.826c1.049,0 1.903,-0.85 1.903,-1.903c-0,-1.052 -0.854,-1.91 -1.903,-1.91c-0.025,-0.019 -0.05,-0.023 -0.073,-0.013l-0,-0Zm0.031,0.652c0.012,-0.008 0.027,-0.008 0.042,0c0.698,0 1.267,0.571 1.267,1.271c0,0.701 -0.569,1.266 -1.267,1.266c-0.105,-0.532 -0.232,-2.414 -0.042,-2.537Zm83.433,1.167c0.655,-0 1.189,0.535 1.189,1.193c-0,0.658 -0.534,1.192 -1.189,1.192c-0.655,0 -1.186,-0.534 -1.186,-1.192c-0,-0.658 0.531,-1.193 1.186,-1.193Zm-78.27,0.062l-3.408,4.241l4.302,4.765l3.913,-4.723l-4.807,-4.283Zm83.651,0.946l0.581,0.899l0,2.606l-0.725,-0.118l0.144,-3.387Zm-29.128,1.675c0.655,0 1.186,0.533 1.186,1.191c-0,0.658 -0.531,1.191 -1.186,1.191c-0.655,0 -1.185,-0.533 -1.185,-1.191c0,-0.658 0.53,-1.191 1.185,-1.191Zm-53.826,0.619c0.656,-0 1.189,0.532 1.189,1.19c0,0.658 -0.533,1.191 -1.189,1.191c-0.655,-0 -1.184,-0.533 -1.184,-1.191c-0,-0.658 0.529,-1.19 1.184,-1.19Zm59.467,0.845l-5.051,5.248l5.02,5.145l0,-1.257l-3.884,-3.869l3.908,-3.947l0.007,-1.32Zm-11.256,0.426l-0.011,1.27l3.632,3.668l-3.692,3.794l-0.009,1.143l4.726,-4.905l-4.646,-4.97Zm25.763,1.067l5.694,0.919l-0.321,5.894c0,-0 -1.209,-1.295 -1.62,-1.825c0.321,-0.376 0.52,-0.859 0.52,-1.392c-0,-1.187 -0.961,-2.151 -2.143,-2.151c-0.34,-0 -0.659,0.082 -0.944,0.224c-0.22,-0.327 -1.186,-1.669 -1.186,-1.669Zm-68.387,0.009l0,2.097c-0.744,0.258 -1.279,0.97 -1.279,1.804c0,0.837 0.538,1.541 1.284,1.798l-0,1.957l-3.622,-3.618l3.617,-4.038Zm-10.142,1.112l2.866,3.175l-2.7,3.183l-0.038,-1.479c0.814,-0.214 1.418,-0.957 1.418,-1.841c-0,-0.92 -0.652,-1.687 -1.516,-1.866l-0.03,-1.172Zm64.013,0.491c-1.014,0.146 -1.793,1.045 -1.793,2.112c-0,1.062 0.772,1.924 1.78,2.097l0,-0.726c-0.612,-0.159 -1.065,-0.706 -1.065,-1.371c-0,-0.667 0.457,-1.22 1.072,-1.377l0.006,-0.735Zm-11.269,0.074l-0.008,0.723c0.641,0.14 1.123,0.711 1.123,1.396c-0,0.693 -0.493,1.268 -1.145,1.399l-0.007,0.721c1.05,-0.137 1.867,-1.028 1.867,-2.12c-0,-1.08 -0.797,-1.966 -1.83,-2.119l-0,-0Zm27.915,0.477c0.787,0 1.426,0.643 1.426,1.433c0,0.301 -0.093,0.578 -0.251,0.808l-1.666,-2.151c0.153,-0.057 0.318,-0.09 0.491,-0.09Zm-70.514,0.641l0.008,2.212c-0.387,-0.217 -0.648,-0.629 -0.648,-1.106c0,-0.473 0.258,-0.888 0.64,-1.106l0,-0Zm-10.098,0.15c0.502,0.168 0.863,0.645 0.863,1.205c0,0.535 -0.329,0.995 -0.797,1.18l-0.066,-2.385Zm58.44,1.793l-4.518,4.789l4.269,4.338l4.529,-4.685l-4.28,-4.442Zm-53.892,0.136l-3.882,4.738l3.823,5.151l4.722,-4.726l-4.663,-5.163Zm-24.217,0.111c0,-0 3.525,0.015 4.75,0.905c1.283,2.351 2.157,7.421 0.272,10.204c-0.658,0.834 -1.624,1.232 -2.735,2.116c-0.856,0.682 -2.037,1.014 -3.065,1.016c-1.028,0.001 -1.907,-0.338 -2.176,-1.013c-0.211,-0.379 -0.324,-0.706 -0.631,-0.848c-0.6,-0.276 -1.415,-0.085 -1.454,0.118c-0.071,0.001 0.957,0.099 1.131,0.257c0.804,0.727 0.668,1.183 -0.472,1.092c-0.367,-0.017 -1.394,-0.032 -1.417,-0.435c-0.228,-1.39 1.614,-2.408 3.97,-2.222c1.68,0.279 1.688,-0.371 1.805,-1.271c0.074,-0.296 0.332,-0.774 0.542,-1.152c0.594,-1.07 0.791,-0.921 0.377,-1.334c-0.402,-0.527 -0.924,-1.18 -0.916,-1.793l0.019,-5.64Zm77.884,3.111c0.655,-0 1.184,0.535 1.184,1.193c0,0.658 -0.529,1.192 -1.184,1.192c-0.656,-0 -1.189,-0.534 -1.189,-1.192c-0,-0.658 0.533,-1.193 1.189,-1.193Zm-53.358,0.645c0.655,-0 1.186,0.532 1.186,1.19c-0,0.658 -0.531,1.195 -1.186,1.195c-0.655,-0 -1.185,-0.537 -1.185,-1.195c0,-0.658 0.53,-1.19 1.185,-1.19Zm59.086,0.664l-4.997,5.343l4.988,5.179l0.008,-1.243l-3.959,-3.936l3.959,-4.126l0.001,-1.217Zm24.1,0.118l0,1.778l-1.748,-1.762l1.748,-0.016Zm-35.409,0.061l-0.012,1.402l3.709,3.852l-3.771,3.76l-0.012,1.298l4.889,-5.039l-4.803,-5.273Zm-52.615,2.285l2.615,3.77l-3.149,2.952l0.126,-1.63c0.896,-0.153 1.582,-0.932 1.582,-1.875c0,-0.836 -0.54,-1.544 -1.286,-1.801l0.112,-1.416Zm10.211,0.388l-0.206,2.25c-0.885,0.161 -1.556,0.942 -1.556,1.878c-0,0.813 0.506,1.505 1.219,1.778l-0.197,2.144l-3.276,-4.432l4.016,-3.618Zm42.379,0.299l-0.008,0.718c0.728,0.064 1.304,0.672 1.304,1.42c-0,0.755 -0.587,1.364 -1.326,1.416l-0.008,0.721c1.138,-0.051 2.049,-0.983 2.049,-2.137c-0,-1.142 -0.892,-2.069 -2.012,-2.138l0.001,-0Zm35.372,0.013l0,13.928l10.063,10.64l0,37.741l-39.559,-0l-11.596,-19.47c0.697,-5.101 2.503,-14.974 2.503,-14.974c1.064,0.258 4.655,0.598 6.595,-2.195c0.925,-1.333 1.42,-3.149 0.172,-6.012c-0.177,-0.34 -0.469,-0.83 -0.469,-0.83c-0,-0 0.316,-0.083 0.537,-0.228c15.204,-5.648 31.47,-18.23 31.754,-18.6l0,-0Zm-24.049,0.065c-1.007,0.174 -1.774,1.052 -1.774,2.114c0,1.058 0.767,1.931 1.769,2.109l-0,-0.738c-0.603,-0.165 -1.054,-0.712 -1.054,-1.371c0,-0.662 0.449,-1.215 1.057,-1.378l0.002,-0.736Zm-64.079,1.316c0.416,0.208 0.7,0.638 0.7,1.136c-0,0.569 -0.373,1.05 -0.887,1.21l0.187,-2.346Zm10.11,1.23l-0.214,2.31c-0.386,-0.216 -0.646,-0.628 -0.646,-1.105c0,-0.56 0.358,-1.037 0.86,-1.205Zm48.202,0.454l-4.499,4.669l4.413,4.544l4.575,-4.645l-4.489,-4.568Zm-72.809,1.887l9.79,5.439l0.704,0.362c0,-0 -0.27,0.077 -0.844,0.455c-1.107,0.729 -1.529,2.521 -1.026,3.868c0.823,2.201 2.52,1.804 3.935,1.809c1.175,0.911 2.181,3.96 3.006,5.994c0.381,0.884 0.747,1.561 0.842,2.074c0.087,0.473 0.083,0.887 0.083,0.887c0,0 -0.19,-0.058 -0.468,-0.63c-1.559,-3.299 -5.203,-4.893 -7.139,-1.774c-0.981,1.913 -0.303,4.096 1.345,4.707c0.504,0.187 2.219,-0.012 2.219,-0.012c0.1,-0.06 1.244,1.62 2.859,7.139c0.663,2.28 0.836,7.225 0.204,7.936c-1.069,1.304 -1.344,3.136 -2.249,4.451c-0.111,0.222 -0.331,0.61 -0.331,0.61c-1.755,-3.714 -6.854,-6.927 -10.303,-6.644c-2.505,0.206 -3.287,0.969 -2.693,1.696c1.378,1.414 2.279,3.398 2.731,5.136c1.052,4.045 2.169,7.652 4.998,10.795l-1.624,3.195l-20.887,-0.136l0,-7.742l16.096,-17.185l-6.206,-0.078l0.066,-29.476c1.701,-0.71 3.323,-1.812 4.892,-2.876l0,0Zm72.762,1.542c0.655,-0 1.185,0.532 1.185,1.19c0,0.658 -0.53,1.193 -1.185,1.193c-0.656,0 -1.186,-0.535 -1.186,-1.193c-0,-0.658 0.53,-1.19 1.186,-1.19Zm-54.225,1.559c0.655,-0 1.189,0.532 1.189,1.19c-0,0.658 -0.533,1.195 -1.189,1.195c-0.655,0 -1.186,-0.537 -1.186,-1.195c0,-0.658 0.531,-1.19 1.186,-1.19Zm11.907,0.473c4.328,-0.094 8.957,2.367 13.891,6.199c-3.271,9.1 -3.629,18.731 -3.747,19.086c-0,0 -1.752,-0.218 -2.303,-0.529c-1.222,-0.698 -2.612,-1.118 -3.948,-1.19c-1.243,-0.068 -1.443,-0.069 -1.443,-0.069c1.663,-1.117 3.615,-1.282 5.051,-1.959c-0,-0 -0.529,-0.263 -1.451,-0.179c-1.977,0.179 -3.886,0.968 -5.91,2.32c-1.403,0.936 -1.454,0.937 -1.078,2.112c0.091,0.282 0.282,0.707 -0.387,0.953c-0.692,0.256 -0.595,0.54 -0.201,0.856c0.097,0.077 0.346,0.095 0.446,0.175c0.125,0.098 -0.009,0.539 -0.008,0.599c2.395,2.034 6.505,2.206 10.059,0.382c0.234,-0.12 0.84,-0.363 0.84,-0.363l-0.084,0.876c-2.072,1.369 -4.911,1.754 -7.061,1.783c-1.289,0.021 -1.542,-0.144 -3.483,-0.74c-0.798,-0.244 -1.244,-0.31 -1.317,-0.188c-0.165,0.278 0.122,1.103 0.736,1.545c2.073,1.492 5.092,1.374 9.212,-0.268c0.489,-0.194 1.825,-0.886 1.825,-0.886c-0.07,1.427 -0.367,2.881 -0.562,4.077c-0.198,1.212 -0.479,2.401 -0.479,2.401c-0.443,0.253 -19.768,-0.698 -22.4,-2.331c-0.265,-0.25 -0.055,-0.583 -0.008,-1.281c0.077,-1.122 0.159,-1.825 0.159,-1.825c0,-0 0.643,0.315 1.015,0.479c1.946,0.857 4.698,0.107 6.357,-1.701c2.092,-2.279 2.159,-4.625 0.852,-9.258c-1.492,-5.21 -1.456,-5.898 0.334,-6.964c1.237,-0.84 1.926,-2.763 1.766,-2.843c-0.728,0.799 -1.477,1.277 -2.193,1.712c-2.078,1.427 -2.729,2.156 -1.774,4.792c0.942,2.601 1.702,5.144 1.309,5.302c-0.187,0.075 -0.904,-0.77 -1.348,-1.026c-0.908,-0.523 -3.188,-1.462 -3.188,-1.462c-0,0 0.15,0.207 1.084,0.823c2.501,1.649 3.526,3.143 1.113,2.198c-1.876,-0.655 -3.475,-0.043 -4.86,0.61c-0,0 -0.087,-1.117 -0.092,-1.522c-0.04,-2.164 0.235,-4.213 0.42,-6.097c0.457,-4.688 1.252,-8.638 3.303,-11.182c3.002,-3.724 6.186,-5.343 9.552,-5.417l0.001,0Zm36.72,2.391l-0.007,0.719c0.678,0.11 1.199,0.697 1.199,1.409c-0,0.719 -0.533,1.306 -1.221,1.406l-0.008,0.72c1.088,-0.101 1.944,-1.007 1.944,-2.126c-0,-1.106 -0.837,-2.008 -1.907,-2.128l0,0Zm-37.032,1.409c-0.215,-0.021 -0.597,0.107 -0.865,0.337c-0.634,0.542 -2.355,0.401 -3.327,-0.043c-0.427,-0.195 -0.475,0.616 0.034,0.794c0.492,0.173 1.218,0.382 1.218,0.382c0,-0 -0.783,0.277 -1.641,0.557c-0.504,0.165 -0.537,1.018 0.04,0.821c1.303,-0.444 3.093,-1.039 5.109,-0.445c1.584,0.486 1.206,-0.71 -0.515,-0.86c-0.549,-0.047 -1.468,-0.157 -1.468,-0.157c-0,0 0.781,-0.348 1.286,-0.823c0.393,-0.369 0.344,-0.541 0.129,-0.563l-0,0Zm-1.32,3.67c-0.66,-0.007 -1.393,0.173 -2.21,0.53c-1.147,0.501 -2.279,0.66 -3.378,-0.269c-0.641,-0.54 -0.606,-0.13 -0.442,0.989c0.184,1.252 0.313,1.935 0.659,1.895c0.136,-0.016 0.304,-0.143 0.523,-0.39c0.229,-0.26 0.597,-0.189 1.53,-0.132c0.998,0.061 1.252,0.034 1.91,-0.206c0.75,-0.273 0.766,-0.272 1.286,-0.05c0.813,0.348 1.322,0.388 2.069,0.175c0.916,-0.261 1.494,-0.19 2.06,0.09c0.572,0.283 0.754,0.225 0.953,-0.297c0.084,-0.219 0.49,-1.067 0.678,-1.356c0.612,-0.94 0.463,-1.097 -0.818,-0.701c-0.88,0.271 -2.503,0.443 -3.711,-0.059c-0.344,-0.143 -0.713,-0.215 -1.109,-0.219l-0,-0Zm1.749,5.6c-1.351,-0.024 -2.413,0.915 -3.893,1.326c-0.731,0.191 -0.56,1.139 -0.093,1.55c0.601,0.529 1.525,0.199 2.762,-0.752c2.428,-1.866 3.011,1.721 0.798,2.355c-0.343,0.099 -0.186,0.894 0.535,0.691c1.388,-0.39 2.033,-1.594 1.946,-2.937c-0.071,-1.087 -0.632,-1.972 -1.454,-2.159c-0.207,-0.047 -0.407,-0.07 -0.601,-0.074l0,0Zm-18.807,0.933c1.165,-0.069 2.398,0.671 3.369,2.268c1.235,2.028 1.575,3.257 1.615,4.544c-0.112,2.702 0.04,4.148 -0.137,6.864c-1.716,-2.655 -2.019,-6.548 -3.844,-8.657c-3.376,0.631 -4.974,-2.557 -2.133,-4.681c0.361,-0.201 0.741,-0.314 1.13,-0.338Zm8.234,10.043c0.819,-0.081 1.64,0.649 2.047,1.975l-0.593,-0.044c-0.622,-1.689 -2.074,-1.64 -2.634,-0.175l-0.531,0.005c0.437,-1.145 1.074,-1.698 1.711,-1.761l-0,0Zm1.757,0.291c-0,0 1.276,0.075 1.748,0.257c0.32,0.125 0.601,0.308 0.641,0.521c0.041,0.213 -0.181,0.485 -0.523,0.586c-0.311,0.091 -0.637,0.139 -0.945,0.218c-0.152,-0.566 -0.529,-1.173 -0.921,-1.582Zm12.75,0.127c0.744,0.013 1.48,0.658 1.873,1.997l-0.748,0.057c-0.543,-1.848 -1.758,-2.107 -2.487,-0.17l-0.566,-0.094c0.43,-1.187 1.183,-1.804 1.928,-1.79l-0,-0Zm-16.076,0.047c-0.255,0.265 -0.577,0.817 -0.725,1.19l-0.468,-0.129l0.053,-0.717c0.365,-0.219 0.848,-0.344 1.14,-0.344l0,-0Zm13.833,0.098c0.135,-0.006 0.278,-0.003 0.437,0.008c-0.122,-0.013 -0.794,0.947 -0.819,1.516c-0,0 -0.606,-0.154 -0.767,-0.338c-0.258,-0.321 -0.326,-0.584 0.016,-0.801c0.409,-0.259 0.73,-0.366 1.133,-0.385l0,0Zm4.044,0.191c1.01,0.19 1.608,0.622 2.314,1.373l-1.343,0.233c-0.408,-0.549 -0.491,-1.03 -0.971,-1.606Zm4.147,1.958l-0.1,0.921c-2.124,1.079 -6.971,2.193 -10.146,0.35c-0.264,-0.297 -0.098,-0.719 -0.098,-0.719c4.482,1.614 7.344,0.742 10.344,-0.552Zm-23.23,0.194c2.02,1.29 4.589,0.739 7.079,0.013c-2.324,2.237 -5.568,1.571 -7.167,0.909l0.088,-0.922Zm6.808,1.278c-1.679,2.684 -4.169,2.964 -6.98,1.649l0.041,-1.186c2.36,1.276 4.951,0.791 6.939,-0.463l0,0Zm-21.428,5.824c0.243,-0.008 0.486,-0.005 0.728,0.01c4.204,0.255 8.293,3.881 9.737,7.911l3.073,-5.294c13.745,1.841 25.573,2.704 45.021,-0.274l9.994,17.702l-64.177,0.413c0.668,-1.309 1.343,-2.371 1.849,-3.899c0,0 -3.607,-3.773 -4.926,-8.733c-0.736,-2.768 -1.793,-5.359 -3.647,-7.201c-0.029,-0.066 0.065,-0.149 0.178,-0.227c0.713,-0.252 1.441,-0.383 2.17,-0.408l-0,-0Z" style="fill:#242424;fill-rule:nonzero;"/><path id="path3302-0-9-2" d="M67.404,20.464l62.561,-0.001l-8.151,16.363c-15.209,-2.312 -30.201,-2.024 -45.022,0.331l-9.388,-16.693l-0,-0Zm85.527,13.26l0.131,7.845l-8.103,-0.18l7.972,-7.665Zm-68.402,52.749l-0.088,23.809c-3.232,-2.29 -6.463,-4.585 -9.788,-6.403l0.128,-24.636l9.748,7.23Zm27.27,5.209c0.575,13.463 2.528,18.719 3.794,25.545l-11.601,7.53l-0.034,-27.638l7.841,-5.437Zm31.717,23.617l-0.066,33.159c-10.664,-15.403 -17.401,-31.049 -19.26,-52.17c2.9,-1.174 5.728,-2.47 8.702,-3.518c3.038,8.326 6.662,15.779 10.624,22.529Zm-108.425,-13.842c9.855,12.574 16.171,29.516 19.273,50.154l-9.022,4.399c-2.994,-7.287 -6.539,-15.974 -10.327,-22.021l0.076,-32.532Zm38.949,22.428l-0.037,27.727l-7.702,5.022c-0.48,-9.747 -2.019,-18.854 -3.799,-25.606l11.538,-7.143Zm20.273,14.601c2.849,2.152 5.816,4.133 9.105,5.639l-0.481,24.599l-8.694,-6.724l0.07,-23.514Zm-61.115,69.308c-0,0 -5.423,5.531 -7.435,7.327l-0.044,-7.51l7.479,0.183Zm68.287,3.581l10.111,17.329l-63.381,0.534l8.777,-17.923c16.784,3.082 30.513,2.164 44.493,0.06Z" style="fill:#3f3f3f;fill-rule:nonzero;"/><path id="path3300-3-9-0" d="M66.262,19.88l10.343,18.128c13.76,-3.051 30.187,-2.514 45.021,-0.076c0.794,-1.072 1.665,-3.254 2.5,-4.832c2.07,5.594 8.691,9.206 12.957,7.651c-0,-0 0.041,-0.267 -0.674,-1.526c-2.079,-3.629 -2.56,-7.482 -4.398,-11.373c-0.915,-2.128 -2.975,-3.778 -3.436,-3.9l2.29,-4.072l-64.603,0Zm1.847,0.958l2.119,0l7.882,13.103l10.636,-1.207l-3.504,-11.896l3.161,0l3.138,11.62c5.937,-0.241 11.601,-0.308 16.539,0.09l1.673,-11.71l3.016,0l-1.91,11.692l9.98,1.281l5.413,-12.973l3.118,0c-2.013,3.41 -7.038,14.321 -7.977,15.406c-23.768,-3.068 -33.444,-1.522 -44.355,-0.062l-8.929,-15.344Zm4.254,0l10.859,0l3.648,10.863l-7.747,0.923l-6.76,-11.786Zm17.751,0l18.113,0l-1.493,10.073c-4.754,-0.286 -9.4,-0.023 -14.067,0.124l-2.553,-10.197Zm24.843,0l9.622,0l-4.826,11.441c-2.743,-0.388 -4.384,-0.789 -6.77,-0.85l1.974,-10.591Zm14.102,4.136c0,-0 0.406,0.032 0.683,0.323c1.197,1.255 2.361,3.565 3.403,6.801c0.767,2.38 1.68,4.895 2.687,6.983c0.544,1.104 0.493,1.16 -1.1,1.183c-3.414,0.049 -6.259,-1.582 -8.786,-5.039c-0.804,-1.101 -1.115,-1.598 -1.113,-2.06c0.086,-0.535 1.144,-2.246 1.144,-2.246c-0,0 0.613,1.699 0.759,2.521c0.918,-3.395 1.283,0.539 1.636,1.576c1.12,-3.279 1.724,1.228 1.667,2.444c1.524,-2.103 1.426,1.351 2.169,1.993c0.018,-1.822 1.086,-0.575 2.469,-0.187c-0.723,-1.018 -2.132,-1.703 -0.334,-1.928c-1.793,-1.243 -2.691,-1.053 -0.95,-1.74c-1.342,-0.743 -3.55,-1.637 -1.108,-2.126c-1.493,-0.945 -3.893,-1.342 -1.313,-2.244c-1.949,-1.198 -4.542,-1.112 -0.893,-2.074c-1.322,-0.776 -3.652,-1.066 -1.045,-1.741c-0.403,-0.181 -1.102,-0.652 -1.102,-0.652l1.127,-1.787Zm24.726,3.047l-16.599,16.855l6.253,0.185l0,30.458c0,-0 0.688,0.174 1.35,0.213c3.145,0.184 3.997,0.441 4.008,1.199c0.013,0.937 -1.413,2.099 -2.596,2.116c-0.268,0.004 -0.715,0.27 -0.715,0.27l0.38,99.737l7.426,7.81l-0.031,2.481l-9.151,-9.727l-0.344,-99.683l-0.347,0.161l-0.025,33.478c-4.69,-7.044 -7.321,-14.024 -9.929,-21.004c-0,-0 -0.923,0.318 -0.961,0.338c-0.007,0.007 0.33,0.117 0.33,0.117c2.661,8.921 6.028,15.39 10.395,22.142l-0.063,32.444c-11.182,-15.863 -16.588,-30.13 -18.834,-50.691l5.659,-2.838l0.549,-0.738l4.274,-2.145l0.411,0.684l2.591,-1.801c-2.002,-3.508 -1.928,-8.55 -0.296,-11.22l-0.702,-0.44c-0.048,-0.193 -2.686,5.461 0.264,11.21l-1.931,1.193c-2.785,-5.782 -1.491,-12.01 -0.179,-13.615c-2.686,-1.654 -5.693,-3.465 -8.329,-4.335c-1.163,-0.475 -1.902,0.083 -1.898,0.095l-0.565,3.229l0.898,1.23l-1.046,0.846l-0.477,4.942l1.124,1.141l-1.155,1.284l-0.157,4.71l1.266,0.986l-0.978,1.634l0.068,4.172l0.294,0.203c2.439,29.867 16.998,47.515 19.277,51.518l0.321,0.522c0.156,10.134 0.106,20.313 -0,30.619l10.725,11.457l-0.062,-4.193l-0.525,-0.381l-0,-19.085l0.446,-0.025c-0,0 0.136,-5.132 0.101,-8.657l-0.637,-0.017l0.04,-13.116l0.541,-0.065l-0.03,-8.496l-0.59,0.001c-0,0 -0.136,-8.909 0.076,-13.242l0.439,-0.026l-0.03,-8.447l-0.496,-0.039l-0.035,-12.079l0.614,-0.094l-0.167,-7.974l-0.502,-0.029c-0.18,-4.928 -0.094,-13.445 -0.094,-13.445l0.574,-0.027l-0.141,-7.918l-0.414,-0.026l0.123,-13.901l0.373,-0.044l-0.144,-8.21l-0.402,-0.037l0.07,-6.827l0.278,-0.047l0.069,-2.554l-0.296,-0.676l-0.018,-9.097l0.225,-0.1l0.059,-4.569Zm-0.855,1.551l0.044,2.892l-9.751,9.615l9.826,0.15l-0.023,1.957l-14.321,-0.142l14.225,-14.472Zm-0.084,4.407l0.065,7.428l-7.687,-0.123l7.622,-7.305Zm-56.918,2.663c-6.701,0.009 -13.439,0.772 -18.655,1.929c0,0 -2.516,11.997 -3.414,17.09c-0.847,-0.489 -1.601,-0.702 -2.364,-0.685c-5.902,0.644 -5.397,8.772 -2.354,8.999c0.407,-0.006 0.583,0.064 0.851,0.343c0.373,0.388 0.821,0.648 1.058,0.614c0.321,-0.046 0.467,0.012 0.47,0.184c-0,0.14 -0.141,0.163 -0.667,0.116c-0.32,-0.029 -0.996,0.479 -0.996,0.479l-0.007,36.6c-2.866,-1.193 -7.149,-1.88 -10.44,-2.272l-0.221,-32.622c0,-0 -4.828,2.54 -6.581,3.555l-0.064,29.201l-3.419,0.375l5.401,11.023c0.759,-0.586 11.388,0.411 14.043,2.145l-9.7,6.08c0.985,3.018 1.881,5.902 2.705,8.958c0.026,0.094 0.205,0.084 0.23,0.178c0.2,0.746 0.343,1.082 0.53,1.833c0.034,0.14 -0.023,0.368 0.017,0.507c2.09,7.23 3.517,16.81 3.807,25.387c-0.031,0.082 -0.34,0.012 -0.34,0.012l0.061,5.241l0.345,-0.231l-0.034,2.372l-0.35,0.347c-0.009,0.459 -0.04,1.327 -0.04,1.327l0.449,0.282l-0.233,3.973l-0.462,0.068l-0.253,6.29l12.285,-7.986c-0,0 8.017,5.766 11.524,8.756c-3.858,2.634 -4.883,7.771 -5.839,12.034c-0.978,4.218 -1.299,7.701 -1.576,11.231c-0.305,3.891 -1.04,9.021 -1.553,11.473c4.17,0.173 13.753,-0.164 21.5,-1.85c0.652,-5.676 1.65,-10.831 2.828,-16.331c-0,-0 0.131,0.461 2.052,0.433c5.623,-0.081 7.592,-6.356 2.89,-9.134c-0.443,-0.265 -1.197,-0.77 -1.94,-1.163c-0.214,-0.111 -2.909,-1.7 -2.909,-1.7l3.229,1.459l0.234,-37.654c0,0 6.736,2.032 11.177,2.224l-0.047,32.649l6.202,-3.361l0.283,-29.191l3.397,-0.219c0,-0 -1.287,-2.751 -1.573,-3.329c-0.574,-1.157 -2.019,-3.73 -3.006,-5.356c-0.349,-0.576 -1.166,-1.856 -1.166,-1.856c-4.528,-0.121 -9.16,-0.803 -13.37,-2.682l9.744,-6.368c-4.069,-11.515 -9.145,-28.366 -6.317,-55.563l-0.682,0.435l-0.187,2.93l-12.131,8.384l-14.962,-12.102c-0,0 1.086,0.03 1.33,0.04c3.816,0.135 6.503,-3.786 7.424,-7.059c1.625,-5.768 1.839,-7.192 2.587,-16.339c0.296,-3.618 1.01,-7.107 1.736,-10.555c0.384,-1.732 0.327,-1.906 0.327,-1.906c-0.951,-0.03 -1.908,-0.044 -2.865,-0.042l0.001,-0Zm0.54,0.282l1.462,0.035c-2.128,10.579 -2.138,19.632 -4.41,27.971c-1.124,4.135 -3.993,7.076 -6.777,7.068c-6.181,-0.769 -4.544,-7.281 -1.938,-8.634c3.548,-1.659 6.389,1.683 4.123,5.07c-1.662,2.484 -4.824,0.841 -3.602,-1.883c0.688,-1.533 2.115,-1.354 2.101,0.197c-0.509,1.475 -0.042,0.95 0.356,0.429c1.25,-1.633 -1.272,-3.367 -2.569,-1.754c-0.796,0.989 -0.962,2.165 -0.69,3.103c0.465,1.604 2.308,2.541 4.394,1.057c2.491,-3.001 3.822,-6.883 4.558,-11.226c1.566,-9.242 1.647,-18.967 2.992,-21.433l-0,-0Zm-0.948,0.029c-0.644,0.432 -1.47,13.296 -2.756,21.544c-0.102,0.669 -1.525,7.248 -2.317,6.849c-0.126,-0.13 -0.872,-1.914 -0.964,-2.282c1.542,-2.228 1.978,-5.885 2.217,-8.655c0.871,-7.852 1.775,-17.332 2.171,-17.419l1.649,-0.037Zm-2.484,0.105c-0.821,2.784 -1.2,10.559 -2.014,17.073c-0.475,3.297 -0.993,7.83 -2.203,8.494l-1.028,-0.663c1.109,-3.322 1.519,-7.241 1.973,-11.033c0.549,-4.588 1.033,-9.31 1.698,-13.814l1.574,-0.057Zm-2.367,0.129c-0.359,2.592 -1.039,8.364 -1.619,13.674c-0.673,6.166 -1.731,10.829 -2.016,10.679l-1.32,-0.767c0.467,-1.853 1.018,-3.885 1.291,-5.83c0.606,-4.322 0.844,-9.567 2.238,-17.636l1.426,-0.12Zm-2.149,0.11c-0.756,3.511 -1.623,11.759 -2.304,17.574c-0.395,3.377 -1.214,5.759 -1.414,5.693c0,0 -1.133,-0.642 -1.277,-0.717c0.856,-3.406 1.275,-6.571 1.697,-9.659c0.569,-4.165 0.991,-8.216 1.777,-12.794l1.521,-0.097Zm-2.26,0.174c-0.459,3.203 -1.091,8.266 -1.752,12.743c-0.749,5.073 -1.448,9.397 -1.689,9.423l-1.839,-0.854c0.226,0.04 0.659,-1.233 1.082,-3.219c1.29,-6.052 2.57,-17.98 2.779,-17.976l1.419,-0.117Zm-2.394,0.317c0.115,-0.169 -1.315,11.523 -2.495,17.429c-0.403,2.017 -0.997,3.327 -1.11,3.259l-1.397,-0.843c0.121,0.089 0.626,-1.414 0.872,-2.46c1.259,-6.037 1.828,-11.33 2.606,-17.185l1.524,-0.2Zm-2.357,0.245c-0.637,5.953 -1.542,12.346 -2.841,18.171c-0.18,0.783 -0.571,1.206 -0.587,1.223l-1.498,-0.745c1.63,-4.632 1.781,-9.063 3.343,-18.361l1.583,-0.288Zm-2.303,0.362c-0.886,4.921 -1.346,10.611 -2.541,15.097c-0.253,0.95 -0.394,2.019 -0.727,2.846l-1.686,-0.679l3.53,-17l1.424,-0.264Zm42.242,6.178c-0,-0 -0.834,8.201 -1.086,11.473c-0.48,5.014 -1.162,8.262 -3.095,12.238c1.611,0.933 3.336,1.665 5.071,2.337c0.689,0.266 1.413,0.27 2.097,0.718c0.471,0.318 1.01,0.455 1.553,0.444c1.63,-0.033 3.285,-1.388 3.158,-3.12c-0.154,-2.102 -1.395,-3.038 -3.436,-2.827c-1.091,0.113 -1.063,0.129 -1.798,-1.192c-0.661,-1.189 -2.406,-6.264 -2.417,-7.033c0.838,1.117 2.797,3.191 4.602,3.105c1.94,-0.142 3.572,-1.988 2.106,-4.603c-0.78,-1.282 -2.167,-1.532 -3.577,-1.109c-2.11,-3.297 -2.507,-6.599 -3.178,-10.431Zm24.032,0.785l-0.082,29.742l-1.697,-0.359l-0.007,-29.38l1.786,-0.003Zm3.952,0.279c0.656,-0 1.189,0.532 1.189,1.19c0,0.658 -0.533,1.193 -1.189,1.193c-0.655,0 -1.184,-0.535 -1.184,-1.193c-0,-0.658 0.529,-1.19 1.184,-1.19Zm-27.886,2.062c0.201,-0.115 0.822,5.282 2.993,7.724c2.645,-1.265 4.927,1.702 3.124,3.741c-3.52,3.04 -6.604,-3.453 -6.605,-5.531c-0.02,-2.327 0.488,-5.934 0.488,-5.934Zm29.367,0.684c0.655,0 1.184,0.536 1.184,1.194c0,0.658 -0.529,1.19 -1.184,1.19c-0.656,0 -1.189,-0.532 -1.189,-1.19c-0,-0.658 0.533,-1.194 1.189,-1.194Zm-3.087,0.074c0.655,-0 1.184,0.532 1.184,1.19c0,0.658 -0.529,1.195 -1.184,1.195c-0.656,0 -1.191,-0.537 -1.191,-1.195c0,-0.658 0.535,-1.19 1.191,-1.19Zm1.549,2.796c0.655,0 1.185,0.533 1.185,1.191c-0,0.658 -0.53,1.19 -1.185,1.19c-0.655,0 -1.19,-0.532 -1.19,-1.19c-0,-0.658 0.535,-1.191 1.19,-1.191Zm3.614,1.32l-0,2.842l-6.586,6.333l-0,-3.085l6.586,-6.09Zm-81.74,2.825c0.177,-0.014 0.357,-0.014 0.542,0.001c0.21,0.017 0.426,0.054 0.645,0.112c-0.145,-0.046 -2.104,1.285 -3.12,3.246c-1.099,2.166 -0.105,4.295 -0.431,4.303c-2.023,-0.606 -1.558,-4.555 -0.738,-5.678c0.812,-1.112 1.865,-1.888 3.102,-1.984l0,-0Zm2.638,0.683c0.312,-0.006 0.547,0.106 0.805,0.359c0.326,0.318 0.636,0.425 -0.194,0.72c-2.325,0.609 -3.967,2.789 -3.574,5.322c0.047,0.616 0.623,2.245 -0.402,1.473c-2.262,-1.537 -1.054,-6.336 2.091,-7.523c0.571,-0.22 0.962,-0.345 1.274,-0.351Zm79.102,0.285l-0,3.07l-6.586,6.317l-0,-3.144l6.586,-6.243Zm-77.204,0.938c0.401,-0.037 0.748,0.022 1.05,0.152c0.673,0.292 0.441,0.336 -0.826,1.001c-2.018,1.06 -3.21,3.262 -2.904,5.695c0.114,0.912 0.481,1.156 0.22,1.158c-0.67,-0.01 -1.189,-0.525 -1.426,-1.057c-0.902,-3.306 0.167,-5.991 3.886,-6.949Zm44.849,0.185c0.136,-0.032 0.367,0.617 0.714,1.719c1.921,6.101 2.428,7.27 3.764,6.966c0.76,-0.174 1.552,-0.203 2.07,0.084c1.692,0.937 1.847,4.081 -0.624,4.682c-1.953,0.427 -3.211,-1.317 -3.908,-2.456c-1.221,-1.993 -2.412,-4.869 -2.518,-6.681c-0.041,-1.198 0.195,-2.67 0.398,-4.047c0.024,-0.17 0.059,-0.257 0.104,-0.267Zm-96.267,0.889l0,162.736c0,-0 11.092,-11.381 16.3,-17.028l-5.442,-0.076l-0,-30.817c-1.773,-0.239 -4.727,-0.005 -5.891,-1.19c-0.722,-1.074 2.075,-3.184 3.65,-2.741c1.05,0.285 2.241,0.059 2.241,0.059l-0,-34.339c0.053,-0.222 6.093,9.338 9.642,21.093c-1.078,0.752 -2.184,1.331 -2.369,1.459c1.428,3.46 2.417,8.902 0.422,13.645l-1.376,-0.823c1.111,-3.048 1.39,-7.187 -0.268,-11.129l-0.379,0.398c1.37,3.075 1.816,6.73 0.015,11.136c4.046,1.646 7.064,4.195 10.553,5.918c0.249,0.071 0.593,0.401 0.593,0.401c-1.358,0.76 -2.653,1.749 -2.646,3.085c0.046,2.019 1.121,2.806 3.471,2.673c0.473,-0.027 0.836,0.013 0.836,0.013c1.462,3.045 2.767,6.173 3.964,9.311c0.833,-3.992 1.411,-7.951 3.08,-11.332c-0.108,-0.095 -1.978,-0.967 -2.855,-1.329c-3.417,-1.413 -4.971,-2.284 -4.444,-2.494c0.368,-0.147 0.501,-0.403 0.593,-1.133c0.173,-1.346 0.106,-2.845 0.106,-2.845l-0.573,-1.232l0.885,-0.714c0,-0 0.114,-0.549 0.203,-1.655c0.153,-1.897 0.05,-3.103 0.05,-3.103l-0.852,-1.097l0.867,-1.083l0.199,-4.968l-1.17,-0.891l1.093,-1.083l-0.39,-4.53c0,-0 0.144,-0.42 0.333,-0.628c-1.851,-19.163 -8.871,-38.475 -19.583,-51.637l-0,-31.48l-10.858,-10.55Zm53.836,0.026c0.936,-0.049 1.047,0.434 -0.116,1.116c-2.229,1.305 -3.386,3.857 -2.741,5.884c0.308,0.969 0.602,1.371 0.3,1.391c-0.568,-0.048 -1.008,-0.55 -1.278,-0.975c-1.406,-2.027 -0.237,-6.294 2.64,-7.178c0.479,-0.147 0.883,-0.221 1.195,-0.238Zm2.1,0.895c0.291,0.025 0.63,0.112 1.108,0.331c0.32,0.011 -0.145,0.314 -0.748,0.664c-2.142,1.242 -3.562,3.457 -3.19,5.536c0.231,1.287 0.62,2.002 0.341,2.009c-0.145,0.004 -0.472,0.053 -0.781,-0.249c-1.183,-1.154 -1.37,-4.39 -0.234,-5.989c0.533,-0.75 2.188,-2.115 2.681,-2.252c0.288,-0.035 0.531,-0.074 0.823,-0.05l-0,0Zm-54.579,0.729l8.858,9.216l-0,99.564l-1.854,0.083l-0,-98.958l-7,-7.438l-0.004,-2.467Zm56.892,0.325c0.518,0.029 0.825,0.334 0.68,0.717c-1.96,0.816 -3.806,2.928 -3.613,5.817c0.075,1.013 0.411,1.564 0.212,1.594c-0.136,0.021 -0.609,-0.183 -0.921,-0.561c-1.83,-2.215 -0.343,-5.986 2.532,-7.279c0.412,-0.224 0.799,-0.305 1.11,-0.288Zm2.317,1.19c0.624,0.027 1.116,0.235 1.121,0.591c0.008,0.277 -0.057,0.352 -0.329,0.356c-2.176,-0.017 -4.488,3.019 -3.848,6.253c0.079,0.486 0.226,1.131 0.057,1.155c-0.13,0.018 -0.334,-0.105 -0.612,-0.366c-1.942,-1.92 -0.888,-6.247 1.698,-7.493c0.532,-0.368 1.289,-0.523 1.913,-0.496l0,0Zm34.743,2.081c0.277,0.111 0.66,1.19 1.424,3.045c0.174,0.6 1.929,3.321 1.594,3.333c-2.463,-0.974 -4.036,-2.444 -3.587,-4.833c0.197,-0.899 0.329,-1.64 0.569,-1.545Zm29.951,2.838c0.655,-0 1.189,0.535 1.189,1.193c-0,0.658 -0.534,1.192 -1.189,1.192c-0.656,-0 -1.186,-0.534 -1.186,-1.192c-0,-0.658 0.53,-1.193 1.186,-1.193Zm-31.349,0.721c0.129,0.347 0.127,0.481 0.392,0.895l-0.665,-0.317l0.273,-0.578Zm-41.877,1.166c1.607,-0.023 2.137,0.483 2.436,2.333c0.208,1.285 0.338,1.352 2.475,1.292c2.726,-0.076 2.94,0.089 3.236,2.478c0.252,2.051 0.596,2.262 2.94,1.818c1.704,-0.324 2.606,0.43 2.828,2.357c0.248,2.161 0.344,2.24 2.761,2.326c2.423,0.086 3.097,0.514 3.118,1.977c0.033,2.265 0.317,2.47 3.296,2.38c1.446,-0.044 2.926,-0.018 3.777,0.071c1.805,0.187 1.796,0.196 1.977,-1.545c0.269,-2.601 0.649,-2.841 4.075,-2.588c1.431,0.106 1.533,0.04 1.631,-1.053c0.122,-1.369 0.627,-2.213 1.015,-1.696c0.202,0.27 0.204,0.294 -0,2.298c-0.228,2.243 -0.253,2.26 -3.165,2.036c-1.973,-0.153 -1.877,-0.225 -2.088,1.575c-0.256,2.19 -0.218,2.694 -2.802,2.719c-2.442,-0.017 -4.311,-0.15 -6.833,-0.152c-1.841,0.05 -2.442,-0.578 -2.475,-2.574c-0.03,-1.776 -0.023,-1.771 -2.336,-1.868c-2.789,-0.118 -3.526,-0.836 -3.564,-3.482c-0.015,-1.03 -0.843,-1.435 -2.468,-1.203c-2.56,0.365 -3.057,0.013 -3.354,-2.376c-0.247,-1.994 -0.114,-1.892 -2.459,-1.876c-2.522,0.018 -3.086,-0.406 -3.115,-2.357c-0.017,-1.132 -0.292,-1.472 -1.267,-1.56c-1.042,-0.095 -1.49,-0.631 -0.976,-1.163c0.094,-0.097 0.576,-0.156 1.337,-0.167l-0,-0Zm-48.41,0.32c0.111,-0.006 0.337,0.85 0.417,0.927c0.083,0.082 0.971,0.313 0.976,0.429c0.008,0.111 -0.852,0.337 -0.929,0.416c-0.082,0.084 -0.314,0.97 -0.43,0.976c-0.111,0.006 -0.336,-0.851 -0.415,-0.929c-0.083,-0.081 -0.97,-0.313 -0.977,-0.429c-0.008,-0.11 0.851,-0.335 0.928,-0.414c0.082,-0.083 0.314,-0.969 0.43,-0.976Zm123.076,0.894c0.655,-0 1.186,0.532 1.186,1.19c0,0.658 -0.531,1.193 -1.186,1.193c-0.655,0 -1.186,-0.535 -1.186,-1.193c0,-0.658 0.531,-1.19 1.186,-1.19Zm-3.241,0.085c0.655,-0 1.184,0.532 1.184,1.19c0,0.658 -0.529,1.195 -1.184,1.195c-0.656,-0 -1.191,-0.537 -1.191,-1.195c0,-0.658 0.535,-1.19 1.191,-1.19Zm-121.293,1.552c0.111,-0.006 0.337,0.849 0.416,0.927c0.084,0.081 0.969,0.313 0.976,0.429c0.007,0.111 -0.851,0.337 -0.929,0.416c-0.081,0.083 -0.313,0.969 -0.429,0.976c-0.111,0.006 -0.337,-0.852 -0.417,-0.929c-0.083,-0.081 -0.97,-0.313 -0.977,-0.429c-0.007,-0.111 0.853,-0.335 0.93,-0.415c0.082,-0.083 0.314,-0.969 0.43,-0.975Zm3.224,-0c0.111,-0.006 0.337,0.849 0.416,0.927c0.083,0.081 0.971,0.313 0.977,0.429c0.008,0.111 -0.852,0.337 -0.93,0.416c-0.081,0.083 -0.313,0.969 -0.429,0.976c-0.111,0.006 -0.336,-0.852 -0.415,-0.929c-0.084,-0.081 -0.971,-0.313 -0.977,-0.429c-0.008,-0.111 0.851,-0.335 0.928,-0.415c0.081,-0.083 0.314,-0.969 0.43,-0.975Zm45.169,0.856l25.823,19.93l10.965,-7.774l-0.097,2.829l-10.978,7.652l-25.819,-19.986l0.106,-2.651Zm74.751,0.572c0.655,0 1.186,0.532 1.186,1.19c-0,0.658 -0.531,1.191 -1.186,1.191c-0.655,-0 -1.186,-0.533 -1.186,-1.191c-0,-0.658 0.531,-1.19 1.186,-1.19Zm-23.636,0.223c1.18,0.235 2.379,1.024 3.464,1.573l2.238,4.273l-2.573,2.222l2.611,3.044l-2.738,3.258l2.746,1.935l-2.996,4.626l-3.389,1.568l3.741,-5.619l-2.948,-1.984l2.792,-3.768l-2.905,-3.508l2.924,-2.519l-2.967,-5.101Zm-0.654,0.187l2.455,4.789l-2.907,2.569l2.98,3.649l-2.815,3.81l2.922,2.062l-4.076,5.955l-0.078,-2.969l1.454,-2.211l-1.626,-1.41l-0.007,0l-0.008,-3.497l1.697,-1.844l-1.473,-2.02l0.478,-3.756l1.249,-0.946l-0.886,-1.786l0.284,-2.194l0.357,-0.201Zm-97.396,1.151c0.111,-0.006 0.337,0.851 0.417,0.928c0.083,0.082 0.971,0.313 0.976,0.43c0.008,0.11 -0.852,0.336 -0.929,0.415c-0.082,0.084 -0.314,0.968 -0.43,0.975c-0.111,0.006 -0.336,-0.85 -0.415,-0.928c-0.083,-0.081 -0.97,-0.313 -0.977,-0.429c-0.008,-0.11 0.851,-0.336 0.928,-0.416c0.082,-0.083 0.314,-0.969 0.43,-0.975Zm125.177,0.488l0,2.593l-6.765,6.38l-0,-2.738l6.765,-6.235Zm-121.447,0.952l0,3.133l-5.843,5.561l0,-3.183l5.843,-5.511Zm121.447,2.508l0,2.797l-6.765,6.398l-0,-2.886l6.765,-6.309Zm-121.447,1.514l0,2.539l-5.843,5.727l0,-2.63l5.843,-5.636Zm43.361,0.162l9.189,6.874l-0.02,23.066c-2.915,-1.998 -5.735,-4.035 -9.085,-5.859l-0.084,-24.081Zm9.942,7.519l1.825,1.435l0.05,23.493l-1.69,-1.511l-0.185,-23.417Zm64.664,0.418c0.656,-0 1.185,0.532 1.185,1.19c-0,0.658 -0.529,1.195 -1.185,1.195c-0.655,-0 -1.185,-0.537 -1.185,-1.195c-0,-0.658 0.53,-1.19 1.185,-1.19Zm-121.203,1.318c0.656,-0 1.186,0.532 1.186,1.19c0,0.658 -0.53,1.195 -1.186,1.195c-0.655,-0 -1.184,-0.537 -1.184,-1.195c-0,-0.658 0.529,-1.19 1.184,-1.19Zm59.109,1.002l4.805,4.969l-4.841,4.874l-0.134,-2.359l2.765,-2.371l-2.526,-2.662l-0.069,-2.451Zm63.523,0.575c0.655,-0 1.186,0.532 1.186,1.19c0,0.658 -0.531,1.19 -1.186,1.19c-0.655,0 -1.189,-0.532 -1.189,-1.19c0,-0.658 0.534,-1.19 1.189,-1.19Zm-3.196,0.011c0.655,0 1.186,0.533 1.186,1.191c0,0.658 -0.531,1.193 -1.186,1.193c-0.655,-0 -1.189,-0.535 -1.189,-1.193c0,-0.658 0.534,-1.191 1.189,-1.191Zm-57.324,1.182l2.816,2.065l-0.614,0.695c0,-0 -1.848,-2.049 -2.475,-2.709l0.273,-0.051Zm-60.368,0.222c0.656,-0 1.186,0.532 1.186,1.19c0,0.658 -0.53,1.19 -1.186,1.19c-0.655,0 -1.186,-0.532 -1.186,-1.19c0,-0.658 0.531,-1.19 1.186,-1.19Zm81.321,0.063c-0.134,-0.071 0.896,16.184 3.687,24.853l-10.978,7.29l-0.008,-26.936l7.299,-5.207Zm-84.482,0.097c0.656,-0 1.185,0.532 1.185,1.19c0,0.658 -0.529,1.191 -1.185,1.191c-0.655,-0 -1.185,-0.533 -1.185,-1.191c-0,-0.658 0.53,-1.19 1.185,-1.19Zm122.609,1.474c0.655,-0 1.186,0.537 1.186,1.195c-0,0.658 -0.531,1.19 -1.186,1.19c-0.655,0 -1.186,-0.532 -1.186,-1.19c-0,-0.658 0.531,-1.195 1.186,-1.195Zm-55.724,0.726l4.494,3.503l-0.008,2.413l-5.069,-5.227l0.583,-0.689Zm-65.468,0.717c0.656,0 1.186,0.532 1.186,1.19c0,0.658 -0.53,1.191 -1.186,1.191c-0.655,-0 -1.184,-0.533 -1.184,-1.191c-0,-0.658 0.529,-1.19 1.184,-1.19Zm64.407,0.397l5.113,5.396l-5.209,5.326l-5.113,-5.322l5.209,-5.4Zm38.595,0.57l-5.209,2.564c2.492,20.31 8.289,31.572 14.341,41.412l-0.037,-24.86c-3.552,-6.099 -7.198,-12.253 -9.095,-19.116l0,-0Zm21.681,0.094l0,2.572l-6.668,6.479l-0,-2.776l6.668,-6.275Zm-121.447,1.013l0,2.78l-5.843,5.833l0,-2.898l5.843,-5.715Zm61.09,0.426l-3.327,3.239l3.299,3.381l3.321,-3.301l-3.293,-3.319Zm6.29,0.92l1.351,0.939l-0.101,27.392l-1.111,0.541l-0.139,-28.872Zm-7.452,1.286l2.17,-0l-0,2.166l-2.17,-0l-0,-2.166Zm61.519,0.024l0,2.488l-6.668,6.524l-0,-2.847l6.668,-6.165Zm-98.471,0.737c11.401,-0.155 22.111,4.387 28.89,9.994c3.533,2.917 6.403,6.478 9.898,11.664c6.727,10.537 18.576,15.625 29.611,15.743l0.913,1.428l-1.843,-0.061c-0,-0 -0.186,1.324 -0.211,3.577c-0.027,2.536 -0.012,2.982 0.186,3.055c1.336,0.156 5.366,0.073 5.248,-0.099l0.829,1.489c-13.155,1.362 -26.1,-3.236 -34.293,-10.622c-6.372,-5.536 -11.266,-13.94 -16.642,-18.638c-2.173,-1.892 -7.49,-4.847 -10.358,-5.755c-3.262,-1.032 -5.798,-1.455 -9.072,-1.513c-2.584,-0.046 -2.595,-0.061 -2.595,-0.061l-1.095,-1.954l1.808,0.025l0.12,-6.895c-1.916,-0.094 -3.793,0.012 -5.645,0.242l-0.668,-1.255c1.648,-0.224 3.291,-0.342 4.919,-0.364l0,-0Zm-22.976,0.252l0,2.821l-5.843,6.007l0,-2.952l5.843,-5.876Zm66.686,0.754l0.032,2.624l-2.82,2.564l2.872,3.015l-0.059,2.028c-1.838,-1.51 -3.407,-3.369 -5.062,-5.083l5.037,-5.148Zm-39.638,0.447c-0.515,0 -0.856,0.08 -0.882,0.285c-0.129,1.396 -0.211,4.681 -0.229,5.798c-0.046,0.374 0.042,0.728 0.415,0.773c2.339,0.28 4.942,0.896 6.185,0.94c0.459,-0.014 0.462,-0.501 0.814,-2.085c0.076,-0.344 0.32,-1.264 0.539,-2.046c0.663,-2.371 0.747,-2.415 -1.301,-2.823c-0.889,-0.133 -3.998,-0.843 -5.541,-0.842Zm28.87,0.05l4.556,4.657l-4.568,4.445l0.009,-2.064l2.193,-2.233l-2.2,-2.404l0.01,-2.401Zm-52.414,0.009c10.572,15.108 16.757,32.767 18.592,49.503c0,-0 -5.589,2.483 -8.344,4.094c-2.959,-6.939 -1.869,-7.877 -10.248,-21.955l-0,-31.642Zm27.307,1.317l0.886,0.934l1.085,0.021l-0.398,1.477l0.701,0.673l-1.018,0.502l-0.083,1.318l-1.089,-0.655l-0.971,0.955l-0.53,-1.142l-1.115,0.374l0.008,-1.366l-0.995,-0.63l1.199,-0.554l0.106,-1.661l1.216,0.377l0.998,-0.623Zm-10.192,0.094l1.003,0.492l1.101,-0.409l-0.168,1.358l0.851,0.679l-0.861,0.794l0.04,0.998l-1.011,-0.344l-1.495,-2.541l0.54,-1.027Zm16.146,0.674c-0.332,0.024 -0.421,0.259 -0.508,0.6c-0.062,0.24 -0.337,1.157 -0.643,2.154c-1.07,3.493 -1.391,3.329 0.202,3.859c0.549,0.183 2.273,0.765 3.359,1.268c1.076,0.499 1.563,0.94 1.908,0.933c0.764,-0.549 2.838,-4.496 3.193,-5.363c0,-0.21 -1,-0.845 -2.249,-1.432c-1.066,-0.499 -4.522,-1.892 -4.84,-1.969c-0.174,-0.042 -0.312,-0.058 -0.422,-0.05l-0,0Zm1.334,1.696l1.169,0.698l0.887,-0.386l0.646,1.209l1.383,0.056l-0.755,1.314l0.711,1.037l-1.002,0.066l-0.779,1.411l-1.015,-0.851l-0.85,0.513l-0.49,-0.876l-1.222,-0.17l0.548,-1.339l-0.718,-1.033l1.192,-0.222l0.295,-1.427Zm23.04,1.408l5.329,5.646l-4.928,4.66l-5.535,-5.333l5.134,-4.973Zm-14.719,1.308c-0.173,-0.008 -0.297,0.082 -0.419,0.266c-3.492,5.238 -3.639,5.06 -2.257,6.082c1.404,1.079 3.045,2.685 4.167,3.238c0.472,0.232 0.555,0.088 1.041,-0.334c1.139,-0.977 3.568,-3.796 3.564,-4.262c-0.007,-0.463 -3.364,-3.38 -5.385,-4.674c-0.317,-0.203 -0.538,-0.308 -0.711,-0.316Zm71.678,0.254c0.656,-0 1.191,0.535 1.191,1.193c-0,0.658 -0.535,1.191 -1.191,1.191c-0.655,-0 -1.184,-0.533 -1.184,-1.191c-0,-0.658 0.529,-1.193 1.184,-1.193Zm-56.926,0.594l-3.016,2.905l3.198,3.39l3.095,-2.927l-3.277,-3.368Zm-55.077,0.136l-0,24.217c3.426,5.446 6.021,12.006 8.649,18.522l4.96,-2.043c-1.898,-17.264 -6.972,-30.205 -13.609,-40.696Zm-9.238,0.402c0.655,-0 1.186,0.536 1.186,1.194c0,0.658 -0.531,1.191 -1.186,1.191c-0.655,-0 -1.189,-0.533 -1.189,-1.191c0,-0.658 0.534,-1.194 1.189,-1.194Zm50.221,0.605l1.095,1.108l1.256,-0.106l-0.071,1.236l1.111,0.539l-0.705,0.813l0.442,1.111l-1.329,-0.21l-0.759,1.04l-0.931,-0.831l-1.111,0.291l-0.251,-1.103l-1.071,-0.396l0.576,-1.122l-0.08,-1.412l1.079,0.201l0.749,-1.159Zm13.112,0.87l2.168,-0l0,2.166l-2.168,0l-0,-2.166Zm56.046,0.482c0.655,-0 1.186,0.532 1.186,1.19c-0,0.658 -0.531,1.194 -1.186,1.194c-0.656,-0 -1.186,-0.536 -1.186,-1.194c-0,-0.658 0.53,-1.19 1.186,-1.19Zm3.475,0.012c0.655,-0 1.185,0.532 1.185,1.19c-0,0.658 -0.53,1.193 -1.185,1.193c-0.655,0 -1.186,-0.535 -1.186,-1.193c0,-0.658 0.531,-1.19 1.186,-1.19Zm-121.257,1.24c0.655,-0 1.186,0.537 1.186,1.195c-0,0.658 -0.531,1.19 -1.186,1.19c-0.656,0 -1.186,-0.532 -1.186,-1.19c-0,-0.658 0.53,-1.195 1.186,-1.195Zm-3.27,0.05c0.655,-0 1.189,0.534 1.189,1.192c0,0.658 -0.534,1.19 -1.189,1.19c-0.655,0 -1.186,-0.532 -1.186,-1.19c0,-0.658 0.531,-1.192 1.186,-1.192Zm71.637,0.486l-0.032,2.125l-2.705,2.588l2.628,2.697l0.011,1.574l-4.653,-4.51l4.751,-4.474Zm-29.666,0.36l1.927,1.007l-10.826,6.914l-0.661,-2.009l9.56,-5.912Zm80.921,0.722c0.656,-0 1.185,0.532 1.185,1.19c-0,0.658 -0.529,1.192 -1.185,1.192c-0.655,0 -1.186,-0.534 -1.186,-1.192c0,-0.658 0.531,-1.19 1.186,-1.19Zm-60.47,0.004l3.359,3.377l-0.422,0.459l-2.937,-3.836Zm-3.508,0.309c-0.038,-0.003 -0.075,0 -0.115,0.01c-0.19,0.049 -0.414,0.248 -0.781,0.616c-0.777,0.886 -3.626,3.313 -3.543,3.962c0.157,0.743 1.135,1.588 3.566,4.889c0.324,0.416 0.514,0.608 0.732,0.611c0.169,0.004 0.353,-0.107 0.621,-0.318c0.243,-0.192 0.836,-0.606 1.32,-0.922c1.779,-1.161 3.288,-2.25 3.354,-2.411c0.138,-0.333 -1.647,-2.671 -4.126,-5.476c-0.532,-0.603 -0.766,-0.94 -1.028,-0.961l-0,0Zm-57.336,1.182c0.655,-0 1.184,0.536 1.184,1.194c-0,0.658 -0.529,1.191 -1.184,1.191c-0.656,-0 -1.191,-0.533 -1.191,-1.191c0,-0.658 0.535,-1.194 1.191,-1.194Zm124.685,0.252l0,2.781l-6.539,6.248l0,-2.751l6.539,-6.278Zm-66.819,0.728l0.663,1.277l1.395,-0.022l-0.196,1.228l0.973,0.82l-1.061,0.631l-0.148,1.12l-0.916,-0.08l-0.952,1.042l-0.713,-1.34l-1.082,0.184l0.142,-1.232l-0.917,-0.723l0.902,-1.252l-0.119,-0.891l1.061,0.241l0.968,-1.003Zm29.263,0.993l0.468,1.305l-14.795,9.595l-1.176,-0.889l15.503,-10.011Zm-83.891,0.153l0,3.061l-5.843,5.501l0,-2.928l5.843,-5.634Zm61.57,0.372l4.77,4.727l-1.399,1.38l-3.889,-5.587l0.518,-0.52Zm-16.492,0.126l1.291,1.489l-15.471,9.969l-0.59,-1.806l14.77,-9.652Zm76.369,1.327l0,3.074l-6.539,6.231l0,-2.976l6.539,-6.329Zm-73.967,0.67l-0.096,28.868l-1.218,-0.586l-0.05,-27.634l1.364,-0.648Zm0.453,1.066l0.652,0.568l-0.532,0.534l-0.12,-1.102Zm-47.933,0.454l0,3.275l-5.843,5.786l0,-3.58l5.843,-5.481Zm49.219,0.646l4.299,5.755l-0.188,0.157l-5.069,-4.887l0.958,-1.025Zm11.172,0.039c-0.421,0.051 -1.094,0.501 -2.59,1.579c-2.906,2.095 -2.892,1.785 -0.22,5.248c1.537,1.994 2.271,3.217 2.901,3.173c0.491,-0.035 0.993,-0.618 1.946,-1.634c0.934,-0.998 2.036,-2.169 2.272,-2.335c0.736,-0.521 0.7,-0.647 -0.582,-2.093c-0.389,-0.439 -1.125,-1.336 -1.634,-1.996c-0.51,-0.659 -1.322,-1.485 -1.484,-1.654c-0.195,-0.206 -0.356,-0.319 -0.609,-0.288Zm-18.22,1.024l-0.102,27.435l-7.251,4.719c-0.834,-9.473 -1.412,-16.03 -3.849,-24.962l11.202,-7.192Zm24.469,0.583l0.046,2.008l-1.099,-0.972l1.053,-1.036Zm-18.67,0.153l4.945,4.952l-5.025,4.956l-0.044,-2.102l2.826,-2.651l-2.787,-2.918l0.085,-2.237Zm12.264,0.256l0.809,0.954l0.955,-0.112l-0.032,1.161l0.974,0.555l-0.689,0.756l-0.02,1.3l-1.419,0.053l-0.687,0.647l-0.718,-0.992l-1.217,0.078l0.18,-1.169l-0.648,-0.474l0.631,-0.885l0.052,-1.117l1.005,0.24l0.824,-0.995Zm26.182,1.056l0.644,1.77l-9.459,6.222l-1.798,-0.922l10.613,-7.07Zm-32.197,3.492l1.745,2.272l-1.918,-2.066l0.173,-0.206Zm63.988,0.323c0.656,0 1.189,0.533 1.189,1.191c0,0.658 -0.533,1.19 -1.189,1.19c-0.655,0 -1.186,-0.532 -1.186,-1.19c0,-0.658 0.531,-1.191 1.186,-1.191Zm-51.617,0.125c-0.438,0.035 -0.942,0.681 -2.411,2.156c-1.534,1.54 -2.48,1.972 -1.882,2.783c1.453,1.251 2.644,2.165 4.22,3.361c1.041,0.78 1.576,1.15 1.936,1.145c0.318,-0.004 0.5,-0.299 0.775,-0.864c0.117,-0.238 0.794,-1.507 1.417,-2.489c1.409,-2.215 1.409,-2.102 0.008,-2.969c-0.596,-0.368 -1.97,-1.501 -3.149,-2.572c-0.409,-0.371 -0.648,-0.571 -0.911,-0.551l-0.003,0Zm-13.25,0.281l5.474,5.406l-4.984,5.001l-5.476,-5.389l4.986,-5.018Zm-56.483,1.042c0.655,-0 1.186,0.532 1.186,1.19c0,0.658 -0.531,1.193 -1.186,1.193c-0.656,0 -1.184,-0.535 -1.184,-1.193c-0,-0.658 0.528,-1.19 1.184,-1.19Zm69.96,0.341l0.727,0.701l1.417,-0.096l0.226,1.214l0.614,0.484l-0.477,0.803l0.349,1.07l-1.214,0.084l-0.737,0.833l-0.901,-0.67l-1.058,0.456l-0.076,-1.251l-0.962,-0.476l0.606,-0.886l-0.367,-1.166l1.042,-0.033l0.811,-1.067Zm-13.653,0.688l-3.018,3.114l3.428,3.377l3.23,-3.179l-3.64,-3.312Zm63.339,0.659c0.656,0 1.185,0.533 1.185,1.191c-0,0.658 -0.529,1.193 -1.185,1.193c-0.655,-0 -1.186,-0.535 -1.186,-1.193c0,-0.658 0.531,-1.191 1.186,-1.191Zm3.413,0.039c0.655,-0 1.186,0.532 1.186,1.19c-0,0.658 -0.531,1.19 -1.186,1.19c-0.656,0 -1.185,-0.532 -1.185,-1.19c0,-0.658 0.529,-1.19 1.185,-1.19Zm-121.481,1.249c0.655,-0 1.185,0.532 1.185,1.19c0,0.658 -0.53,1.19 -1.185,1.19c-0.656,0 -1.189,-0.532 -1.189,-1.19c-0,-0.658 0.533,-1.19 1.189,-1.19Zm-3.185,0.12c0.656,0 1.185,0.533 1.185,1.191c-0,0.658 -0.529,1.19 -1.185,1.19c-0.655,-0 -1.188,-0.532 -1.188,-1.19c-0,-0.658 0.533,-1.191 1.188,-1.191Zm57.026,0.03l2.171,-0l-0,2.167l-2.171,0l0,-2.167Zm21.099,0.671c-0.347,0.043 -0.537,0.366 -0.911,1.008c-0.332,0.57 -0.961,1.969 -1.402,2.694c-1.099,1.811 -1.13,1.723 0.89,2.7c1.189,0.575 1.908,0.81 4.407,1.828c0.694,0.282 1.139,0.475 1.468,0.47c0.63,-0.01 0.712,-1.179 1.394,-3.39c0.951,-3.085 1.018,-2.8 -0.806,-3.443c-0.813,-0.287 -2.367,-0.813 -3.189,-1.201c-1.002,-0.473 -1.505,-0.709 -1.851,-0.666Zm44.797,0.858c0.655,0 1.186,0.534 1.186,1.192c-0,0.658 -0.531,1.191 -1.186,1.191c-0.655,-0 -1.185,-0.533 -1.185,-1.191c0,-0.658 0.53,-1.192 1.185,-1.192Zm-58.141,0.099l1.677,1.54l0.097,23.482l-1.742,-1.345l-0.032,-23.677Zm-0.774,0.082l0.087,2.407c-0.943,0.842 -2.066,1.801 -2.895,2.751l2.88,2.951l0.007,1.844l-4.961,-4.971l4.882,-4.982Zm-11.401,0.031l5.483,5.107l-5.531,5.475l0.162,-2.532l2.922,-2.902l-3.109,-3.032l0.073,-2.116Zm26.255,0.508l1.006,0.709l1.067,-0.387l0.296,0.797l1.091,0.53l-0.395,0.878l0.544,1.184l-1.249,0.096l-0.643,1.269l-0.876,-0.551l-0.983,0.412l-0.197,-1.063l-1.075,-0.419l0.306,-1.044l-0.474,-0.784l0.917,-0.178l0.665,-1.449Zm-77.408,0.627c0.655,-0 1.186,0.533 1.186,1.191c-0,0.658 -0.531,1.191 -1.186,1.191c-0.656,-0 -1.186,-0.533 -1.186,-1.191c-0,-0.658 0.53,-1.191 1.186,-1.191Zm85.693,0.896c-0.804,-0.025 -0.64,0.383 -0.953,1.274c-0.39,1.113 -0.601,2.101 -1.085,3.69c-0.443,1.456 -0.24,1.502 2.616,2.038c1.975,0.371 4.024,0.648 4.871,0.648c0.282,0.001 0.452,-0.024 0.484,-0.078c0.072,-0.122 0.031,-1.209 0.271,-5.146c0.087,-1.443 0.187,-1.449 -1.017,-1.594c-1.011,-0.035 -3.274,-0.617 -4.779,-0.795c-0.159,-0.021 -0.293,-0.034 -0.408,-0.037l0,-0Zm38.915,0.153l-0,2.836l-6.129,5.803l0,-2.833l6.129,-5.806Zm-58.649,0.16c3.448,2.604 6.215,4.156 8.831,5.475l-0.353,24.385l-8.514,-6.656l0.036,-23.204Zm21.956,0.752l0.689,0.878l1.002,0.033l-0.055,1.248l0.651,0.551l-0.777,0.7l0.1,1.105l-1.235,-0.207l-0.779,0.906l-0.533,-0.879l-1.279,-0.211l0.224,-0.895l-0.65,-0.923l0.8,-0.602l-0.028,-1.113l1.001,0.035l0.869,-0.626Zm-84.618,0.15l0,2.986l-5.843,5.936l0,-3.133l5.843,-5.789Zm92.809,1.221l1.8,3.538l-1.171,-0.477l-0.895,0.597l-0.274,-1.312l-0.788,-0.52l0.802,-0.554l0.035,-0.853l0.491,-0.419Zm-39.083,1.188l5.319,5.064l-5.569,5.447l-5.143,-5.106l5.393,-5.405Zm67.585,0.004l-0,3.072l-6.129,5.762l0,-2.889l6.129,-5.945Zm-121.311,1.57l0,2.704l-5.843,5.697l0,-2.714l5.843,-5.687Zm53.458,0.489l-3.177,3.205l3.199,3.214l3.278,-3.214l-3.3,-3.205Zm-1.033,2.122l2.169,0l-0,2.166l-2.169,0l-0,-2.166Zm6.844,1.803l0.042,2.353l-2.976,2.882l2.991,3.115l-0.215,1.623l-5.192,-4.876l5.35,-5.097Zm-11.326,0.241l4.92,4.754l-0.797,0.791l-4.114,-3.154l-0.009,-2.391Zm70.217,3.051c0.655,0 1.186,0.535 1.186,1.193c0,0.658 -0.53,1.191 -1.186,1.191c-0.655,-0 -1.184,-0.533 -1.184,-1.191c-0,-0.658 0.529,-1.193 1.184,-1.193Zm-121.462,1.279c0.655,-0 1.186,0.533 1.186,1.191c0,0.658 -0.531,1.194 -1.186,1.194c-0.655,-0 -1.184,-0.536 -1.184,-1.194c-0,-0.658 0.529,-1.191 1.184,-1.191Zm24.43,0.736l-4.079,5.381l3.376,2.328l-3.202,3.464l2.872,3.781l-2.974,2.334l3.218,5.299l-0.21,0.255l-3.078,-1.628l-2.925,-4.774l2.919,-2.128l-2.657,-3.413l2.866,-2.949l-3.15,-2.01l2.945,-4.121l4.079,-1.819Zm32.355,0.2l3.652,4.037l-4.33,-3.211l0.678,-0.826Zm-31.312,0.131l0.042,2.645l-1.433,1.734l1.643,1.136l0.008,3.641l-1.672,1.768l1.532,1.553l-0.274,3.983l-1.458,1.159l1.204,1.658l-0.433,2.401c-0.091,-0.164 -0.383,-0.224 -0.524,-0.444c-0.96,-1.492 -2.7,-4.144 -2.7,-4.144l3.048,-2.427l-2.799,-3.69l3.496,-3.567l-3.571,-2.441c-0,0 2.216,-3.405 3.892,-4.965l-0.001,-0Zm97.756,0.742c0.656,-0 1.186,0.533 1.186,1.191c0,0.658 -0.53,1.194 -1.186,1.194c-0.655,-0 -1.186,-0.536 -1.186,-1.194c0,-0.658 0.531,-1.191 1.186,-1.191Zm-74.284,0.017c0.397,-0.031 0.789,0.18 1.083,0.404c8.048,6.402 16.284,12.61 24.443,18.881l-0.046,1.893l-21.671,-16.281c-0,-0 -2.002,-1.513 -2.575,-1.878c-1.217,-0.775 -1.46,-0.464 -2.674,0.373c-2.738,1.633 -9.365,6.162 -9.365,6.162l0.052,-2.346c0,0 6.667,-5.009 10.358,-7.087c0.131,-0.073 0.263,-0.11 0.395,-0.121l0,0Zm70.809,0.046c0.655,-0 1.186,0.532 1.186,1.19c-0,0.658 -0.531,1.19 -1.186,1.19c-0.655,0 -1.185,-0.532 -1.185,-1.19c0,-0.658 0.53,-1.19 1.185,-1.19Zm-117.816,1.034c0.655,0 1.185,0.533 1.185,1.191c-0,0.658 -0.53,1.19 -1.185,1.19c-0.655,0 -1.186,-0.532 -1.186,-1.19c0,-0.658 0.531,-1.191 1.186,-1.191Zm-3.378,0.144c0.655,0 1.186,0.537 1.186,1.195c-0,0.658 -0.531,1.19 -1.186,1.19c-0.655,0 -1.185,-0.532 -1.185,-1.19c0,-0.658 0.53,-1.195 1.185,-1.195Zm122.949,1.689c0.656,-0 1.189,0.537 1.189,1.195c0,0.658 -0.533,1.19 -1.189,1.19c-0.655,-0 -1.186,-0.532 -1.186,-1.19c0,-0.658 0.531,-1.195 1.186,-1.195Zm3.413,2.541l-0,3.242l-6.438,6.1l0,-3.445l6.438,-5.897Zm-121.62,0.793l0,3.014l-5.843,5.718l0,-3.043l5.843,-5.689Zm41.412,0.238c0.697,-0.029 1.744,0.108 2.238,0.249c0.249,0.071 1.809,0.109 3.656,0.089c4.449,-0.047 4.496,-0.057 4.492,3.082c0,1.321 0.287,1.604 2.616,1.534c2.922,-0.088 2.769,-0.166 3.265,3.357c0.173,1.221 0.27,1.267 2.689,1.233c2.635,-0.038 3.234,-0.077 3.079,2.154c-0.141,2.027 0.352,2.559 2.55,2.046c2.342,-0.548 2.79,0.451 3.018,2.264c0.212,1.679 0.353,1.259 1.472,1.346c1.238,0.097 1.094,1.497 -0.221,1.627c-0.225,0.022 -0.427,0.051 -0.612,0.057c-1.296,0.046 -1.697,-0.568 -1.915,-2.543c-0.149,-1.357 -0.439,-1.483 -2.563,-1.125c-2.242,0.379 -2.993,-0.233 -3.153,-2.564c-0.127,-1.849 -0.111,-1.834 -2.662,-1.852c-2.51,-0.017 -2.779,-0.272 -3.068,-2.855c-0.214,-1.919 -0.143,-1.866 -2.611,-1.833c-2.735,0.037 -2.981,-0.166 -3.165,-2.595c-0.151,-1.968 -0.279,-2.095 -2.006,-1.953c-1.692,0.14 -4.813,0.156 -5.397,0.028c-1.455,-0.319 -1.515,-0.258 -1.828,1.712c-0.412,2.595 -0.924,2.919 -4.099,2.598c-1.561,-0.157 -1.742,-0.125 -1.963,1.254c-0.295,1.839 -0.663,2.378 -0.663,0.785c-0,-4.025 0.277,-4.213 2.951,-3.496c2.009,0.537 2.041,0.124 2.252,-1.818c0.184,-1.713 0.473,-2.414 1.1,-2.688c0.122,-0.053 0.315,-0.083 0.548,-0.093Zm80.208,2.975l-0,2.961l-6.438,6.075l0,-3.066l6.438,-5.97Zm-75.735,0.363c-0,-0 9.864,7.67 14.631,11.374l-2.285,0.625l-12.333,-9.242l-11.674,7.845l0.07,-2.862l11.591,-7.74Zm-45.885,0.345l0,2.542l-5.843,5.942l0,-2.888l5.843,-5.596Zm118.381,7.515c0.111,-0.006 0.337,0.85 0.416,0.928c0.084,0.081 0.971,0.313 0.977,0.429c0.008,0.11 -0.852,0.336 -0.93,0.416c-0.081,0.083 -0.313,0.969 -0.429,0.975c-0.111,0.007 -0.337,-0.851 -0.417,-0.928c-0.083,-0.082 -0.969,-0.313 -0.975,-0.43c-0.008,-0.11 0.851,-0.335 0.928,-0.414c0.082,-0.083 0.314,-0.969 0.43,-0.976Zm-117.374,1.576l1.911,0.066l-0,29.867l-1.911,-0l-0,-29.933Zm-4.157,0.039c0.656,0 1.186,0.534 1.186,1.192c-0,0.658 -0.53,1.193 -1.186,1.193c-0.655,0 -1.185,-0.535 -1.185,-1.193c0,-0.658 0.53,-1.192 1.185,-1.192Zm120.073,0.916c0.111,-0.006 0.335,0.85 0.415,0.927c0.083,0.081 0.97,0.313 0.977,0.429c0.007,0.111 -0.851,0.337 -0.929,0.416c-0.081,0.083 -0.313,0.969 -0.429,0.976c-0.111,0.006 -0.337,-0.851 -0.417,-0.929c-0.083,-0.081 -0.97,-0.313 -0.977,-0.429c-0.007,-0.111 0.853,-0.336 0.93,-0.416c0.081,-0.083 0.314,-0.968 0.43,-0.974Zm3.224,-0c0.111,-0.006 0.337,0.85 0.416,0.927c0.083,0.081 0.97,0.313 0.977,0.429c0.008,0.111 -0.852,0.337 -0.93,0.416c-0.081,0.083 -0.313,0.969 -0.43,0.976c-0.11,0.006 -0.335,-0.851 -0.414,-0.929c-0.084,-0.081 -0.971,-0.313 -0.978,-0.429c-0.007,-0.111 0.851,-0.336 0.929,-0.416c0.081,-0.083 0.313,-0.968 0.43,-0.974Zm-59.896,1.844c3.223,-0.051 5.478,4.072 3.162,7.208c-2.091,2.833 -5.367,2.796 -6.36,-0.07c-0.822,-2.369 1.817,-5.343 3.924,-4.419c1.463,0.642 1.09,3.29 -0.555,3.913c-0.681,0.258 -1.257,-0.61 -0.921,-1.389c0.265,-0.613 0.293,-0.996 -0.066,-0.736c-1.487,1.053 -0.367,3.561 1.478,2.623c2.463,-1.251 2.048,-4.93 -0.432,-5.09c-3.139,-0.31 -5.561,3.572 -7.111,10.945c-1.702,8.251 -1.279,15.638 -2.909,22.117l-1.445,0.025c0.196,-3.954 1.02,-6.718 1.272,-11.392c0.313,-5.71 1.289,-12.818 3.847,-18.713c0.861,-1.986 2.453,-3.85 4.686,-4.729c0.49,-0.193 0.97,-0.286 1.43,-0.293l0,0Zm-61.738,0.404c0.655,0 1.184,0.533 1.184,1.191c0,0.658 -0.529,1.194 -1.184,1.194c-0.656,0 -1.186,-0.536 -1.186,-1.194c-0,-0.658 0.53,-1.191 1.186,-1.191Zm-3.341,0.069c0.656,0 1.186,0.534 1.186,1.192c0,0.658 -0.53,1.19 -1.186,1.19c-0.655,0 -1.184,-0.532 -1.184,-1.19c-0,-0.658 0.529,-1.192 1.184,-1.192Zm25.587,0.66c1.328,0.027 2.593,1.251 3.784,3.667c1.872,3.796 2.386,6.616 1.48,8.135c-0.037,0.063 -0.082,0.093 -0.135,0.09c-0.283,-0.021 -0.788,-1.028 -1.58,-3.136c-0.764,-2.033 -1.997,-4.596 -2.259,-4.693c-0.08,-0.029 -0.428,0.093 -0.771,0.274c-2.6,1.37 -4.43,-2.519 -1.867,-3.965c0.456,-0.257 0.905,-0.381 1.348,-0.372Zm97.622,0.012c0.111,-0.006 0.337,0.851 0.416,0.929c0.084,0.081 0.971,0.313 0.977,0.429c0.008,0.11 -0.852,0.336 -0.93,0.416c-0.081,0.083 -0.313,0.967 -0.429,0.974c-0.111,0.006 -0.337,-0.85 -0.417,-0.927c-0.083,-0.082 -0.969,-0.313 -0.975,-0.429c-0.008,-0.111 0.851,-0.337 0.928,-0.416c0.082,-0.084 0.314,-0.97 0.43,-0.976Zm-53.169,1.239c0.303,0.067 0.893,0.68 1.308,1.497c0.921,1.817 -0.779,5.332 -3.099,6.404c-0.486,0.225 -1.024,0.328 -1.488,0.338c-1.021,0.023 -1.693,-0.395 -0.716,-0.914c3.108,-1.649 4.414,-4.017 3.819,-6.931c-0.046,-0.229 -0.018,-0.352 0.064,-0.388c0.03,-0.014 0.068,-0.016 0.112,-0.006l-0,-0Zm-40.23,0.64c0.501,0.042 1.402,0.42 1.765,0.812c0.748,0.806 0.986,2.61 0.482,3.641c-0.149,0.301 -0.256,0.474 -0.373,0.466c-0.689,-1.673 -1.4,-3.309 -2.208,-4.835c0.043,-0.073 0.166,-0.097 0.334,-0.084Zm-27.978,0.337c0.656,-0 1.186,0.535 1.186,1.193c0,0.658 -0.53,1.192 -1.186,1.192c-0.654,0 -1.184,-0.534 -1.184,-1.192c-0,-0.658 0.53,-1.193 1.184,-1.193Zm70.629,0.188c0.226,-0.042 0.564,0.274 1.017,0.951c1.561,2.332 -1.568,7.377 -4.121,7.49c-0.314,0.014 -0.618,-0.046 -0.904,-0.195c-0.673,-0.35 -0.574,-0.609 0.458,-1.217c1.064,-0.627 1.483,-1.021 2.095,-1.95c0.954,-1.45 1.116,-2.008 1.117,-3.875c0,-0.761 0.113,-1.162 0.338,-1.204Zm2.137,1.371c0.08,-0.026 0.198,0.037 0.368,0.168c2.278,1.747 -0.164,7.843 -3.251,8.112c-0.085,0.007 -0.168,0.012 -0.244,0.014c-1.155,0.028 -1.316,-0.557 -0.282,-1.283c1.972,-1.383 3.289,-3.819 3.257,-6.034c-0.009,-0.643 0.019,-0.934 0.152,-0.977Zm1.914,0.569c0.126,0.019 0.345,0.217 0.708,0.595c1.561,1.622 0.46,6.024 -2.565,7.671c-0.411,0.217 -0.81,0.308 -1.13,0.304c-0.704,-0.007 -1.021,-0.46 -0.198,-0.98c2.006,-1.266 3.213,-3.684 3.095,-6.206c-0.07,-0.952 -0.12,-1.416 0.09,-1.384Zm2.062,1.009c0.162,0.015 0.441,0.162 0.897,0.491c1.284,1.07 1.027,3.851 -0.335,5.759c-0.84,1.178 -2.58,2.228 -3.621,2.24c-0.193,0.002 -0.361,-0.028 -0.499,-0.097c-0.548,-0.275 -0.347,-0.314 0.658,-1.033c1.781,-1.275 2.662,-3.151 2.869,-5.245c0.099,-1.007 -0.456,-2.158 0.031,-2.115Zm-17.757,0.168c0.015,-0.004 0.024,0.01 0.026,0.043c0.188,0.847 0.722,1.534 1.13,2.204c-1.701,4.646 -2.387,8.874 -2.823,12.855c-0.511,4.652 -0.655,8.967 -1.295,13.22l-1.65,0.05c0.132,-0.612 0.155,-1.265 0.268,-2.014c0.65,-4.329 1.036,-10.648 1.702,-15.599c0.882,-6.551 2.418,-10.693 2.642,-10.759l-0,-0Zm-55.989,0.093l0,2.968l-5.843,5.843l0,-2.899l5.843,-5.912Zm76.112,1.019c0.06,-0.005 0.129,0.008 0.181,0.011c0.428,0.071 0.691,0.524 0.815,0.908c1.421,2.849 -1.206,7.175 -3.994,7.281c-0.288,0.011 -0.575,-0.027 -0.86,-0.117c-0.698,-0.22 -0.441,-0.236 0.734,-1.02c2.241,-1.494 2.923,-2.957 3.022,-5.949c0.029,-0.45 -0.065,-0.823 -0.026,-1.012c0.016,-0.072 0.068,-0.096 0.128,-0.102l-0,0Zm2.216,1.665c0.101,0.009 0.286,0.174 0.622,0.479c2.287,3.214 -1.008,7.121 -3.661,7.101c-1.184,-0.015 -1.753,-0.367 -0.968,-0.68c2.602,-1.038 3.758,-2.692 3.901,-5.583c0.007,-0.913 -0.063,-1.331 0.106,-1.317Zm-20.568,0.118l1.342,0.816c-2.222,7.325 -2.813,16.752 -3.781,24.55l-1.391,0.059c0.055,-1.401 0.608,-7.869 1.269,-13.532c0.745,-6.385 2.269,-11.893 2.561,-11.893l0,-0Zm-57.76,0.838l0,2.463l-5.843,6.122l0,-2.547l5.843,-6.038Zm59.935,0.367l1.311,0.456c-0.877,-0.276 -3.036,16.846 -3.422,23.499l-1.573,0.154c0.233,-3.348 0.796,-8.612 1.427,-13.359c0.762,-5.74 1.76,-10.826 2.257,-10.75Zm2.041,0.967c0.238,0.01 0.628,0.348 1.436,0.798c-1.404,-0.199 -2.53,15.75 -3.331,22.058l-1.448,0.073c0.564,-9.263 1.915,-17.661 2.715,-21.266c0.247,-1.086 0.328,-1.556 0.534,-1.647c0.028,-0.012 0.06,-0.018 0.094,-0.016l-0,-0Zm-41.373,0.466c-1.703,0.105 -3.372,1.79 -2.568,3.993c0.515,1.411 1.823,1.621 3.482,1.34c-0,-0 0.714,0.51 1.555,3.067c0.995,3.027 2.556,6.142 2.556,6.142c0.098,-3.797 0.988,-7.75 -0.674,-10.857c-1.228,-2.256 -2.17,-3.085 -3.252,-3.516c-0.244,-0.098 -0.501,-0.152 -0.759,-0.169c-0.113,-0.008 -0.227,-0.007 -0.34,-0Zm0.259,0.308c2.46,0.148 4.826,4.522 4.56,9.188c-0.084,1.47 -0.326,2.62 -0.326,2.62c-1.1,-2.292 -1.333,-4.016 -2.401,-6.093c-0.467,-0.906 -0.886,-1.684 -0.886,-1.684c-3.486,1.647 -4.828,-2.5 -2.001,-3.823c0.348,-0.163 0.702,-0.229 1.054,-0.208Zm43.196,0.296l1.471,0.688c-0.402,-0.133 -1.449,4.261 -1.804,9.231c-0.308,4.327 -1.085,9.034 -1.315,11.642l-1.604,0.194c1.027,-7.013 1.125,-15.207 3.252,-21.755Zm2.189,1.08l1.503,0.766c-0.789,-0.239 -2.165,14.263 -3.002,19.414l-1.516,0.238c0.586,-2.477 0.586,-6.126 1.025,-9.17c0.543,-3.769 1.122,-11.424 1.99,-11.248Zm2.268,1.049l1.43,0.761c-0.557,2.32 -1.971,10.205 -2.754,17.993l-1.526,0.209c0.734,-5.662 2.064,-18.864 2.85,-18.963Zm2.17,1.167l1.566,0.71c-0,-0 -1.086,5.322 -1.601,9.061c-0.508,3.69 -0.587,4.217 -0.749,5.179c-0.357,2.12 -0.456,2.2 -0.456,2.2l-1.305,0.217c0.632,-6.224 1.224,-12.527 2.545,-17.367Zm-73.742,2.738c0.655,-0 1.185,0.536 1.185,1.194c0,0.658 -0.53,1.191 -1.185,1.191c-0.656,-0 -1.185,-0.533 -1.185,-1.191c0,-0.658 0.529,-1.194 1.185,-1.194Zm1.561,2.808c0.655,0 1.19,0.537 1.19,1.195c0,0.658 -0.535,1.19 -1.19,1.19c-0.655,0 -1.185,-0.532 -1.185,-1.19c0,-0.658 0.53,-1.195 1.185,-1.195Zm-3.254,0.051c0.656,0 1.185,0.533 1.185,1.191c-0,0.658 -0.529,1.19 -1.185,1.19c-0.655,0 -1.188,-0.532 -1.188,-1.19c-0,-0.658 0.533,-1.191 1.188,-1.191Zm1.754,2.771c0.656,-0 1.186,0.535 1.186,1.193c0,0.658 -0.53,1.19 -1.186,1.19c-0.654,0 -1.184,-0.532 -1.184,-1.19c-0,-0.658 0.53,-1.193 1.184,-1.193Zm-2.847,3.817l13.571,0l-13.571,14.356l0,-2.48l8.801,-9.799l-8.801,-0l0,-2.077Zm0,3.188l6.664,-0l-6.664,6.957l0,-6.957Zm17.809,0.549c-0.813,0.021 -1.603,0.189 -2.34,0.532c-0.312,0.131 -0.556,0.296 -0.558,0.46c1.714,1.569 2.615,4.257 3.199,6.462c1.31,3.475 2.282,7.669 5.291,9.517l-2.077,4.156l65.378,-0l-10.883,-19.126c-12.392,2.418 -29.857,3.674 -44.806,-0.158c0,0 -2.571,4.795 -3.216,6.077c-0,-0 -0.378,-1.176 -0.78,-1.994c-1.751,-3.313 -5.687,-6.013 -9.208,-5.926Zm-0.136,0.363c0.191,-0.007 0.386,-0.004 0.583,0.009c3.421,0.232 7.747,3.549 8.962,6.637c-0.187,0.367 -1.018,1.91 -1.018,1.91c-0.433,-0.849 -0.108,-1.688 -0.393,-2.451c-0.07,-0.325 -0.78,2.197 -0.78,2.197c0,-0 -0.685,-1.119 -0.769,-3.273c-0.013,-0.332 -0.892,1.445 -0.892,1.445c-1.105,-1.494 -1.043,-4.086 -1.043,-4.086c-1.246,1.519 -0.469,2.388 -2.393,-1.481c-0.222,0.403 -0.113,0.829 -0.404,0.716c-0.846,-0.329 -2.034,-0.923 -2.466,-0.804c0.564,0.71 1.658,1.085 1.958,2.026c0,0 -0.867,-0.073 -0.924,-0.03c0.984,0.537 1.928,1 2.666,2.032c-0.22,0.081 -1.109,-0.071 -1.071,0.024c1.331,1.207 3.329,2.183 0.44,1.91c1.878,1.327 3.971,2.243 0.709,2.144c2.327,1.104 2.954,1.785 2.521,1.972c-0.244,0.106 -0.941,-0.315 -2.05,0.041c1.87,0.766 2.641,1.116 2.715,1.368c0.09,0.306 -0.798,0.474 -1.407,1.136c0,0 0.753,-0.172 1.082,0.178c-0,0 -0.365,1.058 -0.646,1.668c-2.381,-2.169 -3.318,-5.24 -3.935,-7.217c-0.31,-1.022 -0.627,-2.025 -0.702,-2.229c-1.141,-3.105 -1.609,-4.13 -2.354,-5.163c-0.123,-0.17 -0.161,-0.15 0.019,-0.296c0.483,-0.238 1.02,-0.359 1.592,-0.383l0,0Zm57.627,2.997l9.414,16.642l-1.971,0l-7.433,-13.284l-11.042,1.105l3.052,12.179l-2.918,0l-3.018,-11.863l-17.089,0.091c-0.553,3.974 -1.625,11.772 -1.625,11.772l-3.157,0l2.103,-12.069l-10.094,-1.273l-5.832,13.342l-2.739,0l8.412,-16.467c16.225,2.534 24.806,2.849 43.937,-0.175Zm-42.761,4.833l6.992,0.939l-1.908,10.87l-9.884,0l4.8,-11.809Zm41.475,0.178l6.291,11.631l-10.775,0l-3.094,-10.927l7.578,-0.704Zm-14.016,1.405l2.26,10.226l-17.392,0l0.997,-10.116l14.135,-0.11Z" style="fill-rule:nonzero;"/></g></g></g><path id="path147-0-8-1-3-6-4-3-4" d="M130.709,223.293c7.854,-0.171 11.377,-9.003 5.559,-15.862c-0.843,-1 -0.93,-1.574 0.615,-0.613c3.916,2.615 11.426,0.896 11.811,-7.101c0.475,-9.853 -13.31,-12.692 -15.898,-2.215c-0.137,1.106 -1.036,1.08 -0.82,-0.489c0.236,-4.258 1.568,-8.239 3.399,-12.12l-9.338,-0c1.83,3.881 3.162,7.862 3.398,12.12c0.217,1.569 -0.683,1.595 -0.819,0.489c-2.589,-10.477 -16.373,-7.638 -15.898,2.215c0.384,7.997 7.894,9.716 11.811,7.101c1.545,-0.961 1.458,-0.387 0.614,0.613c-5.817,6.859 -2.295,15.691 5.559,15.862c0,-0 0,-0.001 0.009,-0l-0.002,-0Z" style="fill-rule:nonzero;"/><path id="path147-0-8-1-0-3-83-9-4-0" d="M47.883,26.156c7.854,0.17 11.376,9.002 5.559,15.861c-0.844,1 -0.931,1.574 0.614,0.613c3.917,-2.615 11.427,-0.896 11.811,7.101c0.475,9.853 -13.309,12.692 -15.897,2.215c-0.137,-1.106 -1.037,-1.08 -0.82,0.489c0.236,4.259 1.568,8.239 3.398,12.12l-9.338,0c1.831,-3.881 3.163,-7.861 3.399,-12.12c0.216,-1.569 -0.683,-1.595 -0.82,-0.489c-2.588,10.477 -16.373,7.638 -15.898,-2.215c0.385,-7.997 7.895,-9.716 11.811,-7.101c1.545,0.961 1.458,0.387 0.615,-0.613c-5.818,-6.859 -2.295,-15.691 5.559,-15.861c0,-0 0,-0 0.008,-0l-0.001,-0Z" style="fill-rule:nonzero;"/></g><path id="path147-6-9-8-7-0-5-6-79-2-4-7" d="M164.811,209.47c3.142,-0.071 4.551,-3.751 2.224,-6.609c-0.337,-0.417 -0.372,-0.656 0.246,-0.255c1.567,1.09 4.571,0.373 4.724,-2.959c0.19,-4.105 -5.323,-5.288 -6.359,-0.923c-0.054,0.461 -0.414,0.45 -0.327,-0.203c0.094,-1.775 0.627,-3.433 1.359,-5.051l-3.735,0c0.732,1.618 1.265,3.276 1.359,5.051c0.087,0.653 -0.273,0.664 -0.328,0.203c-1.035,-4.365 -6.549,-3.182 -6.359,0.923c0.154,3.332 3.158,4.049 4.725,2.959c0.618,-0.401 0.583,-0.162 0.245,0.255c-2.327,2.858 -0.918,6.538 2.224,6.609c-0,0 -0,0 -0,0l0.002,0Z" style="fill-rule:nonzero;"/><path id="path147-6-9-8-7-4-5-62-3-3-7-5" d="M13.773,39.978c-3.141,0.071 -4.55,3.752 -2.223,6.609c0.337,0.417 0.372,0.656 -0.246,0.256c-1.567,-1.09 -4.571,-0.373 -4.725,2.959c-0.19,4.105 5.324,5.288 6.36,0.922c0.054,-0.46 0.414,-0.45 0.327,0.204c-0.094,1.775 -0.627,3.433 -1.359,5.05l3.735,0c-0.732,-1.617 -1.265,-3.275 -1.359,-5.05c-0.087,-0.654 0.273,-0.664 0.328,-0.204c1.035,4.366 6.549,3.183 6.359,-0.922c-0.154,-3.332 -3.158,-4.049 -4.725,-2.959c-0.618,0.4 -0.583,0.161 -0.245,-0.256c2.327,-2.857 0.918,-6.538 -2.224,-6.609c-0.001,0 -0,0.001 -0,0l-0.003,0Z" style="fill-rule:nonzero;"/><path id="path35-5-6-2-3" d="M13.688,11.07l0,2.763l2.684,0c-0,0 0.064,2.664 0.088,8.315c0.021,5.487 0.133,8.208 -0.217,9.771c-0.94,3.601 -6.159,3.621 -7.196,1.032c-0.602,-1.506 -0.442,-2.678 -0.47,-4.194l-2.885,-0c0,-0 0.017,0.763 0.021,1.698c0.017,4.049 1.358,5.986 4.496,6.75c3.227,0.871 6.999,-0.458 8.341,-3.215c0.799,-1.571 0.707,-1.679 0.727,-11.18c0.012,-6.339 0.108,-8.977 0.108,-8.977l2.47,0l0,-2.763l-8.167,0Z" style="fill-rule:nonzero;"/><path id="path35-6-4-1-2-4" d="M164.895,238.379l-0,-2.764l-2.684,0c0,0 -0.065,-2.664 -0.088,-8.314c-0.021,-5.487 -0.133,-8.208 0.217,-9.771c0.94,-3.602 6.159,-3.622 7.195,-1.032c0.603,1.506 0.443,2.677 0.47,4.194l2.886,0c-0,0 -0.017,-0.764 -0.021,-1.698c-0.017,-4.05 -1.358,-5.987 -4.496,-6.75c-3.227,-0.872 -7,0.458 -8.341,3.215c-0.799,1.571 -0.707,1.679 -0.727,11.18c-0.012,6.338 -0.108,8.976 -0.108,8.976l-2.471,0l0,2.764l8.168,-0Z" style="fill-rule:nonzero;"/></g></g></svg>