<?xml version="1.0" encoding="UTF-8" standalone="no"?><!DOCTYPE svg PUBLIC "-//W3C//DTD SVG 1.1//EN" "http://www.w3.org/Graphics/SVG/1.1/DTD/svg11.dtd"><svg width="100%" height="100%" viewBox="0 0 179 250" version="1.1" xmlns="http://www.w3.org/2000/svg" xmlns:xlink="http://www.w3.org/1999/xlink" xml:space="preserve" xmlns:serif="http://www.serif.com/" style="fill-rule:evenodd;clip-rule:evenodd;stroke-linejoin:round;stroke-miterlimit:2;"><g id="g6392"><path id="rect7331-9-9" d="M178.583,7.972c-0,-4.4 -3.573,-7.972 -7.973,-7.972l-162.638,-0c-4.4,-0 -7.972,3.572 -7.972,7.972l0,233.504c0,4.4 3.572,7.973 7.972,7.973l162.638,-0c4.4,-0 7.973,-3.573 7.973,-7.973l-0,-233.504Z" style="fill:#fff;"/><path id="path7363-8-9" d="M13.774,39.979c-3.449,4.385 -7.138,6.909 -7.2,10.331c-0.021,1.108 0.651,2.991 2.755,3.351c1.365,0.233 3.245,-0.752 3.284,-2.754c-0.008,-0.398 0.473,-0.388 0.469,0.158c-0.065,1.579 -0.625,3.417 -1.567,4.914l4.517,-0c-0.941,-1.497 -1.502,-3.335 -1.566,-4.914c-0.008,-0.546 0.474,-0.556 0.468,-0.158c0.04,2.002 1.919,2.987 3.284,2.754c2.104,-0.36 2.776,-2.243 2.755,-3.351c-0.062,-3.422 -3.751,-5.946 -7.199,-10.331Z" style="fill-rule:nonzero;"/><path id="path7367-3-1" d="M164.809,209.47c-3.448,-4.385 -7.138,-6.909 -7.199,-10.331c-0.021,-1.108 0.651,-2.991 2.755,-3.351c1.365,-0.233 3.244,0.752 3.284,2.754c-0.008,0.398 0.473,0.388 0.468,-0.158c-0.064,-1.579 -0.624,-3.417 -1.566,-4.914l4.517,0c-0.942,1.497 -1.502,3.335 -1.567,4.914c-0.008,0.546 0.475,0.556 0.469,0.158c0.039,-2.002 1.919,-2.987 3.284,-2.754c2.104,0.36 2.775,2.243 2.755,3.351c-0.062,3.422 -3.751,5.946 -7.2,10.331Z" style="fill-rule:nonzero;"/><path id="path35-7-9-2" d="M13.687,11.07l0,2.764l2.684,-0c-0,-0 0.065,2.663 0.088,8.314c0.021,5.487 0.133,8.208 -0.217,9.771c-0.94,3.602 -6.159,3.621 -7.196,1.032c-0.602,-1.506 -0.442,-2.678 -0.47,-4.194l-2.885,-0c0,-0 0.017,0.763 0.021,1.698c0.017,4.049 1.358,5.986 4.496,6.75c3.226,0.872 6.999,-0.458 8.34,-3.215c0.799,-1.571 0.708,-1.679 0.727,-11.18c0.013,-6.339 0.108,-8.976 0.108,-8.976l2.471,-0l0,-2.764l-8.167,0Z" style="fill-rule:nonzero;"/><path id="path35-7-8-1-4" d="M164.894,238.379l-0,-2.764l-2.684,0c0,0 -0.065,-2.664 -0.088,-8.314c-0.021,-5.487 -0.133,-8.208 0.217,-9.771c0.94,-3.602 6.159,-3.622 7.195,-1.032c0.603,1.506 0.443,2.677 0.47,4.194l2.886,0c-0,0 -0.017,-0.763 -0.021,-1.698c-0.017,-4.05 -1.358,-5.986 -4.496,-6.75c-3.227,-0.872 -6.999,0.458 -8.341,3.215c-0.799,1.571 -0.707,1.679 -0.727,11.18c-0.012,6.339 -0.108,8.976 -0.108,8.976l-2.47,0l-0,2.764l8.167,-0Z" style="fill-rule:nonzero;"/><g id="g3851-4-2-7-4"><path id="path4037-8-0-2" d="M23.691,19.125l0,211.2l131.2,-0l0,-211.2l-131.2,0Zm41.679,1.158l59.434,0.218l-9.213,14.066c-12.012,-3.796 -31.503,-1.333 -41.548,0.585c-2.641,-4.402 -6.471,-9.927 -8.673,-14.869Zm-39.953,0.541l38.157,-0l8.961,16.255c0.325,0.453 0.016,1.388 -0.178,1.914c-1.106,3.104 -2.084,4.903 -4.322,8.602c-2.119,3.503 -2.88,6.711 -2.127,8.868c0.112,0.265 0.211,0.668 0.172,1.007c-0.124,1.076 -1.031,2.319 -2.265,3.171c-0.838,0.134 -2.58,0.242 -3.589,1.236c-0.864,0.852 -1.572,2.098 -1.461,4.376c0.052,0.815 0.156,1.332 0.156,1.332c-11.397,4.726 -19.565,10.263 -19.294,10.466c-0.108,-0.049 -10.084,-4.596 -14.21,-5.721l0,-51.506Zm101.507,-0l26.191,-0l0,74.673l-9.889,-6.497c0.825,-0.572 1.334,-0.912 2.201,-1.499c0.154,-0.046 0.446,-0.05 0.636,-0.092c1.751,-0.389 2.972,-1.695 2.364,-3.048c-0.412,-0.919 0.152,-0.863 0.66,-1.612c0.571,-0.843 0.451,-1.594 0.088,-2.303c-0.18,-0.352 -0.081,-0.491 0.222,-1.142c0.802,-0.991 0.223,-2.668 -0.814,-3.211c-0.108,-0.159 0.114,-0.407 0.164,-0.637c0.292,-1.344 -0.244,-2.524 -1.41,-2.823c-0.6,-0.155 -0.8,-0.258 -0.589,-0.792c0.376,-0.948 -0.119,-1.3 -0.9,-1.608c-0.207,-0.082 -0.496,-0.216 -0.496,-0.216l0.102,-0.62c-0,-0 0.611,-0.283 1.075,-0.491c3.323,-1.489 4.106,-5.917 1.82,-9.934c-0.904,-1.488 -1.786,-2.844 -2.804,-4.26l4.398,-6.112c-0,-0 -3.063,-3.616 -4.154,-5.615c0.257,-0.987 3.324,-4.087 3.721,-7.095c0.624,-4.718 -2.97,-7.736 -6.369,-7.382c-2.359,0.246 -5.261,1.75 -5.043,6.116c0.068,1.357 0.599,2.758 1.563,4.455c0.673,1.269 1.545,2.612 2.38,3.901l-4.426,6.031l4.474,5.646c-0.783,1.358 -1.775,2.798 -2.455,4.246c-1.649,3.25 -2.235,6.819 1.152,9.334c0.593,0.363 1.303,0.92 1.303,0.92l-0.073,0.587c0,-0 -0.203,0.086 -0.337,0.117c-6.074,0.435 -10.405,5.764 -11.839,10.497l-16.488,-10.49c0.601,-0.308 0.561,-1.673 0.469,-2.536c-0.021,-1.301 -0.011,-1.305 0.74,-2.5c0.265,-0.421 0.375,-0.842 0.222,-1.491c-0.244,-0.73 -0.267,-0.497 0.199,-0.998c0.182,-0.223 0.4,-0.333 0.435,-0.575c0.048,-0.323 0.018,-0.889 0.024,-1.942c0.011,-2.112 -0.018,-1.938 1.172,-2.866c1.478,-1.153 2.03,-1.695 2.265,-2.216c0.337,-0.747 -0,-1.311 -0.83,-2.804c-0.972,-1.798 -2.338,-3.652 -2.915,-5.421c-0.553,-0.893 -0.47,-2.443 0.043,-3.352c0.643,-1.142 0.822,-1.832 0.799,-4.14c-0.021,-2.139 -0.177,-1.939 0.37,-2.655c4.087,-5.392 10.579,-15.548 10.579,-15.548Zm20.669,9.645c3.44,4.757 -0.101,9.159 -2.357,12.481c1.379,2.066 2.518,3.545 3.921,5.66c-1.082,2.368 -2.908,4.238 -4.006,6.102c5.39,7.249 5.587,13.814 -1.665,14.201c-2.576,-0.275 -4.952,-2.467 -4.674,-5.662c0.204,-3.34 1.994,-5.779 3.844,-8.492c-1.578,-2.708 -3.151,-3.698 -4.265,-5.84l3.981,-5.88c-1.094,-2.735 -3.414,-4.719 -3.682,-8.311c-0.378,-5.052 4.48,-7.509 8.903,-4.259Zm-54.508,3.638c0.904,-0.014 1.812,0.001 2.728,0.059c0.286,2.469 -8.013,17.026 -6.28,17.878c6.53,1.559 4.299,9.276 -0.664,9.02c-0.744,-0.007 -0.816,0.063 -1.289,1.702c-0.901,2.393 -1.484,4.219 -2.451,6.445c-0,0.573 -3.244,0.418 -5.96,0.399c-1.167,0.896 -6.164,3.324 -8.896,-2.888l-0.098,5.31c-0,-0 37.39,-0.592 44.039,0.239c0.142,-1.662 3.698,1.286 3.698,1.286l-18.25,28.612l0.853,0.83c2.633,-3.184 18.516,-28.713 18.516,-28.713l34.358,22.097c-0.283,3.286 0.046,10.652 0.046,10.652c-9.43,4.99 -6.549,7.532 -0.056,1.488l0.111,4.309c-2.352,1.246 -4.641,5.503 -0.167,2.535l0.112,2.447c-2.327,3.291 -6.877,0.879 -5.719,-2.529c-3.142,0.405 -3.632,-2.774 -3.473,-4.286c-4.132,-0.897 -2.704,-5.258 -2.704,-5.258c-2.388,-1.989 -2.807,-4.073 -0.873,-6.269c-1.955,-1.212 -2.505,-1.988 -4.654,-2.868c1.648,14.604 9.556,22.19 17.879,28.95c-0.221,-0 -0.243,4.703 -0.766,3.837c-11.886,-8.851 -19.527,-18.972 -20.841,-35.343c-0.101,0.257 -5.636,-4.27 -6.551,-4.029c-1.918,26.509 19.258,43.934 28.064,47.369c0,-0 0.124,3.693 -0.026,3.706c-13.347,-5.802 -28.187,-22.831 -31.046,-43.091l-7.875,12.153l-2.948,-1.258l12.732,-19.995l-8.609,-5.378l-14.02,22.138c-0,0 -0.372,1.847 0.643,1.818c19.678,2.099 48.944,25.661 39.138,64.011c-0.85,-0.336 -2.203,-0.992 -2.27,-0.963c1.537,-3.305 5.828,-24.714 -7.081,-42.008c-5.914,-7.924 -15.085,-16.357 -29.802,-18.846c1.216,2.501 0.684,8.174 0.684,8.174l3.43,0.692c-1.157,-1.219 -2.123,-2.224 -2.582,-3.546c-0.642,-2.06 0.299,-3.28 2.587,-2.054c0.908,0.508 1.136,0.487 2.021,-0.168c1.843,-1.365 3.945,0.041 3.46,2.312c-0.072,0.335 0.018,0.546 0.893,0.624c1.982,0.197 3.978,1.176 5.27,2.712c0.634,0.809 0.778,0.688 1.341,0.201c1.383,-1.197 3.674,0.462 3.265,2.314c-0.234,1.06 -0.105,1.313 0.385,1.518c2.703,1.133 3.369,1.847 4.21,4.206c0.308,0.864 0.56,1.149 0.72,1.099c0.111,-0.034 0.556,-0.183 0.947,-0.33c2.018,-0.762 3.198,1.67 1.767,3.577c-0.293,0.39 -0.074,0.765 0.446,1.047c1.68,0.914 2.821,3.096 3.02,5.383c0.075,0.871 0.168,0.872 1.041,0.835c2.235,-0.093 3.297,2.913 1.479,4.019c-0.633,0.385 -0.511,0.883 -0.019,1.464c1.303,1.54 1.607,2.652 1.492,4.407c-0.152,2.337 0,2.291 0.745,2.575c2.171,0.824 1.765,4.282 -0.364,4.27c1.534,3.56 -0.485,7.901 -0.419,7.981c4.091,2.294 0.397,4.732 -0.792,4.303c0,0 -0.605,1.6 0.083,2.423c-3.588,4.732 -8.287,5.518 -13.49,7.868l-0.163,-16.66c2.164,1.736 4.308,3.357 6.452,4.972c-0,-0 0.541,-0.163 0.046,-0.619c-0.954,-0.878 -3.352,-2.424 -4.023,-3.039c-1.448,-1.095 -6.755,-6.154 -7.699,-7.352c-0.422,-0.799 -1.061,-0.336 -1.044,-0.288c0.635,1.092 1.108,2.366 1.93,3.502c1.775,2.452 3.498,5.178 3.318,7.873c-0.007,1.51 -0.606,3.067 -0.943,3.824c-0.249,1.035 -1.904,-0.176 -1.487,-1.048c0.736,-2.389 1.345,-4.346 -1.286,-8.185c-1.284,-1.872 -2.946,-5.27 -2.946,-5.27l-1.064,0.256l0.041,21.734c-0.892,0.037 -3.154,0.621 -2.688,0.637c7.051,-1.404 9.208,8.651 2.4,8.979c-1.187,0.122 -2.403,2.427 -2.768,3.468c0.639,4.841 -0.565,7.119 -3.072,11.537c-1.398,2.791 -4.16,6.19 -3.312,9.261c-8.336,2.076 -14.586,2.608 -22.984,2.803c-0.082,-0.131 2.819,-8.264 4.937,-12.434c1.565,-3.082 2.371,-5.188 1.932,-5.824c-6.659,0.333 -5.382,-9.399 0.99,-9.057c0,0 1.598,-5.606 3.386,-8.135c1.694,-0.94 5.1,0.341 7.011,-0.92c4.502,-1.376 7.451,3.93 7.451,3.93l1.213,-5.048c-1.056,-0.24 -43.121,-0.665 -45.783,0.548c-1.34,-0.552 -3.248,-2.013 -3.249,-2.012c-0,0 15.355,-24.527 17.589,-28.04c0.182,-0.286 -0.397,-0.9 -0.399,-0.905c-0.083,-0.798 -18.223,28.35 -18.223,28.35c-10.242,-6.537 -23.114,-14.808 -34.524,-22.076l-0.031,-10.918c8.287,-5.205 7.534,-7.332 -0.134,-1.659c-0.107,0.09 -0.163,-4.1 -0.163,-4.1c5.845,-5.206 0.985,-3.576 -0.169,-1.773c0.028,-1.297 -0.275,-3.059 0.559,-3.835c2.554,-2.347 5.565,-0.192 5.716,3.277c3.333,0.651 2.919,3.569 3.778,4.742c3.397,1.911 1.608,4.812 2.451,5.797c3.578,2.249 1.083,5.865 0.325,5.783c0.451,0.303 4.898,3.273 5.28,3.164c-0.386,-15.577 -16.002,-28.146 -18.075,-29.667l0.366,-3.359c0,-0 21.508,13.711 21.319,35.714l6.859,4.062c-0.61,-22.575 -10.866,-37.881 -28.16,-47.574l-0.227,-4.182c14.518,6.734 27.983,20.364 31.118,42.703l8.038,-12.434l2.832,1.367l-12.905,20.638l8.059,5.283c6.251,-8.202 11.464,-18.261 14.642,-23.046c-0.084,-0.438 -0.258,-1.064 -0.258,-1.064c-30.73,-5.052 -48.039,-33.753 -39.788,-63.74l2.135,0.936c-6.408,22.209 4.042,54.177 37.463,60.714c-0.066,-2.362 -0.484,-8.171 -0.484,-8.171c0,0 -4.391,-1.315 -3.745,-0.787c1.076,0.916 3.492,4.866 2.471,6.27c-0.734,0.103 -1.963,-0.307 -3.308,-1.289c-0.507,-0.37 -0.521,-0.291 -1.09,0.315c-1.58,1.681 -3.875,0.718 -3.896,-1.592c-0.009,-0.975 -0.046,-1.183 -1.435,-1.193c-2.106,-0.015 -3.051,-0.374 -4.313,-2.057c-0.895,-1.194 -0.812,-1.2 -1.865,-0.839c-2.019,0.957 -3.631,-1.053 -2.998,-2.71c0.312,-0.777 -0.019,-1.026 -0.938,-1.177c-1.788,-0.295 -3.809,-2.531 -4.181,-4.358c-0.076,-0.373 -0.263,-0.466 -1.317,-0.43c-2.067,0.071 -3.212,-1.179 -2.397,-2.929c0.441,-0.946 0.566,-1.327 -0.26,-1.968c-1.013,-0.785 -1.584,-1.331 -2.034,-2.283c-0.356,-0.755 -0.409,-1.239 -0.654,-2.847c-0.086,-0.559 -0.272,-0.65 -1.005,-0.745c-2.138,-0.278 -2.982,-2.458 -1.411,-3.872c0.479,-0.432 0.478,-0.421 -0.249,-1.359c-1.399,-1.805 -1.923,-4.159 -1.314,-5.727c0.165,-0.425 0.007,-0.945 -0.494,-1.069c-1.95,-0.483 -1.984,-2.638 -0.118,-3.848c0.542,-0.352 0.57,-0.585 0.16,-1.294c-0.717,-1.241 -0.682,-4.493 0.012,-6.05c0.449,-1.006 0.445,-1.028 -0.25,-1.471c-1.481,-0.943 -1.057,-3.537 0.695,-3.964c0.85,-0.208 0.907,-0.319 0.678,-1.348c-0.408,-1.835 -0.479,-2.311 0.608,-3.036c2.987,-1.934 10.639,-5.631 10.639,-5.631l2.53,-1.2c-0,0 0.253,16.029 0.09,17.849c3.595,2.949 5.616,8.876 8.615,5.17l0.085,-21.935c0.179,-0.498 0.304,-0.554 0.884,-0.622c0.483,-0.093 1.694,-0.227 2.1,-0.345c0.568,-0.923 -1.038,-0.387 -1.764,-0.215c-4.007,1.198 -6.971,-5.02 -3.92,-8.154c0.586,-0.523 2.773,-1.433 3.767,-1.495c1.368,-1.108 2.718,-3.16 2.222,-4.686c-0.707,-2.053 -0.033,-5.205 2.08,-8.646c2.289,-3.247 4.057,-6.871 4.984,-10.729c7.094,-0.852 13.246,-2.497 19.583,-2.598l-0,0Zm3.479,0.478c0,-0 9.732,0.078 14.612,0.858c4.273,0.683 4.052,0.557 4.036,3.65c-0.012,2.197 -0.016,2.148 -0.582,3.201c-1.042,1.941 -0.863,3.855 0.785,6.535c1.599,2.602 2.769,4.523 2.769,4.894c-0,0.574 -0.099,1.274 -1.485,2.239c-1.635,1.139 -1.947,1.936 -1.924,3.092c0.018,0.936 -0.16,1.242 -0.721,1.239c-0.225,-0 -1.019,0.367 -1.873,0.768c-1.503,0.707 -1.506,0.707 -2.908,0.696c-0.703,-0.008 -1.043,-0.27 -1.239,-0.194c-0.377,0.175 -0.72,1.434 -0.709,1.801c0.04,0.13 0.241,0.051 0.655,-0.089c2.324,-0.793 5.782,-0.437 5.879,-0.09c0.469,0.423 0.471,1.078 -0.236,1.756c-0.459,0.718 -0.669,1.089 -0.477,2.201c0.26,1.511 0.067,2.11 -0.708,2.632c-7.675,3.374 -17.69,-0.164 -22.548,-5.832c-1.085,-1.298 -1.502,-2.237 -1.502,-2.237c1.051,-0.113 2.087,-0.134 3.003,-0.548c3.706,-1.675 3.736,-8.595 -1.299,-9.307c-2.055,-0.072 4.242,-9.726 6.472,-17.265Zm12.54,2.413c-2.642,0.073 -5.403,1.033 -7.738,2.283c-1.808,1.009 -2.843,3.051 -2.843,3.051c0,-0 1.536,-0.813 2.444,-1.287c3.022,-1.487 8.04,-3 10.029,-1.843c1.699,1.016 2.358,0.685 1.374,-0.682c-0.757,-1.052 -1.936,-1.476 -3.266,-1.524l-0,0.002Zm-1.283,3.362c-0.267,0 -0.547,0.033 -0.823,0.09c-1.742,0.387 -3.66,1.818 -5.248,3.078c-0.784,0.622 -1.892,1.853 -2.065,2.175c-0.392,0.729 0.473,1.532 1.651,0.889c0.686,-0.374 0.747,-0.289 1.407,-0.198c1.521,0.457 3.256,1.165 5.939,0.941c0.249,0.057 0.231,0.115 0.144,0.349c-0.159,0.428 -1.11,1.244 -2.35,2.159c-0.64,0.472 -1.487,1.17 -1.487,1.17c0,0 0.901,0.097 1.837,-0.432c1.329,-0.751 2.861,-2.412 3.796,-3.748c0.089,-0.127 0.213,-0.231 0.253,-0.368c0.092,-0.309 -0.468,-0.182 -0.768,-0.265c-0.129,-0.035 -0.103,-0.359 -0.137,-0.508c-0.088,-0.392 0.066,-1.04 0.137,-1.596c0.058,-0.451 0.543,-0.808 0.861,-1.138c1.401,-1.452 1.292,-2.111 -0.591,-0.995c-0.318,0.188 -0.569,0.302 -0.877,0.327c-2.781,0.087 -4.387,-0.02 -6.706,1.926c-1.03,0.828 -1.65,0.908 -0.732,0.026c1.399,-1.129 3.153,-2.736 5.092,-3.161c1.171,-0.29 2.285,0.604 2.797,0.374c0,-0.639 -0.973,-1.105 -2.13,-1.095l-0,0Zm-0.664,3.978c0.091,-0.009 0.183,-0 0.261,0.037c0.318,0.209 0.631,1.292 0.601,1.658c-0.034,0.424 -0.768,0.25 -0.869,0.046l-0.397,-1.203c-0.13,-0.305 0.133,-0.511 0.404,-0.538l0,0Zm-1.473,0.263c0.113,-0.007 0.22,0.001 0.317,0.019c0.34,0.335 0.419,1.06 0.612,1.658c-0.123,0.431 -2.86,-0.153 -3.204,-0.635c0.359,-0.465 1.483,-1.009 2.275,-1.042l0,0Zm5.116,7.793c-0.206,-0.013 -0.477,0.087 -0.724,0.338c-1.232,1.257 -0.836,3.399 0.646,4.093c0.723,0.338 1.817,0.089 3.426,-0.404c0.767,-0.235 1.322,-0.342 1.465,-0.341c0.629,-0 0.971,-0.969 0.53,-1.414c-0.51,-0.515 -1.718,-0.439 -3.019,0.563c-0.658,0.507 -1.128,0.752 -1.66,0.745c-1.301,-0.017 -1.934,-1.351 -0.605,-2.753c0.443,-0.466 0.284,-0.804 -0.059,-0.827l0,0Zm-8.15,4.731c-1.926,-0.286 -2.914,2.921 -0.968,4.486c1.535,1.234 4.448,0.587 6.407,-0.705c1.75,-1.155 2.477,-1.495 3.881,-1.254c1.721,0.296 1.656,-0.379 0.911,-1.227c-0.845,-0.961 -2.933,-0.664 -4.679,0.489c-3.873,2.559 -5.272,2.987 -6.396,1.602c-0.971,-1.195 -0.23,-2.73 0.832,-2.652c0.662,0.048 1.071,0.455 1.716,0.667c-0.474,-1.048 -0.91,-1.289 -1.704,-1.406Zm-14.58,5.698c1.954,2.47 3.826,4.512 6.636,6.017l0.031,0.466l-9.086,-0.019c0.634,-1.105 2.437,-6.39 2.419,-6.463l-0,-0.001Zm-30.766,6.436c-0.192,3.722 0.479,5.909 2.666,8.511c2.325,2.766 2.152,7.079 0.657,9.743c-0.662,1.179 -2.009,-0.27 -1.375,-1.024c0.903,-1.131 0.958,-3.894 0.532,-5.62c-0.958,-2.852 -3.13,-4.25 -4.01,-7.265c-0.296,-1.287 -0.203,-3.6 -0.203,-3.6l1.733,-0.745Zm2.844,0.314c0.159,-0.025 0.413,0.14 0.788,0.463c1.285,1.109 1.066,4.281 -0.405,6.318c-0.451,0.617 -0.825,0.441 -1.255,-0.133c-0.582,-0.572 -0.381,-0.63 0.109,-1.635c0.51,-1.049 0.674,-2.228 0.569,-3.607c-0.071,-0.928 -0.038,-1.369 0.194,-1.406Zm83.347,1.088c1.134,-0.018 2.552,0.223 2.681,0.633c0.123,0.499 -0.147,0.897 -0.78,1.164c-1.659,0.698 -3.853,-0.278 -3.3,-1.471c0.138,-0.213 0.719,-0.316 1.399,-0.326Zm-2.897,0.265c0.272,-0.014 0.522,0.037 0.752,0.169c0.544,0.28 -0.262,2.189 2.445,2.152c0.647,0.095 1.125,-0.054 1.036,0.237c-0.134,0.439 -1.295,1.1 -2.556,1.285c-3.771,0.556 -3.608,0.368 -3.437,3.025c0.112,1.734 0,2.319 -0.237,3.371c-0.409,1.823 -0.571,3.585 -0.295,3.005c0.367,-0.775 1.306,-3.221 1.3,-4.613c-0.008,-2.052 0.727,-2.458 1.021,-0.971c0.126,0.984 -0.317,1.54 0.346,2.544c0.376,0.564 0.549,0.553 0.297,1.428c-0.222,0.772 -0.068,0.998 0.202,1.39c0.272,0.395 0.547,0.486 0.316,1.038c-0.497,1.189 0.283,2.316 1.414,2.411c0.523,0.044 0.668,0.272 0.511,0.47c-0.277,0.344 -0.828,0.506 -1.286,0.606l-11.98,-7.63c2.476,-5.705 5.293,-8.33 9.273,-9.697c0.314,-0.127 0.606,-0.205 0.878,-0.22Zm6.387,2.477c0.331,-0.013 0.576,0.159 0.854,0.515c0.735,0.943 0.093,2.12 -1.714,3.134c-1.546,0.876 -1.995,0.981 -2.33,-0.396c-0.077,-0.248 -0.284,-0.554 -0.418,-0.676c-0.357,-0.326 -0.276,-0.598 0.18,-0.839c0.218,-0.115 0.912,-0.398 1.468,-0.764c0.967,-0.636 1.536,-0.958 1.96,-0.974Zm-5.1,2.733c0.379,0.008 0.77,0.097 1.057,0.284c0.479,0.31 0.484,1.091 -0,1.402c-0.962,0.391 -2.482,-0.134 -2.354,-1.014c0.064,-0.448 0.667,-0.682 1.297,-0.672Zm6.164,0.963c0.341,-0.009 0.598,0.15 0.811,0.477c0.48,0.739 0.072,1.48 -1.23,2.256c-0.229,0.136 -0.485,0.274 -0.768,0.413c-1.251,0.61 -2.85,0.874 -2.744,0.516c0.084,-0.289 -0.362,-1.714 -0.561,-1.942c1.288,-0.35 2.142,-0.585 3.183,-1.196c0.542,-0.339 0.968,-0.515 1.309,-0.524Zm-90.783,1.005c0.638,-0 1.109,0.824 0.9,1.247c-0.879,2.106 -1.018,3.035 -0.6,5.25c0.348,1.843 0.751,2.768 2.649,5.491c1.444,2.073 1.907,2.878 1.559,3.533c-0.245,0.353 -0.797,0.683 -1.14,0.344c-0.706,-0.92 -1.129,-2.037 -1.817,-3.061c-2.652,-3.877 -2.836,-4.865 -3.176,-7.927c-0.155,-1.399 0.652,-4.376 1.342,-4.821c0.097,-0.038 0.192,-0.056 0.283,-0.056l-0,-0Zm62.18,0.276c-0.39,0.056 -1.744,2.439 -1.567,2.613c0.657,0.647 2.601,-2.762 1.567,-2.613Zm22.829,0.952c1.062,0.032 1.438,0.981 0.963,1.476c-0.694,0.722 -1.941,0.177 -1.941,-0.835c-0,-0.429 0.201,-0.65 0.978,-0.641Zm5.888,1.351c0.606,-0.056 0.689,0.629 0.366,1.503c-0.404,0.812 -0.891,0.949 -2.35,1.402c-1.747,0.543 -2.031,0.462 -2.294,-1.139c-0.101,-0.615 -0.051,-0.477 1.558,-0.904c0.915,-0.251 1.778,-0.776 2.72,-0.862Zm-103.186,0.718l0.428,3.235l0.697,-2.423l-1.125,-0.812Zm97.509,1.088c0.86,-0 1.32,0.771 0.884,1.231c-0.243,0.257 -0.862,0.261 -1.161,0.112c-0.682,-0.497 -0.559,-1.347 0.277,-1.343Zm-26.262,1.688l1.676,1.031l-13.609,21.415l-1.641,-0.035l-0.156,-0.343l13.73,-22.068Zm30.882,0.206c1.005,-0.014 1.093,0.931 -0.124,1.799c-0.498,0.319 -1.059,0.397 -1.493,0.416c-0.605,0.026 -1.013,-0.131 -1.059,-0.548c-0.263,-1.023 -0.413,-1.277 0.522,-1.216c0.773,-0.028 1.422,-0.309 2.154,-0.451Zm-4.161,0.936c0.695,0.008 1.137,0.755 0.671,1.123c-0.576,0.454 -1.294,0.174 -1.291,-0.513c0,-0.439 0.123,-0.612 0.62,-0.61Zm-97.929,1.515l-3.703,3.269c1.357,1.6 2.496,3.199 3.671,4.877l0.032,-8.146Zm74.87,0.21c1.607,-0.064 2.135,0.71 1.373,1.23c-1.035,0.69 -1.923,0.657 -3.099,0.497c-1.554,-0.288 -0.316,-1.528 1.388,-1.705c0.117,-0.012 0.231,-0.018 0.338,-0.021l0,-0.001Zm-1.705,2.33c0.325,-0.009 0.802,0.082 1.421,0.291c1.052,0.355 2.362,1.452 2.3,2.061c-0.1,0.986 -1.962,0.477 -3.461,-0.936c-0.938,-0.885 -0.974,-1.397 -0.26,-1.416Zm-1.423,0.015c0.911,0.086 1.82,3.16 1.114,4.105c-0.692,0.926 -1.912,-1.068 -1.691,-2.634c0.088,-0.619 0.245,-1.438 0.487,-1.468c0.03,0 0.061,-0.007 0.09,0l0,-0.003Zm-59.511,0.675c0.513,0.122 1.17,0.83 1.028,1.367c-0.103,0.215 -0.319,0.154 -0.553,0.098c-0.422,-0.178 -0.748,-0.764 -0.666,-1.251c0.039,-0.131 0.096,-0.206 0.191,-0.214Zm69.058,0.529l2.676,1.809l-2.676,0.104l-0,-1.913Zm-11.524,1.594c0.009,0 0.017,0 0.026,0c0.202,0.001 0.366,0.164 0.366,0.366c-0,0.202 -0.164,0.366 -0.366,0.366c-0.202,-0 -0.366,-0.164 -0.367,-0.366c0,-0.192 0.149,-0.351 0.34,-0.366l0.001,0Zm0.431,2.068c2.053,0.011 2.488,0.672 0.955,1.478c-0.638,0.336 -2.19,0.399 -2.993,0.121c-1.275,-0.441 0.255,-1.609 2.038,-1.599Zm16.613,1.379l0.14,1.856l-5.154,0.449l-0.265,-1.934l5.279,-0.371Zm-19.575,0.924c0.936,0.056 1.747,2.614 1.13,3.879c-0.338,0.693 -0.765,0.541 -1.379,-0.598c-0.594,-1.101 -0.625,-3.045 0.059,-3.258c0.063,-0.019 0.127,-0.027 0.19,-0.023l-0,-0Zm1.754,-0c0.357,-0.023 0.926,0.141 1.671,0.523c1.403,0.719 2.201,1.926 1.477,2.307c-0.656,0.346 -1.824,-0.064 -2.65,-0.929c-1.092,-1.143 -1.18,-1.858 -0.498,-1.901Zm-68.799,0.723l-2.255,4.516l4.084,3.552l-1.829,-8.068Zm65.119,1.863c0.009,-0 0.017,-0 0.026,0c0.202,0.001 0.366,0.164 0.366,0.366c0,0.202 -0.164,0.366 -0.366,0.366c-0.202,-0 -0.366,-0.164 -0.366,-0.366c-0.001,-0.192 0.148,-0.352 0.34,-0.366l-0,0Zm22.137,1.615l0.362,1.787l-4.948,1.216l-0.483,-1.946l5.069,-1.057Zm10.535,0.246c-1.889,1.262 -0.07,1.956 1.281,1.002c-0.102,-0.325 -0.884,-0.997 -1.281,-1.002Zm-32.144,0.104c0.603,0.011 1.171,0.154 1.496,0.439c0.452,0.396 0.353,0.573 -0.713,1.006c-1.899,0.77 -4.237,0.304 -2.88,-0.847c0.479,-0.406 1.321,-0.612 2.097,-0.598Zm-1.388,2.428c1.352,0.044 4.005,1.891 3.438,2.776c-0.309,0.484 -2.083,0.07 -2.787,-0.603c-0.926,-0.884 -1.415,-2.066 -0.904,-2.159c0.077,-0.014 0.163,-0.018 0.253,-0.015l0,0.001Zm-1.707,0.085c0.698,-0.13 1.814,3.111 0.972,3.941c-0.315,0.311 -0.403,0.292 -0.932,-0.175c-1.056,-0.932 -0.874,-2.65 -0.241,-3.61c0.06,-0.092 0.129,-0.143 0.201,-0.156Zm40.87,1.017c-6.57,2.516 -4.885,4.913 0.667,0.691c-0.184,-0.343 -0.414,-0.502 -0.667,-0.691Zm-14.901,0.912l0.655,1.811l-4.983,1.968l-0.733,-1.98l5.061,-1.799Zm-85.239,3.426l-1.687,4.426c1.834,0.011 3.489,0.875 5.163,1.643l-3.476,-6.069Zm86.896,1.3l1.055,1.779l-4.686,2.529l-0.936,-1.877l4.567,-2.431Zm-108.895,3.464l1.922,1.352l-2.821,3.495l-0.257,-0.494l0.031,-2.901l1.125,-1.452Zm111.454,1.099l1.135,1.632l-4.513,3.125l-1.107,-1.775l4.485,-2.982Zm-106.614,2.097l2.073,1.592l-3.277,3.941l-1.983,-1.51l3.187,-4.023Zm22.81,0.975l-0.099,4.742l4.879,0.185l-4.78,-4.927Zm61.091,0.463c-1.448,0.281 -3.307,1.221 -4.71,1.673l5.546,3.184l-0.836,-4.857Zm25.744,0.679l1.295,1.603l-4.17,3.492l-1.336,-1.67l4.211,-3.425Zm-105.413,1.406l1.932,1.79l-3.405,3.665l-1.788,-1.681l3.261,-3.774Zm108.975,2.601l1.5,1.518l-3.799,3.938l-1.5,-1.519l3.799,-3.937Zm-104.585,1.93l1.497,1.739l-3.889,3.081l-1.441,-1.748l3.833,-3.072Zm22.408,0.408l1.091,4.644c-0.08,-0.338 4.841,-1.385 5.482,-1.033l-6.573,-3.611Zm57.281,0.392l4.644,4.887l0.522,-4.707l-5.166,-0.18Zm28.718,0.769l1.68,1.308l-3.118,4.428l-1.901,-1.488l3.339,-4.248Zm-105.059,2.951l1.383,1.993l-4.076,2.418l-1.156,-1.759l3.849,-2.652Zm109.458,0.47l0.258,0.256l-0.008,3.161l-1.293,1.896l-1.766,-1.038l2.809,-4.275Zm-26.27,3.551l4.108,7.443l1.158,-5.551c-1.519,-0.022 -3.924,-0.992 -5.266,-1.892Zm-79.939,0.993l0.978,2.147l-4.305,1.957l-0.982,-2.136l4.309,-1.968Zm2.326,5.126l0.787,2.154l-4.577,1.515l-0.726,-2.078l4.516,-1.591Zm-14.773,1.371c-0.782,-0.014 -2.834,0.762 -5.694,2.532l1.425,0.995c4.178,-2.189 5.274,-3.51 4.269,-3.527Zm36.285,0.057c0.281,-0.029 0.604,0.357 0.865,1.211c0.395,1.291 0.184,2.891 -0.694,2.87c-0.592,-0.072 -0.812,-1.584 -0.814,-2.022c-0.008,-1.295 0.282,-2.022 0.643,-2.059Zm4.071,0.773l1.769,0.189l-0.007,0.499l-14.089,22.293l-1.707,-1.08l14.034,-21.901Zm-7.586,0.516c0.561,0.007 1.383,0.39 2.111,1.161c0.426,0.46 0.884,1.114 0.995,1.782c-0.013,0.221 -0.391,0.137 -0.756,0.085c-0.936,-0.131 -2.313,-0.777 -2.752,-1.572c-0.539,-0.977 -0.235,-1.462 0.402,-1.456Zm64.771,0.793l1.879,9.131c0.582,-2.286 1.811,-3.603 2.721,-5.398c-2.394,-1.099 -3.377,-2.401 -4.6,-3.733Zm-80.948,1.848l0.44,2.361l-4.745,1.095l-0.492,-2.291l4.797,-1.165Zm17.9,0.827c1.735,0.194 1.98,0.578 0.814,1.359c-0.708,0.474 -2.772,0.607 -2.939,0.036c-0.201,-0.687 1.194,-1.361 2.125,-1.395Zm-32.958,0.589c-0.533,0.034 -1.211,0.293 -1.676,0.789l1.473,0.858c1.576,-1.135 1.091,-1.704 0.203,-1.647Zm30.261,1.586c0.53,0.007 0.85,0.951 1.037,1.818c0.096,0.803 0.04,1.475 -0.082,2.019c-0.143,0.635 -0.787,0.608 -1.102,0.097c-0.926,-1.498 -0.897,-3.947 0.147,-3.934Zm2.485,1.137c-0,0.202 -0.164,0.366 -0.367,0.366c-0.202,0.001 -0.367,-0.163 -0.367,-0.366c-0.001,-0.192 0.148,-0.352 0.359,-0.359c0.211,-0.007 0.375,0.157 0.375,0.359Zm-6.396,0.234c0.247,-0.009 0.559,0.053 0.922,0.189c1.232,0.464 2.865,2.343 2.175,2.603c-1.018,0.383 -3.244,-0.732 -3.662,-1.857c-0.211,-0.568 0.02,-0.916 0.565,-0.935Zm-10.155,1.513l0.114,2.334l-4.991,0.203l-0.149,-2.322l5.026,-0.215Zm12.226,1.965c0.492,-0.014 0.984,0.051 1.381,0.222c0.714,0.308 0.193,0.865 -1.033,1.289c-0.81,0.28 -1.965,0.352 -2.369,0.031c-0.947,-0.744 0.547,-1.5 2.021,-1.542Zm-38.639,0.272c3.419,2.069 10.509,6.679 10.509,6.679c-0.335,0.066 -0.691,0.328 -1.021,0.584c-0.255,0.208 -0.531,0.403 -0.771,0.501c-0.379,0.154 -0.728,0.175 -1.045,0.244c-2.203,0.477 -3.282,1.719 -2.594,3.265c0.27,0.607 0.34,0.509 -0.13,1.021c-1.314,1.25 -1.153,1.625 -0.685,3.224c0.007,0.227 -1.564,2.147 -0.175,3.595c0.768,0.667 0.804,0.251 0.525,1.768c-0.097,0.912 0.153,1.661 1.485,1.922c0.74,0.339 0.73,0.221 0.468,0.846c-0.07,0.352 -0.096,0.631 -0.014,0.842c0.214,0.541 0.472,0.706 1.058,0.963l0.066,0.56c0,-0 -0.148,0.077 -0.22,0.116c-4.261,2.281 -5.511,6.185 -1.397,11.892c0.493,0.684 1.735,2.614 1.735,2.614c-1.411,2.087 -2.758,3.806 -4.196,5.669l4.187,5.836c-0.883,1.195 -2.514,3.38 -3.238,5.339c-1.219,3.293 -0.497,7.667 3.713,9.005c1.806,0.574 4.189,0.108 5.692,-1.631c1.219,-1.411 1.883,-4.214 0.771,-7.133c-1.407,-3.271 -3.095,-4.876 -3.64,-5.806l4.483,-5.608c0,-0 -3.09,-4.429 -4.322,-6.037c7.981,-9.736 2.198,-12.815 0.464,-13.853c-0.093,-0.056 -0.241,-0.15 -0.241,-0.15l-0.156,-0.792c-0,-0 0.138,-0.017 0.206,-0.025c7.392,-0.914 9.944,-5.021 12.145,-10.208c4.504,2.892 16.225,10.33 16.225,10.33c-0.175,0.572 -0.323,1.525 -0.335,2.232c0.21,1.36 0.11,1.976 -0.44,2.497c-0.518,0.49 -0.415,0.713 -0.332,1.243c0.145,0.92 0.284,1.012 -0.129,1.475c-0.509,0.572 -0.679,0.839 -0.584,2.225c0.056,0.824 0.161,1.441 -0.054,1.927c-0.281,0.632 -1.052,0.952 -2.062,1.743c-1.768,1.384 -1.529,1.807 0.912,6.83c2.081,4.281 2.319,5.26 1.52,6.781c-0.664,1.264 -0.914,2.243 -0.834,4.07c0.021,0.466 0.061,0.97 0.059,1.216c-0.008,0.591 -0,0.522 -0.34,0.892c-0.266,0.287 -0.708,0.858 -0.981,1.266c-2.903,4.34 -10.54,15.488 -10.54,15.488l-25.747,-0l0,-75.457Zm108.28,0.847c0.008,3.954 -0.08,9.086 -1.446,12.87l1.548,0.699c-0.5,-3.884 0.121,-7.073 3.696,-8.754c-1.627,-1.1 -2.87,-2.96 -3.798,-4.815Zm-72.223,1.172c0.301,-0.021 0.664,0.516 1.076,1.601c0.237,0.626 0.211,1.714 -0.172,2.132c-0.765,0.833 -1.818,-1.119 -1.485,-2.664c0.15,-0.698 0.347,-1.052 0.581,-1.069Zm2.24,0.547c0.008,-0 0.016,-0 0.024,-0c0.203,-0.001 0.368,0.163 0.368,0.366c0.001,0.203 -0.164,0.368 -0.368,0.367c-0.202,-0 -0.366,-0.165 -0.366,-0.367c-0,-0.192 0.148,-0.352 0.34,-0.366l0.002,-0Zm-6.089,0.774c0.806,0.061 1.602,0.538 2.138,1.01c0.785,0.692 1.493,1.643 1.302,1.728c-1.214,0.531 -4.297,-1.092 -3.893,-2.361c0.088,-0.269 0.247,-0.392 0.453,-0.377Zm-5.402,0.166l0.033,1.939l-2.986,-1.903l2.953,-0.036Zm68.159,0.934c0.484,0.042 1.23,0.671 1.114,1.109c-0.208,0.474 -0.463,0.431 -0.796,-0.068c-0.415,-0.621 -0.584,-1.008 -0.318,-1.042l0,0.001Zm-60.475,2.395c0.725,-0.02 1.35,0.139 1.418,0.516c0,0.356 -0.552,0.817 -1.231,1.026c-1.697,0.52 -2.968,0.184 -2.504,-0.646c0.291,-0.549 1.385,-0.871 2.317,-0.896Zm58.275,0.42c0.678,-0.01 1.259,1.346 0.824,1.777c-0.717,1.282 -0.805,5.38 0.461,7.052c1.966,2.165 3.782,4.983 3.573,8.734l-1.891,0.843c0.104,-3.084 -0.019,-5.09 -2.435,-7.752c-2.878,-3.116 -2.2,-8.515 -1.207,-10.103c0.213,-0.392 0.45,-0.547 0.675,-0.551Zm-79.284,1.273l9.076,6.149c-0,-0 0.024,0.161 -0.023,0.343c-1.292,4.947 -5.062,8.87 -10.642,9.589c-0.645,0.083 -0.313,-0.321 -0.702,-1.096c-0.4,-0.798 -1.139,-1.145 -1.959,-1.152c-2.304,-0.021 -0.335,-1.31 2.477,-1.678c0.93,-0.143 2.051,-0.269 2.643,-0.828c0.129,0.06 -0.488,-3.867 0.144,-5.249c0.323,-1.243 0.018,-1.845 -0.331,-1.08c-0.219,0.48 -0.525,1.741 -0.69,3.033c-0.139,1.091 -0.369,1.24 -0.627,0.71c-0.117,-0.242 -0.116,-0.814 0.07,-1.265c0.209,-1.029 -1.092,-1.804 -0.83,-2.745c0.348,-0.787 -0.014,-1.655 -0.452,-1.943c-0.239,-0.51 -0.211,-0.878 -0.18,-1.235c0.074,-0.833 -0.482,-1.635 -1.362,-1.983c-0.389,-0.196 -0.239,-0.352 0.132,-0.61c0.963,-0.668 2.29,0.484 3.256,1.04Zm-5.478,0.21c0.222,0 0.441,0.02 0.651,0.074c0.452,0.275 0.817,1.837 0.311,1.899c-0.186,0.022 -0.768,0.092 -1.219,0.224c-1.53,0.448 -2.255,0.388 -2.225,-0.489c0.03,-0.894 1.286,-1.687 2.482,-1.708l0,0Zm2.034,0.159c0.602,-0 1.088,0.707 0.709,1.08c-0.392,0.386 -1.144,0.104 -1.14,-0.454c-0,-0.301 0.137,-0.628 0.431,-0.626Zm0.409,2.435c0.172,-0.008 0.364,0.03 0.569,0.125c0.56,0.258 0.883,1.217 0.527,1.568c-0.271,0.267 -1.046,0.174 -1.461,-0.178c-0.741,-0.628 -0.383,-1.486 0.365,-1.515Zm-1.897,0.14c0.347,0.007 0.596,0.118 0.662,0.357c0.057,0.205 -0.038,0.395 0.054,0.687c0.147,0.461 0.44,0.813 0.184,0.998c-1.173,-0.07 -3.609,1.398 -4.314,1.329c-0.587,-0.079 -0.653,-0.618 -0.144,-1.492c0.588,-1.01 2.518,-1.901 3.558,-1.879l0,-0Zm0.709,2.839c0.256,-0.016 0.298,0.124 0.194,0.496c-0.073,0.265 -0.012,0.895 0.168,1.301c0.194,0.436 0.544,0.695 0.362,0.866c-0.3,0.086 -1.307,0.287 -2.154,0.602c-1.093,0.603 -4.162,2.419 -3.39,-0.485c0.246,-0.97 1.376,-1.644 3.347,-2.331c0.748,-0.26 1.218,-0.433 1.473,-0.449Zm1.609,0.035c0.474,-0.034 1.017,0.193 1.259,0.78c0.712,1.413 -1.331,1.614 -1.983,0.438c-0.387,-0.696 0.114,-1.174 0.724,-1.218Zm0.389,3.289c1.062,0.007 1.886,1.317 1.116,1.813c-0.571,0.342 -1.28,0.278 -1.934,0.116c-0.983,-0.43 -0.529,-1.937 0.818,-1.929Zm101.6,0.026c4.037,2.107 9.518,4.05 14.842,5.492l0,52.304l-36.392,-0l-9.966,-17.329c-0.468,-0.813 -0.659,-1.438 -0.43,-2.147c0.377,-1.162 1.331,-3.482 2.253,-5.118c2.407,-4.405 5.827,-9.236 3.974,-13.467c-0.211,-0.484 1.913,-3.108 1.913,-3.108c3.388,0.165 6.296,-2.064 4.935,-6.843c6.831,-2.783 12.532,-5.082 18.871,-9.784l0,0Zm-103.482,0.257c0.093,0 -0.185,1.142 0.395,1.845c0.361,0.553 0.302,0.534 -0.924,1.017c-0.459,0.247 -0.919,0.623 -1.177,0.853c-1.756,1.561 -3.492,-0.479 -1.795,-2.119c1.369,-1.226 2.8,-1.495 3.478,-1.581c0.01,-0.011 0.017,-0.014 0.023,-0.014l0,-0.001Zm83.462,1.079c0.589,0.104 1.353,0.885 1.108,1.311c-0.83,1.387 -0.869,2.132 -0.943,3.566c-0.083,1.602 0.192,1.838 -0.421,1.561c-0.399,-0.186 -1.145,-0.505 -1.312,-0.913c-0.386,-0.938 0.6,-5.696 1.568,-5.525Zm-84.034,4.019c0.652,-0.011 1.336,0.201 1.722,0.695c0.321,0.412 0.354,0.764 0.035,0.932c-0.76,0.4 -3.274,0.192 -3.4,-0.322c-0.196,-0.793 0.69,-1.288 1.643,-1.305l0,0Zm38.098,1.017c3.073,0.012 6.645,0.694 9.433,1.872c2.428,1.026 6.342,3.853 8.446,7.294c0,-0 -0.499,-0.009 -0.822,0.026c-4.693,0.773 -6.354,6.612 -2.394,9.362c1.241,0.774 2.244,0.693 2.244,0.693c1.004,-0.086 -4.463,10.369 -6.639,16.883c-6.735,-0.275 -11.824,0.759 -18.408,-1.499c-0.708,-1.171 -0.539,-3.758 -0.022,-5.095c0.473,-1.213 1.096,-2.15 0.795,-3.546c-0.524,-2.431 -2.748,-5.598 -3.492,-7.606c-0.653,-1.533 -0.61,-2.105 0.527,-2.983c1.34,-1.035 1.67,-1.251 2.038,-1.774c0.342,-0.487 0.195,-0.6 0.201,-1.697c0.008,-1.332 -0.024,-1.124 1.08,-1.32c0.385,-0.068 1.293,-0.358 1.987,-0.723c1.439,-0.756 2.443,-0.729 3.288,-0.26c0.368,0.099 0.333,-0.281 0.487,-0.785c0.068,-0.219 0.223,-0.577 0.211,-0.686c-0.026,-0.225 -0.512,-0.162 -1.048,-0.087c-2.148,0.3 -3.841,0.366 -4.711,0.045c-0.755,-0.28 -0.756,-0.788 -0.315,-1.629c0.393,-0.749 0.671,-0.736 0.51,-2.298c-0.201,-1.961 0.071,-2.373 0.989,-3.017c1.145,-0.803 3.225,-1.179 5.615,-1.17l0,0Zm11.105,1.728l9.842,0c-1.321,2.16 -1.85,3.951 -2.713,6.361c-3.051,-4.049 -5.041,-5.067 -7.129,-6.361Zm-8.28,7.01c-1.193,0.034 -2.687,0.607 -4.563,1.678c-1.275,0.729 -2.316,1.181 -3.669,0.932c-0.774,-0.142 -0.873,-0.032 -0.975,0.217c-0.455,1.126 1.235,2.334 2.942,1.542c0.496,-0.207 4.301,-2.174 4.511,-2.342c0.229,-0.183 1.806,-0.646 2.222,-0.641c1.259,0.016 2.036,1.002 1.882,2.139c-0.138,1.022 -1.19,1.456 -1.859,1.114c-0.677,-0.346 -0.612,-0.873 -0.911,-1.492c-0.604,1.354 0.197,2.391 1.462,2.523c1.529,-0.029 2.915,-1.825 1.985,-3.663c-0.707,-1.394 -1.674,-2.046 -3.027,-2.007l0,0Zm-7.747,5.255c-0.143,0 -0.292,0.013 -0.447,0.043c-1.239,0.235 -2.046,0.715 -3.382,0.826c-1.102,0.242 -1.02,1.117 -0.331,1.572c0.53,0.35 1.196,0.139 3.124,-1.083c1.894,-1.2 3.518,1.301 2.003,2.581c-0.954,0.806 -0.299,1.017 0.354,0.532c1.573,-1.17 0.826,-4.453 -1.321,-4.471l0,0Zm1.544,8.9c-0.117,0.197 -0.053,0.531 -0.109,0.792c-0.045,0.205 -0.209,0.466 -0.18,0.605c0.026,0.122 0.427,0.251 0.487,0.365c0.247,0.462 0.088,1.641 -0.054,2.493c-0.068,0.409 -0.676,0.535 -0.92,0.781c-0.8,0.81 -0.599,1.058 0.253,0.742c0.596,-0.221 0.343,-0.63 1.816,-0.345c1.908,0.368 3.421,-0.148 4.922,-0.979c1.667,-0.923 2.271,-1.435 2.338,-1.324c0.111,0.181 0.024,0.276 -1.165,1.261c-2.979,2.467 -5.195,3.042 -6.866,2.117c-0.5,-0.339 -0.901,-0.477 -0.522,0.249c0.048,0.079 0.454,0.393 0.737,0.52c1.717,0.772 3.869,0.118 6.608,-2.04c0.601,-0.474 1.133,-1.004 1.828,-1.584c2.272,-1.896 1.674,-2.763 -0.894,-1.84c-0.809,0.291 -1.036,-0.023 -2.13,-0.447c-1.47,-0.569 -1.952,-0.622 -3.643,-0.652c-1.472,-0.026 -1.692,0.112 -1.691,-0.135c-0,-0.315 1.054,-1.301 2.104,-1.908c0.884,-0.511 1.125,-1.098 1.131,-1.095c-1.533,0.274 -3.196,1.311 -4.05,2.424Zm3.347,1.537c0.117,-0.048 2.569,0.16 3.234,0.718c0.274,0.277 -0.12,0.453 -1.181,0.956c-0.602,0.284 -1.153,0.519 -1.23,0.517c-0.095,0.171 -1.097,-2.081 -0.823,-2.191Zm-0.936,0.236c0.136,-0.007 0.261,0.132 0.317,0.246c0.246,0.51 0.433,1.044 0.529,1.537c0.022,0.151 0.131,0.371 -0.109,0.369c-0.188,0.027 -0.5,0.043 -0.612,-0.132c-0.24,-0.376 -0.506,-1.654 -0.416,-1.902c0.056,-0.141 0.192,-0.113 0.291,-0.118Zm9.137,4.139c0,-0 -1.73,1.013 -2.466,1.367c-3.779,1.814 -7.897,2.614 -10.688,1.563c-1.099,-0.414 -1.298,-0.269 -0.899,0.48c0.278,0.52 0.826,1.13 1.663,1.36c2.662,0.73 6.95,-0.333 10.248,-2.49c1.343,-0.877 2.142,-2.28 2.142,-2.28Zm24.781,6.817c0.008,-0 8.195,15.339 8.918,16.06l-60.75,-0.258l10.235,-14.431c0.09,0.811 24.69,4.178 41.597,-1.371Z" style="fill:#242424;fill-rule:nonzero;"/><path id="path4035-6-4-6" d="M53.819,228.588l9.811,-14.44c14.51,2.749 27.564,1.297 41.864,-1.246l9.524,16.008l-61.199,-0.322Zm76.933,-53.814l-0.063,-8.573l2.997,1.111c-1.04,-3.988 1.586,-8.154 3.977,-8.32c-7.641,-5.745 -1.294,-11.89 -1.425,-12.021c-8.358,-4.299 -4.165,-10.899 -4.744,-11.491c-10.183,-2.631 -6.207,-10.687 -6.977,-9.856c-5.928,1.777 -9.192,-3.174 -9.292,-7.2c-5.13,2.898 -13.055,-1.208 -10.572,-5.821c0,-0 2.717,1.285 3.197,1.026c4.188,-3.035 3.86,1.321 4.731,2.267c3.123,-0.451 4.967,1.932 5.746,3.089c4.607,0.005 4.418,-1.096 4.458,3.357c3.471,0.879 3.333,2.749 5.344,5.305c4.376,0.048 3.64,1.468 2.649,3.882c3.155,2.503 3.41,4.462 3.93,6.738c3.442,1.244 4.059,1.75 1.813,4.641c3.037,4.538 1.576,7.166 2.037,7.414c3.787,2.723 1.895,3.709 0.241,4.754c0.574,3.619 1.034,4.151 -0.301,7.834c4.353,3.079 -0.691,4.468 -0.948,4.404l-0.012,3.05l-6.786,4.41Zm-105.401,-22.352l-0.088,-10.623l36.901,23.766l-4.662,7.294l-32.151,-20.437Zm49.022,15.634c10.248,-18.994 8.711,-16.991 5.588,-38.053l24.998,0.544c2.811,6.368 4.506,11.782 11.707,22.321c-7.811,2.012 -6.739,2.778 -7.344,15.122l-34.949,0.066Zm21.379,-4.787c-0.255,-0.527 -0.396,-0.886 -0.349,-1.121c0.094,-0.303 0.326,-0.289 0.624,-0.126c1.062,0.514 2.125,0.957 2.908,-0.016c0.392,-0.509 0.29,-1.235 -0.043,-1.654c-0.6,-1.216 -2.485,-0.336 -3.119,-0.292c-0.589,0.013 -0.816,-0.481 -0.332,-1.183c0.288,-0.306 0.469,-0.643 0.516,-1.041c0.331,-2.782 -4.426,-1.793 -2.776,0.905c0.75,1 0.313,1.6 -0.79,0.969c-1.212,-0.696 -2.899,-0.047 -2.844,1.415c0.043,1.108 1.439,1.792 2.614,1.124c0.271,-0.154 0.482,-0.322 0.675,-0.405c0.545,-0.237 0.938,-0.042 0.756,0.571c-0.488,0.766 -1.062,1.866 -0.582,2.589c0.48,1.056 2.135,0.958 2.703,0.301c0.391,-0.452 0.501,-1.187 0.039,-2.036l0,-0Zm57.668,-55.79l-36.973,-23.882c2.286,-2.954 3.642,-5.338 4.915,-7.713l32.096,20.576l-0.038,11.019Zm-57.807,-8.073l3.787,19.281l-25.812,0.367c-1.418,-6.474 -10.284,-21.127 -10.26,-20.871l6.882,-16.858l34.253,-0.04l-8.85,18.121Zm-9.686,-7.179c0.653,-0.597 0.609,-1.509 -0.112,-2.534c-0.698,-0.994 -0.387,-1.71 0.732,-1.037c0.62,0.414 1.604,0.501 2.269,0.29c0.843,-0.287 1.194,-0.958 1.069,-1.806c-0.151,-1.025 -1.291,-1.306 -2.51,-0.859c-0.352,0.074 -0.566,0.361 -0.87,0.497c-0.657,0.288 -0.918,-0.499 -0.317,-1.519c0.666,-1.131 -0.026,-2.344 -1.25,-2.451c-1.31,-0.114 -2.089,1.37 -1.556,2.184c0.767,1.168 0.212,1.982 -0.888,1.201c-1.581,-1.125 -3.646,0.301 -2.791,1.973c0.415,0.812 1.774,1.025 2.991,0.511c1.018,-0.43 1.32,0.064 0.704,1.103c-1.268,2.136 0.814,4.013 2.529,2.447Zm-37.451,-18.932l-0.273,10.275c-3.861,-2.354 -3.287,-2.384 -3.43,-2.348c1.136,3.088 -0.19,6.905 -3.465,8.78c5.902,5.519 2.713,9.399 1.744,12.019c7.541,4.364 3.715,11.904 3.746,11.513c7.435,0.042 7.285,6.521 7.499,9.225c9.194,-0.575 7.961,6.746 9.173,7.375c4.457,-1.988 9.662,-1.306 11.042,4.664c0.894,3.387 -2.383,0.123 -3.811,0.266c-5.081,3.154 -4.104,-1.66 -4.39,-2.33c-4.208,0.398 -4.774,-1.602 -6.618,-3.02c-4.546,0.871 -4.172,-0.619 -3.904,-3.371c-3.566,-0.719 -4.341,-2.938 -5.762,-5.108c-4.923,0.158 -2.915,-3.308 -2.897,-3.989c-0.597,-0.533 -3.425,-3.306 -3.564,-6.48c-5.054,-1.424 -1.88,-3.965 -1.698,-4.837c-1.912,-2.375 -2.414,-4.126 -1.774,-7.117c-4.487,-2.091 -0.74,-4.045 -0.422,-5.234c-1.463,-3.897 -0.397,-5.063 0.18,-7.172c-2.887,-3.373 -1.162,-3.186 0.951,-5.233c0.268,-0.369 -0.47,-2.064 -0.429,-3.061l8.102,-4.817Zm25.925,-38.079l-8.091,-14.436l57.795,-0c0,-0 -6.289,8.687 -8.728,13.057c-14.414,-2.267 -27.901,-1.191 -40.976,1.379Z" style="fill:#3f3f3f;fill-rule:nonzero;"/><path id="path4039-1-1-4" d="M34.059,219.212c-7.992,-3.039 -2.847,-10.819 -0.525,-13.867c-1.644,-2.531 -2.404,-3.423 -4.082,-5.937c1.481,-2.232 3.215,-3.934 4.327,-5.871c-4.446,-4.964 -7.381,-12.485 1.205,-14.256c9.618,2.399 3.941,10.86 1.32,14.134c0.924,1.856 2.526,3.632 4.125,5.967c-1.482,1.83 -3.035,3.547 -4.339,5.652c3.773,4.556 6.364,10.476 1.603,13.625c-1.267,0.646 -2.229,0.835 -3.634,0.553Zm42.722,-76.545c-0.139,-0.227 -19.114,30.377 -19.114,30.377l2.166,1.385l18.152,-28.291c0.274,0.207 0.542,0.454 0.486,0.798c0,0 -14.951,24.281 -17.441,28.162c-0.067,0.105 3.707,2.333 3.834,2.339c5.559,-2.731 28.749,-0.367 44.147,-1.307c0.061,0.047 -0.236,5.392 -0.236,5.392c-5.146,-6.892 -7.625,-2.616 -14.041,-2.875c-1.684,0.513 -3.607,6.632 -3.985,8.165c-3.065,-0.354 -6.025,2.841 -5.317,5.818c1.002,3.306 2.723,3.057 4.586,3.112c-0.173,3.743 -6.805,13.61 -6.833,18.472c7.013,-0.553 14.602,-0.68 21.836,-2.854c-0,-0 2.717,-7.788 6.146,-12.922c1.131,-1.963 1.673,-4.912 1.214,-6.769c-0.29,-2.035 0.59,-2.549 1.376,-3.974c0.478,-0.89 2.246,-0.853 2.472,-0.918c4.601,-1.328 2.957,-7.259 0.999,-8.314c-2.442,-1.315 -5.895,0.723 -7.222,-1.945c-1.404,-2.824 -0.949,-8.663 -0.949,-8.663l-34.742,0.165c0,0 9.817,-18.59 9.567,-18.727c-2.684,-1.468 -7.068,-6.573 -7.101,-6.626Zm-23.237,16.921c0.163,-1.88 0.464,-32.431 -28.501,-47.619l0.154,-4.016c0.178,-0.207 26.349,11.773 30.838,42.893l8.076,-12.614l2.971,1.162c-4.389,6.574 -13.121,22.53 -13.538,20.194Zm-17.589,-11.005c1.194,-3.528 -0.764,-1.657 -2.548,-1.801c-1.22,-0.662 -2.418,-1.516 -3.551,-2.259c8.465,-4.47 3.424,-4.254 -1.508,-1.115c-1.278,-0.691 -2.895,-2.205 -2.997,-2.077c9.552,-6.124 5.969,-6.247 -0.144,-1.814c0.211,-4.158 0.062,-2.597 0.144,-3.995c5.211,-5.565 0.358,-2.541 0,-2.475c-1.283,-5.552 4.853,-4.389 5.415,-0.192c1.08,0.8 3.203,1.791 3.828,5.234c2.947,1.87 2.637,3.419 2.501,5.659c1.152,1.135 4.127,3.53 0.657,5.741l-1.797,-0.906Zm-10.987,-25.334l0.196,-3.072c0.4,-1.252 22.738,14.632 21.128,35.043c0.264,-0.143 -2.472,-1.425 -3.257,-2.126c0.012,-15.02 -15.985,-28.226 -18.067,-29.845Zm128.124,17.229c-14.905,-6.808 -29.058,-23.124 -29.802,-44.345l-8.418,14.054l-2.989,-1.261c0.279,0.23 6.659,-11.571 13.226,-19.727c1.853,26.775 12.388,39.226 28.348,48.27l-0.365,3.009Zm-78.058,-9.79c-14.443,-1.787 -35.126,-21.984 -28.885,-48.55c7.836,4.229 12.113,10.82 15.804,14.47c2.309,2.692 10.789,16.573 11.209,22.096c10.502,2.982 30.784,-0.361 30.784,-0.361c17.044,3.794 34.865,22.121 28.431,48.167c0,0 -4.53,-2.965 -8.317,-6.415c-11.503,-11.083 -15.153,-20.189 -19.229,-30.235c-14.727,-1.329 -28.534,1.304 -29.797,0.828Zm78.197,-22.125c0.252,1.323 0.089,4.064 0.138,4.058c-3.838,4.167 -4.236,4.242 0.575,2.904c-0.596,3.994 -3.559,4.65 -5.319,3.291c-0.649,-0.501 -0.655,-3.254 -0.655,-3.254c-2.919,-0.729 -3.921,-1.604 -3.507,-4.732c-3.361,-0.4 -3.229,-2.031 -2.952,-5.436c-3.061,-1.715 -2.298,-4.447 -0.488,-5.613l1.514,1.039c-0.485,0.433 -0.249,3.145 2.434,1.128c-0,-0 2.145,1.775 3.176,2.464c-7.761,4.974 -3.057,3.88 1.724,0.613c0.897,0.61 2.122,1.607 2.759,2.037c-6.298,4.502 -8.364,8.265 0.601,1.501Zm0.377,16.911l-0.256,3.586c-15.324,-9.344 -19.471,-21.667 -20.61,-34.792c-0,-0 2.056,1.509 2.997,2.136c1.367,16.932 16.924,28.364 17.869,29.07Zm-83.949,-44.429l36.747,0.234l-9.746,18.576l5.144,6.058c0,-0 12.765,-19.828 19.184,-30.214l-2.221,-1.324l-18.32,28.698l-0.728,-0.805l18.061,-28.674c-1.082,-0.707 -3.133,-1.841 -3.133,-1.841c0,-0 -31.293,0.501 -44.895,0.446c0.441,-1.872 0.536,-5.188 0.536,-5.188c2.005,2.871 4.155,5.434 8.832,2.613c-0,0 5.531,0.186 5.735,-0.076c0.676,-1.091 1.876,-4.522 3.274,-8.397c4.049,0.114 5.196,-2.699 5.383,-4.336c0.441,-3.874 -4.088,-4.985 -4.432,-4.448c0.952,-5.793 7.957,-17.76 6.735,-18.176c-1.586,-1.048 -17.302,2.037 -21.877,2.598c-0.423,-0.162 -2.655,7.113 -5.011,10.224c-2.562,3.383 -3.475,7.012 -2.167,10.434c-1.356,3.762 -3.954,3.377 -6.041,4.442c-2.367,2.556 -1.714,6.469 0.542,7.982c1.571,1.055 3.982,1 6.44,-0.99l1.958,12.164Zm73.021,-26.277l-4.299,-5.756l4.168,-6.053c-1.645,-2.6 -4.358,-6.579 -3.872,-9.733c1.062,-6.254 9.525,-5.336 10.262,0.646c0.401,2.776 -1.63,6.182 -3.692,9.079c1.361,2.474 1.947,2.877 3.926,5.713c-1.176,2.068 -4.039,6.117 -4.039,6.117c1.785,2.994 4.269,6.294 4.089,9.339c-0.188,2.615 -3.048,5.266 -5.717,4.709c-8.298,-1.732 -3.663,-10.578 -0.826,-14.061Z" style="fill:#bdbdbd;fill-rule:nonzero;"/><g id="g4049-4-4-2"><path id="path4033-2-3-3" d="M64.938,20.121c2.279,4.266 8.751,15.777 8.751,15.777c15.391,-3.182 28.333,-3.991 41.935,-1.022l9.717,-14.686l-60.403,-0.069Zm2.006,0.865l2.782,0l5.459,11.195l9.417,-1.875l-1.605,-9.296l2.665,0.016l1.349,8.939l13.836,-0.35l1.792,-8.629l2.551,0.031l-1.83,8.769l10.956,1.471l5.36,-10.271l3.683,0l-8.151,12.682c-14.501,-2.816 -28.905,-1.87 -40.962,1.088l-7.302,-13.77Zm5.248,0l8.124,0l1.948,7.557c-0.997,0.519 -4.722,1.406 -5.968,1.281c-1.489,-2.598 -3.027,-6.356 -4.104,-8.838Zm15.668,0l12.363,0l-1.057,6.435l-10.367,0.329l-0.939,-6.764Zm19.598,0l9.527,0l-3.761,7.814l-7.185,-0.975l1.419,-6.839Zm36.27,7.821c-3.615,-0.119 -5.415,3.269 -5.33,5.643c0.557,3.515 1.349,4.186 3.923,8.504l-4.145,6.073l4.412,5.744c-0,-0 -0.689,0.803 -1.097,1.378c-2.022,2.852 -2.957,5.517 -2.828,7.704c0.14,2.362 1.523,4.164 4.111,5.028c3.922,0.872 6.401,-1.923 6.483,-5.133c0.034,-2.164 -1.015,-4.786 -3.106,-7.646c-0.567,-0.776 -0.844,-1.385 -0.844,-1.385c-0,-0 2.925,-4.152 4.029,-6.051l-3.998,-5.723c3.178,-4.761 3.819,-5.817 3.908,-8.743c-0.144,-2.899 -2.255,-5.375 -5.518,-5.393Zm0.016,0.362c3.63,0.278 5.546,2.967 5.064,6.419c-0.493,3.291 -3.469,6.358 -3.946,7.416c1.432,2.319 4.13,5.615 4.13,5.615c-1.145,2.075 -4.103,6.098 -4.103,6.098c-0,-0 0.171,0.332 0.359,0.598c3.088,4.361 3.938,6.422 3.725,9.036c-0.168,2.062 -1.802,3.901 -3.839,4.275c-3.227,0.592 -5.874,-1.691 -6.199,-4.773c-0.198,-2.698 1.547,-5.32 2.903,-7.366c0.575,-0.857 1.068,-1.678 1.069,-1.678l-4.396,-5.75c1.34,-2.117 3.033,-4.194 4.275,-5.981c-0,-0 -0.655,-1.051 -1.263,-2.008c-2.41,-3.794 -3.082,-5.74 -2.711,-7.837c0.782,-2.904 2.737,-4.196 4.932,-4.064Zm-0.086,1.934c-1.341,0.035 -2.622,1.021 -3.132,2.446c-0.737,2.673 2.085,6.719 3.369,7.805c2.407,-2.758 3.941,-5.853 3.052,-8.019c-0.585,-1.31 -1.948,-2.268 -3.289,-2.232Zm0.331,0.865c2.431,0.05 3.34,2.926 1.465,6.197c-0.648,1.117 -1.601,2.284 -1.601,2.284c-0,-0 -0.891,-1.106 -1.426,-1.941c-2.173,-3.39 -1.612,-6.036 1.056,-6.509c0.176,-0.023 0.345,-0.034 0.506,-0.031l0,0Zm-47.76,1.495c-6.517,-0.098 -16.191,1.405 -22.95,2.78c-0.649,3.995 -2.66,8.002 -4.854,11.185c-2.113,3.44 -2.877,6.435 -2.17,8.488c0.661,1.921 -1.146,4.789 -3.13,4.97c-2.466,0.224 -4.035,1.936 -4.005,4.373c-0.07,3.905 2.634,6.298 6.305,4.97c0.369,-0.046 0.615,0.194 0.615,0.194l-0.215,22.349c-2.066,0.323 -3.445,0.771 -5.201,1.7c-3.266,-3.707 -5.988,-6.332 -8.491,-8.174c-0.072,-4.973 0.133,-9.976 -0.089,-14.939c-3.692,1.42 -7.624,3.749 -10.859,5.894c-1.087,0.725 -1.194,1.13 -0.786,2.965c0.229,1.029 0.172,1.14 -0.678,1.347c-1.752,0.427 -2.3,3.207 -0.818,4.15c0.694,0.442 0.696,0.466 0.248,1.473c-0.693,1.556 -0.666,4.532 0.051,5.773c0.41,0.709 0.382,0.939 -0.16,1.291c-1.866,1.21 -1.739,3.798 0.21,4.282c0.499,0.124 0.629,0.337 0.464,0.761c-0.609,1.568 -0.053,3.95 1.345,5.755c0.727,0.938 0.725,0.928 0.246,1.359c-1.57,1.414 -0.721,3.947 1.417,4.225c0.733,0.095 0.737,0.098 0.822,0.657c0.245,1.608 0.357,2.056 0.714,2.811c0.449,0.952 0.99,1.595 2.002,2.381c0.826,0.64 0.827,0.649 0.386,1.596c-0.815,1.749 0.481,3.483 2.548,3.412c1.054,-0.036 1.055,-0.038 1.13,0.335c0.372,1.827 2.549,3.968 4.337,4.263c0.918,0.152 1.063,0.37 0.751,1.146c-0.502,1.25 -0.177,2.055 1.091,2.703c0.85,0.435 1.099,0.451 2.03,0.132c1.054,-0.36 1.065,-0.356 1.96,0.838c1.262,1.683 2.099,2.106 4.204,2.12c1.389,0.01 1.441,0.046 1.449,1.022c0.021,2.31 2.473,3.274 4.053,1.593c0.569,-0.606 0.568,-0.604 1.075,-0.234c2.222,1.623 4.193,2.042 4.01,0.525c-0.429,-3.553 -3.009,-5.721 -3.009,-5.721l3.222,0.839c0.142,3.751 0.277,8.273 1.061,11.401l-14.362,22.798l-7.741,-5.12l12.961,-21.088l-3.646,-1.405c-2.79,4.378 -4.845,7.901 -7.442,11.937c-2.587,-18.915 -15.833,-35.52 -31.856,-42.513l0.054,4.951c16.822,8.576 28.829,26.277 28.51,47.154c-0.066,0.079 -1.409,-0.723 -3.222,-1.926c-0.957,-0.635 -2.882,-1.89 -3.121,-2.012c0.778,-23.12 -22.229,-36.791 -22.269,-36.145c0,-0 -0.144,2.987 -0.21,4.372c9.803,6.546 17.505,18.456 18.285,29.054c0.008,0.087 -4.601,-2.865 -4.601,-2.865c2.744,-1.362 1.988,-4.889 0.012,-5.845c-0.618,-0.276 -0.655,-0.409 -0.347,-1.242c0.632,-1.708 -0.527,-4.28 -2.123,-4.711c-0.7,-0.189 -0.816,-0.371 -0.849,-1.35c-0.063,-1.791 -1.057,-2.962 -2.849,-3.355c-0.495,-0.109 -0.498,-0.114 -0.525,-0.731c-0.151,-3.469 -3.556,-4.883 -6.11,-2.536c-0.285,0.262 -0.584,0.761 -0.584,0.761l-0.02,3.764c0.872,-0.479 2.196,-2.114 2.74,-2.048c0.6,0.07 0.309,0.474 -1.041,1.636c-0.875,0.754 -1.726,1.549 -1.726,1.549l0.055,4.955c1.454,-0.941 2.911,-2.005 4.274,-2.951c1.175,-0.816 1.776,-1.082 1.92,-0.846c0.162,0.265 -0.099,0.611 -0.766,1.01c-1.791,1.188 -3.875,2.584 -5.381,3.759l-0.008,3.412l0.288,0.423l0.086,2.991l-0.268,0.066l0,3.766l35.455,22.671l17.932,-28.452l0.296,0.298l-18.032,28.285c1.71,1.133 3.481,2.291 5.29,3.208c1.095,-0.636 1.613,-0.988 3.8,-1.47c2.187,-0.482 38.991,0.048 38.991,0.048l0.164,4.549c-1.3,-4.47 -5.492,-5.392 -8.786,-3.391l-5.412,0.008c-0.041,0 -3.203,5.74 -3.667,8.736c-2.274,-0.308 -5.301,1.902 -5.454,4.145c-0.369,3.19 1.733,5.516 4.483,5.064c-1.371,5.61 -4.689,11.158 -6.374,16.065c-0.853,2.322 -0.561,2.734 -0.416,2.792c8.073,-0.117 15.501,-0.896 23.163,-3.36c-1.149,-1.872 1.907,-6.482 3.503,-9.844c2.276,-4.037 2.928,-5.578 3.156,-7.483c0.163,-1.781 -0.063,-2.199 -0.359,-3.603c0.239,-1.212 2.09,-3.341 2.132,-3.289c2.545,0.368 4.546,-1.394 4.832,-3.712c0.44,-4.307 -3.196,-6.485 -6.496,-5.584l-0.031,-21.929l2.537,0.094l2.788,-1.372c4.481,3.813 7.404,7.712 12.228,10.648l-0.078,0.194l-3.585,-2.45l0.008,14.368c4.149,-2.153 8.018,-4.138 11.747,-7.15l-0.751,-0.648l0.031,-2.054c3.505,0.276 3.842,-4.172 0.962,-4.703c-0,0 0.066,-0.358 0.343,-0.924c0.883,-1.807 0.993,-3.511 0.35,-5.39c-0.393,-1.147 -0.376,-1.435 0.09,-1.433c2.129,0.012 1.934,-3.753 -0.237,-4.578c-0.748,-0.283 -0.695,-0.048 -0.542,-2.385c0.115,-1.754 -0.314,-2.945 -1.617,-4.485c-0.492,-0.581 -0.45,-0.861 0.183,-1.246c1.817,-1.106 0.501,-4.299 -1.734,-4.206c-0.872,0.037 -0.872,0.036 -0.947,-0.834c-0.199,-2.288 -1.48,-4.469 -3.159,-5.382c-0.521,-0.283 -0.598,-0.515 -0.305,-0.905c1.43,-1.906 0.093,-4.513 -1.925,-3.752c-0.391,0.148 -0.803,0.296 -0.915,0.331c-0.159,0.049 -0.288,-0.174 -0.596,-1.038c-0.839,-2.352 -1.584,-3.089 -4.255,-4.208c-0.525,-0.221 -0.556,-0.376 -0.319,-1.449c0.409,-1.853 -2.152,-3.578 -3.535,-2.381c-0.563,0.487 -0.581,0.483 -1.215,-0.326c-1.263,-1.449 -3.318,-2.458 -5.147,-2.648c-0.875,-0.079 -1.006,-0.146 -0.934,-0.481c0.485,-2.27 -1.732,-3.75 -3.574,-2.385c-0.885,0.655 -1.114,0.676 -2.022,0.168c-1.91,-1.069 -2.747,-1.109 -2.946,-0.145c-0.062,0.804 0.117,1.754 0.312,2.346c0.465,1.595 1.067,2.186 2.385,3.308c0,-0 -2.188,-0.604 -2.74,-0.714c0.055,-0.057 -0.159,-7.567 -1.593,-11.82l13.984,-22.181l8.01,5.265l-12.811,20.196l3.728,1.511c0,-0 4.98,-8.244 7.587,-12.286c1.707,20.076 17.279,37.68 31.385,42.902c-0.047,0.024 0.045,-2.887 0.105,-4.295c-14.883,-6.531 -29.039,-24.781 -28.147,-46.685l5.977,3.814c1.735,17.555 9.408,27.843 22.198,36.541l-0,-5.378c-8.808,-6.497 -16.127,-14.982 -18.068,-28.561c0,0 2.986,1.88 4.325,2.772c-0,-0 -0.378,0.216 -0.573,0.378c-1.598,1.325 -1.117,4.045 0.991,5.584c0.342,0.25 0.344,0.25 0.021,1.106c-0.639,1.699 0.348,3.753 2.012,4.183c0.955,0.246 0.949,0.235 0.967,1.324c0.034,2.115 0.887,3.09 3.154,3.596c0.31,0.069 0.322,0.1 0.317,1.048c-0.013,2.337 2.24,3.91 4.204,2.931c0.614,-0.306 2.548,-1.917 2.548,-1.917l-0,-3.764c-0,0 -0.876,0.713 -1.508,1.301c-1.108,1.028 -1.457,1.156 -1.454,0.529c0,-0.456 0.512,-1.054 1.574,-1.842c0.551,-0.408 1.388,-1.281 1.388,-1.281l-0,-4.384c-0,0 -0.494,-0.781 -0.463,-1.716c0.016,-0.509 0.158,-1.282 0.158,-1.282l0.53,0.012l-0.007,-5.076l-0.644,-0.501l0.028,-3.362l-34.985,-22.562l-18.222,28.884l-0.457,-0.532l18.243,-28.702l-5.106,-3.197c-0.109,0.026 -2.009,1.13 -4.064,1.537c-2.055,0.406 -18.872,-0.308 -38.621,-0.056c-0.01,-1.429 0.008,-2.269 -0,-3.903c-0,-0 0.321,0.178 0.435,0.439c1.586,3.359 5.597,3.405 8.01,1.931c0.538,-0.289 0.636,-0.299 3.168,-0.281c2.716,0.02 3.074,0.014 3.074,0.014c1.329,-3.484 2.274,-6.399 3.137,-8.657c6.759,0.559 7.159,-8.612 1.598,-9.219c-0.962,-0.005 -0.303,-2.557 1.731,-6.698c2.104,-4.284 2.397,-4.942 3.485,-7.814c0.711,-1.877 1.052,-3.223 1.139,-4.042l0.007,-0Zm-1.672,1.152c0.286,-0.01 0.576,0.032 0.868,0.086c0.504,0.421 -0.753,3.516 -3.019,8.199c-1.87,3.866 -2.724,5.794 -3.105,7.199c-0.17,0.629 -0.192,1.275 -0.466,1.861c-1.097,0.559 -1.95,1.318 -2.373,2.009c-0,-0 0.123,-1.031 0.204,-1.567c0.279,-1.831 1.008,-3.807 2.69,-7.243c1.333,-2.735 2.636,-5.666 3.65,-8.656c0.228,-0.698 0.334,-1.406 0.713,-1.665c0.272,-0.152 0.553,-0.214 0.838,-0.223Zm-2.745,0.119c0.335,-0.024 0.656,0.004 0.887,0.147c0.347,0.239 -1.299,4.476 -4.147,10.36c-3.553,7.341 -3.742,12.485 -0.545,13.743c2.52,0.992 5.058,-1.776 3.503,-3.794c-0.748,-0.971 -2.359,-1.053 -2.918,-0.047c-0.305,0.548 0.118,1.181 0.658,0.411c0.786,-1.12 2.359,0.173 1.979,1.499c-0.261,0.909 -1.538,1.642 -2.329,1.484c-3.491,-0.694 -2.834,-5.602 0.787,-5.872c5.581,0.482 4.554,8.181 -0.834,8.319c-2.256,-0.003 -4.363,-1.86 -4.15,-3.581c0.298,-1.575 0.343,-2.847 -0.191,-4.088c-0.172,-0.399 -0.381,-0.796 -0.369,-1.298c0.031,-1.395 1.183,-3.561 3.755,-8.911c0.921,-1.918 2.051,-5.242 2.61,-7.341c0.197,-0.613 0.101,-0.785 0.333,-0.87c0.287,-0.063 0.636,-0.138 0.971,-0.161Zm-2.873,0.205c0.26,-0.014 0.521,0.003 0.786,0.015c0.528,0.023 -0.687,3.884 -2.217,7.173c-1.162,2.518 -2.747,5.754 -3.927,8.745c-0.378,0.635 -0.63,0.684 -1.403,0.272c-0.851,-0.454 -0.599,-1.176 1.411,-5.161c1.516,-3.027 2.972,-6.451 3.994,-9.899c0.092,-0.414 0.232,-0.773 0.577,-0.971c0.262,-0.114 0.52,-0.159 0.779,-0.174l0,0Zm-2.883,0.324c0.291,-0.022 0.582,0.012 0.841,0.126c0.282,0.371 -1.562,5.575 -4.411,11.443c-0.609,1.246 -1.02,2.387 -1.632,3.66c-0.294,0.295 -1.428,0.444 -1.995,0.558c-0.585,-0.078 -0.031,-1.172 1.636,-4.532c1.359,-2.739 1.745,-3.514 2.459,-5.18c0.52,-1.22 1.276,-3.316 1.986,-5.273c0.057,-0.158 0.112,-0.51 0.265,-0.591c0.264,-0.111 0.559,-0.189 0.851,-0.211Zm-2.777,0.275c0.452,-0.037 0.859,-0.001 0.836,0.177c-0.874,3.675 -2.641,7.429 -4.142,10.415c-0.914,1.809 -1.752,3.537 -1.863,3.841c-0.111,0.305 -0.414,1.111 -0.674,1.793c-1.64,3.506 0.124,6.27 2.295,6.463c3.388,0.28 3.709,-4.453 1.319,-4.908c-0.902,-0.151 -1.893,0.341 -1.898,1.374c-0.064,0.54 0.602,1.168 0.593,0.392c-0.036,-1.41 1.941,-1.346 2.185,-0.148c0.474,2.334 -2.187,3.476 -3.773,1.643c-0.653,-0.755 -0.647,-1.616 -0.525,-2.388c0.329,-2.089 2.745,-3.6 4.983,-2.024c3.063,2.158 2.006,6.929 -1.952,7.705c-1.353,0.351 -3.059,-0.098 -4.126,-1.192c-0.68,-0.696 -1.127,-1.723 -1.298,-2.997c-0.095,-0.71 -0.133,-1.545 -0.023,-2.327c0.32,-2.449 2.113,-6.026 3.686,-9.055c1.213,-2.514 2.167,-5.833 3.272,-8.504c0.156,-0.114 0.653,-0.224 1.105,-0.26l-0,-0Zm-2.541,0.454c0.129,0 0.258,0.018 0.388,0.057c0.18,0.055 -0.744,2.957 -2.064,6.093c-1.453,3.18 -3.338,6.819 -4.407,9.949c-0.337,0.767 -0.582,0.746 -1.539,-0.143c-0.505,-0.469 -0.221,-1.169 1.551,-4.773c2.725,-5.545 3.736,-7.91 4.145,-9.23c0.192,-0.621 0.347,-1.383 0.756,-1.624c0.393,-0.185 0.781,-0.333 1.17,-0.329l-0,-0Zm-3.065,0.585c0.293,-0.015 0.57,0.022 0.73,0.167c-0.289,0.934 -1.234,3.701 -2.849,6.979c-1.013,2.069 -2.002,4.361 -3.003,6.497c-0.559,1.317 -0.575,1.315 -1.528,1.513c-1.605,0.334 -1.605,0.317 -0.186,-2.551c1.831,-3.625 3.822,-7.202 5.076,-11.117c0.158,-0.507 0.379,-0.983 0.636,-1.243c0.103,-0.055 0.635,-0.222 1.124,-0.245Zm-2.781,0.517c0.287,-0.011 0.545,0.041 0.666,0.198c0.072,0.651 -1.693,4.816 -2.778,6.745c-0.331,0.592 -0.66,1.359 -1.033,2.043c-1.382,2.191 -3.042,6.402 -3.471,8.15c-0.679,2.777 2.504,4.877 4.156,2.858c1.048,-1.222 -0.043,-3.42 -1.553,-2.806c-0.527,0.214 -0.312,0.448 0.408,0.508c1.189,0.1 1.279,1.928 0.019,2.329c-1.401,0.428 -2.433,-0.783 -2.428,-2.023c0.01,-2.543 2.801,-3.478 4.548,-2.089c1.743,1.447 2.021,4.884 -0.618,6.217c-2.573,1.299 -5.742,-0.461 -6.379,-3.54c-0.485,-2.351 0.04,-4.505 2.311,-8.129c1.304,-2.085 3.33,-5.686 4.367,-8.846c0.203,-0.536 0.383,-0.979 0.569,-1.204c0.173,-0.199 0.737,-0.394 1.216,-0.411l-0,-0Zm68.984,7.398l-3.456,4.38c0.997,1.436 3.366,4.259 3.366,4.259l3.277,-4.216l-3.187,-4.423Zm0.031,2.449l1.43,1.849l-1.636,1.926l-1.535,-1.798l1.741,-1.977Zm-0.146,0.966l-0.594,0.917l0.594,0.917l0.596,-0.917l-0.596,-0.917Zm0.276,8.557c-0,-0 -4.18,4.563 -3.22,7.949c0.858,3.016 5.9,3.547 6.519,-0.665c0.322,-2.198 -1.674,-5.131 -3.299,-7.284Zm-0,0.901c-0,-0 1.199,1.734 2.045,3.269c0.946,1.461 1.252,5.434 -2.112,5.473c-1.831,0.021 -3.616,-2.262 -2.167,-5.189c0.394,-0.891 2.234,-3.553 2.234,-3.553Zm-68.891,0.714c0.182,0.026 0.41,0.528 0.538,0.846c0.199,0.494 -0.371,1.917 -0.972,2.625c-0.114,0.119 -0.881,0.185 -2.021,0.766c-0,-0.533 0.324,-1.701 0.538,-2.218c0.644,-0.633 1.143,-1.476 1.842,-2c0.024,-0.018 0.049,-0.023 0.076,-0.019l-0.001,-0Zm-8.401,0.276c0.513,0.58 1.018,1.082 0.997,1.44c-0.03,0.525 -0.649,1.173 -1.118,1.634c-0.588,0.579 -1.761,0.236 -1.757,-0.515c0,-0.278 1.676,-2.56 1.878,-2.559Zm17.686,0.753c0.186,0.42 0.704,1.232 1.086,1.482c-0.727,3.903 -3.441,8.766 -3.35,8.587c-0,-0 -1.65,0.293 -2.35,-0.062c1.812,-2.507 3.027,-5.698 3.85,-8.31c0.354,-1.127 0.515,-1.694 0.764,-1.697l0,-0Zm-1.527,0.548c0.277,-0.016 0.384,0.207 0.151,0.811c-1.065,4.315 -3.46,8.851 -5.342,9.677c-2.472,1.084 -4.929,0.184 -5.985,-1.67c-1.142,-2.006 -0.939,-5.174 2.868,-5.867c2.24,-0.229 4.534,1.531 3.339,4.361c-1.33,2.099 -4.905,0.928 -3.857,-1.779c0.792,-0.993 2.45,-0.132 1.909,0.99c-0.275,0.569 -0.009,0.919 0.397,0.525c1.304,-1.265 -0.84,-3.437 -2.287,-2.35c-2.359,1.772 0.555,5.667 3.301,3.996c0.837,-0.51 2.349,-3.366 2.917,-5.448c0.245,-0.896 0.466,-1.747 1.045,-2.291c0.551,-0.518 1.187,-0.935 1.544,-0.955Zm-6.229,0.176c0.179,0.017 0.353,0.127 0.484,0.173c0.276,0.136 0.6,0.381 0.562,0.698c-0.043,0.368 -0.254,1.166 -0.678,1.554c-0.256,-0.088 -0.961,-0.368 -1.442,-0.497c-0.302,-0.081 0.1,-0.729 0.284,-1.087c0.258,-0.5 0.415,-0.749 0.611,-0.822c0.058,-0.021 0.12,-0.025 0.179,-0.019l0,0Zm-7.876,0.15c0.47,-0.043 0.959,0.266 1.359,0.431c0.072,0.535 -0.612,1.681 -1.726,3.036c-0.913,1.11 -0.908,1.114 -1.515,-0.108c-0.396,-0.795 -0.406,-0.774 0.721,-2.172c0.605,-0.751 0.882,-1.162 1.161,-1.187Zm3.603,0.383c0.017,0.287 -0.129,0.919 -0.253,1.286c-1.263,3.76 -4.212,7.485 -6.646,8.4c-3.177,1.035 -6.087,-0.633 -6.161,-4.477c0.081,-4.53 5.491,-5.786 7.126,-1.655c0.738,1.865 -1.273,4.669 -3.012,4.201c-1.754,-0.472 -2.487,-3.2 -1.04,-3.875c0.948,-0.442 1.929,0.299 1.723,1.301c-0.072,0.347 -0.053,0.396 0.151,0.358c0.902,-0.168 0.426,-1.973 -0.638,-2.423c-2.012,-0.851 -3.533,1.85 -2.175,3.863c1.625,2.411 4.181,1.948 5.653,-1.025c0.251,-0.507 0.728,-1.232 1.057,-1.611c0.891,-1.028 1.176,-1.433 1.964,-2.792c0.434,-0.749 0.666,-1.223 0.887,-1.468c0.353,-0.024 0.595,0.073 1.364,-0.083Zm7.126,0.199c0.382,0.003 0.675,0.251 0.667,0.777c-0.008,0.441 -0.639,2.297 -0.935,2.741c-0.113,0.17 -0.378,0.768 -0.417,0.638c-0.372,-1.236 -1.036,-1.619 -1.13,-1.943c-0.111,-0.38 0.225,-0.745 0.375,-1.087c0.317,-0.728 0.95,-1.13 1.44,-1.126Zm6.57,0.414c0.525,0.157 1.084,0.462 1.607,0.72c0.155,0 -2.479,7.583 -2.741,7.604l-2.124,-0.094c1.448,-2.42 3.286,-8.179 3.258,-8.23Zm28.638,11.01l2.7,1.6l-17.798,28.189l-2.588,-1.973l17.686,-27.816Zm-44.407,0.583c16.624,0.062 39.521,0.031 39.521,0.031l-0.967,1.828c-0,0 -25.007,-0.243 -38.554,-0.217l0,-1.642Zm-22.442,1.153l-0.035,9.265c-1.721,-1.5 -6.927,-4.799 -6.953,-4.722c0,0 4.487,-2.988 6.988,-4.543l0,-0Zm71.181,0.921l1.672,1.052l-18.702,29.667l-1.04,-2.034l18.07,-28.685Zm-48.735,0.411l2.603,0l0,2.932l-2.603,0l0,-2.932Zm5.963,0l3.159,0l-0,2.932l-3.159,0l-0,-2.932Zm6.903,0.031l3.249,0l0,2.932l-3.249,0l0,-2.932Zm6.776,0.012l3.285,0l-0,2.932l-3.285,-0l0,-2.932Zm6.826,0.019l3.242,0l-0,2.932l-3.242,-0l0,-2.932Zm6.831,0.062l3.315,-0l-0,2.066l-0.502,0.866l-2.813,-0l-0,-2.932Zm-31.974,0.749c-0.01,0 -0.019,0.001 -0.029,0.001c-0.305,0.015 -0.547,0.271 -0.547,0.575c0.001,0.316 0.26,0.575 0.576,0.575c0.01,0 0.02,-0 0.03,-0.001c0.304,-0.015 0.546,-0.269 0.547,-0.574c-0,-0.01 -0.001,-0.02 -0.001,-0.03c-0.016,-0.304 -0.271,-0.546 -0.576,-0.546Zm6.24,0c-0.01,0 -0.019,0.001 -0.029,0.001c-0.305,0.015 -0.547,0.271 -0.546,0.575c-0,0.316 0.259,0.575 0.575,0.575c0.316,-0 0.575,-0.259 0.575,-0.575c0,-0.01 0,-0.02 -0,-0.03c-0.016,-0.304 -0.27,-0.546 -0.575,-0.546Zm6.908,0c-0.009,0 -0.019,0.001 -0.029,0.001c-0.304,0.015 -0.547,0.271 -0.546,0.575c0,0.316 0.26,0.575 0.575,0.575c0.316,-0 0.575,-0.259 0.576,-0.575c-0,-0.01 -0.001,-0.02 -0.001,-0.03c-0.016,-0.304 -0.27,-0.546 -0.575,-0.546Zm6.881,0c-0.01,0 -0.02,0.001 -0.029,0.001c-0.305,0.015 -0.547,0.271 -0.547,0.575c0,0.316 0.26,0.575 0.576,0.575c0.315,-0 0.575,-0.259 0.575,-0.575c-0,-0.01 -0,-0.02 -0.001,-0.03c-0.015,-0.304 -0.27,-0.546 -0.574,-0.546Zm6.759,0c-0.009,0 -0.019,0.001 -0.028,0.001c-0.305,0.015 -0.548,0.271 -0.547,0.575c0,0.316 0.26,0.575 0.575,0.575c0.01,0 0.02,-0 0.031,-0.001c0.304,-0.015 0.546,-0.269 0.546,-0.574c0,-0.01 -0,-0.02 -0.001,-0.03c-0.015,-0.304 -0.27,-0.546 -0.576,-0.546Zm6.872,0c-0.01,0 -0.019,0.001 -0.029,0.001c-0.305,0.015 -0.547,0.271 -0.547,0.575c0.001,0.316 0.26,0.575 0.576,0.575c0.315,-0 0.575,-0.259 0.575,-0.575c0,-0.01 -0,-0.02 -0.001,-0.03c-0.015,-0.304 -0.27,-0.546 -0.574,-0.546Zm16.185,0.206l31.721,20.453l-0.02,2.823l-33.02,-21.267l1.319,-2.009Zm-2.08,2.392l0.273,0.194l-1.344,2.052l-0.277,-0.156l1.348,-2.09Zm-49,0.303l35.604,0l-1.071,1.799l-34.533,-0.052l0,-1.747Zm-29.229,0.917c0.239,-0.015 0.706,0.196 1.433,0.603c1.751,0.979 2.853,3.044 2.096,3.79c-0.672,0.663 -2.249,-0.759 -3.226,-2.79c-0.519,-1.076 -0.654,-1.58 -0.303,-1.603Zm62.998,1.771l-11.486,18.297c-2.596,-3.546 -5.507,-6.61 -11.864,-4.535c-3.314,-2.554 -6.817,-2.947 -10.547,-0.78l0.043,-12.92l33.854,-0.062Zm-59.13,0.008l0.896,0.773c-0.264,0.503 -0.385,1.233 -0.556,1.883c-0.014,-0.891 -0.093,-1.779 -0.34,-2.656Zm72.819,0.191l35.389,23.205l-0,2.152l-36.625,-23.518l1.236,-1.839Zm-77.492,0.548c0.433,0.018 0.85,0.235 1.221,0.57c0.62,0.56 0.316,1.815 -0.436,2.317c-1.495,1 -3.335,-0.975 -2.104,-2.267c0.437,-0.459 0.886,-0.639 1.319,-0.62Zm5.838,0.255l1.932,1.542c-3.354,19.066 6.229,38.314 26.87,44.082l0.234,2.442c0.039,0.117 -8.769,-2.607 -12.616,-5.475c-5.26,-3.547 -9.705,-8.54 -12.769,-14.349c-2.091,-3.745 -3.237,-7.869 -3.977,-11.202c-0.876,-5.719 -0.852,-11.379 0.326,-17.04Zm-2.194,2.587c0.741,0.03 0.822,0.562 0.227,1.584c-0.765,1.314 -1.913,2.229 -3.773,3.01c-1.024,0.429 -1.291,0.233 -1.172,-0.856c0.178,-1.637 1.321,-2.836 3.3,-3.468c0.474,-0.131 0.956,-0.273 1.418,-0.27Zm5.689,0.206c0.302,0.255 0.398,0.335 0.768,0.648c-0.634,0.216 -1.092,0.812 -1.092,1.518c0,0.888 0.723,1.607 1.614,1.607c0.799,0 1.456,-0.576 1.585,-1.335c0.288,0.246 0.561,0.477 0.772,0.659c-0.372,0.936 -1.286,1.596 -2.357,1.596c-1.4,0 -2.536,-1.132 -2.536,-2.527c-0,-0.925 0.501,-1.727 1.246,-2.166Zm1.29,1.265c0.088,-0 0.173,0.015 0.253,0.038c0.203,0.172 0.365,0.311 0.561,0.478c0.056,0.117 0.09,0.246 0.09,0.385c-0,0.497 -0.405,0.901 -0.904,0.9c-0.499,0 -0.905,-0.403 -0.905,-0.9c0,-0.498 0.406,-0.901 0.905,-0.901l0,-0Zm-6.09,0.582c-0.209,2.459 -0.144,5.03 -0.066,7.603c-0.477,-2.039 -1.539,-3.565 -3.308,-4.608c1.222,-0.842 2.5,-1.866 3.374,-2.995l0,-0Zm9.301,1.931l1.717,1.478c-1.477,20.183 16.27,27.843 16.746,27.505l0.749,2.284c-12.255,-4.157 -20.726,-16.781 -19.212,-31.267Zm70.569,0.82c0.154,0.022 0.253,0.307 0.263,1.03c0,6.541 2.034,33.451 28.02,46.536l-0.089,2.542c-13.907,-5.378 -29.755,-25.219 -29.554,-44.23c-3.57,5.455 -5.576,9.096 -8.641,14.011l-2.44,-1.158c4.013,-5.958 7.827,-12.329 11.851,-18.182c0.229,-0.33 0.436,-0.572 0.59,-0.549Zm-84.787,0.757c0.447,-0.029 1.087,0.187 1.893,0.725c1.272,0.85 2.699,3.476 2.206,4.062c-0.444,0.527 -2.329,-0.1 -3.265,-1.087c-1.855,-1.957 -1.977,-3.628 -0.834,-3.7Zm10.843,0.263c1.399,-0 2.536,1.129 2.536,2.524c0,1.395 -1.137,2.528 -2.536,2.528c-1.4,-0 -2.535,-1.133 -2.536,-2.528c0,-1.395 1.136,-2.524 2.536,-2.524Zm5.678,0.241l1.655,1.934c0.324,16.939 13.739,22.163 13.614,22.204l0.404,1.821c-0.748,0.104 -16.596,-7.087 -15.673,-25.959Zm-5.678,0.676c-0.891,-0 -1.613,0.719 -1.613,1.607c-0,0.888 0.722,1.608 1.613,1.608c0.89,-0 1.614,-0.72 1.614,-1.608c-0,-0.888 -0.724,-1.607 -1.614,-1.607Zm-0,0.706c0.498,0 0.904,0.404 0.904,0.901c0,0.498 -0.406,0.901 -0.904,0.901c-0.5,0 -0.904,-0.403 -0.904,-0.901c0,-0.497 0.404,-0.901 0.904,-0.901Zm8.572,1.535c0.204,0 1.161,1.385 1.161,1.385c-0,0 -1.051,0.367 -1.504,-0.089c-0.45,-0.454 -0.207,-1.299 0.343,-1.296Zm73.457,0.624l2.486,1.693c1.16,11.428 7.729,21.853 17.634,29.085l-0.061,2.831c-12.065,-8.125 -18.764,-19.164 -20.059,-33.609l0,0Zm-93.017,0.194c1.521,0.002 2.166,2.354 0.539,3.022c-1.023,0.419 -2.137,-0.186 -2.245,-1.223c-0.077,-0.73 0.473,-1.495 1.208,-1.728c0.177,-0.056 0.336,-0.071 0.498,-0.071l0,0Zm20.624,1.527c0.398,0.002 0.832,0.229 1.243,0.691c1.09,1.225 1.08,1.582 -0.071,2.047c-1.617,0.654 -2.962,-0.256 -2.423,-1.64c0.283,-0.727 0.738,-1.099 1.251,-1.098l-0,0Zm-16.564,0.057c0.131,-0.003 0.254,0.015 0.366,0.059c1.193,0.464 -1.392,5.184 -3.101,5.662c-1.086,0.304 -1.313,-0.119 -0.958,-1.775c0.394,-1.841 2.423,-3.92 3.693,-3.946l0,0Zm7.606,0.109c1.4,0 2.537,1.13 2.537,2.525c-0,1.395 -1.137,2.527 -2.537,2.527c-1.4,0 -2.537,-1.132 -2.537,-2.527c0,-1.395 1.137,-2.525 2.537,-2.525Zm-0,0.917c-0.891,0 -1.613,0.72 -1.613,1.608c0.001,0.888 0.722,1.607 1.613,1.607c0.891,0 1.612,-0.719 1.612,-1.607c0,-0.888 -0.721,-1.608 -1.612,-1.608Zm-6.339,0.135c0.225,2.338 0.606,4.501 1.648,7.379c-0.977,-1.557 -2.37,-2.33 -3.705,-3.211c0.936,-1.389 2.019,-2.779 2.057,-4.168Zm6.339,0.572c0.499,-0 0.905,0.403 0.905,0.901c-0,0.497 -0.406,0.901 -0.905,0.901c-0.499,-0 -0.904,-0.404 -0.904,-0.901c0,-0.498 0.405,-0.901 0.904,-0.901Zm14.353,0.275c2.645,-0.057 4.516,2.114 4.4,4.194c0.077,2.415 0.164,3.962 -0.035,6.963l-2.147,-3.918c-0.03,-1.111 0.159,-1.952 0.074,-3.057c-0.244,-2.971 -3.165,-2.558 -3.304,-2.263l-0.924,-1.496c0.678,-0.279 1.326,-0.41 1.937,-0.423l-0.001,-0Zm9.317,0.3c2.479,-0.003 3.914,1.388 3.989,3.863c0.145,4.739 -0.108,15.559 -0.108,15.559l-5.361,0.005l-2.926,-7.23c-0,-0 -0.117,-0.696 -0.095,-1.201c0.187,-2.319 0.07,-4.899 0.149,-6.993c0.309,-2.22 2.14,-4.001 4.352,-4.003l0,-0Zm-12.405,0.749c0.345,-0.005 0.665,0.1 0.908,0.345c1.244,1.254 1.236,2.076 -0.024,2.641c-1.666,0.748 -2.533,0.606 -3.101,-0.505c-0.558,-1.09 0.986,-2.466 2.217,-2.481l-0,0Zm78.159,0.341l1.361,0.874c-0,0 -0.287,0.447 -0.442,0.712c-0.772,1.323 0.54,2.1 2.357,1.397c0.328,-0.127 0.608,-0.307 0.608,-0.307l1.123,0.761c-0,0 -0.809,0.435 -1.691,0.866c-2.268,1.106 -3.982,0.629 -4.423,-1.313c-0.302,-1.33 0.124,-2.031 1.107,-2.99Zm-57.509,0.16c2.075,-0.07 4.095,1.546 4.574,3.717c0.199,1.016 -0.058,14.46 -0.058,14.46l-8.233,-0.005l0.144,-14.103c-0.054,-0.892 0,-1.774 0.478,-2.407c0.905,-1.123 2.008,-1.625 3.095,-1.662l-0,0Zm-8.549,0.617c-1.663,0.077 -2.607,2.761 -0.896,4.027c0.714,0.529 0.73,0.629 0.347,2.416c-0.436,2.039 0.015,4.831 1.036,6.403c0.783,1.301 0.623,0.635 0.222,-0.525c-0.515,-2.176 -0.263,-3.773 0.998,-6.301c1.126,-2.13 2.217,-5.405 -1.364,-5.996c-0.117,-0.019 -0.232,-0.029 -0.343,-0.024l-0,0Zm68.325,0.613l0.744,0.501c-0.448,0.61 -1.002,0.581 -1.343,0.362c-0.301,-0.366 0.599,-0.863 0.599,-0.863Zm-59.308,1.042c-1.787,-0.06 -2.965,3.243 -0.679,4.041c0.52,0.335 0.606,0.772 0.284,1.39c-0.433,0.831 -0.866,2.804 -0.799,3.627c0.097,1.183 0.401,2.727 0.64,3.263c0.6,1.476 0.479,0.887 0.323,-0.819c-0.061,-1.906 0.326,-3.282 1.439,-5.104c1.321,-2.184 3.141,-5.736 -1.033,-6.383c-0.059,-0.009 -0.118,-0.013 -0.175,-0.015l-0,0Zm-30.75,0.01c1.4,0 2.537,1.13 2.537,2.525c-0,1.395 -1.137,2.528 -2.537,2.528c-1.4,-0 -2.537,-1.133 -2.537,-2.528c0,-1.395 1.137,-2.525 2.537,-2.525Zm11.74,0.275c0.452,-0.022 0.781,0.268 1.179,0.86c1.095,1.627 0.971,1.961 -1.14,3.118c-2.237,1.226 -3.733,-1.858 -1.594,-3.286c0.647,-0.431 1.104,-0.67 1.555,-0.692Zm-23.199,0.103c2.359,0.024 6.044,3.381 4.246,3.868c-0.257,0.07 -0.579,0.117 -0.716,0.109c-2.964,-0.181 -6.36,-4.006 -3.53,-3.977Zm11.459,0.539c-0.891,0 -1.614,0.72 -1.614,1.608c-0,0.888 0.723,1.608 1.614,1.608c0.891,-0 1.613,-0.72 1.613,-1.608c-0,-0.888 -0.722,-1.608 -1.613,-1.608Zm93.433,0.474l1.176,0.796c0,0 -0.719,0.33 -1.565,0.78c-2.302,1.225 -2.97,2.124 -2.175,2.925c0.284,0.286 0.62,0.41 1.224,0.182c1.595,-0.617 3.082,-1.704 4.57,-2.563l0.885,0.606c-0.021,-0.041 -3.518,2.479 -5.429,3.538c-2.998,1.534 -4.711,-1.603 -3.042,-3.697c1.286,-1.276 2.666,-1.694 4.356,-2.567Zm-93.433,0.233c0.499,0 0.904,0.404 0.904,0.901c-0,0.497 -0.405,0.901 -0.904,0.901c-0.499,-0 -0.905,-0.404 -0.905,-0.901c0,-0.497 0.406,-0.901 0.905,-0.901Zm95.273,0.842l0.641,0.432c0,0 -0.069,0.032 -2.033,1.157c-2.138,1.224 -2.232,1.245 -2.35,1.052c-0.105,-0.058 0.041,-0.558 0.697,-0.998c1.15,-0.771 3.186,-1.708 3.045,-1.643Zm-55.612,0.063c1.456,-0.028 2.94,0.661 3.787,2.136c0.432,1.12 0.469,2.16 0.464,3.336l-0.036,7.894l-8.291,-0c-0,-0 -0.385,-5.381 -0,-9.859c0.376,-2.25 2.203,-3.471 4.076,-3.507l-0,0Zm-25.752,1.169c0.527,-0.039 0.914,0.477 1.414,1.593c0.496,1.105 0.124,1.729 -1.433,2.399c-0.196,0.085 -0.421,0.147 -0.499,0.14c-1.574,-0.15 -2.218,-1.959 -1.087,-3.057c0.701,-0.68 1.196,-1.045 1.605,-1.075Zm84.27,0.808l0.721,0.447c-0,-0 -0.37,0.333 -3.048,2.279c-2.162,1.572 -2.473,1.998 -2.021,2.88c0.364,0.712 1.155,0.62 2.248,-0.217c1.516,-1.161 3.939,-3.126 3.939,-3.126l0,1.345c-1.57,1.257 -3.426,3.3 -4.934,4.116c-2.909,1.428 -4.996,-2.394 -2.336,-4.326c2.292,-1.667 5.431,-3.398 5.431,-3.398Zm-58.204,0.003c-2.167,-0.018 -2.973,3.188 -0.643,3.868c0.671,0.358 0.615,0.543 0.168,2.139c-0.271,0.967 -0.358,2.16 -0.21,2.917c0.174,0.966 0.389,0.943 0.3,-0.094c-0,-0.566 0.588,-2.079 1.173,-3.028c2.161,-3.003 1.594,-5.773 -0.788,-5.802Zm-50.496,0.04c1.43,0.009 2.231,1.993 0.991,2.849c-0.879,0.606 -2.717,-0.133 -2.712,-1.09c0.007,-0.817 0.649,-1.595 1.43,-1.733c0.101,-0.018 0.196,-0.027 0.291,-0.026l0,-0Zm4.115,0.166c0.45,-0.002 0.709,0.656 0.706,1.957c-0.008,1.866 -0.67,3.492 -1.816,4.443c-1.659,1.375 -2.03,-2.374 -0.48,-4.854c0.646,-1.033 1.192,-1.546 1.59,-1.546Zm8.938,0.579c1.4,-0 2.537,1.129 2.537,2.524c0,1.396 -1.137,2.528 -2.537,2.528c-1.399,-0 -2.536,-1.132 -2.536,-2.528c-0,-1.395 1.137,-2.524 2.536,-2.524Zm96.783,0.081c0.23,0.154 0.469,0.332 0.471,0.351c-1.759,1.342 -2.483,2.051 -4.253,3.358c-0.643,0.429 -1.188,0.318 -0.877,-0.178c1.528,-1.238 2.961,-2.441 4.659,-3.531Zm-96.783,0.836c-0.89,-0 -1.612,0.72 -1.612,1.607c-0,0.888 0.722,1.608 1.612,1.608c0.891,0 1.613,-0.72 1.613,-1.608c0,-0.887 -0.722,-1.607 -1.613,-1.607Zm-30.333,0.045c17.155,8.644 27.85,24.817 30.489,43.24l8.334,-13.176l2.252,0.848l-12.144,19.726l-0.527,-0.163c-0.05,-19.272 -9.687,-37.504 -28.442,-47.508l0.038,-2.967Zm30.333,0.662c0.499,-0 0.904,0.403 0.904,0.9c-0,0.498 -0.405,0.901 -0.904,0.901c-0.499,0 -0.903,-0.403 -0.903,-0.901c-0,-0.497 0.404,-0.9 0.903,-0.9Zm-7.079,0.104c0.75,1.653 1.663,3.388 3.074,5.371c-1.431,-1.339 -2.995,-1.282 -4.544,-1.484l1.47,-3.887Zm20.397,0.357c0.266,-0.013 0.532,0.1 0.74,0.385c0.702,0.961 0.831,1.852 0.343,2.334c-0.668,0.659 -1.732,0.399 -2.213,-0.54c-0.5,-0.976 0.331,-2.14 1.13,-2.179Zm84.168,1.42l0,1.494c-0.968,1.073 -2.344,1.896 -2.981,3.221c-0.528,1.098 0.819,1.682 1.972,0.816c0.397,-0.299 1.009,-0.752 1.009,-0.752l0,1.839c-0.973,0.824 -1.981,1.634 -3.308,1.367c-0.773,-0.235 -1.452,-0.841 -1.593,-1.615c-0.554,-2.319 1.699,-3.53 3.447,-5.082c0.564,-0.5 1.454,-1.288 1.454,-1.288Zm-93.913,1.221c0.043,-0.002 0.086,-0 0.129,-0c1.4,-0 2.536,1.129 2.536,2.524c-0,1.396 -1.136,2.528 -2.536,2.528c-1.399,0 -2.536,-1.132 -2.536,-2.528c-0,-1.351 1.068,-2.457 2.407,-2.524Zm45.774,0.511c0.807,0.028 2.178,1.292 2.4,1.527c0.8,0.846 1.405,3.303 0.934,3.768c-1.042,1.072 -4.071,-2.496 -3.89,-4.828c0.08,-0.349 0.287,-0.476 0.556,-0.467Zm5.159,0.056c1.382,-0.005 2.113,1.85 1.001,2.901c-0.438,0.413 -1.425,0.705 -1.984,0.317c-1.541,-1.07 -0.405,-3.148 0.983,-3.218Zm-39.828,0.132c0.579,0.003 0.688,0.522 0.557,0.828c-0.124,0.291 -0.579,0.313 -0.94,0.166c-0.613,-0.251 -0.325,-0.998 0.383,-0.994Zm-10.976,0.218c-0.89,-0 -1.614,0.72 -1.614,1.607c0,0.888 0.724,1.608 1.614,1.608c0.891,0 1.613,-0.72 1.613,-1.608c0,-0.887 -0.722,-1.607 -1.613,-1.607Zm-12.075,0.707c3.059,0.003 6.286,2.404 3.479,2.88c-2.083,0.353 -3.434,-0.056 -5.057,-1.533c-0.824,-0.75 -0.531,-1.149 0.97,-1.317c0.201,-0.022 0.404,-0.031 0.608,-0.03l-0,-0Zm12.075,-0c0.5,-0 0.904,0.403 0.904,0.9c-0,0.498 -0.404,0.901 -0.904,0.901c-0.499,0 -0.904,-0.403 -0.904,-0.901c-0,-0.497 0.405,-0.9 0.904,-0.9Zm4.235,2.286c0.043,-0.002 0.089,0 0.133,0c1.4,0 2.536,1.13 2.536,2.525c0,1.395 -1.136,2.527 -2.536,2.527c-1.4,0 -2.537,-1.132 -2.537,-2.527c-0,-1.352 1.065,-2.457 2.404,-2.525Zm49.846,0.128c0.724,-0.012 1.359,0.124 1.726,0.459c0.449,0.409 -0.227,1.194 -1.603,1.863c-1.607,0.781 -4.409,0.673 -4.405,-0.171c0.008,-1.121 2.432,-2.12 4.282,-2.151Zm-61.064,0.664c1.406,0.008 1.787,4.354 0.565,6.435c-0.633,1.081 -1.486,0.358 -2.095,-1.775c-0.5,-1.749 0.458,-4.666 1.53,-4.66Zm11.351,0.125c-0.891,0 -1.613,0.72 -1.613,1.608c-0,0.888 0.722,1.608 1.613,1.608c0.89,-0 1.612,-0.72 1.612,-1.608c0,-0.888 -0.722,-1.608 -1.612,-1.608Zm52.453,0.304c0.223,-0.019 0.375,0.041 0.575,0.139c1.535,0.751 2.651,4.257 1.851,5.82c-0.842,1.647 -2.736,-1.522 -2.719,-4.551c0.007,-0.99 0.069,-1.389 0.293,-1.408Zm-67.691,0.205c1.388,-0.01 2.396,1.945 1.09,2.927c-0.572,0.43 -1.451,0.498 -1.991,0.156c-1.064,-0.674 -1.006,-2.316 0.102,-2.889c0.266,-0.163 0.538,-0.192 0.799,-0.194Zm15.238,0.198c0.499,0 0.903,0.404 0.903,0.901c0,0.497 -0.404,0.901 -0.903,0.901c-0.499,-0 -0.904,-0.404 -0.904,-0.901c0,-0.497 0.405,-0.901 0.904,-0.901Zm-9.476,0.303c0.759,1.126 3.837,4.1 4.262,4.357c-1.359,-0.438 -2.758,-0.253 -4.156,-0.066c0.157,-1.03 0.323,-2.719 -0.106,-4.291l-0,-0Zm49.448,0.255c20.857,4.866 33.589,26.924 28.556,47.617c-0,-0 -1.756,-0.978 -2.034,-1.445c0.738,-3.581 1.191,-9.251 0.268,-14.954c-1.566,-9.673 -9.433,-23.867 -26.669,-28.735c-0.191,-0.626 -0.121,-2.483 -0.121,-2.483Zm11.239,0.152c0.236,1.415 0.462,2.841 0.812,4.115c-1.469,-1.052 -3.133,-1.956 -4.837,-2.687c1.217,-0.255 2.328,-0.47 4.025,-1.428Zm6.013,0.454c0.83,-0.021 1.674,0.569 1.656,1.588c-0.009,0.449 -0.488,1.256 -0.861,1.445c-1.386,0.705 -2.808,-0.637 -2.197,-2.073c0.274,-0.645 0.835,-0.945 1.402,-0.96Zm-52.401,0.548c1.4,0 2.537,1.128 2.537,2.523c-0,1.395 -1.137,2.529 -2.537,2.529c-1.4,0 -2.537,-1.134 -2.537,-2.529c0,-1.395 1.137,-2.523 2.537,-2.523Zm-0,0.917c-0.891,0 -1.613,0.718 -1.613,1.606c0,0.888 0.722,1.608 1.613,1.608c0.891,-0 1.613,-0.72 1.613,-1.608c-0,-0.888 -0.722,-1.606 -1.613,-1.606Zm-43.16,0.24c10.364,6.096 19.661,19.06 20.352,33.721l-2.511,-1.634c-1.08,-9.875 -6.152,-20.62 -17.922,-29.428c0,0 0.03,-0.948 0.081,-2.659Zm57.39,-0l13.394,-0l0,2.877l4.019,-2.062l-0,6.365l-4.019,-2.424l0,2.778l-13.394,-0l-0,-2.92l-4.104,1.976l0.047,-6.333l4.057,2.272l-0,-2.529Zm-14.23,0.465c0.499,0 0.903,0.404 0.903,0.901c0,0.498 -0.404,0.903 -0.903,0.903c-0.499,-0 -0.904,-0.405 -0.904,-0.903c0,-0.497 0.405,-0.901 0.904,-0.901Zm5.268,0.506c0.016,-0.002 0.034,-0 0.051,-0l0.159,0.917c-0.027,-0.002 -0.052,-0.005 -0.078,-0.005c-0.891,0 -1.613,0.72 -1.613,1.608c0,0.888 0.722,1.608 1.613,1.608c0.215,-0 0.42,-0.04 0.607,-0.116l0.156,0.92c-0.241,0.076 -0.496,0.116 -0.763,0.116c-1.4,-0 -2.537,-1.133 -2.537,-2.528c-0,-1.351 1.065,-2.453 2.404,-2.52l0.001,-0Zm30.392,0.319c1.399,-0 2.535,1.128 2.535,2.523c-0,1.198 -0.84,2.199 -1.963,2.459l-0.152,-0.909c0.687,-0.185 1.192,-0.808 1.192,-1.55c0,-0.888 -0.722,-1.608 -1.612,-1.608c-0.037,0 -0.075,0.003 -0.111,0.005l-0.154,-0.908c0.09,-0.016 0.18,-0.008 0.265,-0.012l-0,-0Zm17.654,0.854c3.128,0.017 4.425,1.807 1.861,2.567c-1.188,0.352 -2.741,0.165 -4.277,-0.513c-1.281,-0.565 0.483,-2.065 2.416,-2.054Zm-65.384,0.17c0.757,-0.003 1.488,0.113 2.029,0.369c1.307,0.618 1.278,1.038 -0.121,1.841c-1.949,1.121 -6.541,-0.014 -5.154,-1.274c0.652,-0.592 1.985,-0.931 3.246,-0.936Zm17.47,0.276c0.069,0 0.138,0.009 0.203,0.024l0.281,1.638c-0.14,0.089 -0.306,0.14 -0.484,0.14c-0.499,0 -0.903,-0.403 -0.903,-0.901c-0,-0.497 0.404,-0.901 0.903,-0.901l-0,0Zm30.267,0.322c0.495,0.005 0.896,0.406 0.896,0.901c0,0.392 -0.253,0.723 -0.605,0.846l-0.291,-1.747Zm5.516,0.645c1.4,0 2.537,1.128 2.537,2.524c0,1.395 -1.137,2.529 -2.537,2.529c-1.399,-0 -2.535,-1.134 -2.535,-2.529c0,-1.396 1.136,-2.524 2.535,-2.524Zm-49.377,0.637c0.15,-0.009 0.321,0.061 0.503,0.21c1.52,1.239 2.277,3.86 1.679,5.809c-0.571,1.86 -2.94,-1.444 -2.925,-4.078c0.007,-1.215 0.292,-1.916 0.743,-1.941Zm65.672,0.222c0.209,0.001 0.433,0.161 0.652,0.524c0.944,1.567 0.901,4.802 -0.078,5.809c-0.556,0.572 -0.762,0.463 -1.341,-0.704c-0.988,-1.994 -0.243,-5.637 0.767,-5.629Zm-16.295,0.057c-0.89,-0 -1.612,0.72 -1.612,1.608c-0,0.887 0.722,1.607 1.612,1.607c0.891,0 1.614,-0.72 1.614,-1.607c0,-0.888 -0.723,-1.608 -1.614,-1.608Zm-47.363,0.432c1.915,1.205 3.876,2.303 5.915,3.218c-1.908,-0.45 -3.319,0.19 -4.773,1.049c0.279,-1.59 -0.265,-2.883 -1.142,-4.267Zm47.363,0.275c0.499,-0 0.905,0.403 0.905,0.901c0,0.497 -0.406,0.9 -0.905,0.9c-0.499,0 -0.903,-0.403 -0.903,-0.9c-0,-0.498 0.404,-0.901 0.903,-0.901Zm10.185,0.064c1.428,0.201 2.842,0.434 4.497,0.124c-0.306,1.398 -0.413,2.825 -0.278,4.282c-1.232,-1.589 -2.606,-3.08 -4.219,-4.406Zm-62.555,0.601c0.285,-0.002 0.594,0.073 0.966,0.193c1.174,0.574 1.209,1.993 0.067,2.735c-1.436,0.932 -3.307,-0.704 -2.412,-2.109c0.499,-0.595 0.904,-0.815 1.379,-0.819l-0,0Zm57.46,1.013c1.4,-0 2.537,1.129 2.537,2.525c-0,1.395 -1.137,2.527 -2.537,2.527c-1.4,0 -2.537,-1.132 -2.537,-2.527c0,-1.396 1.137,-2.525 2.537,-2.525Zm14.836,0.423c0.244,-0.004 0.499,0.05 0.752,0.182c0.902,0.471 1.092,1.665 0.375,2.362c-0.794,0.772 -1.878,0.638 -2.413,-0.295c-0.609,-1.066 0.227,-2.229 1.286,-2.249Zm-24.464,0.373c12.485,4.236 20.845,18.077 18.83,31.403l-1.558,-1.468c1.187,-7.552 -2.974,-21.98 -16.879,-27.904l-0.393,-2.031Zm9.628,0.121c-0.891,-0 -1.615,0.72 -1.614,1.608c-0,0.887 0.723,1.607 1.614,1.607c0.891,0 1.613,-0.72 1.613,-1.607c-0,-0.888 -0.722,-1.608 -1.613,-1.608Zm-0,0.705c0.499,0 0.903,0.405 0.903,0.903c0,0.497 -0.404,0.9 -0.903,0.9c-0.499,0 -0.905,-0.403 -0.905,-0.9c0,-0.498 0.406,-0.903 0.905,-0.903Zm-47.469,0.16c0.637,0.056 1.712,-0.058 1.964,0.54c0.284,0.757 -1.275,2.065 -3.25,2.322c-0.805,0.047 -2.527,0.251 -2.89,-0.327c-0.341,-0.72 1.984,-2.513 4.176,-2.535Zm-39.633,0.443c1.688,-0.074 3.59,2.176 1.882,4.012c-1.367,1.41 -4.166,3.331 -4.166,3.331l0,-1.234c-0.007,-0.002 2.659,-2.326 2.786,-3.204c0.282,-1.958 -1.758,-0.825 -2.88,0.081l0.18,-2.116c0.51,-0.557 1.411,-0.836 2.198,-0.87Zm43.113,0.527c1.251,0.048 4.152,4.506 3.413,5.419c-0.585,0.722 -3.105,-0.806 -3.827,-2.603c-0.379,-0.944 -0.542,-2.68 0.414,-2.816Zm19.294,0.541c0,0 0.129,10.372 -0.456,11.351c-2.345,4.23 -7.408,2.029 -7.84,-1.142c-0.311,-1.912 -0.125,-10.19 -0.125,-10.19l8.421,-0.019Zm0.737,0l8.092,0c-0,0 -0.036,14.599 -0.362,15.436c-0.266,0.682 -1.44,1.857 -2.178,2.178c-2.376,1.035 -4.915,-0.433 -5.544,-3.204c-0.454,-1.997 -0.008,-14.41 -0.008,-14.41Zm8.77,0l5.369,0c0,0 0.184,0.774 0.398,1.409c0.372,1.11 1.638,4.291 1.784,4.485c0.656,0.873 0.688,10.416 0.039,11.503c-2.368,3.539 -6.31,2.509 -7.75,-1.41c-0.361,-1.256 0.16,-15.987 0.16,-15.987l0,0Zm6.261,0.36c9.629,4.559 16.999,14.225 16.077,26.628l-1.769,-1.759c0.645,-8.56 -5.894,-19.261 -13.525,-22.441l-0.783,-2.428Zm13.259,0.293c1.4,-0 2.536,1.128 2.536,2.523c0,1.395 -1.136,2.529 -2.536,2.529c-1.4,-0 -2.537,-1.134 -2.537,-2.529c0,-1.395 1.137,-2.523 2.537,-2.523Zm9.499,0.255c0.942,0.014 2.093,0.339 2.953,1.045c1.029,0.845 1.173,1.514 0.376,1.759c-1.542,0.474 -3.394,0.016 -4.556,-1.125c-1.08,-1.061 -0.149,-1.699 1.227,-1.679Zm-9.499,0.66c-0.891,0 -1.613,0.72 -1.613,1.608c0,0.888 0.722,1.608 1.613,1.608c0.891,-0 1.614,-0.72 1.614,-1.608c-0,-0.888 -0.723,-1.608 -1.614,-1.608Zm-50.737,0.203c1.35,0.007 1.971,1.902 0.935,2.861c-0.424,0.393 -1.585,0.478 -2.089,0.152c-1.387,-0.898 -0.574,-3.022 1.154,-3.013Zm17.857,0.48c-0.447,1.282 -1.167,2.728 -1.762,3.717c-1.594,2.65 -1.387,4.427 0.296,5.324c2.472,1.318 4.268,-2.22 1.832,-3.608c-0.855,-0.486 -0.855,-0.493 -0.546,-1.806c0.386,-1.638 0.453,-3.592 0.18,-3.627Zm32.88,0.024c0.499,-0 0.905,0.403 0.905,0.901c-0,0.497 -0.406,0.901 -0.905,0.901c-0.499,-0 -0.904,-0.404 -0.904,-0.901c0,-0.498 0.405,-0.901 0.904,-0.901Zm-24.211,0.52c-0.113,-0.007 -0.026,0.653 -0.035,1.822c-0.014,1.888 -0.172,2.463 -1.383,4.994c-1.547,3.233 -1.34,5.442 0.576,6.159c1.489,0.556 2.937,-0.578 2.946,-2.31c0.008,-0.825 -0.365,-1.473 -0.931,-1.64c-0.512,-0.033 -1.08,-0.271 -1.04,-0.516c0.314,-1.931 1.992,-5.568 -0.133,-8.509l0,0Zm31.989,0.26c1.251,0.785 2.539,1.53 4.402,1.624c-0.794,1.897 -0.714,3.283 -0.846,4.795c-0.796,-2.037 -2.027,-4.29 -3.556,-6.419Zm-95.207,0.315c1.211,0.031 2.208,1.713 1.887,2.851c-0.281,0.993 -0.369,1.16 -4.22,3.724c-2.138,1.422 -2.362,1.484 -2.362,1.484l-1.145,-0.77c0,-0 0.969,-0.645 2.505,-1.674c2.955,-1.98 3.389,-2.45 3.085,-3.334c-0.33,-0.962 -1.435,-0.76 -3.183,0.581c-2.586,1.986 -2.856,2.117 -2.856,2.117l0,-1.185c1.974,-1.385 4.371,-3.843 6.289,-3.794Zm76.153,0.523c0.405,-0.035 0.588,0.241 0.487,0.498c-0.048,0.124 -0.218,0.204 -0.444,0.203c-0.464,-0.002 -0.448,-0.666 -0.043,-0.701l0,-0Zm-4.749,0.304c0.235,2.692 0.32,4.928 -0.946,7.114c-1.643,2.835 -1.217,5.266 0.541,5.802c1.751,0.534 3.298,-0.715 2.988,-2.412c-0.094,-0.519 -0.811,-1.368 -1.247,-1.479c-0.539,-0.138 -0.602,-0.471 -0.296,-1.538c0.594,-2.067 0.395,-4.685 -0.502,-6.577c-0.082,-0.283 -0.412,-0.92 -0.538,-0.91Zm29.966,0.063c0.303,-0.055 0.592,0.213 0.826,0.985c0.547,1.869 -0.629,4.984 -1.349,5.383c-0.767,0.756 -1.247,0.034 -1.413,-1.922c0,-1.191 1.029,-4.278 1.936,-4.446Zm-24.075,0.835c1.477,0.008 2.173,1.922 1.067,2.932c-0.616,0.563 -1.007,0.306 -1.651,-1.073c-0.598,-1.279 -0.414,-1.864 0.584,-1.859Zm13.753,0.392c1.4,0 2.537,1.129 2.537,2.524c0,1.395 -1.137,2.527 -2.537,2.527c-1.399,0 -2.536,-1.132 -2.536,-2.527c-0,-1.395 1.137,-2.524 2.536,-2.524Zm0,0.916c-0.89,-0 -1.612,0.72 -1.612,1.608c-0,0.887 0.722,1.607 1.612,1.607c0.891,0 1.615,-0.72 1.615,-1.607c-0,-0.888 -0.724,-1.608 -1.615,-1.608Zm0,0.707c0.499,-0 0.905,0.403 0.905,0.901c0,0.497 -0.406,0.9 -0.905,0.9c-0.499,0 -0.903,-0.403 -0.903,-0.9c0,-0.498 0.404,-0.901 0.903,-0.901Zm-10.882,0.664c0.207,-0.009 0.41,0.026 0.597,0.116c1.336,0.644 1.189,2.488 -0.285,3.589c-0.933,0.696 -1.328,0.455 -2.197,-1.343c-0.472,-0.976 0.766,-2.315 1.885,-2.362Zm-77.641,0.262c0.189,-0.018 0.382,-0.017 0.584,0.006c1.42,0.156 2.25,1.979 1.906,3.196c-0.76,1.876 -3.332,2.508 -5.284,3.293l-1.012,-0.738c-0,0 1.431,-0.81 2.82,-1.449c1.302,-0.597 1.512,-0.835 1.414,-1.588c-0.189,-1.472 -0.902,-1.418 -4.137,0.319c-1.316,0.706 -2.284,1.331 -2.284,1.331l-0.716,-0.586c1.07,-0.703 1.714,-1.091 2.884,-1.887c1.479,-0.771 2.508,-1.777 3.825,-1.897l0,-0Zm101.812,0.241c0.577,0.036 1.112,0.318 1.27,0.796c0.471,1.427 -0.49,2.678 -1.937,2.118c-0.785,-0.304 -1.342,-1.306 -0.855,-2.233c0.326,-0.508 0.945,-0.718 1.522,-0.681Zm-27.763,0.301l2.279,4.081c0,-0 0.03,1.135 0.05,1.766c0.087,2.65 0.658,3.527 2.215,3.27c0.111,-0.018 0.665,-0.178 0.665,-0.178l0.99,1.662c-0,0 -1.07,0.467 -1.348,0.525c-1.833,0.383 -4.371,-0.989 -4.766,-2.823c-0.382,-1.775 -0.085,-8.303 -0.085,-8.303l0,-0Zm-74.458,1.666c0.396,0.054 0.146,0.607 -0.132,0.757c-1.339,0.68 -2.605,1.418 -4.002,2.221l-0.935,-0.578c1.552,-0.831 3.097,-1.907 4.859,-2.389c0.085,-0.016 0.154,-0.018 0.21,-0.011l0,0Zm91.391,0.535c1.4,0 2.537,1.13 2.537,2.525c-0,1.395 -1.137,2.527 -2.537,2.527c-1.4,0 -2.537,-1.132 -2.537,-2.527c0,-1.395 1.137,-2.525 2.537,-2.525Zm-10.729,0.346c0.583,-0.017 1.069,0.234 1.386,0.758c0.677,1.12 -0.04,2.488 -1.684,3.218c-0.917,0.408 -1.069,0.324 -2.048,-1.121c-0.661,-0.977 -0.658,-1.153 0.074,-1.775c0.82,-0.698 1.611,-1.062 2.272,-1.08l-0,-0Zm-89.019,0.221l36.324,23.444l-1.035,1.755l-35.219,-22.977l-0.07,-2.222Zm107.935,0.303c2.207,0.042 5.088,2.59 4.067,3.596c-0.108,0.107 -0.318,0.188 -0.468,0.179c-3.151,-0.185 -6.628,-3.833 -3.599,-3.775Zm-8.187,0.047c-0.891,0 -1.612,0.72 -1.612,1.608c-0,0.888 0.721,1.608 1.612,1.608c0.891,-0 1.613,-0.72 1.613,-1.608c-0,-0.888 -0.722,-1.608 -1.613,-1.608Zm-48.512,0.447l0.962,2.492l-18.079,28.686l-1.776,-1.138l18.893,-30.04Zm48.512,0.26c0.499,0 0.905,0.403 0.905,0.901c0,0.497 -0.406,0.901 -0.905,0.901c-0.499,-0 -0.903,-0.404 -0.903,-0.901c-0,-0.498 0.404,-0.901 0.903,-0.901Zm6.639,0.298c0.885,1.641 2.361,2.647 4.038,3.352c-1.583,1.303 -2.381,2.991 -2.319,4.757c-0.402,-2.651 -0.749,-5.288 -1.719,-8.109Zm-95.571,0.867c0.387,0.003 0.736,0.082 1.012,0.271c3.388,2.313 0.277,4.602 -0.012,4.423l-1.153,-0.726c0.396,-0.655 1.297,-1.543 -0.152,-2.372c-0.822,-0.357 -1.738,0.072 -2.537,0.625l-1.211,-0.827c0,-0 2.374,-1.406 4.053,-1.394l-0,0Zm79.896,1.308c0.128,-0.003 0.254,0.005 0.375,0.028c1.913,0.368 1.779,2.39 -0.219,3.327c-1.137,0.534 -1.337,0.425 -2.329,-1.274c-0.466,-0.797 0.94,-2.04 2.173,-2.081l0,0Zm-80.508,0.742c0.203,0.006 0.463,0.184 0.494,0.35c0.099,0.531 -0.887,1.064 -0.887,1.064l-1.134,-0.749c0.484,-0.267 0.99,-0.627 1.527,-0.665Zm101.883,0.485c0.277,-0.021 0.481,0.11 0.563,0.44c0.387,1.571 -1.365,4.485 -2.981,4.958c-0.944,0.276 -1.218,-0.166 -0.908,-1.468c0.434,-1.829 2.337,-3.852 3.326,-3.93Zm-58.591,0.121l2.941,2.128l-17.794,27.803l-2.91,-1.809l17.763,-28.122Zm48.03,0.225c1.399,-0 2.536,1.129 2.536,2.524c0.001,1.396 -1.137,2.528 -2.536,2.528c-1.4,-0 -2.537,-1.132 -2.537,-2.528c-0,-1.395 1.137,-2.524 2.537,-2.524Zm-0,0.917c-0.891,-0 -1.614,0.719 -1.614,1.607c-0,0.888 0.723,1.608 1.614,1.608c0.89,0 1.612,-0.72 1.612,-1.608c0,-0.888 -0.722,-1.607 -1.612,-1.607Zm-0,0.707c0.499,-0 0.903,0.403 0.903,0.9c0,0.498 -0.404,0.901 -0.903,0.901c-0.499,0 -0.905,-0.403 -0.905,-0.901c-0,-0.497 0.406,-0.9 0.905,-0.9Zm-40.557,0.092c1.915,2.152 4.067,6.966 11.58,4.695c2.559,2.079 6.093,3.262 10.449,0.956l0.032,12.97l-33.357,0.035l11.296,-18.656Zm-60.922,0.331l32.849,21.548l-1.029,1.809l-31.853,-20.29l0.033,-3.067Zm92.303,0.026c1.679,0.41 1.868,2.083 0.307,2.723c-0.835,0.343 -1.006,0.258 -1.804,-0.912c-0.318,-0.467 -0.497,-0.855 -0.451,-0.972c0.634,-0.403 1.295,-0.727 1.948,-0.839Zm20.997,1.764c0.587,0.003 1.171,0.314 1.445,0.924c0.411,0.916 0.174,1.685 -0.674,2.194c-1.404,0.843 -2.973,-0.704 -2.244,-2.213c0.293,-0.607 0.886,-0.909 1.473,-0.905Zm-20.569,1.759c0.775,0.003 1.424,0.741 1.048,1.189c-0.25,0.296 -0.571,0.211 -0.982,-0.261c-0.482,-0.553 -0.51,-0.931 -0.066,-0.928l0,-0Zm9.417,0.322c1.4,-0 2.537,1.129 2.537,2.524c-0,1.395 -1.137,2.528 -2.537,2.528c-1.4,-0 -2.537,-1.133 -2.537,-2.528c0,-1.395 1.137,-2.524 2.537,-2.524Zm7.147,0.139c1.912,0.01 4.559,3.194 4.109,4.941c-0.146,0.569 -1.219,0.261 -2.494,-0.716c-1.722,-1.319 -2.835,-4.231 -1.615,-4.225Zm-7.147,0.778c-0.891,-0 -1.613,0.719 -1.613,1.607c0,0.888 0.722,1.608 1.613,1.608c0.891,-0 1.613,-0.72 1.613,-1.608c-0,-0.888 -0.722,-1.607 -1.613,-1.607Zm6.145,0.326c0.528,1.541 1.068,3.146 3.452,4.26c-3.699,1.717 -4.404,4.609 -3.85,8.318l-0.865,-0.529c0.793,-3.323 1.393,-7.106 1.263,-12.049Zm-6.145,0.38c0.499,0 0.904,0.404 0.904,0.901c-0,0.498 -0.405,0.901 -0.904,0.901c-0.499,0 -0.903,-0.403 -0.903,-0.901c-0,-0.497 0.404,-0.901 0.903,-0.901Zm-0.471,4.058c1.4,-0 2.537,1.129 2.537,2.524c0,0.882 -0.454,1.66 -1.142,2.112l-0.818,-0.61c0.606,-0.231 1.036,-0.817 1.036,-1.502c0,-0.887 -0.722,-1.607 -1.613,-1.607c-0.848,-0 -1.541,0.653 -1.605,1.483l-0.823,-0.613c0.318,-1.034 1.287,-1.787 2.428,-1.787Zm11.541,0.323c1.206,0.007 -0.67,3.342 -2.393,4.251c-1.312,0.693 -2.512,0.747 -2.509,0.114c0.009,-1.659 3.059,-4.375 4.902,-4.365Zm-11.541,1.301c0.499,-0 0.904,0.403 0.904,0.9c-0,0.498 -0.405,0.901 -0.904,0.901c-0.495,-0.054 -0.899,-0.442 -0.905,-0.901c0,-0.497 0.406,-0.9 0.905,-0.9Zm11.151,3.04c1.57,0.162 1.922,1.679 1.04,2.575c-1.459,1.438 -3.443,-0.04 -2.49,-1.853c0.259,-0.493 0.855,-0.731 1.45,-0.722Zm-4.663,1.355c2.031,0.063 3.615,2.817 3.249,4.243c-1.347,-0.706 -2.611,-1.553 -2.849,-1.723c-0.286,-0.505 -0.302,-1.321 -0.4,-2.52Zm-2.771,1.561c2.167,1.449 4.294,2.738 6.367,3.813l-6.352,4.066l-0.015,-7.879Zm-56.691,1.888l34.198,0.123l0.007,1.433l-35.137,0.019l0.932,-1.575Zm-1.394,2.24l2.298,-0l-0,2.792l-3.156,-0l-0,-1.542l0.858,-1.25Zm32.861,0.066l2.766,-0l-0,2.792l-2.766,-0l-0,-2.792Zm-27.146,0.019l3.148,-0l0,2.792l-3.148,-0l-0,-2.792Zm6.549,0.023l3.402,0l-0,2.792l-3.402,0l-0,-2.792Zm6.96,0l3.272,0l0,2.792l-3.272,0l-0,-2.792Zm6.989,0.047l3.118,0l-0,2.792l-3.118,0l-0,-2.792Zm-25.509,0.756c-0.315,-0 -0.575,0.259 -0.575,0.574c-0,0.01 0,0.02 0.001,0.03c0.015,0.304 0.27,0.546 0.574,0.546c0.01,0 0.02,0 0.029,-0c0.305,-0.016 0.547,-0.271 0.547,-0.576c-0,-0.315 -0.26,-0.574 -0.576,-0.574Zm6.563,-0c-0.316,-0 -0.575,0.259 -0.575,0.574c-0,0.01 -0,0.02 0,0.03c0.016,0.304 0.27,0.546 0.575,0.546c0.009,0 0.019,0 0.029,-0c0.305,-0.016 0.547,-0.271 0.546,-0.576c0,-0.315 -0.26,-0.574 -0.575,-0.574Zm6.714,-0c-0.316,-0 -0.575,0.259 -0.575,0.574c-0,0.01 -0,0.02 0,0.03c0.016,0.304 0.27,0.546 0.575,0.546c0.01,0 0.019,0 0.029,-0c0.305,-0.016 0.547,-0.271 0.546,-0.576c0,-0.315 -0.259,-0.574 -0.575,-0.574Zm6.907,-0c-0.316,-0 -0.575,0.259 -0.576,0.574c0,0.01 0.001,0.02 0.001,0.03c0.016,0.304 0.27,0.546 0.575,0.546c0.009,0 0.019,0 0.029,-0c0.304,-0.016 0.547,-0.271 0.546,-0.576c-0,-0.315 -0.26,-0.574 -0.575,-0.574Zm6.889,-0c-0.01,-0 -0.02,-0 -0.03,0c-0.305,0.016 -0.547,0.27 -0.547,0.574c0,0.01 0,0.02 0.001,0.03c0.015,0.305 0.271,0.547 0.576,0.546c0.01,0 0.019,0 0.029,-0c0.305,-0.016 0.547,-0.271 0.546,-0.576c0,-0.315 -0.26,-0.574 -0.575,-0.574Zm6.599,-0c-0.315,-0 -0.575,0.259 -0.575,0.574c-0,0.01 0,0.02 0.001,0.03c0.015,0.304 0.269,0.546 0.574,0.546c0.01,0 0.02,0 0.03,-0c0.305,-0.016 0.548,-0.271 0.547,-0.576c-0,-0.009 -0,-0.019 -0.001,-0.028c-0.015,-0.305 -0.271,-0.547 -0.576,-0.546Zm-36.637,2.685l37.931,0.089l-0,1.674l-39.013,-0.09l1.082,-1.673Zm32.363,3.526c3.861,-0.042 6.112,4.253 3.094,7.269c-2.774,2.772 -7.403,-0.768 -5.092,-3.887c1.29,-1.741 4.461,-0.339 3.669,1.518c-0.521,1.222 -2.23,0.652 -2.177,-0.672c-0,-0.532 -0.392,-0.167 -0.437,0.397c-0.058,0.716 0.68,1.509 1.539,1.511c2.241,0.005 2.576,-2.956 0.416,-4.043c-1.929,-0.971 -3.96,0.268 -4.429,2.726c-0.051,0.268 -0.369,0.94 -0.612,1.414c-0.714,1.428 -0.943,2.251 -1.301,3.882c-0.164,0.204 -0.665,0.529 -1.013,0.703c-1.101,0.548 -1.056,0.318 -0.643,-1.467c1.553,-4.258 2.197,-8.925 6.986,-9.351Zm11.419,0.268c2.385,-0.051 4.181,1.906 4.494,3.418c1.37,4.602 -4.759,7.42 -6.895,3.251c-1.194,-2.383 1.278,-5.226 3.543,-4.118c1.855,0.907 1.736,3.726 -0.159,3.716c-1.028,0.049 -1.655,-0.873 -1.087,-1.612c0.294,-0.291 0.647,-0.063 0.794,-0.551c0.062,-0.204 -0.229,-0.367 -0.931,-0.225c-1.163,0.236 -1.044,2.571 0.305,3.037c2.009,0.693 3.725,-1.419 2.769,-3.507c-1.15,-2.51 -4.261,-2.522 -5.684,0.105c-0.207,0.381 -0.531,0.928 -0.709,1.169c-2.124,2.872 -2.291,3.3 -2.923,4.9c-0.062,0.159 -0.174,0.279 -0.366,0.257c-0.585,-0 -1.159,0.126 -1.551,0.279c-0.264,-0.07 0.088,-1.077 0.113,-1.153c1.447,-4.451 5.161,-8.858 8.287,-8.966Zm-19.068,0.802c0.445,0.03 0.801,0.159 0.592,0.448c-0.504,0.875 -2.016,3.713 -3.065,7.91c-0.276,-0.172 -1.022,-0.48 -1.56,-0.668c-0.204,-0.071 -0.038,-0.305 -0.05,-0.659c0.382,-1.893 1.609,-5.201 2.961,-6.885c0.144,-0.105 0.678,-0.175 1.123,-0.146l-0.001,0Zm2.514,0.037c1.45,-0.036 0.812,0.524 0.241,1.251c-1.295,1.648 -2.647,6.027 -2.93,8.286c-0.043,0.342 -0.105,0.719 -0.141,0.838c-0.202,0.676 -1.47,-0.776 -1.464,-1.674c0.01,-1.525 1.706,-6.173 2.918,-7.949c0.422,-0.618 0.473,-0.72 1.376,-0.752Zm-63.293,0.285c-0.31,0.008 -0.606,0.055 -0.879,0.144c-2.961,1.031 -4.989,3.601 -4.395,6.685c0.62,2.821 2.272,4.735 4.294,7.533c-0,-0 -2.541,3.924 -4.284,5.736l4.123,5.945c-1.14,2.244 -3.122,3.941 -3.619,6.71c-0.778,3.646 1.137,7.198 5.213,7.526c3.041,0.091 5.034,-1.957 5.412,-5.06c0.492,-3.216 -2.14,-6.382 -4.209,-9.359c1.455,-1.878 2.928,-3.791 4.412,-5.673l-4.197,-5.915c2.874,-3.997 4.754,-7.168 3.963,-10.173c-0.789,-2.315 -3.664,-4.154 -5.834,-4.099Zm0.103,0.448c1.338,-0.019 2.718,0.515 3.837,1.681c2.573,2.684 2.345,4.954 -0.998,9.918c-0.733,1.09 -1.453,2.288 -1.453,2.288l4.22,5.81c-1.384,1.95 -2.958,3.679 -4.403,5.735c1.896,2.439 3.856,4.905 4.263,8.089c0.336,2.922 -1.571,6.036 -4.832,6.111c-3.165,0.022 -5.574,-2.606 -5.505,-5.906c0.149,-3.256 2.093,-5.459 3.92,-8.123l-4.083,-5.934l4.324,-5.755c0,-0 -3.146,-3.839 -4.111,-6.606c-0.784,-3.142 0.686,-4.932 0.882,-5.206c0.958,-1.345 2.422,-2.08 3.939,-2.102Zm0.129,2.047c-2.242,-0.02 -4.464,1.981 -2.806,6.29c0.628,1.63 1.65,2.843 2.806,4.002c1.072,-1.249 2.268,-2.892 2.924,-4.459c1.58,-3.773 -0.682,-5.813 -2.924,-5.833Zm0.094,0.575c1.479,0.07 2.941,1.25 2.789,3.348c-0.343,2.283 -1.547,3.727 -2.93,5.626c-1.549,-1.795 -2.643,-3.289 -2.749,-5.657c-0.085,-2.346 1.412,-3.387 2.89,-3.317Zm76.124,1.599c0.118,0.66 0.764,1.779 0.709,2.042c-0.299,0.693 -0.735,1.039 -1.343,2.18c-0.128,0.243 -0.068,0.292 -0.409,0.232c-0.321,-0.045 -0.884,-0.22 -1.185,-0.306c-0.172,-0.049 -0.369,-0.143 -0.288,-0.361c0.583,-1.338 1.236,-2.933 2.516,-3.787Zm-11.351,0.067c0.368,0.062 0.911,1.491 1.151,1.953l-0.724,1.871c-0.068,0.202 -0.076,0.234 -0.288,0.19c-0.413,-0.052 -0.775,-0.084 -1.186,-0.053c-0.898,-0.11 0.793,-3.454 1.047,-3.961l0,0Zm1.832,2.384c0.015,-0.002 0.032,-0.002 0.047,-0c0.369,0.047 0.917,0.246 1.324,0.423c0.225,0.093 0.232,0.098 0.133,0.376c-0.208,0.412 -0.462,1.6 -0.736,2.015c-0.008,0.061 -1.28,-0.753 -1.642,-0.91c-0.014,-0.225 0.403,-1.841 0.874,-1.904l0,-0Zm3.925,0.126c0.389,0.087 -0.228,2.083 -0.343,2.333c-0.368,0.548 -0.94,1.269 -1.395,1.56c-0.233,0.149 -0.948,-0.278 -0.932,-0.777c0.012,-0.355 0.692,-2.143 0.919,-2.617c0.033,-0.07 1.315,-0.491 1.751,-0.499Zm6.856,0.094c0.421,0.015 0.94,0.397 1.225,0.615c0.133,0.263 0.011,0.527 -0.457,1.331c-0.413,0.712 -0.845,1.481 -0.95,1.399c-0.314,-0.245 -0.897,-0.564 -1.185,-0.96c-0.214,-0.294 0.194,-1.048 0.471,-1.46c0.438,-0.651 0.649,-0.886 0.896,-0.925Zm-22.656,0.656c2.244,-0.062 3.297,0.723 4.286,2.401c0.468,0.793 0.474,0.828 0.366,1.57c-0.253,1.742 -0.165,2.911 0.296,3.979c0.525,1.216 0.446,1.634 -0.837,4.338c-1.289,2.723 -2.852,6.04 -4.041,9.114c-0.527,1.318 -1.011,2.81 -1.314,4.031c-0.199,0.768 -1.52,0.6 -2.076,0.5c-0.476,0.104 0.687,-3.091 2.412,-6.911c1.38,-3.058 3.257,-6.502 4.006,-9.924c0.611,-2.79 0.416,-3.937 0.081,-5.108c-1.292,-3.409 -5.789,-2.573 -5.778,0.567c0.097,2.034 2.458,3.124 3.324,1.13c0.144,-0.917 -0.31,-0.384 -0.69,0.062c-0.815,0.954 -2.211,-0.108 -1.991,-1.515c0.288,-1.849 2.684,-2.457 3.842,-0.994c1.268,1.602 0.99,3.253 -0.842,4.493c-1.886,1.381 -3.604,0.595 -4.546,-0.84c-2.012,-3.222 1.257,-6.831 3.502,-6.893l-0,-0Zm9.269,1.365c1.873,0.038 3.906,1.602 4.235,2.841c0.176,0.84 -0.095,1.83 0.206,2.642c0.251,0.651 0.492,1.025 0.312,1.603c-1.541,4.944 -5.179,10.217 -6.977,16.07c-0.208,0.407 -0.399,0.457 -0.863,0.589c-0.718,0.204 -0.998,0.183 -1.074,-0.19c1.252,-5.471 4.46,-9.62 6.916,-16.244c1.392,-2.812 -0.181,-5.583 -3.064,-5.599c-2.283,-0.012 -3.304,3.552 -1.305,4.594c1.956,1.019 3.415,-1.658 1.676,-2.606c-0.419,-0.229 -0.527,-0.01 -0.191,0.393c0.774,0.927 0.079,2.173 -0.998,1.676c-1.667,-0.768 -0.807,-3.599 1.139,-3.435c3.005,0.252 3.396,4.608 0.331,5.712c-4.213,1.517 -6.423,-5.243 -2.458,-7.518c0.657,-0.378 1.39,-0.541 2.115,-0.528Zm8.876,0.135c1.109,-0.027 2.273,0.366 3.23,1.282c2.356,2.255 1.728,5.734 -2.253,12.464c-1.304,2.256 -2.574,4.965 -3.268,6.944c-0.172,0.493 -0.317,0.744 -0.709,0.959c-0.691,0.38 -1.473,0.427 -1.575,0.159c-0.258,-0.684 1.714,-4.936 5.225,-11.615c0.923,-1.78 2.09,-3.845 2.031,-5.963c-0.232,-1.682 -1.636,-2.893 -3.515,-2.343c-1.265,0.37 -1.782,2.149 -0.849,3.045c0.389,0.374 0.868,0.57 1.177,0.539c0.583,0.019 1.244,-0.555 0.116,-0.617c-1.193,-0.007 -1.6,-1.501 -0.593,-2.175c1.448,-0.969 3.11,0.174 2.993,2.059c-0.242,3.79 -5.795,3.224 -5.942,-0.68c-0.091,-2.416 1.815,-4.005 3.932,-4.058Zm-15.691,6.069c0.839,-0.064 -0.605,4.443 -3.128,9.5c-1.377,2.8 -2.421,5.808 -3.492,8.736c-0.29,0.392 -2.03,0.464 -2.026,0.059c3.136,-9.505 5.273,-11.495 6.32,-15.304c0.184,-0.648 0.317,-1.586 0.342,-1.667c0.78,-0.223 1.438,-1.153 1.984,-1.324l-0,0Zm-57.119,0.665l-3.269,4.248l3.191,4.512l3.315,-4.314l-3.237,-4.446Zm69.323,0.357c0.403,-0.018 1.43,0.592 1.464,0.955c-0,0.509 -0.982,2.958 -1.714,4.431c-3.202,6.44 -3.997,8.177 -4.55,9.894c-0.1,0.31 -0.263,0.515 -0.465,0.591c-0.398,0.148 -1.508,0.361 -1.601,0.21c0.677,-3.764 5.861,-12.329 6.866,-16.081Zm4.029,0.563c0.216,-0.016 0.303,0.073 0.241,0.361c-0.101,0.467 -0.659,1.565 -1.632,3.471c-2.697,5.284 -4.112,8.415 -4.563,10.024c-0.105,0.377 -0.171,0.673 -0.352,0.768c-0.37,0.197 -1.667,0.719 -1.728,0.156c0.405,-2.388 1.984,-3.942 6.066,-13.902c0.191,-0.327 0.358,-0.487 0.537,-0.517c0.502,-0.082 0.938,-0.32 1.431,-0.361Zm-12.759,0.539c0.553,0.082 1.616,0.61 1.692,1.096c-0.103,0.615 -0.668,1.978 -1.979,4.282c-1.96,3.446 -4.426,10.514 -4.426,10.514c-0.555,0.26 -1.117,0.447 -1.733,0.151c-0.215,-1.082 1.496,-5.118 3.401,-9.363c1.037,-2.308 2.239,-4.609 3.045,-6.68Zm4.579,0.076c0.577,-0.006 0.129,0.962 -1.254,3.684c-2.114,4.073 -3.452,7.03 -4.851,11.032c-0.169,0.528 -0.326,0.788 -0.544,0.897c-0.417,0.207 -1.426,0.195 -1.603,-0.019c-0.281,-0.342 1.211,-4.348 2.665,-7.425c1.283,-2.585 2.188,-4.662 3.297,-7.052c0.304,-0.475 0.316,-0.507 0.624,-0.569c0.641,-0.05 1.306,-0.479 1.666,-0.548l-0,0Zm-65.118,0.515l1.684,2.245l-1.976,2.45l-1.644,-2.384l1.936,-2.311Zm-0.107,1.44l-0.596,0.917l0.596,0.917l0.596,-0.917l-0.596,-0.917Zm-0.146,8.241c0,-0 -0.715,0.821 -1.449,2.121c-2.15,3.568 -2.21,6.202 0.327,7.766c1.07,0.543 2.466,0.424 3.347,-0.342c2.873,-2.498 0.737,-5.929 -1.118,-8.256c-0.492,-0.683 -1.107,-1.289 -1.107,-1.289Zm0.105,0.913c1.077,1.266 1.866,2.217 2.584,3.809c0.825,2.138 0.295,3.82 -1.303,4.61c-2.525,1.248 -4.82,-1.556 -3.622,-4.549c0.888,-2.217 2.341,-3.87 2.341,-3.87Zm70.706,4.225c0.236,0.449 -24.032,6.045 -41.936,1.243l-10.894,15.711l62.894,-0.109l-10.064,-16.845Zm-0.92,1.113c0,0 5.847,10.086 8.717,15.025l-4.033,0l-5.748,-12.263c-3.074,0.854 -6.104,1.472 -9.178,1.86l2.045,10.403l-3.019,0l-1.707,-9.941c-4.406,0.338 -8.892,0.467 -13.474,0.338l-1.975,9.603l-3.16,0l2.026,-9.537c-3.478,-0.468 -6.94,-0.909 -10.474,-1.487l-5.925,11.024l-4.461,0l9.3,-13.836c13.885,2.777 26.687,2.123 41.066,-1.189Zm-2.197,5.414l4.559,9.611l-8.635,0l-1.589,-8.575l5.665,-1.036Zm-36.965,0.7l7.549,0.974l-1.948,7.937l-10.194,0l4.593,-8.911Zm24.641,1.183l1.037,7.728l-13.006,0l1.445,-7.575l10.524,-0.153Z" style="fill-rule:nonzero;"/></g></g><path id="path153-6-3-1-9-5-1-4" d="M47.878,26.156c-7.381,10.526 -15.278,16.583 -15.409,24.795c-0.044,2.659 1.394,7.178 5.897,8.043c2.921,0.559 6.944,-1.806 7.028,-6.61c-0.013,-0.956 1.013,-0.931 1.003,0.379c-0.138,3.79 -1.337,8.202 -3.353,11.793l9.669,-0c-2.016,-3.591 -3.216,-8.003 -3.354,-11.793c-0.009,-1.31 1.016,-1.335 1.004,-0.379c0.084,4.804 4.106,7.169 7.028,6.61c4.503,-0.865 5.941,-5.384 5.897,-8.043c-0.132,-8.212 -8.029,-14.269 -15.41,-24.795Z" style="fill-rule:nonzero;"/><path id="path153-6-3-1-8-6-9-9-4" d="M130.704,223.293c-7.38,-10.526 -15.278,-16.583 -15.409,-24.795c-0.044,-2.659 1.394,-7.178 5.897,-8.044c2.922,-0.558 6.944,1.806 7.028,6.61c-0.013,0.957 1.013,0.932 1.003,-0.379c-0.137,-3.789 -1.337,-8.201 -3.353,-11.792l9.669,-0c-2.016,3.591 -3.216,8.003 -3.353,11.792c-0.01,1.311 1.016,1.336 1.003,0.379c0.084,-4.804 4.106,-7.168 7.028,-6.61c4.503,0.866 5.941,5.385 5.897,8.044c-0.131,8.212 -8.029,14.269 -15.41,24.795Z" style="fill-rule:nonzero;"/></g></svg>