<?xml version="1.0" encoding="UTF-8" standalone="no"?><!DOCTYPE svg PUBLIC "-//W3C//DTD SVG 1.1//EN" "http://www.w3.org/Graphics/SVG/1.1/DTD/svg11.dtd"><svg width="100%" height="100%" viewBox="0 0 179 250" version="1.1" xmlns="http://www.w3.org/2000/svg" xmlns:xlink="http://www.w3.org/1999/xlink" xml:space="preserve" xmlns:serif="http://www.serif.com/" style="fill-rule:evenodd;clip-rule:evenodd;stroke-linejoin:round;stroke-miterlimit:2;"><g id="g5943"><path id="rect10346-5-7" d="M178.583,7.972c-0,-4.4 -3.573,-7.972 -7.973,-7.972l-162.638,0c-4.4,0 -7.972,3.572 -7.972,7.972l0,233.504c0,4.4 3.572,7.973 7.972,7.973l162.638,-0c4.4,-0 7.973,-3.573 7.973,-7.973l-0,-233.504Z" style="fill:#fff;"/><path id="path10378-7-1" d="M13.774,55.979c-0,-0 -1.78,-2.552 -4.181,-5.552c-1.606,-2.008 -2.89,-4.182 -3.009,-6.055c-0.137,-2.139 1.159,-4.285 3.505,-4.389c2.346,-0.104 3.297,1.649 3.685,3.095c0.387,-1.446 1.339,-3.199 3.684,-3.095c2.347,0.104 3.643,2.25 3.506,4.389c-0.119,1.873 -1.403,4.047 -3.009,6.055c-2.401,3 -4.181,5.552 -4.181,5.552Z" style="fill:#3f3f3f;fill-rule:nonzero;"/><path id="path10380-5-9" d="M164.809,193.47c0,0 -1.779,2.552 -4.18,5.552c-1.606,2.008 -2.89,4.182 -3.01,6.055c-0.137,2.139 1.16,4.285 3.506,4.389c2.345,0.104 3.297,-1.649 3.684,-3.095c0.388,1.446 1.34,3.199 3.685,3.095c2.346,-0.104 3.643,-2.25 3.506,-4.389c-0.12,-1.873 -1.404,-4.047 -3.01,-6.055c-2.401,-3 -4.181,-5.552 -4.181,-5.552Z" style="fill:#3f3f3f;fill-rule:nonzero;"/><path id="path35-67-2-8-6" d="M13.687,11.07l0,2.763l2.684,0c-0,0 0.065,2.664 0.088,8.315c0.021,5.487 0.133,8.208 -0.217,9.771c-0.94,3.602 -6.159,3.621 -7.196,1.032c-0.602,-1.506 -0.442,-2.678 -0.47,-4.194l-2.885,-0c0,-0 0.017,0.763 0.021,1.698c0.017,4.049 1.358,5.986 4.496,6.75c3.227,0.872 6.999,-0.458 8.341,-3.215c0.799,-1.571 0.707,-1.679 0.727,-11.18c0.012,-6.339 0.108,-8.977 0.108,-8.977l2.47,0l0,-2.763l-8.167,0Z" style="fill:#3f3f3f;fill-rule:nonzero;"/><path id="path35-6-7-4-8-8" d="M164.895,238.379l-0,-2.764l-2.684,0c0,0 -0.065,-2.664 -0.088,-8.314c-0.021,-5.487 -0.133,-8.208 0.217,-9.771c0.94,-3.602 6.159,-3.622 7.196,-1.032c0.602,1.506 0.442,2.677 0.47,4.194l2.885,0c-0,0 -0.017,-0.763 -0.021,-1.698c-0.017,-4.05 -1.358,-5.987 -4.496,-6.75c-3.226,-0.872 -6.999,0.458 -8.34,3.215c-0.799,1.571 -0.708,1.679 -0.727,11.18c-0.012,6.339 -0.108,8.976 -0.108,8.976l-2.471,0l-0,2.764l8.167,-0Z" style="fill:#3f3f3f;fill-rule:nonzero;"/><g id="g3347-7-8-1"><g id="g9405-3-0-4"></g><g id="g3498-4-3-9"><g id="g2997-9-2-6"><g id="g3884-5-1-3"><g id="g3000-2-1-2"><path id="path2993-7-5-1" d="M153.155,29.104l-9.209,6.014l-0.128,7.013c-5.461,-2.625 -7.835,-6.925 -8.694,-11.961c-1.545,1.951 -1.693,11.876 -1.693,11.876c-1.404,0.73 -1.462,1.611 -2.359,2.468c0.881,1.457 3.374,3.937 3.374,3.937c-0.017,-0.044 -1.143,10.26 0.219,10.671c1.245,-4.392 2.901,-8.224 9.002,-12.241c-0,0 0.092,16.359 -0.298,32.163c-2.581,-1.78 -8.039,-4.977 -11.565,-8.248c4.572,-5.906 -0.089,-13.605 -6.912,-8.491c-5.772,-6.828 -4.847,-17.28 -7.434,-24.333c-0,0 -14.571,-4.037 -20.828,-3.708c5.255,13.718 4.235,30.435 -19.022,33.567c-11.144,5.105 -24.018,10.796 -36.531,21.426c-2.305,15.829 -10.454,23.623 -16.209,27.933c0.041,6.415 -0.043,12.765 0.221,19.239c-0.006,0.039 5.252,-3.458 6.078,-2.814c4.394,28.609 20.485,34.281 18.875,35.073c-0.259,0.128 -5.272,5.29 -5.272,5.29l-19.639,-12.959c-0.673,19.78 -0.283,39.951 0,59.765c3.468,-1.964 9.841,-6.66 9.841,-6.66l0.097,-6.73c-0.03,-0.639 8.93,5.606 8.952,13.046c0.697,0.476 2.226,-10.706 0.834,-11.917l3.673,-3.795l-3.956,-3.815c0,-0 1.004,-6.332 -1.046,-9.98c-1.329,8.35 -8.248,10.954 -8.248,10.954c-0,-0 -0.135,-30.521 -0.314,-30.548l12.343,7.828c-6.684,9.119 5.081,12.079 6.459,7.642c7.591,7.086 4.668,15.558 7.988,25.611l21.541,3.959c-8.878,-16.5 0.756,-35.3 18.189,-33.956c3.266,-1.362 6.222,-3.33 6.222,-3.33c0,0 -2.167,-3.549 -4.904,-6.842l-37.313,-0.617l17.394,-32.669l-11.44,-0.369c7.943,-13.756 8.489,-13.399 6.034,-28.113l11.062,0.222c0.404,-4.559 -4.942,-21.931 -12.485,-33.291l41.939,0.376l-23.61,32.985l12.68,0.365c-7.598,13.698 -9.02,13.402 -6.353,27.715l-11.251,0.223c1.94,16.836 14.424,34.715 18.813,40.194c7.256,-1.723 20.802,-12.108 29.209,-18.566c1.089,-11.298 4.972,-20.915 15.125,-28.09l0.031,-18.6c-0,0 -5.795,3.748 -5.793,3.489c0.023,-4.026 -2.071,-12.406 -5.935,-19.875c-4.147,-8.015 -10.953,-15.275 -12.519,-15.729c3.601,-5.457 5.137,-5.946 5.085,-6.032l19.61,12.598l0.07,-59.363Zm-99.227,39.994c-7.437,1.905 -17.524,0.17 -19.623,6.74c-0.489,1.485 0.583,2.033 1.372,2.422c4.477,-5.569 15.991,2.122 18.251,-9.162Zm-24.78,22.343c-1.73,0.22 -1.146,3.792 -0.57,4.229c1.204,-0.266 1.55,-4.354 0.57,-4.229Zm63.116,29.817l-5.8,0.027l-0.035,6.819l5.838,-0.004l-0.003,-6.842Zm56.97,33.947c-0.127,0.678 -0.653,3.608 0.763,3.078c1.67,-1.288 0.148,-7.094 -0.763,-3.078Zm-5.459,17.119c-0.685,-1 -2.804,1.486 -4.543,1.579c-7.727,0.414 -13.419,-0.622 -14.382,7.476c4.456,-2.85 10.7,-1.55 14.722,-2.472c2.908,-0.967 6.243,-3.604 4.203,-6.583Z" style="fill:#bdbdbd;fill-rule:nonzero;"/><path id="path3504-0-2-5" d="M23.691,19.125l-0,211.199l131.2,0l0,-211.199l-131.2,-0Zm38.454,1.718l66.083,0.213c-2.014,5.754 -7.333,9.675 -10.093,15.374c-0.642,0.9 -0.611,1.598 -0.313,2.564c0.556,1.81 1.228,4.815 1.486,6.649c0.427,4.031 0.847,9.058 3.044,13.493c0.297,1.025 2.279,3.48 2.753,3.483c2.884,-4.038 10.353,-1.575 8.2,5.399c-0.834,2.704 -2.203,2.672 -1.611,3.181l11.88,8.118c0,0 0.342,-31.947 0.025,-31.937c-6.216,3.713 -6.477,5.879 -9.05,11.763c-1.614,-2.216 0.241,-7.652 -0.047,-10.575l-3.586,-3.929c-0.016,-0.011 2.81,-3.094 2.81,-3.094c0,0 0.957,-11.565 1.248,-11.406c0.567,4.047 4.441,10.537 8.913,11.985l0.103,-7.097l9.467,-6.062l-0.348,58.624l-0.935,1.002l-0,2.537c-0,-0 -7.04,-4.593 -7.206,-4.92c-0.077,-0.752 -1.963,-2.278 -2.465,-1.512l-2.117,-1.529c0.314,-0.082 -2.181,-3.604 -2.529,-2.513c-0.074,0.231 0.007,0.981 0.007,0.981l-2.067,-1.541c-0,0 -0.202,-0.48 -0.269,-0.676c-0.177,-0.512 -0.594,-1.053 -0.917,-1.475c-0.778,-0.922 -1.535,-0.971 -0.999,0.42l-1.263,-0.821l-0.754,0.952l2.357,1.506l-0,1.758l-2.917,-2.153c-0.794,0.003 -0.884,0.111 -0.722,0.814l3.639,2.282l-0,1.926c-1.509,-0.952 -4.532,-2.95 -4.532,-2.95l-0.371,0.509c9.035,7.94 16.489,21.518 17.914,35.326c2.264,-1.126 5.794,-4.484 5.402,-2.469c-0,0.479 0.599,0.98 0.599,0.98l0.606,30.098c-5.977,5.386 -9.304,9.662 -16.278,14.932c-9.426,7.535 -22.809,15.447 -35.545,21.241c-3.628,0.213 -6.845,-0.782 -13.234,3.835c-7.212,4.535 -9.454,12.521 -8.186,21.204c0.655,3.14 1.862,7.534 2.34,8.078c0.139,0.159 0.467,-0.144 0.516,-0.144c0.05,0.001 -0.095,-0.219 -0.095,-0.219c-0.666,-1.465 -3.391,-8.647 -2.687,-14.019c0.256,-1.864 0.315,-4.54 2.381,-5.133c0.81,-0.233 1.494,0.102 1.888,0.667c0.775,1 0.255,2.179 -0.228,3.171c2.659,-1.115 1.255,-6.146 -2.517,-4.929c0,0 0.177,-0.507 0.315,-0.734c1.893,-4.017 6.884,-9.424 13.105,-10.979c2.044,-0.512 4.431,-0.699 6.627,-0.249c1.098,0.226 1.073,0.7 1.005,2.319c-0.069,1.632 0.537,2.002 1.19,2.723c1.34,1.478 -2.463,1.973 -4.607,0.697c-0.517,-0.308 -0.824,-0.44 -0.824,-0.44c0,0 0.157,0.382 0.543,1.122c0.609,1.164 1.056,2.149 1.575,1.893c0.681,-0.483 0.142,-0.849 2.005,-0.261c0.646,0.18 1.609,0.412 2.004,0.493c0.855,0.175 0.829,0.442 0.618,1.111c-0.579,1.837 -0.087,2.36 2.672,3.97c2.329,1.233 2.134,1.265 0.429,5.061c-0.892,1.982 -1.88,4.322 -2.843,6.481c-0.389,0.877 -0.257,1.38 0.316,2.338c0.557,0.931 0.959,3.808 0.818,4.033c3.341,4.213 6.087,9.28 9.604,14.404l-65.91,-0.389c-0,-0 6.725,-10.137 10.164,-14.863c0.639,-0.55 0.722,-1.272 0.472,-1.996c-0.061,-0.177 -1.991,-13.373 -2.017,-13.407c-0.763,-3.902 -1.757,-8.294 -5.482,-10.981c-1.417,1.602 -4.995,2.582 -6.948,0.505c-0.616,-0.655 -1.26,-1.519 -1.379,-2.886c-0.262,-1.855 0.413,-4.226 0.572,-4.473c0.258,-0.398 0.843,-0.758 0.833,-1.041c-0.019,-0.555 -1.036,-1.044 -2.495,-1.825c-3.106,-1.711 -9.195,-5.922 -9.195,-5.922c-0,-0 -0.205,22.042 -0.025,30.81c5.925,-2.496 8.677,-10.8 8.677,-10.8c1.505,1.886 0.382,7.601 0.484,9.52c1.296,1.575 2.499,2.051 3.73,3.748c-0.657,1.616 -1.931,2.659 -3.239,3.731c0.656,3.385 0.913,7.043 -0.547,10.857c-2.256,-6.699 -3.978,-8.868 -9.095,-12.058c0.188,2.591 -0.231,4.62 -0.04,6.894l-9.957,6.901l-0.828,-60.753l20.425,13.998l0.281,-0.532l-19.579,-13.695l-0,-2.066l1.903,1.18c-0,-0 0.189,1.443 0.729,1.796c0.469,0.306 1.856,0.02 1.681,-0.046l3.175,2.163c-0.398,0.797 2.118,4.125 2.544,1.762l2.475,1.574c0.291,0.707 0.215,1.9 1.613,2.61c0.527,0.189 1.192,0.083 0.928,-0.671l1.86,1.103c0.342,1.275 2.233,3.832 2.575,2.675c0.04,-0.135 -0.054,-0.897 -0.054,-0.897l1.309,0.951c0,0 1.322,-0.313 0.724,-0.912l-2.21,-1.411l0.022,-1.57l2.855,1.977c-0,-0 0.684,-0.516 0.593,-0.886l-3.46,-2.382l0.076,-1.54c1.418,0.746 2.88,1.715 4.343,2.689c0.008,0.004 0.243,-0.458 0.249,-0.454c-10.277,-8.37 -16.482,-22.366 -18.384,-34.452c-1.661,0.97 -4.464,2.655 -6.192,2.924l0.024,-32.359c5.744,-6.235 11.522,-11.087 18.796,-16.485c10.136,-8.202 21.469,-13.699 30.69,-18.108c1.598,-0.526 3.099,-1.356 4.763,-1.49c2.433,-0.114 2.998,-0.103 7.126,-1.83c10.777,-5.263 17.821,-13.327 10.152,-31.667c0.326,1.237 2.128,6.221 2.555,10.676c0.353,3.679 -0.364,6.938 -0.955,7.815c-1.358,1.67 -3.33,1.487 -3.272,-0.871c0.017,-0.668 0.531,-1.836 0.531,-1.836c-1.911,-0.208 -3.135,6.386 2.228,4.556c-2.44,6.486 -12.789,12.261 -17.433,12.607c-2.418,0.366 -3.57,-0.264 -3.652,-2.04c-0.047,-0.992 -0.588,-2.99 -1.126,-3.59c-1.307,-1.457 2.245,-2.03 4.37,-0.689c0.69,0.435 0.867,0.332 0.49,-0.286c-0.143,-0.235 -0.604,-0.866 -0.621,-1.172c-0.039,-0.717 -0.062,-0.954 -1.04,-0.633c-0.581,0.191 -0.917,-0.095 -1.369,-0.3c-0.397,-0.18 -1.1,-0.34 -1.983,-0.416c-1.651,-0.142 -1.568,0.397 -1.274,-1.344c0.294,-1.742 -0.07,-2.022 -2.069,-3.304c-3.238,-1.978 -3.064,-1.417 0.181,-7.809c2.213,-4.36 2.311,-4.797 1.439,-6.913c-0.71,-1.722 -1.332,-3.323 0.496,-3.559c-3.816,-1.241 -7.448,-10.896 -11.633,-14.357l-0.002,-0Zm-36.613,0.136l35.643,0c3.126,4.251 10.712,14.893 10.712,14.893c-0.019,-0.044 -0.152,1.652 0.652,3.081c0.615,1.095 0.511,2.353 -0.505,4.262c-0.671,1.262 -1.467,3.148 -2.308,4.905c-1.849,3.022 -1.824,3.85 -0.562,4.769c1.141,0.811 3.356,1.831 4.006,2.433c0.421,0.39 -0.056,1.424 -0.185,2.149c-0.099,0.388 -0.37,1.353 0.038,1.803c0.63,0.694 0.761,0.9 0.464,1.653c-0.182,0.46 0.74,1.042 0.893,1.348c0.606,0.84 0.788,1.492 0.912,1.991c0.127,0.512 0.045,0.954 0.045,0.954c-3.285,-1.346 -9.142,-0.304 -7.909,6.461c-10.265,5.106 -18.542,10.755 -23.736,14.443c-1.711,-5.661 -4.652,-6.956 -7.516,-7.362c-0.143,-0.209 0.112,-0.593 0.495,-1c1.287,-1.313 4.323,-1.593 6.384,-1.494c6.913,0.041 9.359,-1.199 11.165,-5.698c0.62,-1.543 0.381,-3.528 0.381,-3.528c0,0 -0.518,0.676 -0.804,0.93c-1.692,1.502 -4.724,1.82 -7.151,1.862c-4.238,-0.011 -6.449,0.432 -7.783,1.058c-2.686,1.262 -4.744,3.12 -5.042,4.82c-0.108,0.615 -0.191,0.615 -1.447,0.488c-1.35,-0.136 -2.094,0.68 -2.317,2.028c-0.1,0.603 0.081,0.649 -0.867,0.979c-1.369,0.477 -1.843,1.877 -1.336,3.311c0.197,0.556 0.17,0.667 -0.444,1.09c-0.962,0.662 -1.151,1.508 -0.793,2.545c0.144,0.42 0.248,0.529 -0.106,1.029c-0.908,1.281 0.17,3.309 1.417,3.79c-0.653,4.174 -0.357,4.382 -0.349,4.861c0.076,0.473 0.519,0.673 0.998,0.657c1.405,-0.065 1.192,-1.182 1.427,-2.323l1.658,1.966l-6.13,5.846l-0,-81Zm104.575,0l22.671,0l0,7.551l-9.402,6.035l-0,6.393c-6.732,-4.319 -7.147,-9.043 -7.862,-12.3c-9.516,10.156 -6.958,25.257 -0.174,32.262c-0.227,-0.293 1.22,-9.709 8.036,-12.938l-0,30.183l-11.07,-7.501c4.996,-5.62 -1.024,-14.734 -7.451,-8.68c-4.791,-4.784 -4.334,-14.901 -6.617,-23.118c-0.249,-0.925 0.076,-1.759 1.379,-3.531c3.471,-4.725 6.98,-9.903 10.49,-14.356Zm3.819,10.885c0,0 -0.623,1.765 -0.407,9.593l-3.401,2.72c0.239,-7.714 3.808,-12.313 3.808,-12.313Zm-59.211,5.395c-1.045,-0.051 0.116,1.55 0.985,1.935c4.363,0.305 7.127,-0.448 11.631,3.602c1.271,0.899 1.19,-0.066 -0.063,-1.371c-2.252,-2.345 -5.792,-3.957 -9.344,-3.972c-1.043,-0.005 -2.659,-0.089 -2.969,-0.16c-0.09,-0.019 -0.17,-0.031 -0.24,-0.034l0,-0Zm1.229,3.981c-0.324,-0.002 -0.953,-0.518 -0.983,-0.466c-0.044,0.839 1.214,2.571 1.533,3.004c0.027,0.231 -0.015,0.657 -0.019,1.336c-0.123,0.291 -1.932,0.29 -1.293,1.094c0.209,0.263 0.976,0.185 1.629,0.259c1.162,0.159 3.667,2.487 5.395,2.788c0.505,0.087 0.998,0.042 0.998,0.042c-1.242,-0.544 -2.526,-1.091 -3.595,-2.031c-0.807,-0.772 1.019,-0.757 1.582,-0.85c0.734,-0.088 1.628,-0.453 2,-0.627c1.058,-0.494 0.669,-0.611 1.768,-0.221c0.625,0.221 1.26,0.563 1.588,0.629c1.532,0.305 1.008,-0.824 -1.399,-1.973c-0.343,-0.163 -0.915,-0.694 -1.391,-1.005c-1.913,-1.25 -3.14,-1.709 -4.638,-1.618c-0.915,0.056 -1.444,0.028 -1.444,0.028c1.051,-0.497 2.102,-0.624 3.403,-0.47c2.232,0.416 4.442,2.27 6.508,3.556c-2.937,-3.918 -8.774,-5.681 -11.642,-3.475Zm4.148,2.329c0.192,0.034 0.336,0.192 0.334,0.494c-0,0.199 -0.867,1.452 -1.126,1.616c-0.45,0.286 -0.424,-0.34 -0.135,-1.359c0.148,-0.524 0.606,-0.808 0.927,-0.751Zm1.128,0.37c1.437,0.209 2.318,1.155 1.191,1.573c-0.618,0.229 -2.248,0.505 -2.237,0.261c0.015,-0.327 0.718,-1.881 1.046,-1.834Zm48.937,0.817l3.968,3.843c-0.219,0.981 -0.59,4.725 -0.622,8.422c-1.9,-2.865 -3.403,-6.525 -3.346,-12.265Zm-53.953,4.594c-0.237,0.01 -0.587,0.172 -0.587,0.172c0,0 0.263,0.192 0.674,0.416c2.431,1.322 1.407,3.772 -1.265,2.068c-1.866,-1.19 -3.276,-1.44 -3.529,-0.058c-0.104,0.573 -0.074,1.057 0.804,0.82c0.348,-0.093 1.293,0.384 2.076,0.67c1.03,0.377 3.097,1.266 3.949,-1c0.336,-1.413 -0.855,-3.14 -2.122,-3.088l0,0Zm7.145,4.159c-0.387,-0.015 -0.888,0.185 -0.888,0.185c-0,0 0.484,0.21 0.855,0.266c2.646,0.405 2.481,4.855 -3.433,1.747c-1.965,-1.032 -2.995,-0.657 -4.055,0.243c-0.811,0.725 -0.36,1.165 0.971,1.027c1.689,-0.161 2.893,0.528 4.493,0.983c4.93,1.199 6.214,-4.294 2.057,-4.451Zm-11.106,12.016c1.287,0.014 2.732,0.59 4.129,1.952l-0.734,0.426c-1.158,-0.382 -1.829,-0.689 -2.95,-1.089c0.288,0.872 0.259,1.429 0.259,1.429c-0,-0 -1.288,-0.457 -2.527,-0.626c0.435,0.87 0.759,1.728 0.759,1.728c0,-0 -0.827,-0.017 -1.94,-0.027l0.671,1.095l-1.662,0.795c-0.898,-3.023 1.165,-5.713 3.995,-5.683l0,0Zm-18.657,3.623c0.266,2.828 -2.149,6.639 -10.572,6.563c-3.266,-0.071 -5.072,0.014 -7.546,2.676l-1.507,-1.224c0.47,-1.813 1.258,-4.981 7.981,-6.484c3.897,-0.589 7.55,0.505 11.644,-1.531Zm-21.286,7.89c0.293,0.006 0.62,0.096 0.967,0.295c1.516,0.952 1.749,1.712 0.228,2.531c-0.866,0.466 -1.052,0.556 -1.85,-0.169c-1.238,-1.127 -0.614,-2.683 0.655,-2.657Zm44.134,0.458c3.184,5.733 10.803,19.593 12.394,33.212l1.434,-0.043l23.605,-32.643l-37.433,-0.526Zm-40.217,2.116c0.829,0.003 1.773,0.205 2.612,0.637c0.792,0.441 1.574,1.192 2.219,2.07c0.866,1.181 1.483,2.59 1.543,3.79c0.016,0.32 0.042,0.554 -0.117,0.819c-0.946,0.949 -3.286,2.857 -4.469,3.635c-1.302,-1.114 -1.942,-3.769 0.009,-5.907c0.924,-0.713 1.217,-1.009 -0.364,-0.927c-1.165,0.06 -1.258,0.115 -1.193,-0.638c0.157,-1.8 -0.244,-1.159 -0.943,-0.056c-0.496,0.783 -1.685,1.195 -2.134,1.195c-0.617,-0.001 -0.544,-0.464 0.04,-0.807c0.86,-0.504 0.932,-1.344 0.623,-2.347c-0.272,-0.927 0.792,-1.469 2.175,-1.464l-0.001,0Zm-6.2,0.509c1.384,-0.099 2.38,1.072 1.124,1.926c-1.007,0.686 -0.888,1.233 0.159,2.112c0.548,0.461 0.885,0.706 0.837,0.831c-0.197,0.785 -2.185,-1.325 -3.281,-2.056c-0.8,-0.874 -0.796,-2.232 0.55,-2.688c0.208,-0.071 0.413,-0.111 0.611,-0.125Zm105.906,1.268l2.635,1.811l0,1.491l-2.635,-1.538l0,-1.764Zm-102.846,0.257c0.76,-0.073 0.583,1.144 -0.444,1.668c-0.6,0.306 -1.064,0.111 -1.061,-0.43c-0,-0.279 0.636,-0.895 1.121,-1.122c0.147,-0.068 0.276,-0.105 0.384,-0.116Zm-4.444,2.469c1.272,0.103 2.964,1.457 2.702,2.037c-0.12,0.265 -0.882,0.933 -0.75,1.349c0.216,0.684 -0.306,0.685 -1.395,-0.04c-1.805,-1.201 -2.269,-2.079 -1.6,-2.956c0.243,-0.319 0.619,-0.424 1.043,-0.39l0,0Zm107.246,0.006l2.679,1.871l0,1.791l-2.722,-1.809l0.043,-1.853Zm4.71,0.434l2.66,1.659l0.211,1.8l-2.826,-1.706l-0.045,-1.753Zm-8.009,0.267c0.875,0.456 1.606,0.625 2.232,1.746c0.334,0.271 0.69,0.511 0.69,0.511l0.656,-0.07l2.637,1.71c0,0 0.071,0.685 0.539,1.367c0.449,0.655 1.432,1.076 1.432,1.076c0.21,-0.042 0.156,-0.66 0.088,-1.035l3.231,2.199c0.018,0.012 0.565,1.844 0.565,1.844l1.891,1.156c-0,0 -0.162,-1.103 -0.221,-1.49l2.808,1.902c-0,-0 0.092,0.248 0.501,1.228c0.542,1.465 1.982,2.429 2.023,1.098l0.521,0.002l0,2.084l-14.73,-9.846c0,-0 -0.909,-0.815 -1.822,-1.998c-0.99,-1.283 -3.041,-3.484 -3.041,-3.484l-0,0Zm-98.832,0.254c0.941,-0.048 1.104,0.108 0.618,0.59c-0.5,0.494 -1.523,0.218 -1.435,-0.385c0.04,-0.273 0.223,-0.174 0.817,-0.205Zm2.154,0.002c0.304,-0.041 0.566,0.311 0.44,0.858c-0.505,1.502 -0.378,3.808 0.989,5.138l-4.411,3.906c-0.332,0.165 -0.797,0.016 -1.301,-0.393c-1.486,-1.202 -2.037,-2.327 -0.75,-2.254c0.832,0.047 1.893,-0.785 1.592,-1.769c-0.182,-0.593 -0.065,-1.003 0.581,-1.169c0.638,-0.27 1.099,-1.263 0.887,-2.026c-0.173,-0.551 -0.089,-0.719 0.309,-0.669c0.422,0.053 0.864,-0.355 1.148,-1.081c0.137,-0.35 0.334,-0.517 0.516,-0.541Zm-3.615,1.744c0.252,0.016 0.528,0.161 0.792,0.494c0.554,1.102 -0.913,1.625 -1.494,1.114c-0.6,-0.559 -0.054,-1.656 0.702,-1.608Zm108.364,0.453l2.878,1.897l0.343,1.971l-3.108,-1.837l-0.113,-2.031Zm-112.855,0.376c0.25,-0.02 0.532,0.055 0.817,0.262c0.231,0.167 0.863,0.674 1.22,0.89c0.76,0.462 0.878,0.816 0.213,0.855c-0.304,0.019 -0.744,0.506 -0.7,0.867c-0.374,0.356 -1.418,-0.181 -2.125,-1.084c-0.634,-0.809 -0.174,-1.729 0.575,-1.79Zm117.722,0.091l2.925,1.946l0.25,1.907l-2.944,-1.753l-0.231,-2.1Zm-114.554,2.49c0.073,0.003 0.146,0.02 0.215,0.057c0.594,0.293 0.812,0.742 0.244,1.039c-0.493,0.297 -0.801,0.269 -1.111,-0.046c-0.407,-0.346 0.138,-1.071 0.652,-1.05l0,-0Zm114.747,0.539l3.238,2.191l0.065,1.713l-2.904,-1.61l-0.399,-2.294Zm-116.783,0.517c1.302,0.818 0.808,4.679 -0.077,4.666c-1.304,-1 -1.17,-3.68 0.077,-4.666Zm121.914,0.085l1.331,0.857l0,1.727l-1.264,-0.75l-0.067,-1.834Zm-12.613,0.422l13.944,9.292l0,1.693l-12.379,-8.384l-1.565,-2.601Zm12.807,2.55l1.137,0.685l0,1.831l-1.055,-0.719l-0.082,-1.797Zm-9.973,2.139l11.11,7.45l0,1.892l-9.689,-6.486l-1.421,-2.856Zm2.179,4.56l8.931,5.835l0,1.947l-7.845,-5.205l-1.086,-2.577Zm1.448,3.79l7.483,4.925l0,1.857l-6.689,-4.52l-0.794,-2.262Zm1.19,3.523l6.293,4.257l0,0.656l-0.781,0.549l-5.078,-3.322l-0.434,-2.14Zm0.702,3.162l4.113,2.723l-1.291,0.887l-2.426,-1.905l-0.396,-1.705Zm-67.804,1.022c0.077,0.878 -0.227,2.949 0.234,3.728l1.306,-2.088l1.607,-0c-0.726,1.69 -2.568,5.475 -2.568,5.475l6.51,0c0,0 1.655,-3.588 2.691,-5.192l1.529,-0.004l-2.415,5.196l6.138,0l2.747,-5.256l1.966,-0l-2.484,5.256l4.464,0l0.898,-2.072l-2.035,0l2.31,-5.043l-6.592,-0l-2.616,5.043l-1.535,0l2.64,-5.043l-6.479,-0l-2.688,5.043l-1.959,0l2.467,-5.043l-6.136,-0Zm68.435,1.998l1.513,1.041l-1.244,0.731c-0.077,-0.596 -0.121,-1.188 -0.269,-1.772Zm-68.91,15.699l-1.134,1.928l2.287,0c-0.749,1.722 -2.385,4.969 -2.385,4.969l6.295,-0l2.742,-4.969l2.19,0l-2.497,4.969l5.759,-0l2.744,-4.969l1.982,0l-2.431,4.969l6.148,-0l-0.311,-4.479l-1.271,2.461l-1.449,0l2.176,-4.879l-6.189,0l-2.489,4.879l-1.534,0l2.328,-4.879l-6.655,0l-2.507,4.879l-1.813,0l2.285,-4.879l-4.271,0Zm-47.769,3.915l0.096,0.71l-0.818,-0.325l0.722,-0.385Zm-1.622,0.886l2.015,1.26l0.277,1.585l-3.425,-2.23l1.133,-0.615Zm-2.047,1.042l4.647,3.16l0.406,1.876l-6.541,-4.236l1.488,-0.8Zm-1.488,1.906l6.953,4.86l0.697,2.059c0,-0 -5.867,-3.807 -7.65,-5.407l0,-1.512Zm63.536,0.825l-23.424,32.823l37.052,0.344c-6.137,-10.027 -10.842,-21.089 -13.628,-33.167Zm-63.536,1.807l8.106,5.67l1.129,2.297l-9.235,-6.222l0,-1.745Zm0,2.801c0,0 6.681,5.047 9.923,6.678c0.378,0.729 1.613,2.976 1.613,2.976l-11.536,-7.984l0,-1.67Zm0,2.808l12.104,8.353l2.282,3.267l-14.386,-9.789l0,-1.831Zm127.401,1.721l0,80.644l-34.649,0c-3.353,-4.944 -6.523,-9.677 -10.204,-15.151c-0.665,-0.92 -0.606,-2.117 -1.12,-3.12c-0.414,-0.653 -0.526,-2.056 0,-2.905c1.416,-3.066 3.026,-5.887 4.007,-9.164c0.433,-1.446 -2.498,-2.496 -3.992,-3.458c-1.16,-0.77 -1.132,-1.177 -0.703,-2.795c0.397,-1.15 0.436,-1.707 -0.293,-2.098c-0.411,-0.22 -0.421,-0.2 -0.314,-0.786c0.109,-0.595 -0.026,-1.006 -0.749,-1.626c-0.114,-0.098 -0.702,-0.711 -0.966,-1.444c-0.16,-0.447 -0.268,-1.536 0.577,-1.46c4.819,1.884 8.326,-0.994 7.286,-6.063c-0,0 16.116,-9.259 23.397,-15.08c0.969,4.348 3.431,7.787 7.834,7.947c-2.107,2.313 -5.453,2.259 -8.431,2.209c-6.924,-0.118 -9.8,2.866 -10.24,9.311c1.879,-2.721 6.101,-3.033 10.254,-2.869c3.986,0.157 9.52,-1.178 10.88,-6.489c1.922,0.711 3.327,0.714 4.076,-1.755c0.14,-0.329 0.38,-0.71 0.6,-0.795c1.718,-0.668 1.901,-1.982 1.411,-3.525c-0.13,-0.446 -0.12,-0.572 0.478,-1.405c0.413,-0.575 0.522,-1.809 0.147,-2.685c-0.159,-0.373 -0.163,-0.817 -0.114,-1.38c0.088,-1.028 -0.146,-1.8 -0.82,-2.71c-0.553,-0.747 -0.594,-0.764 -0.294,-2.056c0.366,-1.579 0.477,-3.519 0.115,-3.816c-0.517,-0.424 -2.079,-0.552 -2.128,-0.063c-0.158,0.19 -0.107,1.726 -0.159,1.798c-0.329,-0.312 -1.85,-1.347 -1.814,-1.341l5.928,-5.87Zm-127.401,1c4.797,3.182 9.797,7.135 15.566,10.668l1.957,2.352l-1.814,-0.221c-0.039,-0.004 -1.039,-0.131 -1.607,-1.578c-0.447,-1.141 -2.196,-2.427 -2.882,-1.487l-1.739,-1.058c-0,-0 -0.288,-0.47 -0.507,-0.911c-0.901,-1.824 -2.879,-3.358 -2.885,-2.243c-0,0.147 -0.028,0.672 -0.028,0.672l-1.848,-1.023c-0,-0 -0.274,-0.651 -0.4,-0.942c-0.506,-1.171 -2.092,-2.633 -2.268,-2.113c-0.094,0.276 -0.21,0.755 -0.21,0.755l-1.335,-0.694l0,-2.177Zm0,3.266l1.786,1.167l0.081,1.565l-1.867,-1.07l0,-1.662Zm120.768,2.196c1.379,0.673 2.489,1.84 2.416,2.53c-0.043,0.411 -0.341,0.538 -0.861,0.619c-1.27,0.197 -1.336,0.614 -1.323,1.581c0.012,0.802 0.008,0.732 -0.687,1.192c-0.866,0.575 -1.063,0.68 -0.962,1.987c0.067,0.866 0.01,0.805 -0.469,0.96c-1.122,0.218 -1.222,0.485 -1.395,1.219c-0.132,0.786 -0.635,0.881 -0.517,0.228c0.517,-1.498 1.006,-3.503 -0.872,-6.137c-0,0 3.014,-2.901 4.67,-4.179Zm3.62,-0.63c1.886,1.029 0.459,4.771 -0.158,4.722c-1.008,-1.121 -0.435,-3.544 0.158,-4.722Zm-120.079,1.398l2.663,1.764l-0.011,1.591l-2.707,-1.798l0.055,-1.557Zm-4.309,0.04l1.75,1.223l-0.027,1.531l-1.723,-0.919l0,-1.835Zm4.23,2.864l2.884,1.9l-0.007,1.67l-2.916,-1.877l0.039,-1.693Zm118.455,0.343c0.789,-0.028 1.328,0.734 0.777,1.337c-0.138,0.151 -0.31,0.161 -0.596,0.156c-1.28,-0.022 -1.674,-1.06 -0.531,-1.43c0.12,-0.039 0.238,-0.059 0.35,-0.063l0,-0Zm-113.144,0.211l2.766,1.919l0.008,1.573l-2.756,-1.772l-0.018,-1.72Zm105.886,0.438c1.282,1.979 1.711,3.208 0.268,5.852c-0.535,0.692 -0.586,0.817 -0.039,0.908c0.647,0.108 1.369,0.901 1.267,1.209c0,0.37 0.266,0.184 1.168,-0.576c1.095,-1.02 1.658,-1.265 1.507,-0.598c-0.365,1.22 -1.105,1.31 -0.789,2.618c0.073,1.134 0.476,1.052 -0.607,1.534c-2.485,1.103 -5.137,-0.542 -6.854,-4.206c-0.688,-1.468 -0.94,-2.192 -0.505,-2.939c1.157,-1.247 4.554,-3.715 4.584,-3.802l-0,0Zm9.377,0.475c0.647,0.095 1.079,1.801 1.004,2.239c-0.082,0.475 -2.048,-0.7 -2.044,-1.256c-0,-0.429 0.635,-1.043 1.04,-0.983Zm-3.676,1.585c0.22,0.017 0.456,0.105 0.683,0.287c0.593,0.473 0.506,1.21 -0.2,1.474c-0.686,0.256 -1.088,0.179 -1.327,-0.41c-0.32,-0.788 0.186,-1.4 0.844,-1.351Zm2.035,0.485c0.179,0.02 0.463,0.224 0.839,0.471c1.948,1.264 2.41,2.324 1.461,3.319c-0.535,0.562 -0.484,0.509 -1.464,-0.113c-1.924,-1.222 -2.224,-1.358 -1.549,-2.115c0.21,-0.235 0.537,-0.63 0.509,-0.928c-0.046,-0.489 0.026,-0.654 0.204,-0.634Zm-113.643,0.072l2.697,1.796l-0.026,1.64l-2.709,-1.609l0.038,-1.827Zm5.141,0.544l2.081,1.259l-0,1.785l-2.081,-1.408l0,-1.636Zm106.145,1.999c0.162,-0.017 0.738,0.294 1.638,0.921c2.985,2.082 3.757,4.148 1.847,4.898c-0.806,0.316 -1.741,-0.612 -2.287,-1.364c-0.347,-0.477 0.02,-1.09 0.369,-1.612c0.419,-0.625 0.267,-0.933 -0.71,-1.803c-0.764,-0.68 -1.018,-1.024 -0.857,-1.04Zm-1.983,0.064c0.138,-0.013 0.302,-0.009 0.49,0.015c0.119,0.05 0.433,0.161 0.09,0.569c-0.071,0.084 -1.03,0.458 -1.139,-0.122c-0.043,-0.228 0.145,-0.421 0.559,-0.462l-0,0Zm-104.162,1.003l2.081,1.316l-0,1.731l-2.081,-1.246l0,-1.801Zm106.515,0.953c0.26,0.039 0.429,0.208 0.394,0.522c-0,0.362 -0.357,1.179 -0.77,1.469c-1.014,0.715 -1.879,-0.138 -1.147,-1.18c0.406,-0.579 1.089,-0.875 1.523,-0.811Zm-0.296,3.226c0.154,0.019 0.311,0.106 0.58,0.245c1.72,0.89 2.293,2.105 1.115,3.095c-0.866,0.728 -2.204,0.489 -3.434,-0.818c-1.02,-1.083 -0.919,-1.126 0.512,-1.968c0.725,-0.427 0.971,-0.586 1.227,-0.554Zm-3.289,2.514c0,0 0.535,0.169 1.358,1.276c1.058,1.421 -0.818,2.734 -2.684,4.793c-4,2.659 -11.102,0.01 -16.628,3.251c0.131,-5.298 3.531,-7.56 10.724,-7.312c4.314,0.581 7.289,-1.929 7.23,-2.008Zm-107.425,0.036l10.596,7.308c-0.039,0.011 -1.557,1.594 -1.486,4.443c0.085,3.706 4.377,7.75 8.747,4.284c1.292,-0.573 3.294,3.125 4.347,5.987c1.403,3.482 1.091,9.812 3.166,17.422l-11.469,17.118l-23.912,0l-0,-7.015l10.011,-7.16l0,-5.974c6.075,3.033 7.782,8.952 8.052,13.96c6.57,-8.183 9.853,-22.552 -0.667,-34.355c-0.306,5.513 -2.056,9.784 -7.385,13.173l0,-29.191Zm75.304,6.851c1.808,5.124 -5.059,7.411 -7.629,3.538l1.12,-0.414c-0,-0 1.366,0.675 2.195,0.864c-0.289,-0.418 -0.368,-1.185 -0.368,-1.185c0,0 1.648,0.347 2.558,0.303c-0.278,-0.466 -0.661,-0.891 -0.67,-1.378c0.702,-0.076 1.525,0.052 2.284,-0.053c-0.557,-0.494 -0.743,-0.307 -0.746,-1.005l1.256,-0.67Zm-14.611,12.2c-0.33,-0.007 -0.648,0.025 -0.948,0.106c-2.524,0.459 -2.858,3.105 -1.5,4.482c0.873,0.834 2.432,0.811 3.538,0.161c-1.063,0.022 -1.793,0.159 -2.701,-0.483c-1.685,-1.687 0.354,-3.949 2.875,-2.585c3.061,1.599 4.504,1.944 5.519,1.433c0.869,-0.438 0.987,-1.644 0.15,-1.465c-1.688,0.302 -4.623,-1.602 -6.933,-1.649Zm-51.214,1.014c2.313,3.645 3.849,8.906 3.646,12.12l-3.902,-3.26c0.555,-2.707 0.356,-6.092 0.256,-8.86Zm57.858,3.528c-0.728,-0.045 -1.339,0.168 -1.793,0.633c-0.978,1.032 -0.582,4.172 1.872,3.524c-0,0 -1.191,-0.417 -1.461,-1.13c-0.53,-1.399 1.278,-2.749 2.941,-0.814c1.258,1.464 3.252,1.149 3.386,-0.134c0.061,-0.582 -0.223,-0.998 -0.965,-0.724c-0.443,0.163 -0.84,-0.04 -1.488,-0.439c-0.92,-0.568 -1.765,-0.871 -2.492,-0.916Zm-6.077,4.807c-0.989,0.038 -0.667,0.244 0.66,0.746c2.044,0.774 3.418,1.348 2.999,1.708c0.086,-0.007 -3.591,-0.02 -5.34,1.143c-0.354,-0.022 -0.911,-0.216 -1.459,-0.48c-1.777,-0.855 -2.472,0.066 -0.894,1.158c3.232,2.235 5.86,3.332 8.017,3.102c1.41,-0.15 2.184,-0.223 1.342,0.319c-4.064,1.736 -7.352,-1.228 -10.075,-3.044c-0.489,-0.326 -0.693,-0.424 -0.693,-0.424c-0,-0 0.269,0.481 0.607,0.776c3.065,2.661 6.204,4.519 10.415,3.328c0.717,-0.29 0.744,-0.523 1.007,-0.401c1.218,1.098 0.845,-0.656 -0.009,-1.599c-0.507,-0.621 -0.572,-0.609 -0.685,-1.709c-0.072,-0.703 -0.126,-0.778 0.499,-1.068c1.377,-0.64 0.558,-0.755 -0.244,-0.819c-0.488,-0.068 -1.311,-0.651 -2.946,-1.703c-0.98,-0.635 -2.338,-1.067 -3.202,-1.033l0.001,-0Zm2.436,3.312l-0.936,1.673c0,-0 -1.528,-0.265 -1.968,-0.669c-0.138,-0.126 0.007,-0.267 0.288,-0.403c0.906,-0.344 1.644,-0.637 2.616,-0.601Zm0.811,0.35c0.153,-0.012 0.286,0.077 0.327,0.334c-0.048,0.22 -0.401,1.011 -0.636,1.321c-0.199,0.262 -0.407,0.166 -0.621,0.051c-0.452,-0.242 0.098,-0.954 0.491,-1.437c0.116,-0.144 0.286,-0.257 0.439,-0.269l-0,0Zm-51.499,1.27c0.705,3.017 -2.117,11.045 -3.155,11.611c0.056,-0 0.654,-5.544 -0.215,-8.293l3.37,-3.318Zm41.748,0.555c-0.132,-0.022 -0.057,0.168 0.202,0.564c2.102,3.224 5.251,5.555 10.102,5.813c1.464,0.077 3.794,0.219 4.073,0.31c0.685,0.221 0.716,0.395 0.806,0.114c0.52,-1.606 -1.504,-2.982 -5.257,-2.447c-2.647,0.378 -5.661,-1.129 -8.881,-3.65c-0.573,-0.448 -0.913,-0.682 -1.045,-0.704Z" style="fill:#242424;fill-rule:nonzero;"/><path id="path3502-5-8-1" d="M80.15,228.645l1.04,-5.047l9.279,0.452c0,0 1.078,3.168 1.515,4.595l-11.834,-0Zm-21.429,-0.123l4.923,-8.145l6.991,1.9l-1.608,6.368l-10.306,-0.123Zm13.599,0.123l2.118,-8.695c-4,-0.882 -7.772,-1.462 -12.187,-2.655l-7.165,11.34l-4.311,-0.114c3.714,-4.958 10.498,-14.968 10.498,-14.968c15.559,5.362 31.246,6.267 47.039,3.434c-0,0 5.819,7.69 7.904,11.86l-4.103,-0.202l-5.099,-8.553c-3.55,0.386 -7.042,0.859 -10.746,1.014l2.536,7.539l-4.075,-0l-2.311,-7.518c-4.443,-0.172 -8.178,0.176 -13.502,-0.659l-1.878,8.173l-4.718,0.004Zm29.363,0.003l-1.403,-5.347l5.008,-0.586c-0,0 2.322,4.077 3.594,5.93l-7.199,0.003Zm-44.941,-49.679c6.229,-9.484 28.201,-39.886 28.201,-39.886l3.27,-0.025c0,0 -19.721,27.611 -29.21,41.455l-2.261,-1.544Zm-31.764,-14.753l7.671,5.533l0.055,43.077l-7.795,5.495l0.069,-54.105Zm31.844,-70.474l4.643,9.102c-19.728,18.725 -15.858,40.698 -5.289,56.37c-0.003,0.001 -2.706,3.871 -4.344,7.23c-14.3,-9.447 -18.649,-33.998 -18.54,-34.261c15.758,-14.08 17.883,-18.563 23.53,-38.441Zm80.617,67.106c1.019,-13.863 7.787,-22.924 15.372,-28.461l0.388,14.101c-4.965,4.774 -10.216,9.702 -15.76,14.36Zm-20.599,-13.964c17.277,-16.164 17.866,-39.118 5.28,-55.968l5.151,-7.206c7.301,7.828 14.461,16.031 17.508,35.094c-10.941,8.64 -20.61,22.916 -23.182,37.327l-4.757,-9.247Zm-23.808,-18.807l-0.032,-6.606l6.37,-0.032l0,6.595l-6.338,0.043Zm-13.661,-0.051l-0.093,-6.583l6.389,0.046l-0.1,6.673l-6.196,-0.136Zm10.847,-17.387c0,-0 21.632,-30.268 30.037,-41.107l1.786,1.316l-28.48,39.719l-3.343,0.072Zm-49.804,-21.239c-0.021,11.848 -7.603,21.236 -15.346,27.361l0.105,-13.489c4.664,-4.832 9.826,-9.415 15.241,-13.872Zm112.516,-57.172l0.045,52.587l-7.237,-4.366l0.613,-44.1l6.579,-4.121Zm-34.496,3.114c-16.337,-4.255 -31.22,-5.528 -46.867,-2.169c-2.039,-2.437 -8.892,-12.584 -8.892,-12.584l3.955,0.059l5.598,8.975l10.665,-1.396l-2.746,-7.301l4.397,0.019l2.191,7.161c-0.023,-0.057 8.676,0.086 13.51,0.659c0.769,-2.659 2.198,-7.942 2.198,-7.942l4.844,-0.003c-0.622,2.539 -2.294,8.579 -2.294,8.579c3.967,0.553 11.326,2.427 11.393,2.508c2.581,-3.655 4.981,-7.311 7.316,-10.965l4.72,-0.023c-1.39,2.359 -9.726,14.541 -9.988,14.423Zm-3.014,-6.303l-7.218,-1.686l1.885,-6.372l10.089,-0.006l-4.756,8.064Zm-41.446,-2.305l-3.356,-5.914l6.457,-0l2.138,5.208l-5.239,0.706Zm14.658,-1.205l-0.978,-4.709l11.727,-0l-1.198,5.016l-9.551,-0.307Z" style="fill:#3f3f3f;fill-rule:nonzero;"/><path id="path3500-9-6-1" d="M61.82,20.423l10.43,15.079c4.181,-0.364 11.404,-2.369 24.016,-1.187c0,-0 1.782,5.391 2.387,8.038c1.799,7.162 -0.581,14.433 -4.769,18.171c-2.126,1.897 -4.932,4.144 -7.912,5.297c-4.128,1.727 -4.548,1.718 -6.98,1.832c-1.609,0.075 -1.772,0.137 -2.652,0.595c-0.271,0.095 -0.448,0.378 -0.69,0.46c-0.204,0.069 -0.59,-0.011 -0.59,-0.011c-13.415,5.89 -23.917,12.458 -31.85,18.323c-0.093,0.068 -0.151,0.374 -0.24,0.446c-0.649,0.532 -1.248,0.935 -1.881,1.421c-0.087,0.067 -0.281,-0.053 -0.367,0.014c-9.334,7.203 -14.621,13.044 -16.566,14.73l0.192,33.54c-0,-0 4.248,-2.188 6.427,-3.521c1.53,12.986 7.997,25.602 18.206,34.363l-4.429,6.117l-20.409,-14.077l0.284,61.884l10.85,-7.549l0,-6.528c3.234,2.181 6.391,3.031 8.688,12.966c1.835,-3.49 1.674,-8.687 0.852,-12.159c-0.16,0.218 2.439,-2.065 3.594,-4.009l-4.031,-3.583c-0,0 1.043,-8.677 -0.858,-10.425c-1.505,3.939 -2.704,8.114 -8.326,11.153l-0.07,-30.145c2.801,1.777 5.452,3.779 8.222,5.603l0.381,-0.076l2.866,1.966c0,0 -0.305,0.614 -0.582,1.036c-3.482,5.29 2.319,11.779 7.039,7.875c1.848,-1.528 5.317,4.829 5.971,10.943c0.666,3.949 1.025,8.851 2.097,12.282c0.331,1.001 0.2,1.563 -0.505,2.17c-3.617,5.098 -10.887,15.369 -10.887,15.369l5.238,-0l0.378,-0.601l-3.859,-0c3.326,-4.433 6.498,-9.599 9.948,-13.927c12.856,4.847 33.914,5.968 46.631,3.029c2.626,3.689 5.18,7.557 7.705,11.317l-3.657,-0l0.503,0.787l4.948,0l-10.422,-15.37c-7.183,2.141 -24.696,1.307 -24.377,1.129c0,0 -0.048,-0.118 -0.655,-1.862c-3.006,-9.723 -3.285,-18.353 4.257,-25.327c4.006,-3.569 8.483,-5.922 13.48,-5.476c2.234,-0.044 2.276,-0.165 3.208,-0.586c0.513,-0.232 1.575,-0.475 1.575,-0.475l5.064,-2.811l0.668,-0.134l1.455,-0.768l0.301,-0.358l2.353,-1.197l0.265,0.022l3.18,-1.834l0.043,-0.257l1.25,-0.775l0.299,0.316c0.347,0.029 12.47,-7.939 17.525,-12.381l0.313,0.116c5.903,-4.785 13.929,-12.328 16.309,-15.193l-0.128,-14.356l-0.201,-0.175l-0.081,-15.898l-0.461,0l-0.02,-1.96c-2.61,0.968 -5.483,3.396 -5.675,3.295c-1.663,-13.459 -7.848,-25.855 -17.956,-34.959l4.304,-5.955l19.986,13.472l0.054,-3.936l0.249,0c0.245,-15.091 0.379,-54.207 0.379,-54.207l-0.197,-0.019l-0.007,-3.123l-10.216,6.534l-0.144,6.603c-4.53,-1.483 -7.398,-6.933 -8.349,-11.791c-1.32,0.531 -1.651,11.895 -1.651,11.895c-0.206,-0.029 -3.212,2.849 -3.212,2.849c-0,0 2.567,2.88 3.924,4.053c-0.283,0.612 -0.845,9.164 -0.25,10.237c0.272,0.791 1.215,0.678 1.22,-0.154c1.378,-6.743 7.762,-11.168 8.12,-10.76l-0.156,31.089l-11.341,-7.963c2.381,-2.694 2.883,-7.238 -0.116,-9.461c-3.008,-2.229 -5.954,-0.338 -6.65,1.079c-3.682,-2.404 -4.92,-11.311 -5.457,-14.799c-0.134,-1.696 -0.57,-3.999 -1.071,-6.078c-0.314,-1.302 -0.688,-2.547 -0.736,-3.713c-0.021,-0.549 0.043,-0.788 0.541,-1.475l11.029,-15.672l-5.63,-0.019l-0.054,0.097l4.427,0.012l-9.944,14.147c-14.96,-4.708 -30.473,-5.848 -47.069,-2.861l-8.197,-11.551l3.726,-0.014l-0.146,-0.25l-4.678,-0Zm8.652,0.134c0,-0 0.158,0.282 0.158,0.282l6.443,-0.019l-0.097,-0.24c-0,0 -6.49,-0.023 -6.504,-0.023Zm9.554,0.033l0.124,0.341l4.395,0.017l-0.134,-0.334l-4.385,-0.024Zm22.446,0.121l-0.044,0.156l4.844,0.007l0.044,-0.154l-4.844,-0.009Zm-14.846,0.003l0.047,0.2l11.687,-0l0.043,-0.187l-11.777,-0.013Zm22.505,0.106l-0.046,0.163l10.088,-0.008l0.086,-0.155l-10.128,-0Zm42.567,8.62l0.031,2.126l-6.776,4.317c-0.17,9.097 -0.431,44.092 -0.431,44.092l-1.623,-1.067l0.319,-43.822c-0,0 5.995,-3.859 8.48,-5.646l-0,0Zm-17.784,1.712l0.23,0l0.069,0.492l-0.394,0l0.095,-0.492Zm0.481,1.284l0.178,0.663l-0.991,0l0.119,-0.643l0.694,-0.02Zm17.106,0.346l-0,1.388l-5.848,3.66l0,-1.377l5.848,-3.671Zm-18.047,1.155l1.53,0.02l0.303,0.767l-1.973,0l0.14,-0.787Zm-37.549,0.413l1.022,0.153c2.343,5.6 2.948,10.41 3.355,15.414c0.934,6.495 2.821,12.97 4.132,15.737l-1.5,-0c-0.173,-0.022 -3.339,-9.407 -3.999,-14.959c-0.177,-1.099 -0.105,-2.119 -0.162,-3.138c-0.334,-4.293 -0.921,-7.519 -2.848,-13.207Zm1.921,0.225l1.307,0.135c0.912,3.977 2.241,7.729 2.781,11.724c0.863,6.39 1.326,12.921 4.402,19.22l-1.221,-0c-1.867,-4.258 -3.022,-8.716 -3.765,-13.518c-0.582,-2.755 -0.589,-4.822 -0.896,-7.311c-0.375,-2.99 -1.525,-6.792 -2.608,-10.25Zm1.984,0.186l1.306,0.194c0.859,3.949 2.332,8.294 2.722,11.864c0.796,7.269 1.934,14.028 4.223,18.835l-0.913,-0c-3.537,-6.862 -3.593,-12.987 -4.584,-19.417c-0.583,-3.787 -1.82,-7.574 -2.754,-11.476Zm2.082,0.306l1.153,0.179c0.802,3.929 2.242,8.375 2.577,12.361c0.593,7.054 1.841,12.352 4.463,18.047l-1.082,-0c-3.164,-5.547 -3.589,-12.293 -4.574,-19.188c-0.545,-3.808 -1.771,-7.642 -2.537,-11.399Zm49.609,0.009l-0,1.719l-5.848,3.761l0,-1.698l5.848,-3.782Zm-47.723,0.332l1.205,0.188c0.776,3.789 2.22,7.833 2.561,11.523c0.582,6.305 1.741,12.668 4.336,18.535l-1.114,-0c-2.745,-5.924 -3.939,-11.242 -4.459,-18.05c-0.291,-3.818 -1.757,-8.474 -2.529,-12.196Zm31.843,0.02l0.634,1.158l-3.018,0l0.034,-1.146l2.35,-0.012Zm-29.859,0.357l1.433,0.28c1.518,6.044 1.916,11.767 2.95,17.512c1.292,7.139 2.655,10.746 3.768,12.077l-1.186,-0c-2.893,-6.18 -3.92,-12.306 -4.592,-18.672c-0.397,-3.756 -1.625,-7.457 -2.373,-11.197Zm2.185,0.408l1.091,0.22c1.303,4.94 1.89,9.561 2.464,14.033c1.042,8.492 3.867,14.909 4.468,15.208l-1.205,-0c-2.613,-3.618 -3.581,-9.789 -4.866,-18.481c-0.565,-3.821 -1.127,-7.417 -1.952,-10.98Zm1.758,0.354l1.224,0.301c0,-0 1.104,4.347 1.938,10.115c0.695,4.807 1.06,14.266 6.276,19.705c2.604,2.715 7.191,5.072 10.322,2.51c1.337,-1.142 2.199,-2.972 1.395,-4.929c-1.352,-3.277 -5.929,-2.716 -4.406,0.722c0.171,0.824 -0.906,0.86 -1.655,0.055c-0.787,-0.86 -0.591,-1.84 -0.033,-2.742c1.177,-1.9 4.328,-2.097 6.177,-0.399c2.955,2.899 1.678,7.873 -2.064,9.45c-4.31,1.835 -9.866,-1.952 -12.066,-5.565c-3.639,-6.294 -4.2,-12.268 -5.054,-18.624c-0.434,-3.432 -1.27,-7.035 -2.054,-10.599l-0,-0Zm1.845,0.508l1.242,0.303c0.008,0.017 1.363,6.125 1.814,9.744c0.557,4.474 1.171,9.745 3.083,13.814c1.189,2.531 2.921,4.659 4.67,5.899c1.504,1.066 2.852,1.74 4.853,1.303c2.31,-0.504 2.411,-4.085 0.206,-4.094c-1.126,-0.004 -0.392,-1.09 0.543,-1.121c3.322,-0.11 3.418,5.135 0.29,6.306c-3.582,1.34 -7.454,-1.185 -9.851,-4.357c-4.196,-6.528 -4.031,-12.482 -4.952,-17.745c-0.246,-2.773 -1.805,-9.921 -1.898,-10.052Zm25.139,0.182l0.76,1.017l-4.219,-0.019l0.017,-0.968l3.442,-0.03Zm-23.288,0.338l1.189,0.415c0.033,-0 1.194,4.742 1.914,10.347c0.856,5.404 1.135,9.902 3.929,13.805c1.162,1.623 3.356,3.789 4.738,4.047c0.856,0.185 1.742,-0.004 1.96,-0.656c0.356,-1.067 1.271,-0.576 1.29,0.393c-0.007,0.678 -0.5,1.382 -1.34,1.627c-4.106,0.711 -7.863,-4.453 -9.004,-7.072c-1.544,-3.809 -2.204,-8.067 -2.873,-13.367c-0.284,-2.243 -1.64,-9.396 -1.803,-9.539Zm38.1,0.19l-0.021,1.712l-5.827,3.68l0,-1.665l5.848,-3.727Zm-36.311,0.334l1.334,0.364c-0,-0 1.111,4.171 1.774,9.323c0.673,5.224 2.117,11.294 4.816,14.434c0.245,0.3 0.413,0.514 0.519,0.69c0.194,0.427 -0.036,1.149 -0.237,1.149c-4.808,-2.506 -5.945,-12.578 -6.357,-15.982c-0.61,-5.266 -1.849,-9.978 -1.849,-9.978Zm18.137,0.927l4.803,-0l1.011,0.998l-5.761,-0.003l-0.053,-0.995Zm18.174,1.269l-0,1.42l-5.848,3.711l0,-1.452l5.848,-3.679Zm-15.559,0.543c1.43,-0.006 3.148,-0.004 4.299,0.016l2.128,1.256c0.055,0.093 -9.658,0 -9.658,0c0.253,-0.338 0.502,-0.672 0.657,-1.256c0,-0 1.143,-0.011 2.574,-0.016Zm15.559,1.709l-0,1.703l-5.848,3.671l0,-1.599l5.848,-3.775Zm-19.258,0.322c0.97,0.021 7.535,0.085 10.126,0.113l-0,0.879l-11.708,-0l1.582,-0.992Zm-1.781,1.928l11.907,0.031l-0,1.193l-10.711,-0l-1.196,-1.224Zm21.039,0.226l-0,1.778l-5.848,3.628l0,-1.685l5.848,-3.721Zm-19.098,1.906c0,-0 6.644,-0.015 9.966,-0l-1.95,0.989l-6.558,-0l-1.458,-0.989Zm19.098,0.582l-0,1.675l-5.848,3.683l0,-1.652l5.848,-3.706Zm-17.699,1.28l5.684,-0l-1.108,1.079l-4.737,-0.067l0.161,-1.012Zm17.699,1.176l-0,1.797l-5.848,3.578l0,-1.556l5.848,-3.819Zm-17.927,0.656l4.03,0l-0.718,0.923l-3.421,0l0.109,-0.923Zm-35.186,0.528c0.458,4.897 2.272,9.874 3.894,14.503l-1.289,-0c0.064,0.087 -2.526,-5.771 -3.393,-11.263c0.138,-0.159 0.856,-3.138 0.788,-3.24Zm34.93,1.164l3.011,-0l-0.655,1.218l-2.453,-0.004l0.097,-1.214Zm18.183,0.276l-0,1.571l-5.848,3.602l0,-1.431l5.848,-3.742Zm-18.28,1.59l1.995,0l-0.47,1.096l-1.547,0l0.022,-1.096Zm18.28,0.847l-0,1.676l-5.848,3.633l0,-1.618l5.848,-3.691Zm-54.413,0.301c0.587,3.838 3.179,10.045 3.369,10.325l-1.105,-0c-0.132,0.396 -3.055,-8.532 -3.055,-8.532c0,-0 0.234,-0.589 0.791,-1.793Zm36.114,0.755l1.183,0l-0.202,0.67l-0.957,0.024l-0.024,-0.694Zm0.106,1.482l0.615,-0l-0.147,0.602l-0.384,0l-0.084,-0.602Zm18.193,0.03l-0,1.355l-5.848,3.706l0,-1.282l5.848,-3.779Zm-55.764,0.15c0.887,2.639 1.76,5.334 2.81,7.908l-1.309,-0c-0.939,-2.171 -1.771,-5.029 -2.307,-6.828l0.806,-1.08Zm-1.319,1.759l2.177,6.149l-1.236,-0c-0.725,-1.542 -1.335,-3.311 -1.934,-5.042c0,-0 0.444,-0.574 0.993,-1.107Zm57.083,0.382l-0,1.607l-5.848,3.624l0,-1.385l5.848,-3.846Zm-58.555,1.155c0.678,1.452 1.023,3.094 1.755,4.612l-1.527,-0c-0.55,-1.37 -1.024,-3.866 -1.024,-3.866l0.796,-0.746Zm-1.401,1.195c0.285,1.142 0.524,2.238 0.974,3.417l-1.424,-0c-0.42,-0.935 -0.455,-2.672 -0.455,-2.672l0.905,-0.745Zm59.956,0.227l-0,1.681l-5.848,3.521l0,-1.561l5.848,-3.641Zm-61.397,0.93c0.053,0.854 0.204,1.505 0.355,2.26l-1.288,-0c-0.101,-0.443 -0.153,-0.998 -0.142,-1.552l1.075,-0.708Zm-1.743,1.147c-0,0 0.09,1.121 0.101,1.113l-2.025,-0c0.692,-0.351 1.924,-1.113 1.924,-1.113Zm63.14,0.632l-0,1.344l-5.848,3.651l0,-1.362l5.848,-3.633Zm-69.516,2.127l35.132,0.05c0.425,0.539 0.757,1.08 1.483,1.619c-13.374,0.089 -26.614,0.276 -43.289,0l1.842,-0.958c1.457,-0.256 3.216,-0.148 4.832,-0.711l0,-0Zm69.516,0.198l-0,1.479l-5.848,3.547l0,-1.433l5.848,-3.593Zm-98.859,1.42c-2.825,1.254 -5.461,1.562 -7.431,1.402c-4.242,-0.345 -10.732,1.432 -12.037,5.515c-0.41,1.442 -0.415,1.482 0.363,2.216c0.387,0.364 0.763,0.64 0.835,0.613c0.682,-0.607 1.586,-1.733 2.555,-2.062c3.79,-1.372 7.217,-0.26 10.699,-1.217c2.804,-0.771 5.328,-3.06 5.016,-6.467Zm-0.121,0.369c-0.475,5.646 -6.581,6.382 -9.262,6.222c-5.438,-0.326 -7.58,1.3 -8.442,2.31c-0.283,0.27 -0.449,0.205 -0.404,-0.041c0.631,-3.127 5.674,-3.244 8.213,-3.21c6.222,0.284 7.798,-2.72 7.622,-2.749c-0.472,0.212 -0.821,0.398 -1.299,0.626c-0.206,0.085 -0.163,-0.041 -0.701,-0.353c-0.008,0.041 -0.622,1.439 -1.417,0.113c0.021,0.066 -0.566,1.178 -1.65,0.14c0.007,0.111 -0.657,1.063 -1.718,0.089c-0.997,0.856 -1.472,0.384 -1.901,-0.217c-0.314,0.189 -1.238,1.439 -2.008,0.094c-0.822,0.523 -1.165,1.092 -1.872,0.749c-1.648,0.296 -3.075,1.989 -3.656,3.542c-0.182,0.533 -0.549,0.618 -0.593,0.032c-0.196,-1.619 2.467,-4.427 5.138,-5.202c2.077,-0.603 3.493,-1.037 8.059,-0.862c2.596,0.099 5.891,-1.283 5.891,-1.283l0,-0Zm66.65,0.427l1.646,1.119l-28.659,39.699l-2.529,0l29.542,-40.818Zm-45.972,0.027l3.258,-0l-0,5.396l-2.809,-0l-1.004,-1.495c0.26,0.153 0.561,0.243 0.883,0.243c0.965,-0 1.747,-0.783 1.747,-1.749c-0,-0.966 -0.782,-1.746 -1.747,-1.746c-0.964,0 -1.746,0.78 -1.746,1.746c-0,0.086 0.007,0.169 0.019,0.251l-1.049,-1.559c-0,0 0.445,-0.267 1.509,-0.742c0.276,-0.123 0.939,-0.345 0.939,-0.345Zm10.043,-0l5.519,-0l-0,5.396l-5.519,-0l-0,-5.396Zm12.093,-0l5.715,-0l0,5.396l-5.715,-0l0,-5.396Zm12.339,-0l5.711,-0l0,5.396l-5.711,-0l0,-5.396Zm43.741,0.129l0.086,1.683l-5.848,3.56l0,-1.665l5.762,-3.578Zm-41.093,0.557c-1.021,-0 -1.853,0.827 -1.853,1.849c0,1.022 0.832,1.85 1.853,1.85c1.02,-0 1.848,-0.828 1.848,-1.85c-0,-1.022 -0.828,-1.849 -1.848,-1.849Zm-24.308,0.097c-1.02,-0 -1.847,0.827 -1.847,1.849c0,1.022 0.827,1.85 1.847,1.85c1.02,-0 1.848,-0.828 1.848,-1.85c-0,-1.022 -0.828,-1.849 -1.848,-1.849Zm12.042,0.037c-1.02,-0 -1.848,0.823 -1.848,1.845c-0,1.022 0.828,1.854 1.848,1.854c1.02,-0 1.848,-0.832 1.848,-1.854c-0,-1.022 -0.828,-1.845 -1.848,-1.845Zm-18.275,0.244c0.856,-0 1.549,0.694 1.549,1.551c0,0.858 -0.693,1.552 -1.549,1.552c-0.856,0 -1.55,-0.694 -1.55,-1.552c0,-0.857 0.694,-1.551 1.55,-1.551Zm36.719,0.054c0.368,0 0.703,0.141 0.956,0.369l-1.687,2.297c-0.418,-0.251 -0.698,-0.707 -0.698,-1.23c0,-0.793 0.638,-1.436 1.429,-1.436Zm-12.223,0.006c0.856,0 1.551,0.695 1.551,1.552c-0,0.857 -0.695,1.553 -1.551,1.553c-0.856,0 -1.549,-0.696 -1.549,-1.553c-0,-0.857 0.693,-1.552 1.549,-1.552Zm-12.036,0.002c0.856,-0 1.549,0.695 1.549,1.553c0,0.857 -0.693,1.552 -1.549,1.552c-0.856,-0 -1.55,-0.695 -1.55,-1.552c0,-0.858 0.694,-1.553 1.55,-1.553Zm-18.714,0.113c0.639,-0 1.155,0.517 1.155,1.156c0,0.639 -0.516,1.161 -1.155,1.161c-0.638,0 -1.158,-0.522 -1.158,-1.161c0,-0.639 0.52,-1.156 1.158,-1.156Zm-3.544,0.061l-0,0.002c9.846,12.56 15.078,25.612 17.38,39.489l-1.651,0c-2.736,-15.093 -8.895,-28.435 -17.248,-38.882l1.519,-0.609Zm40.339,0.012c0.675,0 1.224,0.546 1.224,1.223c-0,0.676 -0.549,1.227 -1.224,1.227c-0.676,-0 -1.225,-0.551 -1.225,-1.227c0,-0.677 0.549,-1.223 1.225,-1.223Zm-24.308,0.097c0.675,0 1.225,0.546 1.225,1.223c0,0.676 -0.55,1.227 -1.225,1.227c-0.675,-0 -1.223,-0.551 -1.223,-1.227c0,-0.677 0.548,-1.223 1.223,-1.223Zm12.042,0.034c0.675,-0 1.223,0.546 1.223,1.223c-0,0.676 -0.548,1.227 -1.223,1.227c-0.675,-0 -1.226,-0.551 -1.226,-1.227c0,-0.677 0.551,-1.223 1.226,-1.223Zm30.638,0.879c0.649,4.971 -0.633,8.179 -4.418,8.699c-4.825,0.664 -5.452,1.028 -5.479,5.605c-0.032,5.425 -0.832,6.993 -4.667,7.421c-4.316,0.483 -5.318,0.995 -4.931,6.369c0.282,3.922 -1.261,5.59 -4.584,6.318c-2.598,0.569 -4.848,1.434 -5.812,4.057l-2.375,0c0.617,-4.131 4.762,-6.066 7.419,-6.203c2.865,-0.68 3.463,-1.642 2.999,-6.671c-0.349,-3.787 1.038,-4.937 5.478,-5.802c3.55,-0.701 4.419,-1.722 4.226,-4.631c-0.414,-6.236 -0,-7.174 3.534,-7.932c1.803,-0.428 4.739,-0.619 5.858,-1.999c1.273,-1.569 0.948,-2.904 0.833,-4.832l1.919,-0.399Zm22.807,0.166l-0,1.631l-5.848,3.612l0,-1.587l5.848,-3.656Zm-85.928,0.965c-1.25,5.407 3.049,6.582 5.665,7.495c3.043,1.061 3.783,2.6 3.437,7.972c-0.261,4.064 0.185,4.962 2.812,6.357c4.018,2.077 5.098,5.029 3.314,9.35c-1.101,2.664 -0.524,3.839 0.173,6.164l-1.948,0c-0.142,0.045 -1.788,-3.347 -0.384,-6.517c1.664,-3.756 1.616,-5.642 -2.092,-7.332c-2.87,-1.307 -3.751,-2.54 -3.929,-5.231c-0.075,-1.133 -0.066,-1.697 0.199,-4.16c0.333,-3.106 -0.772,-4.441 -5.355,-6.148c-2.042,-0.76 -3.43,-2.53 -3.848,-5.337c-0.117,-0.786 -0.012,-1.691 -0.012,-1.691l1.968,-0.922Zm68.543,0.587l17.43,11.618l-0.121,2.583l-18.491,-12.376l1.182,-1.825Zm-11.232,0.257c0.844,-0 1.528,0.684 1.528,1.528c-0,0.845 -0.684,1.53 -1.528,1.53c-0.843,-0 -1.525,-0.685 -1.525,-1.53c-0,-0.844 0.682,-1.528 1.525,-1.528Zm-54.833,0.667c0.765,-0 1.381,0.619 1.381,1.386c0,0.766 -0.616,1.388 -1.381,1.388c-0.766,0 -1.387,-0.622 -1.388,-1.388c0,-0.767 0.622,-1.386 1.388,-1.386Zm83.398,0.163l-0.057,1.556l-5.739,3.555l0,-1.556l5.796,-3.555Zm-83.441,0.439l-0.368,0.637l-0.368,0.636l1.472,0l-0.368,-0.636l-0.368,-0.637Zm6.251,0.581l39.804,-0l-1.019,1.375l-37.792,0l-0.993,-1.375Zm-13.768,0.068c5.27,6.882 10.451,14.092 14.446,27.454l-1.704,0.656c-3.298,-10.754 -8.372,-19.81 -14.354,-27.199l1.612,-0.911Zm91.01,1.225l-0,1.705l-4.397,2.68l-1.295,-0.845l5.692,-3.54Zm-93.341,0.184l0.778,1.024c-1.579,1.405 -4.541,2.811 -4.91,4.634c-0.389,1.924 1.34,3.713 3.068,3.593c2.218,-0.155 3.913,-1.719 5.843,-2.926l0.67,0.989c-0,-0 -3.345,2.507 -5.308,3.078c-4.306,1.254 -7.52,-4.214 -4.338,-7.46c0.487,-0.497 1.513,-1.162 2.331,-1.692c0.839,-0.543 1.866,-1.24 1.866,-1.24Zm17.723,0.677l36.588,0.218l-23.366,32.272l-1.037,0c-1.811,-11.966 -6.304,-22.759 -12.185,-32.49Zm-15.954,1.357l2.137,2.992c0,-0 -1.393,1.334 -3.694,2.595c-1.846,1.011 -3.842,-0.827 -2.681,-2.484c1.192,-1.645 4.238,-3.103 4.238,-3.103Zm91.572,0.305l-0,1.561l-2.534,1.555l-1.158,-0.741l3.692,-2.375Zm-91.748,1.2c-1.06,0.014 -2.72,1.154 -3.36,2.199c-0.247,0.428 -0.158,0.787 0.069,1.081c0.346,0.446 0.755,0.42 1.972,-0.23c2.484,-1.326 2.95,-2.113 1.855,-2.89c-0.151,-0.108 -0.333,-0.157 -0.535,-0.16l-0.001,-0Zm-0.055,0.614c0.127,-0.01 0.257,0.012 0.382,0.045c0.449,0.12 0.298,0.712 -0.151,0.838c-0.099,-0.156 -0.845,-0.177 -0.795,0.582c-0.181,0.43 -0.174,0.398 -0.721,0.458c-0.362,-0.087 -0.603,0.163 -0.674,0.322c-0.377,0.202 -0.839,0.139 -0.925,-0.089c-0.084,-0.222 0.226,-0.859 0.488,-0.857c0.126,0.01 0.351,-0.178 0.581,-0.334c-0.008,-0.415 0.48,-0.476 0.621,-0.474c0.139,0.029 0.604,0.035 0.829,-0.346c0.112,-0.094 0.237,-0.135 0.365,-0.145l-0,-0Zm91.803,0.399l-0,2.406l-1.837,-1.176l1.837,-1.23Zm-101.521,0.302c6.664,7.882 11.463,16.271 14.517,27.881l-1.336,0.925c-2.018,-8.14 -5.126,-16.742 -14.322,-27.925l1.141,-0.881Zm77.96,0.132c3.017,2.567 15.381,14.225 17.737,34.915l-1.654,1.015c-1.328,-10.92 -5.616,-23.44 -17.151,-34.537l1.068,-1.393Zm-5.96,0.719c0.843,-0 1.525,0.684 1.526,1.528c-0,0.844 -0.683,1.528 -1.526,1.528c-0.843,0 -1.528,-0.684 -1.528,-1.528c0,-0.844 0.685,-1.528 1.528,-1.528Zm-73.855,0.596c0,0 1.4,1.442 1.398,1.786c-0.008,0.679 -0.544,1.065 -3.763,2.239c-0.543,0.199 -2.919,0.748 -2.919,0.748l0.056,-1.18c1.213,-0.438 4.326,-1.195 4.564,-1.888c0.117,-0.273 -0.462,-0.963 -0.34,-0.963l1.004,-0.742Zm22.201,0.294c0.765,0 1.383,0.624 1.383,1.39c-0,0.767 -0.618,1.389 -1.383,1.389c-0.765,0 -1.388,-0.622 -1.388,-1.389c0,-0.766 0.623,-1.39 1.388,-1.39Zm56.086,0.397c10.072,9.856 15.615,22.035 16.911,34.612c-11.731,9.557 -19.7,21.572 -22.866,36.602c-1.565,-2.613 -2.897,-5.618 -4.344,-8.554c15.652,-13.779 18.947,-38.592 5.409,-55.987l4.89,-6.673Zm-56.045,0.214l-0.368,0.637l-0.368,0.636l1.472,0l-0.368,-0.636l-0.368,-0.637Zm-5.556,1.665l0.705,1.095c-1.275,1.2 -5.15,2.286 -5.498,4.91c-0.192,1.897 1.147,3.898 3.036,3.59c2.174,-0.354 3.531,-1.237 5.468,-2.348l0.55,1.143c0,0 -1.542,1.257 -4.513,2.348c-2.794,1.027 -5.435,-0.721 -5.931,-3.954c-0.361,-2.35 0.662,-3.61 4.738,-5.927c0.458,-0.243 1.445,-0.857 1.445,-0.857Zm47.994,0.519c0.844,0 1.526,0.687 1.526,1.531c0,0.845 -0.682,1.529 -1.526,1.529c-0.843,-0 -1.527,-0.684 -1.527,-1.529c0,-0.844 0.684,-1.531 1.527,-1.531Zm-62.245,0.06l0.921,0.87c0,0 -0.396,0.586 -2.667,1.955c-2.042,1.231 -2.253,1.031 -1.236,1.891c1.895,1.604 4.524,5.156 4.509,6.074c-0.013,0.884 -0.803,1.699 -2.318,2.382c-0.83,0.374 -4.115,1.547 -4.597,1.631c-0.959,0.105 -1.229,0.491 -0.269,1.364c1.629,1.872 3.019,5.878 2.46,7.099c-0.63,1.376 -1.385,1.609 -7.419,1.886c-0.688,0.031 -1.016,-0.163 -0.643,0.718c0.271,0.641 0.555,1.521 1.093,4.238c0.48,2.424 0.398,3.514 -0.541,4.014c-0.54,0.287 -4.738,0.185 -6.472,-0.156c-1.984,-0.391 -2.198,-0.417 -1.877,0.877c0.416,1.788 0.674,6.578 -0.676,7.502c-0.561,0.367 -1.165,0.278 -3.629,-0.554c-1.572,-0.53 -2.934,-1.139 -2.934,-1.139l0.027,-1.484c1.282,0.528 4.793,2.046 5.792,1.567c1.185,-1.7 -0.46,-7.661 -1.089,-8.938c-0.759,-1.525 0.034,-1.856 1.782,-0.911c0.917,0.647 8.818,3.766 8.369,0.974c-0.481,-2.649 -1.339,-5.664 -3.006,-7.558c-1.541,-1.751 -0.774,-2.468 0.942,-1.7c3.036,1.359 9.307,1.027 8.995,-0.382c-0.414,-2.291 -2.49,-5.396 -5.333,-7.803c-0.79,-0.67 -0.82,-0.957 0.112,-1.122c2.656,-0.211 10.256,-0.993 9.193,-2.78c-0.911,-1.463 -2.129,-3.082 -3.166,-3.953c-1.703,-1.43 -3.42,-2.05 -4.182,-2.347l0.048,-1.096c3.462,-0.288 5.261,-1.33 7.809,-3.119l0.002,0Zm-8.378,1.079c-1.241,13.033 -6.684,23.772 -17.919,31.262l-0.062,-1.461c9.877,-7.432 14.618,-17.994 15.903,-28.215l2.078,-1.586Zm9.539,0.616l0.923,0.83c-0,0 -0.238,0.361 -1.567,1.426c-1.035,0.797 -0.674,0.482 0.031,1.431c0.627,0.753 1.742,2.267 1.742,2.267l-0.331,2.014c-1.17,-1.668 -2.141,-2.882 -3.876,-4.665c-0.882,-0.91 -0.831,-0.935 0.428,-1.591c0.943,-0.523 1.711,-1.157 2.65,-1.712l0,-0Zm14.348,0.169c0.008,-0.002 1.862,3.293 1.86,3.588c-2.179,1.362 -4.941,3.616 -6.338,1.107c-0.427,-0.805 -0.155,-1.857 0.949,-2.582c1.474,-1.075 3.391,-2.08 3.529,-2.113Zm10.872,1.128c0.765,0 1.383,0.618 1.383,1.385c0,0.766 -0.618,1.39 -1.383,1.39c-0.765,-0 -1.387,-0.624 -1.387,-1.39c-0,-0.767 0.622,-1.385 1.387,-1.385Zm-11.205,0.115c-1.319,0.349 -2.613,1.53 -3.34,2.05c-0.264,0.189 -0.055,1.14 0.199,1.467c0.326,0.419 0.927,0.35 1.646,-0.05c0.302,-0.168 0.848,-0.443 1.21,-0.61c1.014,-0.469 1.438,-0.818 1.401,-1.21c-0.163,-0.526 -0.577,-1.685 -1.116,-1.647Zm-26.554,0.506c0.285,1.462 -0.596,4.032 -1.095,5.48c-2.955,3.871 -7.24,5.851 -11.314,7.203c-0.905,0.301 -2.121,0.149 -2.121,0.149c5.636,-5.809 10.471,-10.068 14.53,-12.832Zm37.758,0.048l-0.368,0.636l-0.368,0.637l1.471,-0l-0.367,-0.637l-0.368,-0.636Zm-11.061,0.093c0.209,0.037 0.341,0.371 0.45,0.733c-0.636,0.344 -0.988,0.052 -0.906,0.535c-0,-0 0.062,0.751 -0.868,0.769c-0.227,-0.1 -0.623,-0.081 -0.814,0.113c-0.651,0.269 -1.22,-0.302 -0.512,-0.626c0.192,-0.088 0.665,-0.237 0.795,-0.529c0.067,-0.362 0.367,-0.651 0.694,-0.45c0.174,0.012 0.563,0.04 0.689,-0.237c0.194,-0.247 0.347,-0.331 0.472,-0.308Zm-38.251,0.611c-0.112,0.009 -0.221,0.03 -0.331,0.047c-0.274,0.258 -0.71,4.293 -0.425,4.584c0.396,0.403 1.487,0.514 1.591,0.033c0.342,-1.583 0.258,-2.765 0.422,-4.1c-0.547,-0.523 -0.919,-0.591 -1.257,-0.564l0,0Zm0.423,0.432c0.599,0.247 0.307,2.389 -0,3.379c-0.16,0.6 -0.623,0.464 -0.798,-0.089c-0.182,-0.574 -0.03,-2.206 0.313,-2.875c0.184,-0.316 0.347,-0.447 0.487,-0.415l-0.002,0Zm26.098,0.012l0.964,1.199c-2.044,19.446 -15.908,36.27 -30.713,42.94l-0.045,-1.29c16.937,-8.911 27.13,-23.746 29.794,-42.849l-0,-0Zm67.005,0.081l1.835,2.529l-2.629,0.082l0.794,-2.611Zm-78.745,0.823c0.908,-0 5.731,2.974 5.086,4.455c-0.513,1.179 -4.55,1.273 -6.4,1.108l0.278,-1.134c-0,-0 0.564,0.196 2.714,-0.033c2.259,-0.151 2.093,-0.928 -0.495,-2.57c-1.115,-0.698 -1.372,-0.87 -1.372,-0.87l0.189,-0.956Zm13.367,1.594c1.495,2.524 2.91,5.368 4.24,8.554c-18.238,17.24 -16.823,40.718 -5.324,56.128l-4.954,6.698c-9.908,-9.47 -15.303,-21.119 -17.125,-33.492c14.462,-10.423 21.256,-25.978 23.163,-37.888Zm67.725,0.764l1.089,2.086l-2.615,-0.045l1.526,-2.041Zm-11.293,1.045c0.843,0 1.527,0.684 1.527,1.528c0,0.845 -0.684,1.526 -1.527,1.526c-0.843,-0 -1.527,-0.681 -1.527,-1.526c-0,-0.844 0.684,-1.528 1.527,-1.528Zm-42.434,0.412l0.519,1.184c0.024,0.148 -3.66,1.348 -4.886,2.833c-2.534,3.068 0.549,5.751 3.216,4.936c1.457,-0.444 2.527,-1.051 3.972,-1.789l0.256,0.767c-1.914,1.035 -3.519,2.216 -5.615,2.26c-3.603,0.075 -5.64,-4.741 -2.541,-7.346c1.579,-1.329 3.248,-1.907 5.079,-2.845Zm47.696,0.734c11.895,17.187 3.751,36.02 -3.929,42.683l-0.206,-2.022c12.932,-14.756 8.433,-31.989 3.045,-39.65l1.09,-1.011Zm7.654,0.772l0.934,2.123l-2.761,-0.292l1.827,-1.831Zm-47.944,0.693c0.765,0 1.386,0.624 1.386,1.391c-0,0.766 -0.621,1.385 -1.386,1.385c-0.766,0 -1.385,-0.619 -1.385,-1.385c-0,-0.767 0.619,-1.391 1.385,-1.391Zm38.871,0.272c10.426,15.173 4.611,39.368 -15.276,46.738l-0.1,-1.698c20.277,-8.492 22.269,-31.099 14.121,-43.855l1.255,-1.185Zm-45.193,0.093l1.317,3.564c-1.657,1.112 -2.777,1.494 -4.164,1.753c-1.963,0.366 -3.098,-2.125 -1.48,-3.17c1.424,-0.92 2.664,-1.589 4.327,-2.147Zm-33.813,0.013c0.245,-0.011 -0.013,0.596 -0.643,2.122c-1.386,3.364 -1.48,3.436 -4.972,3.99c-1.817,0.288 -3.171,0.361 -4.462,0.237c-1.949,-0.188 -2.783,-0.74 -1.52,-1.006c3.661,-0.806 7.708,-2.706 10.341,-4.545c0.686,-0.493 1.089,-0.79 1.256,-0.798Zm40.146,0.287l-0.368,0.636l-0.369,0.636l1.473,0l-0.368,-0.636l-0.368,-0.636Zm26.119,0.128c0.947,-0 1.717,0.769 1.718,1.717c-0,0.949 -0.771,1.717 -1.718,1.717c-0.946,-0 -1.712,-0.768 -1.712,-1.717c-0,-0.948 0.766,-1.717 1.712,-1.717Zm-51.593,0.474l-0.38,1.323c0,-0 -2.115,1.119 -3.116,1.541c-0.766,0.311 -0.82,0.379 -0.574,1.089c0.495,1.419 1.451,3.179 1.451,3.179l-0.885,2.006c-0.539,-1.804 -1.107,-3.71 -2.099,-5.39c-0.941,-1.315 -1.117,-1.477 0.347,-1.752c1.891,-0.638 3.595,-1.1 5.256,-1.996Zm18.654,0.431c-1.034,0.045 -3.196,0.915 -3.41,1.749c-0.122,0.47 0.012,1.129 0.41,1.277c1.076,0.4 3.236,-0.487 3.805,-1.297c0.177,-0.249 -0.092,-0.767 -0.282,-1.09c-0.146,-0.247 -0.117,-0.657 -0.523,-0.639Zm-0.012,0.695c0.039,-0.002 0.079,0.003 0.119,0.015c0.176,-0.016 0.814,0.792 0.098,0.724c-0.247,-0.023 -0.472,0.07 -0.674,0.281c-0.025,0.388 -0.581,0.535 -0.849,0.402c-0.2,-0.098 -0.479,0.105 -0.508,0.225c-0.402,0.291 -0.911,0.277 -0.976,0.071c-0.136,-0.145 0.269,-0.739 0.623,-0.717c0.076,0.004 0.327,-0.166 0.562,-0.369c0.112,-0.406 0.54,-0.336 0.809,-0.315c0.299,0.002 0.526,-0.304 0.796,-0.317l0,-0Zm56.074,0.076l0.766,2.127l-2.734,-0.244l1.968,-1.883Zm-12.66,0.468c0.918,0.26 1.428,1.121 0.922,1.982c-0.566,0.722 -1.087,0.729 -1.912,0.691c0.675,0.801 0.974,1.909 0.317,2.635c-1,1.021 -2.929,-0.545 -2.786,-0.688l3.459,-4.62Zm-74.231,0.778c0,0 4.206,3.63 4.236,5.257c0.012,0.62 -0.186,0.82 -0.681,0.985c-1.653,0.548 -6.252,-0.862 -6.252,-0.862l0.591,-1.124c0.724,0.2 4.288,1.123 4.594,0.669c0.318,-0.472 -2.977,-3.692 -2.984,-3.696l0.496,-1.229Zm20.878,1.517l0.505,1.756l-1.72,-0.429l1.215,-1.327Zm67.176,0.315l0.449,2.426l-2.755,-0.644l2.306,-1.782Zm-52.51,0.038l0.41,1.424c-18.272,8.487 -23.609,27.981 -14.08,44.067l-1.077,1.483c-12.755,-20.704 0.165,-41.719 14.747,-46.974Zm-41.555,1.431c0.299,0.014 0.442,0.135 0.375,0.417c0,0.292 -1.846,2.651 -2.444,3.182c-1.295,0.524 -6.295,-1.568 -7.042,-3.187c-0.147,-0.475 0.347,-0.267 1.454,-0.042c2.667,0.762 5.377,-0.097 7.307,-0.349c0.133,-0.018 0.251,-0.026 0.35,-0.021l0,0Zm48.628,0.031c0.765,-0 1.384,0.619 1.384,1.386c0,0.766 -0.619,1.388 -1.384,1.388c-0.766,0 -1.385,-0.622 -1.385,-1.388c0,-0.767 0.619,-1.386 1.385,-1.386Zm-23.536,0.029l0.247,2.161l-2.121,-0.124l1.874,-2.037Zm23.505,0.654l-0.368,0.638l-0.368,0.636l1.471,0l-0.367,-0.636l-0.368,-0.638Zm-57.528,1.026c1.391,1.252 3.435,2.287 5.247,2.648c1.128,0.249 0.802,0.365 -0.244,1.448c-0.979,1.024 -0.899,1.154 -1.896,0.648c-1.662,-0.845 -3.471,-2.764 -3.399,-3.808c0.031,-0.434 0.106,-0.938 0.292,-0.936Zm103.787,0.234l0.345,2.304l-2.605,-0.902l2.26,-1.402Zm-72.352,0.83l0.849,2.065l-2.31,-0.066l1.461,-1.999Zm57.162,0.492c1.088,-0.05 1.511,0.793 1.518,1.48c0,0.289 -0.071,0.775 -0.071,0.775c1.358,-0.866 3.162,-0.155 3.108,1.244c-0.076,1.972 -1.039,1.991 -2.612,1.73c0.861,1.431 -0.161,2.808 -1.78,2.281c-1.476,-0.481 -1.19,-2.04 -0.501,-2.964c-3.481,0.568 -4.412,5.53 -0.391,7.005c-0.808,-1.254 -1.011,-2.751 0.743,-3.002c1.629,-0.234 2.32,1.003 1.616,2.492c1.53,-0.533 2.972,0.347 2.511,1.84c-0.556,1.803 -2.157,1.679 -3.101,0.58c0.678,1.635 -0.89,2.811 -2.073,2.178c-1.866,-0.998 -0.943,-2.779 0.307,-3.253c-4.805,-0.496 -5.921,6.16 -2.379,7.109c-0.91,-0.571 -1.011,-3.191 1.065,-2.832c2.039,0.411 1.552,2.307 0.244,3.17c1.579,-0.337 3.058,1.044 2.097,2.441c-1.132,1.647 -2.695,0.473 -3.275,-0.648c0.182,1.503 -0.771,2.461 -1.998,1.897c-2.108,-0.967 -0.552,-3.391 1.096,-3.236c-3.343,-1.978 -7.888,2.173 -5.211,5.61c-0.104,-1.561 0.673,-2.843 1.744,-2.666c0.942,0.106 1.766,1.182 1.501,2.028c-0.247,0.721 -1.068,1.274 -1.928,1.447c2.557,0.284 2.775,2.096 1.716,2.989c-1.799,1.516 -2.634,-0.234 -3.052,-1.258c-0.365,2.544 -3.36,1.679 -3.463,-0.158c-0.102,-2.014 2.218,-1.973 2.647,-1.859c0.054,-0.07 -2.131,-1.988 -4.104,-2.249l-0,-0.723c7.78,-4.887 10.803,-13.781 8.334,-21.871l0.468,-0.539c1.268,0.971 2.542,3.051 4.888,2.288c-0,-0 -0.547,-0.383 -0.817,-0.65c-1.208,-1.192 -0.527,-2.598 1.152,-2.676l0.001,0Zm-51.262,1.476l0.807,1.184c-11.797,13.845 -9.648,29.685 -2.864,40.172l-0.987,1.196c-6.004,-7.711 -10.907,-26.406 3.044,-42.552Zm-37.39,0.172c0.975,0.563 1.626,1.414 2.536,2.157c0.702,0.57 0.692,0.672 0.111,1.214c-1.306,1.262 -2.04,-0.566 -2.463,-1.313c-0.517,-1 -0.57,-2.021 -0.184,-2.058Zm45.875,0.057c0.828,0.018 1.583,0.735 1.57,1.684c-0.016,0.308 0.007,0.556 0.007,0.556c0,-0 0.255,-0.315 0.461,-0.694c1.007,-1.687 3.174,-0.716 2.818,1.221c-0.168,0.909 -1.696,1.263 -2.112,1.004c0.396,1.083 1.469,1.337 2.775,1.806c0.457,0.087 1.364,0.31 1.364,0.31l0,0.733c-7.076,4.466 -11.175,12.038 -8.581,22.393l-0.783,1.061c-1.428,-3.439 -2.729,-3.364 -5.076,-3.499c-0,0 0.583,0.412 0.919,0.81c0.712,0.842 0.395,2.311 -0.59,2.464c-2.281,0.354 -2.304,-1.266 -2.002,-2.364c-0,-0 -0.408,0.343 -0.608,0.473c-0.905,0.589 -2.032,-0.021 -2.138,-1.19c-0.099,-1.1 0.275,-1.812 1.405,-1.949c0.379,-0.046 0.965,0.05 0.965,0.05c0,-0 -0.225,-0.431 -0.348,-0.675c-0.541,-1.063 0.646,-1.972 1.736,-1.742c1.72,0.415 1.583,1.901 0.587,3.069c2.668,0.201 4.068,-1.546 3.871,-3.281c-0.24,-2.116 -1.213,-3.26 -3.312,-3.628c0,-0 0.339,0.531 0.484,0.789c0.537,0.954 -0.235,2.127 -1.364,2.12c-1.157,-0.007 -1.898,-1.071 -1.452,-2.12c0.109,-0.256 0.543,-0.576 0.477,-0.606c-0.046,-0.02 -0.642,0.166 -0.807,0.191c-1.391,0.218 -2.284,-1.008 -1.701,-2.232c0.413,-0.867 1.656,-1.101 2.558,-0.676c0.143,0.053 0.317,0.255 0.344,0.21c0.026,-0.043 -0.091,-0.327 -0.128,-0.527c-0.286,-1.121 0.252,-1.721 1.464,-1.643c1.698,0.109 2.329,1.496 1.189,2.745c-0.294,0.322 -0.744,0.799 -0.744,0.799c0.056,0.246 2.418,0.425 3.627,-0.842c1.398,-1.465 1.619,-4.524 0.214,-5.522c-0.232,-0.165 -0.697,-0.493 -0.697,-0.493c0.669,1.345 -0.563,2.891 -1.65,2.602c-2.172,-0.525 -1.985,-2.306 -0.556,-2.869c0,0 -1.448,-0.543 -1.865,-1.127c-0.591,-0.826 -0.392,-1.587 0.316,-2.168c0.892,-0.718 2.157,-0.247 2.769,0.64c0.369,-1.128 0.891,-1.89 2.431,-1.276c1.076,0.515 1.066,1.953 -0.119,2.736c-0.38,0.251 -1.055,0.485 -1.055,0.485c-0,0 1.018,0.583 2.258,0.597c2.392,0.027 4.286,-2.798 3.321,-4.957c-0.196,-0.438 -0.685,-1.004 -0.685,-1.004c-0,0 -0.053,0.755 -0.202,1.045c-0.553,1.077 -1.824,1.095 -2.575,0.416c-0.683,-0.617 -0.482,-1.442 0.047,-2.004c0.401,-0.427 0.764,-0.512 1.325,-0.773c-0.637,-0.216 -1.347,-0.372 -1.656,-1.032c-0.288,-0.629 -0.086,-1.404 0.678,-1.884c0.267,-0.167 0.551,-0.238 0.827,-0.232l-0.001,-0Zm58.578,0.291l0.163,2.441l-2.716,-1.044l2.553,-1.397Zm-74.842,0.144l0.977,2.219l-2.522,-0.01l1.545,-2.209Zm52.702,0.003c2.37,8.776 -1.362,15.563 -7.687,20.497l0,-1.406c4.944,-4.207 8.342,-9.166 6.707,-18.001l0.98,-1.09Zm-72.672,0.029c0,0 3.662,4.752 2.931,6.359c-0.97,1.533 -6.746,-1.769 -6.67,-1.943l0.726,-0.696c0.917,0.373 3.772,1.949 4.404,1.7c0.22,-1.436 -1.465,-3.295 -2.099,-4.532l0.708,-0.888Zm43.614,0.402l27.806,-0l-0.832,1.337l-2.166,-0l-4.296,7.865l-19.983,-0l-0.529,-9.202Zm-31.207,0.373l-0.961,1.741c-0.9,0.277 -3.616,0.325 -3.834,0.506c0.328,0.892 0.688,3.515 0.688,3.515l-1.071,1.371c-0.285,-1.687 -0.762,-3.819 -1.183,-5.383c-0.36,-1.326 -0.258,-1.035 2.562,-1.253c1.264,-0.072 2.565,-0.232 3.799,-0.497Zm5.703,2.098l1.144,2.034l-2.318,0.024l1.174,-2.058Zm-27.843,0.137c0.126,-0.052 0.843,0.754 0.966,0.986c-0.052,0.529 -0.871,0.818 -0.997,0.629c-0.051,-0.076 -0.067,-1.263 0.014,-1.591c0,-0.013 0.008,-0.021 0.017,-0.024l-0,-0Zm104.886,0.028l-0.023,2.545l-2.754,-1.223l2.777,-1.322Zm21.87,0.575l-0.038,1.648c-9.989,4.887 -24.981,18.137 -29.231,41.672l-0.779,-1.165c4.248,-22.471 18.907,-35.682 30.048,-42.155l0,-0Zm-100.477,2.268l1.242,1.876l-2.242,0.245l1,-2.121Zm78.662,0.721l-0.221,2.254l-2.712,-1.506l2.933,-0.748Zm-52.093,0.468c0.011,0.535 -0.032,0.921 0,1.455c-6.155,3.992 -8.234,10.273 -7.209,18.178l-0.852,1.263c-2.003,-7.168 0.107,-16 8.061,-20.896Zm-50.475,0.309c0,-0 2.345,5.289 1.418,6.535c-0.901,0.736 -2.978,-0.489 -3.922,-0.988l-0.027,-1.265c0,0 0.72,0.37 1.445,0.66c1.49,0.662 1.493,-0.126 0.677,-2.335c-0.287,-0.777 -0.571,-1.677 -0.571,-1.677l0.98,-0.93Zm121.749,0.157c0.628,0.369 2.661,0.969 2.661,0.969l-0.022,1.499l-4.189,-1.505l1.55,-0.963Zm-99.304,1.633l1.604,1.681l-2.235,0.513l0.631,-2.194Zm97.294,0.189c0.151,-0.011 0.309,-0.006 0.473,0.014c1.419,0.001 4.155,1.156 4.155,1.156l-0.017,1.664c-1.39,-0.403 -3.005,-1.178 -4.474,-1.395c-1.161,-0.161 -1.093,0.491 -1.099,2.134c-0.009,2.226 0.55,4.236 1.612,6.461c0.88,1.844 0.42,2.337 -1.016,1.514c-2.587,-1.778 -8.097,-3.12 -8.945,-2.085c-0.873,1.064 0.846,6.361 2.832,8.888c0.807,1.026 0.714,1.095 0.337,1.496c-0.305,0.324 -0.655,0.439 -1.526,0.161c-2.865,-0.913 -7.011,-1.119 -8.206,-0.345c-1.185,0.768 1.901,6.073 4.491,7.786c1.68,1.2 1.356,1.797 -1.359,1.858c-4.435,0.021 -7.847,1.011 -7.658,2.224c0.322,2.061 3.193,4.888 6.489,6.388c2.018,0.825 1.175,1.154 -0.166,1.631c-2.243,0.759 -4.398,1.973 -6.508,3.108l-1.014,-1.299c0,0 2.123,-1.353 4.432,-2.652c0.541,-0.305 0.512,-0.416 -0.246,-1.053c-2.459,-2.065 -4.264,-4.369 -4.641,-5.92c-0.366,-1.508 0.385,-2.462 2.62,-3.313c1.38,-0.525 1.889,-0.678 3.107,-0.952c1.756,-0.394 1.785,-0.45 1.035,-1.802c-0.337,-0.606 -0.888,-1.608 -1.225,-2.224c-2.615,-4.481 -1.236,-6.098 4.835,-6.19c1.491,-0.079 1.776,-0.083 1.694,-0.598c-0.323,-2.111 -1.256,-4.535 -1.124,-6.324c0.278,-2.697 3.048,-3.349 7.915,-2.132c1.126,0.282 1.205,0.224 1.007,-0.688c-0.883,-3.85 -0.075,-7.347 2.19,-7.511l0,0Zm-17.389,0.3l-0.425,2.616l-2.593,-1.727l3.018,-0.889Zm-96.929,0.619l7.149,0.469l-1.136,1.334l-4.32,-0.081l-0.162,3.695l-1.399,1.371l-0.132,-6.788Zm46.329,0.282l5.838,0l0,6.234l-5.838,-0l-0,-6.234Zm7.012,0l5.477,0l0,6.234l-5.477,-0l0,-6.234Zm6.559,0l5.819,0l0,6.234l-5.819,-0l-0,-6.234Zm51.295,0.497c-0.139,1.602 0.197,4.5 0.332,5.744c-0.095,0.371 -0.351,0.318 -1.889,-0.031c-1.067,-0.357 -4.023,-0.463 -4.023,-0.463l1.239,-1.315c1.013,0.121 1.812,0.111 2.86,0.243c-0.014,-1.05 0.03,-3.054 0.03,-3.054l1.451,-1.124Zm-95.105,1.234l1.643,1.656l-2.104,0.54l0.461,-2.196Zm80.27,0.539l-0.654,2.668l-2.38,-2.144l3.034,-0.524Zm19.247,0.074c1.19,-0.028 2.185,0.376 3.283,1.343l0.011,1.361l-2.34,-1.055c-0.026,1.552 1.345,4.356 1.345,4.356l-1.193,1.009c-0.963,-1.576 -1.552,-3.478 -1.607,-5.254c0.012,-0.642 -0.076,-1.73 0.502,-1.76l-0.001,-0Zm-100.319,2.691l1.954,1.162l-2.166,0.877l0.212,-2.039Zm80.324,0.596l-0.956,2.744l-2.088,-2.375l3.044,-0.369Zm-103.549,0.875l5.535,1.97l-1.205,0.814l-4.377,-1.384l0.047,-1.4Zm54.06,0.724l19.864,0l0.434,9.723l-27.842,-0.23l0.969,-1.374l1.809,-0.016l4.766,-8.103Zm-31.206,0.757l2.069,1.464l-2.151,0.95l0.082,-2.414Zm104.1,0.858l0.007,1.59c-6.722,4.975 -14.075,13.464 -15.311,28.624l-1.728,1.546c0.885,-14.802 7.038,-24.915 17.035,-31.76l-0.003,0Zm-24.523,0.059l-0.977,2.467l-1.934,-2.297l2.911,-0.17Zm8.009,0.454c-0.042,1.467 1.145,6.022 1.145,6.022c-1.833,0.091 -3.611,-0.12 -5.589,0.437l0.932,-1.665c-0,-0 0.861,-0.091 1.615,-0.241c1.558,-0.31 1.396,-0.121 1.035,-1.479c-0.34,-1.276 -0.359,-1.541 -0.359,-1.541c-0,-0 1.109,-1.541 1.221,-1.533Zm5.132,0.31c1.827,0.015 4.569,1.656 5.799,2.592l-0.647,0.725c-0.183,0.061 -2.747,-1.314 -4.762,-1.637c0.66,1.307 0.973,2.283 2.434,4.354l-0.942,1.176c-0.284,-0.063 -3.936,-5.712 -2.969,-6.932c0.294,-0.199 0.666,-0.281 1.087,-0.278Zm-107.878,1.264l-0,0.001c2.405,14.596 8.154,24.618 17.221,33.637l-0.922,1.206c-10.66,-9.772 -16.479,-22.209 -18,-33.905l1.701,-0.939Zm15,0.614l1.961,1.072l-2.014,1.175l0.053,-2.247Zm104.233,0.043l-0.012,2.141l-1.229,-1.24c0.332,-0.3 0.734,-0.601 1.241,-0.901l0,-0Zm-25.841,0.438l-1.336,2.458l-1.745,-2.329l3.081,-0.129Zm23.94,1.059c1.778,0.248 2.348,3.806 1.757,4.499c-0.275,-0.434 -2.721,-1.958 -3.832,-2.597c-0.07,-0.188 1.72,-1.791 2.075,-1.902Zm-28.579,1.827l2.845,0.27l-1.511,2.352l-1.334,-2.622Zm-73.725,0.001l2.217,1.083l-2.013,1.42l-0.204,-2.503Zm100.051,1.045c0.369,0.003 0.785,0.158 1.302,0.447c2.004,1.118 3.056,2.342 2.945,3.43c-0.051,0.5 -0.331,0.601 -0.655,0.238c-0.584,-0.655 -2.555,-1.507 -4.254,-1.84c-1.287,-0.252 -1.406,-0.363 -1.02,-0.959c0.586,-0.905 1.068,-1.32 1.682,-1.316Zm-34.268,1.032c3.081,11.685 8.623,20.785 15.422,28.187l-1.536,1.095c-5.162,-5.933 -10.841,-12.875 -15.478,-27.888l1.592,-1.394Zm-36.301,0.582l2.299,-0c0.007,-0.002 0.014,-0 0.014,-0c0.33,0.011 -0.978,5.153 -5.5,5.496c-2.863,0.476 -3.185,0.958 -3.229,5.421c-0.058,6.05 -1.034,7.466 -5.97,7.84c-3.27,0.248 -3.7,0.915 -3.146,5.617c0.526,4.475 -1.162,6.758 -5.327,6.754c-3.607,0.299 -5.098,1.983 -5.094,5.331c0,1.357 0.022,1.684 0.022,1.684l-2.331,0.182c0,0 0.008,-2.202 0.181,-3.274c0.711,-4.331 2.565,-6.066 6.467,-6.047c3.017,-0.23 3.486,-0.72 3.381,-5.302c-0.116,-4.66 -0.178,-4.628 1.036,-5.849c0.782,-0.786 1.674,-1.139 3.258,-1.289c4.934,-0.465 5.323,-0.794 5.31,-5.863c-0.457,-4.211 0.706,-6.789 3.376,-7.001c5.313,-0.403 5.253,-3.7 5.253,-3.7Zm7.64,-0l2.507,-0l-28.875,40.91l-1.521,-1.149l27.889,-39.761Zm3.503,-0c2.713,9.868 4.848,19.721 13.378,32.63l-36.186,-0.239l22.808,-32.391Zm0.929,-0l1.29,-0c3.169,17.12 13.195,33.32 18.697,39.238l-1.072,0.57c-8.021,-9.979 -15.31,-21.631 -18.915,-39.808Zm7.005,-0l2.057,-0c0.211,-0.098 1.061,5.234 -0.206,7.584c-1.139,3.181 -0.581,4.974 1.897,6.133c4.255,1.99 5.328,3.977 4.788,8.864c-0.378,3.422 0.656,5.075 3.862,6.175c3.825,1.311 5.497,3.371 5.477,6.748c-0,0.518 -0.196,1.111 -0.196,1.111l-2.135,1.256c0,0 0.026,-0.458 0.108,-1.008c0.556,-3.743 -0.152,-4.759 -4.563,-6.525c-4.167,-1.667 -5.2,-3.595 -4.491,-8.402c0.232,-1.568 -0.088,-3.152 -0.736,-4.346c-1.09,-1.945 -3.501,-1.926 -5.234,-3.703c-1.431,-1.521 -1.592,-3.647 -0.372,-7.285c0.923,-2.768 0.903,-4.068 -0.256,-6.602Zm23.375,0.042l2.846,0.432l-1.666,2.127l-1.18,-2.559Zm-71.574,0.743l2.456,0.678l-1.848,1.923l-0.608,-2.601Zm97.489,0.509c0.842,-0.022 2.472,0.273 3.806,0.938c3.061,1.527 3.617,2.78 0.934,2.104c-1.512,-0.38 -3.686,-0.294 -5.784,0.225c-2.217,0.549 -2.17,0.574 -1.406,-0.768c0.966,-1.7 1.217,-2.465 2.45,-2.499Zm-11.039,0.64c1.856,-0.029 3.727,0.503 5.485,1.164l-0.557,0.958c-1.216,-0.202 -2.496,-0.798 -4.348,-0.651c0.759,1.456 1.66,2.207 2.867,3.491l-0.45,0.964c-0.108,0.131 -3.528,-2.728 -4.214,-4.649c-0.309,-0.868 -0.029,-1.245 1.217,-1.277Zm-40.223,0.222c0.917,-0 1.659,0.744 1.659,1.662c-0,0.918 -0.742,1.665 -1.659,1.665c-0.916,-0 -1.658,-0.747 -1.658,-1.665c0,-0.918 0.742,-1.662 1.658,-1.662Zm34.352,0.05c0,-0 2.703,5.356 2.531,5.56c-1.676,0.74 -3.505,1.122 -5.346,1.795l0.353,-1.558c0,-0 0.614,-0.042 2.672,-0.827c0.986,-0.377 -1.075,-3.123 -1.075,-3.123l0.865,-1.847Zm-10.983,0.399l2.802,0.504l-1.869,2.096l-0.933,-2.6Zm-52.389,0.021c0.663,-0.053 1.686,1.234 1.683,1.236l-3.396,4.699c-1.616,-0.325 -1.271,-2.777 0.209,-2.852c0.342,0.002 0.967,0.06 0.967,0.06c-0,0 -0.456,-0.248 -0.718,-0.596c-0.993,-1.201 -0.053,-2.443 1.255,-2.547l-0,-0Zm28.236,0.714l0.368,0.636l0.368,0.637l0.368,-0.637l0.368,-0.636l-1.472,0Zm16.436,0.448c3.944,0.033 3.994,4.882 3.238,6.485c-0.549,1.101 -1.384,1.712 -3.909,2.854c-2.188,0.99 -2.432,0.923 -2.432,0.923l-0.523,-1.168c0,-0 1.274,-0.564 2.646,-1.119c2.836,-1.147 3.526,-2.024 3.215,-4.079c-0.44,-2.91 -2.684,-3.361 -7.025,-1.411c-0.503,0.226 -1.138,0.453 -1.138,0.453l-0.298,-0.587c0.07,-0.057 3.477,-1.845 5.386,-2.289c0.298,-0.043 0.577,-0.064 0.84,-0.062l-0,0Zm-61.004,0.528l2.233,0.738l-1.628,1.601l-0.605,-2.339Zm99.409,0.624c1.972,-0.005 3.597,0.329 3.592,1.033c-0,0.335 -0.078,0.363 -1.85,0.609c-2.691,0.374 -7.189,2.675 -9.72,4.811c-1.498,1.265 -1.111,0.971 -0.479,-0.863c0.627,-1.824 1.565,-4.001 2.073,-4.333c1.268,-0.83 4.149,-1.25 6.384,-1.257Zm-32.244,0.253l1.896,0.416l-1.234,1.199l-0.662,-1.615Zm-6.361,1.033c1.539,0.078 2.016,1.61 1.321,2.569c-1.137,1.57 -5.212,2.848 -5.212,2.848l-1.383,-3.718c0,-0 3.173,-1.805 5.274,-1.699Zm-6.417,0.45c4.391,12.442 9.764,20.525 15.45,27.222l-1.375,0.861c-6.039,-7.157 -11.598,-15.544 -15.602,-27.889l1.527,-0.194Zm48.492,0.338c0.209,-0.002 0.333,0.064 0.287,0.273c-0.112,0.51 -7.902,8.021 -12.417,11.839c-2.058,1.739 -1.988,1.724 -2.163,1.509c-0.111,-1.292 0.765,-5.905 1.296,-6.71c3.016,-3.199 7.659,-5.844 12.196,-6.78c0.297,-0.061 0.592,-0.13 0.801,-0.131Zm-42.402,0.104c-0.532,0.015 -1.329,0.338 -2.394,0.75c-1.548,0.598 -1.681,1.32 -0.987,2.214c0.303,0.391 0.614,0.306 2.102,-0.285c1.52,-0.603 2.175,-0.872 2.266,-1.414c0.133,-0.79 -0.303,-1.284 -0.987,-1.265Zm0.081,0.423c0.535,-0.004 0.525,0.341 0.586,0.568c0.062,0.233 -0.352,0.475 -0.714,0.473c-0.128,-0.001 -0.441,0.071 -0.639,0.275c-0.195,0.283 -0.321,0.556 -0.674,0.489c-0.205,-0.039 -0.583,-0.053 -0.731,0.076c-0.693,0.605 -1.384,0.105 -1.064,-0.502c0.081,-0.153 0.363,-0.231 0.59,-0.229c0.197,0 0.647,-0.046 0.713,-0.288c0.078,-0.29 0.521,-0.37 0.829,-0.36c0.336,0.045 0.606,-0.124 0.693,-0.265c0.125,-0.112 0.271,-0.235 0.411,-0.237Zm-35.652,0.093c0.916,0 1.661,0.744 1.661,1.662c-0,0.918 -0.745,1.665 -1.661,1.665c-0.917,0 -1.658,-0.747 -1.659,-1.665c0,-0.918 0.742,-1.662 1.659,-1.662Zm-24.002,0.035l2.513,0.343l-1.583,2.034l-0.93,-2.377Zm50.19,1.282c0.916,-0 1.658,0.744 1.658,1.662c0,0.918 -0.742,1.662 -1.658,1.662c-0.916,-0 -1.66,-0.744 -1.66,-1.662c0,-0.918 0.744,-1.662 1.66,-1.662Zm-0.771,1.142l0.368,0.636l0.368,0.636l0.367,-0.636l0.368,-0.636l-1.471,-0Zm-48.296,0.736l2.728,0.175l-1.563,2.091l-1.165,-2.266Zm14.4,0.4c0.917,-0 1.658,0.742 1.659,1.66c-0,0.918 -0.742,1.662 -1.659,1.662c-0.916,0 -1.658,-0.744 -1.658,-1.662c0,-0.918 0.742,-1.66 1.658,-1.66Zm68.14,1.036c1.137,-0.019 2.457,0.097 2.457,0.097l-0.32,1.278c-1.387,0.133 -3.167,-0.253 -4.654,0.37c0.552,0.906 3.789,2.185 4.147,2.504c0.034,0.135 -0.267,1.354 -0.267,1.354c0.087,0.311 -5.479,-2.263 -5.664,-4.435c0.008,-0.737 2.405,-1.138 4.301,-1.168Zm-19.143,1.328c3.163,0.029 4.725,4.452 3.496,6.41c-1.545,2.134 -3.242,3.042 -5.577,4.21l-0.828,-1.283c3.947,-1.687 6.738,-4.106 4.997,-6.621c-2.005,-2.764 -4.918,-0.262 -8.109,0.905l-0.565,-1.026c0.148,0.085 4.444,-2.505 6.586,-2.595Zm10.19,0.165c1.51,2.927 4.094,5.139 4.799,5.671c0,-0 -2.574,1.655 -4.111,2.709l-0.902,-1.064l2.207,-1.897l-2.485,-3.474l0.492,-1.945Zm-71.936,0.296l2.483,0.005l-1.062,2.241l-1.421,-2.246Zm96.167,0.41c-0.28,1.446 -0.323,2.98 -0.442,4.669c0.545,0.498 1.034,0.748 1.461,0.719c0.481,-1.519 0.826,-3.244 0.596,-5.02c-0.454,-0.356 -1.051,-0.315 -1.615,-0.368Zm0.869,0.478c0.181,0.022 0.348,0.27 0.379,0.703c0.069,0.976 0.039,2.172 -0.286,2.981c-0.232,0.524 -0.76,0.326 -0.778,-0.385c-0.025,-0.962 0.068,-1.782 0.226,-2.646c0.086,-0.471 0.279,-0.675 0.459,-0.653Zm-35.478,1.277c1.63,0.122 2.258,1.488 1.656,2.469c-1.473,1.886 -2.98,2.227 -4.913,3.318l-1.929,-3.612c0,0 3.756,-2.124 5.186,-2.175Zm-0.046,0.807c-1.084,-0.054 -1.76,0.654 -2.667,1.099c-1.11,0.545 -1.47,1.388 -0.716,2.152c0.83,0.927 3.878,-1.181 4.208,-1.818c0.456,-0.88 -0.026,-1.393 -0.825,-1.433Zm-59.476,0.153l2.43,0.026l-1.314,1.859l-1.116,-1.885Zm59.387,0.227c0.102,0.005 0.216,0.057 0.358,0.165c0.285,0.217 0.331,0.808 -0.252,0.957c-0.295,0.075 -0.803,0.078 -0.815,0.471c-0.008,0.294 -0.457,0.404 -0.712,0.362c-0.261,-0.043 -0.702,-0.065 -0.787,0.263c-0.224,0.446 -0.392,0.454 -0.705,0.143c-0.336,-0.34 -0.177,-0.771 0.478,-0.842c0.28,-0.031 0.522,-0.235 0.623,-0.45c-0.016,-0.279 0.18,-0.44 0.488,-0.376c0.436,-0.005 0.721,-0.168 1.032,-0.575c0.099,-0.079 0.19,-0.122 0.292,-0.118Zm-13.902,0.202c0.917,-0 1.659,0.741 1.659,1.659c-0,0.918 -0.742,1.665 -1.659,1.665c-0.916,-0 -1.658,-0.747 -1.658,-1.665c0,-0.918 0.742,-1.659 1.658,-1.659Zm-0.685,1.175l0.368,0.637l0.368,0.636l0.367,-0.636l0.368,-0.637l-1.471,0Zm-34.73,1.88c0.917,-0 1.663,0.747 1.663,1.665c-0,0.918 -0.746,1.661 -1.663,1.661c-0.916,-0 -1.658,-0.743 -1.658,-1.661c-0,-0.918 0.742,-1.665 1.658,-1.665Zm69.608,1.24l-0.025,0.168l0.014,1.158c0.042,0.056 -2.319,1.308 -3.857,2.006c-0.498,0.272 -0.174,0.888 -0.144,1.434l-0.755,0.529c0,0 -1.137,-0.862 -1.271,-1.342c-0.375,-1.514 4.201,-3.495 6.039,-3.953l-0.001,0Zm-109.292,0.235l18.996,13.013l-1.298,1.897l-17.642,-12.018l-0.056,-2.892Zm95.559,0.33c2.381,0.642 4.097,3.541 3.707,5.813c-1.408,2.647 -3.067,3.462 -5.435,4.911l-0.897,-1.106c2.894,-1.418 6.286,-3.814 4.438,-6.773c-2.032,-2.784 -5.217,0.205 -8.265,1.594l-0.844,-1.149c2.37,-1.01 4.761,-3.24 7.296,-3.29Zm-13.451,0.947c0.916,0 1.661,0.745 1.661,1.662c0,0.918 -0.745,1.665 -1.661,1.665c-0.917,0 -1.66,-0.747 -1.66,-1.665c0,-0.917 0.743,-1.662 1.66,-1.662Zm-51.461,0.466c0.916,0 1.658,0.744 1.658,1.662c-0,0.918 -0.742,1.659 -1.658,1.659c-0.917,0 -1.659,-0.741 -1.659,-1.659c0,-0.918 0.742,-1.662 1.659,-1.662Zm50.755,0.701l0.367,0.637l0.368,0.636l0.368,-0.636l0.368,-0.637l-1.471,0Zm13.622,0.779c0.51,-0.015 0.987,0.103 1.383,0.417c1.996,2.004 -2.369,4.589 -4.076,5.53l-2.391,-3.306c0,-0 2.872,-2.574 5.084,-2.641Zm0.013,0.716c-1.123,-0.063 -2.862,1.251 -3.469,1.979c-0.384,0.533 -0.211,1.062 0.518,1.746c0.617,0.368 4.007,-2.006 3.937,-2.601c-0.092,-0.783 -0.475,-1.096 -0.986,-1.124Zm-94.9,0.103l0.53,0.355l-0.53,0.419l0,-0.774Zm94.914,0.298c0.169,0.015 0.317,0.11 0.441,0.279c0.235,0.288 0.093,0.776 -0.406,0.861c-0.252,0.043 -0.624,0.112 -0.745,0.485c-0.1,0.246 -0.442,0.454 -0.781,0.446c-0.391,-0.091 -0.597,0.146 -0.618,0.318c-0.192,0.33 -0.67,0.383 -0.961,0.074c-0.226,-0.241 0.181,-0.933 0.448,-0.923c0.047,0.023 0.34,0.088 0.696,-0.388c0.071,-0.346 0.472,-0.557 0.763,-0.545c0.296,0.101 0.47,-0.227 0.589,-0.409c0.213,-0.148 0.404,-0.213 0.574,-0.198l-0,-0Zm-93.651,0.53l0.762,0.518l-2.025,1.438l0,-1.159l1.263,-0.797Zm1.478,0.97l1.039,0.695l-3.78,2.713l0,-1.471l2.741,-1.937Zm1.938,1.239l1.096,0.726l-5.775,3.909l0,-1.508l4.679,-3.127Zm2.081,1.057l-0,1.256l-6.76,4.728l0,-1.274l6.76,-4.71Zm0.763,0.904l1.456,0.996l0.366,42.614l-9.109,6.269l0.007,-1.864l7.649,-5.537l-0.369,-42.478Zm109.878,1.152c-2.042,2.336 -4.783,2.492 -7.173,2.429c-6.438,0.09 -10.434,0.436 -11.262,8.126c2.623,-1.964 5.404,-2.219 8.624,-2.126c4.078,-0.005 5.912,-0.274 7.57,-1.102c2.663,-1.331 4.348,-3.714 4.026,-5.386c-0.316,-0.361 -1.143,-1.852 -1.785,-1.941Zm-110.641,0.373l-0,1.474l-6.76,4.536l0,-1.497l6.76,-4.513Zm77.195,0.135c0.916,0 1.661,0.744 1.661,1.662c-0,0.918 -0.745,1.661 -1.661,1.661c-0.917,-0 -1.659,-0.743 -1.659,-1.661c0,-0.918 0.742,-1.662 1.659,-1.662Zm33.718,0.241c0.366,-0.024 0.416,0.469 -0.339,1.211c-1.43,1.404 -2.912,2.092 -7.609,2.007c-4.963,-0.088 -6.898,0.695 -8.183,2.909c-0.373,0.643 -0.365,0.895 0.175,0.408c0.454,-0.54 1.485,-1.58 1.912,-0.595c0.843,-0.553 1.572,-1.395 2.013,-0.331c0.244,-0.054 1.674,-1.49 2.013,-0.219c0.683,-0.765 1.27,-1.003 1.59,0.083c0.972,-0.462 1.488,-1.337 2.04,-0.13c0.782,-0.561 1.375,-1.261 1.832,-0.192c0.667,-0.197 1.348,-1.424 1.734,-0.447c0.072,0.024 2.485,-1.43 3.168,-2.868c0.561,-1.269 1.076,-0.426 0.439,0.87c-1.636,3.174 -4.435,4.332 -10.856,4.342c-3.899,0.004 -5.511,0.387 -6.735,1.102c-1.966,1.149 -0.907,-1.743 0.471,-3.497c1.736,-2.211 3.716,-2.864 9.139,-2.666c2.964,0.017 4.859,-0.393 5.66,-1.04c0.68,-0.55 1.171,-0.922 1.536,-0.947Zm-77.851,0.044c11.945,0.372 37.313,0 37.313,0l1.353,1.648l-39.885,-0l1.219,-1.648Zm-10.252,0.629c0.916,0 1.661,0.747 1.661,1.665c-0,0.918 -0.745,1.662 -1.661,1.662c-0.917,0 -1.659,-0.744 -1.659,-1.662c0,-0.918 0.742,-1.665 1.659,-1.665Zm53.687,0.304l0.368,0.637l0.368,0.636l0.368,-0.636l0.368,-0.637l-1.472,0Zm-76.497,0.928l-0,1.499l-6.76,4.621l0,-1.532l6.76,-4.588Zm32.686,0.718l5.245,0l0,5.546l-5.245,0l-0,-5.546Zm11.755,0l5.644,0l0,5.546l-5.644,0l-0,-5.546Zm12.564,0.18l5.446,-0l-0,5.366l-5.446,0l0,-5.366Zm11.801,0.107l3.626,0.125c-0,-0 2.013,2.565 2.863,3.749l-2.681,1.377l-3.808,0.008l-0,-5.259Zm-33.598,0.376c-1.02,0 -1.847,0.827 -1.847,1.849c0,1.022 0.827,1.85 1.847,1.85c1.02,-0 1.848,-0.828 1.848,-1.85c-0,-1.022 -0.828,-1.849 -1.848,-1.849Zm12.062,0.184c-1.02,-0 -1.848,0.825 -1.848,1.847c0,1.022 0.828,1.852 1.848,1.852c1.021,-0 1.848,-0.83 1.848,-1.852c0,-1.022 -0.827,-1.847 -1.848,-1.847Zm12.337,0.048c-1.021,0 -1.85,0.824 -1.85,1.846c0,1.022 0.829,1.853 1.85,1.853c1.02,0 1.848,-0.831 1.848,-1.853c-0,-1.022 -0.828,-1.846 -1.848,-1.846Zm-18.412,0.227c0.819,-0 1.482,0.665 1.482,1.485c-0,0.821 -0.663,1.487 -1.482,1.487c-0.82,0 -1.482,-0.666 -1.482,-1.487c0,-0.82 0.662,-1.485 1.482,-1.485Zm-11.03,0.148c0.364,0.26 0.603,0.682 0.603,1.164c0,0.792 -0.642,1.436 -1.433,1.436c-0.278,-0 -0.539,-0.08 -0.759,-0.218l1.589,-2.382Zm5.043,0.019c0.675,0 1.225,0.546 1.225,1.223c0,0.676 -0.55,1.225 -1.225,1.225c-0.675,0 -1.223,-0.549 -1.223,-1.225c-0,-0.677 0.548,-1.223 1.223,-1.223Zm36.678,0.05c-1.021,-0 -1.848,0.825 -1.848,1.847c-0,1.022 0.827,1.852 1.848,1.852c1.02,-0 1.848,-0.83 1.848,-1.852c-0,-1.022 -0.828,-1.847 -1.848,-1.847Zm-18.464,0.008c0.82,-0 1.482,0.666 1.482,1.487c0,0.82 -0.662,1.484 -1.482,1.484c-0.819,-0 -1.484,-0.664 -1.484,-1.484c-0,-0.821 0.665,-1.487 1.484,-1.487Zm-6.152,0.124c0.676,0 1.225,0.547 1.225,1.223c-0,0.677 -0.549,1.226 -1.225,1.226c-0.675,-0 -1.224,-0.549 -1.224,-1.226c0,-0.676 0.549,-1.223 1.224,-1.223Zm-47.27,0.022l-0,1.492l-6.76,4.731l0,-1.466l6.76,-4.757Zm59.607,0.025c0.675,0 1.223,0.547 1.223,1.223c-0,0.677 -0.548,1.227 -1.223,1.227c-0.676,0 -1.226,-0.55 -1.226,-1.227c0,-0.676 0.55,-1.223 1.226,-1.223Zm6.03,0.045c0.819,-0 1.484,0.665 1.484,1.485c0,0.821 -0.665,1.486 -1.484,1.486c-0.82,-0 -1.479,-0.665 -1.479,-1.486c-0,-0.82 0.659,-1.485 1.479,-1.485Zm6.249,0.402c0.675,0 1.224,0.545 1.224,1.221c-0,0.677 -0.549,1.227 -1.224,1.227c-0.676,0 -1.225,-0.55 -1.225,-1.227c0,-0.676 0.549,-1.221 1.225,-1.221Zm-52.581,1.285c3.148,-0.037 6.555,1.564 8.477,4.222c2.907,3.894 4.851,8.861 5.734,15.38c0.437,3.229 1.939,12.925 2.792,15.215l-1.172,-0.226c-0.159,0.075 -1.667,-6.098 -2.617,-14.251c-0.351,-3.02 -0.991,-6.918 -2.741,-10.475c-1.998,-4.062 -5.394,-8.368 -9.92,-8.71c-2.64,-0.2 -5.117,1.458 -5.384,3.793c-0.38,1.844 0.699,3.561 2.114,4.136c1.391,0.565 3.053,0.144 3.239,-1.754c0.032,-0.312 0,-0.626 -0.115,-0.916c0.644,-0.105 1.134,0.187 1.395,0.73c0.136,0.018 0.008,2.753 -2.142,3.291c-2.592,0.85 -5.584,-1.719 -5.817,-4.338c-0.177,-2.206 1.499,-4.933 3.611,-5.671c0.803,-0.281 1.664,-0.416 2.546,-0.426Zm-19.305,0.849l-0,1.521l-6.76,4.673l0,-1.533l6.76,-4.661Zm19.453,0.965c3.782,-0.107 7.463,4.117 9.022,6.898c1.627,2.904 2.915,7.515 3.359,11.854c0.755,7.379 2.167,13.414 2.464,13.689l-1.031,-0.227c-0.216,0.145 -1.636,-6.518 -2.501,-13.934c-0.486,-4.159 -2.027,-8.282 -3.86,-11.459c-1.691,-2.933 -3.972,-5.124 -6.671,-5.442c-1.692,-0.17 -3.433,0.319 -3.775,2.103c-0.18,1.048 0.367,2.078 1.609,2.167c0.292,0.022 0.572,0.044 0.624,0.053c0.657,0.118 -0.375,1.185 -1.054,1.091c-2.424,-0.339 -3.541,-3.582 -1.63,-5.308c1.118,-1.01 2.287,-1.452 3.444,-1.485l0,0Zm8.096,1.3l42.465,-0c0,-0 0.037,0.977 -2.606,0.852c-2.247,-0.107 -3.699,0.171 -5.189,0.649l-33.363,0l-1.307,-1.501Zm-27.549,0.276l-0,1.414l-6.76,4.739l0,-1.561l6.76,-4.592Zm19.736,0.599c0.816,-0.011 1.647,0.2 2.273,0.563c5.26,3.052 7.269,10.627 7.962,15.395c0.945,7.063 2.036,13.624 2.34,13.786l-1.148,-0.259c-0.153,0.006 -1.407,-6.118 -2.188,-12.979c-0.632,-5.546 -2.526,-11.117 -6.282,-13.461c-2.41,-1.642 -2.882,-1.807 -3.997,-0.848c-0.963,0.828 -1.941,-0.419 -1.135,-1.432c0.556,-0.521 1.359,-0.753 2.175,-0.765Zm-19.736,1.914l-0,1.159l-6.76,4.716l0,-1.374l6.76,-4.501Zm29.961,0.175l0.943,-0c-0,-0.004 -0,0.001 -0,-0c0.087,-0.081 3.655,5.84 4.782,15.402c0.594,5.034 2.292,13.619 2.565,13.689l-1.236,-0.131c-1.264,-5.063 -1.963,-9.855 -2.639,-14.174c-0.764,-4.886 -1.376,-9.122 -4.415,-14.786Zm1.757,-0l1.105,-0c1.888,3.602 3.897,9.12 4.59,14.729c0.6,4.844 1.205,9.772 2.936,14.902l-1.185,-0.326c-1.486,-4.165 -2.013,-9.198 -2.813,-14.415c-0.884,-5.766 -2.27,-10.692 -4.633,-14.89Zm2.027,-0l1.014,-0c2.655,5.812 3.758,9.215 4.576,14.836c1.034,7.108 2.027,13.521 3.125,15.191l-1.239,-0.081c-1.71,-5.123 -2.481,-10.242 -3.088,-15.366c-0.657,-5.548 -2.248,-10.242 -4.388,-14.58Zm1.901,-0l0.98,-0c0,-0.007 0,0.002 0.008,-0c0.104,-0.156 3.683,6.951 4.513,14.836c0.551,5.246 1.776,10.438 3.459,15.451l-1.142,-0.027c-1.32,-1.528 -2.308,-8.774 -3.397,-15.537c-1.112,-6.903 -2.679,-11.094 -4.418,-14.723l-0.003,-0Zm2.003,-0l0.884,-0c1.932,5.012 3.189,7.317 4.072,13.486c0.685,4.787 1.651,10.776 3.853,17.118l-1.117,-0.048c-1.631,-4.378 -2.881,-10.242 -3.453,-15.874c-0.777,-7.651 -4.207,-14.727 -4.239,-14.682l-0,-0Zm1.696,-0l1.207,-0c2.077,4.214 3.803,9.347 4.411,15.208c0.334,3.178 0.918,8.057 3.301,15.583l-0.964,-0.062c-1.952,-5.047 -3.125,-10.987 -3.824,-16.168c-0.706,-5.225 -1.952,-9.525 -4.131,-14.561l0,-0Zm1.926,-0l1.469,-0c2.522,5.864 3.818,12.128 4.173,14.209c-0,-0 0.348,1.839 0.371,2.443c-0.085,5.125 0.8,8.781 2.704,14.292l-0.871,-0.063c-2.21,-6.404 -2.804,-10.952 -3.37,-15.298c-0.467,-5.464 -2.243,-11.122 -4.476,-15.583l0,-0Zm2.268,-0l1.124,-0c1.503,3.758 2.667,7.681 3.71,11.308c-0.135,0.788 -0.735,2.695 -0.777,3.557c-0.058,-2.942 -1.835,-10.097 -4.057,-14.865Zm1.774,-0l1.456,-0c1.1,2.961 2.17,5.789 2.926,8.636l-0.772,1.819c-1.069,-3.943 -2.413,-7.344 -3.61,-10.455Zm2.122,-0l1.163,-0l2.299,6.665l-0.751,1.319c-0.681,-2.201 -1.516,-4.932 -2.711,-7.984Zm1.853,-0l1.197,-0c0.483,1.396 1.769,4.999 1.769,4.999l-0.803,1.07c-0,-0 -1.677,-4.664 -2.163,-6.069Zm1.855,-0l1.061,-0c0.32,0.907 1.343,3.648 1.343,3.648l-0.734,0.793l-1.67,-4.441Zm1.832,-0l1.245,-0l0.862,2.335l-0.914,0.774c0,0 -0.948,-2.228 -1.193,-3.109Zm2.031,-0l0.938,-0l0.496,1.288l-0.766,0.587l-0.668,-1.875Zm1.689,-0l1.793,-0c-0.527,0.311 -1.073,0.719 -1.468,0.989l-0.325,-0.989Zm-34.434,1.7c4.397,2.322 5.61,9.278 6.087,13.102c0.832,6.674 1.765,12.103 1.963,12.249l-0.976,-0.156c0,0 -0.72,-3.43 -1.219,-6.692c-0.416,-2.714 -0.737,-4.986 -0.849,-6.027c-0.071,-0.65 -0.179,-1.406 -0.24,-1.679c-0.614,-2.742 -0.813,-3.369 -1.606,-5.038c-1.137,-2.2 -1.822,-3.047 -3.499,-4.648l0.339,-1.111Zm-22.261,0.356l-0,1.312l-6.76,4.782l0,-1.499l6.76,-4.595Zm-0,2.301l-0,1.51l-6.76,4.466l0,-1.337l6.76,-4.639Zm-0,2.573l-0,1.402l-6.76,4.719l0,-1.448l6.76,-4.673Zm11.29,1.417l0.596,-0l0.041,0.924l-0.919,-0l0.282,-0.924Zm-11.29,1.212l-0,1.497l-6.76,4.471l0,-1.398l6.76,-4.57Zm10.593,0.57l1.428,0l-0.016,1.045l-1.836,0l0.424,-1.045Zm-0.83,1.649l2.346,-0l0,1.021l-2.908,0l0.562,-1.021Zm-9.763,0.213l-0,1.572l-6.76,4.503l0,-1.58l6.76,-4.495Zm8.566,1.636l3.436,-0l-0.02,0.856l-4.103,0l0.687,-0.856Zm-8.566,0.911l-0,1.537l-6.76,4.335l0,-1.383l6.76,-4.489Zm7.132,0.777l4.719,0l-0.117,0.835l-5.381,-0l0.779,-0.835Zm-7.132,1.625l-0,1.477l-6.76,4.412l0,-1.421l6.76,-4.468Zm5.362,0.096l6.21,-0l1.309,1.048l-9.666,-0c0.706,-0.325 1.584,-0.657 2.147,-1.048Zm-2.034,2.085l10.675,0l0.995,0.823l-11.67,0l0,-0.823Zm-3.328,0.338l-0,1.568l-6.76,4.435l0,-1.431l6.76,-4.572Zm3.328,1.377l11.998,0.055l-1.012,0.95l-10.986,0l0,-1.005Zm-3.328,1.189l-0,1.434l-6.76,4.597l0,-1.649l6.76,-4.382Zm3.199,0.748l10.229,0l-1.201,1.142l-7.067,-0l-1.961,-1.142Zm-3.199,1.774l-0,1.371l-6.76,4.851l0,-1.537l6.76,-4.685Zm6.192,0.175l6.004,-0l0.175,0.821l-5.226,0l-0.953,-0.821Zm1.661,1.665l4.673,-0c0.072,0.348 0.082,0.688 0.154,1.036l-3.974,-0l-0.853,-1.036Zm-7.853,0.73l-0,1.273l-6.76,4.727l0,-1.409l6.76,-4.591Zm9.309,1.043l3.473,0l0.014,1.098l-2.712,0l-0.775,-1.098Zm1.077,1.762l2.372,0l-0.079,1.075l-1.863,-0l-0.43,-1.075Zm0.666,1.871l1.512,0l-0.128,0.819l-1.17,-0l-0.214,-0.819Zm0.454,1.918l0.737,-0l-0.125,0.629l-0.376,-0l-0.236,-0.629Zm14.956,10.626l-0.353,0.453l10.567,-0l0.116,-0.453l-10.33,0Zm13.625,0l-0.187,0.613l4.769,-0l0.132,-0.613l-4.714,0Zm7.79,0.121l-0.146,0.577l12.191,0l-0.202,-0.577l-11.843,-0Zm14.587,-0l0.247,0.701l4.104,-0l-0.272,-0.701l-4.079,-0Zm14.154,-0l-7.2,0.003l0.259,0.784l7.447,0l-0.506,-0.787Z" style="fill-rule:nonzero;"/></g></g></g></g></g><path id="path163-0-2-5-8-7-5-0-7-4" d="M47.878,64.556c0,-0 -3.733,-6.124 -8.769,-13.325c-3.368,-4.819 -6.062,-10.036 -6.312,-14.531c-0.287,-5.133 2.431,-10.284 7.353,-10.533c4.919,-0.25 6.915,3.958 7.728,7.427c0.813,-3.469 2.81,-7.677 7.728,-7.427c4.922,0.249 7.641,5.4 7.353,10.533c-0.25,4.495 -2.943,9.712 -6.312,14.531c-5.036,7.201 -8.769,13.325 -8.769,13.325Z" style="fill:#3f3f3f;fill-rule:nonzero;"/><path id="path163-0-2-5-8-7-7-8-0-0-6" d="M130.704,184.893c0,-0 -3.733,6.124 -8.768,13.325c-3.369,4.819 -6.062,10.036 -6.313,14.53c-0.287,5.134 2.432,10.285 7.353,10.534c4.919,0.25 6.916,-3.958 7.728,-7.427c0.813,3.469 2.81,7.677 7.729,7.427c4.921,-0.249 7.64,-5.4 7.353,-10.534c-0.251,-4.494 -2.944,-9.711 -6.313,-14.53c-5.035,-7.201 -8.769,-13.325 -8.769,-13.325Z" style="fill:#3f3f3f;fill-rule:nonzero;"/></g></svg>