<?xml version="1.0" encoding="UTF-8" standalone="no"?><!DOCTYPE svg PUBLIC "-//W3C//DTD SVG 1.1//EN" "http://www.w3.org/Graphics/SVG/1.1/DTD/svg11.dtd"><svg width="100%" height="100%" viewBox="0 0 179 250" version="1.1" xmlns="http://www.w3.org/2000/svg" xmlns:xlink="http://www.w3.org/1999/xlink" xml:space="preserve" xmlns:serif="http://www.serif.com/" style="fill-rule:evenodd;clip-rule:evenodd;stroke-linejoin:round;stroke-miterlimit:2;"><g id="g7559"><path id="rect6355-6-85-90-3-5" d="M178.583,8.504c-0,-4.694 -3.811,-8.504 -8.504,-8.504l-161.575,-0c-4.694,-0 -8.504,3.81 -8.504,8.504l0,232.441c0,4.693 3.81,8.504 8.504,8.504l161.575,-0c4.693,-0 8.504,-3.811 8.504,-8.504l-0,-232.441Z" style="fill:#fff;"/><path id="path163-0-2-7-7-1-8-7-00-1-2" d="M13.774,55.979c-0,-0 -1.78,-2.552 -4.181,-5.553c-1.606,-2.007 -2.89,-4.181 -3.009,-6.054c-0.137,-2.139 1.159,-4.285 3.505,-4.389c2.345,-0.104 3.297,1.649 3.685,3.095c0.387,-1.446 1.339,-3.199 3.684,-3.095c2.347,0.104 3.643,2.25 3.506,4.389c-0.119,1.873 -1.404,4.047 -3.01,6.054c-2.401,3.001 -4.18,5.553 -4.18,5.553Z" style="fill:#3f3f3f;fill-rule:nonzero;"/><path id="path163-0-2-7-7-1-8-1-9-4-6-8" d="M164.809,193.47c0,0 -1.779,2.552 -4.18,5.552c-1.606,2.008 -2.89,4.182 -3.01,6.055c-0.137,2.139 1.159,4.285 3.506,4.389c2.345,0.104 3.297,-1.65 3.684,-3.095c0.388,1.445 1.34,3.199 3.685,3.095c2.346,-0.104 3.643,-2.25 3.506,-4.389c-0.12,-1.873 -1.404,-4.047 -3.01,-6.055c-2.401,-3 -4.181,-5.552 -4.181,-5.552Z" style="fill:#3f3f3f;fill-rule:nonzero;"/><path id="path39-51-8-0-0" d="M14.421,34.562l2.656,0l-3.902,-9.748l-2.981,4.118l0.021,5.63l2.094,0l-0,2.904l-7.377,-0l-0,-2.904l2.43,0l0,-20.963l-2.43,0.009l-0,-2.538l7.485,0l-0,2.624l-2.066,0l-0.044,10.217l6.533,-10.303l-2.306,0l0,-2.538l7.963,0l0,2.538l-2.101,0l-5.379,8.42l5.267,12.539l2.338,-0l0.012,2.903l-8.189,0l-0.024,-2.908l-0,0Z" style="fill:#3f3f3f;fill-rule:nonzero;"/><path id="path39-3-9-6-0-8" d="M164.17,214.887l-2.656,-0l3.902,9.748l2.981,-4.118l-0.021,-5.63l-2.094,-0l0,-2.904l7.377,-0l0,2.904l-2.43,-0l-0,20.963l2.43,-0.01l0,2.539l-7.485,-0l0,-2.624l2.066,-0l0.044,-10.218l-6.533,10.303l2.306,0l-0,2.539l-7.963,-0l-0,-2.539l2.101,0l5.379,-8.419l-5.267,-12.539l-2.338,0l-0.012,-2.903l8.188,-0l0.025,2.907l0,0.001Z" style="fill:#3f3f3f;fill-rule:nonzero;"/><path id="path3876-2-1-7" d="M64.83,211.616c14.018,1.628 28.387,2.01 43.166,0.934c3.824,5.321 11.501,16.171 11.501,16.171l-69.564,0.568l14.897,-17.673Zm-18.065,3.705c1.865,-3.791 2.226,-7.445 1.871,-12.71c-0.28,-4.041 2.229,-7.188 4.817,-5.982c2.002,0.933 1.078,4.756 -0.992,3.947c-0.792,-0.31 -1.486,-0.029 -1.381,1.787c0.185,4.475 1.368,9.515 0.351,13.805c-0.709,4.168 -6.398,2.248 -4.666,-0.847Zm-17.477,-5.846c-2.197,-3.322 1.741,-6.434 4.206,-4.901c1.169,0.551 1.004,1.75 -0.47,1.111c-2.056,-0.892 -4.27,2.264 -2.48,3.532c0.824,0.585 1.138,0.506 0.511,-0.225c-1.668,-1.954 2.598,-2.818 2.475,-1.53c-0.292,1.568 -0.328,2.228 -0.47,2.536c-0.869,1.369 -2.539,0.67 -3.772,-0.523Zm6.129,-13.969c-2.373,-2.985 0.349,-5.333 0.313,-5.248c0.704,-0.769 -5.656,-12.715 -4.852,-12.793c8.032,-0.861 16.15,-0.211 24.199,0.042c-0,0 -4.292,7.777 -6.003,11.626c-0.689,1.551 0.922,3.376 0.256,4.528c-2.073,2.282 -0.784,4.81 -2.076,4.924c-3.314,-0.627 -6.838,-0.99 -11.117,-0.047c-0.326,-0.028 -0.275,-2.019 -0.72,-3.032l0,0Zm34.77,-83.002c4.061,20.832 -1.927,42.915 -15.654,57.484c-1.938,-1.876 -3.424,-5.437 -5.356,-7.76c-5.365,-1.623 -9.225,0.287 -12.987,2.158c-3.342,-1.94 -7.107,-3.082 -10.776,-3.033l-0.119,-3.222c3.713,-0.081 7.635,0.265 10.941,2.327l5.173,-2.116l-16.131,-16.864l0.219,-2.882l19.574,19.903l2.52,0.09c-5.54,-14.84 -0.693,-38.412 22.596,-46.085Zm27.293,26.131l2.83,13.604c-0,-0 -15.87,15.853 -24.211,23.951l-6.97,-0.639c3.48,-5.22 5.462,-10.498 7.775,-15.762l20.576,-21.154Zm56.244,18.658c-6.645,7.498 -14.584,12.265 -23.401,17.519c-3.524,-3.969 -7.802,-8.334 -10.273,-12.246c7.692,-4.143 15.024,-7.352 22.555,-14.602c-0.412,0.468 -9.607,3.613 -9.577,3.251c-0.332,1.548 -0.133,2.502 -1.629,2.909c-1.771,-2.493 -3.484,-4.517 -6.276,-5.631c-1.172,0.106 -2.727,-0.673 -2.727,-0.673c0.782,-0.162 0.437,-9.73 -0,-9.84c0.858,-0.28 1.724,-0.944 2.906,0.372c0.546,0.37 5.846,-5.009 7.65,-6.847c7.084,-0.587 13.359,0.116 20.338,-0.073c-0.055,8.515 0.433,17.345 0.431,25.861l0.003,0Zm-44.984,-21.568c-0.178,-0.361 -1.966,-14.472 -0.267,-23.321c4.663,-14.892 3.474,-19.04 15.527,-33.686c0.793,-0.783 3.564,1.739 5.635,6.098c6.016,3.82 13.729,-1.11 13.729,-1.11c-0,0 2.993,2.464 9.763,3.81l-0.116,2.651c-0.034,0.771 -7.614,-0.821 -9.245,-2.359c-0,-0 -5.678,1.908 -5.678,2.256c0,1.486 15.122,15.572 15.122,15.572l-0.086,3.304c0.097,0.008 -20.733,-21.781 -21.003,-19.501c5.896,25.585 -4.135,38.547 -23.381,46.286Zm-25.049,-4.498l-0.336,-13.533l12.758,0.153l0.525,13.674l-12.947,-0.294Zm-58.379,-14.628c0.341,-0.48 -0.496,-25.223 -0.443,-25.223c8.119,-8.148 16.061,-12.703 24.023,-17.656c3.6,3.597 6.66,6.632 9.312,10.989l-10.984,6.825c0.417,1.664 -0.666,2.263 6.415,8.739c0.119,-0.443 2.452,-1.762 2.86,0.211c-0.959,4.162 0.425,7.701 0.608,9.938c-0.968,1.311 -3.129,-0.096 -3.129,-0.096c-1.399,-1.471 -6.88,5.791 -8.445,6.602c-6.829,-0.257 -20.6,0.211 -20.217,-0.329Zm76.75,-43.995c0.047,0.085 7.025,0.012 6.959,0.175c-1.268,3.138 -4.161,9.382 -7.06,16.292c-2.422,4.023 -19.745,20.774 -19.745,20.774c-0.821,-4.86 -2.055,-9.601 -3.34,-14.326l23.186,-22.915Zm30.104,-23.326c2.511,1.081 9.565,0.515 10.685,0.029c1.434,0.982 0.539,2.292 0.357,3.02c1.473,1.881 2.28,2.548 0.607,5.581c-0.382,0 5.142,12.551 5.29,12.56c-0,-0 -5.837,-2.796 -7.896,-4.684l-4.027,5.403l-4.678,-6.101c-0.016,0.55 -9.013,6.575 -9.122,6.284c-0.283,-0.287 8.216,-9.52 6.53,-14.94c-0.407,-1.307 0.523,-2.634 1.159,-3.785c0.436,-0.79 -0.15,-2.317 1.095,-3.367l-0,-0Zm-4.67,-1.125c0.381,-0.441 -2.182,-11.79 0.596,-16.371c1.177,-1.665 3.305,-1.75 4.194,-0.387c0.68,1.897 -1.345,4.536 -1.752,5.826c-1.317,3.592 0.639,8.331 -0.316,11.725c-2.859,7.416 -7.923,-0.729 -2.722,-0.793Zm19.034,-5.04c-1.507,0.066 -0.455,-4.479 -0.206,-5.781c-0.009,-0.258 2.758,-0.909 3.755,0.878c1.608,2.672 -0.325,6.043 -3.549,4.903Zm-17.973,-22.918l-14.197,17.428c-14.356,-1.668 -28.761,-2.728 -43.44,-0.46l-11.805,-16.622l69.442,-0.346Z" style="fill:#bdbdbd;fill-rule:nonzero;"/><path id="path3874-3-1-4" d="M23.692,19.125l-0,211.2l131.2,-0l-0,-211.2l-131.2,0Zm104.726,1.095l-0,0.002c-5.585,6.513 -10.487,14.026 -16.112,19.658c1.048,3.098 2.543,6.96 3.971,9.894c2.275,4.742 7.993,13.455 4.426,20.425c-0.349,0.598 -0.674,0.888 -1.112,0.886c-0.606,0 -0.595,-0.361 -0.234,-1.061c0.795,-1.54 1.334,-5.191 1.017,-7.122c-0.203,-1.233 -0.881,-3.134 -2.171,-6.006c-5.976,-11.14 -7.843,-17.078 -7.504,-17.078c-0.335,-0.167 -0.631,-0.238 -1.017,-0.367c2.071,7.042 5.436,12.962 8.099,18.444c2.185,5.095 2.419,7.072 1.277,10.78c-0.442,1.436 -1.242,2.355 -2.029,2.352c-0.589,-0 -0.555,-0.123 -0.153,-0.851c2.093,-3.794 1.609,-7.935 -0.993,-12.751c-3.779,-7.956 -6.046,-12.99 -7.392,-18.093c-0.034,-0 -0.69,-0.224 -0.926,-0.281c1.121,5.312 4.252,11.44 7.167,17.709c2.411,4.828 3.106,8.347 2.237,11.126c-0.285,1.205 -1.195,2.998 -2.344,3.051c-0.449,0 -0.52,-0.238 -0.096,-0.858c1.786,-3.093 2.103,-5.945 -1.093,-12.437c-2.939,-5.969 -5.886,-12.649 -6.894,-18.485c0,-0.321 -0.984,-0.194 -1.066,-0.252c1.577,6.894 4.719,13.951 8.056,20.833c1.878,4.271 2.073,7.006 0.663,9.396c-0.788,1.336 -0.988,1.64 -1.579,1.653c-0.698,0.015 -0.687,0.041 -0.301,-0.771c1.704,-3.593 1.425,-6.757 -0.854,-11.949c-3.124,-7.12 -5.755,-13.013 -6.878,-19.279c-0.202,-0.059 -1.26,-0.472 -1.108,-0.159c1.562,5.969 3.561,11.51 6.138,17.113c0.898,1.944 2.353,5.725 2.822,7.62c0.891,3.606 -1.117,8.558 -3.746,8.808c-0.98,0.093 -0.858,-0.401 0.234,-1.427c1.88,-1.767 2.245,-4.586 1.607,-7.856c-0.479,-2.518 -1.305,-5.22 -2.44,-7.965c-2.293,-5.552 -4.788,-11.363 -5.578,-16.488c0.153,-0.044 -0.908,-0.079 -0.728,0.019c0.567,3.603 1.922,7.707 3.405,11.518c1.623,4.17 4.038,8.843 4.829,13.961c0.647,4.187 -1.939,8.14 -5.076,8.376c-3.779,0.285 -4.525,-3.495 -3.616,-5.267c1.483,-2.645 5.791,-1.134 4.51,1.571c-0.737,1.557 -2.987,1.148 -2.891,-0.56c-0.026,-0.155 0.215,-0.624 0.172,-0.649c-0.078,-0.046 -0.408,0.26 -0.513,0.451c-0.765,1.383 1.533,3.238 3.129,2.126c5.351,-2.929 1.737,-11.861 -0.594,-17.318c-2.258,-5.084 -3.914,-9.679 -4.632,-14.384c-0.195,-0.137 -1.079,-0.364 -0.955,-0.203c0.647,2.512 0.946,4.63 1.59,6.741c1.011,3.31 2.824,7.015 4.303,10.726c1.343,3.652 2.693,6.754 2.079,10.562c-0.057,0.351 -0.2,0.773 -0.437,1.03c-0.241,0.255 -0.44,0.216 -0.511,-0.754c-0.024,-0.132 -0.192,-0.307 -0.217,-0.475c0.131,-1.43 0.033,-2.848 -0.332,-4.194c-0.312,-1.127 -0.908,-2.276 -2.165,-4.466c-0.496,-0.815 -1.795,-3.308 -1.339,-1.585c0.261,0.974 1.152,3.139 2.079,4.707c0.575,0.973 1.179,3.63 1,4.144c-0.189,0.502 -0.627,0.53 -0.831,0.357c-0.184,-0.156 -0.184,-0.867 -0.231,-1.307c-0.194,-1.805 -2.022,-4.956 -3.29,-6.192c-0.911,-1.028 2.146,4.369 2.37,5.807c0.095,0.61 0.283,1.105 0.077,1.404c-0.136,0.197 -0.411,0.199 -0.68,0.129c-0.259,-0.067 -0.247,-0.248 -0.521,-1.174c-0.469,-1.586 -1.049,-2.384 -2.251,-3.814c-0.412,-0.489 -0.687,0.123 -0.03,0.917c0.908,1.45 1.591,2.377 1.822,4.242c-0.588,0.844 -0.879,0.68 -2.11,-1.458c-0.813,-1.413 -1.301,-1.775 -1.514,-1.765c-0.539,0.026 -0.03,0.701 1.485,3.114c0.784,1.287 0.803,2.088 -0.089,2.084c-0.302,-0 -1.996,-1.886 -2.42,-2.703c-0.352,-0.677 -0.789,-1.197 -0.79,-0.369c-0,0.329 1.049,2.062 1.768,2.904c1.134,1.327 1.458,1.593 1.603,2.181c0.069,0.28 0.206,0.77 0.303,1.089c0.29,0.955 0.143,1.227 -0.444,0.723c-0.266,-0.708 -0.483,-0.781 -1.213,-1.326c-0.615,-0.459 -1.468,-1.648 -2.028,-2.488c-0.211,-0.316 -0.393,-0.719 -0.609,-1.042c-0.549,-1.037 -1.28,-1.127 -0.752,-0.08c0.25,0.485 0.655,1.281 1.08,1.872c0.713,1.025 0.566,1.56 -0.279,1.556c-0.362,0 -1.374,-1.342 -2.006,-2.391c-0.412,-0.683 -1.056,-1.168 -0.977,-0.491c0.02,0.169 0.518,1.371 1.266,2.31c0.812,1.021 0.917,1.562 0.129,1.558c-0.538,0 -1.002,-0.521 -1.688,-1.578c-0.651,-1.004 -1.057,-1.358 -1.241,-1.243c-0.234,0.144 0.935,2.135 1.895,3.222c0.907,1.029 0.241,1.614 -0.802,0.7c-0.566,-0.496 -1.7,-1.976 -2.017,-2.679c-0.569,-1.257 -0.935,-0.913 -0.568,0.082c0.404,1.098 1.036,2.299 1.799,3.079c0.4,0.409 1.224,0.73 1.626,1.081c1.139,0.996 1.86,1.915 1.767,2.08c-3.248,0.185 -5.915,-3.318 -6.645,-5.439c-0.518,-1.395 -1.11,-1.6 -0.549,0.369c1.584,4.892 6.521,7.433 9.935,5.24c2.061,-1.323 0.241,-4.768 -1.444,-3.657c-0.459,0.301 -0.48,1.157 0.103,0.699c1.094,-0.86 2.195,1.262 1,1.89c-1.68,0.882 -3.543,-0.845 -2.4,-2.939c1.13,-2.15 5.656,-0.92 4.771,2.554c-0.537,1.559 -2.888,3.506 -4.902,3.544c-3.743,0.072 -6.326,-2.827 -7.767,-5.69c-0.185,-0.368 -0.517,-1.093 -0.79,-1.684c-0.237,-0.51 -0.424,-0.888 -0.443,-0.884c0.416,3.476 3.703,7.774 6.646,8.485c4.891,1.161 6.229,-1.785 9.429,-4.829c-0,-0 2.338,0.308 2.42,0.257c0.216,-0.134 4.549,-0.329 4.678,-0.206c-17.509,32.075 -16.176,70.154 -1.12,99.058c0.996,2.115 1.171,1.714 -0.478,1.283c-1.704,-0.449 -3.25,0.24 -4.634,-0.083c-2.862,-0.59 -3.471,1.384 -5.67,2.438c-2.744,1.047 -2.123,2.974 -2.777,4.837c-0.206,0.288 -0.355,0.524 -0.243,0.486c0.182,-0.062 0.767,-0.608 0.811,-1.089c0.113,-1.233 0.548,-2.207 1.043,-2.698c0.472,-0.468 0.803,-0.705 0.917,-0.503c0.089,0.158 0.022,0.71 -0.212,1.155c-0.665,1.271 0.217,5.52 0.272,2.496c0.044,-2.4 1.484,-5.076 3.498,-6.171c1.612,-0.797 2.112,-0.716 0.8,0.511c-1.491,1.607 -2.506,3.477 -2.566,5.807c-0.025,0.966 0.356,1.772 0.492,0.906c-0.058,-4.435 4.328,-9.375 9.031,-6.92c0.235,0.171 0.433,0.492 0.364,0.673c-4.555,-0.771 -8.518,1.743 -7.934,7.696c-0,0 0.407,-1.166 0.637,-2.33c0.717,-3.646 4.799,-5.241 7.662,-4.241c0.538,0.228 0.961,0.995 0.885,1.099c-3.5,-1.11 -7.341,2.233 -7.564,5.854c-0.073,1.178 -0.046,2.19 0.551,0.065c2.261,-8.047 9.234,-4.4 8.377,-3.74c-5.397,-0.651 -7.35,3.019 -7.226,7.263c0.077,0.387 0.275,0.516 0.437,0.877c0.72,1.599 1.046,2.97 1.104,5.871c-0.055,0.747 0.557,5.504 -0.059,5.303c-1.961,-0.732 -3.451,-1.596 -6.848,-0.053c-0.306,0.017 -0.405,-0.154 -0.3,-0.421c0.141,-0.361 0.672,-1.073 1.598,-2.125c0.99,-1.067 1.165,-1.511 1.165,-1.511c0,-0 -1.092,0.607 -1.994,1.425c-0.368,0.335 -0.586,0.482 -0.677,0.403c-0.181,-0.158 0.158,-1.228 0.854,-3.522c0.423,-1.394 0.159,-1.563 -1.661,-2.497c-1.144,-0.587 -2.465,-0.756 -2.465,-0.756c0,0 0.267,0.262 0.886,0.654c0.624,0.386 1.289,0.791 1.997,1.076c0.829,0.458 0.734,0.65 0.122,2.658c-1.189,3.903 -1.603,5.328 -1.541,7.952c0.152,6.384 6.172,5.75 9.6,4.315l0.142,4.203l12.909,18.369l-69.264,0.353c-0.124,0.065 14.92,-16.959 16.842,-20.043c0.083,0.012 -1.618,-5.18 -2.512,-7.438c-4.22,-10.663 -9.769,-15.145 -6.556,-22.15c0.691,-1.389 0.812,-1.857 1.337,-1.855c0.713,0 0.942,0.482 0.14,1.84c-3.45,5.844 3.909,15.929 6.396,22.361c0.388,1.003 1.969,5.583 2.322,7.325l0.882,0.159c-0.913,-3.264 -2.05,-6.803 -2.58,-8.084c-1.965,-4.749 -4.032,-7.989 -5.947,-12.631c-1.071,-2.933 -1.641,-6.32 0.018,-9.361c0.605,-1.107 0.779,-1.721 1.178,-1.779c0.343,-0 0.544,0.119 0.566,0.404c0.024,0.311 -0.165,0.82 -0.616,1.597c-2.901,4.988 2.254,13.047 4.808,18.793c1.665,3.746 3.146,7.686 3.67,11.239c0,0.006 0.007,0.016 0.007,0.022l0.913,0.166c-1.146,-6.544 -4.34,-12.892 -7.147,-19.012c-2.429,-4.844 -3.343,-9.067 -0.096,-13.055c0.283,-0.275 0.89,-0.229 0.933,0.179c0.024,0.278 -0.187,0.803 -0.694,1.867c-2.861,6.044 1.568,10.953 3.646,16.716c1.963,4.666 3.785,8.619 4.586,13.527l0.991,0.179c-1.489,-7.23 -4.674,-13.731 -7.44,-19.996c-1.281,-2.729 -1.735,-4.038 -1.822,-5.866c-0.119,-2.514 1.133,-5.695 2.256,-6.534c0.291,-0.217 0.473,-0.256 0.739,-0.11c0.364,0.2 0.291,0.333 -0.43,1.71c-1.376,2.631 -1.494,5.586 -0.218,8.712c2.205,4.8 4.062,8.74 5.378,12.269c1.402,3.76 2.202,7.034 2.544,9.997l0.872,0.158c-0,-0.041 0.007,-0.079 -0.008,-0.134c-0.612,-4.233 -1.996,-8.626 -3.49,-12.343c-1.41,-3.508 -3.176,-6.885 -4.609,-10.363c-1.736,-4.171 -0.297,-8.731 3.264,-11.008l1.638,0.036c-0.096,-0.043 -3.737,1.418 -3.928,6.676c-0.181,5.011 2.168,8.091 3.866,12.336c2.06,5.093 3.901,9.564 4.354,14.996l1.047,0.189c-0.444,-3.664 -1.503,-7.153 -3.016,-11.436c-1.614,-4.57 -3.22,-6.594 -4.717,-11.392c-1.014,-3.246 -0.876,-7.644 1.381,-9.654c3.378,-3.448 8.092,-0.992 6.91,2.956c-0.911,2.778 -4.677,2.225 -4.657,-0.378c-0.008,-1.681 2.043,-2.136 2.721,-0.867c0.158,0.247 0.262,1.329 0.332,1.369c0.071,0.04 0.283,-0.853 0.284,-1.052c0.008,-1.38 -1.847,-2.544 -3.228,-1.843c-1.891,0.96 -3.119,3.17 -2.994,6.126c0.132,3.143 0.695,5.176 3.24,10.106c2.965,5.742 3.949,11.959 4.582,16.15c0.273,-0.116 0.603,0.032 0.709,-0c-0.432,-5.713 -2.29,-11.581 -4.607,-16.459c-2.807,-5.908 -3.592,-9.524 -2.656,-12.171c0.138,-0.389 0.268,-0.68 0.437,-0.705c0.314,-0.048 0.411,0.459 0.702,1.519c0.089,0.326 -0.024,0.837 -0.088,1.232c-0.245,2.423 1.436,7.465 2.998,9.705c0.458,0.638 1.043,0.616 0.537,-0.518c-1.609,-2.928 -2.59,-5.584 -2.719,-9.145c-0.037,-1.046 1.168,-0.576 1.195,-0.051c0.087,1.7 0.257,3.703 1.061,5.129c1.632,2.82 2.54,2.944 0.869,-0.206c-0.37,-0.731 -1.432,-3.821 -1.005,-4.883c0.239,-0.217 0.528,-0.255 0.671,-0.039c0.473,1.747 1.127,3.475 2.283,4.82c0.606,0.701 0.705,0.385 0.387,-0.489c-0.532,-1.011 -2.197,-4.393 -1.431,-5.155c0.248,-0.206 0.103,-0.095 0.776,1.014c0.936,1.544 1.446,2.15 1.901,2.601c0.605,0.601 0.752,0.196 0.126,-0.86c-1.249,-2.108 -1.96,-3.859 -1.521,-4.299c0.434,-0.436 0.539,-0.235 1.526,1.462c0.439,0.755 1.074,1.868 1.292,2.131c0.216,0.26 0.413,0.329 0.418,0.113c-0.231,-2.048 -1.971,-4.385 -2.672,-4.791c-0.101,-0.19 -0.065,-1.808 -0.065,-1.808c2.616,1.361 2.722,2.897 4.455,5.261c0.178,0.176 0.432,-0.039 0.356,-0.366c-0.061,-0.442 -1.086,-2.408 -1.729,-3.272c-0.505,-0.679 -0.529,-1.068 -0.1,-1.264c0.693,-0.316 1.662,0.723 2.693,2.581c0.478,0.861 1.118,1.361 1.12,0.909c-0,-0.249 -0.89,-2.471 -1.504,-3.114c-1.023,-1.07 -0.518,-1.817 0.667,-0.827c0.537,0.449 1.266,0.787 2.017,2.422c0.438,0.955 0.815,1.076 0.816,0.314c0,-0.856 -1.423,-2.947 -2.38,-3.525c-0.743,-0.449 -1.164,-0.949 -0.955,-1.283c0.65,-0.965 3.282,1.497 4.18,3.787c0.265,0.676 0.729,1.02 0.843,0.723c0.202,-0.151 -0.331,-1.802 -0.878,-2.566c-0.903,-1.747 -3.038,-3.435 -4.303,-3.232c-0.244,0.04 -0.916,-1.391 -0.916,-1.391c3.226,-0.526 6.361,3.373 6.918,4.832c1.058,2.768 1.596,2.444 0.671,0.016c-1.807,-4.746 -7.424,-7.404 -10.541,-5.108c-1.775,1.307 -0.713,4.435 1.112,3.904c0.726,-0.274 1.428,-1.022 0.152,-0.776c-1.42,0.144 -1.873,-2.037 -0.425,-2.474c2.329,-0.704 2.864,3.041 0.983,3.875c-1.952,0.844 -3.896,-0.415 -3.713,-2.578c0.346,-4.087 5.323,-5.269 10.235,-1.963c1.382,0.93 3.081,3.962 3.666,5.883c0.193,0.635 0.844,0.856 0.924,0.775c0.186,-0.187 -1.365,-3.561 -1.875,-4.418c-2.139,-4.943 -9.873,-5.188 -9.873,-4.932c-0,-0 -3.029,1.923 -5.72,5.093l-6.912,-0.642c17.81,-28.389 19.189,-70.352 0.931,-100.202c0.231,0.151 3.472,0.996 4.59,0.109c0.824,-0.399 1.061,-0.536 1.971,-0.206c1.025,0.372 2.105,0.043 3.221,-0.988c0.841,-0.776 0.858,-1.015 1.4,-0.945c1.603,0.21 2.668,-0.736 2.998,-3.069c0.13,-0.917 0.219,-1.871 0.088,-1.732c-0.075,0.081 -0.261,0.875 -0.379,1.373c-0.325,1.371 -0.624,1.873 -1.154,2.32c-0.872,0.737 -1.376,0.326 -1.012,-0.792c0.344,-0.721 0.63,-2.577 0.156,-3.421c-0.083,-0.151 -0.103,0.422 -0.222,0.882c-0.952,3.657 -1.949,5.514 -3.674,5.943c-0.81,0.201 -1.185,0.075 -0.923,-0.396c3.044,-3.272 2.84,-6.899 2.61,-6.589c-0.646,2.099 -1.848,5.226 -3.822,6.512c-1.705,1.11 -4.201,1.217 -5.59,0.285c-0.789,-0.53 0.403,-0.687 2.188,-0.712c3.007,-0.04 5.817,-4.092 5.35,-7.507c-0.11,-0.632 -0.281,0.046 -0.526,1.084c-1.109,3.699 -3.012,6.296 -7.358,5.521c-0.34,-0.061 -0.567,-0.286 -0.752,-0.416c-0.708,-0.495 -0.446,-0.834 0.959,-0.649c3.144,0.414 5.879,-2.56 5.862,-6.155c-0.008,-1.724 -0.252,-1.704 -0.525,-0.42c-0.382,1.811 -1.778,7.366 -6.862,5.552c-0.916,-0.501 -1.417,-1.142 -1.091,-1.236c2.966,0.604 5.683,-0.055 6.739,-3.985c0.456,-1.697 0.347,-3.354 -0.116,-4.743c-0.147,-0.943 -0.462,-1.662 -0.568,-2.62c-0.284,-2.567 -0.689,-5.401 -0.566,-8.21c0.243,-0.244 0.285,-0.191 1.138,0.381c1.676,1.123 2.943,0.864 4.647,0.198c2.193,-0.799 1.994,-0.655 -0.298,1.959c-0.527,0.545 -0.926,1.115 -1.172,1.807c0,0 0.87,-0.457 1.486,-1.238c1.14,-1.445 1.378,-1.778 1.603,-1.777c0.076,1.561 -0.482,3.458 -0.771,4.738c-0.379,1.419 -0.373,1.747 0.522,2.111c0.388,0.158 1.136,0.468 1.552,0.669c0.753,0.363 1.581,0.372 1.581,0.372c-0,-0 -0.478,-0.546 -1.373,-1.057c-2.019,-1.151 -2.037,-1.093 -1.458,-3.005c0.677,-2.242 1.01,-4.184 1.377,-6.403c0.907,-5.487 -3.195,-8.504 -8.643,-6.588c-0.312,0.158 -0.672,-2.885 -0.621,-3.69c-4.543,-4.685 -9.691,-12.044 -13.413,-18.069c23.916,0.06 47.48,-0.438 69.116,-0.381l0.002,0Zm0.958,0.491l23.74,0l-0,50.46l-2.347,0.05c-2.607,-4.572 -4.816,-8.879 -6.173,-13.226c-0.022,-0.191 0.053,-0.359 0.283,-0.62c1.043,-1.185 0.838,-3.581 -0.177,-4.735c-0.314,-0.375 -0.475,-0.249 -0.459,-1.16c0.014,-0.783 0.086,-1.283 -0.119,-1.687c-0.343,-0.674 -0.575,-0.722 -0.084,-1.465c0.514,-0.778 1.195,-2.042 1.483,-3.033c0.465,-1.601 0.139,-1.9 1.174,-1.524c2.6,0.836 4.777,-1.037 4.709,-3.684c-0.057,-2.228 -2.121,-4.214 -4.522,-3.605c-0.553,0.141 -0.662,0.093 -1.514,-0.447c-0.244,-0.154 -0.616,-0.481 -0.931,-0.602c-0.395,-0.152 -0.722,-0.138 -0.886,-0.423c-0.322,-0.56 -1.326,-1.449 -2.55,-1.392c-0.747,0.035 -1.717,-0.237 -1.975,-0.373c-0.426,-0.225 -1.623,-0.042 -3.144,-0.272c-0.676,-0.102 -1.222,0.162 -1.549,0.166c-0.937,0.011 -0.555,-0.105 -0.733,-0.823c-1.174,-3.746 -4.603,-3.301 -6.174,-0.484c-0.577,1.106 -0.994,2.607 -1.211,4.3l-9.235,0l12.394,-15.421Zm-71.461,0.109c3.449,4.43 6.749,9.395 10.227,13.918c4.279,5.477 4.42,6.107 3.271,11.619c-0.643,3.116 -0.919,3.835 -2.221,3.599c-1.222,-0.221 -2.257,0.751 -2.423,1.98c-0.313,2.307 1.89,3.727 4.104,2.573c1.166,-0.609 1.205,-0.674 0.816,1.337c-0.557,2.883 -1.674,5.364 -2.392,5.283c-1.856,-3.976 -6.37,-1.147 -4.871,2.986c-0.469,0.722 0.147,1.637 0.383,2.393c-0,-0 0.009,0.09 -2.569,0.951c-12.66,3.783 -28.114,13.66 -36.675,22.932l-0,-69.38l32.35,-0.191Zm72.845,9.493c1.954,-0.101 2.339,3.15 0.579,5.547c-1.602,3.67 -1.165,6.562 -0.798,10.415c-0.01,2.238 -0.758,4.364 -1.951,5.283c-1.933,1.49 -4.316,-0.504 -3.313,-2.526c0.513,-1.004 1.603,-0.418 1.859,-1.368c0.422,-5.53 -1.653,-10.511 0.645,-15.442c1.21,-1.318 2.215,-1.87 2.979,-1.909Zm5.349,3.574l0,0.001c0.086,0.011 0.166,0.033 0.241,0.069c1.085,0.524 1.672,3.445 0.652,5.222c-0.216,0.04 -1.802,0.033 -1.81,0.064c-0.026,-0.353 0.078,-1.059 0.196,-1.734c0.101,-0.577 0.162,-1.016 -0.01,-1.637c-0.414,-1.491 -0.689,-1.818 0.453,-1.979c0.099,-0.014 0.192,-0.017 0.278,-0.006l0,-0Zm2.469,0.013c0.174,-0.001 0.323,0.059 0.487,0.132c1.064,0.477 1.584,2.827 1.217,5.32c-0.059,0.407 -0.095,0.833 -0.243,0.929c-0.555,-0.152 -2.096,0.404 -2.123,0.4c-0.145,-0.15 -0.087,-0.956 0.11,-1.683c0.365,-1.344 0.398,-2.219 0.039,-3.627c-0.297,-1.162 -0.315,-1.393 0.329,-1.447c0.065,-0.016 0.126,-0.024 0.184,-0.024l0,0Zm-5.325,0.057c1.247,-0.059 0.777,1.942 0.347,2.315c-0.438,0.369 -1.168,0.377 -1.253,-0.084c-0,-0.482 0.376,-2.021 0.634,-2.191c0.099,-0.023 0.189,-0.034 0.272,-0.038l0,-0.002Zm8.215,0.674c0.105,0.002 0.207,0.015 0.302,0.036c1.459,0.248 1.554,4.334 0.955,5.661c-0.143,0.196 -0.695,0.147 -0.891,0.22c-1.241,0.36 -0.965,0.548 -0.821,-1.449c0.099,-1.369 0.124,-2.434 -0.079,-3.565c-0.099,-0.496 -0.139,-0.841 0.218,-0.874c0.103,-0.021 0.211,-0.03 0.316,-0.028l-0,-0.001Zm-6.98,1.632c0.581,0.805 0.113,2.669 -0.33,3.361c-0.506,0.763 -0.71,0.826 -0.434,1.161c0.117,0.142 0.362,0.862 0.212,1.165c-0.279,0.561 0.435,0.663 1.084,1.004c1.053,0.557 1.564,1.583 2.35,3.452c0.274,0.651 0.836,0.447 0.564,-0.254c-0.234,-0.6 -0.325,-1.485 -0.486,-2.075c-0.168,-0.606 0.016,-0.908 0.708,-0.731c1.039,0.267 0.894,0.018 1.274,-0.123c0.834,-0.467 1.394,0.192 0.89,0.558c-0.289,0.21 -0.906,0.338 -1.589,0.528c-0.579,0.161 -0.444,0.725 0.138,0.723c0.538,-0 2.081,-0.44 3.087,-0.748c2.885,-0.883 2.982,-1.353 2.712,0.307c-0.356,2.196 -1.54,3.843 -3.497,4.4c-1.704,0.485 -5.637,0.392 -7.39,-0.175c-1.664,-0.763 -1.774,-1.296 -2.277,-2.779c-0.689,-2.03 -1.094,-5.466 -0.302,-7.464c0.697,-1.686 0.626,-1.51 1.295,-1.425c0.595,0.21 1.395,-0.023 1.573,-0.393c0.089,-0.175 0.316,-0.497 0.418,-0.492Zm10.11,0.166c0.453,0.022 0.902,0.508 0.969,1.243c0.067,0.732 0.092,1.681 -0.163,2.339c-0.179,0.327 -1.402,0.311 -1.792,0.315c0.041,0.101 0.445,-1.676 0.247,-3.39c0.194,-0.366 0.467,-0.52 0.739,-0.507Zm3.187,0.531c1.737,0.104 3.231,1.877 2.978,3.55c-0.182,3.528 -5.717,3.231 -5.078,0.892c0.573,-1.244 0.175,-2.794 0.337,-3.925c0.578,-0.401 1.184,-0.552 1.763,-0.517Zm-31.519,0.02l2.963,0l0,0.681l-3.477,-0l0.514,-0.681Zm9.92,0.086l-0,0.914l-4.226,0.007l0,5.739l4.716,-0l0.123,1.19l-6.441,-0.023l0.018,-7.823c1.829,0.001 4.255,-0.01 5.81,-0.004l-0,-0Zm-11.308,1.593l4.351,-0l0,0.944l-4.957,-0.01l0.606,-0.934Zm9.565,0.728l1.468,1.467l-1.468,1.465l-1.469,-1.465l1.469,-1.467Zm11.84,0.593c0.789,0.087 0.857,1.311 0.535,1.669c-0.414,0.416 -1.186,0.24 -1.421,-0.397c-0.212,-0.574 0.263,-1.297 0.886,-1.272Zm-22.591,0.549l5.537,0l0,0.813l-5.59,-0l-0.146,-0.494l0.199,-0.319Zm30.566,0.316c0.753,-0.018 1.215,0.624 0.744,1.17c-0.709,0.798 -2.155,-0.423 -0.744,-1.17Zm-52.784,0.103c-1.867,0.006 -3.67,0.472 -5.075,1.57c-1.215,1.039 -0.242,2.061 1.373,1.077c3.472,-2.118 8.594,-0.441 11.933,1.322c0.654,0.34 0.742,-0.45 0.098,-0.998c-1.927,-1.719 -5.217,-2.982 -8.329,-2.971Zm47.54,0.122c0.848,0.008 0.836,1.075 0.291,1.458c-0.544,0.239 -0.639,0.172 -1.001,0.029c-0.495,-0.195 -0.125,-1.483 0.71,-1.487l-0,0Zm3.003,0.016c1.005,0.051 0.894,2.099 -0.624,1.36c-0.55,-0.6 -0.195,-1.364 0.624,-1.36Zm-28.063,1.102l5.275,0l0,0.82l-4.934,0l-0.341,-0.82Zm-37.315,1.133c1.265,0.016 2.533,0.351 3.214,0.869c1.442,1.159 0.994,1.231 -1.397,0.378c-1.562,-0.353 -3.117,-0.128 -4.095,0.264c-1.157,0.464 -1.425,0.329 -0.924,-0.456c0.673,-0.765 1.936,-1.07 3.202,-1.055Zm15.615,0.374c-1.988,-0.069 -3.865,0.624 -5.468,2.416c-0.145,0.361 -0.639,-0.29 -1.308,-0.164c-0.955,0.181 -0.679,0.227 0.329,1.389c1.009,1.163 1.339,1.438 1.278,1.886c-0.091,0.659 0.092,1.02 0.74,0.947c0.311,-0.034 0.681,0.331 1.158,0.77c1.65,1.521 2.485,2.277 3.022,2.512c0.842,0.368 1.374,0.32 1.374,0.32c0,0 -0.711,-0.82 -1.57,-1.421c-1.598,-1.118 -2.482,-1.98 -2.344,-2.223c0.064,-0.111 0.34,-0.093 0.86,0.089c1.758,0.618 4.556,0.267 5.932,-0.574c0.678,-0.415 1.107,-1.049 2.063,-0.739c1.343,0.435 1.856,-0.368 1.483,-0.817c-0.609,-0.397 -2,-0.87 -3.321,-1.77c-2.826,-1.453 -5.797,-1.41 -7.776,-0.241c-1.167,0.69 -1.573,0.206 -0.43,-0.477c4.362,-2.384 7.875,-0.357 10.717,1.425c0.414,0.26 0.699,0.452 1.172,0.601c0,0 -1.251,-1.44 -1.78,-1.766c-2.046,-1.262 -4.144,-2.094 -6.131,-2.163Zm22.39,0.204l4.585,-0l0,0.898l-4.248,-0l-0.337,-0.898Zm-37.315,1.162c1.27,-0.007 4.033,1.15 3.988,2.108c-0.053,0.363 -0.744,0.036 -1.345,-0.335c-1.162,-0.72 -2.946,-0.911 -4.625,-0.594c-1.289,0.243 -1.7,0.459 -1.883,0.303c-0.446,-1.015 2.686,-1.476 3.865,-1.482Zm38.06,0.685l11.53,0c0.117,1.235 0.025,1.21 0.009,1.645c-2.49,0.184 -3.003,2.988 -1.405,4.549c1.309,1.281 3.473,0.775 4.561,-1.04c0.592,-0.927 0.855,-2.1 1.13,-3.023l0.406,0.692c-1.016,1.277 -1.162,2.068 -1.012,2.678c0.172,0.863 -0.072,1.083 -0.636,1.822c-0.912,1.195 -1.037,2.701 -0.465,3.822c0.158,0.309 0.487,0.749 0.43,0.952c0.319,-0.009 -2.827,8.915 -7.422,13.411c-0.769,0.519 -1.327,-0.092 -0.93,-0.928c3.743,-8.672 -3.418,-16.831 -6.196,-24.58l-0,0Zm-21.743,1.502c0.216,0.005 0.438,0.033 0.656,0.053c-0.528,3.995 -4.352,3.351 -4.503,0.097l0.552,-0.019c0.676,2.671 3.064,2.218 3.295,-0.131l-0,-0Zm-21.601,0.076c0,0 0.277,0.446 0.277,0.695c-0,0.93 -0.015,2.275 -0.039,2.682c-0.221,3.845 -5.033,4.558 -4.667,1.269c0.287,-1.397 2.027,-1.552 2.454,-0.288c0.625,1.589 0.735,-0.383 0.743,-1c0.51,-0.968 0.884,-2.143 1.232,-3.358l0,0Zm23.184,0.272c0.197,0.008 0.551,0.18 0.828,0.482c0.317,0.345 0.199,0.517 -0.54,0.903c-0.8,0.417 -1.163,0.38 -0.875,-0.463c0.179,-0.524 0.333,-0.928 0.587,-0.922Zm-6.157,0.327c0.466,-0.028 0.489,0.996 0.412,1.224c-0.094,0.282 -0.258,0.16 -0.678,-0.202c-0.463,-0.399 -0.439,-0.653 0.039,-0.94c0.085,-0.053 0.161,-0.079 0.228,-0.082l-0.001,-0Zm-14.155,0.182c0.803,2.572 2.44,2.246 3.171,0.125l0.702,-0.012c-0.154,3.312 -4.29,3.255 -4.326,0.053l0.453,-0.166Zm-1.412,0.3c0.154,0.019 0.068,0.36 0.09,0.424c-0.015,0.207 -0.058,0.415 -0.058,0.415c0,-0 -0.664,-0.34 -0.279,-0.731c0.118,-0.087 0.195,-0.115 0.247,-0.108l-0,-0Zm6.037,0.236c0.084,-0.007 0.242,0.059 0.414,0.175c0.402,0.27 0.332,0.429 -0.127,0.817c-0.707,0.598 -1.025,0.266 -0.643,-0.536c0.142,-0.299 0.248,-0.449 0.356,-0.456Zm63.091,0.75c0.796,-0.027 1.342,1.415 0.896,2.482c-0.209,0.502 -0.172,0.565 0.468,1.24c0.909,0.958 1.055,2.5 0.365,3.906c-0.502,1.023 -0.469,0.932 0.127,2.679c1.278,3.799 3.158,7.332 5.135,10.801l-2.637,-0.996c0,-0 -11.903,10.374 -20.299,10.767l3.041,4.805c4.783,1.938 9.357,1.453 13.731,-1.337c-0.108,0.401 5.323,3.093 9.782,3.386l0.027,3.234c-3.309,-0.376 -6.663,-0.453 -9.737,-2.414c0,-0 -2.825,1.198 -5.656,2.096l15.853,16.623l0.009,2.779c0,-0 -6.767,-6.403 -13.731,-13.621l0.149,35.496l13.716,0.131c0,0 -0.257,15.252 -0.165,25.833c-6.481,6.742 -15.399,13.487 -23.639,17.538c-3.889,-3.802 -7.102,-7.92 -9.913,-12.324c0.398,-0.429 0.155,-0.435 -0.437,-0.685c-1.714,-2.587 -5.697,-9.76 -5.066,-9.928c1.218,0.086 6.866,-0.623 7.991,-4.054c-0.14,-2.589 0.804,-5.613 -0.042,-8.028c-1.213,-3.237 2.438,-2.199 2.562,-1.983l0,-12.226c-4.751,3.862 -9.546,7.662 -15.899,9.252c-4.004,-20.19 2.121,-45.424 20.178,-62.453l-0.98,0c-18.353,19.251 -23.165,40.46 -20.033,62.756c-0,-0 0.115,0.697 0.134,0.933c0.043,0.555 -0.089,0.766 -0.576,1.167c-0.463,0.309 -0.885,0.641 -0.843,1.022c0.014,0.125 0.102,0.612 0.102,0.612l-0.339,0.154c-0.705,-0.076 -0.945,-0.041 -1.364,0.112l0.218,-0.56l-1.393,0.677l-0.851,-0.952l-0.806,1.195l-1.703,-0.157c0,-0 1.551,2.127 2.016,3.103c-0.033,0.098 -0.284,0.557 -0.306,0.654c-0.177,0.797 0.048,1.565 1.163,2.024c-0.072,0.007 -0.756,2.737 1.184,2.658c0.617,0.008 2.182,0.326 2.182,0.326c0.102,0.522 -0.062,0.82 -0.306,1.051l-1.351,-0.685l-0.351,1.63l-1.8,-0.129l4.376,5.478l0.511,-4.273l5.114,0.657c0.822,2.16 5.99,14.136 15.868,23.076c-0.108,0.293 -6.795,3.089 -6.795,3.089l-1.058,-3.326l-0.847,1.236l-1.512,-0.392l-0.176,1.399l-1.346,0.439l2.426,1.596l-6.151,1.78c-17.231,-28.177 -24.989,-67.034 -3.53,-108.423l5.423,0.069l-1.06,1.835l1.542,-0.248l0.436,1.336l1.131,-0.541l1.139,1.446l1.295,-3.824c0,0 3.608,0.067 4.088,0.018c0.375,-0.043 8.352,-6.647 8.185,-6.898c-0.12,-0.181 -8.433,5.977 -8.712,5.741c-0,0 -0.834,0.203 -0.184,-0.586c1.167,-1.415 1.991,-2.493 3.175,-4.526c1.36,-2.649 4.33,-7.923 3.217,-9.002c-1.137,-3.059 0.978,-3.609 1.271,-5.15c-0.302,-0.86 -0.159,-1.854 0.459,-2.432c2.963,0.096 7.101,0.958 10.747,-0.139c0.055,-0.016 0.109,-0.024 0.162,-0.025l0,-0Zm-55.482,5.305c-0.426,-0.05 -0.876,0.333 -0.483,0.496l0,0.006c3.403,1.417 0.67,4.555 -1.857,1.82c-1.324,-1.434 -2.371,-1.344 -3.091,-0.297c-0.325,0.472 0.148,1.302 0.568,1.039c0.389,-0.244 0.789,-0.535 1.356,-0.009c4.304,4.017 7.395,-1.606 3.686,-3.005c-0.057,-0.027 -0.118,-0.043 -0.179,-0.05l-0,-0Zm-14.5,0.364c0.033,0 0.07,0.016 0.12,0.047c0.161,0.102 0.171,1.521 0.01,2.118c-0.537,3.024 -2.665,10.053 -7.029,6.613c-1.733,-1.366 -0.156,-4.797 1.917,-3.632c1.62,0.911 0.528,3.083 -1.225,1.836c-0.851,-0.605 -0.583,0.643 0.137,0.999c1.218,0.646 3.425,-0.46 4.459,-2.433c0.413,-0.787 0.8,-2.178 1.235,-4.18c0.219,-1.007 0.238,-1.36 0.377,-1.368l-0.001,0Zm0.368,5.236c0.36,2.187 -1.282,6.017 -3.619,6.582c-1.79,0.433 -4.001,-0.749 -3.842,-1.843c0.046,-0.317 0.173,0.102 1.793,0.374c2.264,0.379 3.706,-0.859 5.009,-3.712c0.412,-0.901 0.587,-1.381 0.659,-1.401Zm15.621,0.536c-0.135,0.034 -0.291,0.175 -0.462,0.362c-0.3,0.327 -0.906,0.398 -1.581,0.031c-0.803,-0.438 -1.923,-0.23 -2.301,0.082c-0.376,0.311 -0.921,0.354 -1.66,-0.151c-0.489,-0.335 -0.761,-0.161 -1.361,0.111c-0.987,0.449 -1.366,0.207 -1.902,-0.213c-0.487,-0.36 -0.716,-0.246 -0.721,0.288c-0,0.247 -0.116,0.899 -0.218,1.33c-0.241,1.025 -0.394,1.413 0.712,0.906c0.731,-0.342 1.801,-0.68 2.908,-0.058c1.22,0.686 2.385,0.559 3.823,-0.059c1.248,-0.421 1.857,-0.426 2.554,-0.02c1.272,0.741 0.835,0.268 0.671,-1.602c-0.071,-0.823 -0.237,-1.063 -0.462,-1.007l-0,0Zm-14.888,2.081c0.129,0 0.144,0.503 0.054,1.52c-0.411,3.75 -3.308,5.839 -6.718,4.023c-1.494,-0.864 -1.292,-1.473 0.179,-0.933c2.345,0.862 4.713,-0.344 5.871,-3.425c0.297,-0.79 0.5,-1.184 0.614,-1.185l0,0Zm7.616,1.748c-0.645,-0.058 -0.439,0.418 0.456,0.811c1.099,0.409 3.126,0.699 4.357,-0.138c0.366,-0.581 -0.387,-0.472 -0.792,-0.372c-1.474,0.364 -2.476,0.198 -3.087,-0.041c-0.409,-0.161 -0.719,-0.24 -0.934,-0.259l0,-0.001Zm-16.884,3.03c2.185,2.712 2.472,3.241 4.355,6.325c13.764,23.684 18.172,53.619 9.123,80.794c-2.483,7.498 -5.985,15.141 -9.912,21.28l-4.713,0.05l1.617,-1.871l-2.192,0.165l-0.134,-1.238l-1.664,0.546l-0.802,-1.867l-1.507,4.272l-8.735,0.024c20.458,-20.155 24.487,-44.581 20.671,-64.19c0,0 1.711,-1.085 1.949,-1.719c0.058,-0.154 0.185,-0.808 0.303,-0.905c0.469,-0.311 0.84,-0.618 1.144,-0.784c0.19,-0.103 0.496,-0.114 0.496,-0.114c0,-0 0.813,0.634 1.252,1.065l0.654,-1.706l2.136,0.459c0,-0 -0.819,-1 -1.184,-1.521c-0.639,-0.913 -1.092,-1.546 -1.092,-1.546c0.373,-0.931 -0.222,-1.737 -0.868,-2.381c0.116,-2.215 -1.038,-2.526 -3.414,-3.021c0.343,-0.303 0.46,-0.564 0.534,-0.944l1.397,1.127l0.506,-2.091l1.894,0.104l-5.492,-5.387c0.027,1.52 0.099,3.056 -0.038,4.52c-2.574,-0.142 -5.114,-0.982 -5.153,-0.823c-3.78,-9.022 -9.538,-16.652 -15.619,-22.606l6.074,-2.958l1.721,3.327l0.423,-1.885l1.506,0.269l0.254,-1.21l1.664,-0.236l-1.837,-1.769l4.683,-1.555Zm36.171,3.891c0.232,0.296 0.419,0.316 0.729,0.586l-0.621,0.447c0.029,-0.423 -0.009,-0.639 -0.108,-1.033Zm-40.412,1.111c-0.515,0 -0.936,0.427 -0.936,0.949c0,0.523 0.421,0.945 0.936,0.945c0.515,0 0.931,-0.422 0.931,-0.945c0,-0.522 -0.416,-0.949 -0.931,-0.949Zm5.068,0.151c-0.517,0 -0.936,0.424 -0.936,0.948c-0,0.524 0.419,0.95 0.936,0.95c0.516,-0 0.935,-0.426 0.935,-0.95c0,-0.524 -0.419,-0.948 -0.935,-0.948Zm-16.327,0.693c3.007,2.534 5.773,5.837 9.127,11.002l-0.069,0.695l1.022,0.385c0,0 5.58,7.444 5.286,10.753c-1.916,0.405 -3.667,-0.121 -7.091,3.126c-1.617,-0.882 -2.576,-0.6 -4.25,-0.105c0,0 0.03,0.736 0.607,0.983c1.114,-1.326 2.327,-0.71 2.987,-0.38c-0.237,0.102 -0.841,7.498 0.334,9.073c0.885,2.511 -1.44,2.034 -3.052,1.415l0.463,11.744c5.307,-6.136 16.513,-10.23 15.718,-9.785c5.625,30.121 -7.748,50.216 -21.746,64.945l7.336,0.042c0,0 -6.324,10.285 -6.795,13.129c0.36,0.945 1.354,2.903 -0.326,4.276c-0.569,0.632 -0.628,3.499 -0.628,3.499c-3.858,0.135 -7.202,-1.223 -11.65,0.358c-0.46,0.156 -0.56,-2.456 -0.582,-2.928c-2.486,-2.234 -0.211,-6.071 0.126,-5.788c-2.006,-5.974 -6.04,-13.106 -6.04,-13.106c0,0 -2.431,-0.132 -3.911,-0.217c-0.309,-0.262 -0.508,-7.226 -0.196,-7.393c10.995,0.884 28.2,-0.13 28.2,-0.13l-4.617,-6.538c-5.687,-2.247 -13.502,1.591 -13.125,1.793c0.018,0.023 -6.246,-3.464 -10.592,-2.968l0.143,-3.416c3.86,-0.015 7.422,0.714 10.531,2.574l5.281,-1.995l-16.189,-17.217l0.187,-2.839c5.276,4.95 13.932,14.524 13.932,14.524l0.012,-36.145l-13.92,-0.036c-0.169,-9.039 -0.724,-16.788 -0.606,-25.427c6.726,-6.675 24.093,-17.902 24.093,-17.902l-0,-0.001Zm11.892,1.015l1.621,7.207l1.089,-1.368l1.672,0.533l0.116,-1.661l1.521,-0.536l-6.019,-4.175Zm55.315,1.199c-0.517,0 -0.936,0.424 -0.936,0.948c-0,0.524 0.419,0.948 0.936,0.948c0.516,-0 0.935,-0.424 0.935,-0.948c0,-0.524 -0.419,-0.948 -0.935,-0.948Zm-4.379,0.592c-0.517,0 -0.936,0.426 -0.936,0.95c-0,0.524 0.419,0.948 0.936,0.948c0.516,-0 0.934,-0.424 0.934,-0.948c-0,-0.524 -0.418,-0.95 -0.934,-0.95Zm-53.636,0.841c-0.517,0 -0.936,0.424 -0.936,0.948c-0,0.524 0.419,0.949 0.936,0.949c0.516,0 0.935,-0.425 0.935,-0.949c0,-0.524 -0.419,-0.948 -0.935,-0.948Zm56.993,0.572l-6.511,6.207l1.825,-0.078l0.327,1.812l1.633,-0.758l1.323,1.237l1.403,-8.42Zm2.771,2.085c-0.517,-0 -0.936,0.425 -0.936,0.949c0,0.524 0.419,0.948 0.936,0.948c0.517,0 0.936,-0.424 0.936,-0.948c-0,-0.524 -0.419,-0.949 -0.936,-0.949Zm-51.78,1.223c-0.517,-0 -0.936,0.424 -0.936,0.947c-0,0.524 0.419,0.95 0.936,0.95c0.516,-0 0.935,-0.426 0.935,-0.95c0,-0.523 -0.419,-0.947 -0.935,-0.947Zm4.049,0.793c-0.517,0 -0.936,0.424 -0.936,0.948c0,0.524 0.419,0.949 0.936,0.949c0.517,0 0.936,-0.425 0.936,-0.949c-0,-0.524 -0.419,-0.948 -0.936,-0.948Zm-3.674,1.411c0.179,2.536 0.471,5.544 0.537,8.085l1.234,-1.231l1.428,0.586l0.506,-1.559l1.552,-0.078l-5.257,-5.803Zm40.09,2.116c-0.517,0 -0.936,0.424 -0.936,0.948c0,0.524 0.419,0.949 0.936,0.949c0.517,0 0.936,-0.425 0.936,-0.949c-0,-0.524 -0.419,-0.948 -0.936,-0.948Zm-42.774,0.166c-0.517,0 -0.936,0.424 -0.936,0.948c0,0.524 0.419,0.949 0.936,0.949c0.517,0 0.936,-0.425 0.936,-0.949c-0,-0.524 -0.419,-0.948 -0.936,-0.948Zm46.483,0.229c-0.516,0 -0.936,0.426 -0.936,0.95c0,0.524 0.495,0.948 0.936,0.948c0.441,-0 0.936,-0.424 0.936,-0.948c0,-0.524 -0.419,-0.95 -0.936,-0.95Zm-0.554,2.05l-5.398,5.627l1.768,0.168l0.556,1.597l1.131,-0.971l1.373,1.018l0.57,-7.439Zm2.964,1.207c-0.516,-0 -0.935,0.424 -0.935,0.948c-0,0.524 0.419,0.949 0.935,0.949c0.517,0 0.936,-0.425 0.936,-0.949c0,-0.524 -0.419,-0.948 -0.936,-0.948Zm-42.559,1.754c-0.516,0 -0.935,0.425 -0.935,0.948c-0,0.524 0.419,0.95 0.935,0.95c0.517,-0 0.936,-0.503 0.936,-0.95c0,-0.447 -0.419,-0.948 -0.936,-0.948Zm-23.06,0.769l-1.364,1.057c1.124,0.443 1.756,1.399 1.756,1.399c-0,0 -0.151,-0.562 -0.392,-2.456Zm27.486,0.638c-0.516,-0 -0.935,0.425 -0.935,0.949c-0,0.524 0.419,0.948 0.935,0.948c0.517,0 0.935,-0.424 0.935,-0.948c-0,-0.524 -0.418,-0.949 -0.935,-0.949Zm-6.703,1.353c-0.517,0 -0.936,0.424 -0.936,0.948c-0,0.524 0.419,0.949 0.936,0.949c0.516,0 0.935,-0.425 0.935,-0.949c0,-0.524 -0.419,-0.948 -0.935,-0.948Zm38.652,1.911c-0.517,-0 -0.936,0.425 -0.936,0.949c0,0.524 0.419,0.948 0.936,0.948c0.517,-0 0.936,-0.424 0.936,-0.948c-0,-0.524 -0.419,-0.949 -0.936,-0.949Zm-3.693,1.393c-0.517,-0 -0.936,0.424 -0.936,0.948c0,0.524 0.419,0.948 0.936,0.948c0.517,-0 0.936,-0.424 0.936,-0.948c-0,-0.524 -0.419,-0.948 -0.936,-0.948Zm37.695,0.233l1.943,2.143l0,31.341l-1.898,0.038l-0.045,-33.522Zm-75.684,0.219l-0,0.005c1.584,-0 3.351,0.234 3.912,1.209c0.875,1.095 -0.985,0.671 -2.55,0.91c-1.445,0.179 -0.608,0.477 1.434,0.598c2.813,0.169 3.918,0.243 4.337,0.901c0.238,0.612 0.064,1.025 0.115,1.684l-3.194,-0.151c-1.657,-0 -2.63,-0.03 -3.121,0.097c-0.392,0.101 -0.279,0.42 -0.146,0.557c0.07,0.071 1.34,0.088 2.825,0.127c3.997,0.107 4.883,0.244 5.166,1.548c0.215,1.195 -0.748,1.014 -4.855,0.56c-1.828,-0.151 -2.811,0.284 -3.076,0.416c-0.45,0.224 1.306,0.444 1.879,0.349c0.359,-0.057 2.996,0.232 3.966,0.416c0.816,0.126 0.097,0.102 -0.315,0.606c-0.273,0.417 -0.187,0.896 -0.614,1.131c-0.524,0.281 -1.561,0.276 -3.424,0.277c-2.129,0 -3.121,0.525 -0.198,0.654c1.888,0.083 1.993,0.05 2.154,0.602c0.426,1.363 -0.481,1.601 -2.407,1.912c-0.92,0.16 -2.287,0.07 -3.318,-0.009c-4.074,-0.294 -5.485,-1.278 -6.036,-3.098c-2.054,-6.79 0.481,-10.936 6.415,-11.27c0.33,-0.018 0.685,-0.031 1.051,-0.03l-0,-0.001Zm41.173,0.306l-4.6,6.783l1.773,-0.699l0.844,1.84l1.418,-1.027l1.418,0.886l-0.853,-7.783Zm-35.635,0.215c0.468,0.048 0.944,0.284 1.219,0.61c0.238,0.295 0.134,0.516 -0.261,0.734c-0.333,0.184 -0.902,0.048 -1.277,-0.116c-0.495,-0.217 -0.545,-1.113 -0.138,-1.209c0.146,-0.03 0.301,-0.035 0.457,-0.019l0,-0Zm-32.1,0.264l-2.111,2.332c-0,0 1.943,-0.704 2.985,-1.119l-0.874,-1.213Zm70.604,1.042c-0.516,0 -0.936,0.424 -0.936,0.948c0,0.524 0.42,0.949 0.936,0.949c0.517,0 0.936,-0.425 0.936,-0.949c0,-0.524 -0.419,-0.948 -0.936,-0.948Zm34.249,0.82c-0,0 2.343,2.346 3.305,3.332l-0.87,-0.008l0.023,1.85l2.773,0.031l1.523,1.512l-4.235,-0.019l-0,1.888l5.242,0.008l-0.026,-0.808l2.07,1.901l0.246,21.016l-2.294,0.009l0,-0.295l-5.272,-0.012c0.014,0.713 -0,0.276 -0,0.276l-2.423,-0.009c-0.026,-10.224 -0.013,-20.45 -0.062,-30.672l-0,0Zm-69.132,1.124c0.155,0.013 0.305,0.059 0.467,0.15c0.305,0.173 0.308,0.577 0.137,1.004c-0.144,0.454 -0.465,0.455 -1.013,0.229c-0.81,-0.334 -0.694,-1.241 -0.079,-1.337c0.176,-0.04 0.334,-0.058 0.488,-0.046l0,0Zm3.748,1.551c-0.517,-0 -0.936,0.424 -0.936,0.947c0,0.524 0.419,0.95 0.936,0.95c0.517,-0 0.936,-0.426 0.936,-0.95c-0,-0.523 -0.419,-0.947 -0.936,-0.947Zm-3.293,0.727c0.366,0.023 0.729,0.212 0.936,0.419c0.512,0.523 0.329,1.012 -0.243,1.314c-0.642,0.338 -1.093,-0.123 -1.28,-0.894c-0.126,-0.52 0.174,-0.822 0.587,-0.839Zm29.371,2.487c-0.519,-0 -0.939,0.426 -0.939,0.952c0,0.526 0.42,0.954 0.939,0.954c0.519,-0 0.94,-0.428 0.94,-0.954c0,-0.526 -0.421,-0.952 -0.94,-0.952Zm-30.92,1.155c0.806,0.027 1.049,0.863 0.628,1.31c-0.604,0.607 -1.543,0.347 -1.676,-0.233c-0.043,-0.653 0.483,-1.077 1.048,-1.077Zm27.568,0.385c-0.517,-0 -0.936,0.425 -0.936,0.949c0,0.524 0.419,0.948 0.936,0.948c0.517,-0 0.935,-0.424 0.935,-0.948c-0,-0.524 -0.418,-0.949 -0.935,-0.949Zm3.323,0.63l-4.188,7.121l1.695,-0.68l1.029,1.373l1.058,-0.938l1.599,0.794l-1.193,-7.67Zm-32.859,1.189c0.749,-0 0.958,0.601 0.414,1.148c-0.37,0.371 -0.788,0.382 -1.215,0.038c-0.648,-0.522 -0.151,-1.191 0.801,-1.186l0,-0Zm35.793,0.088c-0.517,0 -0.936,0.424 -0.936,0.948c-0,0.524 0.419,0.949 0.936,0.949c0.516,0 0.935,-0.425 0.935,-0.949c0,-0.524 -0.419,-0.948 -0.935,-0.948Zm-30.485,0.748c-0.517,0 -0.898,0.424 -0.898,0.948c0,0.524 0.419,0.949 0.936,0.949c0.517,0 0.936,-0.425 0.936,-0.949c-0,-0.524 -0.457,-0.948 -0.974,-0.948Zm69.371,0.21l0,2.013l5.277,0.009l-0,-2.013l-5.277,-0.009Zm-69.302,1.789l-2.022,7.483l1.691,-0.976l1.055,1.092l0.981,-1.224l1.765,0.467l-3.47,-6.842Zm3.593,0.812c-0.517,0 -0.936,0.424 -0.936,0.948c0,0.524 0.419,0.948 0.936,0.948c0.517,0 0.935,-0.424 0.935,-0.948c-0,-0.524 -0.418,-0.948 -0.935,-0.948Zm-6.589,0.381c-0.516,-0 -0.936,0.424 -0.936,0.948c0,0.524 0.42,0.949 0.936,0.949c0.517,0 0.936,-0.425 0.936,-0.949c0,-0.524 -0.419,-0.948 -0.936,-0.948Zm72.294,0.591l-0,1.807l5.276,0l0,-1.796l-5.276,-0.011Zm-43.42,2.363c-0.517,-0 -0.936,0.425 -0.936,0.949c-0,0.524 0.419,0.948 0.936,0.948c0.517,-0 0.936,-0.424 0.936,-0.948c-0,-0.524 -0.419,-0.949 -0.936,-0.949Zm43.424,1.011l0,1.947l5.277,-0l-0,-1.947l-5.277,-0Zm-108.795,0.236l1.856,0.036l0.031,33.949l-1.81,-1.94l-0.077,-32.045Zm-0.774,0.068l-0.092,31.029l-3.517,-3.747l0.936,-0.012l-0,-2.114l-3.045,-0.024l-1.299,-1.283l4.341,0.009l-0,-2.075l-5.15,-0.021l-0,1.257l-2.531,-2.738l0.043,-20.26l2.5,0.036l-0,0.222l5.172,0.021l-0,-0.291l2.642,-0.009Zm66.283,0.948l-2.818,7.383l1.772,-1.023l0.917,0.914l0.947,-0.867l1.61,0.796l-2.428,-7.203Zm-74.099,0.354l0,1.987l5.174,-0l-0,-1.987l-5.174,-0Zm77.289,0.4c-0.517,-0 -0.936,0.425 -0.936,0.949c0,0.524 0.419,0.948 0.936,0.948c0.517,-0 0.936,-0.424 0.936,-0.948c-0,-0.524 -0.419,-0.949 -0.936,-0.949Zm-6.368,0.105c-0.517,0 -0.936,0.426 -0.936,0.95c0,0.524 0.419,0.948 0.936,0.948c0.517,-0 0.936,-0.424 0.936,-0.948c-0,-0.524 -0.419,-0.95 -0.936,-0.95Zm-22.018,0.353c-0.517,0 -0.936,0.426 -0.936,0.949c-0,0.524 0.419,0.948 0.936,0.948c0.516,0 0.935,-0.424 0.935,-0.948c0,-0.523 -0.419,-0.949 -0.935,-0.949Zm68.482,0.767l0,2.087l5.277,-0l-0,-2.087l-5.277,0Zm-68.597,1.177l-0.782,1.224l-1.792,-0.617l2.444,7.49l3.064,-7.813l-1.76,1.018l-1.174,-1.302Zm-48.788,0.544l0,1.984l5.174,-0l-0,-1.984l-5.174,0Zm117.385,1.777l0,2.069l5.272,-0l0,-2.069l-5.272,-0Zm-117.385,1.731l0,1.985l5.174,0l-0,-1.984l-5.174,-0.001Zm74.031,0.373c-0.518,0 -0.94,0.426 -0.94,0.952c0,0.526 0.422,0.953 0.94,0.953c0.519,-0 0.939,-0.427 0.939,-0.953c0,-0.526 -0.42,-0.952 -0.939,-0.952Zm-28.168,0.991c-0.519,-0 -0.941,0.426 -0.941,0.952c0,0.526 0.422,0.952 0.941,0.952c0.519,0 0.938,-0.426 0.938,-0.952c0,-0.526 -0.419,-0.952 -0.938,-0.952Zm6.004,0.179c-0.518,-0 -0.94,0.426 -0.94,0.952c0,0.526 0.422,0.952 0.94,0.952c0.519,0 0.939,-0.426 0.939,-0.952c0,-0.526 -0.42,-0.952 -0.939,-0.952Zm65.518,0.132l0,1.866l5.272,0l0,-1.866l-5.272,0Zm-43.361,0.87l-1.12,1.193l-1.606,-0.461l3.641,6.888l1.841,-7.41l-1.607,1.039l-1.149,-1.249Zm-74.024,0.701l0,2.254l5.174,0l-0,-2.254l-5.174,0Zm48.823,1.021c-0.519,0 -0.94,0.427 -0.94,0.953c-0,0.526 0.421,0.952 0.94,0.952c0.519,-0 0.939,-0.426 0.939,-0.952c-0,-0.526 -0.42,-0.953 -0.939,-0.953Zm-0.062,1.964c-0.4,0.288 -0.575,0.793 -0.993,1.053l-1.71,-0.739l1.027,9.382l4.749,-8.865l-2.171,0.371l-0.902,-1.202Zm-48.759,0.307l-0,2.344l5.172,-0l-0,-2.344l-5.172,-0Zm77.693,1.087c-0.519,0 -0.94,0.427 -0.94,0.953c0,0.526 0.421,0.952 0.94,0.952c0.519,-0 0.939,-0.426 0.939,-0.952c-0,-0.526 -0.42,-0.953 -0.939,-0.953Zm-6.074,0.109c-0.519,0 -0.94,0.426 -0.94,0.952c0,0.526 0.421,0.953 0.94,0.953c0.519,-0 0.939,-0.427 0.939,-0.953c-0,-0.526 -0.42,-0.952 -0.939,-0.952Zm-71.619,2.206l-0,2.348l5.172,0l-0,-2.348l-5.172,-0Zm75.008,0.523c-0.519,-0 -0.94,0.426 -0.94,0.952c-0,0.526 0.421,0.953 0.94,0.953c0.519,-0 0.939,-0.427 0.939,-0.953c-0,-0.526 -0.42,-0.952 -0.939,-0.952Zm12.526,0.144c1.144,-0.008 2.312,0.088 3.517,0.295c2.609,0.45 2.989,2.716 3.012,7.106c0.023,4.52 -1.305,6.288 -4.551,7.159c-1.183,0.318 -5.606,0.024 -6.859,-0.383c-0.021,-0.388 -0.646,-1.286 -0.787,-1.977c0.319,-0.092 1.33,0.051 3.243,0.235c1.552,0.15 1.95,-0.103 1.46,-0.413c-2.919,-0.698 -4.906,-0.508 -7.71,-1.053c-0.04,-0.85 -0.718,-1.84 -0.718,-1.84c0.152,-0.062 4.323,0.394 6.524,0.323c0.969,-0.041 0.385,-0.501 -0.009,-0.586c-2.567,-0.373 -4.233,-0.313 -6.947,-0.66c0.074,-0.704 -0.28,-1.344 -0.718,-1.883c0,0 1.373,-0.012 4.202,0.031c1.49,0.024 2.787,0.086 3.438,0.063c1.093,0 0.996,-0.518 0.046,-0.589c-1.156,-0.13 -5.707,-0.157 -5.707,-0.157c0.338,-0.159 0.781,-2.225 0.606,-2.247c0,0 1.18,0.024 1.929,-0.009c3.647,-0.138 4.275,-0.079 4.344,-0.217c0.479,-0.444 -0.815,-0.618 -2.163,-0.615c-0.581,0 -1.428,0.132 -1.422,-0.189c0.009,-0.295 -0.009,-0.9 -0.304,-1.523c1.827,-0.554 3.667,-0.857 5.573,-0.871l0.001,-0Zm-42.64,1.093c-0.519,0 -0.939,0.427 -0.939,0.953c0,0.526 0.42,0.953 0.939,0.953c0.519,0 0.94,-0.427 0.94,-0.953c0,-0.526 -0.421,-0.953 -0.94,-0.953Zm35.888,0.199c0.62,-0 0.815,1.134 0.234,1.311c-0.894,0.27 -1.381,0.057 -1.35,-0.48c0.018,-0.303 0.714,-0.833 1.116,-0.831Zm-29.752,0.983c-0.519,-0 -0.941,0.428 -0.941,0.954c0,0.526 0.422,0.952 0.941,0.952c0.519,-0 0.939,-0.426 0.939,-0.952c-0,-0.526 -0.42,-0.954 -0.939,-0.954Zm26.753,1.07c2.126,-0.02 1.026,2.911 -0.609,1.854c-0.811,-0.524 -0.241,-1.848 0.609,-1.854Zm-33.62,2.344c-0.044,-0.008 -0.068,0.04 -0.062,0.148l0.491,8.91l5.115,-8.324l-2.032,0.766l-0.874,-1.345l-1.098,0.875c-0.452,0.36 -1.305,-1.008 -1.54,-1.03Zm31.65,0.912c0.954,0.135 1.59,1.103 0.928,1.568c-1.491,0.662 -2.289,-1.503 -0.928,-1.568Zm-2.291,1.955c-0.519,-0 -0.939,0.427 -0.939,0.953c-0,0.526 0.42,0.953 0.939,0.953c0.519,-0 0.94,-0.427 0.94,-0.953c0,-0.526 -0.421,-0.953 -0.94,-0.953Zm3.614,0.806c0.812,-0.012 1.194,1.184 0.391,1.56c-0.171,0.08 -0.68,0.137 -0.905,-0.031c-0.949,-0.71 -0.457,-1.453 0.514,-1.529l-0,0Zm-35.176,1.47c-0.519,0 -0.94,0.426 -0.94,0.952c-0,0.526 0.421,0.953 0.94,0.953c0.519,-0 0.939,-0.427 0.939,-0.953c-0,-0.526 -0.42,-0.952 -0.939,-0.952Zm71.761,1.193l-3.482,1.186l0,1.671c1.52,-0.49 2.39,-1.743 3.483,-2.855l-0.001,-0.002Zm-33.276,0.713c0.233,-0.009 0.464,0.023 0.647,0.093c0.604,0.257 0.768,1.086 0.249,1.365c-0.409,0.219 -1.518,0.185 -1.789,-0.177c-0.528,-0.857 0.192,-1.254 0.893,-1.281Zm-32.176,0.423c-0.518,0 -0.94,0.426 -0.94,0.952c0,0.527 0.422,0.953 0.94,0.953c0.519,-0 0.939,-0.426 0.939,-0.953c0,-0.526 -0.42,-0.952 -0.939,-0.952Zm-3.849,1.645c-0.457,-0 -0.828,0.376 -0.828,0.84c-0,0.464 0.371,0.839 0.828,0.839c0.458,0 0.829,-0.375 0.829,-0.839c-0,-0.464 -0.371,-0.84 -0.829,-0.84Zm39.053,1.416c-0.519,0 -0.94,0.427 -0.94,0.953c-0,0.526 0.421,0.952 0.94,0.952c0.519,-0 0.939,-0.426 0.939,-0.952c-0,-0.526 -0.42,-0.953 -0.939,-0.953Zm-42.08,0.052l-0.045,8.417l5.536,-6.889l-1.921,0.423l-0.821,-1.706l-1.185,0.782l-1.564,-1.027Zm35.147,1.94c-0.519,-0 -0.939,0.426 -0.939,0.952c-0,0.526 0.42,0.952 0.939,0.952c0.518,0 0.94,-0.426 0.94,-0.952c-0,-0.526 -0.422,-0.952 -0.94,-0.952Zm27.709,0.032c-0.091,0.644 -0.518,1.096 -0.908,1.569l2.577,-1.457l-1.669,-0.112Zm-23.959,1.118c-0.519,0 -0.94,0.426 -0.94,0.952c0,0.526 0.421,0.953 0.94,0.953c0.519,-0 0.939,-0.427 0.939,-0.953c0,-0.526 -0.42,-0.952 -0.939,-0.952Zm3.165,1.027l-1.124,1.626l-1.48,-0.482l-0.437,1.547l-1.776,-0.066l5.772,5.093l-0.955,-7.718Zm-44.981,0.651c-0.519,0 -0.94,0.427 -0.94,0.953c-0,0.526 0.421,0.952 0.94,0.952c0.519,-0 0.939,-0.426 0.939,-0.952c-0,-0.526 -0.42,-0.953 -0.939,-0.953Zm86.371,2.287l-0,69.207l-32.18,-0l-13.509,-18.971c-0.279,-3.046 -0.116,-6.173 1.149,-10.262c1.321,0.928 4.214,0.422 4.116,-3.174c-0.065,-2.355 -3.645,-3.56 -5.428,-1.788c0.092,-2.276 1.003,-5.695 2.316,-6.704c0.902,0.83 1.101,2.058 3.139,1.715c1.449,-0.244 2.595,-1.884 1.968,-3.796c-0.161,-0.485 -0.248,-1.075 -0.246,-1.47c0,-0.394 0.038,-1.097 -0.038,-1.49c-0.101,-0.518 -0.139,-1.08 -0.139,-1.08c15.041,-3.47 28.152,-12.7 38.852,-22.187l-0,0Zm-79.794,0.278c-0.518,-0 -0.938,0.428 -0.938,0.954c-0,0.526 0.42,0.952 0.938,0.952c0.519,-0 0.939,-0.426 0.939,-0.952c0,-0.526 -0.42,-0.954 -0.939,-0.954Zm-4.43,0.931c-0.519,0 -0.939,0.427 -0.939,0.953c0,0.526 0.42,0.952 0.939,0.952c0.519,0 0.94,-0.426 0.94,-0.952c0,-0.526 -0.421,-0.953 -0.94,-0.953Zm46.488,0.459c-0.519,-0 -0.939,0.426 -0.939,0.952c0,0.526 0.42,0.952 0.939,0.952c0.519,0 0.94,-0.426 0.94,-0.952c0,-0.526 -0.421,-0.952 -0.94,-0.952Zm-49.856,1.015l-1.466,8.868l6.397,-6.628l-1.738,-0.038l-0.344,-1.512l-1.626,0.533l-1.223,-1.223Zm43.488,1.892c-0.519,-0 -0.941,0.427 -0.941,0.953c0,0.526 0.422,0.953 0.941,0.953c0.518,-0 0.938,-0.427 0.938,-0.953c0,-0.526 -0.42,-0.953 -0.938,-0.953Zm4.144,1.034c-0.518,0 -0.94,0.427 -0.94,0.953c0,0.526 0.422,0.952 0.94,0.952c0.519,-0 0.939,-0.426 0.939,-0.952c0,-0.526 -0.42,-0.953 -0.939,-0.953Zm-51.617,1.157c-0.519,-0 -0.94,0.426 -0.94,0.952c0,0.526 0.421,0.952 0.94,0.952c0.519,0 0.939,-0.426 0.939,-0.952c0,-0.526 -0.42,-0.952 -0.939,-0.952Zm55.356,0.718l-1.53,1.179l-1.408,-0.873l-0.33,1.884l-1.199,0.636l5.034,3.577l-0.567,-6.403Zm3.72,2.537c-0.519,-0 -0.939,0.426 -0.939,0.952c0,0.526 0.42,0.952 0.939,0.952c0.519,0 0.94,-0.426 0.94,-0.952c0,-0.526 -0.421,-0.952 -0.94,-0.952Zm-53.125,0.322c-0.519,-0 -0.939,0.426 -0.939,0.952c-0,0.526 0.42,0.952 0.939,0.952c0.519,0 0.94,-0.426 0.94,-0.952c-0,-0.526 -0.421,-0.952 -0.94,-0.952Zm-4.172,1.243c-0.519,-0 -0.939,0.426 -0.939,0.952c0,0.526 0.42,0.952 0.939,0.952c0.519,0 0.939,-0.426 0.939,-0.952c-0,-0.526 -0.42,-0.952 -0.939,-0.952Zm54.891,2.517c-0.519,0 -0.94,0.427 -0.94,0.952c0,0.527 0.422,0.954 0.94,0.954c0.519,0 0.939,-0.427 0.939,-0.954c0,-0.525 -0.42,-0.952 -0.939,-0.952Zm-3.939,0.854c-0.519,0 -0.938,0.426 -0.938,0.952c-0,0.526 0.419,0.953 0.938,0.953c0.519,-0 0.941,-0.427 0.941,-0.953c-0,-0.526 -0.422,-0.952 -0.941,-0.952Zm-36.37,1.355c0.008,-0 0.011,0.008 0.015,0.009c0.106,0.115 0.432,0.981 0.141,1.422c-0.149,-0.071 -0.824,-0.709 -0.652,-0.926c0.08,-0.099 0.409,-0.506 0.496,-0.505l-0,-0Zm-21.319,1.494c-0,0 0.909,0.048 1.108,0.136c-0,0.235 -0.218,0.749 -0.464,1.325c-1.226,2.878 -1.58,6.458 -0.088,9.457c2.088,4.197 7.445,14.781 6.939,14.926l-12.086,-0l-0.012,-1.88c3.426,-0.136 3.965,-2.26 3.11,-4.016c-0.592,-1.216 -2.252,-1.912 -3.769,-1.274c-2.192,0.922 -2.327,2.02 -3.11,3.722l-0.348,-0.449c0.658,-0.887 0.878,-1.739 0.824,-2.71c-0.053,-0.953 -0.082,-0.69 0.247,-1.213c1.908,-2.078 0.659,-4.784 0.659,-4.784c-0.228,-1.663 5.711,-12.266 6.989,-13.24l0.001,0Zm-30.251,0.227c0.787,-0.002 1.617,0.045 2.362,0.045c3.467,2.798 6.469,12.221 6.288,12.367c-0.161,-0.133 -2.795,3.026 0.042,5.97c-0,0 -0.173,1.77 0.372,2.679c-1.253,2.635 -1.474,2.835 -1.58,5c-0.024,-0.009 -0.218,-0.026 -1.38,-0.031c-5.747,-0.028 -6.015,7.379 -0.273,7.785c0.787,0.056 1.057,-0.123 1.531,0.352c0.48,0.604 0.912,1.212 1.733,0.898c0.195,-0 0.509,0.186 0.839,0.496c0.552,0.757 1.353,1.297 2.497,1.089c0.405,0.04 0.82,0.158 1.258,0.319c0.502,0.402 1.375,0.706 2.058,0.404c0.203,-0.09 0.594,-0.12 0.912,0.027c0.83,0.383 1.676,0.143 1.987,-0.097c0.77,-0.405 0.941,0.244 0.905,0.843c-0.393,1.371 0.472,2.657 1.78,3.161c2.759,0.865 4.149,-0.856 4.743,-4.269c0.146,-0.748 0.276,-1.391 0.276,-1.391l9.238,-0l-13.265,15.527l-23.092,-0l-0,-51.152c0.248,-0.015 0.505,-0.022 0.768,-0.022l0.001,-0Zm83.145,2.425c0.775,-0 1.61,0.163 2.282,0.399c1.685,0.659 1.819,1.866 0.141,1.342c-2.725,-0.851 -5.657,0.837 -6.269,3.249c-0.113,0.445 -0.234,0.782 -0.303,0.867c-0.382,0.468 -0.362,0.042 -0.249,-1.297c0.22,-2.6 2.033,-4.483 4.398,-4.56Zm0.973,2.274c0.799,-0.054 1.645,0.134 2.48,0.665c0.632,0.703 0.445,1.169 -0.041,1.144c-2.283,-0.966 -5.186,0.205 -6.323,3.126c-0.697,1.793 -0.822,0.831 -0.513,-0.557c0.021,-1.864 1.999,-4.214 4.396,-4.378l0.001,0Zm-15.403,0.656c-0.996,0.007 -1.942,0.204 -2.424,0.665c-0.914,0.877 -0.153,0.891 1.504,0.308c0.806,-0.284 2.356,-0.154 3.348,0.194c0.831,0.291 1.123,0.413 1.077,0.151c-0.044,-0.788 -1.845,-1.325 -3.505,-1.318Zm16.194,1.734c1.032,-0.013 2.096,0.46 2.415,1.199c0.42,0.974 0.149,2.692 -1.319,2.866c-1.729,0.205 -2.623,-2.735 0.536,-2.221c-0.409,-1.176 -1.826,-0.85 -2.525,-0.552c-1.426,0.631 -2.397,2.05 -3.271,4.659c-0.259,0.774 -0.449,1.179 -0.549,1.101c-0.165,-0.129 -0.242,-1.331 0.139,-2.779c0.687,-2.61 2.363,-4.188 4.137,-4.238c0.144,-0.022 0.29,-0.033 0.437,-0.035l0,-0Zm-22.336,0.066c-0.153,0.035 0.117,0.583 0.537,1.434c0.233,0.471 0.392,1.082 0.392,1.202c-0,0.463 0.348,0.576 0.862,0.28c0.594,-0.343 0.689,-0.602 1.53,-0.222c0.792,0.422 1.574,0.689 2.297,0.261c0.392,-0.232 0.652,-0.222 1.411,-0.019c0.906,0.242 1.026,0.279 1.703,-0.009c0.864,-0.366 1.891,-0.115 2.11,0.131c0.207,0.235 0.086,-0.091 0.556,-1.195c0.218,-0.511 0.53,-1.133 0.444,-1.308c-0.116,-0.236 -0.903,0.025 -1.76,0.253c-0.463,0.123 -0.906,0.087 -1.795,-0.167c-1.874,-0.536 -3.056,-0.381 -4.23,0.183c-0.656,0.316 -2.3,-0.12 -3.961,-0.805c-0.04,-0.016 -0.074,-0.024 -0.096,-0.019Zm3.689,5.089c-0.846,-0.013 -1.613,0.526 -1.964,1.267c-0.408,1.028 0.285,2.885 1.342,3.045c0.939,0.141 0.903,-0.441 0.431,-0.598c-0.716,-0.239 -1.559,-1.278 -1.014,-2.181c0.374,-0.621 1.507,-0.617 2.294,0.148c1.586,1.542 3.403,1.644 3.748,0.306c0.104,-0.535 -0.299,-1.248 -0.919,-1.054c-0.479,0.15 -1.588,0.195 -2.516,-0.444c-0.481,-0.331 -0.959,-0.482 -1.402,-0.489Zm16.745,4.898c4.048,-0.246 2.306,5.36 -0.03,3.921c-0.834,-0.514 -0.464,-2.403 1.754,-2.368c-2.176,-1.718 -3.658,0.375 -3.126,2.722c-0.489,0.766 -0.624,2.224 -0.944,3.051c-0.492,0.943 -0.879,-1.526 -0.382,-3.914c0.481,-2.311 1.295,-3.325 2.728,-3.412l-0,-0Zm-23.702,0.125c0,-0 0.827,0.995 0.96,1.101c2.519,2.008 3.752,3.245 1.724,2.585c-3.295,-0.796 -4.143,0.149 -6.652,1.271c-0.461,0.224 -0.591,0.084 -1.146,-0.083c-2.205,-0.661 -2.044,0.741 0.26,2.006c3.478,1.91 6.351,2.341 9.054,0.91c0.7,-0.371 1.225,-0.613 1.225,-0.613c0,0 -0.051,0.705 -1.015,1.312c-2.603,1.539 -5.335,1.41 -9.374,-0.964c-0.678,-0.442 -1.333,-0.786 -2.116,-1.081c0.549,0.827 0.998,1.164 1.793,1.635c3.299,1.906 7.523,3.391 11.012,0.524c0.731,-0.658 0.877,-1 1.438,-0.716c1.483,0.751 0.997,-0.557 -0.015,-1.789c-0.357,-0.435 -0.621,-0.786 -0.597,-1.084c0.083,-1.069 -0.499,-1.064 -1.032,-1.038c-0.636,0.032 -0.566,-0.184 -1.346,-1.053c-0.628,-0.7 -1.098,-1.156 -1.661,-1.653c-0.674,-0.727 -1.546,-0.972 -2.512,-1.27l0,-0Zm-32.84,1.588c2.396,0.255 3.067,3.932 -0.042,4.165c-1.401,0.112 -1.722,0.177 -1.38,3.088c0.064,0.547 0.305,2.186 0.372,2.802c0.831,7.622 0.159,10.994 -1.936,11.927c-0.753,0.336 -1.496,0.214 -2.048,-0.01c-1.326,-0.538 -1.871,-2.17 -0.908,-4.114c0.259,-0.523 0.572,-1.333 0.697,-1.8c0.126,-0.467 0.409,-1.492 0.626,-2.278c0.527,-1.91 0.812,-4.818 0.501,-7.596c-0.211,-1.886 -0.165,-2.044 0.299,-3.316c1.018,-1.88 1.676,-2.843 3.818,-2.866l0.001,-0.002Zm49.361,1.767c1.172,-0.097 2.422,0.823 2.107,2.229l0,0.003l-0.654,0.031c-0.79,-2.664 -2.439,-1.804 -2.714,0.066l-0.556,-0.007c0.042,-1.557 0.906,-2.247 1.817,-2.322l0,-0Zm-60.803,0.181c0.445,0.005 0.893,0.029 1.339,0.064l-0,-0.003c4.474,0.449 5.29,1.575 5.643,7.054c0.032,2.651 -0.14,4.253 -0.542,4.857c-0.67,0.326 -1.312,-0.285 -2.267,0.329c-0.525,0.325 -0.424,0.36 -0.65,0.009c-0.213,-0.332 0.034,-1.731 0.378,-2.848c0.327,-1.065 -0.233,-1.684 -1.715,-3.051c-0.401,-0.37 -0.752,-0.883 -1.112,-1.616c-0.77,-2.097 -1.161,-1.174 -0.519,0.633c0.317,0.779 0.391,1.163 -0.573,0.827c-0.567,-0.198 -1.063,0.036 -1.501,0.272c-1.228,0.317 -2.286,-0.363 -1.221,-0.771c0.648,-0.249 1.811,-0.61 2.171,-0.609c0.26,0 0.387,-0.058 0.387,-0.182c-0,-0.524 -2.367,-0.467 -4.173,0.163c-2.219,1.035 -2.346,0.851 -2.141,-0.76c0.454,-3.574 3.382,-4.402 6.496,-4.367l-0,-0.001Zm45.099,0.417c1.144,-0.052 2.194,1.278 1.986,2.407l-0.544,-0.035c-0.256,-2.124 -2.237,-2.216 -2.765,0.163l-0.786,0.019c0.5,-1.836 1.326,-2.518 2.109,-2.554l-0,-0Zm13.303,0.043c0.452,0.271 0.139,1.007 -0.343,1.155c-0.182,0.046 -0.758,-0.361 -0.619,-0.609c0.259,-0.299 0.653,-0.456 0.962,-0.546Zm5.129,0.361c0.316,0 0.722,0.163 0.777,0.592c0.017,0.628 -0.453,0.498 -0.609,0.441c-0.312,-0.294 -0.43,-1.01 -0.168,-1.033Zm-15.687,0.503c0.839,0.1 1.143,1.168 0.192,1.236c-0.425,0.088 -0.444,-0.98 -0.192,-1.236Zm-5.102,0.116c0.1,-0 -0.055,0.877 -0.265,1.006c-0.415,0.256 -0.944,-0.022 -0.924,-0.286c0.046,-0.633 0.802,-0.724 1.189,-0.72Zm14.636,2.131c1.597,0.613 3.675,1.209 5.629,0.517c0.713,-0.273 1.284,-0.598 1.282,-0.291c-0,0.321 -0.566,0.809 -1.588,1.099c-2.104,0.598 -3.628,0.367 -5.073,-0.733c-0.409,-0.311 -0.551,-0.597 -0.25,-0.592Zm-0.659,0.914c2.591,1.532 4.93,1.686 7.036,0.568c0.852,-0.299 0.881,-0.025 0.878,0.529c-3.794,3.381 -8.537,-0.129 -7.914,-1.097Zm-66.123,1.143c0.784,0.005 1.645,0.351 2.506,1.192c-0.643,1.313 -0.987,4.551 -2.036,5.511c-5.818,-0.339 -3.868,-6.725 -0.47,-6.703Zm47.297,0.035c-0.196,-0.003 -0.373,0.036 -0.476,0.122c-0.32,0.264 0.046,1.222 0.65,1.486c5.476,2.389 8.286,2.674 11.4,1.575c1.291,-0.455 1.995,-1.526 2.059,-2.045c0.076,-0.619 -0.757,-0.679 -2.216,-0.024c-4.441,1.765 -7.228,0.391 -10.813,-0.977c-0.189,-0.087 -0.407,-0.133 -0.604,-0.137l0,0Zm-27.2,0.178l5.81,0l-0.019,7.981l-5.116,0l-0.038,-1.081l3.842,-0l-0,-5.782l-4.442,0l-0.037,-1.118Zm7.035,0l5.489,0l0.324,0.832l-5.813,-0l-0,-0.832Zm-21.305,1.105c0.88,0.008 0.955,0.869 0.299,1.465c-0.342,0.311 -0.939,0.379 -1.185,0.128c-0.551,-0.564 0.008,-1.6 0.886,-1.593Zm2.697,0.149c0.787,0.007 1.046,0.747 0.447,1.349c-0.405,0.374 -0.612,0.399 -0.977,0.124c-0.459,-0.409 -0.219,-1.447 0.53,-1.473Zm-5.135,0.199c0.207,-0.008 0.387,0.014 0.521,0.222c0.478,0.993 -1.091,1.679 -1.419,0.941c-0.241,-0.599 0.369,-1.143 0.898,-1.163Zm29.747,0.109l0.429,1.042l-6.433,0.028l-0,-1.042l6.004,-0.028Zm-21.788,0.3c0.894,0.109 0.756,1.021 0.341,1.427c-0.713,0.669 -1.404,0.452 -1.223,-0.447c0.114,-0.562 0.473,-0.969 0.882,-0.98Zm10.941,0.695l1.469,1.467l-1.469,1.466l-1.467,-1.466l1.467,-1.467Zm-15.637,0.603c0.165,0.064 -0.008,0.627 -0.128,1.687c-0.315,1.139 0.359,3.445 0.158,3.687c-0.437,0.525 -1.14,0.256 -1.452,0.076c-1.084,-0.705 -1.153,-4.842 -0.105,-5.089c0.674,0.343 1.127,-0.269 1.435,-0.359c0.038,-0.011 0.069,-0.012 0.092,-0.003l0,0.001Zm20.48,0.129l6.622,-0l0.337,0.757l-0.248,0.471l-6.711,0.009l-0,-1.237Zm-18.03,0.141c0.28,-0 0.421,0.605 0.234,1.299c-0.338,1.253 -0.32,2.959 -0.088,3.699c0.156,0.511 0.309,0.861 0.218,1.006c-0.318,0.509 -1.29,0.161 -1.703,-0.509c-1.007,-1.895 -0.846,-5.428 0.358,-5.154c0.452,0.23 0.71,-0.13 0.981,-0.341Zm-5.687,0.103c0.259,0.009 0.464,0.097 0.28,0.375c-0.296,0.482 -0.085,3.171 -0.115,3.393c-0.038,0.28 -0.797,0.134 -1.22,-0.059c-1.041,-0.495 -0.758,-1.752 -0.556,-2.767c0.227,-0.798 0.729,-0.858 1.346,-0.93c0.086,-0.01 0.179,-0.015 0.265,-0.012l0,-0Zm8.626,0.521c0.331,-0.012 0.377,0.236 0.301,1.232c-0.059,0.78 -0.089,1.445 0.037,2.181c0.267,1.563 0.301,1.988 -0.086,2.294c-0.461,0.363 -1.082,0.253 -1.562,-0.175c-0.984,-0.791 -1.048,-4.671 -0.275,-5.007c0.719,0.182 1.172,-0.395 1.585,-0.525l-0,0Zm21.387,1.17l0.007,0.006l-1.084,1.11l-5.216,-0l-0,-1.107l6.293,-0.009Zm-18.851,1.648c0.817,0.009 0.682,1.472 0.243,2.391c-0.372,0.554 -0.644,0.611 -1.203,0.091c-0.635,-0.592 0.118,-2.487 0.96,-2.482Zm17.123,0.258l-0.734,0.835l-3.834,0.009l-0,-0.833l4.568,-0.011Z" style="fill:#242424;fill-rule:nonzero;"/><path id="path3872-3-7-5" d="M37.978,182.344l-6.558,-5.054c7.562,-0.168 15.321,0.01 22.882,0.14l-7.551,5.455c-1.059,-1.852 -3.909,-5.535 -4.653,-5.323c-0.543,-0.108 -3.086,3.174 -4.12,4.782Zm55.457,-1.84c-0.174,-0.111 -0.286,-0.358 -0.413,-1.17c-1.888,-8.923 -11.164,-8.291 -11.102,-8.029c-0.07,-0.352 11.529,-10.969 18.347,-19.299c2.061,6.366 8.307,20.91 8.047,20.857c0,0 -1.807,0.015 -6.493,-0.103c-4.265,1.952 -7.232,3.853 -7.093,6.606c-0.024,0.969 -0.254,1.372 -0.573,1.289c-0.256,-0.029 -0.487,-0.101 -0.72,-0.151Zm21.138,-28.641c6.034,-0.096 7.173,-3.084 7.86,-3.444c3.964,-0.661 6.413,1.954 8.149,4.753c2.218,1.353 1.941,0.103 2.401,-2.005l5.522,-1.641l-0.008,1.783c-1.705,0.931 -4.236,3.316 -4.236,3.316l-1.68,-0.1l-0.964,1.302c-3.837,2.104 -7.598,4.611 -11.645,6.237c0,-0 -4.847,-6.354 -5.401,-10.201l0.002,-0Zm-75.182,0.559l-0.063,-35.277c2.496,-0.179 7.091,-0.156 7.091,-0.156c1.922,-3.438 4.542,-5.054 7.243,-7.051c0.378,4.349 0.523,8.502 0.437,12.853c-7.151,8.848 -11.123,19.739 -6.714,36.016l-2.646,-0.298l-5.348,-6.087Zm39.514,1.978c2.037,-7.359 3.618,-14.825 4.274,-22.533l13.614,-0.205l0.271,4.727l-18.159,18.011Zm46.356,-16.064l-0.253,-13.199c9.935,-12.034 10.524,-22.528 6.839,-35.796c3.281,0.766 4.971,3.359 8.098,6.935l0,34.418c-2.173,0.328 -7.56,0.65 -7.56,0.65c-0.163,1.612 -4.716,5.468 -7.126,6.992l0.002,-0Zm-42.069,-20.807l-0.606,-5.816l17.69,-17.129c-1.46,7.422 -3.227,15.044 -3.742,22.945l-13.342,0Zm-29.35,-18.175c-1.263,0.839 -5.917,-4.063 -6.678,-7.36c1.167,-1.598 11.409,-6.685 11.409,-6.685c-0,0 5.986,7.789 5.741,11.037c-2.658,0.717 -4.964,0.921 -6.983,3.118c-1.155,0.104 -1.56,-1.212 -3.489,-0.11Zm-8.079,-6.586c1.425,0.232 0.511,2.181 0.293,3.608l-7.528,2.262c2.588,-2.238 4.423,-4.143 7.235,-5.87Zm24.51,-17.221c1.547,-0.047 3.161,0.599 4.353,0.112c0.447,-0.176 1.338,-0.449 2.315,-0.262c2.25,0.706 3.039,-1.807 4.473,-1.818c1.856,0.008 2.886,-1.312 2.898,-3.948c0.009,-1.14 0.1,-1.268 0.311,-1.382c0.633,-0.339 1.309,0.137 1.394,0.763c1.331,4.855 4.692,9.221 9.993,8.874c-4.221,4.361 -17.06,17.768 -17.06,17.768c-2.313,-7.143 -5.385,-13.791 -8.677,-20.107Zm54.62,-4.184l7.733,-5.69l4.629,5.711l4.002,-5.437c2.352,1.708 7.701,5.516 7.701,5.516c-0,0 -16.039,0.24 -24.065,-0.1Z" style="fill:#3f3f3f;fill-rule:nonzero;"/><path id="path3870-4-7-1" d="M129.28,19.781l-71.093,0.463l13.816,18.707c14.677,-3.029 27.454,-1.062 40.715,1.286l16.562,-20.456Zm-1.817,0.949l-4.732,5.959c-1.309,-1.2 -4.232,-0.767 -3.818,1.859c-3.627,-1.911 -4.396,3.337 -1.317,3.121c-0.386,1.031 -3.495,1.303 -4.372,-0.567c-3.192,1.813 -4.166,0.054 -5.011,-1.089c4.056,2.792 6.03,-2.946 1.565,-3.27c1.754,-3.597 -4.503,-5.229 -4.135,-0.548c-4.126,-0.948 -3.179,4.939 -0.148,3.733c-1.968,3 -5.199,0.984 -5.852,0.4c-1.66,1.262 -4.8,1.304 -5.68,-0.715c4.593,0.937 4.09,-5.194 0.012,-3.782c2.174,-4.709 -5.058,-4.076 -3.301,-0.219c-4.115,-0.159 -3.204,4.986 0.41,4.11c-3.211,3.068 -5.616,0.208 -6.124,0.147c-1.901,2.126 -5.24,0.961 -5.699,-0.295c3.276,1.311 4.35,-4.266 0.221,-3.931c1.058,-3.594 -4.884,-4.029 -3.573,0.053c-3.273,-0.752 -3.451,4.563 0.217,3.735c0.227,1.456 -2.659,2.849 -4.434,1.442c-1.301,0.722 -2.727,1.846 -4.421,0.182c2.581,-0.421 3.006,-4.842 -1.161,-3.887c0.198,-2.714 -1.34,-2.862 -3.239,-2.173l-3.043,-4.18l67.635,-0.085Zm-50.171,5.023c0.792,-0.031 1.626,0.525 1.126,1.644c-0.226,0.506 -0.607,0.85 -0.518,1.235c0.073,0.316 0.393,0.756 0.84,1.35c3.557,4.701 10.769,4.544 12.938,-0.302c0.443,-0.9 0.352,-1.106 -0.181,-1.871c-0.642,-0.925 0.084,-1.91 0.871,-1.827c1.176,0.124 1.38,1.162 0.814,1.9c-1.227,1.567 2.143,5.111 5.509,5.668c4.315,0.714 8.408,-2.361 7.838,-5.118c-0.033,-0.158 -0.112,-0.307 -0.145,-0.472c-0.46,-2.308 3.152,-1.202 1.852,0.269c-0.488,0.532 -0.753,0.69 -0.687,1.274c1.049,4.885 6.908,5.399 9.698,3.893c-3.6,5.953 -9.303,1.365 -10.307,-2.795c-5.056,7.399 -11.129,5.861 -14.514,-0.642c0.4,0.405 -6.668,11.657 -14.691,0.12c-3.396,9.285 -9.587,3.009 -9.164,2.628c2.845,1.606 8.011,1.025 8.509,-3.941c0.069,-0.614 -0.391,-0.652 -0.656,-1.136c-0.672,-1.228 0.077,-1.846 0.868,-1.877Zm-12.24,2.254c0.643,0.061 0.749,0.332 0.643,0.995l-0.643,-0.995Zm55.167,1.746l-0.931,1.186c-0.222,-0.58 -0.229,-1.113 0.931,-1.186Zm10.06,0.382c-3.117,0.097 -3.762,5.847 -3.733,7.335c0.04,2.003 0.402,7.03 0.537,7.778c0.189,1.045 -0.016,2.463 -0.379,2.613c-1.931,0.452 -2.184,2.893 -0.79,3.907c1.089,0.753 2.885,0.373 3.672,-1.1c1.089,-2.083 1.381,-3.985 0.974,-6.411c-0.509,-2.918 -0.13,-6.554 0.86,-8.261c1.774,-3.062 1.741,-5.067 -0.093,-5.699c-0.377,-0.122 -0.725,-0.172 -1.048,-0.162Zm-0.041,0.476c2.574,0.01 2.505,2.613 1.078,3.414c-0.553,0.251 -1.23,0.31 -1.907,-0.14c-0.759,-0.445 -0.655,0.062 0.132,0.641c0.923,0.68 1.317,0.639 0.821,2.232c-0.463,1.485 -0.707,4.692 -0.454,6.515c0.693,4.987 0.108,7.474 -1.963,8.34c-1.02,0.426 -2.122,-0.176 -2.405,-1.007c-0.444,-1.301 0.347,-2.417 2.295,-2.105c0,0 0.137,-0.413 -0.369,-4.742c-0.705,-6.021 -0.427,-10.224 0.663,-11.693c0.583,-0.784 1.335,-1.458 2.109,-1.455Zm17.46,6.209c-0.602,0.008 -1.25,0.171 -1.91,0.548c0.123,1.843 -0.192,3.656 -0.259,5.49c3.153,1.918 5.765,-0.544 5.459,-3.036c-0.185,-1.503 -1.486,-3.017 -3.29,-3.002Zm0.115,0.5c1.499,0.095 2.844,1.436 2.757,3.034c-0.073,1.867 -1.835,2.884 -3.414,2.557c-0.467,-0.071 -1.1,-0.515 -1.1,-0.515l0.107,-0.873c0,-0 0.615,0.201 1.148,0.204c3.23,0.088 2.261,-3.942 0.301,-3.473c-0.425,0.106 -0.487,0.302 0.012,0.444c1.529,0.699 0.96,1.673 0.43,2.068c-0.63,0.47 -1.674,-0.174 -1.852,-0.563l0.107,-2.528c0.487,-0.281 1.004,-0.387 1.504,-0.355l-0,-0Zm-15.515,11.571c-0,-0 -0.583,0.281 -0.864,0.544c-0.617,0.577 -0.746,1.453 -0.444,2.313c0.134,0.381 0.113,0.445 -0.356,1.065c-1.337,1.766 -1.511,2.649 -0.826,4.241c0.311,0.723 0.315,0.724 0.021,1.68c-1.261,4.101 -3.749,8.75 -6.404,11.969c-0.411,0.498 -0.575,1.007 -0.575,1.007c-0,-0 0.622,-0.032 0.966,-0.206c2.744,-1.384 5.642,-4.065 8.336,-5.824c-4.261,3.505 -8.801,6.735 -8.801,6.735l5.799,0c-1.12,1.681 -26.732,23.648 -20.129,62.744c7.936,-2.001 11.63,-5.321 15.861,-9.16c0.039,3.157 0.107,11.651 0.134,11.651c0.08,-0.14 -3.672,-1.433 -2.78,1.699c0.531,1.718 0.8,6.067 -0.141,8.521c-0.04,0.104 0.403,0.27 0.359,0.366c-0.051,0.111 -0.602,0.112 -0.602,0.112c-1.981,3.191 -4.974,3.078 -7.62,3.173c1.223,4.246 3.527,7.728 5.239,10.511l0.783,0.106l-0.453,0.423c0.351,0.65 1.29,1.871 1.29,1.871l0.042,0.415c-0,-0 1.633,2.306 2.51,3.388c0.059,0.074 0.197,-0.101 0.257,-0.028c0.487,0.593 1.07,1.256 1.565,1.848c0.038,0.045 -0.076,0.215 -0.037,0.258c0.931,1.029 2.761,3.11 2.761,3.11l0.364,-0.09l1.44,1.645c11.945,-5.507 24.427,-17.688 24.296,-17.661l0.102,-26.216l-14.142,-0.042l-0.06,-34.73l14.127,14.159l-0.093,-4.063c-3.204,-3.089 -16.081,-16.261 -16.081,-16.261c1.875,-0.264 3.69,-0.881 5.449,-1.85c3.072,1.714 6.341,2.743 10.104,2.236l0,-3.854c-4.272,-0.008 -6.922,-1.442 -8.839,-3.175l-2.638,-0.09c-4.873,3.757 -8.319,2.014 -12.026,1.276l-2.56,-3.877l26.051,-0l0,-8.988l-3.984,0l-2.589,-1.94l3.004,1.288c-0,-0 -0.049,-0.5 -0.649,-1.451c-1.618,-2.679 -3.669,-6.621 -4.9,-10.06c-0.596,-1.747 -0.595,-1.675 -0.093,-2.698c0.69,-1.406 0.541,-3.109 -0.368,-4.066c-0.64,-0.676 -0.62,-0.82 -0.41,-1.323c0.852,-1.992 -1.203,-2.725 -1.211,-2.597c-4.395,1.718 -10.291,-0.051 -10.185,-0.104l-0,-0Zm10.223,0.723c0.878,-0.008 0.973,0.383 0.97,1.046c-0.075,1.215 -1.635,1.654 -2.34,1.822c-3.371,0.783 -9.249,0.321 -9.631,-1.274c-0.282,-1.171 0.439,-1.821 2.833,-1.24c3.849,0.838 6.23,-0.063 8.168,-0.354Zm-10.882,3.383c0.35,-0 0.768,0.358 0.888,0.948c0.103,0.503 -0.414,1.987 -0.847,2.329c-1.071,0.846 -2.039,-0.47 -1.323,-1.902c0.413,-0.825 0.832,-1.372 1.282,-1.375Zm11.503,0.166c0.16,0.007 0.447,0.038 0.633,0.172c0.849,0.609 0.927,2.715 0.134,3.02c-0.809,0.31 -1.56,-0.545 -1.554,-1.886c-0,-0.821 0.307,-1.318 0.787,-1.306Zm-2.695,0.436c0.172,-0.009 0.356,0.028 0.544,0.116c0.708,0.331 1.05,2.541 0.349,3.247c-0.544,0.546 -1.714,0.516 -2.056,-0.619c-0.408,-1.356 0.23,-2.696 1.163,-2.744Zm-5.979,0.062c1.036,0.008 1.27,2.343 0.256,3.305c-0.848,0.804 -2.142,0.012 -1.736,-1.583c0.203,-0.797 0.669,-1.666 1.48,-1.722Zm2.945,0.373c1.516,0.263 1.388,4.026 -0.598,3.651c-1.131,-0.8 -1.101,-3.595 0.598,-3.651Zm-6.631,4.031l2.144,0.203c-0.056,-0.034 -3.411,7.189 -6.411,9.101c1.649,-2.783 3.094,-6.102 4.267,-9.304Zm12.85,0.04c1.252,3.384 2.537,6.818 4.245,10.278c-2.596,-2.537 -4.896,-6.437 -7.017,-10.099l2.772,-0.179Zm-10.076,0.326l1.418,0.016c0.473,2.192 1.291,3.589 2.252,4.79c0.831,-1.425 1.356,-2.989 1.867,-4.657l1.127,-0.017c0.432,0.261 -1.327,6.867 -3.049,7.67c-1.823,-1.501 -3.36,-5.559 -3.615,-7.802Zm-0.599,1.564c-0.119,0.158 2.204,5.815 4.169,7.63c1.852,-1.822 3.033,-4.221 3.827,-7.082l6.093,8.669l-5.94,-4.121c-1.187,1.998 -2.447,3.903 -3.958,5.489c-1.631,-1.788 -3.041,-3.909 -4.521,-5.925c-2.292,1.721 -3.9,3.56 -6.875,5.167c0.013,0.067 5.83,-6.36 7.205,-9.827Zm-0.571,6.162l4.145,5.134l-11.035,-0.159l6.89,-4.975Zm8.977,0.08l6.963,4.86l-10.376,0.109l3.413,-4.969Zm-55.482,2.391c-0,0 0.058,0.309 0.126,0.494c1.236,5.111 4.644,9.36 9.773,8.856l-16.859,17.086c-0,-0 -2.785,-9.577 -8.425,-19.395c-0,-0 1.029,0.215 1.833,0.373c1.137,0.179 2.308,-0.193 3.037,-0.505c0.606,-0.26 1.466,0.117 1.898,0.252c1.158,0.222 1.947,-0.435 3.398,-1.734c0.386,-0.345 0.533,-0.261 1.019,-0.26c1.818,0.008 2.977,-1.576 2.772,-4.028l-0.091,-1.089l-0.231,1.226c-0.434,2.308 -0.736,3.303 -2.99,3.4c-0.546,0.024 -0.752,0.397 -1.615,1.148c-1.209,1.052 -2.062,1.142 -2.918,0.73c-0.874,-0.419 -0.955,-0.172 -1.779,0.227c-0.944,0.456 -2.319,0.402 -3.558,0.042c-1.73,-0.502 -1.519,-0.335 -1.519,-0.335c10.02,18.079 13.539,35.419 13.317,50.821c-0.316,21.947 -7.888,39.661 -14.532,50.34c0,-0 1.139,-0.117 2.154,-0.268c0.49,-0.138 0.866,-0.007 1.35,0.168c0.451,0.16 0.793,0.151 1.236,0.1c0.345,-0.04 1.189,0.008 1.733,0.086c1.233,0.18 1.313,0.016 2.656,-1.306c3.81,-3.752 3.563,-3.613 6.324,-3.523c4.142,0.137 7.454,2.906 8.834,7.398c0.175,0.568 0.403,1.365 0.434,1.365l-0.269,-1.19c-1.212,-6.022 -6.292,-8.225 -10.534,-8.144l17.9,-18.193c-0.091,0.017 4.15,13.843 7.843,20.005c0.008,0.042 -1.121,-0.493 -3.18,-0.222c-1.119,0.147 -2.372,0.001 -3.075,-0.124c-0.905,-0.022 -1.457,0.248 -2.584,1.189c-0.468,0.407 -0.891,0.851 -1.807,1.243c-2.177,0.932 -3.045,1.897 -3.056,4.317c-0.028,0.455 -0.095,1.012 -0.048,1.381c0.264,-0.16 0.537,-1.246 0.627,-1.767c0.301,-1.809 0.677,-2.441 2.367,-3.243c0.507,-0.241 1.576,-0.896 2.05,-1.28c1.557,-1.259 2.076,-1.547 3.341,-1.249c0.72,0.17 1.332,0.258 2.297,0.14c1.149,-0.141 1.216,-0.201 2.444,0.12c0.834,0.218 1.865,0.429 1.865,0.429c-17.349,-35.318 -16.776,-68.06 0.347,-101.279c-0,0 -5.069,0.062 -5.284,0.195c-0.082,0.051 -0.699,-0.008 -1.37,-0.129c-1.379,-0.252 -1.076,-0.083 -4.332,3.235c-4.024,4.101 -10.462,0.829 -12.401,-6.053c-0.101,-0.36 -0.188,-0.577 -0.341,-0.832c-0.049,-0.082 -0.177,-0.218 -0.177,-0.218l-0,0Zm16.4,4.039c0.745,0.08 1.677,0.021 1.585,0.728l-24.271,23.978l-0.371,-1.529l23.057,-23.177Zm5.038,0.144c-0.294,0.588 -1.092,1.327 -1.442,1.882l1.301,1.64l-0.721,1.323l-1.998,-1.704l-3.804,3.807l3.171,3.607l-3.003,3.07l-1.001,-1.146l1.588,-1.683l-2.466,-2.341l-4.344,4.281l3.539,3.646l-2.596,2.523l-1.035,-0.995l1.361,-1.524l-2.308,-2.418l-4.046,4.183l3.202,3.611l-2.474,2.488l-1.096,-1.127l1.189,-1.255l-2.289,-2.431l-4.122,4.121l3.343,3.678l-2.457,2.228l-0.867,-0.929l1.188,-1.295l-2.247,-2.437l-2.557,2.351l-0.426,-1.612l25.301,-25.479l2.116,-0.063Zm1.457,0.377l-1.065,2.169l-0.824,-0.917l1.072,-1.119l0.817,-0.133Zm-59.673,0.14c-0.656,0.162 -15.72,8.67 -24.296,18.008l-0.027,3.478l-0.317,0.416l0.153,5.384l0.214,0.288l0.074,2.197l-0.341,0.579l-0,6.03l0.456,0.078l0.074,7.378l14.087,0.039l-0.013,35.252c-0,0 -8.273,-9.218 -14.23,-14.66l0.021,4.121l15.761,16.506c-1.084,0.154 -2.494,0.419 -4.621,1.609c-5.113,-3.238 -11.025,-2.247 -11.025,-2.247l0.023,4.198c3.759,-0.367 7.152,0.153 11.102,2.85c3.253,-2.235 7.17,-3.594 13.013,-1.819c1.286,2.064 2.573,4.404 3.859,5.788l-27.87,0l-0,8.855c1.237,0.026 4.333,0 4.333,0c1.569,3.118 4.655,7.02 5.935,12.374c-1.758,2.141 -1.617,3.865 0.093,6.021c-0.015,0.972 -0.304,2.047 0.774,3.13c3.55,-1.76 7.558,-0.98 10.541,-0.081c1.011,0.304 1.394,-0.863 1.358,-2.332c-0.089,-0.841 -0.085,-1.2 0.552,-1.761c1.518,-1.334 0.577,-4.075 0.339,-4.136c-0.088,-2.404 7.509,-14.444 7.514,-14.223l-1.514,0.556l-6.496,0.029c17.085,-16.7 24.227,-35.75 22.732,-57.262c-0.334,-5.42 -1.166,-7.903 -1.166,-7.903c-6.017,2.711 -10.963,4.681 -15.767,9.897l-0.32,-11.211c0.268,0.531 2.052,1.02 2.85,0.341c0.547,-0.362 0.602,-0.749 0.096,-2.11c-0.734,-1.975 -0.908,-6.211 -0.36,-7.651c0.064,-0.168 0.118,-0.615 0.164,-1.053c0.063,-0.59 -0.064,-0.624 -0.119,-0.615c0.14,-0.034 0.727,0.087 0.798,0.024c2.052,-1.831 4.255,-2.975 6.957,-3.095l0.069,-1.337c-2.003,-5.129 -3.701,-7.139 -5.515,-10.006c0,-0 -0.515,-0.173 -0.84,-0.105l0.419,-0.448c-2.545,-4.095 -6.169,-7.82 -9.499,-11.358c0.01,-0.012 -0,-0.018 -0.018,-0.012l-0.007,-0.001Zm-0.112,0.696l1.807,1.69c-8.619,4.2 -17.123,10.354 -25.497,18.7l0.115,-3.067c9.465,-9.023 16.605,-13.358 23.575,-17.323Zm55.353,3.067l1.084,1.097l-1.502,1.769l0.977,1.01l-0.544,1.349l-2.5,-2.632l2.485,-2.593Zm-53.815,0.133c0.031,-0.021 0.096,-0.022 0.23,0.007c0.538,0.114 -0.111,0.21 0.256,0.617c0.368,0.408 0.532,-0.226 0.589,0.319c0.057,0.546 -0.234,-0.041 -0.509,0.434c-0.275,0.475 0.38,0.435 -0.122,0.658c-0.502,0.223 -0.034,-0.236 -0.571,-0.35c-0.537,-0.114 -0.296,0.496 -0.664,0.089c-0.367,-0.408 0.215,-0.106 0.158,-0.651c-0.057,-0.546 -0.565,-0.128 -0.29,-0.603c0.274,-0.475 0.166,0.17 0.668,-0.053c0.376,-0.167 0.16,-0.406 0.255,-0.467l-0,-0Zm73.761,1.446c17.57,19.824 8.549,48.635 -14.903,55.556l-0.262,-1.629c23.661,-8.079 29.115,-35.23 13.762,-52.224l1.403,-1.703Zm-70.708,0.132l1.119,1.314c-10.016,4.847 -19.787,12.114 -29.231,22.598l-0.092,-2.648c8.87,-9.451 18.352,-16.289 28.204,-21.264Zm-6.475,0.385c0.032,-0.021 0.099,-0.021 0.233,0.007c0.537,0.115 -0.113,0.211 0.254,0.619c0.368,0.408 0.533,-0.228 0.59,0.318c0.058,0.545 -0.235,-0.041 -0.51,0.435c-0.275,0.475 0.381,0.433 -0.121,0.656c-0.502,0.224 -0.033,-0.235 -0.571,-0.349c-0.537,-0.114 -0.296,0.496 -0.663,0.088c-0.368,-0.408 0.213,-0.106 0.156,-0.651c-0.058,-0.546 -0.563,-0.128 -0.289,-0.603c0.275,-0.475 0.167,0.172 0.668,-0.051c0.377,-0.168 0.159,-0.408 0.253,-0.469l0,-0Zm-3.122,1.976c0.032,-0.02 0.098,-0.021 0.233,0.008c0.537,0.114 -0.112,0.211 0.256,0.619c0.368,0.407 0.531,-0.227 0.588,0.319c0.057,0.545 -0.234,-0.042 -0.509,0.433c-0.275,0.475 0.38,0.435 -0.122,0.658c-0.502,0.224 -0.033,-0.235 -0.571,-0.349c-0.537,-0.114 -0.296,0.496 -0.664,0.088c-0.367,-0.408 0.215,-0.106 0.158,-0.651c-0.057,-0.546 -0.565,-0.129 -0.29,-0.604c0.275,-0.475 0.166,0.172 0.668,-0.052c0.376,-0.167 0.159,-0.407 0.253,-0.468l0,-0.001Zm10.425,0.687c0.568,-0 1.027,0.466 1.027,1.042c0,0.575 -0.459,1.042 -1.027,1.042c-0.568,-0 -1.028,-0.467 -1.028,-1.042c-0,-0.576 0.46,-1.042 1.028,-1.042Zm44.631,0.718l1.027,1.101l-1.629,1.656l2.319,2.457l2.232,-2.178l-1.119,3.244l-19.676,19.934l-0.411,-2.091l1.55,-1.578l-2.374,-2.403l-0.418,-1.602l2.336,-2.216l0.978,1.018l-1.365,1.599l2.196,2.193l3.992,-3.725l-3.294,-3.666l2.719,-2.667l0.94,0.929l-1.301,1.358l2.29,2.514l4.095,-3.976l-3.362,-3.604l2.703,-2.702l1.024,0.992l-1.361,1.656l2.328,2.281l4.011,-4.015l-3.299,-3.515l2.869,-2.994Zm-58.116,0.687c0.031,-0.021 0.098,-0.022 0.232,0.007c0.537,0.114 -0.112,0.211 0.256,0.619c0.367,0.408 0.531,-0.227 0.589,0.319c0.057,0.545 -0.235,-0.042 -0.509,0.433c-0.275,0.475 0.379,0.435 -0.123,0.659c-0.501,0.223 -0.033,-0.236 -0.571,-0.35c-0.537,-0.114 -0.296,0.496 -0.663,0.088c-0.368,-0.408 0.215,-0.105 0.157,-0.651c-0.057,-0.546 -0.564,-0.129 -0.29,-0.604c0.275,-0.475 0.167,0.172 0.668,-0.051c0.377,-0.168 0.159,-0.408 0.254,-0.469l-0,-0Zm16.203,0.216l0.783,1.318c-11.925,6.106 -20.172,12.224 -32.376,26.28l0,-1.77c9.421,-11.727 19.216,-19.287 31.593,-25.828Zm-5.989,0.155c0.568,0 1.027,0.467 1.027,1.042c0,0.576 -0.459,1.042 -1.027,1.042c-0.567,0 -1.028,-0.466 -1.028,-1.042c-0,-0.575 0.461,-1.042 1.028,-1.042Zm92.264,0.4c2.103,1.898 6.521,3.789 9.368,3.589l0.075,2.282c-4.965,0.478 -9.302,-2.745 -9.302,-2.745c-3.825,2.363 -7.717,2.662 -11.775,1.637l-1.562,-3.39c6.019,2.828 11.664,0.129 13.196,-1.373l-0,0Zm-23.818,0.553l0.962,0.956c4.633,-1.222 6.13,3.617 3.97,6.383l0.618,2.029c4.119,0.809 5.257,5.076 1.476,7.367l-0.031,2.232c0.648,0.547 1.428,1.076 1.925,1.85c1.107,1.884 0.668,3.782 -1.039,4.976c-1.017,0.696 -2.119,0.788 -2.163,0.716l-1.07,2.535c0.942,0.539 1.206,1.455 1.354,2.11c0.32,1.42 -0.664,3.27 -1.898,3.953c-1.559,0.862 -3.684,0.097 -3.682,0.098l-1.518,1.539c0.39,1.334 0.498,2.13 0.291,2.913c-0.512,1.936 -2.513,2.695 -4.121,2.549c-1.263,-0.114 -2.213,-1.049 -2.213,-1.049l-1.684,0.653c0.048,-0 0.026,2.161 -0.824,2.823c-0.267,0.28 -1.215,0.9 -1.215,0.9l-0.127,-1.488c0.667,-0.487 0.985,-1.667 0.851,-2.531l3.636,-1.803c-0,0.134 0.995,1.11 1.676,1.251c1.395,0.288 2.853,-0.816 2.856,-2.115c-0,-0.758 -0.429,-1.274 -0.552,-1.885l3.087,-3.238c1.277,0.445 2.174,0.521 2.746,0.187c1.078,-0.631 1.368,-1.934 1.161,-2.717c-0.246,-0.927 -1.061,-1.526 -1.116,-1.614l1.722,-4.413c0.802,-0.007 1.298,-0.131 1.924,-0.544c1.277,-0.849 1.112,-2.502 0.568,-3.286c-0.662,-0.953 -1.622,-1.129 -1.698,-1.106l0.127,-4.584c-0,0.038 1.76,-0.845 1.927,-1.87c0.417,-2.552 -1.2,-2.991 -3.132,-2.928l-1.442,-4.148c2.285,-1.413 1.561,-3.658 0.403,-4.412c-1.221,-0.795 -2.944,-0.059 -2.944,-0.059c-0,0 -0.787,-0.79 -1.382,-1.426l0.571,-0.804Zm-61.092,0.906c1.502,2.047 4.045,6.147 5.465,9.815c0.062,0.16 0.031,0.972 0.031,0.972c-4.054,0.357 -5.447,1.968 -6.888,3.102c-1.117,-0.581 -1.587,-1.262 -3.608,0.021c-0.008,0.06 -5.151,-3.156 -6.135,-7.52c3.677,-2.298 7.182,-4.484 11.135,-6.39l0,0Zm-20.583,0.014c0.031,-0.021 0.098,-0.022 0.232,0.007c0.537,0.114 -0.113,0.21 0.255,0.617c0.367,0.408 0.532,-0.226 0.59,0.319c0.057,0.546 -0.236,-0.041 -0.511,0.434c-0.275,0.475 0.381,0.435 -0.12,0.658c-0.502,0.223 -0.034,-0.236 -0.571,-0.35c-0.538,-0.114 -0.296,0.496 -0.664,0.089c-0.368,-0.408 0.213,-0.106 0.156,-0.651c-0.057,-0.546 -0.563,-0.128 -0.288,-0.603c0.274,-0.475 0.166,0.17 0.668,-0.053c0.376,-0.167 0.158,-0.406 0.253,-0.467l-0,-0Zm9.748,0.219c0.567,-0 1.027,0.466 1.027,1.041c-0,0.576 -0.46,1.042 -1.027,1.042c-0.568,0 -1.029,-0.466 -1.029,-1.042c0,-0.575 0.461,-1.041 1.029,-1.041Zm70.326,1.278c4.399,6.166 6.17,12.98 4.969,19.992c-1.569,9.16 -7.678,14.208 -14.61,17.177l-0.046,-1.788c6.467,-2.362 11.451,-7.304 13.129,-15.864c1.205,-6.147 -0.257,-12.397 -4.317,-18l0.875,-1.517Zm-83.275,0.851c0.032,-0.021 0.098,-0.021 0.233,0.007c0.537,0.115 -0.112,0.21 0.256,0.618c0.367,0.407 0.531,-0.227 0.588,0.319c0.058,0.545 -0.235,-0.042 -0.51,0.433c-0.275,0.475 0.381,0.435 -0.121,0.658c-0.502,0.224 -0.033,-0.235 -0.571,-0.349c-0.537,-0.114 -0.296,0.496 -0.663,0.088c-0.368,-0.408 0.214,-0.106 0.157,-0.651c-0.057,-0.546 -0.564,-0.128 -0.29,-0.603c0.275,-0.475 0.166,0.171 0.668,-0.053c0.377,-0.167 0.159,-0.405 0.253,-0.467l0,-0Zm9.731,0.016c0.567,0 1.028,0.467 1.028,1.042c0,0.575 -0.461,1.042 -1.028,1.042c-0.568,-0 -1.027,-0.467 -1.027,-1.042c-0,-0.575 0.459,-1.042 1.027,-1.042Zm87.746,1.758c2.28,0.253 5.067,4.443 7.604,6.835l0.027,34.171l-7.581,0.154c-0.987,2.404 -3.278,4.78 -6.926,7.126l-0,-12.804c12.44,-13.511 9.056,-28.3 6.876,-35.482l0,-0Zm-100.252,0.401c0.032,-0.021 0.098,-0.022 0.233,0.007c0.537,0.114 -0.112,0.211 0.256,0.619c0.367,0.408 0.531,-0.228 0.588,0.318c0.058,0.545 -0.234,-0.041 -0.509,0.434c-0.275,0.476 0.38,0.434 -0.122,0.657c-0.502,0.224 -0.033,-0.235 -0.571,-0.349c-0.537,-0.114 -0.296,0.496 -0.663,0.088c-0.368,-0.408 0.214,-0.106 0.157,-0.651c-0.057,-0.546 -0.565,-0.128 -0.29,-0.603c0.275,-0.475 0.166,0.172 0.668,-0.051c0.377,-0.168 0.159,-0.408 0.253,-0.469l0,-0Zm103.308,0.167l2.285,0.089l15.5,15.841l-0.054,2.325l-17.731,-18.255Zm-93.958,0.008c0.567,-0 1.028,0.466 1.028,1.042c0,0.575 -0.461,1.042 -1.028,1.042c-0.568,-0 -1.027,-0.467 -1.027,-1.042c-0,-0.575 0.459,-1.042 1.027,-1.042Zm5.682,1.569l0.411,1.992c-0.501,-0.798 -0.519,-1.094 -1.388,-1.233l0.977,-0.759Zm-8.39,0.581c0.568,-0 1.029,0.466 1.029,1.042c-0,0.575 -0.461,1.04 -1.029,1.04c-0.567,0 -1.027,-0.465 -1.027,-1.04c0,-0.576 0.46,-1.042 1.027,-1.042Zm77.919,0.291l3.06,2.197l-0.997,3.96l-3.133,-2.854l1.07,-3.303Zm-87.208,0.004c0.032,-0.02 0.098,-0.021 0.233,0.008c0.537,0.114 -0.113,0.211 0.254,0.619c0.368,0.407 0.533,-0.227 0.59,0.318c0.057,0.546 -0.236,-0.041 -0.51,0.434c-0.275,0.475 0.381,0.435 -0.121,0.658c-0.502,0.223 -0.033,-0.235 -0.571,-0.349c-0.537,-0.115 -0.296,0.495 -0.664,0.088c-0.367,-0.408 0.214,-0.106 0.156,-0.651c-0.057,-0.546 -0.563,-0.129 -0.288,-0.604c0.275,-0.475 0.166,0.172 0.668,-0.052c0.376,-0.167 0.159,-0.407 0.253,-0.468l0,-0.001Zm16.495,0.318l0.544,0.327l-0.633,2.71l-7.043,2.576c2.265,-1.96 4.593,-4.097 7.132,-5.613Zm1.152,1.261c0.501,2.008 1.586,4.978 2.918,7.493c-0.904,0.474 -4.154,2.338 -4.145,3.205c0.458,1.571 3.892,3.012 3.892,3.012c-1.303,2.139 -2.538,4.66 -3.551,7.561c-0.587,-1.013 -0.655,-5.006 0.609,-6.667c-1.247,-0.498 -2.953,-1.637 -4.249,-2.814c0.836,-2.999 4.399,-4.79 4.555,-4.813c-0.062,0.151 -1.052,-6.264 -0.031,-6.977l0.002,-0Zm-11.433,0.505c0.567,0 1.028,0.465 1.028,1.041c0,0.575 -0.461,1.042 -1.028,1.042c-0.568,-0 -1.027,-0.467 -1.027,-1.042c-0,-0.576 0.459,-1.041 1.027,-1.041Zm78.456,0.085c4.572,8.636 1.853,16.137 -5.442,21.513l0.255,-2.037c5.033,-3.701 8.206,-10.988 4.53,-17.937l0.657,-1.539Zm-87.155,0.241c0.032,-0.02 0.097,-0.021 0.231,0.008c0.537,0.114 -0.112,0.211 0.256,0.619c0.368,0.407 0.531,-0.227 0.589,0.319c0.057,0.545 -0.235,-0.042 -0.51,0.433c-0.274,0.475 0.38,0.435 -0.122,0.658c-0.502,0.224 -0.034,-0.237 -0.571,-0.351c-0.536,-0.114 -0.296,0.496 -0.663,0.088c-0.368,-0.407 0.215,-0.104 0.157,-0.649c-0.057,-0.546 -0.564,-0.129 -0.29,-0.604c0.275,-0.475 0.167,0.172 0.668,-0.052c0.377,-0.167 0.161,-0.407 0.255,-0.468l-0,-0.001Zm73.163,0.062c-3.356,12.68 -3.272,18.604 -3.662,22.042l-13.027,-0l-0.506,-4.572l17.195,-17.47Zm-52.039,0.35c-0,-0 2.825,2.659 5.36,4.98l-0.303,0.606l-2.465,0.335c-1.886,-3.766 -2.592,-5.921 -2.592,-5.921Zm-2.34,1.392l0.02,0.007l0.156,1.89c-0.846,-0.032 -10.005,3.847 -17.043,10.041c1.049,-1.873 2.817,-3.67 4.527,-5.202c3.639,-3.621 12.34,-6.733 12.34,-6.733l-0,-0.003Zm-13.022,0.432c0.568,-0 1.029,0.466 1.029,1.041c-0,0.576 -0.461,1.042 -1.029,1.042c-0.568,0 -1.027,-0.466 -1.027,-1.042c-0,-0.575 0.459,-1.041 1.027,-1.041Zm5.768,1.184l0.521,0.545l-2.431,1.276l1.91,-1.821Zm16.948,0.557c0.033,-0 0.07,-0.001 0.104,0.007c0.376,0.049 0.532,0.229 0.748,0.412c-0.476,-0.1 -0.943,-0.157 -1.388,-0.132c0.112,-0.136 0.303,-0.275 0.536,-0.284l-0,-0.003Zm-9.303,0.392l0.223,1.411c-5.271,3.038 -11.541,5.909 -20.665,14.653l0,-2.908c5.726,-5.378 12.404,-9.888 20.442,-13.156Zm7.091,0.133c0.329,0.081 0.621,0.086 0.92,0.011c-0,0 -0.191,0.384 -0.418,0.393c-0.239,0.009 -0.502,-0.404 -0.502,-0.404l0,-0Zm2.235,0.08c0.664,-0.041 1.115,0.574 0.982,1.366c-0.509,2.682 -0.489,5.398 0.058,7.296c0.426,1.479 0.534,2 0.18,2.247c-3.107,2.172 -4.81,-7.621 -2.216,-10.399c0.352,-0.335 0.695,-0.491 0.996,-0.51l0,0Zm-25.373,0.343c0.568,-0 1.027,0.466 1.027,1.042c0,0.575 -0.459,1.042 -1.027,1.042c-0.567,-0 -1.028,-0.467 -1.028,-1.042c-0,-0.576 0.461,-1.042 1.028,-1.042Zm89.296,0.241l1.932,3.286l-2.691,3.055l-1.638,-3.549l2.397,-2.792Zm-66.509,1.784l-0,0.001l-0.102,1.133c-1.388,0.427 -2.597,1.034 -3.637,1.93c-0.202,0.175 3.214,1.737 3.572,1.375l-0.007,1.21c-0.048,0.397 -5.65,-1.407 -6.029,-2.753c0.636,-0.895 4.18,-2.977 6.201,-2.896l0.002,-0Zm-25.49,0.604c0.568,-0 1.027,0.466 1.027,1.042c0,0.575 -0.459,1.04 -1.027,1.04c-0.567,0 -1.028,-0.465 -1.028,-1.04c-0,-0.576 0.461,-1.042 1.028,-1.042Zm15.275,1.195l-0,0.001c-0.398,0.766 -0.986,1.782 -1.099,2.894c-3.843,2.362 -7.785,4.569 -12.581,9.99l-2.584,-0.017l-0.058,-0.687c5.241,-5.066 10.916,-9.436 16.321,-12.181l0.001,-0Zm9.9,0.329l0.026,1.425c-0.894,0.011 -1.382,-0.284 -2.048,-0.626c0.561,-0.359 0.995,-0.714 2.02,-0.799l0.002,-0Zm28.919,0.151l0.721,0.766l-0.449,0.427l-0.272,-1.193Zm-38.937,2.966l1.423,0.898c-3.663,1.937 -7.52,4.8 -10.856,8.54l-2.818,0c3.56,-3.911 7.393,-7.42 12.251,-9.438Zm75.894,1.03l0.284,3.879l-3.574,1.987l0.07,-4.094l3.22,-1.772Zm-67.963,0.016l2.457,0.272l0.253,1.053c-2.062,1.33 -3.854,2.89 -5.572,4.511c0.658,-2.082 1.686,-4.149 2.862,-5.836Zm-5.894,0.416l1.055,0.494l-0.418,1.823c-3.011,1.357 -5.412,3.189 -7.981,5.66l-2.89,-0c2.532,-2.751 6.742,-6.213 10.234,-7.977Zm9.144,1.715c0.01,-0 0.013,-0.001 0.013,0.007l0.384,11.958c-10.617,12.6 -10.041,24.785 -6.946,35.835l-2.024,-0.093c-2.354,-2.964 -5.483,-5.984 -5.483,-5.984l-0.009,-34.785l7.321,0.028c1.726,-4.049 6.473,-6.931 6.745,-6.963l-0.001,-0.003Zm-8.643,1.678l0.089,1.594c-1.514,0.911 -2.799,1.913 -3.904,2.99l-2.749,-0c1.901,-1.794 3.787,-3.599 6.564,-4.584Zm24.96,0.782l0.403,1.881c-24.642,9.036 -29.095,35.308 -14.552,53.341l-0.989,1.12c-16.699,-18.18 -9.371,-47.878 15.138,-56.342Zm-24.764,1.881c0,-0 0.135,1.441 0.177,1.921l-2.761,-0c0.621,-0.738 1.172,-1.504 2.584,-1.921Zm69.345,0.604l-1.588,3.75l-4.236,0.066l1.925,-3.75l3.899,-0.066Zm-26.822,2.569l3.86,-0l0,3.74l-3.86,-0l-0,-3.74Zm-16.711,0.368l0.064,1.645c-1.715,0.885 -1.283,2.293 -1.714,2.27c-1.054,0.271 -3.834,1.765 -3.834,1.765c-0.987,-0.906 -2.317,-0.677 -2.934,-0.236c-0.857,0.568 -1.047,1.892 -0.802,3.012l-2.949,3.495c-1.424,-0.617 -2.813,-0.579 -3.505,0.385c-0.782,1.087 -0.484,2.434 0.806,3.945l-1.606,4.18c-0.184,-0.25 -2.874,0.55 -2.911,2.169c-0.038,1.713 2.224,2.832 2.221,2.962l-0.108,4.61c-0.102,-0.221 -2.309,0.693 -2.01,2.901c0.276,2.034 3.007,1.787 3.064,1.956l1.484,4.412c-0.099,-0.135 -2.011,1.763 -0.84,3.558c0.977,1.495 3.813,0.527 3.789,0.43l0.786,1.124l-0.87,0.956c0,-0 -0.376,-0.457 -0.587,-0.416c-1.651,0.32 -3.494,-0.064 -4.379,-1.399c-1.204,-1.885 0.139,-4.83 0.567,-4.806l-1.02,-2.542c-1.858,-0.038 -3.431,-1.719 -3.515,-3.129c-0.176,-2.952 2.213,-4.187 2.219,-4.167l0.071,-2.753c-0.147,0.165 -2.362,-1.429 -2.309,-3.258c0.038,-1.336 1.148,-2.909 2.515,-3.541c0.395,-0.189 1.012,-0.485 1.012,-0.485l0.924,-2.256c-0,-0 -1.308,-1.917 -0.97,-3.849c0.63,-2.925 4.391,-2.724 4.985,-2.441l1.746,-2.216c-0.86,-2.022 0.623,-4.368 2.564,-4.751c0.862,-0.14 3.278,0.44 3.278,0.44l2.237,-1.17c-0.038,-1.239 1.295,-2.046 2.531,-2.8l-0,0Zm12.711,4.095l3.309,-0l0,3.74l-3.309,-0l0,-3.74Zm8.815,-0l3.732,-0l-0,3.74l-3.732,-0l0,-3.74Zm-21.259,0.937l-0.043,1.43c-21.363,10.501 -12.626,32.244 -9.578,34.774l-0.686,1.535c-3.749,-2.311 -13.414,-27.399 10.307,-37.739l0,0Zm16.444,3.786l4.014,-0l0.035,3.844l-4.016,-0l-0.033,-3.844Zm-17.372,1.87l-1.273,3.502l-3.923,0.335l1.45,-3.496l3.746,-0.341Zm80.158,2.562l2.686,0.016c-5.019,5.95 -10.435,10.005 -15.78,12.225c0.106,-0.753 0.205,-1.32 0.065,-2.118c5.942,-2.966 10.023,-6.413 13.029,-10.123l0,-0Zm-9.03,0.003c0.271,0.692 -7.044,4.698 -7.07,4.357l0.019,-1.331l3.948,-2.97l3.103,-0.056Zm1.58,-0l0.015,-0l2.059,0.013c-1.86,2.974 -11.696,8.374 -11.287,7.614l0.397,-2.175c3.171,-1.414 6.049,-3.337 8.817,-5.451l-0.001,-0.001Zm3.47,-0l2.71,0.013c-4.076,5.248 -8.212,7.163 -12.179,9.421c-0.238,-0.035 -0.131,-0.126 -0.874,-0.104l-1.356,-1.073c0.253,0.236 9.116,-5.031 11.699,-8.256l0,-0.001Zm-12.619,0.012c0.821,-0.01 2.844,0.035 2.844,0.035c-0.69,0.841 -1.478,1.583 -2.457,2.132l-0.387,-2.167Zm-63.194,0.174l-0.093,1.588c-5.702,4.971 -7.988,11.324 -5.022,18.698l-0.706,1.574c-3.191,-7.869 -2.249,-15.514 5.821,-21.86Zm12.731,0.274l13.236,-0l0.304,4.256l-17.705,17.471c2.695,-9.76 3.441,-15.652 4.165,-21.727Zm69.931,0.983l0,2.375c-6.979,7.794 -14.007,11.288 -20.086,12.701l-0.137,-0.914l2.814,-1.758c9.069,-4.004 13.041,-8.036 17.409,-12.404Zm-21.184,0.063c0.123,1.717 -1.385,4.958 -3.109,6.786l-2.951,-0.007l-0.327,-1.299c2.448,-1.338 4.716,-3.15 6.387,-5.48l0,0Zm0.891,0.513c1.084,1.769 -0.542,6.346 -0.609,6.165c-0.13,0.315 9.276,2.331 -0.387,7.048c0.21,1.385 1.116,4.345 0.417,6.173c-0.217,-0.7 -1.9,-5.447 -3.198,-6.663c3.016,-0.871 5.189,-2.743 4.954,-3.359c-0.491,-0.877 -1.841,-1.954 -4.114,-2.744c1.934,-2.722 2.51,-4.765 2.937,-6.62Zm-69.08,0.867l0.303,3.606l-3.436,2.096l-0.265,-3.961l3.398,-1.741Zm59.772,3.351c0.268,-0 0.519,0.074 0.643,0.21c1.697,0.696 1.821,9.09 0.281,9.944c-1.12,0.713 -1.908,-0.434 -1.869,-0.638c0.742,-3.862 0.278,-6.249 -0.031,-8.949c0.033,-0.393 0.527,-0.573 0.974,-0.567l0.002,-0Zm29.601,0.123l0,2.986c-9.977,10.485 -20.728,18.749 -31.704,23.391l-1.001,-1.723c13.33,-6.248 24.477,-15.163 32.705,-24.654Zm-1.879,0.445c-4.598,6.423 -10.195,10.625 -17.839,12.54l-0.146,-1.85c8.844,-2.037 16.947,-9.513 17.985,-10.69Zm-125.648,0.885c6.019,6.238 12.187,12.421 18.315,18.823l-2.436,0.128l-15.951,-16.778l0.072,-2.173Zm71.653,0.311l0.215,1.539l-1.752,1.949l2.768,3.017l0.142,0.711l-2.378,2.519l-1.074,-1.077l1.316,-1.496l-2.231,-2.38l-4.137,4.036l3.407,3.75l-2.572,2.481l-1.012,-1.061l1.315,-1.541l-2.286,-2.445l-4.217,4.253l3.19,3.574l-2.128,2.386l-1.009,-1.077l1.093,-1.271l-2.313,-2.414l-4.052,3.957l3.335,3.74l-2.71,2.736l-1.051,-1.033l1.522,-1.679l-2.5,-2.415l-2.006,1.921c0,-0 0.757,-1.906 0.867,-2.228c0.162,-0.473 0.826,-0.848 5.043,-5.065c5.032,-5.079 10.194,-9.838 15.215,-15.387Zm28.867,1.026c1.471,0.025 3.973,0.385 5.188,1.035c2.254,1.205 1.546,2.153 0.081,2.861c-1.751,0.846 -3.187,1.26 -5.165,1.318l0.057,-0.984c1.149,-0.282 2.34,-0.566 3.355,-1.135c0.698,-0.392 0.879,-0.708 0.879,-0.708c-0,-0 -0.681,-0.701 -1.765,-1.099c-0.792,-0.292 -1.926,-0.29 -2.542,-0.393l-0.088,-0.895Zm-65.831,1.299l1.851,2.814l-2.193,3.729l-2.105,-3.216l2.447,-3.327Zm37.359,0.303c0.065,0.53 0.727,2.592 0.379,2.193l-1.23,-1.404l0.851,-0.789Zm28.586,0.276c1.024,0.088 2.103,0.119 2.851,0.487c-0.868,0.682 -1.852,0.833 -2.831,1.002l-0.02,-1.489Zm25.696,1.408c0.618,0 1.12,0.508 1.12,1.135c-0,0.627 -0.502,1.134 -1.12,1.134c-0.619,0 -1.118,-0.507 -1.119,-1.134c0,-0.627 0.5,-1.135 1.119,-1.135Zm-57.787,1.966l0.955,0.938l-1.235,1.458l2.24,2.391l2.772,-2.632l0.368,1.671l-25.975,25.911l-1.442,-0.106l1.652,-1.978l-1.879,-1.949l0.866,-1.399l2.121,1.999l4.061,-3.939l-3.29,-3.51l2.815,-2.928l1.063,0.929l-1.615,1.774l2.35,2.433l4.25,-4.238l-3.326,-3.665l2.655,-2.566l0.974,0.936l-1.235,1.326l2.424,2.558l3.581,-3.778l-3.259,-3.638l2.894,-2.859l0.89,0.903l-1.334,1.507l2.435,2.554l3.907,-4.069l-3.217,-3.538l2.534,-2.496Zm55.188,0.676c0.619,0 1.12,0.509 1.12,1.136c-0,0.627 -0.501,1.135 -1.12,1.135c-0.618,-0 -1.12,-0.508 -1.12,-1.135c0,-0.627 0.502,-1.136 1.12,-1.136Zm-21.113,0.052c1.764,2.1 2.825,4.436 3.037,6.951c-1.409,-2.168 -3.203,-4.092 -5.553,-5.762l0.403,-1.054l2.113,-0.135Zm24.909,0.17l0,2.535c-7.869,9.038 -17.422,15.85 -27.23,20.591l-1.668,-2.055c11.6,-5.25 19.995,-11.77 28.898,-21.071Zm-11.581,1.773l-3.186,2.508l0,-1.089l3.186,-1.419Zm-19.287,0.152c1.441,0.553 1.743,0.619 2.848,0.031c2.716,1.345 4.994,3.616 6.351,6.982c-3.709,2.36 -7.779,4.271 -11.658,6.174c-1.862,-3.041 -3.736,-5.89 -5.206,-9.804c5.982,-0.045 7.623,-3.357 7.665,-3.383l-0,0Zm24.341,0.525c0.558,0.011 1.117,0.443 1.136,1.092c0,0.627 -0.501,1.134 -1.12,1.134c-0.618,0 -1.119,-0.507 -1.119,-1.134c0.121,-0.783 0.611,-1.102 1.103,-1.092Zm-8.278,0.747l0.008,1.096c-1.527,1.357 -4.494,3.552 -4.494,3.552l-1.227,-0.066l0.398,-3.11c1.859,-0.38 3.659,-0.929 5.315,-1.472l0,-0Zm-78.138,0.127l2.93,2.441l-0.898,3.787l-2.882,-2.22l0.85,-4.008Zm39.343,0.716l0.272,1.096l-24.069,24.121l-1.369,-0.224l25.166,-24.993Zm44.404,0.933c0.618,0 1.12,0.508 1.12,1.135c-0,0.627 -0.502,1.134 -1.12,1.134c-0.618,0 -1.12,-0.507 -1.12,-1.134c0,-0.627 0.502,-1.135 1.12,-1.135Zm8.734,0.11c0.106,0.041 -0.057,0.32 0.346,0.406c0.538,0.114 0.296,-0.496 0.664,-0.088c0.367,0.408 -0.215,0.105 -0.158,0.651c0.058,0.545 0.565,0.129 0.29,0.604c-0.274,0.475 -0.166,-0.172 -0.668,0.051c-0.502,0.223 0.052,0.576 -0.485,0.462c-0.538,-0.114 0.111,-0.211 -0.256,-0.619c-0.368,-0.408 -0.532,0.227 -0.589,-0.319c-0.057,-0.545 0.235,0.042 0.509,-0.433c0.275,-0.476 -0.38,-0.436 0.122,-0.659c0.126,-0.056 0.19,-0.069 0.225,-0.056l0,0Zm-11.97,2.424c0.619,-0 1.12,0.509 1.12,1.136c0,0.627 -0.501,1.134 -1.12,1.134c-0.618,0 -1.119,-0.507 -1.119,-1.134c-0,-0.627 0.501,-1.136 1.119,-1.136Zm9.184,0.089c0.105,0.041 -0.059,0.32 0.344,0.406c0.537,0.114 0.297,-0.496 0.665,-0.088c0.368,0.407 -0.215,0.105 -0.157,0.651c0.057,0.545 0.563,0.127 0.288,0.602c-0.275,0.475 -0.166,-0.17 -0.668,0.053c-0.502,0.223 0.053,0.574 -0.484,0.46c-0.538,-0.114 0.111,-0.211 -0.256,-0.619c-0.368,-0.407 -0.531,0.229 -0.589,-0.317c-0.057,-0.546 0.235,0.042 0.509,-0.433c0.275,-0.476 -0.379,-0.436 0.122,-0.659c0.126,-0.056 0.19,-0.069 0.226,-0.056Zm-17.278,0.208c0.427,0.033 0.81,0.05 1.201,0.07l-2.191,1.312c0.576,-0.556 0.96,-1.287 0.99,-1.383l0,0.001Zm20.522,0.584l0.014,2.334c-5.505,5.579 -12.457,11.367 -23.088,16.945l-1.355,-1.39c8.668,-4.191 16.802,-10.062 24.429,-17.889l0,0Zm-15.634,1.273c0.619,0 1.12,0.508 1.12,1.135c0,0.626 -0.501,1.135 -1.12,1.135c-0.618,0 -1.119,-0.509 -1.119,-1.135c-0,-0.627 0.501,-1.135 1.119,-1.135Zm9.745,0.197c0.106,0.04 -0.058,0.32 0.345,0.406c0.537,0.114 0.297,-0.496 0.665,-0.089c0.367,0.408 -0.215,0.104 -0.158,0.65c0.058,0.546 0.563,0.129 0.289,0.604c-0.275,0.475 -0.166,-0.172 -0.668,0.051c-0.502,0.223 0.053,0.576 -0.484,0.462c-0.538,-0.114 0.111,-0.211 -0.256,-0.619c-0.368,-0.408 -0.532,0.227 -0.589,-0.319c-0.057,-0.545 0.235,0.042 0.509,-0.433c0.275,-0.475 -0.38,-0.436 0.122,-0.659c0.126,-0.055 0.19,-0.068 0.225,-0.054l0,-0Zm-120.018,1.788c3.594,-0.097 6.75,1.209 8.719,2.656c3.799,-2.235 6.852,-2.497 11.204,-1.822l1.3,2.599c-4.237,-0.761 -8.702,-0.693 -12.52,2.294c-3.956,-2.534 -6.961,-3.266 -10.21,-2.854l-0.059,-2.74c0.529,-0.075 1.052,-0.119 1.566,-0.133l-0,0Zm107.186,0.184c0.619,0 1.12,0.508 1.12,1.135c-0,0.626 -0.501,1.136 -1.12,1.136c-0.618,-0 -1.119,-0.51 -1.119,-1.136c-0,-0.627 0.501,-1.135 1.119,-1.135Zm10.025,0.572c0.105,0.04 -0.059,0.32 0.344,0.405c0.538,0.114 0.298,-0.496 0.665,-0.088c0.368,0.408 -0.214,0.104 -0.157,0.65c0.057,0.545 0.563,0.129 0.288,0.604c-0.274,0.475 -0.166,-0.172 -0.668,0.051c-0.502,0.223 0.054,0.576 -0.484,0.462c-0.537,-0.115 0.112,-0.211 -0.256,-0.619c-0.367,-0.408 -0.531,0.228 -0.588,-0.318c-0.058,-0.545 0.234,0.041 0.509,-0.435c0.274,-0.475 -0.38,-0.433 0.122,-0.656c0.125,-0.056 0.19,-0.07 0.225,-0.056l-0,-0Zm-13.391,1.59c0.618,-0 1.119,0.507 1.119,1.134c0,0.627 -0.501,1.136 -1.119,1.136c-0.619,0 -1.12,-0.509 -1.12,-1.136c-0,-0.627 0.501,-1.134 1.12,-1.134Zm10.235,0.776c0.105,0.04 -0.057,0.32 0.346,0.405c0.537,0.114 0.296,-0.496 0.663,-0.088c0.368,0.408 -0.215,0.105 -0.157,0.651c0.057,0.546 0.564,0.129 0.29,0.604c-0.275,0.475 -0.167,-0.172 -0.668,0.052c-0.502,0.223 0.052,0.575 -0.486,0.461c-0.537,-0.114 0.112,-0.211 -0.256,-0.619c-0.368,-0.407 -0.531,0.227 -0.589,-0.319c-0.057,-0.545 0.235,0.042 0.51,-0.433c0.274,-0.475 -0.38,-0.435 0.122,-0.658c0.125,-0.056 0.19,-0.07 0.225,-0.056l-0,-0Zm-13.686,1.23c0.627,-0 1.135,0.515 1.135,1.15c-0,0.636 -0.508,1.151 -1.135,1.151c-0.627,-0 -1.136,-0.515 -1.136,-1.151c0,-0.635 0.509,-1.15 1.136,-1.15Zm10.678,1.082c0.106,0.041 -0.057,0.32 0.346,0.406c0.538,0.114 0.296,-0.496 0.664,-0.088c0.367,0.408 -0.215,0.105 -0.158,0.651c0.058,0.545 0.565,0.127 0.29,0.602c-0.274,0.475 -0.166,-0.17 -0.668,0.053c-0.502,0.223 0.052,0.574 -0.485,0.46c-0.538,-0.114 0.111,-0.209 -0.256,-0.617c-0.368,-0.408 -0.531,0.227 -0.589,-0.319c-0.057,-0.546 0.235,0.042 0.509,-0.433c0.275,-0.476 -0.38,-0.436 0.122,-0.659c0.126,-0.056 0.19,-0.069 0.225,-0.056Zm-13.994,0.654c0.618,0 1.118,0.509 1.118,1.136c0,0.627 -0.5,1.135 -1.118,1.135c-0.619,-0 -1.12,-0.508 -1.12,-1.135c0,-0.627 0.501,-1.136 1.12,-1.136Zm-49.501,1.026l2.783,2.586l-2.879,2.931l-1.055,-1.026l1.604,-1.699l-1.086,-1.481l0.633,-1.311Zm60.436,0.373c0.106,0.041 -0.057,0.32 0.346,0.406c0.538,0.114 0.296,-0.496 0.664,-0.088c0.367,0.407 -0.215,0.105 -0.158,0.651c0.058,0.545 0.565,0.127 0.29,0.602c-0.274,0.475 -0.166,-0.171 -0.668,0.052c-0.502,0.223 0.052,0.575 -0.485,0.461c-0.538,-0.114 0.111,-0.211 -0.256,-0.618c-0.368,-0.408 -0.532,0.228 -0.589,-0.318c-0.057,-0.546 0.236,0.04 0.511,-0.435c0.274,-0.475 -0.382,-0.434 0.12,-0.657c0.126,-0.056 0.19,-0.069 0.225,-0.056l0,0Zm-3.262,1.905c0.105,0.04 -0.057,0.32 0.346,0.405c0.537,0.115 0.296,-0.495 0.664,-0.088c0.367,0.408 -0.214,0.106 -0.156,0.651c0.057,0.546 0.563,0.128 0.288,0.603c-0.275,0.475 -0.166,-0.172 -0.668,0.051c-0.502,0.223 0.052,0.576 -0.485,0.462c-0.538,-0.114 0.113,-0.211 -0.255,-0.619c-0.368,-0.408 -0.533,0.228 -0.59,-0.317c-0.057,-0.546 0.236,0.04 0.51,-0.435c0.275,-0.476 -0.381,-0.434 0.121,-0.657c0.126,-0.056 0.19,-0.07 0.225,-0.056l0,-0Zm-3.49,1.915c0.105,0.04 -0.057,0.321 0.346,0.407c0.537,0.114 0.296,-0.496 0.663,-0.088c0.368,0.407 -0.214,0.103 -0.157,0.649c0.057,0.546 0.565,0.129 0.29,0.604c-0.275,0.475 -0.166,-0.172 -0.668,0.052c-0.502,0.223 0.052,0.575 -0.486,0.461c-0.537,-0.114 0.113,-0.211 -0.254,-0.619c-0.368,-0.407 -0.533,0.227 -0.59,-0.319c-0.058,-0.545 0.236,0.042 0.51,-0.433c0.275,-0.475 -0.381,-0.435 0.121,-0.658c0.125,-0.056 0.19,-0.07 0.225,-0.056l0,-0Zm-57.503,3.003l1.042,0.867l-1.426,1.742l-1.089,-0.016l1.473,-2.593Zm-17.455,4.813c-3.174,1.592 -4.682,2.601 -6.895,4.553l-3.171,-4.401l10.066,-0.152Zm-21.593,0.152l8.452,-0l-2.812,4.03c-1.854,-1.98 -3.732,-3.204 -5.64,-4.03Zm10.066,0.318c0.916,0.296 3.313,3.759 4.441,5.649c2.403,-1.937 4.756,-4.104 7.323,-5.268c-3.053,3.268 -5.732,6.649 -7.638,9.918c-0.541,-1.474 -2.046,-5.694 -3.95,-7.527c-3.004,2.843 -4.192,6.275 -4.192,6.275c-1.616,-2.791 -3.561,-5.588 -5.812,-8.203c-0.373,-0.51 2.74,1.45 5.821,4.489c0.867,-2.215 3.189,-5.245 4.007,-5.333Zm-10.15,2.177c1.451,1.168 5.398,6.302 5.852,9.389l-1.891,0.12c-1.005,-3.17 -2.694,-6.339 -3.961,-9.509Zm21.016,0.526c-1.429,2.971 -3.202,6.006 -4.474,9.295l-1.868,-0.083c2.046,-4.531 2.79,-5.36 6.342,-9.212Zm-10.709,1.321c0.018,0 0.035,-0 0.046,0.012c1.775,2.455 2.612,4.842 3.14,7.747l-1.373,-0.053c0,0 -0.957,-2.917 -1.614,-3.947c-0.425,-0.629 -0.765,-0.548 -1.065,-0.026c-0.678,1.232 -0.932,2.467 -1.313,3.809l-1.579,-0.116c-0.292,-2.202 3.204,-7.369 3.758,-7.426l0,0Zm-0.25,8.463c0.642,0.009 1.314,0.714 1.308,1.953c0.05,0.581 -0.396,1.868 -0.878,1.934c-0.896,0.481 -1.954,-1.014 -1.688,-2.262c0.227,-1.063 0.691,-1.632 1.258,-1.625Zm3.144,0.218c1.382,0.196 1.034,3.363 0.32,3.828c-1.111,0.596 -1.957,-0.4 -1.582,-1.889c0.302,-1.198 0.752,-1.911 1.262,-1.939Zm-6.253,0.017c1.269,0.114 1.542,2.997 1.029,3.587c-0.591,0.594 -2.153,0.173 -2.3,-0.855c-0.51,-1.308 0.419,-2.719 1.271,-2.732Zm9.448,0.507c1.582,0.179 0.668,2.968 -0.023,3.536c-1.004,0.793 -1.973,-0.393 -1.491,-1.809c0.373,-1.098 0.993,-1.735 1.514,-1.727l-0,0Zm-12.772,0.087c1.151,0.186 1.818,2.827 1.133,3.581c-0.357,0.433 -1.399,-0.199 -1.875,-0.923c-0.57,-0.869 -0.035,-2.662 0.742,-2.658Zm6.571,4.076c2.399,0.048 5.434,0.364 5.682,1.674c0.136,1.387 -0.895,1.386 -3.867,0.71c-1.502,-0.341 -4.163,-0.125 -5.523,0.125c-2.288,0.421 -2.611,0.259 -2.607,-0.685c0.008,-1.095 1.288,-1.717 4.257,-1.81c0.531,-0.017 1.259,-0.03 2.058,-0.014l0,0Zm10.305,0.86c-3.54,0.338 -4.482,4.836 -4.092,6.497c0.311,2.777 0.178,5.685 -0.349,7.596c-0.378,1.373 -0.714,2.834 -1.323,4.078c-0.931,1.879 -0.691,3.274 0.69,4.024c1.134,0.615 2.53,0.404 3.405,-0.549c1.582,-1.722 1.771,-5.38 0.802,-13.677c-0.342,-2.927 -0.159,-3.51 1.242,-3.346c2.94,-0.023 2.824,-4.618 -0.375,-4.623Zm0.057,0.554c3.078,-0.094 2.149,4.338 -0.484,3.226c-0.792,-0.31 -1.328,0.419 -1.223,2.235c0.027,0.806 0.167,1.712 0.268,2.433c1.145,7.961 0.716,13.293 -1.695,13.556c-2.099,0.341 -3.52,-1.225 -2.496,-2.845c0.58,-0.918 1.08,-1.042 2.209,-0.56c1.551,0.975 1.162,-0.446 -0.234,-1.493c-0.896,-0.643 -0.963,-0.643 -0.483,-2.652c0.649,-2.709 0.866,-4.642 0.629,-8.07c-0.335,-2.424 0.465,-5.641 3.509,-5.83Zm-20.225,7.221c-1.457,-0.07 -2.896,0.689 -3.45,1.933c-0.887,1.99 -0.06,3.811 1.461,4.555c1.002,0.491 1.976,0.408 2.93,0.009c0.371,-1.692 0.395,-3.1 1.518,-5.402c-0.702,-0.712 -1.584,-1.053 -2.459,-1.095l0,0Zm-0.51,0.466c0.449,-0.019 0.956,0.025 1.521,0.147c1.133,0.245 0.963,1.453 -0.104,1.06c-2.545,-1.215 -4.619,2.44 -2.565,3.816c1.048,0.594 1.51,0.254 0.471,-0.563c-0.426,-0.496 -0.318,-0.699 -0.06,-1.197c0.533,-1.005 2.471,-0.843 2.335,-0.113c-0.442,2.315 -0.734,2.985 -1.42,2.99c-3.582,0.187 -4.528,-5.955 -0.18,-6.14l0.002,0Zm35.094,4.312c0,-0 -11.773,13.495 -17.443,20.406l71.074,-0.335l-13.524,-18.916c-11.602,2.715 -25.235,1.931 -40.107,-1.155Zm-0.351,4.312c1.775,0.019 3.794,1.326 5.54,5.682c0.094,0.042 7.816,-11.888 14.502,0.463c1.091,-2.772 7.388,-10.004 14.667,-0.723c2.586,-6.211 8.549,-4.109 9.108,-1.943c-0.125,-0.466 -5.681,-1.803 -8.087,2.313c-0.445,0.873 -0.468,1.699 0.043,2.189c1.201,1.155 -0.107,2.811 -1.476,1.869c-0.534,-0.367 -0.601,-1.138 -0.192,-1.693c1.208,-0.913 -1.267,-3.754 -3.302,-4.776c-2.793,-1.403 -6.688,-0.783 -8.561,1.23c-1.007,1.082 -1.623,2.053 -1.77,2.83c-0.078,0.361 -0.031,0.55 0.181,0.791c0.812,0.994 0.277,2.355 -0.823,2.19c-1.439,-0.217 -1.248,-1.583 -0.285,-2.328c0.295,-0.147 0.184,-0.323 0.095,-0.578c-2.628,-7.505 -12.428,-6.076 -13.486,-0.879c-0.039,0.189 -0.124,0.388 -0.081,0.582c0.109,0.498 0.397,0.916 0.287,1.307c-0.45,1.596 -2.42,1.138 -2.509,-0.184c-0.04,-0.601 0.6,-0.782 0.914,-1.331c0.187,-0.344 0.274,-0.766 0.094,-1.148c-2.656,-5.64 -7.215,-4.459 -9.476,-3.184c-0.048,0.027 2.022,-2.708 4.617,-2.679l-0,-0Zm-2.946,3.268l0,0.001c0.971,-0.035 1.855,0.448 2.681,1.418c2.783,-1.491 4.761,1.092 4.432,1.342c-3.941,-2.593 -5.219,3.449 -1.336,3.22c-1.708,3.578 4.388,5.111 3.703,0.538c3.761,1.331 4.381,-3.904 0.571,-3.825c1.231,-2.161 4.427,-1.567 5.778,-0.214c1.59,-1.967 5.491,-0.091 5.879,1.59c-4.376,-2.272 -4.818,4.675 -0.58,3.197c-1.255,4.421 5.484,3.792 3.621,-0.019c4.197,1.398 3.625,-4.961 -0.499,-3.671c-0.25,-0.33 3.261,-4.005 5.814,-0.551c0.345,-0.609 4.33,-2.602 6.511,0.527c-4.725,-1.62 -3.831,4.828 -0.446,3.546c-0.905,4.272 5.204,3.579 3.643,-0.062c4.734,1.214 2.638,-6.098 -0.688,-3.399c0.542,-2.938 4.521,-1.719 4.477,-1.266c0,-0 2.114,-2.316 4.479,-0.622c-3.696,0.315 -2.439,5.368 1.054,3.93c-0.038,1.715 1.368,2.852 3.271,2.27l2.987,4.234l-68.133,0.435l5.443,-6.576c1.821,1.525 3.708,0.803 3.941,-1.589c3.962,2.463 4.99,-3.388 1.272,-3.641c0.756,-0.522 1.461,-0.789 2.125,-0.813l0,-0Zm-3.808,1.901c0.236,0.169 -0.083,0.983 -0.605,0.747l0.605,-0.747Zm53.124,1.699c0.202,0.294 0.347,0.483 0.549,0.778c0.097,0.262 -1.063,-0.139 -0.549,-0.778Z" style="fill-rule:nonzero;"/><path id="path163-0-2-5-8-7-5-6-5-5" d="M47.878,64.556c0,-0 -3.733,-6.124 -8.769,-13.325c-3.368,-4.819 -6.062,-10.036 -6.312,-14.531c-0.287,-5.133 2.431,-10.284 7.353,-10.534c4.919,-0.249 6.915,3.959 7.728,7.428c0.813,-3.469 2.809,-7.677 7.728,-7.428c4.922,0.25 7.641,5.401 7.353,10.534c-0.25,4.495 -2.943,9.712 -6.312,14.531c-5.036,7.2 -8.769,13.325 -8.769,13.325Z" style="fill:#3f3f3f;fill-rule:nonzero;"/><path id="path163-0-2-5-8-7-7-8-9-1-8" d="M130.704,184.893c0,-0 -3.733,6.124 -8.768,13.325c-3.369,4.818 -6.062,10.036 -6.313,14.53c-0.287,5.134 2.432,10.285 7.353,10.534c4.919,0.25 6.916,-3.958 7.728,-7.427c0.813,3.469 2.81,7.677 7.729,7.427c4.921,-0.249 7.64,-5.4 7.353,-10.534c-0.251,-4.494 -2.944,-9.712 -6.313,-14.53c-5.035,-7.201 -8.769,-13.325 -8.769,-13.325Z" style="fill:#3f3f3f;fill-rule:nonzero;"/></g></svg>