<?xml version="1.0" encoding="UTF-8" standalone="no"?><!DOCTYPE svg PUBLIC "-//W3C//DTD SVG 1.1//EN" "http://www.w3.org/Graphics/SVG/1.1/DTD/svg11.dtd"><svg width="100%" height="100%" viewBox="0 0 179 250" version="1.1" xmlns="http://www.w3.org/2000/svg" xmlns:xlink="http://www.w3.org/1999/xlink" xml:space="preserve" xmlns:serif="http://www.serif.com/" style="fill-rule:evenodd;clip-rule:evenodd;stroke-linejoin:round;stroke-miterlimit:2;"><g id="g6583"><path id="rect7467-2-2" d="M178.583,7.972c-0,-4.4 -3.573,-7.972 -7.973,-7.972l-162.638,-0c-4.4,-0 -7.972,3.572 -7.972,7.972l0,233.504c0,4.4 3.572,7.973 7.972,7.973l162.638,-0c4.4,-0 7.973,-3.573 7.973,-7.973l-0,-233.504Z" style="fill:#fff;"/><path id="path7499-2-5" d="M13.774,39.979c-3.449,4.385 -7.138,6.909 -7.2,10.331c-0.021,1.108 0.651,2.991 2.755,3.351c1.366,0.233 3.245,-0.752 3.284,-2.754c-0.008,-0.398 0.473,-0.388 0.469,0.158c-0.064,1.579 -0.625,3.417 -1.567,4.914l4.518,-0c-0.942,-1.497 -1.503,-3.335 -1.567,-4.914c-0.008,-0.546 0.475,-0.556 0.469,-0.158c0.039,2.002 1.918,2.987 3.283,2.754c2.104,-0.36 2.776,-2.243 2.755,-3.351c-0.062,-3.422 -3.751,-5.946 -7.199,-10.331Z" style="fill-rule:nonzero;"/><path id="path7503-7-0" d="M164.81,209.47c-3.449,-4.385 -7.139,-6.909 -7.2,-10.331c-0.021,-1.108 0.651,-2.991 2.755,-3.351c1.365,-0.233 3.244,0.752 3.284,2.754c-0.008,0.398 0.473,0.388 0.468,-0.158c-0.064,-1.579 -0.624,-3.417 -1.566,-4.914l4.517,0c-0.942,1.497 -1.502,3.335 -1.566,4.914c-0.008,0.546 0.474,0.556 0.468,0.158c0.04,-2.002 1.919,-2.987 3.284,-2.754c2.104,0.36 2.776,2.243 2.755,3.351c-0.062,3.422 -3.751,5.946 -7.199,10.331Z" style="fill-rule:nonzero;"/><path id="path39-5-1-0" d="M14.411,34.562l2.655,0l-3.901,-9.748l-2.981,4.118l0.021,5.63l2.093,0l0,2.904l-7.377,-0l0,-2.904l2.431,0l-0,-20.963l-2.431,0.009l0,-2.538l7.485,0l0,2.624l-2.065,0l-0.044,10.217l6.533,-10.303l-2.306,0l0,-2.538l7.963,0l0,2.538l-2.101,0l-5.379,8.42l5.267,12.539l2.338,-0l0.012,2.903l-8.189,0l-0.024,-2.908l-0,0Z" style="fill-rule:nonzero;"/><path id="path39-5-7-0-0" d="M164.17,214.887l-2.656,-0l3.902,9.748l2.981,-4.118l-0.021,-5.63l-2.094,-0l0,-2.904l7.377,0l0,2.904l-2.43,-0l-0,20.963l2.43,-0.009l0,2.538l-7.484,-0l-0,-2.624l2.065,-0l0.044,-10.218l-6.533,10.304l2.306,-0l-0,2.538l-7.963,-0l-0,-2.538l2.101,-0l5.379,-8.42l-5.267,-12.539l-2.338,0l-0.012,-2.903l8.189,-0l0.024,2.908l0,-0Z" style="fill-rule:nonzero;"/><path id="path4096-2-4-0" d="M23.691,19.124l131.2,0l0,211.2l-131.2,0l0,-211.2Zm93.123,209.855c-4.879,-8.885 -12.591,-23.359 -12.819,-23.474c-2.852,1.526 -31.927,5.435 -45.911,1.649c-4.783,7.217 -9.479,14.365 -13.644,21.519l72.374,0.306Zm-44.654,-26.576c-0.731,0.028 -1.547,0.465 -1.396,0.075c0.087,-0.225 0.293,-2.504 0.383,-3.319c0.219,-0.362 0.527,0.588 0.492,1.471c-0.02,0.506 0.222,0.144 1.878,0.232c1.791,0.094 3.258,0.431 3.866,0.563c2.118,0.46 6.216,0.13 7.972,-1.153c0.95,-0.694 1.31,0.056 0.33,0.801c-4.425,3.365 -7.934,2.082 -11.778,1.518c-0.765,-0.162 -1.053,-0.214 -1.747,-0.188Zm1.882,-3.192c-0.275,-0.18 -0.456,-0.199 -0.808,-0.034c-1.358,0.636 -1.003,-0.276 -0.025,-1.195c0.447,-0.42 0.434,-0.634 0.095,-1.075c-0.172,-0.223 -0.459,-0.251 -0.391,-0.586c0.294,-1.442 2.312,-3.623 4.567,-4.598c0.938,-0.405 1.087,0.038 -0.099,0.738c-1.825,1.075 -2.415,1.993 -1.383,1.62c2.001,-0.724 3.826,-0.213 6.386,1.068c0.731,0.366 1.066,0.438 1.688,0.371c0.46,-0.383 0.872,0.078 1.157,0.318c0.179,0.144 0.217,0.214 0.421,0.166c1.457,-0.344 0.584,0.588 -1.407,2.045c-3.566,2.529 -7.456,3.721 -10.201,1.162l-0,-0Zm5.487,0.621c1.457,-0.44 3.235,-1.36 4.325,-2.32c1.325,-1.167 0.575,-0.99 -0.947,-0.254c-2.204,1.064 -3.747,1.372 -6.226,1.315c-2.075,-0.048 -2.01,-0.132 -2.085,0.127c-0.266,0.91 2.59,1.84 4.933,1.132Zm-4.027,-3.555c0.119,-0.392 0.209,-0.914 0.103,-1.084c-0.191,-0.308 -0.604,-0.08 -1.129,0.584c-0.325,0.412 -0.28,0.468 0.038,0.792c0.16,0.109 0.283,0.19 0.379,0.246c0.443,0.189 0.514,-0.223 0.61,-0.538l-0.001,0Zm0.908,0.538c0.638,-2.178 2.066,-2.136 3.086,-0.052l0.719,0.004c-1.478,-4.055 -4.34,-2.001 -4.435,0.016c0.337,0.112 0.63,0.032 0.63,0.032Zm5.337,-0.367c0.675,-0.377 0.576,-0.634 -0.284,-1.078c-0.61,-0.316 -0.933,-0.38 -1.044,-0.176c0.008,0.449 0.026,1.092 0.285,1.449c0.269,0.164 0.64,0.002 1.043,-0.195Zm-9.455,-6.203c-0.124,-0.205 -0.102,-0.579 0.367,-0.797c2.894,-1.343 0.785,-4.177 -1.448,-2.052c-0.709,0.583 -1.762,0.854 -2.576,0.507c-0.765,-0.334 -0.78,-1.272 0.237,-1.472c0.333,-0.066 1.189,-0.248 1.505,-0.468c3.884,-2.083 5.946,2.446 3.191,3.953c-0.567,0.332 -1.167,0.517 -1.276,0.329Zm-10.879,-4.113c-1.576,-0.716 -1.792,-3.201 -0.315,-4.169c0.94,-0.644 1.901,-0.82 4.491,0.465c1.829,0.907 2.876,-0.07 2.829,0.986c-0.029,0.641 -0.067,1.289 -1.13,1.443c-1.729,0.252 -2.909,-2.099 -5.129,-1.877c-1.602,0.16 -1.399,2.08 -0.242,2.47c1.543,0.52 0.608,1.137 -0.504,0.682Zm28.857,0.373c-0.213,-0 -0.296,-0.566 -0.179,-0.849c0.777,-1.876 1.513,-3.36 2.227,-5.114c0.569,-1.398 0.952,-1.999 1.207,-1.997c0.261,0.002 0.382,0.206 -0.055,1.067c-0.593,1.558 -2.668,5.956 -3.006,6.766c-0.052,0.125 -0.117,0.127 -0.194,0.127Zm-12.818,-0.497c-0.697,-0.498 -0.58,-1.236 0.214,-0.677c1.019,0.719 2.69,-0.596 2.35,-1.837c-0.412,-1.499 -2.4,-1.862 -4.064,-0.519c-2.625,2.118 -5.505,2.225 -5.505,0.57c0.008,-0.474 -0.061,-0.581 1.031,-0.655c1.27,-0.086 2.703,-0.669 3.415,-1.104c3.193,-1.95 6.59,-0.604 5.887,2.651c-0.318,1.535 -2.195,2.278 -3.328,1.571Zm-11.709,-4.803c-0.259,-0.008 -0.733,0.253 -0.869,0.152c-0.266,-0.199 -0.227,-0.777 -0.446,-1.395c-0.388,-1.097 -0.01,-0.754 0.673,-0.458c0.927,0.359 1.806,0.29 2.588,0.018c0.807,-0.281 1.865,-0.217 3.56,0.005c1.363,0.178 2.128,0.126 3.365,-0.228c1.343,-0.422 0.987,-0.27 0.763,0.56c-0.145,0.544 -0.329,1.275 -0.5,1.45c-0.928,-0.521 -1.632,-0.319 -2.242,0.035c-1.003,0.443 -1.713,0.519 -2.534,0.273c-0.772,-0.441 -1.23,-0.405 -1.851,-0.024c-1.068,0.519 -1.542,-0.339 -2.507,-0.389l-0,0.001Zm20.019,-2.282c0.189,-0.331 0.462,-0.787 0.719,-1.298c2.074,-4.13 2.215,-5.279 0.751,-6.67c-1.967,-1.87 -3.644,-1.059 -5.529,2.675c-0.457,0.906 -0.731,1.587 -0.916,1.867c-0.213,0.322 -0.462,0.074 -0.585,-0.052c-0.232,-0.237 1.86,-4.201 2.68,-5.066c2.146,-2.264 6.133,-0.453 5.879,2.627c-0.128,1.551 -0.422,2.401 -1.837,5.245c-0.35,0.704 -0.654,1.301 -0.839,1.588c-0.664,0.446 -0.512,-0.577 -0.323,-0.916l0,0Zm-19.55,-0.164c0.327,-1.471 5.031,-2.152 6.27,-0.223c0.121,0.189 0.05,0.181 -0.482,0.035c-2.391,-0.793 -2.865,-0.749 -5.157,0.159c-0.344,0.133 -0.589,0.188 -0.631,0.029l-0,0Zm17.946,-0.279c-0,-0.138 0.174,-0.682 0.44,-1.208c1.568,-3.108 2.001,-3.857 1.522,-4.438c-0.932,-1.133 -2.183,-0.149 -3.334,3.096c-0.43,1.213 -0.723,0.954 -0.933,0.763c-0.401,-0.367 1.377,-4.142 2.235,-4.705c1.944,-1.24 3.474,0.195 2.615,2.731c-0.67,1.145 -1.224,2.906 -1.85,3.832c-0.297,0.416 -0.698,0.293 -0.695,-0.071l-0,-0Zm-7.033,-5.047c-0.095,-0.157 0.089,-0.368 0.762,-1.815c0.926,-1.989 1.213,-2.727 0.837,-3.863c-0.67,-2.024 -3.198,-2.52 -4.734,-1.192c-0.502,0.429 -0.843,1.022 -1.08,1.555c-0.555,1.234 -1.017,2.829 -1.346,3.164c-0.288,0.291 -0.689,0.35 -0.663,-0.157c0.365,-1.074 0.538,-1.907 1.401,-3.481c2.152,-4.688 8.354,-2.518 6.902,2.417c-0.54,1.792 -1.16,3.149 -1.528,3.589c-0.204,0.245 -0.543,0.032 -0.551,-0.217Zm-1.44,-0.862c0,-0.154 0.234,-0.593 0.481,-1.206c1.049,-2.601 1.056,-3.399 -0.473,-3.432c-0.915,0.118 -1.05,0.494 -1.853,2.546c-0.261,0.667 -0.405,1.141 -0.56,1.345c-0.166,0.218 -0.478,0.089 -0.606,-0.042c-0.328,-0.335 1.103,-3.701 1.86,-4.336c1.74,-1.518 3.994,0.638 2.939,2.574c-0.495,1.353 -0.922,2.271 -1.212,2.69c-0.257,0.37 -0.579,0.318 -0.576,-0.139l0,0Zm-37.04,-30.33l-5.285,-0.364c0.937,5.672 0.984,11.916 0.038,16.344c-0.809,3.786 -0.818,6.574 -0.576,9.857c0.28,3.819 1.892,7.057 2.297,11.11c0.294,2.938 -0.354,6.003 -0.932,8.923c-0.967,4.88 -0.768,5.39 -0.625,11.116c0.132,5.31 -0.362,5.119 -0.665,4.809c-0.046,-0.047 -0.089,-0.986 -0.082,-2.102c0.008,-1.117 -0.062,-3.848 -0.125,-5.744c-0.127,-3.787 0.293,-7.133 0.597,-8.511c0.619,-2.803 1.314,-5.675 0.886,-8.777c-0.87,-3.916 -2.097,-7.826 -2.527,-11.601c-0.53,-4.654 0.774,-9.323 1.205,-12.703c0.416,-3.263 -0.025,-8.909 -0.877,-11.259c-0.147,-0.781 -0.842,-1.8 -0.842,-1.8c-0.827,-0.103 -1.966,-0.163 -2.715,-0.221c-0.062,22.412 -0,44.832 0.017,67.247l4.928,4.592l5.064,-4.835l0.219,-66.081Zm0.356,25.709c0,0 7.52,4.348 15.811,8.621c-0.789,-4.889 1.715,-5.626 4.066,-6.193c-0.563,-9.445 8.052,-7.508 9.372,0.699l0.849,0.003c1.493,-4.092 2.969,-6.915 6.368,-7.589c2.634,-0.522 5.232,1.153 5.891,5.1c-0.116,-0.278 8.734,-5.218 8.978,5.219c4.019,-2.506 6.887,-0.341 8.047,2.841c1.697,-2.597 5.944,-2.711 7.302,-2.9c-0.074,-0.589 4.94,-1.561 7.184,-0.787c2.741,-0.359 3.88,1.858 5.24,2.479c2.855,-0.807 10.49,-3.503 9.841,-4.887c0.075,0.048 0.404,0.475 0.898,0.675c0.178,0.071 1.799,-0.904 1.799,-0.904c-10.988,-12.716 -19.98,-37.657 -14.012,-60.624c-0.852,-0.758 0.774,-0.133 0.393,-0.03c-0,0 -2.094,10.23 -1.844,14.647c24.61,11.77 21.583,36.567 15.288,44.745l0.997,1.335c0.442,0.297 19.382,-10.797 18.757,-11.253l3.584,-1.792l-0.581,-48.482l-14.174,-1.088c0,-0 0.151,-0.407 0.331,-0.513c0.129,-2.96 -0.134,-7.337 0.008,-11.002c0.055,-10.471 0.16,-14.031 0.024,-14.321c-4.371,-2.892 -10.89,-7.12 -16.376,-9.171c0.225,0.065 -0.089,4.34 -0.256,4.583c-5.133,1.646 -2.751,3.748 -4.648,6.007c-1.274,1.407 -4.257,1.675 -5.697,-0.013c-1.721,-1.673 -2.528,-5.51 -2.528,-5.51c-2.715,2.916 -2.157,6.44 -5.793,7.767c-5.845,2.912 -7.701,-5.795 -7.361,-5.593c-2.24,2.169 -8.524,3.932 -9.203,-5.226c-2.825,2.614 -5.993,1.316 -7.336,-1.899c-1.725,0.061 -3.659,1.419 -5.405,2.152c-1.62,0.721 -3.693,1.144 -5.231,1.112c-1.924,0.233 -3.509,0.225 -5.243,-0.294c-0.814,0.265 -2.651,-0.529 -3.218,-1.667c-0.867,-1.024 -1.623,-1.083 -2.447,-0.899c-2.808,1.486 -5.818,1.845 -9.133,3.4c-0.207,0.144 0.291,0.416 0.124,0.363c-0.071,-0.022 -1.741,0.824 -1.741,0.824c16.789,22.172 17.702,44.559 14.183,60.425c-0.138,0.55 -0.214,0.949 0.149,1.382c-0.532,-0.092 -0.541,0.065 -0.641,-0.278c0.352,-4.79 1.809,-6.872 1.771,-14.555c-6.024,-3.289 -12.842,-8.119 -15.761,-14.083c-6.434,-10.059 -4.311,-22.061 0.508,-31.571l-1.199,-1.25c-14.072,7.082 -22.38,14.718 -22.38,14.718l0.06,47.573l14.461,1.676l-0.076,26.028Zm-6.976,-31.768c-0.464,-0.515 -1.645,-0.605 -2.137,-0.214c-0.113,0.097 -0.356,0.601 -0.428,0.583c-0.337,-0.304 -0.682,-0.325 -1.195,-0.861l0.695,-1.056c0.55,-0.836 1.344,-1.132 2.68,-1.446c0.475,-0.111 1.191,-0.213 1.444,-0.321c1.004,-0.436 1.354,-1.38 0.337,-0.957c-0.743,0.205 -1.781,0.137 -1.919,-0.546c-0.114,-0.56 -0.589,-0.78 -1.119,-0.714c-0.98,0.236 -1.875,0.75 -2.742,1.267c-0.385,0.233 -1.114,0.761 -1.114,0.761c-0.115,0.181 -0.54,-1.141 -0.144,-1.527c0.491,0.06 0.914,0.064 1.393,-0.127c1.196,-0.479 2.347,-1.056 3.553,-1.52c0.769,-0.303 0.839,-0.277 0.637,-0.825c-0.1,-0.202 -0.188,-0.873 -0.056,-1.225c0.14,-0.373 0.125,-0.561 -0.114,-0.72c-0.543,-0.364 -1.845,-0.025 -3.676,0.858c-0.558,0.27 -0.926,0.378 -1.278,0.664c0.227,-0.582 0.095,-0.69 0.089,-1.299c0.747,0.094 1.42,-0.204 2.017,-0.52c0.492,-0.259 1.044,-0.514 2.397,-0.688c0.37,-0.047 0.202,-1.406 -0.219,-1.8c-0.398,-0.372 -1.235,-0.38 -2.247,-0.079c-0.904,0.208 -2.027,0.419 -2.649,1.394c0.597,-1.647 0.151,-1.004 1.449,-2.027c0.627,-0.013 2.01,-0.312 2.336,-0.384c0.551,-0.122 0.64,-1.423 -0.162,-1.981c-0.502,-0.44 1.824,-0.451 1.78,-0.317c-0.03,0.076 -0.052,0.632 0.126,0.774c1.002,0.303 0.993,1.126 1.081,1.473c1.151,1.898 1.718,0.707 2.51,0.054c-0.167,4.132 1.272,4.603 1.462,4.864c-1.976,3.703 -0.486,3.794 1.367,4.646c-0,-0 -0.705,0.287 -1.173,0.258c-0.737,-0.046 -2.149,0.832 -2.766,1.35c-0.34,0.285 -0.35,0.047 -1.711,0.008c-1.283,-0.038 -1.377,0.058 -1.961,0.319c-1.154,0.513 -1.148,0.998 -0.021,0.807c1.2,-0.204 2.376,0.528 2.514,1.526c0.095,0.188 0.011,0.204 -0.009,0.193c-0.25,-0.047 -0.815,0.047 -0.806,-0.073c0.008,-0.12 -0.001,-0.254 -0.222,-0.571l0.001,-0.001Zm1.752,-5.008c0.325,-0.209 0.381,-0.803 0.098,-1.044c-0.258,-0.219 -1.354,-0.102 -1.663,0.178c-0.7,0.553 0.579,1.479 1.565,0.866Zm0.701,-2.488c0.403,-0.316 0.452,-1.074 0.103,-1.515c-0.591,-0.747 -2.138,-0.3 -2.222,0.643c-0.089,1.003 1.277,1.532 2.119,0.872Zm-0.503,-3.413c0.073,-0.824 -0.739,-1.346 -1.486,-0.956c-0.931,0.487 -0.366,1.513 0.8,1.453c0.645,-0.033 0.645,-0.033 0.686,-0.497Zm-2.723,-3.344c-0.435,0.214 -0.457,0.727 -0.045,1.058c1.632,0.906 1.135,-1.519 0.045,-1.058Zm113.998,4.926c-0.717,-2.653 -2.692,-0.023 -2.695,0.014c-0.07,-2.719 0.442,-3.929 -1.586,-4.858c2.036,-3.1 1.611,-3.527 -0.548,-4.716c0.199,0.017 2.866,-0.583 3.322,-2.114c0.102,0.071 4.186,1.082 4.696,-1.158c-1.233,0.565 -3.657,0.649 -3.684,-1.76c0.229,-0.069 0.804,0.05 0.756,0.127c-0.323,1.544 2.478,1.926 2.936,0.706c-0,0 0.94,0.634 1.354,0.732c0.046,0.031 -1.274,1.87 -2.477,2.148c-2.17,0.721 -2.918,0.916 -2.921,1.349c-0.001,0.169 0.354,0.195 0.999,0.328c1.347,0.093 1.319,0.384 1.496,0.833c0.156,0.397 0.308,0.476 0.758,0.436c1.539,-0.514 2.308,-0.784 3.381,-1.862c0.13,-0.026 0.282,1.133 0.365,1.173c0.013,-0.185 -1.089,0.138 -2.781,1.132c-1.381,0.812 -1.921,0.93 -2.097,1.149c-0.13,0.163 0.206,0.675 0.241,1.232c0.03,0.467 -0.283,0.694 -0.053,0.84c0.266,0.169 0.677,0.138 1.218,-0.003c1.194,-0.289 2.073,-0.761 3.146,-1.427c-0.228,0.433 0.154,1.534 0.154,1.534c-0,-0 -0.53,-0.375 -0.966,-0.18c-0.993,0.487 -1.976,0.952 -3.211,1.21c-0.171,0.145 -0.143,0.496 -0.146,1.01c0,0.36 -0.105,0.693 0.121,0.802c1.691,0.207 2.702,-0.194 3.914,-0.953l-0.291,1.522c-0.391,-0.443 -1.513,-0.117 -2.264,0.181c-0.379,0.12 -0.493,0.359 -0.589,0.691c-0.168,0.568 0.191,0.959 0.605,1.145c0.276,0.125 0.7,0.074 0.7,0.074c-1.244,0.787 -1.26,1.037 -2.694,0.454c-0.491,-0.534 -0.972,-1.098 -1.159,-1.791l0,-0Zm2.037,0.001c-0.323,-0.375 -0.886,-0.59 -1.213,-0.442c-0.292,0.155 -0.187,0.481 -0.094,0.73c0.247,0.688 1.956,0.466 1.307,-0.288Zm-1.136,-1.897c0.456,-0.601 -0.046,-1.409 -0.888,-1.415c-0.586,-0.004 -0.899,0.363 -0.892,0.824c0.012,0.873 1.399,1.093 1.78,0.591Zm-0.936,-2.29c0.845,-0.231 1.104,-1.054 0.52,-1.651c-0.415,-0.425 -1.719,-0.478 -2.068,-0.094c-0.89,0.98 0.108,2.139 1.548,1.745Zm0.702,-3.012c0.496,-0.255 0.592,-0.68 0.154,-1.164c-0.796,-0.68 -2.185,-0.149 -1.736,0.843c0.22,0.486 0.978,0.631 1.582,0.321Zm-101.708,-22.863c0.746,-0.273 1.285,-0.855 2.071,-1.302c0.529,-0.291 0.37,-0.244 -0.308,-0.643c-0.533,-0.246 -1.602,-1.334 -1.702,-1.074c-0.242,0.463 -0.208,2.998 -0.061,3.019Zm18.947,24.676c0.101,-1.089 -0.094,-0.771 -0.68,-0.415c-0.434,0.281 -1.13,0.709 -1.403,0.846c-1.076,0.539 -0.947,0.567 0.567,1.3c1.018,0.458 1.313,0.513 1.401,0.323c0.106,-0.676 0.099,-1.413 0.115,-2.054Zm-1.555,-0.681c1.028,-0.651 1.37,-0.987 1.42,-1.718c0.008,-0.84 -0.093,-1.146 -0.826,-0.564c-2.503,1.986 -5.079,-1.911 -2.788,-4.075c0.467,-0.442 1.061,-1.133 1.066,-1.308c0.038,-1.256 -1.369,-0.036 -2.518,1.688c-1.272,1.567 -2.065,3.529 -0.948,5.412c0.892,1.378 2.88,1.651 4.594,0.565Zm-5.686,-2.536c-0.045,-0.614 0.127,-1.301 0.207,-1.505c0.281,-0.719 0.269,-0.809 -1.006,-0.21c-0.509,0.169 -1.116,0.305 -1.349,0.304c-1.042,-0.007 -0.782,0.322 0.711,1.573c1.5,1.257 1.55,1.371 1.437,-0.162Zm3.547,-6.019c0.159,-0.378 -0.171,-0.524 -0.488,-0.452c-0.025,0.005 -0.571,0.415 -1.212,0.922c-1.945,1.539 -3.372,1.719 -4.337,0.546c-0.978,-1.188 -0.569,-2.598 1.618,-4.212c0.964,-0.712 1.196,-0.76 0.732,-1.071c-0.353,-0.237 -0.374,-0.201 -1.761,0.742c-2.795,1.902 -3.631,3.2 -3.351,5.092c0.057,0.777 0.462,1.184 0.854,1.486c2.665,2.373 6.361,-0.898 7.945,-3.053Zm2.821,1.123l-0.168,-2.618c-5.843,-5.168 -8.11,-12.062 -6.518,-19.224l-1.535,-2.922c-1.336,3.101 -1.92,7.829 -0.466,12.647c1.234,4.09 3.704,9.043 8.687,12.117l-0,-0Zm-11.968,-1.525c0.903,-1.742 0.931,-1.554 -0.813,-1.569c-1.99,-0.017 -1.768,-0.261 -0.646,1.447c0.901,1.372 0.749,1.492 1.459,0.122Zm1.196,-2.387c1.147,-0.37 0.885,-0.285 2.407,-1.28c1.746,-1.141 1.819,-1.765 0.066,-0.886c-2.252,1.13 -4.229,0.841 -4.963,-0.633c-0.654,-1.314 0.711,-2.951 2.959,-3.592c0.768,-0.219 1.173,-0.404 1.175,-0.742c0.008,-1.03 -3.82,0.344 -5.396,1.9c-3.044,3.002 -0.381,6.565 3.752,5.233l0,-0Zm-4.92,-4.676c0.103,-0.156 0.376,-0.532 0.628,-0.921c1.078,-1.258 0.172,-0.882 -0.785,-1.226c-0.505,-0.188 -1.023,-0.374 -1.32,-0.329c-0.573,0.087 0.193,1.198 0.377,1.915c0.515,1.597 0.456,1.548 1.1,0.561Zm4.074,-2.877c1.929,-0.19 2.126,-0.377 2.128,-0.779c0,-0.398 -0.236,-0.322 -1.204,-0.187c-2.565,0.358 -4.263,-0.298 -4.629,-1.671c-0.379,-1.418 1.358,-2.761 3.673,-2.681c1.254,0.042 2.089,-0.393 1.325,-0.812c-0.398,-0.218 -3.851,-0.171 -4.631,0.058c-2.295,0.671 -3.23,1.953 -3.021,3.729c0.318,2.191 1.509,2.82 4.413,2.664c0.557,-0.03 1.266,-0.254 1.946,-0.321Zm1.492,-7.14c0,-0.342 -0.548,-0.392 -2.369,-0.663c-2.424,-0.362 -3.508,-2.616 -2.046,-3.973c0.554,-0.514 1.874,-0.735 2.61,-0.6c1.598,0.293 2.576,0.623 2.591,0.078c-0,-0.486 -0.461,-0.521 -3.462,-1.158c-4.533,-0.963 -7.022,3.508 -3.397,5.695c1.377,0.831 6.069,1.303 6.073,0.621l0,-0Zm1.125,-6.398c-0,-0.171 -0.147,-0.303 -0.49,-0.438c-2.122,-0.579 -5.055,-3.424 -2.912,-5.085c0.97,-1.028 -0.774,-2.241 -2.164,-1.081c-1.444,1.205 -1.323,3.097 0.34,4.595c1.531,1.38 5.221,2.814 5.226,2.009Zm-7.346,-0.267c1.576,-0.743 2.707,-0.315 1.502,-1.34c-0.677,-0.631 -1.255,-2.422 -1.726,-0.903c-0.36,0.906 -0.624,2.504 -0.634,2.661c0.106,0.108 0.082,-0.077 0.858,-0.418Zm53.172,-8.411c0.259,-1.137 1.324,-3.817 1.533,-3.984c0.792,-0.631 0.683,0.209 -0.043,1.667c-0.663,1.489 -1.18,2.686 -0.975,3.572c0.292,1.261 0.8,2.223 2.105,2.543c0.917,0.225 1.781,-0.159 2.367,-0.575c0.775,-0.549 1.507,-1.959 2.382,-3.91c0.279,-0.549 0.655,-2.235 1.121,-1.206c0.225,0.532 -1.643,4.073 -2.341,4.971c-3.058,3.743 -7.102,0.12 -6.149,-3.078Zm13.384,3.371c0.875,0.841 2.352,1.264 3.317,0.963c2.367,-0.838 3.443,-3.085 2.547,-6.697c-0.454,-2.025 -0.842,-3.284 -1.235,-3.535c-0.19,-0.122 -0.399,0.105 -0.584,0.387c-0.166,0.252 0.087,0.605 0.356,1.558c1.131,4.014 0.835,5.829 -0.546,6.596c-2.002,1.113 -3.719,-0.169 -4.3,-3.032c-0.093,-0.443 -0.367,-1.345 -0.367,-1.345c-0.154,-0.399 -1.394,-0.31 -0.943,1.023c0.135,1.031 1.081,3.491 1.755,4.082Zm10.155,-10.513c-0.031,-1.413 -2.988,-7.54 -3.189,-6.89c0,0 -0.013,1.432 0.103,1.996c0.044,0.212 0.197,0.409 0.324,0.636c2.569,4.603 2.172,7.846 -0.056,8.557c-0.759,0.346 -0.924,0.686 -0.584,1.043c0.686,0.75 2.408,-0.733 2.743,-1.271c0.843,-1.208 0.726,-3.412 0.659,-4.071l0,-0Zm-43.024,-1.042c4.527,-5.859 8.012,-19.233 8.607,-27.697c-0.158,-0.171 -1.157,-0.081 -1.492,0.091c-0.161,0.21 -0.053,0.676 -0.111,1.283c-0.901,6.998 -2.565,13.372 -5.032,19.861c-1.08,2.819 -2.082,4.675 -3.382,6.635c-0.227,0.342 -0.516,0.695 -0.629,0.894c-0.329,0.476 -0.087,0.788 0.294,0.586c0.676,-0.384 1.259,-1.122 1.745,-1.653Zm-3.302,1.702c5,-7.494 7.752,-15.579 9.632,-29.068c-0.417,-0.113 -1.196,-0.043 -1.466,0.167c-0.165,0.251 -0.055,0.754 -0.207,1.916c-0.396,3.006 -0.987,6.024 -1.986,9.975c-2.636,8.746 -5.059,13.642 -8.241,17.926c-0.258,0.36 -0.487,0.594 -0.464,0.747c0.034,0.224 0.343,0.206 0.849,-0.112c0.661,-0.522 1.416,-0.977 1.883,-1.551l0,0Zm-4.705,2.27c1.51,-0.862 4.171,-4.612 6.051,-8.651c2.109,-4.769 3.874,-10.155 5.03,-14.82c0.501,-2.044 1.215,-7.149 1.113,-7.485c-0.096,-0.248 -1.579,0.047 -1.393,0.209c-0,-0 -1.467,8.206 -3.046,12.729c-2.931,8.398 -5.466,14.095 -8.193,16.834c-0.358,0.359 -1.062,1.062 -1.062,1.062c-0,-0 0.014,0.313 0.242,0.361c0.544,0.101 0.907,-0.058 1.258,-0.239Zm-2.313,-0.335c3.409,-1.918 7.403,-10.876 10.663,-22.124c0.558,-1.925 1.577,-8.368 1.577,-8.368c-0,0 -1.359,0.051 -1.621,0.338c-0.263,0.39 -0.221,1.381 -0.602,3.735c-1.466,7.115 -3.677,13.605 -7,20.019c-1.438,2.842 -3.826,5.519 -5.333,6.281c-0.843,0.426 -1.09,0.896 -0.473,0.93c1.04,0.037 1.132,0.256 1.887,-0.152l0.902,-0.659Zm46.723,100.188c-2.557,-0.01 -4.729,2.459 -6.664,5.562c-4.116,6.357 -6.883,16.981 -7.556,22.626l1.553,-0.295c-0.233,0.108 2.903,-15.027 7.68,-21.508c2.583,-4.089 2.474,-4.151 3.924,-4.526c1.833,-0.474 3.304,1.522 2.394,2.725c-0.329,0.407 -0.69,0.108 -0.588,-0.472c0.325,-1.851 -2.359,-2.207 -3.108,-0.388c-0.862,2.091 1.43,3.957 3.671,3.135c2.001,-0.712 2.84,-3.529 1.434,-5.609c-0.722,-0.704 -1.767,-1.329 -2.74,-1.25Zm-13.461,-0.26c-3.062,3.87 -4.578,7.847 -6.458,13.276c-1.879,5.424 -3.228,10.73 -3.813,16.819l1.652,-0.214c-0.061,-3.915 4.201,-22.551 10.19,-29.532c0.334,-0.442 0.603,-0.809 0.578,-0.912c-0.333,-0.942 -1.752,0.193 -2.149,0.563Zm6.765,-1.445c-3.968,3.273 -7.138,10.422 -9.229,17.031c-2.26,7.143 -3.273,13.69 -3.104,13.69l1.577,-0.234c-0.117,-0.415 4.43,-25.586 12.867,-30.169c0.732,-0.367 0.886,-0.737 0.269,-0.898c-0.95,-0.134 -1.714,0.18 -2.38,0.58Zm4.443,0.017c-8.665,1.148 -14.328,27.906 -14.517,30.127c0,0.035 -0.031,0.207 -0.031,0.207l1.725,-0.358c0,0 0.015,-0.085 0.023,-0.128c1.188,-6.836 2.345,-11.629 5.046,-17.809c2.105,-4.579 5.009,-10.434 9.348,-11.002c0.353,-0.046 0.687,0.096 0.564,-0.317c-0.265,-0.656 -1.562,-0.74 -2.158,-0.72l-0,-0Zm-51.641,-8.426c-3.132,0.81 -3.234,4.59 -1.148,9.419c0.157,0.365 0.129,0.564 0.289,0.705c0.356,0.314 0.636,-0.124 0.676,-0.413c0.06,-0.439 -0.126,-1.03 -0.458,-1.888c-1.29,-3.343 -0.981,-5.269 0.297,-6.12c3.276,-1.7 4.158,1.79 4.653,3.395c0.121,0.391 0.163,0.929 0.377,0.958c0.653,0.091 0.965,-0.143 0.955,-0.143c0,0 -0.868,-3.005 -1.397,-4.134c-0.856,-1.827 -2.892,-2.209 -4.244,-1.779Zm-22.721,3.568l-0.033,39.834l-5.994,5.671c-2.573,-2.221 -5.953,-5.7 -5.953,-5.7l0.106,-67.341l-1.929,-0.155c-0.472,28.932 -0.008,58.45 -0.031,87.439l17.6,0c4.905,-7.877 10.064,-15.623 14.915,-23.524c0.18,-0.446 0.159,-1.11 0.07,-3.564c-0.036,-0.998 0.076,-1.764 -0.07,-1.998c-0.148,-0.237 -0.461,-0.067 -0.753,0.065c-0.298,0.134 -0.475,0.087 -0.315,-0.267c0.091,-0.2 0.385,-0.64 0.638,-1.059c0.824,-1.362 1.026,-1.799 0.747,-3.309c-0.068,-0.371 -0.406,-0.685 -0.701,-1.123c-2.469,-3.672 -3.474,-9.115 -2.248,-13.102c0.39,-1.762 0.25,-2.119 -0.594,-3.493l-15.455,-8.374Zm77.597,-42.832c-1.611,-0.834 -1.58,-0.815 -1.59,0.763c0.009,1.181 0.031,1.466 0.471,1.307c0.635,-0.326 1.412,-0.624 1.998,-0.875c1.12,-0.388 -0.302,-0.884 -0.879,-1.195Zm6.381,4.103c-1.251,-1.006 -0.789,-0.89 -1.143,1.378c-0.214,1.371 -0.49,1.406 0.917,0.953c0.798,-0.278 2.44,-0.103 1.704,-1.048c0.008,0.017 -1.233,-1.073 -1.478,-1.283Zm-54.137,41.667c-6.705,0.806 -9.512,7.453 -9.812,12.995c-0.237,4.376 -0.531,9.485 -0.093,9.932c4.396,-1.993 6.09,0.307 6.507,-0.313c0.19,-0.27 -0.975,-1.168 -2.439,-1.973c-0.34,-0.187 -0.867,-0.523 -1.066,-0.69c-0.534,-0.446 1.066,-0.062 2.077,0.631c1.289,0.885 1.506,0.701 0.946,-1.885c-0.608,-2.81 -0.708,-3.155 1.435,-4.269c0.857,-0.445 1.345,-0.824 1.959,-1.517c0.491,-0.555 0.616,-0.691 0.436,0.125c-0.314,1.413 -1.56,2.029 -2.683,2.603c-0.558,0.288 -0.789,0.869 -0.792,1.367c-0,0.509 0.576,3.256 0.844,4.133c0.249,0.834 0.34,1.669 0.532,2.519c0.504,2.206 0.536,2.639 0.281,4.24c-0.149,0.939 -0.225,1.474 -0.173,2.042c0.048,0.515 0.118,1.217 0.118,1.217c0,-0.025 -1.197,-1.24 -3.822,-0.198c-1.893,0.751 -3.389,-0.032 -4.449,-0.588c-0.245,0.869 -0.189,1.812 -0.16,2.809c10.916,2.013 20.239,1.743 28.089,0.914c0.127,-1.941 1.431,-13.761 6.217,-24.189c0.752,-1.339 1.512,-2.256 1.791,-2.397c0.145,-0.074 0.058,-0.21 0.09,-0.325c-0.027,-0.435 -0.132,-1.109 -0.503,-1.407c-0.905,-0.729 -2.351,0.21 -2.826,1.834c-0.416,0.974 -2.316,5.185 -2.452,5.114c-0.112,-0.071 -0.375,-0.076 -0.28,-0.402c0.727,-1.706 1.727,-3.511 2.289,-5.043c0.778,-2.206 2.468,-3.371 3.731,-1.979c0.433,0.476 0.607,0.916 0.806,1.068c0.15,0.114 0.351,0.036 0.475,-0.153c0.477,-0.724 -0.627,-2.366 -1.812,-2.696c-1.71,-0.477 -2.984,0.781 -4.923,4.859c-1.12,2.355 -1.32,2.946 -1.497,2.765c-0.04,0.016 -0.337,0.016 -0.229,-0.44c0.23,-0.981 1.716,-3.83 2.792,-5.637c1.593,-2.675 4.551,-2.892 5.794,-0.57c0.191,0.316 0.2,0.73 0.411,1.012c0.382,0.498 1.01,0.399 1.166,-0.418c-0.17,-0.541 -1.21,-2.495 -1.932,-2.836c-1.663,-1.153 -3.682,-0.926 -5.381,0.603c-0.385,0.347 -0.787,1.052 -1.913,3.359c-1.66,3.699 -1.704,3.713 -2.158,3.117c0.667,-1.799 2.423,-4.722 3.132,-6.517c0.135,-0.268 0.162,-0.555 0.152,-0.831c-0.041,-1.305 0.17,-3.61 -2.565,-5.248c-2.333,-1.267 -5.412,0.066 -6.461,2.561c-0.803,1.911 -1.389,3.224 -1.794,3.495c-0.569,0.38 -0.463,-0.15 -0.406,-0.342c0.808,-1.729 1.945,-3.477 2.125,-5.217c0.105,-4.228 -3.698,-6.063 -6.704,-4.675c-2.518,1.066 -3.731,4.381 -4.87,7.441Zm-20.557,-95.088c3.694,-1.732 6.223,-2.604 9.986,-3.723c0.509,-0.225 0.59,-0.277 0.05,-1.354c-2.384,-4.762 4.158,-8.558 6.382,-3.884c0.296,0.623 0.365,0.968 0.657,0.67c2.813,-2.989 7.294,-14.458 8.387,-22.452c-4.965,-8.721 -13.695,-24.702 -13.695,-24.702l-34.885,-0l-0,69.901c9.718,-8.181 16.331,-11.14 23.119,-14.456l-0.001,-0Zm41.425,-6.9c0.27,-0.558 0.7,-1.424 0.876,-1.826c0.227,-0.737 1.076,-1.197 0.662,0.121c-0.094,0.285 -0.256,0.669 -0.512,1.179c-0.503,0.912 -0.981,2.029 -1.338,2.758c-1.933,3.909 -1.841,6.186 0.318,7.881c1.613,1.557 5.001,1.732 6.804,-0.78c0.27,-0.405 0.511,-0.925 0.589,-1.116c0.783,-1.919 1.361,-2.878 1.51,-3.068c0.802,-1.027 0.93,0.245 -0.268,2.204c-1.373,2.245 -1.397,4.678 -0.21,6.39c1.759,2.537 5.101,2.609 7.198,0.574l0,-0c1.09,-1.289 1.957,-2.93 2.655,-5.026c0.154,-0.465 0.314,-0.81 0.427,-1.082c0.175,-0.42 0.426,-0.577 1.078,-0.702c4.464,-0.863 8.211,-5.486 8.743,-10.534c0.069,-0.682 0.262,-1.89 0.332,-2.607c0.14,-1.431 0.143,-8.84 0,-9.282c-0.075,-0.238 -0.208,-0.365 -0.499,-0.361c-0.223,0.002 -0.539,0.081 -0.992,0.245c-1.472,0.53 -2.157,0.664 -3.571,0.154c-0.467,-0.169 -0.79,-0.226 -0.982,-0.21c-0.624,0.055 0.205,0.958 2.024,1.955c0.779,0.427 1.395,1.003 0.763,0.961c-0.183,-0.013 -2.378,-1.157 -2.681,-1.344c-1,-0.619 -0.739,0.16 -0.224,2.209c0.692,2.751 0.293,3.524 -1.861,4.602c-0.401,0.201 -0.934,0.62 -1.205,0.89c-1.142,1.702 -0.847,0.448 -0.272,-0.458c0.982,-1.037 0.38,-1.391 -1.634,-0.672c-2.297,0.82 -3.335,0.221 -3.977,-1.067c-0.727,-1.457 0.64,-3.33 1.78,-3.294c0.369,0.012 0.303,0.146 -0.241,0.521c-0.657,0.452 -0.968,0.889 -1.037,1.661c-0.139,1.576 0.978,2.245 2.539,1.188c0.737,-0.499 1.318,-0.843 1.876,-0.971c0.553,-0.127 1.384,0.08 1.381,0.527c0,0.184 -0.026,0.635 0.013,0.735c0.147,0.499 0.937,-0.207 1.282,-0.458c1.175,-0.887 1.137,-1.061 0.816,-2.499c-0.525,-2.013 -0.79,-3.854 -1.291,-5.894c-0.267,-1.069 -0.312,-2.277 -0.149,-3.366c0.081,-0.546 0.292,-1.669 0.334,-2.437c0.043,-0.768 -0.008,-1.866 0.024,-1.866c1.167,0.901 1.642,1.059 2.781,0.622c1.763,-0.728 2.877,-0.653 4.362,0.064c0.55,0.265 1.05,0.452 1.05,0.452l0.068,-2.31c-0,-0 -1.375,-0.286 -3.916,-0.623c-7.65,-1.014 -23.346,-1.228 -23.931,-0.296c-1.033,6.175 -2.438,13.579 -4.065,18.357c-0.284,0.948 -0.556,1.33 -0.411,1.358c0.06,0.011 0.344,-0.356 0.476,-0.509c0.744,-0.867 0.174,1.191 -0.95,3.669c-0.101,0.223 -0.184,0.468 -0.185,0.544c0,0.15 -0.706,1.877 -1.193,2.921c-0.303,0.649 -0.553,0.844 -0.551,0.429c0.341,-1.427 1.244,-3.274 1.374,-4.546c-0.791,1.152 -1.942,3.054 -2.813,4.188c-0.161,0.306 0.009,0.401 0.15,0.778c0.523,1.411 1.791,1.537 2.525,0.26c0.408,-0.712 1.678,-3.396 2.119,-4.57c0.455,-1.208 0.774,-1.845 0.925,-1.924c0.304,-0.158 0.362,0.528 -0.176,1.671c-1.635,3.468 -2.335,5.411 -3.136,6.128c-0.621,0.556 -1.696,0.521 -2.293,-0.469c-1.012,-1.679 -1.876,-1.123 -0.947,0.598c0.96,1.778 3.152,1.945 4.297,0.343c0.378,-0.529 2.157,-3.954 2.716,-5.347c0.312,-0.777 0.645,-1.383 0.757,-1.426c0.597,-0.232 -0.085,1.544 -1.8,5.098c-0.556,1.373 -1.448,2.813 -2.656,3.259c-2.936,0.648 -3.333,-0.918 -4.354,-2.703c-0.497,-0.444 -0.946,0.266 -0.756,1.051c0.308,1.273 0.946,1.819 1.857,2.427c1.837,1.225 4.258,0.339 4.939,-0.566c0.681,-0.905 1.145,-1.633 2.657,-4.763Zm10.796,11.761c-0.267,-0.594 -0.228,-1.198 -0.092,-1.761c0.307,-1.269 0.817,-2.5 1.412,-3.571c0.965,-0.46 0.228,1.37 0.107,1.642c-1.162,2.445 -1.272,3.391 -0.187,3.674c0.93,0.241 1.429,-0.332 2.308,-2.525c0.451,-1.125 0.632,-1.624 0.791,-1.688c0.339,-0.138 0.502,0 0.482,0.344c-0.581,1.439 -1.036,2.953 -1.991,4.148c-0.934,0.789 -2.342,0.794 -2.83,-0.263Zm-8.721,-1.879c-4.65,-1.661 -1.858,-6.766 -0.915,-8.61c0.158,-0.306 0.751,-1.499 0.941,-1.89c0.341,-0.702 0.677,-0.427 0.674,0.037c-0,0.13 -0.51,1.219 -1.024,2.23c-2.25,4.436 -2.172,6.245 0.014,7.3c2.133,1.03 3.089,0.437 4.79,-2.948c0.985,-2.542 1.47,-2.584 1.416,-1.618c-0,0.36 -1.193,2.797 -1.962,3.93c-1.081,1.611 -2.305,2.151 -3.934,1.569Zm0.161,-2.14c-0.837,-0.523 -1.179,-1.823 -0.684,-2.888c0.45,-0.878 1.604,-4.242 2.146,-4.432c0.872,-0.03 0.407,0.706 -0.673,2.775c-1.278,2.742 -1.232,3.474 -0.246,3.894c0.913,0.388 1.346,-0.407 2.692,-3.614c0.211,-0.503 0.506,-1.026 0.679,-0.916c0.214,-0.017 0.586,0.146 -0.122,1.599c-0.168,0.347 -0.453,1.076 -0.768,1.754c-0.92,1.984 -1.964,2.489 -3.024,1.828Zm15.12,-5.819c-0.368,-0.191 -2.096,-0.875 -1.84,-1.442c0.032,-0.054 0.132,-0.012 0.183,0.023c1.582,1.068 3.549,1.34 5.601,-0.144c0.345,-0.306 0.603,-0.099 0.411,0.286c-0.622,1.243 -3.387,1.774 -4.355,1.277l0,0Zm-5.081,-1.802c0.048,-0.119 0.19,-0.474 0.316,-0.952c0.19,-0.717 0.146,-1.246 0.314,-1.154c0.717,0.39 1.998,0.4 2.625,0.014c0.688,-0.424 2.083,-0.553 2.592,-0.219c0.726,0.476 1.096,0.254 1.605,-0.146c0.575,-0.451 0.585,-0.258 1.623,0.105c0.766,0.268 1.067,0.451 1.393,0.392c0.125,-0.023 0.378,-0.31 0.459,-0.295c0.25,0.045 0.278,0.758 0.507,1.572c0.203,0.721 0.088,0.894 -0.553,0.463c-0.476,-0.321 -1.844,-0.472 -3.268,-0.032c-1.054,0.325 -1.297,0.194 -2.071,0.062c-1.928,-0.328 -3.319,-0.582 -4.756,0.257c-0.768,0.448 -1.047,0.681 -0.786,-0.067l0,0Zm-4.796,-3.557c-0.935,-1.889 1.214,-4.391 3.104,-3.508c0.626,0.293 1.183,1.403 0.256,0.894c-4.296,-0.875 -3.223,5.468 1.391,2.118c3.066,-2.052 5.236,-2.37 5.416,-0.384c-0.085,0.729 -0.728,0.613 -1.215,0.679c-1.271,0.179 -1.741,0.387 -3.214,1.023c-2.24,0.712 -4.43,1.294 -5.738,-0.822Zm16.811,0.873c-1.048,-0.271 -1.958,-0.688 -3.052,-0.888c-1.082,-0.19 -1.571,-0.76 -1.375,-1.527c0.203,-0.796 1.287,-0.88 2.917,0.122c1.806,1.112 3.116,1.381 3.776,0.962c1.337,-0.847 0.616,-2.227 -0.659,-2.58c-0.958,-0.269 -0.254,-0.644 0.776,-0.335c1.661,0.635 1.696,3.66 -0.012,4.288c-0.571,0.21 -1.579,0.154 -2.371,-0.042l0,0Zm-14.634,-10.014c1.22,-0.76 2.398,-1.439 2.818,-1.893c0.22,-0.238 0.832,-1.037 0.357,-0.793c-2.488,1.506 -5.376,0.255 -7.468,-0.776c-1.005,-0.474 -0.758,-0.264 -1.53,-0.212c-0.523,0.035 -0.943,0.146 -1.037,-0.231c-0.042,-0.167 -0.334,-0.097 -0.521,-0.116c-0.773,-0.077 -0.285,-1.108 1.339,-2.245c2.952,-2.17 7.563,-4.161 10.015,-1.49c0.495,0.48 0.451,0.801 0.903,0.506c1.033,-0.674 1.042,0.22 0.171,1.047c-0.598,0.568 -0.379,0.722 0.352,1.263c0.349,0.258 0.063,0.503 -0.132,0.879c-0.074,0.23 -0.016,0.482 -0.051,0.656c-0.163,0.807 -3.81,3.661 -5.131,4.148c-0.908,0.171 -0.432,-0.519 -0.084,-0.743l-0.001,-0Zm1.927,-5.236c-0.689,2.121 -1.961,2.844 -3.021,0.301l-0.482,0.049c-0.022,2.146 3.626,3.484 4.103,-0.325c-0.285,0.002 -0.442,-0.027 -0.6,-0.025l0,0Zm-3.376,1.981c-0.25,-0.422 -0.531,-1.392 -0.793,-1.406c-0.711,-0.03 -1.693,0.099 -1.46,0.543c0.367,0.703 2.542,1.353 2.253,0.863Zm4.873,-0.378c0.656,-0.398 0.795,-0.672 0.368,-1.109c-0.553,-0.565 -0.841,-0.277 -1.014,0.625c-0.149,0.775 -0.041,0.901 0.646,0.484Zm-8.887,-1.492c4.391,-2.002 6.056,-2.261 7.84,-1.765c0.413,0.114 0.779,0.347 1.01,0.333c0.854,-0.051 0.309,-1.016 -1.224,-1.568c-1.751,-0.631 -2.862,-0.344 -6.228,1.424c-1.971,1.036 -3.572,2.568 -1.398,1.576Zm12.726,-2.43c-0.063,-0.12 -0.329,-0.917 -0.404,-1.207c-0.076,-0.291 -0.144,-0.591 -0.226,-0.593c-2.037,0.328 -3.828,-0.055 -4.31,-0.171c-3.081,-0.741 -6.058,-0.591 -8.281,0.286c-0.542,0.215 -1.215,0.562 -1.28,0.622c-0.176,0.166 -0.435,-0.022 -0.434,-0.229c-0,-0.242 1.365,-1.33 2.225,-1.76c2.615,-1.305 5.375,-1.529 8.405,-0.707c1.974,0.763 3.247,0.64 4.509,0.083c0.619,-0.274 0.18,0.403 -0.016,1.299c-0.136,0.622 0.013,1.154 0.038,1.505c0.078,0.848 -0.018,1.273 -0.227,0.872l0.001,-0Zm45.885,178.93l0,-70.086c-17.504,12.153 -25.16,14.569 -33.386,17.547c3.141,5.455 -3.806,10.689 -6.786,4.747c-3.578,4.048 -8.506,18.226 -8.681,22.934c-0,-0 9.517,16.592 14.16,24.858l34.693,0Zm-63.614,-22.974c0.318,-3.527 1.066,-9.505 3.396,-16.463c0.978,-2.919 2.157,-6.268 3.823,-9.266c0.665,-1.048 0.711,-1.453 -0,-1.076c-0.446,0.237 -2.482,2.551 -2.76,3.135c-2.773,7.697 -4.914,13.368 -6.047,23.785l1.588,-0.115Zm2.285,-0.29c0.744,-8.567 3.872,-20.133 8.571,-27.672c0.442,-0.718 0.986,-1.341 0.965,-1.59c-0.061,-0.733 -1.87,0.534 -3.274,2.696c-1.567,3.132 -3.138,6.473 -4.339,10.172c-1.696,5.221 -2.934,10.044 -3.417,16.59l1.494,-0.196Zm4.516,-0.715c0.472,-4.937 1.992,-9.466 3.267,-14.003c1.559,-5.548 3.639,-9.631 6.064,-13.308c0.778,-1.179 1.695,-2.283 2.568,-3.407c0.111,-0.135 0.223,-0.378 0.198,-0.48c-0.561,-0.099 -1.006,0.076 -1.439,0.321c-0.605,0.341 -1.456,1.202 -1.953,1.841c-3.453,4.438 -5.312,9.62 -7.036,14.855c-1.656,5.027 -2.849,9.863 -3.082,14.415l1.413,-0.234Zm-31.018,-3.784c0.694,-0.055 1.142,0.077 1.344,-0.109c0.2,-0.185 0.134,-0.682 0.197,-1.317c0.135,-1.359 -0.008,-1.285 -0.847,-0.407c-1.395,1.453 -3.94,2.014 -5.454,1.135c-0.764,-0.443 -1.295,-0.75 -1.367,-0.382c-0.084,0.43 0.033,0.759 0.359,0.989c1.834,0.843 3.575,0.263 5.768,0.091Zm-1.64,-1.041c0.966,-0.323 1.948,-0.843 2.501,-1.636c0.527,-0.757 0.518,-0.865 0.119,-0.721c-1.963,0.972 -3.253,1.467 -5.008,1.198c-2.376,-0.364 -2.474,-0.059 -0.904,0.932c1.028,0.648 1.88,0.668 3.292,0.227Zm-3.488,-3.036c0.369,-0.273 0.463,-1.387 0.166,-1.45c-0.3,-0.064 -0.737,0.489 -0.845,0.939c-0.12,0.597 0.32,0.75 0.679,0.511Zm3.679,-0.048l0.631,-0.057c-0.323,-2.793 -3.332,-2.914 -3.887,0.279l0.477,0.072c0.618,-2.482 2.314,-2.462 2.779,-0.294Zm2.097,-0.518c0.781,-0.499 0.435,-1.1 -0.753,-1.334c-0.815,-0.193 -0.77,0.478 -0.347,1.389c0.184,0.396 0.321,0.383 0.775,0.132c0.11,-0.061 0.228,-0.125 0.325,-0.187Zm-7.2,-3.354c-0.008,-0.311 -0.135,-0.813 -0.281,-1.116c-1.061,-2.189 -1.647,-4.776 -1.527,-7.991c0.087,-2.304 0.115,-3.016 -0.36,-3.019c-0.664,0.321 -1.057,4.609 -0.211,8.179c0.596,2.519 2.423,5.645 2.379,3.947Zm-0.026,-3.49c-0.065,-1.204 0.198,-3.902 0.068,-4.491c-0.173,-0.774 -0.627,-1.472 -0.884,-1.658c-0.399,-0.289 -0.498,0.265 -0.361,1.711c0.324,3.393 0.865,5.963 1.177,4.438l0,0Zm0.336,-6.177c0.262,-0.476 0.16,-0.981 -0.418,-2.116c-2.275,-4.47 -2.57,-7.525 -0.194,-8.635c0.266,-0.124 0.434,-0.148 0.611,-0.247c0.75,-0.418 0.464,-1.177 -0.656,-0.864c-3.096,0.866 -3.707,3.785 -1.097,9.186c1.329,2.695 1.535,3.072 1.754,2.676Zm0.715,-3.602c0.031,-0.15 -0.281,-0.58 -0.616,-1.443c-0.875,-2.25 -0.894,-3.184 0.058,-3.837c0.309,-0.182 0.627,-0.191 0.675,-0.401c0.075,-0.326 0.069,-0.863 -0.125,-1.019c-1.365,0.01 -1.996,0.812 -2.235,1.575c-0.25,2.787 0.917,4.72 1.947,6.567c0.179,-0.457 0.241,-1.042 0.296,-1.442Zm0.892,-1.845c0.73,-1.485 0.038,-3.408 -0.967,-2.752c-0.652,0.425 -0.685,0.876 -0.285,2.111c0.487,1.506 0.775,1.61 1.252,0.641Zm2.667,-4.151c0.081,-0.306 -0.172,-0.831 -0.614,-2.17c-0.462,-1.405 -0.251,-2.365 0.631,-2.642c1.264,-0.314 1.711,1.768 1.977,2.646c0.137,0.677 0.58,0.864 0.972,0.393c0.11,-0.132 0.141,-0.242 -0.046,-0.981c-0.816,-3.227 -1.883,-4.254 -3.601,-3.45c-1.593,0.745 -1.384,2.412 -0.229,5.918c0.154,0.469 0.257,0.817 0.369,0.866c0.265,-0.093 0.444,-0.285 0.541,-0.58Zm1.305,-0.917c0.377,-0.376 0.355,-0.206 -0.078,-1.553c-0.492,-1.535 -0.751,-1.855 -1.281,-1.327c-0.325,0.324 -0.161,0.68 0.211,1.937c0.431,1.459 0.546,1.543 1.147,0.943l0.001,0Zm66.034,-5.257c2.514,-1.745 1.478,-4.879 -1.831,-6.04c-0.391,-0.137 -0.821,-0.303 -0.956,-0.369c-1.52,-0.736 -2.703,-0.963 -2.706,-0.388c-0,0.338 0.454,0.509 1.912,1.224c2.156,1.058 2.643,2.279 1.579,3.82c-0.767,1.11 0.669,2.381 2.002,1.753Zm2.281,-3.813c0.219,-0.896 0.543,-1.664 0.698,-2.186c0.214,-0.817 -0.061,-0.627 -0.599,-0.5c-1.385,0.724 -2.377,0.331 -1.704,1.326c0.748,1.324 1.365,2.346 1.605,1.36Zm-0.172,-3.131c1.727,-1.041 2.11,-3.754 0.503,-5.046c-0.384,-0.309 -1.049,-0.717 -1.854,-0.964c-1.636,-0.502 -3.996,-0.73 -4.861,-0.466c-0.186,0.221 -0.194,0.567 -0.008,0.668c0.241,0.09 0.676,0.15 1.305,0.214c6.083,1.046 3.599,5.545 -0.587,4.572c-1.364,-0.3 -2,-0.155 -1.452,0.166c0.65,0.382 2.05,0.883 3.429,1.156c1.179,0.209 2.524,0.289 3.524,-0.3l0.001,-0Zm-8.288,-0.447c1.944,-4.39 2.968,-15.907 -8.139,-24.232l0.368,2.304c6.543,5.771 8.115,13.12 6.759,19.862l1.012,2.066Zm9.916,-7.871c-0.695,0.453 -1.277,0.924 -2.169,1.325c-0.535,0.241 -0.548,0.3 0.178,0.699c0.351,0.193 0.93,0.547 1.151,0.788c0.384,0.417 0.837,0.577 1.007,0.425c-0.018,-0.653 0.204,-2.814 -0.167,-3.237Zm-3.287,0.832c2.25,-0.715 3.453,-1.805 3.197,-3.627c-0.376,-2.673 -2.598,-3.238 -6.759,-2.194c-2.002,0.503 -2.18,1.449 -0.281,0.961c2.399,-0.616 4.283,0.315 4.028,2.082c-0.149,1.525 -1.367,2.413 -3.506,2.413c-1.129,0 -1.478,0.102 -1.326,0.511c0.104,0.278 3.72,0.149 4.647,-0.146Zm-3.714,-6.351c3.677,-1.268 5.387,-3.239 4.547,-5.448c-0.989,-2.601 -4.199,-2.627 -7.423,-0.207c-1.507,1.11 -1.276,1.521 0.184,0.956c1.892,-0.874 3.109,-1.01 3.884,-0.314c1.399,1.256 0.455,3.446 -1.667,4.232c-1.027,0.43 -1.357,0.667 -1.359,0.977c-0,0.492 0.184,0.373 1.834,-0.196Zm6.203,-0.04c0.095,-0.77 -0.769,-3.439 -1.143,-2.825c-0.099,0.163 -0.442,0.917 -0.876,1.308c-1.265,1.14 -1.026,0.708 0.23,1.057c0.699,0.194 1.685,0.689 1.789,0.46Zm-9.726,-5.705c3.718,-2.168 5.137,-5.262 3.21,-7.319c-1.732,-1.849 -4.603,-0.773 -7.269,2.589c-1.223,1.541 -0.305,1.347 1.344,-0.118c1.92,-1.708 4.362,-0.884 4.349,1.248c-0.008,0.91 -1.286,2.441 -2.497,3.153c-0.376,0.221 -0.43,0.56 -0.298,0.78c0.144,0.238 0.445,0.084 1.161,-0.333Zm6.517,-2.262c-0.194,-0.582 -1.593,-3.083 -1.893,-2.998c-0.318,0.641 -0.341,1.485 -0.721,2.165c-0.518,1.023 -0.453,0.862 1.198,0.857c1.229,-0.004 1.378,0.169 1.416,-0.024l-0,0Zm-10.927,-2.827c3.123,-3.262 3.399,-7.081 0.473,-7.96c-1.621,-0.486 -4.213,0.693 -4.22,1.91c-0.009,0.758 0.136,0.896 0.793,0.624c2.76,-1.033 4.947,1.637 2.412,4.706c-0.617,0.889 -0.7,1.112 -0.52,1.296c0.21,0.215 0.382,0.134 1.062,-0.576Zm33.658,-27.408l-0,-87.121l-18.295,-0l-14.519,23.018l-0.021,5.648c-0.001,0.195 0.329,0.317 0.543,0.071c0.825,-0.642 0.507,0.032 -0.442,1.486c-0.959,1.469 -0.666,2.68 0.383,4.249c2.224,3.325 3.383,9.43 2.437,12.657c-0.358,1.218 -0.437,1.71 -0.204,2.392c0.266,0.779 0.43,1.196 1.202,1.698c0.671,0.471 6.193,2.637 15.088,8.392l-0.043,-40.611l5.605,-5.406l5.92,5.7l0.208,67.631l2.138,0.196Zm-3.222,-67.635l-4.958,-4.646l-4.9,4.577c-0.026,21.839 0.124,66.663 0.124,66.663l4.87,0.352c0,-0 0.358,-1.023 -0.098,-3.666c-0.684,-3.967 -0.642,-8.811 0.458,-16.179c0.685,-4.521 0.008,-8.441 -1.035,-12.568c-0.901,-2.75 -0.934,-5.295 -0.77,-7.756c0.347,-3.923 1.42,-6.885 1.551,-12.53c0.075,-3.217 -0.078,-6.368 0.039,-10.337c0.049,-0.531 0.272,-0.466 0.311,0.083c0.149,3.592 0.288,7.004 0.32,10.512c-0.107,4.562 -1.215,9.256 -1.337,13.431c-0.091,2.893 -0.138,3.894 1.076,7.415c1.908,5.536 0.652,14.039 0.63,14.19c-0.808,5.447 -1.398,12.416 1.332,17.63l2.645,0.237l-0.258,-67.408Zm-34.107,41.199c1.463,-0.676 1.753,-1.87 0.965,-4.746c-0.14,-0.513 -0.301,-1.123 -0.356,-1.356c-0.169,-0.71 -0.486,-0.788 -0.909,-0.223c-0.253,0.337 -0.019,0.416 0.369,1.997c0.587,2.39 0.246,3.18 -0.637,3.175c-0.783,-0.005 -1.392,-0.654 -1.616,-2.205c-0.076,-0.53 -0.188,-0.891 -0.315,-1.103c-0.213,-0.355 -0.469,-0.291 -0.676,0.102c-0.267,0.507 0.235,2.599 0.903,3.612c0.724,1.023 1.223,1.233 2.272,0.747Zm-0.398,-2.146c0.312,-0.589 -0.075,-2.037 -0.276,-2.986c-0.186,-0.529 -0.397,-0.658 -0.745,-0.573c-0.518,0.128 -0.493,0.699 -0.305,1.638c0.382,1.914 0.589,2.155 1.326,1.921Zm4.446,-3.452c1.674,-0.96 1.834,-2.616 0.709,-5.627c-0.461,-1.235 -1.035,-2.104 -1.351,-2.113c-0.124,0.785 -0.239,1.204 -0.1,1.512c0.993,1.528 1.733,3.934 0.283,5.286c-0.858,0.648 -0.315,1.193 0.459,0.942Zm-54.771,-1.158c3.935,-0.799 7.466,-7.192 9.695,-12.853c2.031,-5.702 4.19,-11.968 4.532,-17.194c0,0 -1.484,0.069 -1.666,0.378c-0.169,0.304 -0.242,0.96 -0.4,1.893c-1.023,4.807 -1.836,8.458 -3.622,12.976c-1.239,3.136 -2.591,6.686 -5.947,11.455c-1.103,1.333 -2.364,2.159 -3.949,2.381c-0.404,0.057 -1.083,-0.019 -1.254,0.102c-0.301,0.214 -0.03,0.698 0.746,0.894c0.738,0.168 1.189,0.106 1.865,-0.032l0,0Zm54.082,-0.742c0.599,-0.641 0.658,-1.402 -0.013,-3.011c-0.189,-0.451 -0.275,-0.707 -0.498,-0.644c-0.474,0.133 -1.026,1.385 -0.7,2.444c0.426,1.381 0.675,1.785 1.211,1.211l0,0Zm-55.451,-1.008c1.15,-0.154 2.697,-1.012 3.658,-2.516c6.431,-10.068 7.525,-15.695 9.542,-25.242c0,-0 -1.453,-0.051 -1.76,0.258c-0.551,3.868 -1.832,7.749 -2.768,10.974c-1.58,5.486 -6.082,14.263 -8.536,14.677c-1.32,0.223 -2.832,-0.931 -2.589,-2.116c0.15,-0.727 0.249,-1.004 0.603,-1.186c0.856,-0.303 1.354,0.283 0.415,0.665c-1.087,0.951 0.87,2.405 2.072,1.389c2.038,-1.722 -0.956,-5.021 -3.407,-3.505c-2.715,1.68 -2.017,4.589 -0.31,5.972c0.861,0.697 1.858,0.795 3.08,0.63l-0,-0Zm19.224,-3.939c1.677,-1.732 2.937,-3.974 3.853,-6.777c1.986,-6.295 3.633,-13.511 4.229,-19.164c0,-0 -1.432,-0.149 -1.751,0.156c-0.523,6.122 -3.024,18.696 -7.052,25.169c-0.871,1.536 -0.549,1.927 0.721,0.616Zm37.212,-13.123c-0.155,-0.081 -0.142,-0.028 -0.208,0.018c-0.228,0.159 -0.079,0.963 0.44,2.205c1.367,2.22 1.527,6.529 1.438,8.149c-0.027,0.486 -0.077,0.765 0.069,1.197c0.145,0.424 0.4,0.917 0.81,0.091c0.449,-3.191 0.096,-6.531 -1.119,-9.235c-0.429,-0.962 -0.848,-1.902 -1.43,-2.425l0,-0Zm1.053,9.408c0.24,-0.858 -0.203,-4.263 -0.752,-5.459c-0.221,-0.482 -0.621,-0.519 -0.573,0.029c0.008,1.179 -0.122,3.422 0,4.087c0.597,1.386 1.063,2.27 1.321,1.343l0.004,0Zm-3.096,-13.753l-0.645,0.001c0.022,2.226 -1.94,2.845 -2.664,0.172l-0.581,0.135c0.772,3.773 4.263,2.043 3.89,-0.308Zm-3.923,1.679c-0.335,-0.988 -0.197,-1.349 -1.047,-0.905c-0.65,0.339 -1.04,0.701 -0.125,1.144c0.815,0.347 1.384,0.386 1.172,-0.239Zm4.916,-0.569c0.269,-0.548 0.237,-1.042 -0.169,-1.045c-0.313,-0.002 -0.4,0.249 -0.489,0.781c-0.159,0.949 0.235,1.125 0.658,0.264Zm0.341,-3.699c0.249,-0.08 0.178,-0.433 0.111,-0.881c-1.063,-1.487 -3.694,-1.032 -4.639,-0.736c-1.092,0.356 -1.365,0.223 -2.108,-0.119c-0.614,-0.115 -0.701,0.035 -0.85,0.33c-0.131,0.26 -0.154,0.754 -0.197,1.614c-0.036,0.726 -0.011,1.064 0.241,0.837c2.238,-2.225 3.946,-2.761 7.442,-1.045Zm-7.243,2.013c-0,0.3 0.252,0.113 0.901,-0.297c2.361,-1.411 3.729,-1.211 5.751,-0.538c0.45,0.15 0.728,-0.324 0.24,-0.728c-2.401,-1.985 -5.358,-0.72 -6.892,1.563Zm8.556,-9.143l12.81,-21.317l-71.367,-0.052l12.118,22.631c9.881,-2.301 26.147,-5.24 46.439,-1.262l-0,-0Z" style="fill:#242424;fill-rule:nonzero;"/><path id="path4098-7-2-7" d="M57.255,208.977c1.512,-2.269 8.998,1.774 9.393,3.376c4.431,-3.51 9.81,-3.765 14.139,0.628c4.452,-4.897 9.217,-4.562 14.174,-1.726c-0.554,-1.106 6.338,-5.992 10.527,-2.887l11.329,20.305l-72.575,0.235c4.287,-6.476 8.085,-14.212 13.013,-19.931Zm-31.7,-105.905c-0.395,-1.099 -1.987,-12.378 2.052,-12.66c25.739,15.964 26.237,44.735 25.681,44.952c-0.385,-0.114 8.23,8.589 8.838,9.429c1.851,2.559 -16.388,27.442 -17.11,26.481l-5.944,-3.388l0.148,-8.681l0.125,-17.517l-14.226,-1.247l0.499,-3.815c4.772,0.395 9.668,1.295 14.087,0.265c2.908,-5.358 1.797,-13.351 -1.699,-16.573c-1.85,-1.133 -3.597,-0.771 -5.474,-0.53c-7.617,-1.28 -3.671,-14.199 -6.977,-16.716Zm127.388,5.795l0.046,3.202c-5.015,1.1 -13.879,-3.175 -16.562,3.712c0.333,7.439 1.989,10.775 3.145,13.021c0.869,2.018 6.967,-0.284 9.115,1.751c6.162,7.635 4.708,17.801 4.762,26.96l-2.673,1.359c-18.476,-10.968 -32.663,-45.038 -34.629,-54.738c-0.125,-6.227 16.95,-26.24 16.95,-26.24c0.039,-0.043 6.221,3.789 6.221,3.789c0.15,0.06 -0.131,26.264 -0.13,26.143c4.883,0.253 9.616,0.732 13.755,1.041l-0,-0Zm-36.634,-23.951c-21.547,37.942 -12.736,66.014 3.12,90.237c-0,0 -1.371,0.315 -1.522,0.179c-4.334,-4.333 -9.672,-2.346 -13.953,-1.433c-13.132,0.252 -8.195,-3.89 -26.912,-10.457c-4.548,0.412 -11.483,2.575 -14.105,0.824c18.243,-33.891 15.511,-55.587 -3.376,-91.109c1.566,0.464 1.809,1.936 2.982,2.299c3.882,1.51 9.231,0.937 12.437,-0.471c5.094,-2.334 10.538,3.939 26.188,10.842c1.275,0.663 2.888,-0.384 4.296,-0.671c2.886,-0.588 5.359,-1.831 7.513,-1.103c0.691,0.234 3.332,0.863 3.332,0.863Zm-43.491,-44.351c-0.929,-1.739 -10.429,-19.931 -10.429,-19.931l70.661,0.429l-10.601,17.55c-1.001,0.953 -5.981,3.608 -11.06,-2.404c-0.095,0.864 -7.537,6.207 -13.934,-0.227c-3.85,3.521 -7.776,5.561 -14.254,1.597c-0.144,1.105 -5.195,6.064 -10.383,2.986Z" style="fill:#bdbdbd;fill-rule:nonzero;"/><path id="path4094-0-9-9" d="M80.549,212.574c-6.847,-6.461 -13.974,-0.629 -13.811,-0.26c-2.62,-2.629 -4.981,-4.039 -9.106,-3.821c0,0 0.175,-1.081 0.202,-1.103c10.649,1.964 26.96,2.473 46.026,-1.547l0.978,2.062c-5.113,-1.83 -7.748,0.639 -10.014,3.523c-8.207,-5.159 -10.209,-0.633 -14.275,1.146l-0,0Zm15.967,-75.152l4.844,-0.095c0.912,14.2 12.68,35.928 12.964,35.928c-0.82,-1.147 -8.589,-0.242 -8.532,-0.097c-4.272,-11.49 -8.963,-22.968 -9.276,-35.736Zm-28.248,33.686c0.063,0.008 -1.168,-4.021 -2.491,-5.812c5.085,-8.754 9.256,-17.814 11.396,-27.889l3.464,0.031c-1.027,13.909 -12.07,35.034 -12.369,33.67l-0,0Zm62.308,-1.862c7.629,-13.876 6.313,-33.877 -15.33,-44.931c0,0 0.564,-14.66 2.174,-14.694c0.363,0.114 9.796,-0.122 9.796,-0.122c2.471,-6.114 6.448,-13.508 12.004,-18.501l0.14,16.388c-4.113,0.409 -6.621,1.731 -7.867,4.974l-5.698,1.279c0.419,16.462 6.564,31.673 24.788,45.334c-4.355,3.773 -19.241,11.433 -19.184,11.299l-0.823,-1.026Zm-91.315,-10.343l0.162,-17.065c2.764,-0.602 4.942,0.206 7.224,-4.788c-0,0 3.829,1.833 5.101,2.508c-3.579,6.457 -6.669,13.356 -12.487,19.345Zm36.282,-30.072l0.188,-8.753l8.159,-0c-0.692,2.937 -0.909,5.815 0.016,8.753l-8.363,-0Zm18.615,-0c0.557,-2.835 0.955,-5.746 -0.201,-8.753l8.835,-0l-0.208,8.753l-8.426,-0Zm-16.802,-17.187c-1.47,-16.992 -13.019,-36.225 -13.181,-35.816c1.361,0.22 3.757,0.9 5.076,0.27c1.597,0.267 2.98,0.085 3.056,-0.064c-0.205,-1.862 9.104,18.018 9.317,35.571c-0.131,0.136 -3.872,0.095 -4.268,0.039l0,0Zm20.421,0.149c1.246,-7.85 4.465,-22.209 12.065,-33.854c0.865,2.068 1.59,4.194 2.775,6.126c-5.731,8.406 -9.262,18.014 -11.405,27.822l-3.435,-0.094Zm-52.829,-4.231c-3.478,-7.153 -17.945,-18.413 -17.205,-17.275c5.989,-5.413 12.668,-8.85 19.335,-12.322c0,-0 1.185,1.134 1.006,1.419c-4.099,6.513 -6.086,20.312 -2.118,28.221c3.814,8.448 10.579,13.441 17.476,17.362c-0.534,5.282 -0.794,9.099 -2.083,14.35c0,0 -4.334,-2.298 -7.885,-3.777c-0.566,-9.973 -2.613,-18.895 -8.526,-27.978Zm38.317,-70.088c5.099,3.134 9.666,2.804 14.093,-1.45c5.558,5.085 11.569,2.717 14.109,0.425c2.35,2.669 5.412,4.151 9.89,3.268l-1.109,2.348c-14.271,-2.842 -29.788,-1.726 -45.957,0.971c0,0 -1.045,-2.053 -0.947,-2.068c1.311,-0.081 5.842,1.832 9.921,-3.494Z" style="fill:#3f3f3f;fill-rule:nonzero;"/><path id="path4092-7-7-9" d="M61.352,20.071l12.591,23.65c0,0 0.369,-0.067 0.554,-0.104c17.452,-3.439 31.274,-3.91 46.12,-1.277l13.198,-22.018c-24.019,-0.276 -72.463,-0.251 -72.463,-0.251Zm1.404,1.008l70.017,0.076l-3.937,6.515c-2.359,-0.734 -3.674,0.357 -4.004,2.636c0,0 -0.292,-0.127 -0.838,-0.187c-3.451,-0.376 -3.887,4.209 -0.666,4.763c0.823,0.142 0.963,-0.023 0.963,-0.023c-2.874,2.434 -4.506,0.792 -5.858,-0.012c-0.037,0.284 -2.575,2.208 -4.969,-0.093c3.428,0.346 3.962,-3.118 2.323,-4.436c-0.342,-0.34 -0.693,-0.606 -0.693,-0.606c0.807,-0.708 0.982,-1.65 0.465,-2.729c-1.039,-2.168 -4.297,-2.043 -4.795,0.325c-0.194,0.922 -0.2,1.083 -0.2,1.083c-2.631,0.174 -3.166,2.679 -2.262,4.069c0.514,0.791 1.645,0.962 2.689,0.909c-1.407,2.01 -4.627,1.325 -6.061,-0.331c-2.279,2.701 -4.877,2.373 -6.173,0.924c0.881,-0.009 1.487,-0.022 2.296,-0.776c1.382,-1.289 0.704,-3.576 -1.25,-4.216c-0.379,-0.124 -0.652,-0.149 -0.673,-0.151c0.013,-0.02 0.051,-0.146 0.135,-0.835c0.486,-3.988 -5.438,-3.593 -4.866,0.331c0.066,0.455 0.19,0.698 0.19,0.698c-0,-0 -0.629,-0.035 -0.989,0.132c-3.289,1.53 -1.024,5.742 1.518,4.659c0.242,-0.103 0.898,-0.428 0.994,-0.424c-3.149,3.938 -5.793,1.147 -6.489,0.719c-2.127,3.181 -5.82,1.011 -5.896,0.788c0.23,0.064 0.923,-0.08 1.582,-0.419c2.081,-1.094 1.492,-3.91 -0.131,-4.523c-0.498,-0.175 -1.098,-0.194 -1.773,-0.14c-0,-0 0.049,-0.708 -0.017,-0.958c-1.023,-3.834 -5.751,-1.92 -4.588,1.319c0.102,0.285 0.377,0.571 0.377,0.571c-0,-0 -0.641,0.393 -0.927,0.652c-2.257,2.048 0.041,5.427 2.678,4.022c0.34,-0.181 0.67,-0.563 0.765,-0.541c-1.241,2.287 -3.123,3.085 -5.808,1.192c-1.655,2.648 -4.357,1.549 -5.119,0.222c2.524,0.233 4.163,-4.646 -0.688,-4.805c-0.378,-1.325 -0.359,-3.346 -3.435,-2.998l-3.887,-7.402Zm34.193,8.373c0.556,0 1.005,0.456 1.005,1.017c-0,0.561 -0.449,1.017 -1.005,1.017c-0.556,0 -1.007,-0.456 -1.007,-1.017c0,-0.561 0.451,-1.017 1.007,-1.017Zm15.645,0.121c0.589,-0 1.066,0.484 1.066,1.078c-0,0.595 -0.477,1.076 -1.066,1.076c-0.588,0 -1.065,-0.481 -1.065,-1.076c0,-0.594 0.477,-1.078 1.065,-1.078Zm-30.667,1.175c0.568,0 1.027,0.463 1.027,1.036c0,0.573 -0.459,1.041 -1.027,1.041c-0.567,-0 -1.03,-0.468 -1.03,-1.041c0,-0.573 0.463,-1.036 1.03,-1.036Zm43.51,1.192c0.131,0.008 0.272,0.034 0.422,0.085l-0.891,1.599c-0.862,-0.762 -0.45,-1.73 0.469,-1.684Zm-56.647,0.636c1.589,0.109 1.121,1.256 0.888,1.654l-0.888,-1.654Zm28.029,0.754c6.009,6.911 11.398,4.867 14.922,0.272c1.511,3.916 4.88,6.624 10.677,3.99c-0.351,0.626 -1.232,1.731 -1.232,1.731c-5.123,1.393 -7.664,-1.04 -9.641,-3.358c-5.211,4.367 -10.119,3.308 -14.168,-0.544c-3.456,4.392 -9.054,5.337 -14.234,1.752c-2.369,3.528 -5.766,4.953 -10.038,3.188c-0,-0 -0.907,-1.439 -0.985,-1.53c0.619,0.524 8.487,3.82 10.408,-4.108c2.738,4.692 11.718,4.941 14.291,-1.393Zm0.604,2.841c6.759,6.38 13.852,0.864 14.033,0.475c0.106,0.354 3.965,5.003 9.527,3.256l-0.905,1.564c-14.782,-2.404 -28.895,-1.913 -45.662,1.305l-0.917,-1.646c4.288,1.333 8.036,-0.33 9.736,-3.207c0.991,0.65 8.64,4.959 14.188,-1.747Zm-17.726,35.726c-0.179,0.008 -0.401,0.208 -0.77,0.575c-0.798,0.793 -0.98,0.897 -1.754,1.009c-0.584,0.085 -1.816,0.801 -2.565,1.49c-0.202,0.187 -0.587,0.342 -1.049,0.423c-0.401,0.071 -0.953,0.166 -1.227,0.214c-0.273,0.047 -0.571,0.135 -0.662,0.191c-0.393,0.241 -1.032,0.278 -1.75,0.104c-0.691,-0.168 -0.803,-0.164 -1.565,0.073c-1.111,0.346 -1.837,0.346 -2.384,0c-0.546,-0.345 -1.415,-0.473 -1.966,-0.293c-0.814,0.265 -2.923,-1.01 -2.919,-1.764c0,-0.171 -1.198,-1.077 -1.499,-1.079c-1.069,-0.16 -10.463,3.584 -10.415,3.801c11.535,14.379 21.244,36.288 13.93,63.097l-1.292,-0.624c1.086,-4.873 1.515,-9.779 1.85,-14.76c-21.651,-9.435 -23.515,-31.374 -15.112,-45.225l-1.426,-1.533c-5.092,2.743 -10.266,4.3 -22.852,14.957c0.035,16.014 0.063,32.029 0.057,48.044c4.555,0.509 9.571,0.925 14.519,1.355c-0,-0 -0.064,15.423 -0.177,21.455c-0.096,5.102 0.091,4.782 0.091,4.782l16.384,8.718c-1.151,-4.592 1.69,-6.415 4.069,-6.225c-1.052,-4.427 1.559,-6.453 4.539,-5.885c2.013,0.384 2.717,1.503 3.869,5.205c0.187,0.602 0.444,1.406 0.444,1.406l1.149,-0.042c1.437,-3.116 2.396,-7.081 5.778,-7.595c4.426,-0.672 6.075,2.398 6.073,5.467c4.289,-3.814 9.426,-0.862 9.092,4.836c2.158,-1.4 5.814,-2.665 8.117,2.734c0.867,-0.185 1.307,-1.159 2.525,-1.464c0.456,-0.096 1.488,-0.657 1.488,-0.657l0.014,-0.187c-0,0 0.957,-0.334 2.241,-0.546c1.101,0.415 0.78,0.401 1.374,-0.338c0.661,-0.342 1.733,-0.568 2.56,-0.493c0.867,0.079 1.253,0.141 1.761,-0.082c0.792,-0.349 1.531,-0.437 2,0.09c0.337,0.378 0.824,0.196 1.346,0.175c1.046,-0.042 2.439,0.39 2.874,1.338c0.641,0.66 2.041,1.329 2.041,1.329l1.136,-0.265l0.129,-0.423l9.281,-3.575c-18.924,-20.915 -18.429,-48.661 -13.972,-62.706l1.712,0.832c-0.908,4.163 -1.938,8.437 -1.804,14.643c17.04,7.669 25.519,27.49 15.188,44.793l1.091,1.425c4.298,-1.821 15.109,-7.947 18.845,-11.277l0.796,0.066c-0,0 2.266,-1.482 3.265,-2.272l0.135,-45.916l-0.793,0.211l-0.141,-2.682l-14.049,-1.126c0.179,-0.135 0.312,-0.19 0.353,-0.459l-0.081,-25.418c-0.522,-0.806 -12.288,-7.763 -16.664,-9.391c-0.175,0 -0.055,0.298 0.008,1.025c0.215,2.493 -1.453,4.713 -3.384,4.717c-0.696,-0 -0.815,0.299 -0.78,1.731c0.049,2.036 -0.681,3.403 -2.805,4.176c-2.517,0.917 -4.221,-0.412 -5.622,-5.64c-0.368,-1.373 -1.088,-1.029 -1.777,0.847c-0.343,0.931 -1.45,3.19 -2.112,4.382c-0.51,0.916 -1.314,1.322 -2.41,1.809c-0.854,0.426 -2.704,0.353 -3.77,-0.194c-1.932,-0.991 -2.682,-2.181 -3.238,-5.129c-0.074,-0.385 -0.323,-0.351 -0.949,0.125c-3.412,2.594 -8.209,-0.088 -8.182,-4.573c0.009,-1.317 -0.044,-1.369 -0.81,-0.738c-2.314,1.907 -5.457,0.94 -6.716,-2.064c-0.294,-0.704 -0.451,-1.018 -0.68,-1.01l-0.001,-0Zm-19.576,1.591c0.214,0.052 0.709,0.685 0.962,0.998c0.693,0.774 1.623,1.164 2.591,1.739c0.091,-0.137 11.295,15.041 13.2,35.967l5.211,0.028c-0.972,-20.334 -6.527,-30.107 -9.076,-36.379l1.869,-0.598c4.191,8.106 9.299,24.556 9.13,38.959l-8.606,0c-1.216,-14.426 -6.774,-28.49 -14.547,-39.16c-0.541,-0.82 -0.953,-1.38 -0.808,-1.537c0.018,-0.019 0.043,-0.024 0.074,-0.017l-0,0Zm-3.327,2.147l0.874,2.765c0,-0 0.104,-0.645 0.372,-0.889c1.701,-1.547 3.329,0.49 2.562,3.253c-0.175,0.851 -0.515,2.526 -0.515,2.526c0,0 -1.709,-0.884 -2.569,-1.168c-2.372,-1.017 -3.163,-3.022 -1.351,-3.249c0.303,-0.038 0.927,-0.066 0.927,-0.066c-0.753,-0.598 -2.414,-1.964 -2.414,-1.964l2.114,-1.208Zm7.962,0.309l-0,0.002c0.716,0.41 2.564,0.854 3.625,0.451c0.858,-0.326 1.512,-0.148 2.405,-0.071c0.511,0.045 1.53,-0.182 1.53,-0.182c5.096,10.82 8.601,23.659 9.185,35.4l-4.009,0.022c-1.512,-12.473 -6.295,-25.143 -12.364,-34.542c-0.268,-0.409 -0.625,-1.065 -0.372,-1.08l-0,0Zm16.59,0.262c1.87,0.06 3.679,2.62 4.208,4.06c0.492,1.423 0.683,1.337 1.342,1.107c1.693,-0.586 3.496,1.29 1.227,1.603c-2.226,0.371 -0.956,4.768 -1.146,5.155c-0.902,0.159 -2.598,-3.578 -2.554,-4.689c0.108,-2.725 -2.428,-5.004 -4.004,-3.859c-0.747,0.542 -0.666,0.926 -0.896,0.73c-0.709,-0.601 -0.852,-2.259 -0.022,-3.199c0.591,-0.67 1.222,-0.928 1.845,-0.908l0,-0Zm46.248,0.865c0,0 0.089,3.584 -0.046,4.375c-0.264,2.389 -3.356,2.641 -3.477,0.73c-0.505,0.764 -0.852,1.713 -1.053,2.566l-2.193,-1.521c0.833,-0.603 1.627,-1.133 2.243,-1.879c-1.626,0.124 -2.534,-1.296 -1.447,-2.504c1.208,-1.385 4.548,-1.534 5.973,-1.767l0,0Zm-80.603,1.135l0.969,1.102c-8.638,15.454 -5.592,35.21 15.257,45.589c-0.138,4.742 -0.74,9.538 -1.862,13.988l-7.691,-3.767c0.052,-17.473 -9.751,-34.131 -25.399,-45.081c5.678,-4.605 11.96,-8.649 18.726,-11.831Zm62.981,0.132c0.367,2.04 2.281,5.736 2.419,5.524c-0.02,-0.121 -7.966,10.271 -11.419,27.654l-2.949,0.012c1.934,-11.583 5.793,-22.512 11.949,-33.19l0,-0Zm24.486,0.485l1.57,0.958c-8.233,6.958 -13.655,15.779 -17.638,25.291l-2.08,-0.994c6.174,-13.798 12.274,-19.926 18.148,-25.255Zm2.112,1.541c0.702,0.052 1.293,0.694 1.82,1.014c0.757,0.461 0.582,0.657 -0.877,1.786c-1.725,1.335 -1.888,1.276 -1.873,-0.629c0.01,-1.263 0.323,-2.215 0.93,-2.171Zm-1.812,1.964c0.483,-0.078 0.248,2.17 0.124,2.899c-0.163,0.751 -2.376,2.636 -3.165,3.382c-0.316,0.209 -0.461,0.132 -0.519,-0.241c0.024,-0.592 0.082,-1.379 0.092,-2.181c0,-0.247 -0.049,-0.506 0.172,-0.695c1.085,-1.292 2.67,-3.063 3.296,-3.164Zm4.184,0.614c-0,0 -0.008,-0 -0,0.008c0.204,0.123 0.143,2.714 -0,2.884c-0.642,0.168 -2.382,-0.106 -2.826,-0.345c-0.096,-0.301 2.412,-2.564 2.826,-2.547l-0,0Zm-77.194,0.838l0.599,2.539c0,0 0.173,-0.341 0.216,-0.408c1.193,-1.841 2.643,-0.761 2.62,1.794c-0.009,0.807 -0.735,4.032 -0.735,4.032c0,0 -4.476,-2.168 -4.827,-3.12c-0.347,-0.936 0.145,-1.761 0.969,-1.837c0.308,-0.035 0.631,-0.06 0.985,0l-1.924,-1.983l2.097,-1.017Zm51.235,0.338l2.03,0.756c-4.234,6.954 -8.604,13.821 -11.787,29.484l-8.511,-0c1.191,-9.572 3.603,-18.982 7.908,-28.14c0.622,-0.111 2.074,-0.398 2.614,-0.828c0,0 -7.034,16.247 -7.853,26.693l4.112,0.09c2.193,-10.179 6.299,-20.729 11.487,-28.055Zm-16.114,0.252c1.144,-0.042 1.986,0.769 1.922,2.209c-0.014,1.317 -0.133,1.508 -1.056,0.982c-1.213,-0.691 -2.172,-0.706 -3.258,0.078c-0.598,0.431 -1.185,0.787 -1.185,0.787c0,0 0.523,-2.287 1.326,-3.008c0.769,-0.69 1.565,-1.022 2.251,-1.048Zm-6.699,0.829c1.288,0.019 2.473,1.253 2.334,2.556c-0.083,0.774 -0.309,1.129 -0.512,1.79c-0,-0 0.666,-0.262 0.984,-0.412c1.513,-0.712 3.09,0.606 3.066,2.15c0.069,1.03 -1.041,2.264 -2.361,2.275c-0.461,0.008 -0.949,-0.142 -1.42,-0.497c0.342,1.887 0.409,2.761 -0.958,3.708c-1.144,0.768 -3.553,-0.11 -3.418,-2.221l0.084,-1.3l-1.157,0.151c-3.233,0.134 -3.29,-3.883 -0.681,-4.514c1.042,-0.249 2.173,0.613 2.173,0.613c-0.495,-0.985 -0.506,-2.68 0.161,-3.463c0.513,-0.602 1.12,-0.844 1.705,-0.836Zm30.566,0.047c0.176,1.504 0.768,3.142 0.6,4.546c-0.252,1.793 -1.763,2.855 -2.95,1.692c-0.146,-0.143 -0.411,-0.442 -0.411,-0.442c-0.535,0.684 -0.869,2.62 -0.869,2.62l-2.095,-1.305c-0,0 1.454,-1.031 1.856,-1.619c0.112,-0.164 0.165,-0.473 0.165,-0.473c-1.166,0.368 -2.155,-0.836 -1.838,-1.899c0.632,-1.74 3.768,-2.384 5.542,-3.12Zm14.805,1.039c0.794,-0.004 2.013,0.263 2.802,0.35c0.738,0.13 0.329,0.551 -1.323,2.175c-1.517,1.492 -1.469,1.351 -2.638,1.331c-2.731,-0.046 -3.208,0.015 -1.619,-1.716c0.833,-0.907 1.56,-1.726 2.157,-2.03c0.139,-0.077 0.356,-0.109 0.621,-0.11Zm-5.092,0.332c0.043,-0.016 0.08,-0.017 0.107,0c0.202,0.179 0.106,1.523 0.096,2.166c-0.021,1.223 -0.009,1.224 -0.517,1.864c-0.646,0.817 -1.182,1.651 -1.857,2.438c-0.584,0.64 -0.566,0.571 -0.915,-0.967c-0.339,-1.492 -0.078,-1.894 1.754,-4.118c0.344,-0.417 1.025,-1.27 1.332,-1.383Zm8.493,1.108c0.037,0.844 -0.009,1.839 -0,2.798c-5.634,5.561 -9.391,11.813 -11.994,18.706l-1.914,-0.929c3.653,-8.594 8.497,-15.216 13.908,-20.575Zm-48.788,1.602c-0.931,0 -1.685,0.761 -1.685,1.7c0,0.94 0.754,1.705 1.685,1.705c0.931,0 1.688,-0.765 1.688,-1.705c-0,-0.939 -0.757,-1.7 -1.688,-1.7Zm-0.012,0.535c0.643,0 1.165,0.528 1.165,1.177c0,0.649 -0.522,1.176 -1.165,1.176c-0.643,-0 -1.161,-0.527 -1.161,-1.176c-0,-0.649 0.518,-1.177 1.161,-1.177Zm-0.014,0.633c-0.309,0 -0.559,0.25 -0.559,0.559c0,0.308 0.25,0.558 0.559,0.558c0.308,-0 0.558,-0.25 0.558,-0.558c-0,-0.308 -0.25,-0.558 -0.558,-0.559Zm-62.575,0.086c17.574,11.38 25.453,29.022 25.418,44.177l-0.992,-0.451c-1.029,-21.415 -12.561,-34.582 -25.026,-43.102l0.6,-0.624Zm103.878,0.164c0.639,-0.007 1.315,0.089 1.885,0.152c1.455,0.078 1.634,0.171 0.631,1.331c-0.741,0.9 -1.802,2.451 -2.204,2.578c-0.306,0.106 -2.859,-0.015 -3.587,-0.116c-0.239,-0.034 0.073,-0.28 1.318,-2.074c0.954,-1.375 1.054,-1.83 1.957,-1.871Zm7.51,0.628c-0,-0 0.253,9.715 -0,15.94c-4.009,-0.15 -6.296,1.385 -7.275,4.292l-4.164,-2.104c3.09,-8.01 7.204,-13.538 11.439,-18.128Zm-12.42,0.079c0.227,0 0.342,0.579 0.407,1.517c0.335,1.77 0.198,1.897 -0.457,2.949c-0.651,1.045 -1.699,2.886 -1.84,2.241c-0.548,-1.81 -0.721,-2.931 -0.526,-3.296c0.701,-1.143 1.499,-2.519 2.416,-3.411Zm-100.259,0.282c14.126,8.828 24.459,23.904 24.886,42.119c-0,-0 -3.011,-1.426 -4.869,-2.469l-0.096,-1.769l0.981,-0.033l0.315,1.996l2.157,-0.071l-0.572,-4.98l-3.377,0.322l-0.681,-2.823l1.023,-0.22l0.566,1.82l2.195,-0.586l-1.168,-4.438l-3.393,0.936l-1.084,-2.996l1.127,-0.409l0.911,1.794l2.065,-0.725l-1.949,-4.45l-3.12,1.487l-1.584,-2.904l1.219,-0.655l0.98,1.726l1.931,-1.008l-2.388,-4.092l-2.961,1.669l-1.489,-2.251l0.92,-0.648l1.015,1.184l1.695,-1.212l-2.598,-3.529l-2.836,2.24l-2.095,-2.448l0.965,-0.828l1.442,1.304l1.611,-1.42l-3.088,-3.4l-2.7,2.483l-2.012,-1.762l0.986,-1.099l1.254,0.967l1.334,-1.596l-3.362,-2.795l-2.519,2.516l-2.414,-1.611l-0,-1.199c0.784,0.306 1.614,0.661 2.357,1.06l1.249,-1.911l-3.606,-2.457l0.777,-0.829Zm39.339,0.753l0.534,3.114c0.507,-0.847 0.912,-1.43 2.009,-1.102c1.317,0.541 1.335,2.543 0.219,5.609c-0.207,0.568 -0.462,1.059 -0.462,1.059c0,0 -0.578,-0.242 -0.962,-0.508c-0.806,-0.556 -2.164,-1.187 -2.858,-2.291c-0.726,-1.157 -0.742,-2.773 0.593,-2.635c0.265,-0 0.789,0.128 0.789,0.128l-2.004,-2.578l2.142,-0.796Zm-40.116,0.928l2.445,1.592l-0.508,0.932l-1.937,-0.882l-0,-1.642Zm61.322,0.734c0.709,1 -1.784,3.947 1.478,5.124c-0,0 0.08,0.678 -0.601,1.09c-1.595,1.172 -3.888,-0.967 -3.176,-3.168c0.454,-1.407 1.769,-3.038 2.299,-3.046Zm6.769,0.092c-0,0 0.984,0.727 1.181,0.917c1.816,1.758 1.834,4.277 0.189,5.158c-1.095,0.587 -2.333,0.114 -2.762,-0.737c-0.199,-0.394 0.128,-0.805 0.546,-0.803c0.783,0.008 1.382,-1.511 1.15,-3.106c-0.091,-0.632 -0.304,-1.429 -0.304,-1.429Zm21.429,0.585l0,0.002c0,-0 0.217,2.154 0.527,3.109c0.954,2.678 -0.264,4.309 -2.045,3.413c-0.254,-0.129 -0.705,-0.71 -0.705,-0.71l-0.176,3.077l-2.534,-0.745c0.548,-0.89 1.336,-1.522 1.926,-2.523c-0,-0 -0.379,-0.014 -0.711,-0.016c-1.514,0.052 -2.073,-1.642 -0.485,-3.037c1.182,-1.029 4.203,-2.57 4.203,-2.57l0,0Zm13.479,0.685c0.919,-0.025 1.876,0.062 2.622,0.16c-0.643,1.306 -1.327,2.431 -2.107,3.487c-0.13,0.092 -0.293,0.154 -0.529,0.206c-0.977,0.196 -2.085,0.061 -3.203,0.113c-0.243,-0.012 0.256,-0.852 0.534,-1.374c0.683,-1.279 1.199,-2.256 1.785,-2.524c0.289,-0.037 0.591,-0.06 0.898,-0.068l-0,0Zm-5.197,1.021c0.194,-0.01 0.337,0.341 0.522,1.067c0.431,1.696 0.542,1.738 -0.155,3.129c-0.351,0.702 -0.948,1.891 -1.194,2.383c-0.632,1.263 -0.668,1.251 -1.066,0.121c-0.763,-2.167 -0.83,-1.945 0.43,-4.379c0.787,-1.521 1.179,-2.305 1.463,-2.321Zm-92.695,0.594l2.273,1.84l-0.647,0.633l-1.257,-0.936l-1.858,2.008l3.055,2.809l2.583,-2.568l2.216,2.336l-0.677,0.578l-1.3,-1.266l-1.945,1.677l2.903,3.464l2.926,-2.251l1.835,2.426l-0.75,0.473l-1.197,-1.173l-1.904,1.332l2.369,3.369l2.986,-1.726l1.695,2.814l-0.942,0.457l-0.961,-1.545l-2.142,1.246l2.023,3.94l3.223,-1.358l1.296,3.009l-0.984,0.404l-0.827,-1.809l-2.171,0.865l1.454,4.139l3.27,-0.948l0.793,3.074l-1.008,0.284l-0.496,-1.704l-2.081,0.504l0.868,4.153l3.327,-0.213l0.396,3.358l-1.034,0.047l-0.258,-2.003l-2.119,0.027c0.012,0.706 0.093,2.147 0.093,2.147l-1.282,-0.598c-1.902,-12.769 -8.688,-23.411 -18.798,-30.82l-0.053,-1.525l2.462,1.577c-0,-0 2.256,-2.03 2.645,-2.547l-0,0Zm95.839,3.039c0.493,-0.013 0.984,-0.008 1.564,0c0.266,0.185 -0.071,0.803 -0.764,2.135c-0.958,1.842 -1.127,1.88 -2.922,2.322c-2.182,0.538 -2.119,0.658 -0.939,-1.882c0.456,-0.98 1.07,-2.144 1.487,-2.469c0.585,-0.062 1.081,-0.093 1.574,-0.106Zm-100.827,0.482c10.499,6.837 17.136,20.98 17.96,29.554c-0,0 -0.285,-0.193 -0.858,-0.458c-0.796,-0.369 -0.991,-0.611 -1.223,-1.779c-2.079,-10.484 -7.943,-19.382 -15.834,-25.664l-0.045,-1.653Zm94.682,1.75c0.523,-0.185 1.403,3.74 1.129,4.059l-2.538,-1.162c-0,-0 1.109,-2.834 1.409,-2.897Zm-50.631,0.149l-0.05,3.337c0,0 0.398,-0.478 0.604,-0.629c0.781,-0.575 1.973,0.223 2.018,1.208c0.063,1.367 -0.141,1.921 -1.225,3.819c-0.336,0.588 -0.843,1.336 -0.843,1.336c-0,0 -1.281,-0.921 -2.681,-2.329c-1.513,-1.521 -1.224,-3.552 0.1,-3.559c0.396,-0 0.749,0.132 1.096,0.244c-0.286,-0.984 -1.349,-2.892 -1.349,-2.892l2.33,-0.535Zm41.039,2.499c0,0 0.686,0.91 1.473,3.307c0.752,2.288 -0.405,4.012 -1.976,3.149c-0.282,-0.155 -0.577,-0.489 -0.577,-0.489c-0.11,1.109 0.084,3.105 0.111,3.121l-2.534,-0.447c-0,0 1.392,-2.231 1.492,-2.783c-0,0 -0.157,0.125 -0.854,0.125c-2.546,-0 -2.018,-3.059 0.923,-4.756c0.442,-0.254 1.942,-1.227 1.942,-1.227Zm14.6,0.039c0.551,-0.025 0.29,0.514 -0.32,1.77c-0.332,0.685 -0.556,1.061 -0.556,1.061c0,0 -1.828,-0.793 -2.647,-1.277c1.141,-0.961 1.858,-1.148 3.523,-1.554Zm-36.144,0.408c1.996,0.012 3.467,1.999 3.172,4.825c-0.507,4.85 -0.216,4.55 0.308,5.034c0.953,0.882 -0.338,1.412 -1.473,0.572c-0.791,-0.585 -1.048,-1.164 -1.011,-3.84c0.043,-3.076 -0.123,-3.859 -1.212,-3.59c-0.68,0.168 -0.894,0.751 -0.819,2.826c0.106,2.912 -0.086,3.644 -1.181,4.576c-1.181,0.923 -2.455,0.1 -1.376,-0.508c0.494,-0.56 0.586,-1.273 0.396,-3.032c-0.208,-1.499 -1.074,-6.889 3.196,-6.863Zm48.652,2.441c0.487,-0.015 0.965,0.005 1.452,0.012c3.841,0.145 13.554,0.943 13.554,0.943l0.083,2.897c-0.598,-0.089 -14.079,-1.211 -16.044,-0.634c0.866,0.363 0.786,4.731 -3.027,3.673c-3.233,-1.174 -1.684,-5.69 2.477,-6.7c0.523,-0.127 1.018,-0.176 1.505,-0.191l0,0Zm-48.668,1.712c0.218,0 0.394,0.878 0.394,1.968c-0,1.09 -0.176,1.968 -0.394,1.968c-0.219,-0 -0.395,-0.878 -0.395,-1.968c0,-1.09 0.176,-1.968 0.395,-1.968Zm27.99,0.234l8.301,4.129c1.161,15.727 6.54,32.344 24.859,44.939c-2.968,2.143 -10.413,7.407 -18.922,11.012l-0.696,-0.753c10.103,-17.343 2.47,-36.431 -15.222,-45.07c0.047,-4.813 0.647,-9.561 1.68,-14.257Zm17.749,1.982c-0.406,-0 -0.735,0.328 -0.735,0.733c0.001,0.405 0.33,0.733 0.735,0.732c0.405,0.001 0.733,-0.327 0.734,-0.732c-0,-0.405 -0.329,-0.733 -0.734,-0.733Zm7.499,0.307c1.29,-0.023 2.653,0.322 3.944,0.346l0.007,-0c1.587,-0.062 2.002,0.123 2.138,0.851c0.129,0.687 0.635,0.849 1.235,0.628c1.46,-0.537 2.351,2.078 1.142,3.238c-0.752,0.72 -0.62,0.997 -0,1.001c1.525,0.009 1.482,2.025 -0.068,3.168c-0.644,0.474 -0.636,0.689 0.038,1.024c1.127,0.562 0.9,1.673 -0.531,2.587c-0.779,0.497 -0.804,0.618 -0.162,0.795c1.619,0.444 -0.033,2.773 -1.804,2.36c-0.726,-0.17 -1.418,-0.011 -2.111,0.446c-1.897,0.798 -2.214,0.957 -4.262,0.7c-1.797,-0.333 -2.6,-0.93 -3.065,-2.523c-1.054,-3.24 -2.19,-6.829 -2.202,-10.366c-0.159,-2.172 3.446,-4.134 5.154,-4.219c0.181,-0.021 0.363,-0.032 0.548,-0.036l-0.001,0Zm-109.573,0.4c1.907,0 3.453,1.56 3.453,3.486c0,1.925 -1.546,3.487 -3.453,3.487c-1.907,-0 -3.453,-1.562 -3.453,-3.487c-0,-1.926 1.546,-3.486 3.453,-3.486Zm38.382,1.026l-0.311,3.046c0,0 0.508,-0.4 0.627,-0.501c0.899,-0.758 2.318,0.09 1.995,1.27c-0.105,1.039 -1.882,4.129 -2.591,4.777c0,0 -2.852,-3.135 -3.157,-3.749c-0.678,-1.363 0.248,-2.783 1.48,-2.18c0.176,0.085 0.684,0.465 0.684,0.465l-0.903,-2.892l2.176,-0.236Zm-38.073,0.108c-1.252,-0.091 -2.488,0.578 -2.301,1.94c0.104,0.431 0.755,-0.189 1.396,-0.596c1.225,-0.527 1.951,-0.062 2.638,0.88c0.244,0.301 0.512,0.548 0.663,0.4c0.123,-1.679 -1.144,-2.532 -2.396,-2.624Zm92.927,0.609l1.235,0.636c1.661,22.226 12.796,35.293 24.494,43.075l-0.93,0.568c-14.356,-9.284 -24.325,-25.919 -24.799,-44.279Zm1.87,0.912c0,0 3.099,1.602 4.722,2.341l0.062,2.011l-1.085,0.039l-0.369,-1.891l-2.253,0.163l0.704,4.651l3.634,-0.449l0.508,2.809l-1.23,0.261l-0.632,-1.727l-2.085,0.511l1.351,4.519l3.277,-1.067l1.027,2.954l-1.101,0.404l-0.703,-1.733l-2.158,0.762l1.67,4.41l3.41,-1.107l1.378,2.76l-1.035,0.463l-0.989,-1.712l-2.045,1.055l2.4,4.119l3.08,-1.63l1.439,2.2l-1.132,0.766l-1.027,-1.348l-1.657,1.103l2.653,3.657l2.655,-2.007l1.985,2.31l-0.877,0.783l-1.354,-1.386l-1.604,1.445l3.161,3.502l2.745,-2.407l1.951,1.832l-0.578,0.613l-1.311,-0.826l-1.738,1.864l3.319,2.914l2.635,-2.914l2.233,1.66l0,1.227l-1.995,-1.021l-1.339,2.034l3.334,2.547l-0.021,1.002c-19.035,-11.463 -24.044,-29.242 -25.015,-42.466l0,0Zm-38.971,0.222c0.822,-0.024 1.691,0.756 3.126,2.434c4.011,4.69 2.941,11.946 -2.303,15.73c-0.764,0.551 -1.071,0.502 -2.004,-0.307c-5.378,-4.665 -5.689,-10.904 -0.9,-16.383c0.828,-0.947 1.44,-1.454 2.081,-1.474Zm19.227,0.644c0.989,1.53 2.238,3.106 2.38,4.966c-0.071,1.838 -1.298,2.176 -2.569,1.106c-0.161,0.965 0.384,2.844 0.384,2.844l-2.3,-0.247c0,-0 0.903,-1.59 0.939,-2.585c-1.597,1.123 -2.817,-0.342 -2.6,-1.523c0.457,-2.007 2.092,-3.362 3.766,-4.561Zm-19.157,1.199c-0.188,0.015 -0.385,0.147 -0.686,0.39c-1.4,1.134 -2.501,2.544 -3.072,4.009c-1.206,3.092 -0.419,6.578 2.3,9.283c1.381,1.373 1.867,1.279 3.985,-1.561c1.773,-2.379 2.141,-5.453 1.049,-8.122c-0.533,-1.303 -1.499,-2.572 -2.658,-3.493c-0.445,-0.354 -0.675,-0.525 -0.918,-0.506Zm44.243,0.572l1.784,0.884c2.277,15.157 9.657,24.404 17.927,30.78l-0.016,1.406l-2.219,-1.735l-2.657,2.805l-2.155,-1.781l0.808,-0.792l1.227,0.789l1.569,-1.775l-3.087,-2.779l-2.693,2.357l-2.242,-2.329l0.681,-0.575l1.549,1.366l1.735,-1.554l-3,-3.396l-2.684,2.055l-1.873,-2.509l0.815,-0.489l0.98,1.359l2.07,-1.302l-2.189,-3.395l-3.118,1.615l-1.596,-2.903l0.907,-0.44l1.035,1.631l1.942,-0.943l-1.954,-4.007l-3.189,1.062l-1.172,-3.151l0.912,-0.338l0.803,1.865l2.158,-0.699l-1.466,-4.313l-3.296,0.937l-0.815,-3.17l1.02,-0.22l0.534,1.712l2.266,-0.46l-0.832,-4.107l-3.372,0.432c-0.112,-0.698 -0.61,-2.577 -0.601,-3.288l1.039,-0.085l0.327,1.809l2.269,-0.078l-0.131,-2.251Zm-44.124,0.329c1.237,0.171 2.746,2.575 3.087,3.448c0.652,1.725 0.707,3.724 0.112,5.274c-0.486,1.267 -1.941,3.517 -2.865,4.151c-0.745,0.408 -1.37,0.105 -2.435,-1.355c-2.104,-2.886 -2.509,-6.357 -0.849,-8.735c1.268,-1.816 2.209,-2.785 2.95,-2.783Zm46.516,0.749l0.896,0.427c1.101,8.783 6.257,20.835 16.407,28.046l-0,1.105c-7.894,-5.718 -15.14,-15.582 -17.303,-29.578Zm-46.675,0.599c-3.534,2.689 -2.968,6.899 -0.291,9.735c2.884,-1.926 3.904,-7.13 0.291,-9.735Zm-53.943,0.176c1.994,-0.047 3.257,0.655 3.864,2.05c0.943,2.167 1.071,2.578 1.265,3.715c0.111,0.65 0.282,1.632 0.377,2.179c1.035,5.888 0.274,8.108 -3.268,9.026c-1.057,0.274 -2.532,0.364 -3.562,0.113c-0.271,-0.065 -1.26,-0.071 -2.038,-0.097c-1.545,-0.05 -2.016,-0.216 -2.791,-0.851c-0.28,-0.228 -0.55,-0.412 -0.886,-0.465c-1.768,-0.283 -2.295,-1.916 -0.954,-3.125c0.764,-0.688 0.841,-0.781 0.77,-0.899c-0.04,-0.066 -0.366,-0.12 -0.727,-0.122c-1.782,-0.011 -1.763,-1.861 0.031,-3.183c0.853,-0.628 1.236,-1.221 0.672,-1.076c-1.624,0.387 -2.198,-2.01 -0.5,-2.754c0.904,-0.51 1.554,-0.936 0.681,-0.984c-0.732,0.064 -1.329,-0.482 -1.105,-1.126c0.272,-0.779 1.759,-1.488 2.616,-1.223c0.67,0.208 1.324,0.396 1.743,0.092c1.016,-0.738 1.47,-1.068 2.345,-1.186c0.507,-0.069 1.039,-0.086 1.465,-0.084l0.002,-0Zm59.26,0.451l8.069,0.16l-0,8.111l-7.835,-0.149c-0,0 1.692,-3.624 -0.234,-8.122Zm-18.443,0.188l7.931,0.097c-1.293,3.056 -0.81,6.194 -0.334,7.964l-7.597,-0.119l-0,-7.942Zm13.112,1.064c1.322,0.778 1.687,4.414 -0.15,5.869c-1.749,-1.813 -1.399,-4.825 0.15,-5.869Zm-19.28,2.472l2.104,0.198l-0.751,3.039c0,0 0.34,-0.36 0.451,-0.395c2.702,-1.281 2.896,1.621 0.145,4.243c-0.608,0.577 -1.583,1.371 -1.583,1.371c0,-0 -0.766,-1.169 -1.374,-2.225c-0.691,-1.062 -1.16,-2.199 -1.042,-2.803c0.172,-0.876 1.215,-1.455 1.881,-0.92c0.327,0.264 0.707,0.663 0.707,0.663l-0.538,-3.171Zm37.559,2.229c0,0 0.883,0.912 1.42,1.505c1.857,2.051 2.176,3.971 1.235,4.554c-0.809,0.374 -1.311,0.117 -1.962,-0.416c0.135,1.272 1.135,3.148 1.111,3.152l-2.774,0.452c0,-0 0.686,-2.548 0.629,-3.51c-0,0 -0.571,0.442 -0.824,0.551c-1.811,0.668 -2.707,-1.409 -1.219,-3.478c1.249,-1.736 2.384,-2.81 2.384,-2.81Zm37.879,3.843c1.86,0 3.369,1.522 3.369,3.401c0,1.878 -1.509,3.4 -3.369,3.4c-1.861,0 -3.37,-1.522 -3.37,-3.4c0,-1.879 1.509,-3.401 3.37,-3.401Zm1.661,1.556c-0.145,0.033 -0.264,0.37 -0.281,1.114c-0.168,1.526 -1.425,2.14 -2.8,1.433c-0.556,-0.286 -1.028,-0.71 -1.03,-0.385c-0,0.174 0.445,1.084 0.762,1.395c1.165,1.057 4.002,0.806 3.938,-1.658c-0.031,-1.16 -0.347,-1.953 -0.589,-1.899Zm-61.171,1.277c0.366,-0.025 0.83,0.129 1.127,0.44c0.921,0.635 1.095,1.446 1.153,4.507c0.052,2.7 0.001,2.765 0.439,3.093c1.081,0.802 1.732,-0.421 1.423,-3.156c-0.298,-2.634 0.644,-4.548 2.22,-4.538c0.776,0.007 0.919,0.465 0.33,1.052c-0.622,0.619 -0.772,1.376 -0.577,2.899c0.5,3.903 0.069,5.82 -1.557,6.612c-1.695,0.826 -3.876,-0.123 -4.258,-2.282c-0.245,-1.441 -0.243,-3.15 -0.074,-4.76c0.031,-1.693 -0.009,-1.886 -0.593,-2.857c-0.413,-0.652 -0.106,-0.977 0.365,-1.01l0.002,0Zm-42.626,1.266c0.938,-0 1.91,0.546 2.492,1.759c1.403,2.925 -1.637,5.331 -4.426,5.519c-4.843,0.073 -10.598,-0.631 -15.458,-1.284l0.078,-2.764c4.46,0.26 9.488,0.626 14.906,0.881c-0.617,-2.57 0.846,-4.108 2.408,-4.111Zm25.468,0.567l2.695,0.601l-1.715,2.83c0.508,-0.222 0.861,-0.377 1.37,-0.189c1.098,0.4 1.112,1.804 0.307,3.117c-0.637,0.953 -2.429,2.091 -3.651,2.79c-0.686,-1.488 -2.203,-4.092 -1.599,-5.515c0.32,-0.756 1.208,-1.124 2.035,-0.711c0.273,0.165 0.796,0.435 0.796,0.435l-0.238,-3.358Zm6.372,0.078l8.215,0.097c-1.194,8.383 -3.53,19.578 -8.134,28.703l-1.935,0.504c4.06,-9.067 6.76,-17.57 8.022,-27.076l-4.106,-0c-2.363,10.202 -5.859,19.658 -11.234,27.872l-2.389,-0.784c5.744,-9.192 10.296,-19.449 11.561,-29.316Zm18.737,0.147l9.157,-0c1.684,17.07 7.398,28.72 15.903,40.245c-0,-0 -0.536,0.12 -0.853,-0.017c-0.882,-1.11 -1.691,-1.789 -3.012,-2.13c-7.148,-10.387 -11.943,-24.909 -13.099,-36.017l-5.446,-0c0.62,13.952 4.449,25.391 9.545,36.471l-2.764,0.512c-4.093,-9.915 -8.58,-18.544 -9.431,-39.064l0,-0Zm-4.717,1.094c0.218,0 0.393,0.878 0.393,1.968c-0,1.09 -0.175,1.968 -0.393,1.968c-0.218,-0 -0.394,-0.878 -0.394,-1.968c-0,-1.09 0.176,-1.968 0.394,-1.968Zm-45.811,0.212c-0.405,0.001 -0.733,0.329 -0.733,0.733c0.001,0.404 0.329,0.732 0.733,0.732c0.405,0 0.734,-0.327 0.734,-0.732c0,-0.405 -0.328,-0.733 -0.734,-0.733Zm64.778,0.802c0.753,0.589 1.568,1.166 2.335,1.727c2.062,1.46 2.034,4.222 0.029,4.209c-0.213,-0 -0.708,-0.032 -0.708,-0.032c0,-0 0.819,1.81 1.335,2.726c-0.835,0.224 -2.581,0.555 -2.581,0.555c-0,0 0.25,-1.777 0.2,-3.249c0,-0 -0.334,0.377 -0.611,0.508c-1.329,0.561 -2.454,-0.61 -2.288,-1.995c0.225,-1.869 2.288,-4.449 2.288,-4.449l0.001,0Zm-61.177,0.334l4.506,2.259c-3.071,7.057 -6.688,13.665 -11.775,18.688l0.231,-16.309c2.777,-0.082 5.625,-0.106 7.038,-4.638Zm30.821,0.256l2.772,-0c-1.23,13.019 -9.753,30.632 -11.353,32.756l-0.527,0.4c0.033,-0.018 -1.091,-3.993 -2.369,-5.423c4.808,-6.546 9.847,-19.126 11.477,-27.733Zm19.498,-0l4.189,-0c1.305,10.374 4.482,21.582 12.534,35.194c-0,-0 -0.807,0.081 -1.431,-0.296c-1.372,-0.858 -2.326,0.279 -3.146,0.234c-1.282,-0.07 -1.493,-0.146 -2.816,0.171c-6.644,-14.146 -8.53,-25.281 -9.33,-35.303Zm-45.245,2.329l1.495,0.71c-3.216,7.51 -6.221,13.478 -13.841,20.804l-0,-2.182c5.353,-5.233 9.056,-12.131 12.345,-19.332l0.001,-0Zm2.183,1.048c0.877,0.408 1.741,0.817 2.529,1.363c-0.938,1.118 -2.021,1.561 -3.421,1.685c-0.652,0.154 -0.447,-0.505 0.26,-1.949c0.319,-0.65 0.632,-1.099 0.632,-1.099Zm2.988,1.591l2.709,1.343c-0,0 -0.319,1.104 -0.89,2.35c-0.878,1.917 -1.053,1.959 -1.316,0.384c-0.046,-0.271 -0.306,-1.167 -0.465,-1.762c-0.367,-1.38 -0.038,-2.315 -0.038,-2.315l-0,0Zm3.272,1.549c0,0 1.052,0.516 1.394,0.742c-4.693,14.186 -17.19,25.911 -17.123,25.641l-1.95,-1.157c8.317,-7.584 14.411,-16.542 17.679,-25.226Zm-4.96,0.203c0.454,0.01 0.058,0.573 -0.554,1.937c-0.581,1.336 -0.772,1.809 -1.316,2.022c-0.779,0.285 -1.898,0.294 -2.891,0.47c-0.425,0.075 -0.247,-0.254 0.407,-1.596c0.768,-1.574 0.81,-1.901 2.015,-2.228c0.696,-0.109 1.634,-0.611 2.339,-0.605Zm0.907,0.541c0.385,0.154 0.613,2.146 0.738,2.278c0.484,1.756 0.474,2.102 0.15,2.712c-0.607,1.145 -1.4,2.48 -1.618,2.842c-0.547,0.905 -0.703,0.717 -1.027,-1.482c-0.202,-1.364 -0.378,-1.978 -0.228,-2.572c0.272,-0.672 1.086,-2.255 1.546,-3.182c0.165,-0.494 0.31,-0.647 0.439,-0.596Zm9.377,0.743l2.462,0.816l-1.932,2.353c-0,-0 0.811,-0.148 0.905,-0.109c1.937,0.13 1.614,2.073 0.114,3.249c-0.621,0.574 -3.684,1.98 -3.684,1.98c-0.328,-1.739 -1.003,-2.85 -0.842,-4.635c0.114,-0.962 0.199,-1.829 1.366,-1.856c0.614,-0.034 0.862,0.601 1.261,1.111l0.35,-2.909Zm44.621,2.108c-0,-0 1.482,0.773 2.857,1.841c1.793,1.393 2.1,3.03 0.308,3.661c-0.207,0.073 -0.796,0.042 -0.796,0.042c0.493,0.868 1.664,2.157 1.664,2.157c-0.587,0.415 -1.415,0.74 -2.334,1.029c0,0 -0.227,-2.158 -0.446,-2.992c0,0 -0.237,0.471 -0.531,0.656c-1.726,1.084 -3.082,-0.96 -2.154,-3.545c0.564,-1.57 1.432,-2.849 1.432,-2.849l-0,-0Zm-18.98,0.361c4.311,-0.106 1.785,7.02 -0.369,6.56c-0.037,-0.065 1.779,-4.214 -0.666,-4.874c-1.121,-0.303 -0.155,-1.7 1.035,-1.686Zm-7.069,0.506c1.34,-0.009 2.314,0.944 1.035,1.544c-2.014,0.944 -0.816,3.207 -0.77,4.488c0.028,0.784 -1.794,-0.683 -2.181,-2.275c-0.5,-2.058 -0.268,-3.581 1.916,-3.757Zm-31.887,0.748c0.297,-0 0.521,0.023 0.596,0.082c0.126,0.336 -0.476,1.387 -1.354,2.733c-0.467,0.717 -0.667,0.917 -0.953,1.086c-0.679,0.386 -1.632,0.286 -2.426,0.343c-1.185,0.015 -0.977,-0.009 0.334,-2.069c0.585,-0.921 0.955,-1.675 1.303,-1.915c0.07,-0.045 1.609,-0.258 2.5,-0.26Zm1.302,0.754c0.157,0.021 0.252,0.288 0.252,0.733c-0,2.577 0.868,3.422 0.231,4.235c-0.779,1.266 -1.774,2.652 -2.135,3.091c-0.608,0.738 -0.541,0.598 -0.7,-1.332c-0.116,-1.399 -0.242,-2.335 -0.062,-2.771c0.521,-1.264 1.14,-1.868 1.785,-3.211c0.252,-0.542 0.472,-0.767 0.629,-0.745Zm34.28,2.026c1.252,0.017 2.026,1.36 1.97,2.592l-0.054,1.18c1.618,-0.626 3.626,-0.017 3.715,1.585c0.151,2.715 -1.831,2.4 -3.508,2.286c0.17,0.064 0.418,2.455 -0.579,3.37c-1.565,1.768 -4.484,-0.039 -3.751,-2.632c0.152,-0.539 0.185,-0.877 0.185,-0.877c0,-0 -1.046,0.38 -1.415,0.364c-3.174,-0.137 -2.932,-4.667 0.257,-4.134c0.652,0.109 1.092,0.268 1.092,0.268c0,-0 -0.068,-0.286 -0.176,-0.691c-0.464,-1.744 0.509,-3.335 2.264,-3.311l-0,0Zm63.5,0.807l1.712,0.993l-0,1.927l-2.434,-1.818l0.722,-1.102Zm-102.59,1.289c0.675,-0.008 1.205,0.047 1.101,0.21c-0,0.343 -1.477,2.416 -2.35,3.362c-0.744,0.807 -0.849,0.691 -2.669,0.601c-0.714,-0.035 -1.182,-0.041 -1.162,-0.234c0.838,-1.109 1.994,-2.537 2.792,-3.729c0.314,-0.097 1.421,-0.202 2.288,-0.21Zm1.566,1.055c0.372,0.084 0.299,2.005 0.388,3.184c0.119,1.105 0.119,1.103 -0.35,1.762c-0.572,0.62 -1.155,1.534 -1.892,2.244c-1.107,1.239 -0.994,1.31 -0.977,-1.339c0.013,-2.069 -0.141,-2.068 0.274,-2.554c0.227,-0.267 0.932,-1.137 1.396,-1.817c0.705,-1.033 0.977,-1.477 1.161,-1.48Zm10.653,0.214l2.276,1.227l-2.28,2.333c-0,-0 0.571,-0.001 0.762,0.035c1.465,0.287 1.355,1.854 -0.119,3.024c-0.906,0.577 -4.016,1.719 -4.016,1.719c-0.107,-1.317 -0.383,-2.53 -0.331,-3.944c0.022,-0.652 0.083,-1.361 0.578,-1.925c0.343,-0.383 0.915,-0.605 1.719,-0.081c0.422,0.379 0.641,0.807 0.641,0.807l0.77,-3.195Zm26.868,0.797c-0.892,-0 -1.616,0.729 -1.616,1.63c0,0.9 0.724,1.631 1.616,1.631c0.892,-0 1.616,-0.731 1.616,-1.631c-0,-0.901 -0.724,-1.63 -1.616,-1.63Zm25.452,0.383c0,0 2.98,1.131 4.322,2.372c1.254,1.056 0.665,2.795 -0.58,2.831c-0.09,-0 -0.619,-0.078 -0.619,-0.078c0.422,0.647 1.835,2.236 1.835,2.236l-2.305,0.944c0,-0 -0.368,-1.79 -0.653,-2.795c-0.803,1.871 -2.784,0.653 -2.915,-0.513c-0.319,-1.709 0.401,-3.379 0.915,-4.997Zm-25.452,0.144c0.62,0 1.123,0.507 1.123,1.133c-0,0.626 -0.503,1.135 -1.123,1.135c-0.62,-0 -1.123,-0.509 -1.123,-1.135c0,-0.626 0.503,-1.133 1.123,-1.133Zm-0.009,0.585c-0.309,0 -0.559,0.25 -0.559,0.559c-0,0.308 0.25,0.558 0.559,0.558c0.309,0 0.559,-0.25 0.559,-0.558c0,-0.309 -0.25,-0.559 -0.559,-0.559Zm-43.423,1.73c0.555,0.007 1.123,0.035 1.701,0.06l-0,0.002c0.342,0.264 -0.373,1.086 -1.754,2.549c-1.107,1.174 -1.271,1.011 -2.612,1.022c-2.25,0.018 -2.304,0.032 -1.271,-1.154c1.132,-1.299 1.79,-2.136 2.313,-2.407c0.526,-0.063 1.068,-0.079 1.623,-0.072l-0,-0Zm2.182,1.18c0.348,0.027 0.119,1.419 0.141,1.916l-0.064,2.353l-1.751,1.7c-2.026,1.83 -1.783,1.945 -1.769,0.234c0.011,-1.36 -0,-2.317 0.288,-2.92c0.885,-1.076 1.806,-2.028 2.812,-3.055c0.152,-0.167 0.263,-0.234 0.343,-0.228l0,-0Zm44.494,0.55c0.487,-0.042 1.73,2.106 2.042,3.906c0.711,4.108 3.15,6.055 4.866,4.405c0.698,-0.97 0.775,0.088 0.741,0.594c-0.36,5.205 -6.203,3.039 -6.868,-2.131c-2.051,1.344 -3.965,-1.37 -2.743,-1.327c2.891,-0.927 2.101,-3.608 1.962,-5.447Zm-6.769,0.039c0.286,1.801 -2.931,4.885 -4.739,2.722c-0.921,-1.101 -0.082,-3.37 1.088,-1.972c1.294,0.966 2.549,-0.155 3.651,-0.75Zm-43.789,2.404c0.553,0.029 1.205,0.11 1.642,0.119c0.59,0.061 0.168,0.347 -1.108,1.521c-1.099,1.012 -1.469,1.463 -1.595,1.022c-0.061,-0.684 -0.008,-1.498 -0,-2.462c0.052,-0.203 0.507,-0.228 1.061,-0.2Zm14.598,1.261l1.961,1.443l-1.944,1.809c1.745,-0.087 1.898,1.565 1.236,2.485c-0.429,0.646 -2.082,1.326 -3.737,1.596c-0.996,0.163 -1.808,0.282 -1.808,0.282c-0,0 -0.038,-0.773 -0.065,-2.06c-0.058,-2.632 0.12,-3.668 1.122,-4.181c0.718,-0.367 1.933,0.209 2.231,0.88c0.099,0.223 0.358,0.61 0.358,0.61l0.646,-2.864Zm-12.621,0.143c0.009,-0 0.011,-0 0.015,0.007c0.111,0.151 -0.288,4.434 -0.288,4.434l-2.765,-1.615c0,-0 2.8,-2.772 3.039,-2.823l-0.001,-0.003Zm75.218,0.505c2.024,0.963 3.429,0.916 4.902,1.968c1.092,0.779 0.834,2.351 -0.031,2.736c-0.391,0.121 -1.035,0.055 -1.035,0.055c0.715,0.892 2.282,2.019 2.282,2.019l-2.49,1.052c0,0 -0.342,-1.696 -0.659,-2.62c-0.454,1.375 -1.991,1.341 -2.866,0.695c-0.621,-0.479 -0.876,-2.086 -0.58,-3.478c0.078,-0.368 0.477,-2.427 0.477,-2.427l-0,0Zm-13.312,39.863c-24.575,5.878 -44.534,2.243 -46.515,1.549l-1.567,2.357c-0.191,0.401 -0.307,1.596 -1.368,1.921l-1.591,2.4l0.311,0.333l-1.413,1.243l0.343,0.415l-1.027,1.506l-0.405,-0.043l-2.376,3.646l0.363,0.407l-5.459,8.622l73.83,0.024c-4.291,-8.171 -8.883,-16.184 -13.126,-24.38l-0,0Zm-0.446,1.061l0.603,1.254c-4.225,-1.096 -7.619,0.57 -9.726,3.59c-4.54,-3.443 -10.244,-2.362 -14.031,1.506c-3.503,-3.585 -9.629,-4.126 -14.063,-0.469c-1.866,-4.061 -8.824,-4.25 -8.891,-3.781c-0,0 0.268,-0.414 0.331,-0.614c8.559,1.992 28.117,2.806 45.777,-1.486Zm-2.079,1.684c0.982,0.036 1.986,0.235 3.24,0.598l0.758,1.327c-1.6,-0.855 -8.439,-2.813 -10.38,4.05c-2.042,-2.786 -10.462,-6.827 -14.733,1.762c-1.215,-2.327 -8.286,-9.022 -14.735,-0.489c-2.541,-5.303 -4.665,-5.747 -9.33,-5.023c3.315,-3.216 7.98,0.131 9.957,2.869c5.564,-4.658 10.216,-3.258 14.28,0.532c5.244,-5.764 10.475,-4.375 14.154,-1.483c1.938,-2.879 3.843,-4.25 6.789,-4.143Zm2.923,2.977c0.142,-0.008 0.285,-0.006 0.427,0.005c0.68,0.054 1.361,0.337 2.05,0.908c-0,0 -0.669,0.113 -0.883,0.171c-2.92,0.783 -2.283,4.935 0.719,4.934c0.286,0 0.998,-0.113 0.998,-0.113c-0.057,2.811 0.788,3.497 3.633,3.339l4.823,8.703l-71.34,-0.31l4.529,-7.314c2.279,0.269 3.711,-1.009 3.204,-2.962c-0,0 1.402,0.433 1.795,0.435c2.579,0.017 3.248,-3.978 0.775,-4.67c-0.275,-0.077 -0.968,-0.154 -1.052,-0.179c1.131,-2.851 4.237,-1.168 5.126,0.015c2.003,-1.662 4.218,-0.918 5.167,1.234c-0,0 -0.374,-0.211 -0.489,-0.295c-2.345,-1.732 -4.526,1.855 -2.229,3.509c0.226,0.163 0.703,0.303 0.703,0.303c0,-0 -0.278,0.23 -0.534,0.664c-1.192,2.024 0.726,4.489 3.044,3.855c1.78,-0.704 1.807,-2.054 1.806,-3.541c-0,0 0.613,0.049 1.164,0.055c2.136,0.025 2.749,-2.736 1.442,-4.019c-0.706,-0.694 -1.631,-0.64 -2.088,-0.729c2.462,-2.44 4.13,-0.756 5.868,0.369c0.263,-0.008 3.016,-3.344 6.289,-0.067c-1.589,-0.419 -3.214,0.621 -3.236,2.29c0.032,1.074 0.791,2.023 2.437,2.098c-0.177,0.54 -0.295,0.943 -0.305,1.467c-0.032,1.753 1.316,2.842 3.03,2.573c1.432,-0.184 2.49,-1.837 1.98,-3.211c-0.23,-0.619 -0.544,-0.845 -0.544,-0.845c3.856,0.487 3.789,-4.443 0.791,-4.742c-0.71,-0.071 -1.26,0.24 -1.977,0.902c1.763,-3.639 4.988,-2.909 6.196,-1.421c1.656,-1.214 3.941,-2.873 6.673,0.083c-0.45,-0.096 -1.085,-0.12 -1.635,0.028c-2.163,0.579 -2.172,3.355 -0.457,4.2c0.482,0.237 1.074,0.375 1.711,0.351c-0.571,2.332 1.996,4 3.812,2.883c1.302,-0.801 1.644,-2.691 0.236,-4.416c2.37,-0.107 2.603,-3.09 1.234,-4.135c-1.073,-0.82 -2.34,-0.43 -3.256,0.652c-0.295,-0.856 2.05,-3.831 5.359,-1.687c1.019,-0.796 2.012,-1.313 3.004,-1.369l0,-0.001Zm3.51,3.242l0.928,1.701c-0.617,0.061 -1.502,-0.606 -0.928,-1.701Zm-11.96,1.727c0.58,-0 1.049,0.476 1.049,1.061c0,0.585 -0.469,1.06 -1.049,1.06c-0.58,-0 -1.049,-0.475 -1.049,-1.06c-0,-0.585 0.469,-1.061 1.049,-1.061Zm-43.302,0.063c0.14,0.569 0.202,1.137 -0.823,1.246l0.823,-1.246Zm12.062,1.024c0.531,0 0.96,0.434 0.96,0.97c-0,0.536 -0.429,0.972 -0.96,0.972c-0.531,-0 -0.963,-0.436 -0.963,-0.972c-0,-0.536 0.432,-0.97 0.963,-0.97Zm16.002,0.303c0.563,0 1.018,0.461 1.018,1.029c0,0.568 -0.455,1.029 -1.018,1.029c-0.563,-0 -1.02,-0.461 -1.02,-1.029c0,-0.568 0.457,-1.029 1.02,-1.029Z" style="fill-rule:nonzero;"/><path id="path153-6-3-1-9-0-4-7" d="M47.878,26.156c-7.381,10.526 -15.278,16.583 -15.409,24.795c-0.044,2.659 1.394,7.178 5.897,8.043c2.921,0.559 6.944,-1.806 7.028,-6.61c-0.013,-0.956 1.013,-0.931 1.003,0.379c-0.138,3.79 -1.337,8.202 -3.353,11.793l9.669,-0c-2.016,-3.591 -3.216,-8.003 -3.353,-11.793c-0.01,-1.31 1.015,-1.335 1.003,-0.379c0.084,4.804 4.106,7.169 7.028,6.61c4.503,-0.865 5.941,-5.384 5.897,-8.043c-0.132,-8.212 -8.029,-14.269 -15.41,-24.795Z" style="fill-rule:nonzero;"/><path id="path153-6-3-1-8-6-4-8-4" d="M130.705,223.293c-7.381,-10.526 -15.279,-16.583 -15.41,-24.795c-0.044,-2.659 1.394,-7.178 5.897,-8.044c2.922,-0.558 6.944,1.806 7.028,6.61c-0.013,0.957 1.013,0.932 1.003,-0.379c-0.137,-3.789 -1.337,-8.201 -3.353,-11.792l9.669,-0c-2.016,3.591 -3.216,8.003 -3.353,11.792c-0.01,1.311 1.016,1.336 1.003,0.379c0.084,-4.804 4.106,-7.168 7.028,-6.61c4.503,0.866 5.941,5.385 5.897,8.044c-0.131,8.212 -8.029,14.269 -15.409,24.795Z" style="fill-rule:nonzero;"/></g></svg>