<?xml version="1.0" encoding="UTF-8" standalone="no"?><!DOCTYPE svg PUBLIC "-//W3C//DTD SVG 1.1//EN" "http://www.w3.org/Graphics/SVG/1.1/DTD/svg11.dtd"><svg width="100%" height="100%" viewBox="0 0 179 250" version="1.1" xmlns="http://www.w3.org/2000/svg" xmlns:xlink="http://www.w3.org/1999/xlink" xml:space="preserve" xmlns:serif="http://www.serif.com/" style="fill-rule:evenodd;clip-rule:evenodd;stroke-linejoin:round;stroke-miterlimit:2;"><g id="g4922"><path id="rect6355-6-85-3-64-3-5" d="M178.583,7.972c-0,-4.4 -3.573,-7.972 -7.973,-7.972l-162.638,0c-4.4,0 -7.972,3.572 -7.972,7.972l0,233.504c0,4.4 3.572,7.973 7.972,7.973l162.638,-0c4.4,-0 7.973,-3.573 7.973,-7.973l-0,-233.504Z" style="fill:#fff;"/><path id="path147-6-9-8-7-0-5-6-9-6-3" d="M164.811,209.47c3.142,-0.071 4.55,-3.751 2.224,-6.609c-0.338,-0.417 -0.373,-0.656 0.245,-0.255c1.567,1.09 4.571,0.373 4.725,-2.959c0.19,-4.105 -5.324,-5.288 -6.359,-0.923c-0.055,0.461 -0.415,0.45 -0.328,-0.203c0.094,-1.775 0.627,-3.433 1.359,-5.051l-3.735,0c0.732,1.618 1.265,3.276 1.359,5.051c0.087,0.653 -0.273,0.664 -0.327,0.203c-1.036,-4.365 -6.55,-3.182 -6.36,0.923c0.154,3.332 3.158,4.049 4.725,2.959c0.618,-0.401 0.583,-0.162 0.246,0.255c-2.327,2.858 -0.918,6.538 2.223,6.609c0.001,0 0,0 0,0l0.003,0Z" style="fill-rule:nonzero;"/><path id="path147-6-9-8-7-4-5-62-08-0-2" d="M13.773,39.979c-3.142,0.07 -4.551,3.751 -2.224,6.608c0.337,0.417 0.372,0.657 -0.246,0.256c-1.567,-1.09 -4.57,-0.373 -4.724,2.959c-0.19,4.105 5.324,5.288 6.359,0.923c0.055,-0.461 0.414,-0.451 0.328,0.203c-0.095,1.775 -0.627,3.433 -1.36,5.051l3.735,-0c-0.732,-1.618 -1.264,-3.276 -1.359,-5.051c-0.087,-0.654 0.273,-0.664 0.328,-0.203c1.035,4.365 6.549,3.182 6.359,-0.923c-0.154,-3.332 -3.158,-4.049 -4.724,-2.959c-0.618,0.401 -0.584,0.161 -0.246,-0.256c2.327,-2.857 0.918,-6.537 -2.224,-6.608l-0.002,-0Z" style="fill-rule:nonzero;"/><path id="path39-7-2-1" d="M14.411,34.562l2.655,0l-3.901,-9.748l-2.981,4.118l0.021,5.63l2.093,0l0,2.904l-7.376,-0l-0,-2.904l2.43,0l0,-20.963l-2.43,0.009l-0,-2.538l7.484,0l0,2.624l-2.065,0l-0.044,10.218l6.533,-10.304l-2.306,0l0,-2.538l7.963,0l0,2.538l-2.101,0l-5.379,8.42l5.267,12.539l2.338,-0l0.012,2.903l-8.189,0l-0.024,-2.908l-0,0Z" style="fill-rule:nonzero;"/><path id="path39-3-8-1-1" d="M164.17,214.887l-2.655,-0l3.901,9.748l2.981,-4.118l-0.021,-5.63l-2.093,-0l-0,-2.904l7.377,-0l-0,2.904l-2.431,-0l0,20.963l2.431,-0.009l-0,2.538l-7.485,-0l-0,-2.624l2.065,-0l0.044,-10.218l-6.533,10.304l2.306,-0l-0,2.538l-7.963,-0l-0,-2.538l2.101,-0l5.379,-8.42l-5.267,-12.539l-2.338,0l-0.012,-2.903l8.189,-0l0.024,2.907l0,0.001Z" style="fill-rule:nonzero;"/><g id="g5429-3-1-8"><g id="KC"><g id="KC-7-1-9"><g id="g3440-6-4-8"><g id="g3454-7-1-1"><path id="path3450-5-0-3" d="M128.77,20.756l-65.657,0.322l8.338,15.923c17.064,-1.547 32.019,-0.171 47.598,0.341l9.721,-16.586Zm-44.841,55.985c-0.069,0.093 -2.732,0.786 -2.46,1.395c6.953,15.005 10.058,27.214 12.962,42.635c1.468,-1.201 3.842,-1.153 3.842,-1.153c-1.171,-5.726 5.991,-6.44 6.038,-0.449c1.375,0.321 2.789,0.326 4.03,1.726c0.557,-16.852 6.91,-34.735 14.658,-46.816c-8.83,3.522 -22.137,12.747 -22.137,12.747c-0,0 -10.78,-4.488 -16.933,-10.085Zm53.667,1.794c-11.751,11.243 -16.012,41.442 -15.507,42.883c-15.147,-0.509 -19.738,16.32 -6.608,25.394c-0.519,1.76 -1.801,3.192 -2.794,4.747c1.354,0.782 2.832,0.949 4.309,1.112c1.121,1.339 2.223,2.884 3.44,3.011c1.321,-0.838 2.26,-2.066 3.36,-3.127c1.373,-0.352 2.734,-0.741 4.036,-1.341c-1.153,-1.622 -2.521,-3.262 -2.556,-4.782c11.416,-8.11 9.849,-19.139 -0.442,-24.785c1.523,-19.378 7.206,-30.612 12.728,-38.876l0.034,-4.236Zm-80.93,14.35c-1.492,0.734 -2.307,2.284 -3.39,3.499c-1.487,0.069 -2.919,0.581 -4.336,1.217c-0,0 3.405,4.74 3.194,4.995c-11.041,7.288 -10.951,17.94 -0.35,24.956c1.796,15.16 -10.986,39.151 -11.632,38.454l-0.023,4.96c9.098,-10.019 14.293,-28.118 14.811,-42.732c18.168,-1.218 18.812,-18.907 6.305,-25.56c-0.962,-0.889 3.144,-4.999 3.144,-4.999c-1.042,-1.035 -2.786,-1.152 -4.313,-1.279c-0.963,-1.16 -1.803,-2.317 -3.41,-3.511Zm89.809,13.178c1.155,2.055 4.324,3.717 4.656,-0.142c-0.54,-2.899 -2.434,-3.541 -9.948,-2.278c-4.428,1.983 -3.912,-3.234 -6.09,-1.19c-7.063,6.627 11.236,5.901 11.382,3.61Zm-4.253,7.466c-2.107,-0.002 -2.465,8.299 -2.435,10.792c-6.099,9.706 12.512,8.603 4.464,-1.971c0.35,-1.091 -0.91,-3.153 -0.99,-4.631c-0.66,-0.085 -0.949,-3.833 -1.039,-4.19Zm-108.935,12.52c-0.193,2.511 1.633,10.13 2.31,9.872c2.385,-3.871 2.102,-7.181 1.855,-10.961c5.681,-11.016 -13.72,-6.495 -4.165,1.089Zm35.412,1.771c-0.848,16.213 -4.79,32.12 -13.721,45.915c7.688,-3.611 15.149,-8.271 22.37,-12.259l16.873,10.525c0.977,-0.427 1.653,-0.638 2.301,-1.283c-7.775,-11.461 -10.182,-27.956 -13.57,-42.879c-1.289,0.921 -3.713,1.384 -3.713,1.384c-0.173,5.176 -5.56,6.853 -6.661,0.103l-3.879,-1.506Zm-40.725,12.648c-1.8,0.115 -3.153,4.606 1.945,5.271c3.598,0.513 8.205,-1.273 10.491,-0.446c2.657,4.271 5.042,-2.016 1.491,-3.042c-3.814,-1.102 -11.584,1.773 -12.443,-0.67c-0.442,-0.835 -0.98,-1.145 -1.484,-1.113Zm30.603,70.227l-10.179,18.12l65.08,-0.395l-8.507,-17.284c0.146,-0.191 -28.424,3.424 -46.394,-0.441Z" style="fill:#bdbdbd;fill-rule:nonzero;"/><path id="path3446-6-3-4" d="M93.35,36.394c-6.675,0.053 -13.588,0.745 -20.882,2.341l1.29,2.358c15.243,-2.532 27.248,-2.927 43.018,0.144l1.439,-2.455c-8.097,-1.471 -16.283,-2.457 -24.865,-2.388Zm-4.987,34.368c0,-0 -1.007,2.277 -1.517,3.49l13.303,8.675c0,-0 6.371,-4.538 9.086,-6.458l-1.648,-2.44c-5.626,12.501 -15.516,2.615 -19.224,-3.267Zm39.358,0.886l-3.954,2.404c-9.106,13.651 -15.327,30.842 -14.83,53.325c3.364,-3.88 7.542,-6.37 13.35,-6.022c0.738,-16.257 6.33,-30.713 15.288,-43.736l-9.854,-5.971Zm-0.999,4.929c0.588,-0.041 1.252,0.126 1.903,0.564c1.506,1.012 1.439,3.462 -0.205,3.916c-1.329,0.367 -1.363,0.717 -0.196,0.66c2.094,-0.103 2.651,2.713 1.161,4.09c-1.713,1.583 -3.897,0.461 -4.097,-1.524c-0.091,-0.561 -0.209,-0.553 -0.393,-0.235c-0.528,0.916 -0.576,2.106 -0.473,3.184l-3.095,-1.934c1.102,-0.549 1.773,-0.881 2.569,-1.715c0.104,-0.108 0.182,-0.189 0.181,-0.236c0,-0.085 -0.343,0.029 -0.974,0.095c-1.869,0.197 -3.307,-1.024 -2.923,-2.798c0.326,-1.508 1.101,-2.166 2.397,-2.195c0.921,-0.02 1.431,0.338 1.895,1.284c0.523,1.068 0.723,0.804 0.387,-0.527c-0.365,-1.444 0.567,-2.54 1.863,-2.629Zm-91.645,12.813c0,-0 -6.671,5.036 -9.77,7.468l0.15,44.827c0.932,-0.34 2.307,-1.548 3.105,-1.987c-1.855,-1.652 -1.376,-2.921 -1.744,-4.141c-0.832,-1.29 -0.07,-2.25 -0.209,-3.058c-0.203,-5.719 0.829,-6.472 5.427,-6.988c-0.969,0.353 -3.42,-7.158 3.206,-7.12l-0.165,-29.001Zm84.158,2.499c2.496,-0.036 4.549,1.972 4.585,4.488c0.036,2.517 -1.958,4.585 -4.454,4.622c-2.496,0.037 -4.55,-1.973 -4.587,-4.489c-0.036,-2.517 1.96,-4.584 4.456,-4.621Zm0.041,0.814c-1.998,0.03 -3.592,1.685 -3.563,3.699c0.028,2.015 1.671,3.627 3.669,3.598c1.999,-0.03 3.598,-1.689 3.568,-3.704c-0.029,-2.014 -1.675,-3.622 -3.674,-3.593Zm0.095,1.157c1.355,-0.02 2.471,1.07 2.491,2.436c0.019,1.367 -1.066,2.494 -2.421,2.513c-1.355,0.02 -2.467,-1.074 -2.487,-2.441c-0.019,-1.366 1.061,-2.488 2.417,-2.508Zm-89.723,1.872c0.184,-0.003 0.379,0.025 0.577,0.088c1.126,0.361 1.521,1.361 0.911,2.309c-0.479,0.744 -0.426,0.808 0.413,0.494c0.66,-0.247 0.997,-0.17 1.517,0.35c1.56,1.556 -0.763,4.172 -2.289,2.587c-0.756,-0.785 -0.828,-0.553 -0.303,0.795c0.169,0.437 0.45,1.116 0.45,1.116l-2.238,-0.034c-0,-0 0.347,-0.899 0.507,-1.323c0.388,-1.022 0.4,-1.172 -0.407,-0.529c-1.821,1.45 -3.886,-1.031 -2.21,-2.654c0.341,-0.33 0.887,-0.344 1.648,-0.042c0.554,0.219 0.622,0.067 0.206,-0.46c-0.906,-1.147 -0.069,-2.674 1.218,-2.697l0,0Zm89.778,0.044c-0.35,0 -0.638,0.288 -0.638,0.638c-0,0.35 0.288,0.638 0.638,0.638c0.351,-0 0.639,-0.288 0.639,-0.638c-0,-0.35 -0.288,-0.638 -0.639,-0.638Zm-43.531,3.41c-0.91,6.007 0.025,15.001 0.007,19.506c2.427,0.466 2.454,2.132 2.827,4.203c1.179,-0.414 3.759,1.342 4.112,1.188c0.279,-5.812 -2.915,-21.512 -6.945,-24.897l-0.001,-0Zm40.408,6.585c3.445,0.278 2.784,2.96 1.758,4.061c-0.486,0.566 -0.396,0.819 0.138,0.494c1.455,-0.886 2.61,-0.245 3.078,1.282c0.802,2.607 -2.599,4.853 -4.115,2.513c-0.514,-0.794 -0.828,-0.614 -0.702,0.216c0.078,0.799 0.852,2.457 0.852,2.457l-3.38,-0.306c0,-0 1.033,-1.732 1.214,-2.198c0.377,-0.968 0.178,-1.226 -0.544,-0.446c-2.114,1.95 -5.044,-0.546 -3.679,-3.131c0.673,-1.275 1.914,-1.687 3.255,-0.672c0.903,0.595 1.097,0.336 0.29,-0.385c-1.51,-1.347 -0.194,-4.049 1.835,-3.885Zm35.049,1.083c-3.79,3.947 -2.6,1.614 -0.843,4.623c0.944,5.171 -0.226,5.252 -0.08,7.719c0.292,3.317 -2.796,3.865 -5.532,4.418c0.443,-0.03 4.233,7.032 -2.84,7.584l0.081,28.703l11.09,-8.243l-0.047,-44.804l-1.829,-0Zm-121.426,1.043c0.29,0.005 0.594,0.087 0.896,0.259c0.84,0.476 1.07,1.415 0.543,2.232c-0.303,0.47 -0.214,0.766 0.139,0.458c0.471,-0.411 1.511,-0.136 1.917,0.504c1.042,1.646 -0.994,3.798 -2.294,2.428c-0.574,-0.605 -0.795,-0.629 -0.728,-0.232c0.187,0.745 0.673,2.018 0.673,2.018l-2.341,0.041c0,-0 0.506,-1.338 0.618,-2.016c0.087,-0.537 -0.126,-0.459 -0.684,0.176c-0.542,0.617 -1.034,0.681 -1.726,0.219c-1.706,-1.14 -0.34,-4.067 1.439,-3.083c0.613,0.339 0.699,0.143 0.22,-0.495c-0.856,-1.14 0.018,-2.448 1.213,-2.506c0.039,-0.002 0.076,-0.004 0.115,-0.003l0,0Zm38.2,14.112c-2.799,2.235 -7.349,7.265 -13.117,6.038c-0.672,17.909 -6.502,31.773 -14.818,43.688c2.871,1.712 6.032,3.765 8.968,5.082c2.483,-1.291 3.876,-1.829 6.312,-3.85c9.998,-15.569 13.169,-32.588 12.655,-50.958Zm26.107,3.276c0.561,9.197 2.046,17.906 6.792,24.894l0.322,-19.547c-1.691,-0.408 -3.077,-1.51 -3.571,-4.635l-3.543,-0.712Zm-34.3,5.425l3.171,0.075c-0,0 -0.719,1.445 -1.03,2.253c-0.379,0.987 -0.2,1.189 0.524,0.503c0.941,-0.894 2.441,-0.977 3.231,-0.18c2.096,2.117 -0.096,5.566 -2.575,4.053c-1.062,-0.648 -1.24,-0.43 -0.398,0.487c1.639,1.532 -0.071,3.739 -1.986,3.748c-1.384,-0.006 -2.282,-1.12 -2.391,-2.349c-0.053,-0.774 0.332,-1.55 0.998,-1.927c0.694,-0.393 0.197,-0.648 -0.557,-0.239c-2.461,1.335 -4.108,-2.095 -2.251,-4.046c1.071,-1.125 2.204,-1.021 3.293,0.053c0.76,0.75 1.033,0.684 0.818,-0.203c-0.216,-0.998 -0.847,-2.228 -0.847,-2.228l-0,0Zm85.608,2.691l2.272,0.003c-0.224,0.567 -0.512,1.144 -0.693,1.705c-0.195,0.61 -0.053,0.688 0.549,0.098c1.566,-1.06 3.237,0.001 2.897,1.68c-0.234,1.158 -1.197,1.727 -2.309,1.224c-0.98,-0.444 -0.664,-0.254 -0.107,0.422c0.663,0.804 0.494,1.741 -0.383,2.363c-1.55,1.099 -3.598,-0.727 -2.572,-2.321c0.605,-0.947 0.327,-0.845 -0.223,-0.386c-0.827,0.609 -2.077,-0.253 -2.102,-1.449c-0.095,-1.721 1.63,-2.691 2.845,-1.473c0.578,0.491 0.722,0.433 0.46,-0.282c-0.239,-0.519 -0.316,-1.075 -0.634,-1.584l0,-0Zm2.503,12.49c-0,-0 -0.033,0.184 -0.4,0.878c-0.431,0.817 -0.365,1.661 0.085,1.088c0.76,-0.968 2.373,-0.698 2.902,0.485c0.616,1.377 -0.586,2.899 -1.832,2.32c-0.81,-0.376 -0.865,-0.295 -0.327,0.49c0.524,0.763 0.292,1.7 -0.559,2.248c-1.672,1.076 -3.678,-1.072 -2.285,-2.447c0.373,-0.368 0.257,-0.547 -0.196,-0.3c-1.846,1.012 -3.209,-1.503 -1.612,-2.975c0.679,-0.628 1.199,-0.584 2.317,0.195c0.348,0.242 0.416,-0.008 0.165,-0.623c-0.427,-1.048 -0.64,-1.332 -0.64,-1.332l2.382,-0.027Zm-90.786,1.532c2.65,-0.039 4.827,2.094 4.866,4.766c0.038,2.672 -2.076,4.871 -4.727,4.91c-2.65,0.039 -4.831,-2.097 -4.87,-4.769c-0.038,-2.672 2.08,-4.868 4.731,-4.907Zm0.054,0.864c-2.177,0.032 -3.918,1.835 -3.886,4.03c0.032,2.195 1.823,3.95 4.001,3.918c2.177,-0.032 3.917,-1.839 3.886,-4.034c-0.032,-2.195 -1.824,-3.946 -4.001,-3.914Zm0.046,1.527c1.34,-0.019 2.441,1.058 2.46,2.409c0.02,1.351 -1.049,2.465 -2.389,2.485c-1.341,0.019 -2.446,-1.062 -2.465,-2.413c-0.02,-1.351 1.054,-2.461 2.394,-2.481Zm0.031,1.902c-0.35,-0 -0.639,0.288 -0.639,0.638c0,0.349 0.289,0.637 0.639,0.637c0.35,0 0.638,-0.288 0.638,-0.637c0,-0.35 -0.288,-0.638 -0.638,-0.638Zm-6.064,9.819l2.771,1.365c-0,0 -1.311,1.075 -1.832,1.629c-0.667,0.713 -0.62,1.048 0.279,0.707c1.716,-0.651 3.435,0.323 3.467,2.119c0.043,2.396 -2.768,3.548 -4.118,1.734c-0.402,-0.54 -0.881,-0.763 -0.693,-0.322c0.457,1.072 0.178,2.422 -0.618,2.977c-0.638,0.444 -1.803,0.575 -2.391,0.268c-2.023,-1.057 -2.129,-3.406 -0.195,-4.334c0.973,-0.467 1.005,-0.905 0.049,-0.664c-1.992,0.5 -3.153,-1.929 -1.716,-3.598c1.525,-1.771 4.01,-1.406 4.285,1.216c0.049,0.466 0.364,0.129 0.504,-0.585c0.17,-0.531 0.208,-2.512 0.208,-2.512l0,0Zm25.825,3.942l-9.836,6.064l2.248,3.141c5.033,-11.497 17.088,-1.976 19.019,3.894c0.419,0.26 0.49,0.187 0.945,0.392c0.043,-0.414 0.88,-4.492 0.88,-4.492l-13.256,-8.999Zm26.012,42.271c-16.61,4.271 -42.899,0.482 -42.642,0.181l-1.635,2.347c-0.564,0.242 25.293,4.655 45.688,0.171l-1.411,-2.699Z" style="fill:#3f3f3f;fill-rule:nonzero;"/><path id="path3444-9-5-7" d="M23.692,19.125l-0,211.2l131.2,-0l-0,-211.2l-131.2,-0Zm105.209,1.377l-12.176,21.011c0.116,-1.107 -23.671,-4.502 -43.113,-0.36l-10.584,-20.395l65.873,-0.256Zm23.467,0.344l0.386,85.771l0.806,44.958l-11.381,8.356l-0.167,-28.801c0,0 -1.63,-0.784 -2.057,-0.837c-0.16,-0.013 -0.368,0.348 -0.078,0.535c0.419,0.268 1.448,0.645 1.448,0.645l0.242,28.544c-9.258,6.697 -20.823,11.363 -29.621,15.053c-0.721,-2.397 -7.838,-7.996 -15.839,-4.039c-0.732,0.274 -1.638,0.511 -2.25,0.939c-3.048,0.562 -4.053,3.848 -4.514,7.043c-0.016,0.125 0.241,0.097 0.25,0.11c0.033,0.046 0.726,-3.066 1.001,-3.655c0.587,-1.257 1.328,-2.011 1.72,-2.129c0.179,-0.031 0.335,0.25 0.093,0.693c-0.482,0.88 -0.875,2.751 -0.992,3.595c-0.105,0.778 -0.125,1.404 0.019,1.431c0.025,0.025 0.708,-2.358 1.015,-3.199c0.801,-2.193 1.306,-3.1 2.078,-3.568c0.791,-0.48 0.978,-0.411 0.822,0.098c-1.177,2.315 -1.663,4.065 -1.894,6.529c-0.035,0.492 0.213,0.506 0.408,-0.308c0.645,-2.588 1.53,-6.088 3.621,-7.133c0.893,-0.407 1.289,-0.388 1.194,-0.097c-2.491,3.17 -3.114,6.691 -3.085,7.828c0.01,0.379 0.162,0.305 0.482,-0.516c0.843,-3.125 2.094,-5.784 3.578,-7.087c0.574,-0.505 1.269,-0.643 1.851,-0.716c1.759,-0.22 1.819,0.436 0.288,1.334c-1.743,1.024 -3.76,4.748 -3.984,7.543c-0.078,0.968 0.262,1.073 0.502,-0.217c1.034,-5.557 5.761,-9.23 9.549,-7.529c1.705,0.766 2.014,1.83 0.53,1.357c-3.004,-0.958 -6.338,1.187 -7.713,4.181c-1.243,2.706 -1.217,4.127 -0.343,7.752c0.596,3.347 1.758,7.625 1.374,10.904c-0.413,0.637 -1.717,-0.262 -3.258,-0.453c-0.929,-0.175 -2.064,-0.22 -3.034,0.154c-0.845,0.326 -1.325,0.409 -1.481,-0.05c-0.051,-0.148 0.652,-0.87 0.965,-1.269c0.218,-0.278 0.328,-0.599 0.328,-0.599c0,0 -0.422,0.161 -0.82,0.552c-0.345,0.339 -1.087,1.132 -1.29,1.174c-0.445,0.09 -0.462,-0.415 -0.103,-1.704c1.261,-5.001 0.923,-5.085 -1.24,-6.098c-2.144,-0.823 -1.466,-1.239 -2.415,-2.057c-0.669,0.526 0.874,2.944 2.619,3.472c1.428,0.432 1.254,1.168 0.628,3.148c-0.634,2.771 -1.716,6.439 -1.09,8.899c1.316,5.17 6.523,5.064 10.512,2.975l0.486,1.318c-3.373,1.376 -21.145,2.553 -27.135,1.859c-0.463,-1.632 -0.51,-2.052 -0.697,-3.972c-0,-0 3.7,1.684 5.547,1.976c2.306,0.365 5.858,0.382 6.767,-1.759c0.278,-0.627 -0.008,-1.157 -0.803,-0.793c-1.463,0.668 -3.964,1.161 -5.983,1.036c-1.696,-0.106 -4.111,-0.792 -5.156,-1.426c-0.497,-0.301 -0.916,-0.891 -0.527,-1.631c0.345,-0.077 0.797,0.306 1.066,0.445c3.059,1.556 4.777,1.977 6.733,1.263c1.298,-0.475 2.756,-1.128 3.048,-2.566c-1.131,0.574 -2.175,1.598 -3.376,1.928c-2.403,0.659 -4.974,-0.343 -7.474,-1.975c-0.771,-0.675 -0.419,-1.167 0.526,-0.628c3.745,1.901 5.308,3.161 8.891,0.494c0.801,-0.598 1.247,-0.521 1.717,-0.159c1.861,1.68 1.855,0.736 0.492,-1.009c-0.31,-0.397 -0.59,-0.951 -0.776,-1.542c-0.137,-0.437 -0.168,-0.875 -0.416,-1.162c-0.423,-0.49 -1.184,-0.727 -2.054,-1.113c-0.803,-0.355 -1.379,-0.249 -1.379,-0.249c0,-0 0.298,0.251 0.633,0.415c1.623,0.798 2.414,1.653 0.397,1.192c-1.83,-0.825 -4.885,-0.363 -6.614,0.847c-1.357,0.667 -1.954,1.381 -2.275,-0.128c-0.67,-3.15 -0.017,-7.423 -0.916,-12.919c-0.172,-1.048 -0.383,-1.713 -0.165,-1.856c0.279,-0.184 0.977,0.495 1.841,1.718c0.393,0.557 1.175,1.629 1.171,1.406c0.029,-1.164 -1.767,-3.348 -3.249,-4.208c-0.814,-0.473 -1.367,-2.659 -0.436,-2.178c0.72,0.353 4.462,3.669 5.174,4.851c0.331,0.549 0.611,0.198 0.26,-0.447c-0.21,-0.387 -1.089,-1.525 -1.943,-2.366c-1.516,-1.492 -1.692,-1.422 -1.401,-1.728c0.576,-0.605 1.808,0.175 4.005,2.179c0.564,0.717 1.31,1.364 1.218,1.008c0.225,-0.558 -1.974,-2.942 -3.279,-3.581c-0.244,-0.154 -0.278,-0.317 -0.255,-0.613c0.124,-1.126 2.649,0.528 4.745,2.459c0.785,0.723 0.134,-0.638 -0.775,-1.562c-0.715,-0.727 -1.867,-1.63 -2.649,-1.94c-0.776,-0.323 -0.823,-1.004 -0.214,-1.291c2.101,-0.089 4.269,2.074 5.562,3.776c0.356,0.467 0.684,0.827 0.313,-0.058c-1.197,-2.663 -3.688,-4.164 -5.413,-4.468c-1.402,-0.248 -1.371,-1.522 -0.053,-1.377c1.449,0.158 3.82,1.476 5.831,3.516c0.585,0.594 1.57,1.94 1.367,1.149c-0.007,-0.215 -0.622,-1.058 -1.335,-1.87c-1.645,-1.647 -3.557,-3.104 -5.585,-3.538c-0.948,-0.27 -3.762,0.278 -3.779,-0.214c-0.007,-0.363 0.295,-0.581 1.191,-0.882c3.478,-1.166 8.567,1.846 11.352,6.476c0.199,0.332 0.577,0.473 0.6,0.399c-1.344,-3.784 -5.521,-7.216 -8.843,-7.804c-2.26,-0.365 -4.538,0.217 -5.621,1.752c-1.219,1.727 -0.743,4.037 1.087,3.852c0.961,-0.09 0.885,-0.638 0.867,-0.656c-0.065,-0.065 -0.623,0.199 -0.968,0.131c-1.252,-0.248 -1.122,-2.529 0.711,-2.304c2.106,0.259 2.404,3.607 0.049,4.312c-2.173,0.65 -2.969,-0.351 -3.563,-1.538c-0.871,-1.738 0.064,-4.54 1.599,-5.615c4.297,-3.007 9.731,-0.487 12.801,2.496c1.52,1.475 2.628,3.229 3.326,5.121c0.179,0.44 0.562,0.395 0.387,-0.057c-4.323,-11.127 -17.232,-12.424 -19.12,-3.786c-3.125,-4.938 -5.86,-5.282 -10.047,-3.127c-4.27,1.781 -6.37,3.232 -10.32,5.099l-8.957,-4.848c-0.528,-8.969 -0.227,-17.965 -0.191,-26.945c0.026,-0.21 -1.94,0.142 -5.215,0.66c-8.707,1.751 -7.96,-2.953 -9.097,-3.189c-0.609,-0.123 -0.565,0.14 -0.73,-16.415c-0.048,-4.809 -0.142,-13.261 -0.212,-18.785c-0.07,-5.524 -0.088,-10.127 -0.04,-10.224c0.049,-0.097 0.537,-0.52 1.101,-0.923c2.121,-1.515 3.314,-2.433 7.957,-6.004c1.051,-0.809 1.315,-0.945 1.315,-0.945c0.533,9.946 0.056,20.392 0.318,28.942l0.392,0.002l-0.152,-28.712c-0.801,-0.212 18.308,-11.484 28.779,-15.141c0.197,-0.068 0.686,0.152 0.686,0.152c6.01,7.425 21.825,5.177 23.1,-3.862c2.62,5.51 14.13,16.217 19.39,3.311c0,-0 1.906,3.708 3.542,3.953c3.676,0.492 4.084,-0.093 12.174,-4.049c-9.25,14.148 -14.351,29.127 -15.004,47.268c-1.265,-1.84 -3.923,-1.76 -4.146,-1.624c0.017,-1.729 -0.291,-4.074 -2.88,-4.325c-2.63,-0.201 -3.98,3.297 -2.982,4.778c-1.624,-0.68 -4.058,1.023 -4.058,1.183c-0.208,0.006 -2.067,4.963 3.562,5.218c0.512,2.339 1.389,3.471 3.188,4.434l0.045,19.093l0.635,0.867l0.056,-20.01c2.881,-0.129 3.238,-3.452 3.024,-4.218c1.28,0.056 2.441,-0.203 3.42,-0.955l0.337,3.261c-0,-0 0.675,-1.15 0.526,-1.761c-1.253,-18.753 5.477,-39.039 14.311,-52.189c0.473,-0.552 0.617,-1.211 0.851,-1.215c2.154,-1.17 3.515,-1.958 3.515,-1.958c3.553,1.721 9.897,5.874 9.897,5.874l0.103,26.722c-0.099,-0.263 11.82,-1.34 11.642,-1.015c-0,-0 -1.044,-0.413 -1.06,-1.116l-0.31,-62.53l-5.215,-3.435c-0,0 -4.288,2.825 -5.487,3.79l0.131,36.814l-9.236,-5.454c-0,0 0.147,-1.302 0.16,-1.725c0.392,-4.254 -2.577,-6.684 -7.252,-5.218c-0.625,0.2 -1.059,0.375 -1.364,0.117c-1.961,-5.779 -2.843,-20.967 -2.84,-20.967l13.145,-22.449l22.3,-0.123Zm-126.822,0.402l35.821,0l12.079,21.801c0,0 0.709,1.363 0.285,2.788c-0.462,1.555 -0.859,2.245 -1.275,3.039c0.041,-0.453 -3.481,-0.902 -3.186,2.138c0.2,2.058 2.782,3.22 4.706,1.619c0.307,-0.025 0.305,0.262 0.238,0.765c-0.177,1.179 -1.419,4.92 -2.27,5.168c-4.336,-3.584 -5.884,2.961 -2.961,4.266c1.693,0.756 4.296,0.132 5.512,-1.919c0.931,-1.569 0.828,-1.311 1.121,0.594c0.109,0.708 0.264,1.529 0.343,1.898c0.248,1.154 -0,1.378 -1.927,1.902c-1.551,0.609 -3.123,0.944 -4.722,1.293c-2.923,0.483 -4.417,2.706 -4.489,5.411c-0.016,0.584 0.007,0.855 -0.12,1.029c-12.365,4.73 -25.373,11.35 -39.155,22.654l-0,-74.446Zm117.823,16.179c0,-0 2.538,1.69 3.762,2.535l0.018,2.715l-3.668,-2.414l-0.112,-2.836Zm-1.333,0.407c0.787,2.499 0.781,7.856 0.486,10.242c-0.494,1.554 -0.713,8.47 -0.153,11.989c0.446,2.805 0.363,7.445 -0.058,9.665c-0.164,0.868 -0.037,4.934 0.273,8.695c0.236,2.875 0.167,5.489 -0.177,6.985c-0.272,1.179 -0.177,5.403 0.132,7.023c0.456,2.384 0.534,10.043 0.33,10.459c-0.541,0.618 -4.776,0.704 -4.492,0.494l-0.121,-63.028c0,0 2.52,-1.688 3.78,-2.524l-0,-0Zm-46.024,3.359c3.558,-0.021 5.972,0.086 5.949,0.125c0.34,1.372 0.471,2.745 0.604,4.118c0,-0 -3.234,-1.6 -4.922,-2.133c-2.599,-0.803 -6.708,0.079 -7.436,1.583c-0.413,0.853 -0.197,1.421 1.549,0.473c2.859,-1.551 8.696,-0.369 10.753,1.276c0.474,0.379 0.45,0.462 0.459,0.907c0.014,0.677 0.054,0.716 -0.882,0.211c-4.906,-2.528 -9.098,-2.235 -10.545,1.085c-0.333,-0.102 -1.605,-0.322 -1.605,-0.322l1.367,2.037l0.259,2.13c1.358,0.705 1.768,0.93 4.063,2.006c-0,0 -0.761,-0.735 -1.573,-1.305c-1.092,-0.765 -0.223,-1.011 0.497,-0.718c1.481,0.342 3.645,0.778 6.151,-0.826c0.778,-0.498 2.56,-0.067 2.588,0.159c-0,-0 0.237,1.864 0.472,5.753c0.111,1.839 0.336,4.242 0.464,5.229c0.385,2.98 0.496,3.149 -1.06,1.72c-0.522,-0.479 -1.391,-1.274 -1.401,-1.227c-0.197,0.924 2.097,2.547 2.631,3.104c0.811,0.845 1.462,3.011 1.138,3.139c-0.206,0.081 -2.386,-1.783 -4.103,-3.459c-0.643,-0.628 -1.6,-1.471 -1.627,-1.442c-0.355,0.238 1.087,1.878 2.437,3.104c1.575,1.43 1.756,1.559 1.227,1.775c-0.978,0.398 -1.857,-0.097 -4.231,-2.075c-0.231,-0.193 -1.129,-0.836 -1.172,-0.789c-0.217,0.291 1.973,2.38 2.47,2.56c0.924,0.333 1.189,1.232 0.461,1.585c-0.486,0.236 -2.298,-0.765 -3.751,-2.034c-0.26,-0.227 -0.982,-0.613 -1.03,-0.561c-0.288,0.187 1.336,1.602 2.886,2.542c1.517,0.921 1.759,1.148 1.372,1.914c-0.36,0.788 -3.688,-1.037 -5.354,-2.917c-0.354,-0.4 -0.636,-0.573 -0.565,-0.438c0.725,2.026 3.112,3.479 4.888,4.057c0.317,0.105 0.777,0.234 0.984,0.4c0.506,0.405 0.393,0.826 -0.154,1.064c-1.894,0.535 -4.88,-1.777 -7.016,-4.199c-0.247,-0.103 -0.1,0.214 -0.035,0.319c1.781,2.866 5.193,5.047 7.248,4.64c1.201,-0.238 2.167,0.127 2.176,0.533c0.008,0.333 -0.655,0.862 -1.947,0.955c-2.922,0.21 -7.489,-3.012 -10.16,-7.117c-0.083,-0.128 -0.182,-0.176 -0.188,-0.098c-0.072,0.87 1.588,3.004 2.862,4.225c3.785,3.626 7.363,4.852 10.154,2.809c1.574,-1.229 3.095,-3.917 0.751,-4.815c-1.242,-0.476 -2.027,1.247 -0.966,0.755c1.395,-0.169 1.712,0.578 1.531,1.279c-0.356,1.204 -1.54,1.395 -2.502,0.889c-1.674,-0.914 -1.319,-4.048 0.849,-4.596c1.954,-0.475 3.658,1.194 3.882,2.778c0.348,2.46 -2.404,5.12 -4.612,5.783c-7.529,2.258 -13.411,-8.288 -13.445,-8.527c-0.378,-0.733 -0.832,-1.121 -1.119,-0.267c-0.308,1.237 -2.007,4.865 -2.916,4.843c0.283,-1.279 1.474,-3.431 1.184,-5.315c-0.502,1.548 -1.561,4.849 -3.588,6.607c-0.526,0.483 -2.068,1.052 -1.007,-0.189c1.282,-1.816 2.959,-4.299 2.612,-6.631c-0.34,0.524 -0.526,1.85 -0.915,2.726c-0.974,2.193 -3.1,4.795 -4.504,5.217c-1.037,0.311 -0.94,-0.042 0.122,-1.168c1.138,-1.208 3.152,-4.755 3.019,-6.284c-0.057,-0.675 -2.09,5.84 -5.91,7.624c-1.032,0.38 -1.618,-0.099 -1.618,-0.099c1.502,-0.871 5.651,-4.994 5.259,-9.678c0,-0 -0.222,0.694 -0.549,1.734c-1.406,4.47 -4.428,7.41 -6.783,7.653c-1.88,0.195 -3.193,-0.57 -2.726,-0.908c2.438,0.018 4.441,-0.832 6.006,-3.227c1.591,-2.434 2.184,-6.347 1.22,-10.487c-0.87,-3.733 -1.061,-7.09 -1.364,-10.679c2.671,0.92 5.358,1.532 7.959,0.507c-0.261,1.07 -0.696,1.201 -1.382,2.009c-0.176,0.207 -0.228,0.41 -0.228,0.41c0.963,-0.318 2.859,-1.731 2.859,-1.731c-0,0 -0.235,1.328 -0.8,3.522c-0.846,3.282 -0.627,3.518 2.501,4.754c0.583,0.231 0.802,0.457 1.006,0.703c0.096,0.115 0.609,1.046 0.658,1.079c0.114,0.076 0.084,-0.95 0.02,-1.21c-0.167,-0.689 -0.537,-1.207 -0.86,-1.411c-0.614,-0.57 -1.5,-0.621 -2.068,-0.883c-0.846,-0.396 -1.168,-0.387 -1.006,-1.318c0.106,-0.613 0.972,-4.737 1.384,-6.331c1.234,-4.773 0.075,-7.418 -3.419,-8.485c-2.368,-0.723 -4.407,-0.356 -6.82,0.938l-0.434,-1.351c6.322,-1.667 15.435,-2.061 21.366,-2.097l0.001,0Zm47.662,0.047l3.415,2.329l0.035,2.954l-3.44,-2.301l-0.01,-2.982Zm-40.698,0.124l1.511,0.171c-0,0 0.568,2.185 1.179,8.09c0.302,2.928 0.618,9.013 0.871,11.811c0.381,4.157 2.244,10.803 3.399,12.481c1.882,2.736 5.666,0.967 4.401,-2.282c-0.657,-1.686 -3.199,-1.413 -2.846,0.336c0.007,0.312 0.24,-0.224 0.612,-0.552c1.099,-0.42 2.336,0.734 1.691,2.122c-0.801,1.772 -3.172,0.962 -3.958,-1.272c-0.94,-2.668 2.226,-4.667 4.593,-3.04c2.637,1.813 2.642,6.407 0.518,7.858c-3.574,1.314 -6.005,-1.312 -7.171,-3.993c-0.469,-0.764 -1.966,-4.773 -2.377,-6.446c-1.073,-8.109 -1.277,-17.736 -2.423,-25.284Zm2.5,0.451l1.57,0.098c0.625,3.282 0.897,7.012 1.146,10.753c0.08,5.767 0.786,11.85 2.129,15.837l-1.153,1.22c-1.966,-4.569 -2.121,-11.775 -2.559,-16.653c-0.192,-5.486 -1.088,-11.22 -1.133,-11.255Zm2.266,0.217l1.378,0.15c0.42,3.897 1.064,6.541 1.309,10.834c0.316,5.552 1.27,10.111 1.864,14.448l-1.033,0.345c-0.692,0.321 -1.837,-4.803 -2.347,-15.192c-0.154,-3.144 -0.683,-6.679 -1.171,-10.585Zm2.086,0.146l1.647,0.298c0.728,9.864 1.877,19.127 3.082,24.436l-1.431,0.293c-1.776,-7.586 -1.891,-16.563 -3.298,-25.027Zm2.378,0.349l1.514,0.265c1.82,22.557 2.943,22.266 3.295,23.153l-1.638,0.67c-1.771,-6.482 -2.129,-15.621 -3.171,-24.088Zm2.167,0.419l1.806,0.185c-0.059,0.04 1.28,18.497 2.897,21.553c-0.259,0.76 -0.872,0.689 -1.542,0.767c-0.75,-2.073 -1.187,-4.543 -1.501,-6.963c-0.69,-5.314 -0.94,-10.297 -1.66,-15.542Zm-34.135,1.911c2.379,0.115 4.354,1.193 4.544,2.768c0.043,0.355 -0.236,0.182 -0.558,-0.067c-2.046,-1.581 -4.376,-2.074 -7.188,-1.054c-0.612,0.222 -1.113,0.573 -1.387,0.525c-0.246,-0.159 -0.322,-0.543 -0.134,-0.86c0.656,-1.105 3.546,-1.37 4.723,-1.312l0,-0Zm63.478,0.399l3.438,2.366l-0.022,2.56l-3.66,-2.464l0.244,-2.462Zm-69.203,0.732c-0,0 0.203,1.41 0.209,2.033c0.051,2.484 -0.549,3.853 -1.843,4.427c-1.56,0.693 -3.562,-0.79 -2.589,-2.449c0.735,-1.255 1.998,-0.878 2.239,0.44l1.984,-4.451Zm4.916,0.803c0.167,-0.006 0.334,-0.005 0.502,0.003c0.802,0.034 1.592,0.209 2.307,0.495c1.803,0.72 2.465,1.599 2.532,1.99c-0.104,0.291 -0.284,0.093 -1.601,-0.624c-2.027,-1.253 -4.67,-1.458 -6.992,0.133c-0.579,0.115 -0.637,-0.215 -0.057,-0.844c0.967,-0.764 2.136,-1.116 3.309,-1.153l-0,-0Zm16.5,0.019c1.586,-0.051 3.482,0.355 5.084,1.165c0.708,0.358 1.344,0.582 1.805,0.993c0.37,0.194 0.399,1.039 0.128,1.103c-0.241,0.034 -0.636,-0.156 -1.227,-0.572c-3.805,-2.491 -6.544,-2.184 -8.744,-0.651c-0.122,0.085 -0.5,0.173 -0.649,0.162c-0.42,-0.032 -0.442,-0.206 -0.267,-0.435c1.019,-1.16 2.541,-1.719 3.87,-1.765Zm47.555,1.793l3.667,2.583l-0,2.539l-3.9,-2.732l0.233,-2.39Zm-66.196,1.031l0.535,0.016c1.249,3.049 2.814,1.477 3.464,0.256l0.652,0.107c-1.021,4.084 -5.174,1.947 -4.651,-0.379l-0,0Zm20.634,0.222l0.429,0.138c-0.113,1.741 -3.021,3.596 -4.401,-0.029l0.577,-0.043c1.581,2.425 2.493,0.99 3.395,-0.066l-0,0Zm-21.545,0.185c0.606,0.074 0.585,0.764 0.774,1.267c0.424,1.124 -1.185,0.174 -1.46,-0.1c-0.466,-0.495 0.197,-1.116 0.686,-1.167Zm23.011,0.155c0.17,0.003 0.509,0.125 0.822,0.252c0.864,0.353 0.819,0.611 -0.139,1.041c-1.531,0.686 -2.064,0.776 -1.605,-0.194c0.264,-0.444 0.438,-1.033 0.922,-1.099Zm-6.179,0.317c0.053,-0.008 0.112,0.008 0.173,0.053c0.386,0.285 0.638,0.601 0.683,1.115c0.032,0.362 -1.165,-0.055 -1.162,-0.632c0.028,-0.275 0.145,-0.512 0.306,-0.536l-0,-0Zm-10.422,0.191c0.785,0.293 0.691,0.67 0.144,1.012c-0.983,0.553 -1.404,0.444 -0.768,-0.424c0.293,-0.401 0.356,-0.58 0.624,-0.588Zm60.451,1.278l3.971,2.815l-0.035,2.583l-3.968,-2.727c-0.185,-1.107 -0.01,-1.851 0.032,-2.671l0,0Zm-0.107,3.523l3.968,2.918l0.017,2.568l-3.936,-2.729c-0.155,-1.144 -0.087,-1.96 -0.049,-2.757Zm-52.353,0.322c-0.606,0.034 -0.511,0.449 0.356,0.776c1.218,0.458 1.34,1.762 0.268,2.349c-1.259,0.858 -3.321,-1.319 -4.834,-1.135c-0.723,0.217 -1.186,0.899 -0.772,1.732c0.322,0.584 1.41,0.937 1.851,0.554c0.405,-0.401 0.527,-0.412 1.306,-0.116c2.441,0.929 4.388,-0.836 3.813,-2.691c-0.209,-0.671 -1.122,-1.4 -1.685,-1.459c-0.115,-0.012 -0.217,-0.015 -0.303,-0.01l-0,-0Zm-16.173,0.154c0.189,0.005 0.262,0.632 0.307,1.549c0.073,1.525 -1.467,3.65 -3.024,4.382c-1.875,0.881 -3.884,-0.355 -3.548,-2.187c0.31,-1.687 2.69,-1.757 2.78,-0.198c-0.232,0.41 0.092,0.755 0.225,0.719c0.612,-0.166 2.054,-1.474 2.641,-2.938c0.229,-0.57 0.368,-1.157 0.531,-1.29c0.032,-0.026 0.062,-0.038 0.088,-0.037l0,0Zm22.406,2.597c-0.832,0.009 -1.832,0.455 -2.034,0.992c-0.3,0.508 -0.054,1.419 0.561,0.643c1.581,-1.855 3.871,0.466 2.645,1.942c-1.112,1.339 -2.479,0.907 -5.369,-0.205c-2.105,-0.81 -2.437,-0.533 -2.956,0.052c-0.427,0.482 -0.209,1.451 0.344,1.44c1.706,0.39 3.183,0.77 4.949,1.14c3.732,0.772 6.009,-4.073 2.6,-5.854c-0.204,-0.107 -0.463,-0.153 -0.74,-0.15l-0,-0Zm46.382,0.805l3.731,2.657l-0.022,2.472l-3.616,-2.629l-0.093,-2.5Zm-63.399,0.245c-0.531,-0.015 -1.091,0.167 -1.489,0.5c-1.455,1.315 -0.262,4.773 1.88,5.082c0.449,0.064 1.119,0.045 1.879,-0.177c1.5,-0.436 3.152,-1.329 3.22,-1.85c0.307,-2.366 -3.188,-0.243 -3.651,0.037c-1.102,0.674 -2.269,0.586 -2.856,-0.215c-1.324,-1.805 1.05,-3.876 2.491,-1.667c0.094,0.143 0.239,0.345 0.239,0.345c-0,-0 -0.106,-0.898 -0.401,-1.374c-0.28,-0.453 -0.781,-0.665 -1.312,-0.681l-0,0Zm63.678,3.373l3.533,2.561l0.06,2.569l-3.706,-2.46c0.072,-0.925 0.089,-1.794 0.113,-2.67l0,0Zm-19.805,1.476c3.106,0.051 4.859,4.677 3.221,6.602c-0.487,0.573 -0.877,0.726 -1.098,0.513c-0.047,-0.046 0.032,-0.564 0.064,-1.149c0.1,-1.865 -0.294,-3.141 -1.647,-4.557c-1.015,-1.063 -1.399,-1.392 -0.54,-1.409Zm-37.118,0.443c-0.383,-0.007 -0.73,0.152 -1.127,0.294c-0.587,0.211 -1.207,0.638 -1.688,0.532c-0.474,-0.104 -0.701,0.133 -0.887,0.509c-0.711,1.435 -0.491,1.899 0.918,1.084c0.669,-0.387 0.903,-0.248 2.693,0.093c1.279,0.243 2.148,0.219 3.274,-0.075c1.399,-0.366 2.233,-0.395 2.941,-0.005c0.708,0.39 1.191,0.927 1.21,0.49c-0.079,-0.513 -0.522,-1.824 -0.624,-2.259c-0.049,-0.209 -0.398,-0.024 -0.727,-0c-1.16,0.085 -2.543,-0.967 -3.439,-0.411c-0.717,0.444 -0.813,0.561 -1.796,-0.021c-0.275,-0.162 -0.518,-0.226 -0.748,-0.231l0,0Zm34.853,0.105c0.527,-0.015 1.024,0.169 1.431,0.511c2.103,1.77 2.642,3.34 2.438,4.629c-0.105,0.938 -0.175,1.974 -1.086,2.538c-0.168,0.081 -0.418,0.132 -0.651,0.166c0.708,-2.663 -0.127,-5.049 -3.1,-7.593c0.325,-0.162 0.652,-0.242 0.968,-0.251Zm-46.006,0.507c0.588,-0.019 0.556,0.932 0.435,1.435c-0.097,0.405 -0.519,0.053 -0.852,-0.712c-0.247,-0.417 0.012,-0.722 0.417,-0.723Zm43.735,0.574c0.544,-0.037 1.27,0.249 1.598,0.469c1.96,1.327 3.088,4.796 1.884,6.767c-0.13,0.242 -0.291,0.381 -0.503,0.512c-0.404,0.256 -0.643,0.461 -0.725,0.282c-0.063,-0.136 0.162,-0.724 0.185,-0.917c0.857,-4.043 -3.022,-6.738 -3.1,-6.612c0.072,-0.339 0.334,-0.478 0.661,-0.501Zm-45.678,0.175c0.768,-0.016 1.061,0.693 1.192,1.258c0.113,0.481 -0.031,1.918 -0.438,1.417c-0.098,-0.305 -0.514,-1.287 -0.848,-1.542c-0.743,-0.568 -0.67,-1.117 0.094,-1.133Zm69.919,0.156l3.648,2.636l0.007,2.822l-3.819,-2.588c0.085,-0.987 0.129,-1.933 0.164,-2.87l0,-0Zm-72.08,0.557c0.112,-0.003 0.256,0.011 0.431,0.041c1.199,0.202 2.117,2.126 1.838,3.217c-0.634,1.174 -0.869,0.382 -1.079,-0.682c-0.163,-0.441 -0.654,-1.133 -0.955,-1.49c-0.624,-0.741 -0.721,-1.072 -0.235,-1.086l-0,-0Zm45.826,0.025c2.909,-0.05 4.765,4.692 3.422,7.029c-0.346,0.37 -1.4,1.127 -1.434,0.776c-0,-0.291 0.192,-1.206 0.236,-1.654c0.173,-1.73 -0.63,-3.487 -2.051,-4.861c-1.192,-1.153 -1.301,-1.271 -0.173,-1.29Zm-48.198,0.561c1.788,-0.031 3.315,2.098 2.752,4.118c-0.699,2.106 -4.18,1.656 -3.602,-0.444c0.166,-0.604 0.806,-1.045 1.417,-0.667c0.882,0.546 0.785,-0.343 0.225,-0.658c-0.865,-0.487 -2.053,-0.193 -2.318,0.793c-0.923,3.436 3.458,4.608 5.843,1.058c0.872,-1.297 1.82,-2.686 2.344,-3.278c0.471,-0.532 0.571,-0.476 0.495,0.21c-0.304,3.193 -2.512,7.182 -6.654,6.964c-4.026,-0.386 -5.284,-4.69 -2.244,-7.377c0.568,-0.433 1.123,-0.708 1.742,-0.719Zm21.331,0.174c-1.473,0.719 -2.808,0.99 -4.258,0.354c-1.072,-0.471 -1.055,0.04 -0.589,0.46c1.347,1.155 3.795,0.633 4.844,-0.018c0.34,-0.21 0.452,-0.819 0,-0.796l0.003,-0Zm24.66,0.017c1.084,0.065 2.815,1.455 3.338,2.825c0.59,1.537 0.738,3.126 -0.092,4.864c-0.578,0.373 -1.477,1.122 -1.744,1.015c-0.144,-0.085 0.007,-0.365 0.181,-1.028c0.661,-2.48 0.245,-4.416 -1.347,-6.24c-0.886,-1.016 -1.22,-1.194 -0.756,-1.378c0.123,-0.049 0.265,-0.067 0.42,-0.058l-0,0Zm28.195,2.39l3.926,2.696l0.012,2.568l-4.075,-2.753c-0.064,-0.614 0,-1.547 0.137,-2.511l-0,-0Zm-0,3.553l3.88,2.576l0.101,2.544l-3.769,-2.356l-0.212,-2.764Zm0.271,3.57l3.706,2.583l0.053,2.777l-3.673,-2.435l-0.086,-2.925Zm-90.313,2.903c-0.039,-0.193 -2.676,7.555 -2.676,7.555l2.522,1.781l2.676,-1.743l-2.754,-3.681c-0,0 0.271,-3.718 0.232,-3.912Zm90.467,0.938l3.571,2.475l0.054,2.564l-3.711,-2.586l0.086,-2.453Zm-0.146,3.14l3.663,2.666l0.072,2.726l-4.149,-2.788l0.414,-2.604Zm-81.866,1.634c-0.039,-0.193 -2.678,7.555 -2.678,7.555l2.522,1.783l2.676,-1.743l-2.754,-3.681c-0,-0 0.273,-3.72 0.234,-3.914Zm-16.93,0.606c-0.039,-0.194 -2.677,7.555 -2.677,7.555l2.521,1.781l2.678,-1.743l-2.755,-3.68c0,0 0.272,-3.719 0.233,-3.913Zm98.32,1.206l4.298,3.039l0.035,2.894l-4.166,-2.813l-0.167,-3.12Zm0.288,3.998l3.96,2.874l0.048,2.535l-3.617,-2.595l-0.391,-2.814Zm-72.729,3.285c-0.039,-0.193 -2.677,7.555 -2.677,7.555l2.522,1.783l2.677,-1.743l-2.754,-3.681c-0,-0 0.271,-3.72 0.232,-3.914Zm73.359,0.77l3.355,2.318l-0.025,2.603l-3.304,-2.231l-0.026,-2.69Zm-68.815,2.177c0.052,1.838 0.17,20.675 0.141,20.797c-2.313,0.269 -2.959,1.847 -3.168,3.966c-1.805,-0.136 -2.979,0.959 -3.015,1.14c-0.666,-0.922 -0.17,-2.28 -0.696,-3.243c-1.599,5.637 1.512,9.008 4.226,8.694c0.436,5.412 6.349,6.391 6.148,-0.173c7.154,-0.424 4.729,-7.054 -0.111,-6.177c0.034,-2.861 -1.459,-3.594 -2.695,-4.173c-0,-0 -0.208,-18.129 -0.181,-18.671c-0,0.079 -0.316,-1.963 -0.352,-2.084c-0,0.002 -0.296,-0.079 -0.296,-0.076l-0.001,-0Zm68.809,1.296l3.284,2.348l-0.04,1.126l-3.275,-0.066l0.031,-3.408Zm-98.925,1.068c-0.038,-0.193 -2.676,7.555 -2.676,7.555l2.52,1.783l2.677,-1.743l-2.755,-3.681c0,-0 0.273,-3.72 0.234,-3.914Zm102.244,6.647c-7.212,0.339 -13.688,0.846 -13.444,10.704c-1.037,4.184 0.719,7.91 5.753,6.759c1.102,-0.993 0.377,-2.431 0.242,-3.122c-0.43,-1.901 0.066,-3.137 0.204,-4.028c0.429,-2.755 2.432,-5.314 2.65,-0.995c0.351,-0.542 0.186,-0.621 0.765,-0.846c1.383,-0.502 1.381,0.906 1.098,1.474c-0.182,0.292 -0.457,0.268 -0.739,0.235c-0.402,-0.049 -0.927,-0.2 -0.935,-0.348c-0.109,0.448 0.732,1.282 0.644,1.703c-0.111,0.399 -0.183,0.367 0.184,0.103c1.735,-1.251 2.822,1.543 0.312,1.224c1.237,0.665 -0.594,2.614 0.684,3.612c3.895,0.299 6.793,-2.368 5.552,-4.282c1.45,-3.897 0.558,-7.929 -1.532,-9.64c-0.318,-0.381 0.741,-0.754 1.148,-1.408c-1.245,0.332 -1.911,-0.301 -2.586,-1.145Zm-4.309,1.399c0.666,0.001 0.839,0.129 0.791,0.672c0.26,1.335 0.591,1.955 2.318,1.815c1.74,-0.229 2.293,-0.339 0.541,0.721c-0.884,0.393 -1.172,0.47 -2.22,0.375c-1.057,-0.096 -0.977,-0.203 -1.58,0.16c-0.338,0.203 -0.706,0.451 -0.98,0.501c-0.407,0.074 -1.122,0.232 -1.122,0.232c-0.406,2.073 -1.025,3.117 -1.877,4.102c-1.206,1.381 -1.818,1.623 -0.34,1.519c0.547,0.034 0.264,-0.242 0.503,1.993c0.084,0.783 0.228,1.69 0.343,1.994c0.384,1.018 0.436,1.525 -1.026,1.598c-3.646,0.278 -4.498,-3.299 -4.012,-5.128c0.216,-1.095 0.259,-2.176 0.191,-3.178c0.083,-3.409 0.886,-4.309 3.888,-6.525c0.905,-0.669 2.532,-0.806 3.741,-0.82c0.342,-0.018 0.619,-0.031 0.841,-0.031l-0,0Zm2.363,0.215c1.683,-0.035 3.31,0.78 2.498,1.309c-0.524,0.342 -2.418,0.201 -2.944,-0.176c-0.679,-0.487 -0.424,-1.115 0.446,-1.133Zm3.641,2.342c1.091,0.22 1.134,1.222 0.857,1.84c-0.609,1.358 -4.688,2.016 -4.688,2.016c-0.033,-0.583 0.047,-1.145 -0.377,-1.801c0,-0 2.717,-0.717 3.292,-1.245c0.383,-0.353 0.615,-0.798 0.916,-0.81Zm-78.747,0.625c-0.019,-0.097 -1.351,3.699 -1.351,3.699l-0.211,4.642l1.406,0.995l2.677,-1.743l-2.753,-3.681c-0,-0 0.272,-3.719 0.232,-3.912Zm73.293,1.679c0.334,-0.025 0.774,0.279 0.862,0.693c0.063,1.235 -1.585,0.958 -1.637,0.177c-0.037,-0.554 0.461,-0.846 0.775,-0.87Zm6.262,0.785c0.396,0.005 0.606,0.295 0.712,0.882c0.051,0.315 -0.066,0.582 -0.32,0.926c-1.036,1.134 -3.948,1.921 -4.999,1.632c-0.074,-0.098 0.105,-1.294 0.181,-1.825c1.4,0.043 3.758,-1.209 4.426,-1.615Zm-48.525,2.002c0.891,0.029 1.735,0.551 2.117,1.454c0.202,0.625 0.262,1.344 0.038,1.965c-0.187,0.519 -0.529,0.597 -0.529,0.597l-1.791,-1.543l-1.753,1.638c0,0 -1.072,-1.089 -0.484,-2.599c0.572,-1.076 1.51,-1.541 2.402,-1.512l-0,-0Zm48.408,1.206c1.146,-0.073 0.553,1.258 -1.144,2.159c-1.065,0.565 -1.947,0.725 -2.329,0.52c-0.209,-0.625 -0.032,-1.194 0.099,-1.447c0.724,-0.375 2.713,-1.032 3.374,-1.232Zm-74.043,2.506c1.273,-0.032 2.376,0.883 2.417,2.502c0.017,0.66 -0.319,1.316 -0.319,1.316l-2.128,-1.582l-1.626,1.748c-0.277,0.097 -1.273,-1.154 -0.588,-2.516c0.497,-0.99 1.372,-1.447 2.244,-1.468Zm73.728,0.08c0.308,-0 0.386,0.119 0.475,0.409c0.251,0.824 -0.387,1.654 -1.489,1.916c-1.018,0.243 -0.922,0.362 -1.404,-0.555c-0.378,-0.719 -0.478,-0.688 0.113,-0.916c0.715,-0.234 1.48,-0.507 2.305,-0.854Zm-43.848,0.512c0.304,-0.013 0.611,0.026 0.884,0.151c1.79,0.818 2.101,3.342 0.36,4.313c-0.827,0.462 -2.129,0.719 -2.738,-0.216l1.758,-1.932l-2.018,-1.714c-0.06,-0.059 0.839,-0.564 1.754,-0.602Zm-8.252,0.317c0.737,0.017 1.324,0.285 1.192,0.409c-0,-0 -1.269,1.3 -1.825,1.844l1.912,2.01c0.092,0.245 -2.206,1.293 -3.414,-0.288c-0.785,-1.026 -0.343,-2.979 0.771,-3.648c0.426,-0.257 0.922,-0.337 1.364,-0.327Zm3.93,0.181c1.128,-0.016 2.054,0.891 2.07,2.028c0.017,1.137 -0.883,2.075 -2.011,2.091c-1.128,0.017 -2.058,-0.893 -2.075,-2.031c-0.016,-1.137 0.888,-2.071 2.016,-2.088Zm44.313,0.156c0.507,0.031 0.953,0.369 0.964,0.923c0.016,0.785 -0.877,1.043 -1.576,0.602c-0.542,-0.332 -0.575,-0.953 -0.284,-1.233c0.267,-0.22 0.592,-0.311 0.896,-0.292Zm-44.32,1.608c-0.217,-0 -0.393,0.175 -0.393,0.392c-0,0.217 0.176,0.392 0.393,0.392c0.217,0 0.392,-0.175 0.393,-0.392c-0.001,-0.217 -0.176,-0.392 -0.393,-0.392Zm-20.98,0.989c0.286,-0.007 0.57,0.038 0.814,0.161c1.29,0.651 1.952,2.991 0.508,4.224c-1.15,0.98 -2.904,0.165 -2.939,0.05l1.803,-1.989l-1.913,-1.853c-0.018,-0.113 0.87,-0.576 1.727,-0.593l0,-0Zm-8.349,0.257c0.477,-0.003 0.916,0.152 1.409,0.457l-1.832,1.934l1.982,2.173c-0,0 -1.57,0.258 -2.126,0.153c-2.698,-0.509 -2.434,-3.698 -0.348,-4.541c0.33,-0.117 0.63,-0.175 0.915,-0.176Zm4.054,0.454c1.089,-0.016 1.986,0.861 2.001,1.959c0.016,1.098 -0.854,2 -1.943,2.016c-1.09,0.016 -1.986,-0.861 -2.002,-1.959c-0.015,-1.098 0.855,-2 1.944,-2.016Zm-36.879,0.397c-0.52,0.02 -1.098,0.106 -1.737,0.263c0,-0 0.361,4.097 0.69,5.496c-0.217,1.596 -1.241,2.682 -1.702,4.322c-0.246,0.729 -1.17,1.71 -1.348,0.683c-0.666,-1.27 -0.028,-2.839 -0.579,-3.743c-0.422,-0.852 -0.197,-1.332 -0.383,-2.216c-0.518,-0.731 -0.764,-1.061 -0.678,-1.711c-0.11,-2.896 -0.826,-2.322 -2.102,-2.085c-4.947,0.43 -4.945,3.301 -4.64,6.947c-0.703,3.418 0.592,2.609 0.55,3.224c-0.066,0.975 0.091,2.341 0.382,2.491c1.765,2.039 1.851,3.452 4.147,3.102c3.884,0.306 10.056,-0.276 11.39,-5.049c0.754,-6.101 1.036,-11.926 -3.99,-11.724Zm-0.036,0.648c0.734,-0.009 1.599,0.145 2.31,0.833c1.525,1.473 1.188,2.775 0.916,8.478c-0.161,3.37 -3.053,5.111 -6.286,5.887c-0.79,0.195 -1.477,0.199 -2.012,0.195c-0.577,-0.004 -0.913,-0.273 -0.956,-0.761c0.127,-1.32 -1.211,-1.449 -1.985,-1.374c-1.381,0.055 -1.522,0.202 -0.661,-0.47c0.983,-0.768 3.249,-0.779 3.679,-0.33c0.883,-0.891 1.805,-0.996 2.932,-1.128c-0.167,-0.247 -0.572,-1.236 -0.304,-1.871c0.584,-1.035 1.567,-2.861 2.598,-3.546c1.021,-1.345 0.154,-0.736 -0.479,-0.713c-0.362,0.013 -0.33,-0.107 -0.389,-0.351c-0.252,-1.048 -0.615,-3.007 -0.618,-4.173c0,-0.562 0.521,-0.667 1.255,-0.676Zm64.119,0.186c1.489,1.811 0.212,3.968 -1.787,4.103c-1.655,0.083 -3.018,-1.702 -2.394,-3.481c0.342,-0.482 0.489,-0.413 0.489,-0.413l1.885,1.697l1.807,-1.906Zm-27.224,0.375c-0.217,0 -0.393,0.176 -0.393,0.392c-0,0.217 0.176,0.393 0.393,0.393c0.217,0 0.394,-0.175 0.394,-0.393c-0,-0.217 -0.177,-0.393 -0.394,-0.392Zm-44.058,0.691c0.238,-0.022 0.483,0.042 0.664,0.198c0.399,0.357 0.394,0.856 -0.025,1.227c-0.479,0.425 -1.43,0.191 -1.454,-0.608c0.04,-0.504 0.419,-0.781 0.816,-0.817l-0.001,-0Zm-1.787,0.128c0.172,0.009 0.334,0.05 0.434,0.145c-0.136,0.521 0.043,1.04 0.066,1.293c-0.328,0.236 -1.726,0.647 -2.475,1.019c-0.521,0.18 -0.897,-0.313 -0.825,-0.763c0.197,-0.839 1.421,-1.386 2.31,-1.646c0.137,-0.034 0.318,-0.058 0.49,-0.049l-0,0.001Zm76.679,1.331l-2.677,1.744l0.039,0.053l-0.039,0.025l2.75,3.674c-0.01,0.137 -0.229,3.841 -0.229,3.841l0.008,-0.008l-0.008,0.086l1.896,-8.201c0,0 -1.005,-0.695 -1.74,-1.214l0,-0Zm-28.972,0.836c1.246,2.799 -0.189,4.08 -1.715,4.046c-1.685,-0.038 -3.481,-1.646 -1.91,-3.925l1.952,1.604l1.673,-1.725Zm-46.966,0.378c0.504,-0.061 0.356,1.045 0.166,1.61c-0.187,0.405 -0.742,0.388 -1.241,0.418c-0.882,0.052 -1.992,1.076 -2.469,0.911c-0.158,-0.074 -0.272,-0.495 -0.289,-0.763c0.104,-1.477 2.538,-2.019 3.833,-2.176Zm1.704,0.057c0.894,-0.039 1.372,0.869 0.96,1.481c-0.169,0.248 -0.71,0.367 -1.163,0.241c-0.74,-0.204 -0.853,-1.275 -0.203,-1.643c0.143,-0.047 0.278,-0.073 0.406,-0.079Zm-1.106,2.578c0.48,0.087 0.242,1.571 0.161,1.616c-0.394,0.147 -2.098,0.371 -2.814,0.98c-1.527,1.206 -2.177,0.47 -1.47,-0.974c0.669,-0.84 3.13,-1.605 4.017,-1.621c0.038,-0.007 0.074,-0.007 0.106,-0.001l-0,-0Zm1.836,0.08c0.681,-0.064 1.157,0.696 0.742,1.419c-0.564,0.528 -1.552,0.141 -1.548,-0.607c-0,-0.471 0.381,-0.787 0.806,-0.812Zm-1.576,2.431c0.696,0.002 -0.047,1.079 0.572,1.844c0.094,0.394 -0.042,0.272 -0.757,0.484c-0.394,0.117 -1.014,0.381 -1.659,0.71c-0.945,0.481 -1.21,0.741 -1.546,0.686c-0.267,-0.059 -0.575,-0.176 -0.658,-0.448c-0.329,-1.089 0.551,-2.198 2.6,-2.96c0.426,-0.158 1.187,-0.287 1.448,-0.316Zm1.783,0.206c0.991,-0.015 1.176,1.311 0.435,1.544c-1.735,0.452 -1.588,-1.545 -0.435,-1.544Zm-2.591,4.682c0.682,-0.014 1.146,-0.016 1.369,0.2c0.278,0.269 0.318,0.711 0.007,0.942c-0.572,0.284 -2.769,0.042 -2.784,-0.579c-0.008,-0.41 0.725,-0.55 1.407,-0.563l0.001,-0Zm101.317,0.148l-2.678,1.745l2.755,3.679c-0,0 -0.272,3.72 -0.233,3.914c0.04,0.193 2.677,-7.555 2.677,-7.555l-2.521,-1.783Zm-106.655,4.228c1.084,1.288 1.663,2.132 3.475,2.803c0.419,18.88 0.348,62.143 0.348,62.143l5.331,3.654l5.612,-4.065c-0.058,-13.618 -0.112,-23.012 -0.165,-35.62l8.224,4.552c-0,0 0.251,0.368 0.213,2.071c-0.568,4.705 3.946,7.759 6.941,5.902c1.155,-0.49 1.248,-0.577 1.493,-0.209c0.673,1.012 1.433,5.347 1.56,8.112c0.191,4.166 1.278,12.66 1.54,12.717l-13.385,22.749l-21.187,-0l-0,-84.809Zm81.2,1.09l-2.677,1.745l2.754,3.68c-0,-0 -0.272,3.719 -0.233,3.913c0.039,0.194 2.676,-7.555 2.676,-7.555l-2.52,-1.783Zm-67.55,1.006l0.471,61.9c0,-0 -2.604,1.884 -3.436,2.426c-0.437,0.165 -0.649,0.195 -0.753,-0.226c-0.128,-0.518 0.078,-1.498 0.259,-3.119c0.168,-1.499 0.166,-1.583 -0.081,-3.719c-0.258,-2.231 -0.289,-2.325 -0.079,-5.27c0.233,-3.285 0.278,-6.475 0.02,-8.45c-0.245,-1.877 -0.242,-6.158 -0.054,-8.548c0.23,-2.926 0.155,-5.494 -0.225,-7.617c-0.678,-3.785 -0.789,-5.088 -0.083,-7.935c0.264,-1.066 0.395,-1.633 0.34,-3.417c-0.061,-1.984 -0.097,-2.632 -0.802,-7.026c-0.405,-2.529 -0.437,-2.875 -0.057,-6.877c0.077,-0.808 0.102,-1.349 0.408,-1.605c0.356,-0.299 4.072,-0.517 4.072,-0.517l0,-0Zm-5.251,0.733c-0.313,1.277 -0.382,2.249 -0.414,3.173l-3.594,-2.381l-0.039,-0.748l4.047,-0.044Zm-3.988,1.677l3.56,2.341c0.007,0.988 -0.07,1.931 0.072,2.918l-3.606,-2.413l-0.026,-2.846Zm0.008,3.715l3.808,2.624c0.148,1.022 0.459,2.056 0.578,2.975l-4.317,-2.945l-0.069,-2.654Zm123.141,1.034l0.199,75.554l-37.905,-0l-12.015,-23.263c0,-0 0.123,-2.141 0.42,-3.233c0.359,-1.32 0.455,-1.608 0.959,-1.671c1.349,0.704 2.851,-0.232 3.311,-1.262c0.566,-1.269 -0.58,-3.189 -2.341,-3.605c-0.777,-0.186 -1.625,0.165 -2.483,0.824c-0.498,0.42 -0.608,0.466 -0.707,0.102c-0.224,-0.821 0.499,-3.054 1.792,-4.97c0.719,-1.066 0.915,-1.373 1.148,-0.967c0.941,1.64 2.959,1.301 3.725,0.375c0.927,-1.121 0.735,-3.677 -1.365,-4.355c-4.109,-1.325 -5.995,2.831 -5.943,2.82l-0.88,-4.983c4.946,-1.221 7.801,-1.652 9.371,-3.164c1.236,-1.189 1.826,-3.246 1.673,-5.076c0,0 13.738,-5.626 20.167,-9.12c11.071,-6.014 20.874,-14.006 20.874,-14.006l0,0Zm-20.308,0.576l-2.677,1.745l2.755,3.679c-0,0 -0.272,3.72 -0.233,3.914c0.039,0.194 2.677,-7.555 2.677,-7.555l-2.522,-1.783Zm-17.291,0.74l-2.676,1.744l2.753,3.68c-0,-0 -0.272,3.719 -0.233,3.913c0.039,0.194 2.677,-7.555 2.677,-7.555l-2.521,-1.782Zm-85.364,1.415l4.364,3.031c0.095,0.985 0.221,1.862 0.09,2.978l-4.594,-3.063l0.14,-2.946Zm-0.077,3.872l4.515,3.014c0.017,0.931 0.061,1.808 -0.261,2.466l-4.259,-2.756l0.005,-2.724Zm93.916,0.251l-2.676,1.743l2.754,3.681c0,0 -0.271,3.72 -0.232,3.914c0.039,0.193 2.676,-7.555 2.676,-7.555l-2.522,-1.783Zm-93.907,3.26l3.914,2.898c0.057,0.041 -0.218,1.322 -0.156,2.047l-3.724,-2.313l-0.034,-2.632Zm0.106,3.584l3.649,2.527c0.009,0.959 0.074,1.86 0.224,2.675l-3.963,-2.592l0.09,-2.61Zm-0.063,3.652l4.22,3.027l0.222,2.433l-4.47,-2.833l0.028,-2.627Zm33.472,0.855c0.403,-0.037 0.829,0.011 1.266,0.159c4.05,1.522 7.846,9.284 7.73,19.334c-0.081,6.978 2.01,16.937 1.971,16.822c0,0 -1.174,0.159 -1.506,-0.104c-1.526,-5.123 -2.034,-10.536 -2.275,-15.001c-0.198,-3.724 -0.409,-7.378 -0.643,-8.231c-0.666,-3.003 -1.388,-6.506 -3.292,-8.788c-1.483,-1.721 -3.174,-2.021 -4.184,-0.088c-0.828,1.583 0.914,4.202 2.361,3.331c0.35,-0.198 0.559,-0.534 0.1,-0.524c-1.502,0.224 -2.51,-1.871 -1.559,-2.869c1.674,-1.758 4.603,2.159 3.244,4.315c-0.598,0.932 -2.164,1.097 -3.417,0.754c-2.785,-1.358 -3.483,-4.682 -2.551,-6.872c0.533,-1.253 1.544,-2.128 2.755,-2.238Zm-3.633,1.156c0.32,-0.077 0.105,0.628 -0.199,1.582c-0.717,2.287 0.627,5.839 2.488,6.547c0.559,0.383 0.529,0.529 0.156,0.74c-1.215,0.688 -3.42,-1.376 -4.002,-3.675c-0.421,-1.664 -0.318,-3.627 0.475,-4.46c0.284,-0.388 0.693,-0.639 1.082,-0.734Zm-2.692,1.311c0.335,-0.01 0.21,0.554 0.117,1.584c-0.216,2.386 0.519,4.121 2.191,5.561c0.705,0.608 0.898,0.798 0.594,1.117c-0.431,0.453 -1.667,-0.153 -2.635,-1.171c-1.774,-1.864 -2.361,-5.382 -0.979,-6.657c0.304,-0.28 0.537,-0.428 0.712,-0.434Zm-27.191,0.039l4.507,2.968c0.209,0.926 0.117,1.914 -0.024,2.911l-4.511,-3.168l0.028,-2.711Zm77.312,0.376c1.926,-0.076 3.55,0.677 3.729,3.049c0.262,3.473 -2.948,5.371 -5.187,3.377c-2.007,-2.002 0.028,-5.135 2.354,-3.666c1.17,0.743 -0.226,2.438 -1.172,1.562c-0.427,-0.396 -0.616,-0.15 -0.312,0.307c0.915,1.378 2.72,0.232 2.591,-0.982c-0.254,-2.386 -3.163,-2.355 -4.258,-1.421c-1.499,1.279 -2.821,3.161 -3.806,4.534c-0.806,1.19 -0.979,1.159 -0.86,-0.312c0.314,-3.887 3.917,-6.331 6.921,-6.448Zm-52.437,0.758c0.307,-0.011 0.185,0.433 0.208,1.575c0.124,2.934 1.351,4.761 2.907,5.783c0.522,0.581 -0.147,0.992 -1.128,0.711c-2.236,-0.694 -4.517,-5.536 -2.622,-7.618c0.265,-0.292 0.475,-0.445 0.635,-0.451Zm-2.174,0.963c0.309,-0.02 0.135,0.629 0.164,1.853c0.062,2.575 0.852,3.812 2.752,5.384c0.619,0.512 0.696,0.455 0.452,0.739c-0.651,0.756 -2.855,-0.315 -3.795,-1.857c-1.119,-1.836 -1.284,-4.606 -0.243,-5.652c0.291,-0.293 0.507,-0.457 0.67,-0.467Zm-2.162,1.24c0.257,0.001 0.114,0.467 0.153,1.58c0.096,2.697 0.707,4.032 2.404,5.28c1.067,0.784 1.327,0.548 1.001,0.858c-0.571,0.543 -2.135,0.078 -3.308,-0.92c-1.757,-1.496 -2.249,-5.185 -0.821,-6.448c0.255,-0.226 0.437,-0.351 0.571,-0.35Zm-20.463,0.382l4.331,3.024l-0.123,2.556l-4.308,-2.939l0.1,-2.641Zm73.828,1.196c0.098,0.019 0.208,0.128 0.321,0.366c0.26,1.007 0.927,2.403 1.838,2.675c0.367,0.109 0.06,0.622 -0.277,0.552c-1.763,-0.364 -2.43,-1.646 -2.216,-3.099c0.045,-0.304 0.172,-0.525 0.334,-0.494Zm-36.027,0.578c1.988,5.044 1.952,10.557 2.282,15.765c0.438,6.923 1.653,11.585 2.05,12.37c-0,0 -1.941,0.024 -2.04,-0.26c0,0 -1.831,-9.181 -1.555,-13.721c0.02,-5.08 -0.962,-9.546 -1.561,-11.553c-0.634,-1.778 -0.661,-0.603 0.824,-2.601Zm20.923,0.895c-0.895,0.016 -2.739,0.507 -2.732,0.84c-0,0.153 0.603,0.28 1.542,0.052c1.043,-0.254 2.081,-0.209 2.882,0.013c0.852,0.236 0.947,-0.04 0.177,-0.379c-0.376,-0.166 -0.974,-0.542 -1.869,-0.526l0,-0Zm13.69,0.311c0.128,-0.009 0.286,0.114 0.451,0.423c0.101,0.189 0.418,0.611 0.701,0.942c0.536,0.627 0.687,0.632 0.443,0.888c-0.561,0.59 -1.74,-0.265 -1.867,-1.355c-0.068,-0.498 0.06,-0.882 0.272,-0.898Zm-36.848,0.638c1.945,2.795 2.232,9.35 2.271,14.009c0.037,4.196 1.445,11.883 1.559,11.85c-0.401,0.238 -0.941,0.155 -1.447,-0.042c-0.5,-0.657 -0.806,-2.498 -1.387,-7.485c-0.15,-1.286 -0.445,-5.379 -0.511,-8.674c-0.059,-2.907 -1.668,-9.2 -1.668,-9.2c-0,0 0.625,-0.446 1.183,-0.458Zm17.751,0.123c-0.196,0.012 -0.132,0.683 0.018,1.492c0.049,1.856 0.286,1.101 0.936,0.805c0.489,-0.042 0.889,0.228 1.799,0.565c1.159,0.428 1.056,0.571 1.87,0.169c0.503,-0.249 0.903,-0.334 1.144,-0.137c0.952,0.78 2.18,0.341 2.872,-0.291c0.54,-0.284 1.129,-0.129 1.586,-0.087c0.659,0.061 0.488,-0.362 0.569,-1.202c0.073,-0.745 -0.21,-0.811 -0.975,-0.56c-0.783,0.257 -1.559,0.294 -2.238,0.085c-1.737,-0.534 -3.009,-0.187 -3.87,-0.051c-2.034,0.322 -2.142,0.116 -2.603,-0.178c-0.344,-0.219 -0.912,-0.622 -1.108,-0.61l-0,0Zm-53.342,0.003l4.166,2.744c-0.059,0.939 -0.068,1.879 -0.056,2.819l-4.083,-2.913l-0.027,-2.65Zm33.425,0.572c1.773,3.988 2.061,7.949 2.141,12.754c0.075,4.546 1.077,9.871 1.456,12.221c-0.598,0.062 -1.23,0.113 -1.481,-0.159c-1.011,-3.322 -1.314,-8.853 -1.595,-12.832c-0.347,-5.603 -0.436,-6.991 -1.225,-9.784c-0.447,-1.585 -0.605,-1.551 -0.267,-1.856c0.256,-0.232 0.747,-0.349 0.971,-0.344Zm38.106,0.054c0.12,0.049 0.221,0.264 0.423,0.529c0.45,0.592 0.582,0.871 0.204,0.926c-0.998,0.146 -1.247,0.04 -1.212,-0.586c0.028,-0.499 0.137,-0.694 0.456,-0.858c0.048,-0.025 0.09,-0.027 0.129,-0.011l0,0Zm-40.197,0.891c1.466,1.489 1.839,9.842 2.005,11.64c0.529,9.744 1.446,11.144 0.974,11.875c-0.554,-0.009 -0.748,0.197 -1.11,-0.292c-1.255,-3.569 -1.182,-7.236 -1.385,-10.96c-0.287,-4.931 -0.773,-7.603 -1.461,-10.047c-0.457,-1.625 -0.452,-1.652 0.374,-2.099c0.146,-0.079 0.471,-0.122 0.603,-0.117Zm-2.55,1.045c0.174,-0.005 0.367,0.032 0.575,0.129c0.516,1.184 1.554,6.564 1.695,11.208c0.112,3.688 0.985,10.897 1.147,10.937c-0.534,0.048 -1.173,-0.062 -1.432,-0.469c-1.599,-7.108 -1.09,-13.998 -2.939,-21.145c0.083,-0.26 0.432,-0.647 0.954,-0.66Zm37.655,0.211c-0.651,-0.046 -1.379,0.103 -2.168,0.459c-2.438,0.954 -3.07,1.738 -2.686,2.426c0.323,0.58 1.293,0.376 3.892,-0.717c1.941,-0.817 2.551,-0.46 2.945,0.773c-0.019,1.821 -1.765,2.003 -2.76,1.781c-0.159,-0.035 -0.341,-0.115 -0.341,-0.115c-0,0 0.089,0.418 0.432,0.709c1.955,1.658 4.477,-1.519 3.248,-3.491c-0.602,-1.125 -1.477,-1.748 -2.562,-1.825Zm-15.61,0.587c-0.647,-0.023 -1.258,0.129 -1.868,0.611c-2.012,1.592 -1.293,4.46 0.381,4.891c0.467,0.238 1.161,0.126 1.434,-0.056c0.251,-0.168 0.249,-0.442 -0.265,-0.528c-1.555,-0.26 -2.438,-1.41 -1.686,-2.576c0.729,-1.131 2.08,-0.914 4.677,0.215c2.246,0.975 3.23,0.674 3.495,-0.497c0.117,-0.517 -0.025,-1.002 -1.102,-1.042c-2.061,-0.077 -3.645,-0.969 -5.066,-1.018Zm-50.769,0.208l4.321,3.123l0.091,2.664l-4.409,-3.153l-0.003,-2.634Zm76.433,2.38c1.372,0.067 2.244,0.933 2.282,1.913c0.087,2.204 -2.523,2.227 -2.879,0.501c-0.134,-0.826 -1.465,0.021 -2.347,1.484c-0.868,1.439 -0.958,1.644 -1.135,0.15c-0.263,-2.228 2.031,-3.971 3.462,-4.026c0.216,-0.025 0.421,-0.032 0.617,-0.022l0,-0Zm-76.528,1.097l4.574,3.167c0,0 0.155,1.698 0.056,2.61l-4.594,-2.963l-0.036,-2.814Zm60.026,0.766c-0.139,0.009 -0.286,0.049 -0.44,0.126c-0.332,0.166 -0.581,0.324 -1.287,0.147c-1.072,-0.226 -2.359,-0.468 -3.365,0.025c-1.99,1.36 -0.821,3.843 0.57,4.122c1.468,0.295 1.571,-0.737 0.112,-1.042c-0.78,-0.308 -0.979,-1.057 -0.675,-1.635c0.696,-1.148 1.983,-0.405 2.731,-0.047c1.66,0.796 2.52,1.088 3.044,0.538c0.815,-0.857 0.281,-2.299 -0.69,-2.234l0,-0Zm-59.988,3.001l4.501,3.105l-0.138,2.746l-4.225,-3.125l-0.138,-2.726Zm0.093,3.774l4.233,3.04c-0.063,1.16 -0.034,1.624 0.012,2.363l-4.28,-2.786l0.035,-2.617Zm74.854,0.584c3.394,0.335 2.269,4.266 -0.101,3.205c-0.632,-0.479 -0.822,-0.441 -1.524,1.283c-0.898,2.206 -1.118,2.027 -0.995,-0.521c0.091,-2.495 1.228,-3.947 2.62,-3.967Zm-7.749,0.431c0.93,0.038 1.877,0.875 2.625,2.663l-1.027,0.061c-0.921,-2.232 -2.224,-2.566 -3.33,-0.361l-0.796,-0.231c0.684,-1.409 1.598,-2.17 2.528,-2.132l0,-0Zm-2.507,0.116c0.525,-0.032 0.457,0.212 -0.09,0.966c-0.475,0.655 -0.591,0.758 -1.068,0.401c-0.784,-0.587 0.518,-1.323 1.158,-1.367Zm-14.07,0.01c0.857,-0.026 1.678,0.552 2.112,2.067l-0.607,0.088c-0.916,-2.058 -2.82,-1.587 -3.407,0.323l-0.838,-0.096c0.476,-1.317 1.638,-2.348 2.74,-2.382Zm-2.417,0.043c0.08,0.002 0.145,0.015 0.185,0.047c0.229,0.259 -0.46,1.285 -1.043,1.887c-0.431,0.284 -1.475,-0.484 -1.222,-0.858c0.297,-0.365 1.532,-1.02 2.08,-1.076Zm21.351,0.013c0.101,0.006 0.218,0.016 0.35,0.049c1.059,0.263 1.544,0.769 1.025,1.418c-0.324,0.404 -0.638,0.563 -0.851,0.292c-0.714,-1.187 -1.11,-1.794 -0.524,-1.759l0,0Zm-16.653,0.398c0.268,-0.031 0.609,0.122 0.666,0.305c0.111,0.441 -0.235,0.755 -0.622,0.388c-0.158,-0.15 -0.295,-0.405 -0.275,-0.593c0.06,-0.057 0.141,-0.089 0.231,-0.1Zm-52.852,1.823l4.353,3.15c0.142,1.11 0.171,1.952 0.164,2.71l-4.48,-2.992l-0.037,-2.868Zm62.128,0.308c0.255,-0.002 0.856,0.328 1.311,0.645c2.506,1.732 5.446,1.709 7.285,0.188c0.411,-0.339 0.768,-0.354 0.775,-0.027c-0.262,1.213 -3.458,2.77 -5.955,1.888c-1.371,-0.485 -2.499,-0.966 -3.399,-2.257c-0.2,-0.316 -0.171,-0.436 -0.018,-0.437l0.001,0Zm0.111,1.477c0.037,-0.005 0.084,-0 0.139,0.013c3.664,3.186 6.576,2.301 8.784,0.694c0.326,-0.082 0.331,0.214 0.403,0.764c0.093,0.705 -0.487,1.052 -2.074,1.531c-3.069,0.927 -6.669,-0.087 -7.318,-2.161c-0.066,-0.357 -0.195,-0.808 0.067,-0.841l-0.001,0Zm-62.255,1.921l4.413,3.051l-0.142,2.332l-4.298,-2.929l0.027,-2.454Zm0.071,3.572l4.165,2.847l-0.013,1.929l-4.053,-2.909l-0.099,-1.867Zm72.977,0.839l10.949,21.647l-65.984,0.089c4.309,-7.035 7.894,-14.728 12.311,-21.669c17.771,4.052 30.365,2.129 42.724,-0.067Z" style="fill:#242424;fill-rule:nonzero;"/><path id="path3442-2-7-0" d="M62.148,20.039c1.902,3.294 3.402,6.697 5.113,10.066l0.274,0.177l0.41,0.78l0.046,0.379l1.014,1.636l-0.006,0.351l4.305,8.072c3.55,-1.336 32.716,-3.742 43.515,0.194l1.573,-2.687l0.376,-0.003l2.774,-4.905l-0.044,-0.413l0.933,-1.072l0.136,-0.489l3.06,-4.828l0.011,-0.778l3.828,-6.433l-67.318,-0.047Zm66.038,0.926c-0,0 -1.997,3.87 -3.025,5.433c-0.833,-0.662 -3.247,-0.212 -3.103,2.353c-3.934,-1.503 -4.883,3.228 -1.841,4.293c-1.561,1.374 -3.053,-0.18 -4.237,-1.233c-1.157,0.289 -3.561,1.146 -4.922,-1.377c-0,-0 0.569,0.309 1.137,0.646c3.218,0.986 3.477,-3.391 1.084,-4.108c-0.302,-0.08 -0.869,-0.112 -0.869,-0.112c0.804,-3.367 -4.362,-4.542 -4.459,-0.496c-0,-0 -0.615,-0.102 -1.081,-0.016c-2.738,0.503 -2.111,4.574 0.689,4.379c0.385,-0.027 0.73,0.043 0.73,0.043c-0.046,0.652 -3.433,1.897 -5.874,-0.345c-1.157,0.888 -2.989,2.002 -5.378,-0.213c1.571,-0.065 3.077,-0.515 3.06,-2.31c-0.011,-1.168 -1.053,-2.211 -2.556,-2.267c-0.085,-1.305 -1.05,-2.551 -2.303,-2.647c-1.529,0.09 -2.311,1.334 -2.322,2.647c-1.3,0.135 -2.517,1.291 -2.237,2.616c0.382,1.808 1.763,2.03 3.341,1.686c-1.919,3.108 -5.042,1.487 -6.005,0.496c-1.147,1.078 -3.146,2.538 -5.608,0.542c1.312,-0.226 2.771,-1.002 2.525,-2.848c-0.194,-1.455 -1.814,-1.887 -2.518,-1.81c-0.001,-0.961 -0.722,-2.547 -2.422,-2.383c-1.854,0.179 -1.744,2.543 -1.722,2.561c-1.532,-0.127 -2.643,1.689 -2.206,2.849c0.531,1.411 1.645,1.849 3.69,1.468c-2.386,2.258 -3.902,1.382 -5.205,0.907c-1.153,1.218 -2.692,1.611 -4.271,0.531c3.531,0.17 2.969,-6.122 -1.218,-3.84c-2.978,-3.532 -2.924,-1.963 -5.593,-7.158l64.719,-0.287Zm-32.902,6.201c0.171,-0.007 0.353,0.028 0.531,0.12c0.552,0.283 0.655,0.777 0.319,1.507c-0.118,0.257 -0.289,0.551 -0.262,0.822c3.888,7.227 12.46,3.997 13.266,0.639c0.052,-0.213 -0.047,-0.446 -0.157,-0.674c-0.33,-0.552 -0.286,-1.005 0.142,-1.383c0.912,-0.807 2.221,0.145 1.691,1.232c-0.139,0.287 -0.286,0.601 -0.18,0.984c2.201,5.037 6.582,5.415 10.26,3.422c-1.694,3.057 -8.26,4.931 -11.017,-2.43c-4.401,5.997 -11.385,5.884 -14.554,-0.887c-2.851,6.926 -11.451,7.09 -14.581,1.337c-2.849,6.581 -9.457,5.088 -11.328,0.969c6.138,4.477 10.182,-0.197 10.909,-2.19c0,0 -0.143,-0.233 -0.338,-0.426c-0.786,-0.777 -0.764,-1.691 0.05,-2.054c1.042,-0.465 2.019,0.544 1.484,1.534c-0.15,0.278 -0.283,0.339 -0.185,0.578c1.91,4.488 11.318,5.792 13.224,-0.504c0.064,-0.36 0.027,-0.692 -0.135,-0.965c-0.447,-0.752 0.121,-1.6 0.861,-1.631Zm-27.462,2.542c1.484,0.085 1.07,1.371 0.773,1.469l-0.773,-1.469Zm55.101,0.802c0.01,0.024 -0.915,1.666 -0.915,1.666c-0.489,-0.788 -0.362,-1.77 0.915,-1.666Zm-5.016,8.297c-0,-0 -0.948,2.113 -1.261,2.29c-17.577,-4.539 -42.101,-0.592 -42.704,-0.155l-1.08,-2.05c15.411,-3.104 30.777,-2.441 45.045,-0.085Zm-29.692,31.397c-1.697,6.598 -5.805,7.269 -10.767,8.072c-6.146,0.994 -10.152,-1.264 -12.025,-4.713c0,0 -8.79,3.348 -11.997,5.294c6.669,3.08 15.48,9.9 20.489,17.644c1.784,2.361 1.694,1.827 1.691,7.006c-0.007,11.232 0.02,15.408 0.02,15.408c2.751,0.415 2.902,2.323 2.752,4.465c2.209,-0.983 4.334,0.22 4.324,2.321c-0.017,3.861 -3.781,2.812 -4.563,2.387c1.224,3.403 -0.212,4.813 -1.679,4.98c-1.809,0.206 -3.883,-0.67 -3.278,-4.566c-4.48,1.076 -4.703,-3.196 -4.91,-6.948c4.876,-9.248 -1.245,-16.768 -6.993,-19.241c0,0 1.626,-3.389 3.729,-4.34c0.214,-0.065 -1.275,-2.266 -3.779,-1.786c-1.152,0.024 -0.884,0.016 -1.968,-1.403c-2.143,-2.805 -3.151,-2.997 -5.239,0.004c-0.919,1.321 -1.139,1.357 -2.226,1.379c-1.198,0.025 -3.035,0.892 -3.429,1.667c-0.09,0.177 0.38,0.358 1.003,1.092c0.898,1.058 2.283,2.51 2.065,3.988c-4.733,1.941 -12.585,10.459 -4.329,21.364l-5.97,0.077l-0.284,-38.821l-4.152,2.329l0.185,30.408l-1.184,-0.395c0.091,-9.699 -0.054,-19.392 -0.358,-29.087l-10.948,8.041l0.488,45.595l1.165,0.248c0.864,6.213 13.072,1.868 13.785,2.407l0.146,25.336l-0.534,1.255l9.714,5.352l8.911,-4.658c-0,0 1.202,-0.218 1.653,-0.457c3.694,-1.963 6.448,-1.522 8.457,1.356c1.239,1.776 1.449,2.038 1.449,2.038c0.751,-5.123 5.258,-7.012 9.629,-5.673c3.215,0.985 7.609,4.215 8.953,8.157c0,0 0.242,0.594 0.481,0.861l0.184,0.081c-0.011,-0.103 -0.212,-0.594 -0.288,-0.833c-4.509,-10.438 -17.215,-12.039 -19.174,-3.511l-1.8,-2.542l9.461,-5.848l12.928,8.576c-0,0 -0.608,3.015 -0.677,4.317l0.223,0.105c0.089,-1.578 0.558,-3.38 1.299,-4.716c0.306,-0.551 0.661,-1 1.057,-1.333c0.772,-0.453 1.489,-0.406 2.272,-1.148l-1.887,-1.422l-0.043,-4.565l3.795,5.356c1.193,-0.278 5.839,-1.676 8.595,-0.128c0.311,0.097 4.353,-1.064 6.869,4.619c4.446,-1.885 9.404,-3.864 12.897,-5.627c-12.082,-4.494 -24.281,-20.406 -23.107,-20.662c0,-0 -0.035,-1.633 0.058,-5.639c0.098,-4.465 0.045,-9.022 0.119,-13.503c-4.111,-1.323 -3.089,-4.663 -3.089,-4.663c-2.472,0.546 -2.866,0.062 -3.492,-0.376l-0.426,-4.228c1.482,-1.271 2.371,-1.39 4.205,-0.984c-0,-0 -0.889,-1.837 -0.081,-3.349c0.681,-1.195 2.493,-1.949 3.94,-1.108c1.82,1.202 1.517,3.592 1.045,4.288c-0.011,0.014 -0.027,0.044 -0.032,0.062c1.94,-0.859 4.318,0.11 4.9,2.04c0.291,-5.73 0.785,-12.145 1.926,-17.144c2.103,-9.021 5.546,-18.468 9.86,-25.897c1.14,-1.943 2.287,-3.414 3.329,-5.352c-0,-0 -0.923,0.512 -1.899,0.787c-1.405,0.383 -2.462,0.749 -2.622,0.91c-1.027,0.872 -2.375,1.518 -3.475,2c-3.881,1.522 -6.489,-0.748 -8.101,-4.215c-0.896,4.403 -4.9,8.129 -10.804,5.814c-3.336,-1.785 -4.385,-2.926 -7.504,-7.582c-0.262,-0.476 -0.938,-1.023 -0.938,-1.023Zm0.129,0.719c2.207,4.4 5.512,7.517 8.724,8.763c5.736,1.896 9.519,-1.806 10.586,-5.207l1.107,1.889l-8.684,6.216l-13.104,-8.398c0.219,-0.202 1.391,-3.161 1.371,-3.263Zm39.434,0.304l-3.89,2.309c0,0 -2.584,4.203 -3.452,5.786c-4.538,8.08 -7.945,16.871 -9.721,25.592c-1.589,7.222 -2.173,16.16 -2.003,22.243l0.303,0.333c0,0 -0.476,0.844 -0.818,1.554c-0.929,1.932 -1.156,3.024 -1.1,5.263c0.13,5.152 3.237,10.084 7.627,12.094c0.247,0.114 0.577,0.26 0.577,0.26c-0,-0 -0.753,2.051 -2.119,3.495c-0.911,0.964 -1.106,1.011 -0.784,1.485c0.448,0.659 1.894,1.231 3.691,1.205c0.635,-0.01 0.631,-0.011 1.806,1.279c2.294,2.518 2.984,2.466 5.071,-0.388c0.62,-0.848 0.973,-1.051 1.879,-1.073c1.334,-0.032 3.767,-1.117 3.756,-1.624c-1.641,-0.733 -3.543,-4.51 -3.24,-4.55c8.975,-4.787 10.877,-14.71 4.322,-22.007l6.26,-0.1l0.231,39.585c1.226,-0.821 3.998,-2.585 3.998,-2.585l-0.092,-30.804c0.431,0.083 0.869,0.394 1.706,0.531l0.246,29.331c0,0 8.045,-5.716 11.871,-8.7l-0.234,-44.886l-0.915,0l0.146,44.863l-10.629,7.824l-0.069,-27.882c-0,0 0.839,-0.126 1.153,-0.17c3.111,-0.439 4.552,-4.438 2.487,-7.049c-0.733,-0.927 -0.213,-0.862 1.345,-1.163c2.764,-0.245 4.294,-2.351 3.491,-3.852c-0.345,-0.644 0.104,-0.574 0.396,-1.186c0.191,-0.481 0.155,-1.077 0.073,-1.55c-0.108,-0.62 0.144,-0.894 0.3,-1.29c0.244,-0.62 0.007,-1.321 -0.4,-1.903c-0.43,-0.614 -0.311,-1.274 -0.315,-1.682c-0.019,-0.911 -0.346,-1.041 -1.304,-1.922c-0.724,-0.666 -0.143,-0.811 0.923,-1.364c1.677,-0.87 1.792,-3.948 -0.438,-5.258c-2.794,-1.149 -7.156,0.101 -11.936,0.577c-0,-0 -0.016,-17.55 -0.138,-26.595l-10.061,-6.026Zm0,0.62c0,-0 9.544,5.628 9.469,5.785c-3.206,4.425 -15.16,22.058 -15.246,43.379c-8.766,-1.109 -12.356,5.8 -12.782,5.774c-1.152,-26.098 9.355,-44.77 14.738,-52.695l3.821,-2.243Zm-6.278,2.869l0.016,1.439l-1.915,3.064l-0.073,-3.229l1.972,-1.274Zm-2.663,1.556l0.069,4.588l-3.875,2.984l-0.109,-4.786l3.915,-2.786Zm-35.915,1.05l1.991,1.388l-0.069,4.553l-2.999,-5.499l1.077,-0.442Zm54.509,1.535l0.015,3.294c-7.639,10.863 -11.648,23.271 -12.873,38.984l-1.861,-0.062c0.492,-15.625 5.711,-29.882 14.719,-42.216Zm-51.742,0.337l4.713,3.104l-0.203,5.193l-4.279,-2.767l-0.4,-1.062l0.169,-4.468Zm28.531,0.221l-0.019,4.828l-3.64,2.725l-0.169,-4.794l3.828,-2.759Zm-44.122,1.263c0.54,0.007 0.971,0.403 1.072,1.155c0.4,3.209 2.822,2.283 3.398,3.247c0.218,0.329 -0.298,0.615 -1.956,0.481c-3.04,-0.229 -5.256,-2.708 -3.702,-4.34c0.399,-0.37 0.818,-0.547 1.188,-0.543Zm21.008,2.07l4.025,2.584l-0.012,5.333l-3.944,-2.426l-0.069,-5.491Zm18.363,0.015l0.311,4.716l-4.405,2.953l-0.158,-4.685l4.252,-2.984Zm8.384,0.019l-2.529,5.43l-14.758,10.703l-12.247,-7.995l-2.272,-5.239l14.288,9.397l17.518,-12.296Zm-39.798,2.155c3.922,-0.048 6.931,4.148 7.961,7.824c0.749,2.431 0.863,3.306 0.942,7.165c0.081,3.932 0.203,4.61 0.934,5.166c0.45,0.342 0.581,0.25 0.638,-0.446c0.127,-1.545 1.959,-0.593 1.991,1.035c0.036,1.808 -1.938,2.388 -3.398,1c-0.777,-0.74 -0.787,-0.733 -1.03,0.72c-0.162,0.974 -1.287,7.068 1.588,8.584c0.541,0.052 0.671,-0.386 0.269,-0.895c-0.807,-1.022 0.804,-2.201 2.118,-1.55c1.587,0.786 1.427,3.365 -0.269,4.282c-1.94,1.049 -4.448,-0.143 -5.62,-2.67c-0.86,-1.855 -0.857,-4.427 0.015,-8.247c0.402,-1.76 0.579,-2.881 0.669,-4.231c0.03,-0.443 0.082,-0.926 0.115,-1.074c0.094,-0.411 -0.108,-0.431 -0.803,-0.077c-1.898,0.964 -3.968,0.279 -4.479,-1.484c-0.609,-2.109 1.721,-4.287 3.16,-2.953c0.547,0.506 0.48,1.008 -0.173,1.333c-1.131,0.562 -0.745,2.04 0.458,1.748c3.964,-1.197 0.34,-12.411 -4.125,-13.188c-2.952,-0.513 -5.269,2.876 -3.133,4.689c0.837,0.71 1.686,0.329 1.503,-0.674c-0.255,-1.4 1.59,-1.248 2.272,0.186c1.11,2.334 -1.756,4.234 -4.432,2.941c-4.804,-2.875 -1.52,-9.096 2.829,-9.184Zm17.779,0.891l3.956,2.678l0.034,5.204l-3.928,-2.348l-0.062,-5.534Zm8.715,0.45l0.019,4.778l-3.817,2.798l-0,-5.084l3.798,-2.492Zm10.283,3.131l-1.953,5.483l-12.321,8.495l-10.163,-6.425l-1.749,-5.073l11.974,7.82l14.212,-10.3Zm-79.962,0.399l-0.003,27.758c-3.993,0.171 -6.284,4.152 -3.295,7.913c0,0 -0.521,0.071 -1.13,0.155c-2.701,0.374 -4.51,1.817 -4.152,3.565c0.11,0.536 -0.001,1.077 -0.153,1.345c-0.241,0.719 -0.177,1.268 0.146,1.887c0.253,0.487 0.211,0.682 0.069,1.043c-0.306,0.775 -0.233,1.373 0.127,1.964c0.445,0.439 0.321,0.793 0.261,1.496c-0.071,0.993 0.106,1.393 0.727,1.779c0.8,0.498 1.098,1.315 0.188,1.248c-0.452,-0.034 -2.041,1.511 -2.041,1.511l-0.15,-44.545l9.406,-7.119Zm21.647,3.561c0.714,-0.001 1.45,0.903 2.506,2.43c0.638,1.094 0.65,0.945 2.11,0.888c1.492,0.109 2.401,0.506 2.791,0.961c0.148,0.172 -0.244,0.216 -1.188,1.182c-0.978,1 -1.114,1.398 -1.764,2.518c-0.234,0.404 -0.745,0.442 -0.984,0.074c-0.193,-0.298 0.302,-1.267 1.23,-2.41c1.31,-1.275 1.034,-1.403 -0.869,-1.202c-1.337,0.142 -1.48,0.075 -1.987,-0.744c-1.514,-3.033 -2.318,-2.931 -3.767,0.093c-0.396,0.847 -0.239,0.792 -1.953,0.659c-1.351,-0.105 -1.685,0.239 -0.923,0.953c1.19,0.985 1.653,3.307 1.588,3.279l-0.919,0.085c-0,0 -0.281,-0.523 -0.404,-0.852c-0.249,-0.668 -0.918,-1.67 -1.645,-2.461c-1.029,-1.121 -0.464,-1.734 1.834,-1.984c1.28,-0.14 1.309,-0.157 1.899,-1.027c1.038,-1.532 1.73,-2.44 2.445,-2.442Zm55.885,2.763l-1.326,4.736l-10.51,7.429l-8.549,-5.751l-1.134,-4.453l9.821,6.27l11.698,-8.231Zm-36.234,3.752c-0,-0 3.037,5.965 4.14,9.831c0.959,3.363 2.292,13.1 1.941,13.699c-0.747,-1.033 -3.215,-0.8 -3.248,-0.791c0.209,-1.14 -0.706,-3.439 -2.81,-3.894l-0.023,-18.845Zm34.577,2.181l-1.049,4.662l-8.949,6.522l-7.385,-5.084l-0.968,-4.507l8.172,5.503l10.179,-7.096Zm-52.026,0.26l1.161,0.407l0.219,8.421l8.953,1.499l0.204,1.442l-10.368,-1.686c-0.108,-3.591 -0.169,-10.083 -0.169,-10.083Zm-4.544,0.252l0.25,9.792c-0.096,-0.032 -7.463,1.026 -10.283,1.771l0.166,-1.34c-0,-0 5.12,-1.123 8.83,-1.554c-0,-2.739 -0.022,-5.619 -0.027,-8.409l1.064,-0.26Zm83.294,1.802c0,-0 1.219,0.114 3.825,-0.349c6.72,-1.185 8.54,-0.705 9.399,1.384c0.939,3.238 -2.583,3.316 -3.211,1.26c-0.399,-1.332 -1.842,-1.04 -6.66,0.111c-4.121,0.985 -6.733,0.197 -6.682,-2.157c0.051,-2.419 2.786,-2.633 3.329,-0.249Zm-55.224,-1.771c0.831,-0.012 1.518,0.658 1.53,1.496c0.012,0.837 -0.653,1.526 -1.484,1.538c-0.831,0.012 -1.514,-0.654 -1.526,-1.492c-0.012,-0.837 0.649,-1.53 1.48,-1.542Zm-21.831,0.267l1.061,0.322c0,-0 0.157,6.388 0.189,6.398c2.283,0.507 7.077,1.414 7.077,1.414l0.253,1.264c-2.006,-0.475 -8.403,-1.531 -8.403,-1.531c-0.199,-2.77 -0.177,-7.867 -0.177,-7.867Zm-7.745,0.12c-0,0 0.004,5.098 -0.081,7.836c0.036,-0.024 -5.428,0.877 -8.203,1.457l0.215,-1.023c2.194,-0.499 4.583,-1 7,-1.511c-0.048,-2.005 -0.046,-6.402 -0.046,-6.402l1.115,-0.357Zm3.901,1.097c0.668,-0.01 1.221,0.533 1.23,1.205c0.01,0.673 -0.528,1.223 -1.195,1.233c-0.667,0.009 -1.213,-0.525 -1.222,-1.198c-0.01,-0.672 0.52,-1.23 1.187,-1.24Zm90.921,3.182c0.743,1.11 1.367,1.077 2.099,0.968c-0.185,0.055 -1.049,0.57 -1,0.741c0.025,0.085 -0.364,1.488 0.227,1.546c2.23,0.217 1.102,2.551 1.369,2.91c0.603,0.693 1.044,1.132 0.63,1.996c-0.367,0.766 -0.893,0.742 -0.484,1.399c0.888,1.346 -0.339,1.625 -0.231,2.542c0.075,0.553 0.268,1.309 0.066,1.74c-0.611,1.298 -2.767,2.038 -5.163,2.139c-0.342,0.015 -0.083,-0.547 -0.242,-0.903c-0.593,-0.378 -0.268,-1.014 -0.069,-1.43c0.196,-0.553 0.198,-0.553 -0.17,-0.833c-1.022,-0.641 -0.97,-0.936 -0.888,-1.399c0.225,-1.369 0.014,-1.503 -0.396,-1.705c-0.524,-0.26 -0.452,-0.837 -0.219,-1.577c0.161,-0.512 0.047,-0.64 -0.2,-1.105c-0.145,-0.273 -0.188,-0.421 -0.192,-0.597c0.074,-0.706 -0.554,-0.704 -1.434,-0.011c-0.745,1.295 -1.001,2.995 -1.468,4.069c-0.361,0.825 -0.419,1.686 0.012,3.588c0.825,2.907 0.212,3.392 -3.033,2.771c-2.441,-0.605 -3.162,-3.231 -2.484,-6.445c0.11,-0.519 0.08,-1.022 0.031,-1.429c-0.266,-2.213 0.302,-4.338 1.834,-5.79c2.556,-2.424 3.821,-2.793 9.106,-2.453c2.069,0.148 2.226,0.279 2.226,0.279c0,0 0.009,-1.003 0.073,-1.011l0,-0Zm-38.068,0.666l-0.615,4.507l-5.046,3.497c-2.222,-2.069 -4.577,-1.382 -5.702,0.785c-1.303,-0.666 -3.906,-2.48 -3.906,-2.48l-0.665,-5.111l7.215,5.045l8.719,-6.243Zm-52.745,1.07c0.667,-0.01 1.213,0.528 1.222,1.201c0.01,0.673 -0.52,1.226 -1.187,1.236c-0.668,0.01 -1.221,-0.525 -1.231,-1.197c-0.009,-0.673 0.529,-1.231 1.196,-1.24Zm51.915,4.615l-0.273,4.34l-1.765,1.337l-2.275,-0.115c0.21,-1.104 -0.125,-2.625 -0.103,-2.64l4.416,-2.922Zm-51.946,0.035c0.667,-0.01 1.221,0.533 1.23,1.205c0.01,0.673 -0.528,1.223 -1.195,1.232c-0.667,0.01 -1.213,-0.524 -1.223,-1.197c-0.009,-0.673 0.521,-1.23 1.188,-1.24Zm4.867,0.136c0.667,-0.01 1.213,0.524 1.222,1.197c0.01,0.673 -0.521,1.226 -1.188,1.236c-0.667,0.01 -1.216,-0.529 -1.226,-1.201c-0.01,-0.673 0.525,-1.223 1.192,-1.232Zm-9.676,0.232c0.667,-0.01 1.217,0.529 1.227,1.201c0.009,0.673 -0.521,1.227 -1.188,1.237c-0.667,0.009 -1.221,-0.529 -1.23,-1.202c-0.01,-0.672 0.524,-1.226 1.191,-1.236Zm89.872,0.198c0.34,-0.028 0.844,0.481 0.599,1.244c-0.328,0.87 -0.097,1.166 0.45,1.871c0.463,0.597 0.381,0.68 0.311,1.062c-0.106,2.506 1.495,1.423 0.8,3.244c-0.151,0.396 0.049,0.962 0.119,1.43c-0.156,-0.429 -3.102,-0.39 -3.352,0.046c-0.419,-0.063 -0.95,-2.852 -0.527,-3.22c0.055,-0.001 0.362,0.478 0.519,0.748c0.396,0.676 0.481,0.651 0.358,-0.132c-0.489,-3.11 -0.196,-6.274 0.723,-6.293Zm-75.318,0.217c0.667,-0.01 1.217,0.528 1.226,1.201c0.01,0.673 -0.524,1.223 -1.191,1.232c-0.668,0.01 -1.213,-0.525 -1.223,-1.197c-0.009,-0.673 0.521,-1.227 1.188,-1.236Zm-19.574,0.224c0.667,-0.009 1.213,0.529 1.222,1.202c0.01,0.672 -0.52,1.222 -1.188,1.232c-0.667,0.01 -1.22,-0.525 -1.23,-1.197c-0.009,-0.673 0.529,-1.227 1.196,-1.237Zm47.39,0.353l3.621,2.368c0.05,0.658 -0.144,0.879 0.208,2.178c-2.364,-0.222 -3.56,1.135 -3.56,1.135l-0.269,-5.681Zm-25.794,3.786l-0.281,1.287c-7.134,-1.851 -15.109,-1.949 -22.73,0.085l-0.592,-1.352c7.697,-2.353 15.875,-2.44 23.603,-0.02Zm-33.782,-0.081c1.039,-0.018 2.101,0.372 2.849,1.217c1.404,1.586 0.728,4.528 -1.257,5.464c-2.972,1.399 -6.067,-1.594 -4.806,-4.678c0.524,-1.28 1.878,-1.98 3.214,-2.003Zm73.542,0.376l-0.047,1.29l-0.903,-0.759l0.95,-0.531Zm-18.91,0.058c1.311,-0.019 2.388,1.039 2.407,2.36c0.019,1.32 -1.027,2.406 -2.337,2.426c-1.31,0.019 -2.388,-1.036 -2.407,-2.356c-0.019,-1.321 1.027,-2.411 2.337,-2.43Zm-54.567,0.077c-0.319,0.005 -0.85,0.136 -1.091,0.361c-0.633,0.588 0.003,0.605 0.838,0.759c1.483,0.275 1.891,1.562 1.756,2.953c-0.122,1.264 0.299,1.244 0.639,0.775c1.382,-1.91 0.202,-4.693 -2.142,-4.848Zm21.962,1.388c1.775,-0.037 1.961,2.905 0.392,6.192c-0.472,0.988 -0.713,0.865 -1.23,-0.628c-1.276,-3.68 -0.999,-5.526 0.838,-5.564Zm4.105,0.085c0.343,-0.018 0.674,0.114 0.946,0.426c0.954,1.097 0.22,2.872 -2.322,5.604c-0.618,0.664 -0.938,0.917 -1.165,0.922c-0.636,0.013 -0.633,-0.093 0.089,-2.465c0.47,-1.395 0.702,-4.405 2.452,-4.487Zm-5.75,5.15c0.194,0.571 0.324,1.115 0.292,1.205c-0.157,0.439 -1.29,-0.158 -2.099,-1.104c-1.629,-1.907 -2.279,-3.565 -1.942,-4.456c0.494,-0.713 1.879,-1.124 2.34,-0.406c0.873,1.36 0.869,3.152 1.409,4.761Zm10.555,-4.418c1.718,1.021 -0.261,3.352 -4.109,5.286c-1.646,0.827 -1.529,0.455 -0.281,-1.178c0.478,-0.625 1.118,-1.642 1.43,-2.263c0.691,-1.374 1.383,-2.748 2.96,-1.845Zm-17.144,0.008c0.545,-0.004 1.103,0.583 2.137,2.093c0.746,1.127 2.075,2.274 2.46,3.228c-0.177,1.058 -5.534,-2.294 -5.92,-3.705c-0.132,-0.86 0.539,-1.63 1.323,-1.616Zm76.674,3.069c0.966,2.003 1.049,3.248 0.25,3.701c-1.136,0.643 -2.596,-0.338 -2.626,-1.763c-0.009,-0.479 -0.498,-2.15 -0.945,-3.236c-0.368,-0.893 -0.419,-1.445 -0.116,-1.489c1.184,0.191 2.937,1.846 3.437,2.787Zm-6.412,-1.519c-0.549,1.419 -0.618,3.251 -1.034,4.383c-0.779,2.121 -3.302,0.375 -2.449,-1.752c0.77,-1.917 2.73,-3.914 3.501,-3.98c0.529,-0.045 0.035,1.181 -0.018,1.349Zm1.564,-1.099c0.387,-0.038 0.711,0.814 1.212,2.25c0.675,1.94 0.647,3.452 -0.081,4.096c-1.561,1.38 -3.199,-0.624 -2.568,-3.143c0.504,-2.013 0.998,-3.159 1.437,-3.203Zm-52.367,0.355c1.942,28.826 -12.716,51.004 -13.761,51.609l-4.987,2.749l-8.75,-4.804c9.066,-12.533 14.486,-26.897 14.897,-43.578c8.387,0.821 12.702,-5.946 12.601,-5.976Zm48.067,0.092c0.612,-0.169 0.185,0.369 -0.422,1.251c-0.648,0.942 -1.488,3.501 -2.155,3.911c-1.496,0.725 -3.188,-0.656 -2.281,-1.856c0.836,-1.106 3.291,-2.873 4.858,-3.306Zm8.898,0.195c0.235,-0.001 0.674,0.155 1.311,0.469c3.115,1.533 4.65,3.555 3.318,4.522c-0.936,0.68 -1.937,0.153 -2.872,-1.635c-0.317,-0.608 -0.897,-1.509 -1.284,-2.008c-0.701,-0.903 -0.864,-1.347 -0.473,-1.348Zm17.51,1.027c2.002,-0.03 3.646,1.578 3.675,3.596c0.029,2.018 -1.57,3.679 -3.571,3.708c-2.002,0.03 -3.646,-1.586 -3.675,-3.603c-0.029,-2.018 1.57,-3.672 3.571,-3.701Zm-1.103,0.948c-2.355,1.052 -1.645,4.779 0.384,5.318c0.858,0.242 1.9,-0.118 1.471,-0.534c-2.682,-0.848 -2.699,-2.84 -1.619,-4.299c0.174,-0.234 -0.059,-0.564 -0.236,-0.485Zm-98.102,5.127c-0.092,2.107 0.353,4.547 -0.638,6.837c-1.52,3.512 -6.372,5.121 -8.968,4.809c-0.541,-0.224 -1.171,-0.436 -1.704,-0.208c-0.322,0.138 -0.72,0.12 -1.064,-0.041c-0.332,-0.156 -0.651,0.048 -0.972,-0.069c-0.376,-0.256 -0.991,-0.838 -0.919,-1.271c0.117,-0.61 0.071,-1.063 -0.638,-1.263c-0.982,-0.278 -1.181,-0.812 -0.892,-2.38c0.063,-0.338 0.138,-0.491 -0.081,-0.639c-0.723,-0.489 -0.998,-1.392 -0.522,-2.344c0.309,-0.549 0.51,-0.761 0.058,-1.306c-0.349,-0.422 -0.248,-0.759 0.226,-1.399c0.505,-0.608 0.593,-0.678 0.269,-1.198c-0.727,-1.168 0.097,-2.03 1.076,-2.511c1.313,-0.543 2.46,-0.823 3.845,-0.984c0.515,0.029 0.493,0.486 0.803,0.926c0.456,0.715 -0.187,1.749 0.185,2.116c0.536,0.249 0.78,0.748 0.738,1.174c-0.019,0.993 0.04,1.332 0.307,1.748c0.295,0.46 0.407,1.305 0.131,1.88c-0.246,0.511 -0.219,0.477 0.104,0.778c0.319,0.299 0.476,1.795 0.363,1.767l1.347,-0.125c-0.141,0.151 0.506,-2.798 2.042,-5.078c-0.085,-1.786 -0.76,-3.429 -0.7,-5.788c3.327,-1.201 5.73,1.651 5.604,4.569Zm51.684,-4.014c0.481,0.381 2.865,1.05 2.953,0.973c-0.075,1.151 0.62,3.388 3.106,4.135c0.03,3.208 0.004,18.023 0.004,18.023c-3.463,-5.848 -5.609,-13.398 -6.063,-23.131l0,0Zm-57.915,0.524c0,-0 0.132,0.426 0.254,1.251c0.212,1.685 -0.017,1.916 -0.461,0.764c-0.521,-1.349 -0.548,-0.298 0.038,2.79c0.142,0.748 0.136,0.921 -0.046,1.426c-0.114,0.316 -0.318,1.051 -0.477,1.627c-0.468,1.696 -0.742,2.183 -1.222,0.834c-0.245,-0.688 -0.45,-0.796 -0.275,-1.334c0.218,-0.675 0.166,-1.18 -0.275,-1.836c-0.072,-0.108 -0.23,-0.353 -0.257,-1.051c0.135,-1.565 -0.556,-1.58 -0.692,-1.984c0.023,-0.613 -0.261,-2.097 0.157,-2.057c0.344,0.033 1.59,0.067 2.18,-0.151c0.261,-0.097 1.076,-0.279 1.076,-0.279Zm51.611,0.193c1.286,-0.019 2.342,1.018 2.36,2.314c0.019,1.296 -1.009,2.36 -2.295,2.379c-1.285,0.019 -2.345,-1.013 -2.364,-2.309c-0.018,-1.297 1.013,-2.365 2.299,-2.384Zm-35.95,1.43l1.764,0.337c0.394,0.132 0.107,24.656 -14.015,42.356l-0.123,-4.1c6.72,-9.804 11.559,-21.828 12.374,-38.593Zm29.919,0.516l0.323,5.859c-0.994,-0.852 -3.517,-2.446 -3.499,-2.48l0.012,-2.166c0.002,0.004 2.169,0.167 3.164,-1.213l-0,-0Zm-13.601,0.081c0.426,0.181 0.797,0.596 1.161,0.895l-1.153,0.783l-0.008,-1.678Zm40.425,0.295c7.618,2.277 15.12,2.211 22.538,0.546l0.507,1.434c-8.048,2.199 -16.047,2.072 -23.995,-0.485l0.95,-1.495Zm-36.896,1.096l0.408,2.527l-4.3,2.805l0.209,-3.836l2.242,-1.465l1.441,-0.031Zm38.061,2.104c0.694,-0.01 1.266,0.552 1.276,1.252c0.01,0.7 -0.547,1.276 -1.242,1.287c-0.695,0.01 -1.262,-0.552 -1.272,-1.252c-0.01,-0.7 0.543,-1.276 1.238,-1.287Zm19.574,0.105c0.695,-0.01 1.266,0.551 1.276,1.252c0.01,0.7 -0.547,1.276 -1.242,1.286c-0.694,0.01 -1.262,-0.551 -1.272,-1.251c-0.01,-0.701 0.543,-1.277 1.238,-1.287Zm-36.661,3.942c0.563,2.002 0.44,6.526 -0.285,9.594c-0.218,0.921 -0.35,4.192 -0.35,4.192c-0.134,0.171 4.315,-3.712 5.746,1.38c0.492,1.751 -1.507,3.411 -2.845,2.926c-0.261,-0.095 -0.182,-0.962 0.067,-1.472c0.742,-1.523 -1.374,-2.315 -2.579,-0.965c-2.786,3.118 0.08,11.013 4.447,11.78c3.626,0.637 6.532,-3.001 4.113,-5.169c-1.058,-0.948 -2.75,0.359 -1.976,1.565c0.828,1.29 -0.696,1.804 -1.849,0.609c-2.01,-2.084 0.247,-5.221 3.283,-4.495c4.854,1.112 3.855,8.761 -1.234,9.192c-3.891,0.329 -6.511,-1.38 -8.157,-4.41c-1.546,-2.912 -1.661,-5.233 -0.953,-10.339c0.42,-3.032 0.074,-5.586 -0.761,-5.569c-0.459,0.01 -0.816,0.232 -0.888,0.775c-0.148,1.111 -0.275,1.318 -0.965,0.915c-0.877,-0.513 -1.364,-2.162 0.069,-3.279c1.469,-1.144 3.372,0.642 3.294,0.95c0.036,-0.057 0.184,-0.347 0.381,-1.647c0.642,-4.23 -0.784,-8.699 -2.545,-7.983c-0.386,0.157 -0.34,0.333 0.166,0.62c1.173,0.665 0.139,2.369 -1.334,2.197c-2.087,-0.244 -2.561,-3.178 -0.723,-4.476c2.895,-1.573 5.253,0.89 5.878,3.109Zm-14.243,-3.523c0,-0 3.701,2.275 3.898,2.859c0.126,0.375 0.277,3.639 0.277,3.639l-6.424,-4.053l-9.209,5.739c0.151,-1.26 0.814,-4.503 0.814,-4.503l4.897,-3.123c0.024,0.188 3.388,2.426 5.747,-0.558Zm45.987,0.217c0.695,-0.011 1.266,0.551 1.276,1.251c0.01,0.701 -0.543,1.277 -1.237,1.287c-0.695,0.01 -1.267,-0.548 -1.277,-1.248c-0.01,-0.7 0.544,-1.28 1.238,-1.29Zm-9.802,0.019c0.694,-0.01 1.269,0.547 1.28,1.248c0.01,0.7 -0.551,1.28 -1.246,1.29c-0.695,0.01 -1.262,-0.551 -1.272,-1.251c-0.01,-0.701 0.543,-1.277 1.238,-1.287Zm4.928,0.287c0.695,-0.01 1.27,0.551 1.28,1.251c0.01,0.701 -0.547,1.277 -1.242,1.287c-0.695,0.01 -1.266,-0.551 -1.276,-1.252c-0.01,-0.7 0.543,-1.276 1.238,-1.286Zm-12.34,1.798c3.335,0.699 6.679,1.418 9.876,1.771l0.13,9.893l-0.934,-0.054l-0.134,-8.839c-3.089,-0.223 -6.002,-0.892 -8.738,-1.605l-0.2,-1.166Zm24.799,0.321l-0.173,1.163c-0,-0 -5.771,1.007 -8.784,1.399c-0.048,1.991 -0.043,8.645 -0.043,8.645l-1.153,0.214l-0.004,-10.072c3.422,-0.375 6.839,-0.763 10.157,-1.349l-0,0Zm-55.832,0.558l6.792,4.527l0.8,4.797l-7.919,-5.305c0,0 -7.178,4.871 -9.864,6.677l0.819,-4.522l9.372,-6.174Zm31.356,0.896c2.735,0.583 5.469,1.189 8.203,1.426l0.116,7.959l-1.257,-0.337l-0.1,-6.46c-2.136,-0.186 -4.329,-0.603 -6.535,-1.073l-0.427,-1.515Zm24.191,0.236l-0.231,1.081c0,0 -4.376,0.665 -6.634,1.074c-0.2,0.046 -0.127,7.006 -0.127,7.006l-1.081,0.167l-0.126,-8.127l8.199,-1.201Zm-12.259,0.891c0.695,-0.01 1.262,0.552 1.273,1.252c0.01,0.7 -0.543,1.276 -1.238,1.287c-0.695,0.01 -1.266,-0.548 -1.276,-1.248c-0.01,-0.701 0.546,-1.281 1.241,-1.291Zm-43.392,2.872l8.03,5.464c0,-0 0.931,2.845 1.131,4.421l-9.242,-6.014l-11.563,7.727l1.338,-4.774l10.306,-6.824Zm-48.674,0.166c0.476,0.007 0.952,0.328 1.199,1.066c0.349,1.039 0.999,1.346 2.71,1.314c3.36,-0.181 6.882,-1.772 10.053,-0.578c1.541,0.573 2.09,2.864 0.799,3.461c-1.4,0.648 -1.997,0.241 -2.483,-0.868c-0.449,-0.471 -1.006,-0.398 -4.017,0.124c-1.328,0.217 -2.889,0.412 -4.202,0.519c-3.356,0.274 -5.21,-0.792 -5.627,-2.805c-0.267,-1.288 0.774,-2.243 1.568,-2.233Zm91.997,1.849c0.695,-0.01 1.266,0.547 1.276,1.248c0.01,0.7 -0.547,1.28 -1.241,1.29c-0.695,0.01 -1.267,-0.551 -1.277,-1.252c-0.01,-0.7 0.547,-1.276 1.242,-1.286Zm-24.602,1.546c0.903,-0.013 1.647,0.717 1.66,1.628c0.014,0.911 -0.71,1.661 -1.614,1.674c-0.904,0.013 -1.644,-0.717 -1.657,-1.628c-0.013,-0.911 0.707,-1.661 1.611,-1.674Zm-18.709,1.155c-0,-0 6.608,4.451 9.667,6.506l1.692,4.899l-11.256,-7.379l-13.772,9.033l1.652,-5.037l12.017,-8.022Zm47.713,1.531c0.599,1.627 1.686,2.867 2.836,4.127c0,-0 -0.64,1.223 -2.925,1.151c-1.248,-0.04 -1.315,0.158 -1.741,1.011c-0.7,1.081 -1.27,1.788 -1.722,2.139c-0.801,0.621 -2.301,-0.307 -3.537,-2.193c-0.451,-0.688 -0.637,-0.85 -1.995,-0.822c-2.085,0.044 -2.84,-0.539 -1.757,-1.484c0.945,-1.16 1.623,-2.435 2.468,-3.654l0.938,0.108c0.04,0.141 -0.729,2.482 -1.811,3.434c-0.548,0.624 0.22,0.851 1.561,0.565c0.851,-0.258 1.069,-0.156 1.699,1.155c1.313,2.502 1.996,2.382 3.552,-0.155c0.544,-1.132 0.523,-1.244 2.018,-0.918c1.605,0.163 2.09,-0.04 1.43,-0.605c-1.332,-1.14 -2.068,-3.828 -2.068,-3.828l1.054,-0.031Zm-47.656,3.352c0,-0 11.952,7.891 11.921,7.719l2.395,5.689l-14.027,-9.405l-17.137,11.234l2.564,-5.631l14.284,-9.606Zm0.462,5.181l4.167,2.763l-0.012,4.972l-4.255,-2.883l0.1,-4.852Zm-1.069,0.143l0.077,4.906l-3.737,2.244l-0.207,-4.604l3.867,-2.546Zm-4.698,3.129l0.177,4.695l-4.298,3.003l0.016,-4.995l4.105,-2.703Zm10.964,0.088l3.917,2.635l0.161,5.262l-4.251,-2.805l0.173,-5.092Zm4.836,3.212l3.928,2.751l0.139,5.255l-4.014,-2.724l-0.053,-5.282Zm-20.793,0.019l-0.019,4.856l-3.91,2.704l-0.184,-4.913l4.113,-2.647Zm41.347,6.267c-0.776,0.815 -1.062,0.714 -1.726,-0.632c-0.689,-1.396 -1.723,-2.049 -3.221,-2.023c-1.89,0.033 -0.655,-1.216 1.349,-1.364c3.464,-0.154 5.223,2.189 3.598,4.019Zm-46.44,-3.031l0.203,4.824l-3.937,2.239l-0.072,-2.281l2.003,-3.53l1.803,-1.252Zm-4.552,5.693l0.052,1.711l-1.001,0.667l0.949,-2.378Zm46.452,36.109c-16.371,3.531 -32.067,2.283 -43.331,0.182l-5.147,8.866l-0.353,-0.015l-1.327,2.294l0.143,0.264c-0,-0 -4.277,8.272 -6.078,10.881c21.04,-0.204 67.222,-0.306 67.222,-0.306l-2.814,-5.704l0.154,-0.155l-2.78,-5.956l-0.903,-1.031c0,-0 -0.552,-1.077 -0.965,-2.232c-0.38,-1.064 -2.01,-3.976 -2.01,-3.976l-0.231,0.019l-1.58,-3.131Zm-42.739,1.248c0.217,0.173 20.971,4.116 42.482,0.066l1.176,1.984c-18.826,4.367 -46.066,0.195 -44.991,-0.21l1.333,-1.84Zm0.358,3.902c1.898,-0.068 3.82,0.959 5.116,2.674c0.413,0.545 1.088,2.155 1.088,2.155c0,-0 0.908,-1.516 1.799,-2.275c1.348,-1.148 3.095,-2.106 5.624,-2.015c2.328,0.083 4.891,1.354 7.204,5.026c0.584,-2.119 8.234,-9.318 14.535,-0.341c0.72,-2.386 4.092,-7.15 9.552,-3.821c0.373,0.804 0.758,1.689 0.758,1.689c-3.223,-2.274 -8.535,-0.749 -9.791,2.802c-0.113,0.433 0.03,0.658 0.196,1.077c1.66,2.393 -2.66,2.336 -1.38,0.4c0.239,-0.44 0.259,-0.803 -0.123,-1.38c-1.014,-1.531 -4.063,-3.436 -6.301,-3.387c-2.584,0.057 -5.448,1.785 -6.404,3.356c-0.353,0.58 -0.433,1.16 -0.123,1.666c0.225,0.511 0.148,0.939 -0.231,1.252c-0.89,0.736 -2.008,-0.113 -1.58,-1.201c0.282,-0.48 0.239,-1.068 -0.338,-1.884c-1.158,-1.639 -3.86,-3.366 -6.212,-3.317c-3.366,0.079 -6.766,2.522 -6.55,4.534c0.094,0.885 -0.146,1.214 -0.861,1.112c-0.871,-0.123 -0.97,-0.952 -0.354,-1.627c0.091,-0.216 0.239,-0.741 -0.042,-1.124c-3.554,-4.845 -8.876,-3.433 -10.095,-2.348c1.184,-2.048 2.838,-2.963 4.513,-3.023Zm-3.164,3.364c1.334,0.011 2.77,1.027 3.225,1.821c0.33,-0.344 3.347,-1.795 4.813,0.279c-3.84,-0.292 -3.887,3.817 -1.049,4.212c-1.294,3.964 4.508,4.203 4.14,0.481c4.335,0.646 3.8,-4.894 -0.281,-4.309c2.138,-1.57 3.593,-1.063 6.162,0.736c0.864,-1.134 4.386,-2.193 5.251,-0.213c-4.037,-0.251 -3.349,4.462 -0.334,4.503c-0.896,3.266 5.035,4.467 4.121,-0.411c3.765,0.266 3.219,-4.861 -0.388,-4.437c0.267,-0.933 3.929,-1.336 5.547,0.446c1.486,-1.369 3.128,-2.306 6.093,-0.349c-4.043,-0.679 -4.093,4.611 -0.339,4.294c-0.35,3.503 4.958,3.562 4.071,-0.485c4.041,-1.099 1.819,-5.46 -1.149,-4.259c1.321,-1.583 3.565,-0.836 4.455,-0.515c2.751,-3.174 5.147,-0.519 5.147,-0.519c-4.787,-0.504 -3.746,6.374 0.919,3.879c-0.005,1.415 0.598,2.64 2.503,2.84l2.264,4.724l-64.161,0.426l3.54,-6.276c0.358,0.113 2.404,0.301 2.844,-2.117c4.216,1.348 4.499,-3.601 1.349,-4.383c0.382,-0.266 0.813,-0.372 1.257,-0.368Zm-2.502,1.79c0.419,0.679 0.068,1.121 -0.654,1.139c0,0 0.47,-0.687 0.654,-1.139Zm52.783,0.876l0.415,0.879c-0.449,-0.183 -0.504,-0.377 -0.415,-0.879l0,-0Z" style="fill-rule:nonzero;"/></g></g></g></g></g><path id="path147-0-8-1-3-6-2-4-7" d="M130.708,223.293c7.854,-0.17 11.376,-9.003 5.559,-15.861c-0.843,-1.001 -0.93,-1.575 0.615,-0.614c3.916,2.616 11.426,0.896 11.811,-7.101c0.475,-9.853 -13.31,-12.692 -15.898,-2.214c-0.137,1.105 -1.037,1.08 -0.82,-0.489c0.236,-4.259 1.568,-8.239 3.398,-12.121l-9.337,-0c1.83,3.882 3.162,7.862 3.398,12.121c0.217,1.569 -0.683,1.594 -0.82,0.489c-2.588,-10.478 -16.373,-7.639 -15.898,2.214c0.385,7.997 7.895,9.717 11.811,7.101c1.546,-0.961 1.458,-0.387 0.615,0.614c-5.817,6.858 -2.295,15.691 5.559,15.861c0,-0 0,-0 0.008,-0l-0.001,-0Z" style="fill-rule:nonzero;"/><path id="path147-0-8-1-0-3-83-7-5-7" d="M47.881,26.156c7.855,0.17 11.377,9.003 5.56,15.861c-0.844,1.001 -0.931,1.575 0.614,0.614c3.917,-2.616 11.427,-0.896 11.811,7.1c0.475,9.854 -13.309,12.692 -15.898,2.215c-0.136,-1.105 -1.036,-1.08 -0.819,0.489c0.236,4.259 1.568,8.239 3.398,12.121l-9.338,-0c1.831,-3.882 3.162,-7.862 3.398,-12.121c0.217,-1.569 -0.682,-1.594 -0.819,-0.489c-2.588,10.477 -16.373,7.639 -15.898,-2.215c0.385,-7.996 7.895,-9.716 11.811,-7.1c1.545,0.961 1.458,0.387 0.615,-0.614c-5.818,-6.858 -2.296,-15.691 5.559,-15.861c0,-0 0,-0 0.008,-0l-0.002,-0Z" style="fill-rule:nonzero;"/></g></svg>