<?xml version="1.0" encoding="UTF-8" standalone="no"?><!DOCTYPE svg PUBLIC "-//W3C//DTD SVG 1.1//EN" "http://www.w3.org/Graphics/SVG/1.1/DTD/svg11.dtd"><svg width="100%" height="100%" viewBox="0 0 179 250" version="1.1" xmlns="http://www.w3.org/2000/svg" xmlns:xlink="http://www.w3.org/1999/xlink" xml:space="preserve" xmlns:serif="http://www.serif.com/" style="fill-rule:evenodd;clip-rule:evenodd;stroke-linejoin:round;stroke-miterlimit:2;"><g id="g7120"><path id="rect7234-2" d="M0,241.441c0,4.419 3.588,8.008 8.008,8.008l162.567,-0c4.419,-0 8.008,-3.589 8.008,-8.008l-0,-233.433c-0,-4.42 -3.589,-8.008 -8.008,-8.008l-162.567,0c-4.42,0 -8.008,3.588 -8.008,8.008l-0,233.433Z" style="fill:#fff;"/><path id="path6351-0" d="M23.985,19.463l-0,210.523l130.602,0c-0.068,-63.499 0.046,-141.364 0,-210.523l-130.602,-0Zm36.845,1.762c23.041,0.015 44.853,0.029 68.598,0.139c-2.121,5.055 -7.902,14.172 -11.525,21.489c0.877,2.252 -0.205,2.635 0.249,3.169c0.734,1.251 0.203,3.006 -1.348,3.402c-6.713,0.717 -13.882,-1.132 -19.802,-3.404c-9.053,-3.473 -16.686,-4.413 -25.863,-3.602c-0,0 -0.754,-0.082 -1.095,-1.862c-3.024,-9.308 -6.339,-13.204 -9.214,-19.331Zm-35.178,0.254l34.05,-0c-0,-0 1.604,2.848 4.961,9.406c1.422,2.777 2.623,3.956 2.746,6.155c-0.129,1.291 0.466,2.757 1.518,3.347c0.354,0.199 0.946,-0.041 0.748,0.512c-0.218,0.608 0.449,1.544 0.631,1.743c0.208,0.351 0.078,0.438 0.1,1.747c0.022,1.266 0.088,1.794 0.358,2.749c0.681,2.415 0.833,3.621 0.443,4.873c-1.014,3.176 -2.07,5.612 -3.436,8.572c-0.795,1.733 -0.673,2.41 1.764,3.668c1.825,0.942 2.068,0.933 1.838,2.309c-0.108,0.645 -0.209,1.052 -0.074,1.364c0.082,0.19 0.386,0.456 0.564,0.608c0.238,0.205 0.165,0.628 -0.078,0.942c-0.239,0.308 -0.241,0.748 -0,1.483c0.771,1.887 -1.377,4.531 -3.804,5.471c-0.699,-2.496 -4.24,-3.368 -6.296,-1.758c-1.795,1.404 -2.086,3.035 -1.61,5.213c-4.368,2.646 -9.128,5.755 -13.821,8.101c-0.568,-1.164 -0.757,-2.158 -1.117,-3.412c-0.31,-1.075 -0.27,-1.157 -0.154,-3.249c0.104,-1.891 0.161,-2.332 -0.281,-2.453c-2.518,-0.278 -3.092,0.618 -3.574,2.252c-0.209,0.721 -0.611,0.574 -0.86,0.27c-0.958,-1.753 -2.17,-3.575 -2.966,-4.822c-0.995,-1.591 -2.67,-2.383 -3.548,-1.631c-0.184,0.619 -0.336,0.638 -1.447,0.384c-1.348,-0.308 -2.116,0.451 -2.246,1.449c-0.052,0.398 0.237,0.381 -0.485,0.774c-1.791,1.333 -1.109,3.152 -0.841,4.249c-0.023,-0.058 -0.764,0.454 -0.781,1.479c-0.086,5.328 4.506,13.001 4.403,12.803l-6.707,4.04l0.002,-78.638Zm105.151,-0l21.801,-0l-0,3.953l-10.725,11.008l-0,8.099c-5.752,-1.449 -8.126,-7.927 -8.592,-12.415c-10.652,9.776 -10.389,24.494 -0.324,33.728c1.16,-4.671 5.7,-11.632 8.916,-11.594l-0,29.13l-6.397,-6.446l-13.033,0.1c2.224,-2.552 1.03,-8.347 -0.181,-11.489c-2.277,-5.912 -5.533,-15.585 -5.286,-15.727c0,0 1.876,-0.485 2.046,-1.681c0.251,-1.773 -0.514,-1.641 0.588,-3.242c0.248,-0.36 0.089,-1.039 -0.176,-1.58c-0.175,-0.396 -0.342,-0.992 -0.015,-1.456l11.378,-20.388Zm22.529,4.353l-0.023,67.188c-0.791,5.456 -0.445,11.034 -0.49,16.537l-5.362,2.842l-20.105,-26.501c-0,-0 0.806,-1.199 1.181,-1.411c-0.429,-0.965 -1.853,1.44 -1.975,1.828c7.294,9.087 20.853,26.879 20.853,26.879l5.648,-2.964c0.023,5.458 -0.123,11.001 -0.168,16.411c-9.865,5.698 -15.743,14.913 -19.97,24.351c-3.913,1.281 -8.019,3.1 -11.948,4.734l5.658,8.541l-2.241,1.215c-25.167,-38.285 -14.374,-65.214 5.719,-87.626l3.702,-0.063l8.628,8.062l-0.159,-48.981c3.593,-3.765 7.581,-7.162 11.052,-11.042l0,-0Zm-20.7,8.182c0.162,0.573 0.506,1.977 0.543,1.937c-5.916,6.19 -8.702,16.339 -0.138,26.74c-0.045,-0.04 -0.191,0.75 -0.428,1.638c-9.208,-9.044 -7.843,-23.219 0.023,-30.315l0,-0Zm0.89,2.588c1.537,4.56 5.303,7.406 5.303,7.406c-1.419,3.168 -2.265,6.476 0.39,10.653c-2.469,2.244 -4.517,4.71 -5.654,7.653c-8.301,-9.688 -5.636,-19.792 -0.039,-25.712l0,-0Zm-55.46,5.954c3.921,0.023 8.424,0.463 11.387,1.608c1.213,9.151 7.639,22.728 6.814,26.239c-1.644,-2.494 -8.54,-1.834 -6.464,5.136c0,-0 -0.564,0.851 -1.686,1.995c-2.894,2.953 -3.608,3.441 -2.233,0.841c1.056,-1.999 2.403,-4.608 2.433,-5.114c0.024,-0.403 -0.288,-0.495 -0.531,-0.173c-0.18,0.238 -0.395,0.818 -0.583,1.259c-1.724,4.061 -4.672,7.721 -6.705,8.603c-0.523,0.227 -0.497,-0.016 -0.135,-0.462c2.391,-2.992 4.218,-5.758 5.516,-9.37c0.058,-0.372 -0.468,-0.528 -0.635,-0.174c-2.243,4.727 -2.914,5.8 -5.67,9.13c-1.083,1.309 -2.092,1.97 -2.897,1.898c-0.697,-0.061 -0.49,-0.177 0.154,-0.868c0.493,-0.528 1.219,-1.261 2.396,-2.75c2.075,-2.625 4.161,-6.898 3.393,-6.674c-0.132,-0.356 -0.787,0.779 -1.34,1.863c-1.517,2.56 -3.126,5.943 -6.728,8.168c-0.752,0.313 -1.575,0.493 -2.301,0.501c-0.993,0.002 -0.414,-0.293 1.752,-1.805c2.115,-1.475 5.6,-6.14 6.005,-7.87c0.184,-0.786 -0.311,-0.848 -0.869,0.232c-2.568,4.963 -7.425,9.498 -11.872,9.296c-2.178,-0.099 -3.355,-0.69 -1.552,-0.949c4.943,-0.61 8.638,-3.445 11.871,-9.095c0,-0.127 -0.292,-0.12 -0.631,0.097c-2.96,3.639 -6.578,8.6 -12.436,8.21c-4.226,-0.256 -5.077,-5.698 -1.541,-7.364c3.07,-1.446 5.833,2.495 3.249,4.519c-0.489,0.419 -1.281,0.176 -1.281,0.176c0,-0 0.277,0.025 0.784,-0.386c1.876,-1.52 -0.255,-4.501 -2.5,-3.374c-1.258,0.53 -1.767,2.341 -0.658,3.707c2.466,3.041 7.777,0.729 11.478,-4.183c0.388,-0.517 0.724,-1.639 0.396,-1.518c-0.574,0.238 -0.921,0.691 -1.259,1.2c-1.321,1.843 -2.336,2.767 -4.125,3.758c-0.659,0.365 -1.387,0.512 -1.387,0.512c0.43,-0.314 0.581,-1.041 0.668,-1.729c-0,0 0.367,-0.367 0.696,-0.58c2.295,-1.487 3.653,-3.621 3.709,-4.942c0.041,-0.965 -0.661,-2.225 0.1,-2.484c1.291,-0.613 4.812,-0.113 5.762,1.108c0.684,0.878 0.949,0.369 0.436,-1.058c-0.339,-0.942 -0.324,-1.475 -0.836,-1.378c-0.647,0.344 -1.091,0.263 -2.345,-0.427c-0.605,-0.332 -1.678,-0.642 -2.331,-0.793c-1.191,-0.276 -1.44,-0.161 -1.414,-0.679c0.008,-0.159 -0.045,-0.605 -0.011,-0.886c0.194,-1.561 -1.103,-2.092 -2.87,-3.119c-1.033,-0.599 -0.624,-1.217 0.571,-4.188c0.621,-1.344 1.15,-3.151 1.917,-4.516c0.716,-1.533 0.778,-3.211 0.316,-5.124c-0.857,-3.551 -1.473,-5.355 0.054,-5.675c1.475,-0.225 3.616,-0.362 5.968,-0.349l0.001,0Zm60.971,1.711c1.409,0.763 2.037,0.833 2.846,1.117l-0,7.982c-1.083,0.192 -1.958,0.645 -2.558,0.878c-2.734,-3.384 -1.638,-8.33 -0.285,-9.977l-0.003,-0Zm-48.563,0.094l1.379,0.414c1.385,8.836 5.562,17.068 6.907,25.19c1.412,6.211 -5.932,9.67 -8.393,4.314c-0.651,-1.416 0.103,-3.222 1.759,-4.066c2.687,-1.368 5.58,2.272 3.46,4.277c-1.607,1.518 -3.984,0.393 -3.467,-1.551c0.334,-1.265 2.242,-1.346 2.557,-0.069c0.087,0.425 0.299,0.85 0.451,0.616c0.988,-2.334 -2.333,-3.426 -3.713,-1.255c-0.818,1.74 0.739,3.982 3.031,3.556c3.143,-0.584 3.433,-5.118 2.165,-9.806c-2.185,-8.082 -5.7,-15.322 -6.136,-21.62l0,-0Zm2.389,0.767l1.436,0.519c1.556,7.033 4.162,14.296 5.869,20.496c1.151,4.206 2.438,9.027 -2.106,11.077l-1.306,-0.026c-0,-0 0.39,-0.212 1.321,-1.21c5.151,-4.734 -3.206,-18.098 -5.134,-30.267c-0.021,-0.13 -0.08,-0.589 -0.08,-0.589l-0,0Zm-15.115,0.434c-2.31,-0.056 -4.537,0.646 -4.361,1.653c0.122,0.7 0.635,0.867 2.428,0.639c3.949,-0.772 7.749,0.852 10.634,2.657c0.777,0.492 1.176,0.802 1.344,0.81c0.131,0.006 0.2,-0.168 0.039,-0.372c-2.201,-2.775 -6.374,-5.282 -10.084,-5.387l0,-0Zm17.717,0.371l1.472,0.597c1.337,7.41 4.636,15.094 6.225,21.758c0.935,3.913 0.669,6.386 -1.49,8.518c-0.541,0.42 -0.679,0.465 -0.679,0.465l-1.302,0c3.29,-2.79 2.559,-6.907 1.34,-11.095c-2.247,-7.724 -5.944,-20.205 -5.566,-20.243Zm2.547,1.011l1.325,0.571c1.363,6.398 1.702,6.544 4.992,16.791c0.99,3.081 1.903,5.793 1.722,8.363c-0.042,1.464 -1.312,4.362 -2.65,4.594l-0.817,0.008c3.141,-3.587 1.748,-8.495 0.378,-12.589c-2.493,-7.614 -3.703,-11.631 -4.95,-17.738l0,0Zm2.377,0.86l1.621,0.582c1.632,6.53 3.674,12.877 5.402,18.093c0.697,2.102 1.315,4.3 1.251,6.143c-0.33,2.461 -0.747,3.125 -2.205,4.583l-1.262,0.019c-0,0 1.573,-2.745 1.717,-4.273c0.282,-2.997 -0.671,-5.475 -1.744,-8.858c-2.622,-8.267 -3.957,-10.923 -4.781,-16.289l0.001,0Zm2.619,0.922l1.376,0.411c1.812,5.732 3.443,11.589 5.238,16.544c0.94,2.685 1.396,4.777 1.331,6.557c-0.198,2.457 -0.896,3.482 -1.967,4.85l-1.217,0.011c0.968,-1.299 1.599,-3.253 1.629,-4.648c0.03,-2.043 -0.617,-4.036 -1.235,-6.159c-2.005,-6.885 -4.045,-11.454 -5.155,-17.566l-0,-0Zm-26.724,0.67c-0.341,0.074 -0.616,0.262 -0.55,0.615c0.04,0.221 0.419,0.412 0.828,0.303c3.753,-1.137 7.008,1.393 9.937,2.882c0.145,0.112 0.32,0.164 0.44,0.159c0.153,-0.008 0.216,-0.112 0.021,-0.313c-3.75,-2.171 -6.215,-4.533 -10.676,-3.646Zm29.147,-0.022l1.467,0.293c1.821,5.606 3.681,11.578 5.574,16.727c1.153,3.135 1.607,8.498 -0.978,10.819l-1.391,-0.04c1.005,-1.267 1.594,-3.241 1.648,-4.997c0.053,-2.076 -0.433,-4.117 -1.179,-6.232c-2.178,-6.182 -3.821,-11.497 -5.141,-16.57l0,-0Zm2.615,0.48l1.376,0.185c1.045,5.86 3.759,11.381 5.326,16.327c0.81,2.315 1.371,5.162 1.082,7.337c-0.204,1.535 -1.734,3.549 -2.017,3.579c-0.01,0.001 -0.018,-0.001 -0.024,-0.003l-0.928,-0.009c0.034,-0.021 1.386,-2.935 1.483,-4.703c0.11,-2.004 -0.372,-4.186 -1.033,-6.341c-1.997,-5.912 -4.011,-11.229 -5.265,-16.372l0,0Zm-33.904,0.118c-0.235,0.088 -0.097,0.707 0.328,1.566c0.356,0.721 0.667,0.894 0.493,1.442c-0.398,1.25 0.17,1.498 0.913,0.391c0.558,-0.867 0.621,-0.847 1.148,0.267c0.699,1.392 0.37,2.034 -0.69,1.127c-0.803,-0.687 -1.009,-0.176 -1.321,0.368c-0.411,0.715 -0.349,1.358 0.385,1.302c0.422,-0.032 0.817,0.162 1.148,0.526c0.65,0.713 1.895,1.607 3.088,1.816c0.39,0.008 0.263,-0.369 -0.654,-1.014c-2.188,-1.496 -2.374,-1.766 -0.253,-1.731c0.537,0.032 1.378,-0.351 1.855,-0.511c2.768,-0.929 2.902,-0.855 4.226,-0.543c0.441,0.104 0.889,0.289 1.083,0.112c0.299,-0.274 0.634,-0.455 0.257,-0.864c-0.274,-0.298 -0.784,-0.526 -1.405,-0.883c-3.213,-1.852 -3.506,-2.295 -7.285,-2.394c-0.432,-0.011 -0.654,0.215 -0.908,0.217c-0.617,0.008 -0.94,-0.144 -1.564,-0.717c-0.428,-0.393 -0.703,-0.53 -0.844,-0.477Zm42.031,0.067c1.459,5.143 3.408,10.339 5.085,15.073c1.273,3.907 3.223,9.7 -0.381,12.193l-0.966,-0.023c1.758,-2.363 1.995,-4.396 1.372,-7.344c-2.066,-8.916 -5.99,-14.046 -6.421,-19.809l1.311,-0.09Zm-6.074,0.066l1.614,0.086c1.093,6.058 4.251,10.455 5.997,17.849c0.879,3.214 1.449,6.927 -1.629,9.189l-0.925,-0c-0,-0 1.453,-2.556 1.545,-4.056c0.165,-2.698 -0.875,-5.609 -1.822,-8.778c-1.457,-4.879 -3.921,-9.55 -4.78,-14.29Zm2.33,0.086l1.441,0.019c1.594,7.151 4.909,12.257 6.64,20.135c0.616,3.281 0.089,5.309 -1.952,6.879l-0.998,-0.028c0,0 0.15,-0.271 0.531,-0.928c1.821,-3.315 0.823,-6.375 -0.09,-9.811c-1.706,-6.419 -4.832,-11.509 -5.572,-16.266l0,-0Zm-32.309,3.012c-0.243,0.637 -0.451,1.52 -1.298,1.806c-0.171,0.058 -0.289,-0.074 -0.273,-0.128c-0.009,-0.458 0.305,-1.395 0.562,-1.886c0.082,-0.219 0.223,-0.247 0.42,-0.287c0.615,-0.051 0.737,-0.025 0.589,0.495Zm1.378,0.016c0.426,0.201 0.811,0.797 0.533,0.995c-0.37,0.207 -1.011,0.47 -1.621,0.481c-0.268,0.02 -0.278,-0.092 -0.171,-0.337c0.181,-0.391 0.517,-0.745 0.739,-1.076c0.153,-0.228 0.457,-0.093 0.52,-0.063Zm-5.917,6.535c-0.341,0.025 -0.35,0.337 0.387,0.79c1.011,0.62 0.512,2.25 -0.712,2.232c-0.536,-0.008 -0.901,-0.243 -2.262,-1.252c-1.12,-0.831 -2.175,-0.896 -2.415,0.229c-0.143,0.671 0.08,0.969 0.794,0.794c0.315,-0.078 0.5,0.108 0.928,0.407c0.921,0.537 1.825,1.327 2.831,1.099c2.383,-0.66 2.879,-3.025 1.333,-4c-0.355,-0.225 -0.68,-0.314 -0.884,-0.299Zm5.637,3.467c-0.143,0.197 0.017,0.498 0.535,0.573c1.499,0.495 2.035,2.269 0.682,3.013c-0.739,0.389 -1.92,0.138 -3.343,-0.922c-2.544,-1.894 -5.66,-2.013 -5.253,-0.097c0.098,0.465 0.297,0.529 2.16,0.784c1.512,0.207 2.195,0.688 2.854,1.046c1.04,0.564 1.956,0.797 2.731,0.774c3.564,-0.204 3.222,-4.575 1.014,-5.315c-0.501,-0.188 -0.947,-0.025 -1.38,0.144Zm-46.163,12.597c0.757,-0.018 1.103,0.583 1.471,1.096c1.377,1.923 2.366,3.828 3.77,6.012l-0.188,2.041c-0,0 -0.368,-0.08 -0.574,0.019c-0.404,0.196 -0.644,0.834 -0.874,1.682c-0.369,0.737 -2.549,2.415 -3.383,3.316c-0.154,0.102 -0.282,0.27 -0.284,0.372c0.009,0.33 0.944,0.108 1.563,-0.605c0.909,-0.812 1.297,-0.533 1.268,0.504c0.09,1.28 0.866,0.639 0.905,-0.612c0.1,-0.987 0.441,-1.589 1.129,-2.142c1.297,-1.043 1.081,-0.78 1.021,-2.228c-0.105,-2.526 0.864,-4.602 1.498,-3.226c0.225,0.489 0.488,1.044 1.055,1.069c0.401,0.017 0.6,0.412 0.821,1.39c0.328,1.581 0.786,2.599 1.205,4.056l-12.045,6.86c-2.098,-2.447 -3.615,-6.526 -4.398,-9.184c-0.386,-1.323 -0.433,-2.834 -0.088,-3.044c0.34,-0.208 0.498,0.014 0.434,0.805c-0.054,0.659 -0.072,1.17 0.209,1.162c0.814,-0.211 0.845,1.03 0.762,1.321c-0.056,0.195 -0.156,0.332 -0.2,0.438c-0.201,0.481 0.323,0.416 0.866,0.422c0.481,-0.012 0.604,0.281 0.582,0.739c0.013,0.508 0.683,0.409 1.063,0.024c0.348,-0.353 0.274,-0.767 -0.197,-1.057c-0.677,-0.417 -1.316,-1.442 -2.893,-4.974c-0.915,-2.051 -0.643,-3.507 0.448,-3.49c0.756,0.022 1.637,2.106 2.35,3.641c0.184,0.397 -0.278,0.84 -0.44,1.054c-0.419,0.552 -0.355,0.727 0.266,0.736c0.581,0.009 0.828,-0.044 1.179,0.677c0.132,0.272 0.227,0.686 0.181,0.95c-0.3,0.795 0.316,0.987 0.913,0.682c0.753,-0.316 0.746,-0.991 -0.401,-2.096c-0.74,-1.219 -0.546,-1.134 0.154,-1.956c0.146,-0.29 0.059,-0.469 -0.25,-0.473c-0.888,0.273 -1.855,-1.336 -1.591,-1.887c0.272,-0.237 1.015,-1.094 0.296,-0.929c-1.462,0.4 -2.351,-1.753 -1.49,-2.483c1.284,-0.648 1.588,-0.446 3.566,3.528c0.615,1.234 1.354,2.561 1.445,2.697c0.091,0.136 0.131,0.5 0.127,0.793c-0.086,0.719 0.219,0.883 0.84,0.597c0.466,-0.112 0.888,-0.498 0.297,-0.864c-0.689,-1.197 -0.934,-1.388 -0.555,-1.692c0.863,-0.69 0.488,-0.663 -0.478,-0.856c-0.473,-0.143 -0.713,-0.388 -0.843,-0.682c-0.499,-1.127 -1.384,-2.717 -1.471,-3.041c-0.293,-0.826 0.236,-1.198 0.959,-1.162l0,-0Zm55.241,0.547c1.551,0.658 2.927,1.282 4.164,1.878c-3.836,7.576 -8.339,10.304 -16.254,13.666l0.735,3.385c8.431,-3.158 13.796,-6.939 18.027,-14.286c5.133,0.074 25.928,0.222 25.95,0.156c-8.482,9.7 -15.169,24.33 -15.901,35.736c-0.179,2.222 0.13,1.154 -0.847,1.817l-1.536,1.841l-1.207,-1.813c0,-0 -0.872,-1.119 -1.424,-0.187c-1.547,15.907 0.09,34.046 7.712,46.689c-1.353,0.09 -2.7,0.127 -3.995,-0.644c-2.981,-6.789 -4.738,-15.175 -5.5,-21.462c-0.965,-7.958 -0.83,-16.933 0.153,-24.555l-0.508,-0.07c-1.486,9.905 -0.983,20.439 0.381,29.648c0.7,4.803 2.953,12.317 4.503,15.785c0.428,0.959 0.76,1.206 0.354,1.348c-9.288,0.786 -13.556,3.902 -16.893,8.877c-1.374,-0.874 -3.056,-1.951 -5,-2.491c4.18,-7.571 10.903,-11.627 16.528,-13.212c-0.191,-0.969 -0.327,-1.935 -1.259,-2.529c0.032,0.146 0.444,1.867 0.353,2.22c-7.75,1.99 -14.571,9.625 -16.315,13.561l-34.059,0.372c25.248,-24.356 26.255,-58.635 5.655,-87.367l2.369,-1.392c15.873,23.911 15.711,46.949 10.95,62.376c-3.376,10.939 -9.433,19.294 -14.036,24.07c0,-0 18.466,0.255 27.657,-0.085c1.335,-2.054 2.577,-3.732 4.371,-5.671c0,-0 -4.67,4.535 -4.549,5.322c-8.518,0.008 -17.301,0.5 -25.807,-0.097c9.954,-11.979 14.86,-24.347 15.712,-35.981c0.031,-1.514 0.123,-0.667 0.62,-1.223l1.572,-2.453l1.259,2.549c0.857,0.278 2.54,-0.17 3.255,0.089c3.502,-15.711 -0.037,-34.678 -4.645,-47.053c2.509,-0.796 5.27,-0.047 8.308,-1.587c0.191,-0.22 0.537,-0.525 0.928,-0.739c3.782,-1.382 8.219,-6.562 8.219,-6.488l0,-0Zm-26.153,0.166c0.741,-0 1.341,0.603 1.341,1.347c-0,0.745 -0.6,1.349 -1.341,1.349c-0.74,0 -1.34,-0.604 -1.34,-1.349c-0,-0.744 0.6,-1.347 1.34,-1.347Zm31.315,1.529l33.604,0c-12.91,13.97 -18.826,25.771 -19.756,41.734c-0.887,15.203 2.959,29.088 14.64,45.794l-2.415,1.606c-19.954,-30.349 -19.062,-62.581 3.208,-87.014l-28.176,0.042c-3.586,7.117 -9.56,11.455 -17.205,14.127l-0.667,-2.235c8.786,-2.837 13.232,-7.539 16.767,-14.054l0,0Zm-51.302,1.876c0.387,0.169 0.166,2.221 -0.358,2.223c-0.574,0.002 -1.322,-1.737 -0.874,-2.084c0.403,-0.312 0.829,-0.316 1.232,-0.139Zm16.285,0.911c0.346,0.616 0.811,0.953 1.236,1.383c-0.69,-0.051 -1.503,-0.398 -2.135,-0.74c0.428,-0.257 0.615,-0.328 0.899,-0.643Zm1.857,3.036l4.16,1.6l-0.748,4.497l-4.197,-1.681l0.785,-4.416Zm10.196,1.707c5.601,14.478 6.822,32.314 4.633,46.329l-1.459,-0.054c2.394,-23.749 -2.311,-35.766 -6.475,-46.216c0,0 0.01,-0.419 0.15,-0.542c1.121,-0.416 2.285,-0.384 3.151,0.483Zm-18.948,-0.561c27.668,38.791 10.032,71.962 -6.093,87.473l-3.3,0.178c2.719,-2.475 4.903,-5.04 7.198,-7.774c-6.792,-9.393 -14.341,-19.576 -20.688,-27.711c-0,-0 -2.197,1.308 -2.188,1.471c0.008,0.086 0.176,0.519 0.216,0.423c0.094,-0.226 1.779,-1.174 1.779,-1.174l20.088,26.51c-0,0 -1.089,1.312 -1.426,1.724c-1.561,0.516 -5.904,5.925 -6.117,5.814c-3.403,-2.622 -13.664,-13.734 -17.617,-17.141l-0.05,-30.844c0.409,-1.234 11.35,-5.99 19.077,-23.733c3.886,-2.19 8.192,-3.367 12.195,-5.272c0,0 -1.018,-1.611 -1.517,-2.053c0.612,1.33 0.72,1.582 -0.666,2.149l-28.916,11.853l0.054,-2.394c2.899,-2.255 22.074,-16.204 27.971,-19.499l0,0Zm-16.597,0.884c-0.994,0.663 -3.153,2.956 -3.258,3.16c-0.252,0.492 0.009,0.593 0.105,0.476c1.182,-0.898 2.273,-1.907 3.562,-2.68c0.483,-0.287 1.049,-1.029 1.052,-1.227c-0.194,-0.264 -1.025,-0.02 -1.461,0.271Zm29.135,4.988l3.745,1.693l-0.959,4.454l-3.645,-1.769l0.859,-4.378Zm2.917,7.031l3.288,2.339l-1.552,3.599l-3.115,-2.122l1.379,-3.816Zm-9.622,2.239c-3.39,8.484 -6.174,14.161 -12.792,23.194c4.074,5.365 15.754,20.841 16.17,20.681l0.008,-0.008c5.036,-15.742 3.524,-30.778 -3.386,-43.867l-0,0Zm-15.731,0.689c0.039,0.008 -2.53,5.538 -6.923,11.167c-3.912,5.013 -10.799,10.664 -10.819,10.618l-0.181,-2.894l0.709,1.058l1.302,-1.003l-0.909,-1.213l-1.136,0.891l-0.071,-1.165c7.217,-5.245 10.331,-11.27 13.259,-15.789l1.302,-0.554l1.482,0.473l0.725,-1.29l1.26,-0.299Zm-4.002,1.809l-0.631,1.267l1.462,0.755l0.764,-1.328l-1.595,-0.694Zm-1.722,0.143c-3.352,5.743 -7.305,11.074 -12.854,15.305l-0.062,-10.288l12.916,-5.017Zm0.767,1.74l-0.764,1.345l1.441,0.809l0.763,-1.328l-1.44,-0.826Zm32.139,0.457l3.039,2.328l-1.483,3.3l-3.043,-1.987l1.487,-3.641Zm44.319,0.256c-5.231,15.755 -3.289,30.522 2.854,44.177c3.646,-7.778 7.234,-15.801 13.043,-21.862l-15.897,-22.315Zm-77.572,1.2l-0.824,1.333l1.386,0.855l0.829,-1.288l-1.391,-0.9Zm22.198,0.775c3.187,10.043 4.626,19.913 1.59,30.637l-11.438,-14.844c3.826,-4.58 7.005,-9.977 9.848,-15.793Zm-23.491,1.19l-0.907,1.289l1.388,0.902l0.893,-1.246l-1.374,-0.945Zm-1.33,1.847l-0.951,1.205l1.29,1l0.951,-1.201l-1.29,-1.004Zm37.616,1.286l2.535,2.444l-1.883,3.242l-2.435,-2.606l1.783,-3.08Zm-39.179,0.639l-1.026,1.139l1.241,1.08l1.025,-1.139l-1.24,-1.08Zm83.183,0.474l11.339,14.404c-4.154,5.186 -6.912,10.097 -9.613,14.879c-4.54,-10.914 -4.14,-20.755 -1.726,-29.283Zm-84.747,1.255l-1.067,1.096l1.167,1.127l1.067,-1.096l-1.167,-1.127Zm-1.657,1.734l-1.136,1.027l1.059,1.127l1.136,-1.018l-1.059,-1.136Zm28.712,0.562l-5.265,7.173l5.969,7.369c0.372,-0 0.695,-9.771 -0.704,-14.542Zm-30.441,0.995l-1.176,0.973l1.014,1.173l1.179,-0.972l-1.017,-1.174Zm44.624,0.689l2.236,2.631l-1.948,2.633l-2.05,-2.51l1.762,-2.754Zm45.246,1.663c-0.646,4.17 -0.791,9.011 0.766,15.315l5.236,-7.611l-6.002,-7.704Zm-13.755,1.565l1.842,2.931l-2.05,2.654l-1.945,-2.801l2.153,-2.784Zm-31.25,3.078l1.911,2.427l-2.018,2.512l-1.76,-2.377l1.867,-2.562Zm31.178,3.03l2.041,2.309l-2.072,2.816l-2.15,-2.526l2.181,-2.599Zm48.177,0.036c0.021,0.77 0.022,0.909 0.022,1.278l-0.549,0.389l0.544,0.919c-0.007,0.469 -0.011,0.829 -0.017,1.956c-4.234,3.408 -8.581,6.429 -13.546,16.078l-1.509,0.731l0.089,-0.268l-1.385,-0.66l-0.708,1.377l0.482,0.187c-0.761,0.437 -0.768,0.35 -2.255,1.086c0,0 1.12,-2.615 1.938,-4.151c3.913,-6.838 8.982,-13.646 16.893,-18.922l0.001,-0Zm-1.236,2.188l-1.236,0.898l0.893,1.243l1.237,-0.898l-0.894,-1.243Zm-2.041,1.525l-1.183,0.969l0.959,1.193l1.186,-0.968l-0.962,-1.194Zm-1.783,1.476l-1.126,1.039l1.033,1.131l1.124,-1.039l-1.031,-1.131Zm5.438,0.089l0.219,9.502l-13.095,5.539c2.88,-6.475 7.202,-11.457 12.876,-15.041Zm-48.633,0.623l2.607,2.399l-1.66,3.234l-2.569,-2.451l1.622,-3.182Zm41.349,1.02l-1.055,1.108l1.101,1.061l1.056,-1.108l-1.102,-1.061Zm-1.733,1.859l-0.986,1.166l1.16,0.992l0.986,-1.166l-1.16,-0.992Zm-1.571,1.887l-0.941,1.213l1.203,0.944l0.94,-1.212l-1.202,-0.945Zm-36.955,1.689l2.938,2.444l-1.774,3.307l-2.866,-2.734l1.702,-3.017Zm35.548,0.147l-0.858,1.271l1.26,0.862l0.857,-1.266l-1.259,-0.867Zm-1.267,1.898l-0.8,1.305l1.297,0.806l0.801,-1.305l-1.298,-0.806Zm13.05,1.286l0,2.293c0,-0 -21.624,8.064 -29.403,12.514c0,0 -0.189,-0.281 -1.188,-1.8c10.289,-4.097 21.055,-9.507 30.591,-13.007Zm-14.236,0.604l-0.762,1.329l1.32,0.767l0.763,-1.329l-1.321,-0.767Zm-1.145,2.077l-0.762,1.328l1.321,0.767l0.763,-1.328l-1.322,-0.767Zm-30.505,0.502l3.186,2.204l-1.469,3.817l-3.162,-2.318l1.445,-3.703Zm45.667,3.649l-0,78.265l-34.748,-0l-7.992,-14.579c0.235,-1.135 -0.118,-1.936 -0.508,-2.646c-0.212,-0.347 -0.369,-0.821 -0.416,-1.259c-0.08,-0.721 -0.08,-0.722 -1.129,-1.674c-0.221,-0.2 -0.263,-0.323 -0.181,-0.53c0.347,-0.883 0.144,-2.688 -0.543,-4.842c-0.868,-2.722 -1.092,-2.686 0.524,-6.325c0.337,-0.761 0.745,-1.776 1.183,-2.709c1.995,-4.12 2.302,-5.237 -1.121,-7.433c-0.964,-0.618 -1.248,-1.155 -1.007,-2.386c0.19,-0.969 0.229,-1.588 -0.234,-2.134c-0.3,-0.354 -0.572,-0.413 -0.497,-0.686c0.051,-0.186 0.275,-0.992 0.2,-1.67c-0.201,-1.826 1.906,-4.494 3.809,-5.458c0.138,-0.069 0.419,-0.159 0.419,-0.159c-0,0 0.145,0.345 0.291,0.602c1.982,3.491 6.917,2.076 7.245,-2.088c0.086,-1.102 -0.064,-1.53 -0.064,-1.53c6.016,-3.606 9.774,-6.065 14.059,-8.539c1.868,3.27 1.209,6.17 0.819,9c0.038,0.492 0.455,0.581 1.086,0.588c1.068,0.013 2.604,-1.076 2.938,-2.091c0.284,-0.863 0.467,-1.422 0.724,-1.418c0.259,0.007 0.385,0.352 1.029,1.596c1.338,2.588 1.546,2.917 2.797,4.42c0.998,1.199 1.848,1.358 2.827,0.464c0.68,-0.621 0.658,-0.081 1.237,0.233c0.999,0.683 2.501,0.072 2.538,-0.891c0.031,-0.808 0.037,-1.415 0.851,-1.468c0.906,-0.059 1.299,-1.235 1.044,-2.913c-0.134,-0.882 -0.161,-1.024 0.108,-1.347c0.876,-1.055 0.991,-1.785 0.509,-3.258c-1.374,-4.2 -3.365,-7.028 -5.235,-10.847c-0,0 4.617,-2.712 7.438,-4.288l-0,0Zm-43.538,3.27l3.883,2.185l-1.121,4.179l-3.848,-1.998l1.086,-4.366Zm40.605,11.891c0.828,1.808 0.019,3.003 -1.05,1.546c-0.416,-0.566 -0.203,-0.927 -0,-2.022c0.037,-0.198 -0.147,-0.122 -0.49,-0.178c-0.541,0.059 -0.801,-0.428 -0.782,-1.252c0.342,-1.18 -0.131,-0.542 -0.354,-0.483c-0.428,-0.008 -0.523,-0.265 -0.762,-0.756c-0.15,-0.691 -0.454,-0.491 -0.895,-0.035c-0.365,0.377 -0.365,0.369 0.371,1.252c1.271,1.385 3.032,4.511 3.488,6.415c0.126,0.525 0.081,0.943 -0.015,1.222c-0.574,1.301 -1.373,1.306 -2.245,-0.51c-0.148,-0.309 -0.44,-0.807 -0.647,-1.108c-0.336,-0.487 -0.543,-0.906 -0.532,-1.681c0.258,-0.649 0.3,-0.663 0.077,-0.752c-0.553,-0.22 -1.535,-1.223 -1.579,-2.122c-0.045,-0.913 -0.199,-1.399 -0.914,-0.857c-0.814,0.618 -0.467,0.867 0.336,1.659c0.841,1.007 0.892,1.879 0.393,2.606c-0.082,0.244 -0.048,0.313 0.262,0.283c0.977,-0.095 1.927,1.15 1.247,2.096c-0.312,0.554 -0.275,0.697 0.167,0.713c0.23,0.008 0.61,-0.037 0.797,0.069c0.289,0.544 0.892,1.306 0.886,1.929c-0.284,0.874 -0.725,1.228 -1.19,1.224l-0.008,0c-0.528,-0.009 -1.088,-0.474 -1.489,-1.155c-0.928,-1.576 -2.058,-4.225 -2.778,-5.685c-0.182,-0.368 -0.188,-0.697 -0.177,-0.872c-0.056,-0.856 -0.342,-1.179 -0.847,-0.793c-0.497,0.379 -1.187,1.013 -0.378,1.115c0.813,0.616 1.267,1.521 0.763,2.072c-0.37,0.406 -0.226,0.668 0.073,0.685c1.139,0.017 2.838,3.426 2.038,4.16c-1.081,0.991 -2.276,-0.235 -4.819,-5.309c-1.121,-2.241 -1.173,-4.693 -0.212,-3.479c0.326,0.307 0.26,0.147 0.643,-0.818c0.288,-0.725 0.524,-1.068 1.621,-2.129c1.337,-1.293 2.147,-2.315 2.177,-2.538c0.057,-0.428 -0.722,-0.028 -1.291,0.717c-1.27,1.247 -1.316,1.58 -1.305,-0.074c0.011,-1.495 0.087,-1.769 -0.181,-1.759c-0.417,0.016 -0.641,1.199 -0.836,2.626c-0.233,1.286 -0.896,1.934 -2.002,2.65c-0.304,0.196 -0.309,0.332 -0.25,0.899c0.204,1.816 -0.823,5.202 -1.291,4.365c-0.065,-0.189 -0.27,-0.63 -0.378,-0.938c-0.087,-0.478 -0.386,-1.018 -0.843,-1.054c-0.568,-0.427 -0.567,-0.658 -0.764,-2.223c-0.179,-1.071 -0.613,-2.055 -0.839,-3.114c0,-0 7.523,-4.706 11.455,-6.96c2.212,3.245 3.913,7.172 5.349,10.353Zm-124.274,-8.979l10.2,10.083c-0,-0 0.2,13.009 0.19,18.327c-0.011,5.318 -0.088,10.635 -0.067,11.624c0.022,0.989 -0.053,5.196 -0.085,9.516c-0.067,9.051 0.757,7.934 -0.917,9.67l-9.209,8.66l-0.112,-67.88Zm86.497,3.77l4.929,2.285l-0.919,4.807l-4.707,-2.235l0.697,-4.857Zm31.568,1.095c-1.215,1.613 -2.879,2.299 -3.901,3.766c-0.159,0.271 0.008,0.383 0.25,0.379c0.213,0 0.753,-0.243 1.483,-0.91c1.349,-1.23 3.126,-3.252 3.132,-3.637c-0.34,-0.191 -0.733,0.095 -0.964,0.402Zm-37.865,4.754c1.414,0.04 0.913,0.356 -0.374,1.188c-2.757,1.781 -6.625,6.901 -7.25,8.712c-0.147,0.428 0.018,0.673 0.29,0.644c2.268,-3.649 5.263,-7.664 8.746,-9.344c1.877,-0.905 4.245,-1.084 5.409,-0.511c0.853,0.419 0.639,0.564 -0.874,0.663c-3.642,0.361 -7.91,3.799 -10.023,7.437c-1.237,2.014 -0.368,1.552 1.044,-0.391c2.412,-3.316 7.199,-6.495 10.168,-6.244c3.003,0.179 4.731,2.518 4.345,4.523c-0.234,1.214 -1.09,2.451 -2.769,2.805c-2.876,0.607 -4.758,-3.973 -2.126,-4.837c0.673,-0.221 1.433,0.067 1.433,0.067c-2.762,0.574 -1.445,3.617 0.042,3.682c1.022,0.044 2.237,-0.55 2.288,-2.165c-0.03,-1.204 -1.015,-2.382 -2.993,-2.41c-2.344,-0.033 -5.941,1.663 -8.123,4.788c-1.549,2.387 -0.123,1.581 1.031,-0.012c1.019,-1.406 4.194,-3.373 4.445,-3.301c-0.08,0.48 -0.238,0.851 -0.112,1.62c-0.05,-0.28 -4.95,3.173 -4.657,5.744c0.189,1.866 -0.082,2.436 -2.014,2.413c-1.444,-0.017 -3.279,-0.527 -3.812,-1.193c-0.55,-0.659 -1.166,-0.866 -0.893,0.245c0.442,1.803 -0.089,2.1 0.95,1.758c0.717,-0.236 1.353,0.343 2.072,0.856c0.791,0.565 1.791,0.806 2.985,0.763c0.892,-0.032 1.295,0.021 1.152,0.867c-0.1,0.597 -0.214,1.14 -0.042,1.531c0.279,0.636 1.395,1.292 2.657,2.227c1.489,1.103 1.214,1.169 -1.96,8.526c-1.333,3.089 -1.339,3.722 -0.54,6.003c1.263,3.604 1.462,5.049 -0.905,5.552c-1.34,0.155 -2.721,0.23 -4.121,0.228c-4.202,-0.008 -8.582,-0.696 -12.599,-1.914c-2.533,-12.878 -6.983,-21.536 -6.964,-26.579c1.832,1.633 4.69,2.118 6.617,-0.504c1.22,-1.603 -0.008,-3.834 0.617,-4.769c1.183,-1.744 4.228,-4.968 4.738,-4.861c0.37,0.077 0.31,0.24 -0.995,2.254c-1.359,2.097 -2.401,3.999 -1.953,4.463c0.191,0.197 0.293,-0.219 1.307,-1.991c2.381,-4.158 4.474,-6.73 5.303,-6.396c0.388,0.157 0.188,0.502 -1.575,2.844c-1.991,2.645 -2.544,4.3 -2.346,5.032c0.152,0.562 0.461,-0.347 1.287,-1.972c0.881,-1.72 2.473,-3.637 3.76,-5.477c0.408,-0.666 0.931,-1.051 1.602,-1.355c0.497,-0.217 1.288,-0.571 1.748,-0.512c0.236,0.031 0.073,0.17 -0.25,0.488c-2.54,2.631 -4.723,5.563 -5.962,8.378c-0.192,0.369 0.082,0.895 0.395,0.507c1.901,-3.363 4.547,-7.557 7.419,-9.408c0.839,-0.419 1.58,-0.656 2.381,-0.662l0.001,-0Zm-69.31,1.491l6.212,6.015l13.315,-0.173c-2.195,3.582 -2.244,6.426 -0.824,9.784c2.394,5.485 6.088,18.007 5.805,17.965c-0,-0 -0.105,0.27 -0.408,0.338c-1.103,0.247 -1.805,1.319 -1.49,2.607c0.06,0.415 0.057,0.316 -0.224,0.855c-1.083,1.859 0.208,3.878 0.208,3.878l-11.67,19.704l-21.559,-0l-0,-3.358l10.635,-10.819l0,-8.112c4.064,1.551 7.38,7.247 8.496,11.586c10.213,-7.577 10.692,-24.384 -0.458,-32.92c-0.091,3.708 -3.058,10.995 -8.038,11.535l0,-28.885Zm79.955,0.611c0.858,0.136 3.153,0.798 2.076,1.314l-0.969,0.465c-0.636,-0.486 -0.872,-1.132 -1.107,-1.779Zm18.821,1.272c0.045,0.264 0.047,0.522 0.115,0.565c0.418,0.269 -0.281,1.052 -0.932,1.042c-0.731,0 -0.612,-1.835 -0.238,-2.358c0.588,-0.823 0.974,0.278 1.055,0.751Zm-21.104,1.773c0.71,0 1.286,0.58 1.286,1.295c-0,0.715 -0.576,1.293 -1.286,1.293c-0.711,0 -1.286,-0.578 -1.286,-1.293c-0,-0.715 0.575,-1.295 1.286,-1.295Zm-26.293,4.509c0.741,1.745 0.172,3.845 -1.829,4.563c-3.463,1.243 -6.001,-3.202 -2.605,-4.57c1.757,-0.708 3.427,0.567 2.636,2.052c-0.555,1.042 -2.116,0.929 -2.485,-0.146c-0.301,-1.145 -0.799,-0.605 -0.586,0.17c0.644,2.469 3.799,1.887 4.052,-0.388c0,-2.819 -3.069,-3.48 -4.9,-1.897c-1.418,1.265 -1.566,3.55 -1.212,5.534c0.487,4.121 2.806,9.465 4.452,15.564c0.823,3.046 2.013,6.676 2.439,9.808l-1.229,-0.351c-0.01,-0 -3.837,-13.174 -6.028,-19.606c-1.666,-5.236 -3.123,-11.681 2.969,-13.074c1.82,-0.416 3.785,1.069 4.326,2.341Zm-8.069,-2.475l-0,0.036l1.686,-0c-0,-0 0.008,0.103 -0.731,0.658c-4.083,3.07 -1.647,9.836 -0.105,15.036c2.686,8.306 5.088,16.803 5.054,16.793l-1.69,-0.656c-0.926,-5.397 -5.293,-15.714 -6.833,-23.414c-0.43,-4.628 -0.499,-5.987 2.619,-8.453l-0,0Zm-8.036,0.008l1.157,0.031c-4.415,8.298 2.276,16.885 4.917,29.601l-1.574,-0.484c-2.139,-9.427 -10.359,-24.876 -4.5,-29.148Zm-1.84,0.031l0.485,-0c-2.038,3.094 -1.654,6.996 -0.566,11.214c1.462,5.671 4.303,11.911 5.25,17.508c-0.484,-0.271 -1.176,-0.401 -1.703,-0.554c-1.658,-7.129 -4.688,-14.139 -6.066,-20.778c-0.465,-3.635 0.328,-6.356 2.6,-7.39Zm4.183,-0l1.328,-0c-1.186,1.861 -1.675,3.495 -1.497,6.007c0.517,8.455 4.805,16.661 6.355,24.45l-1.464,-0.542c-1.686,-9.305 -10.042,-23.207 -4.722,-29.915Zm2.873,0.018l1.453,0c-1.553,1.553 -2.588,2.001 -2.154,7.398c0.687,6.932 5.234,15.593 6.83,24.159l-1.588,-0.607c0,0 -0.419,-1.245 -0.569,-1.957c-1.545,-6.89 -5.746,-14.639 -6.238,-22.699c-0.111,-2.641 0.341,-5.103 2.266,-6.294Zm-14.725,0.175l0.954,0c-1.951,2.338 -1.854,5.525 -1.019,8.951c1.38,5.663 4.718,12.491 5.55,18.164l-1.388,-0.128c-1.388,-6.081 -4.089,-11.992 -5.843,-18.074c-0.326,-1.373 -0.611,-3.051 -0.497,-4.285c0.24,-2.588 1.306,-4.628 2.243,-4.628Zm3.435,0.022c-1.876,2.52 -2.143,5.146 -1.286,8.541c1.759,6.969 4.421,13.051 5.736,18.834l-1.345,-0.252c-1.575,-5.607 -4.249,-12.558 -5.859,-18.348c-0.99,-3.561 -0.592,-7.946 1.618,-8.754l1.136,-0.021Zm-7.276,0.009c-1.34,1.26 -1.799,3.382 -1.586,5.581c0.603,6.217 4.978,14.838 6.562,21.46l-1.548,0.318c-1.358,-5.814 -4.618,-14.683 -5.789,-17.745c-1.559,-3.127 -1.091,-7.759 1.252,-9.592l1.109,-0.022Zm2.2,0.015c0.165,0 -1.57,2.696 -1.422,5.005c-0.044,1.232 0.09,2.553 0.439,3.858c2.18,6.268 4.328,11.948 5.995,17.922l-1.403,0.067c-1.918,-7.433 -5.63,-14.093 -6.533,-21.143c-0.204,-2.016 0.132,-3.986 1.798,-5.69l1.126,-0.019Zm6.281,0.008l1.403,-0c-1.534,1.575 -2.226,4.043 -1.718,6.958c0.519,2.976 2.049,7.698 3.317,11.852c1.47,4.815 2.654,8.887 2.519,8.921l-1.588,-0.244c-2.985,-13.795 -9.537,-22.368 -3.933,-27.487Zm30.356,8.946c-1.331,0.033 -2.62,0.745 -2.939,1.809c-0.389,1.299 -0.074,3.67 2.516,3.67c0.885,-0 1.443,-0.663 0.336,-0.861c-3.956,-0.715 -1.304,-4.838 1.486,-2.713c2.514,2.282 5.876,2.265 5.916,0.646c0.009,-0.407 -0.013,-0.421 -0.609,-0.535c-1.401,-0.266 -3.492,-0.907 -4.293,-1.313c-0.471,-0.239 -0.967,-0.462 -1.102,-0.496c-0.419,-0.153 -0.868,-0.217 -1.311,-0.207Zm-52.072,3.736c10.062,9.178 8.2,22.34 0.466,29.977l-0.562,-1.639c4.274,-2.464 9.504,-16.186 -0.096,-26.262l0.192,-2.076Zm58.506,0.601c-1.84,0.037 -3.321,1.749 -2.169,3.552c0.29,0.453 1.008,0.851 1.322,0.833c0.045,-0 0.082,-0.014 0.111,-0.031c0.101,-0.06 -0.127,-0.465 -0.459,-0.923c-1.53,-2.076 0.589,-2.691 2.088,-1.58c1.424,1.114 3.622,1.009 3.305,-0.158c-0.112,-0.412 -0,-0.613 -0.797,-0.625c-0.707,-0.01 -0.89,-0.05 -1.526,-0.488c-0.609,-0.418 -1.262,-0.592 -1.875,-0.58Zm-58.933,2.181c7.575,7.695 5.889,18.852 0.162,25.258c-1.467,-3.044 -3.136,-5.74 -5.412,-7.39c1.225,-2.942 1.752,-6.187 -0.324,-10.563c1.457,-0.804 3.48,-2.936 5.574,-7.305Zm52.777,3.043c-0.841,-0.024 -0.486,0.527 0.493,0.904c0.957,0.369 2.146,1.393 2.142,1.677c0,0.217 -0.305,0.088 -2.031,0.565c-0.748,0.207 -1.801,0.671 -2.245,0.876c-0.733,0.34 -0.767,0.336 -1.914,0.301c-1.954,-0.058 -2.251,0.009 -0.882,1.031c2.768,2.065 6.461,3.411 8.42,2.554c0.594,-0.26 0.58,-0.101 1.009,0.147c0.561,0.323 1.019,0.47 1.322,0.468c0.577,0 0.587,-0.536 -0.336,-1.349c-0.565,-0.497 -0.521,-0.331 -0.488,-0.646c0.137,-1.347 -0.074,-2.58 -0.624,-1.194c-0.147,0.371 -0.363,0.789 -0.579,0.737c-0.407,-0.127 -0.2,-0.879 -0.397,-1.26c-0.332,-0.671 0.021,-0.835 0.829,-0.627c0.581,0.149 0.614,-0.166 0.975,-0.569c0.631,-0.705 0.527,-1.126 -0.444,-0.907c-0.161,0.037 -0.295,-0.009 -0.42,-0.038c-0.303,-0.07 -0.58,-0.263 -1.302,-0.817c-0.927,-0.712 -2.241,-1.661 -3.093,-1.806c-0.17,-0.029 -0.315,-0.044 -0.435,-0.047l-0,0Zm1.824,4.11c0.146,-0.009 0.306,0 0.361,0.067c0.18,0.263 -0.433,1.523 -0.785,1.7c-0.195,0.103 -0.385,-0.057 -0.519,-0.14c-0.112,-0.068 -0.046,-0.252 0.04,-0.405c0.226,-0.406 0.624,-1.186 0.624,-1.186c-0,-0 0.133,-0.027 0.279,-0.036l0,0Zm-0.961,0.159l-0.578,1.074c-0.122,0.228 -0.177,0.312 -0.274,0.313c-0.058,0 -0.13,-0.028 -0.242,-0.074c-0.503,-0.199 -1.375,-0.609 -0.998,-0.925c0.616,-0.378 1.899,-0.506 2.092,-0.388Zm-59.749,0.717c2.724,4.751 0.478,9.47 0.297,9.242l-2.45,-0.917l0,-7.647l2.153,-0.678Zm53.153,0.537c-0.179,0.013 -0.27,0.137 -0.175,0.385c0.076,0.198 1.164,1.046 2.126,1.588c2.058,1.251 3.971,2.326 6.167,2.347c0.732,0.008 1.497,-0.104 2.307,-0.363c0.829,-0.315 0.727,-0.974 -0.043,-0.838c-0.261,0.046 -0.722,0.129 -1.028,0.183c-1.89,0.331 -4.219,-0.354 -7.041,-2.072c-0.682,-0.416 -1.423,-0.815 -1.607,-0.953c-0.259,-0.194 -0.527,-0.291 -0.706,-0.277l0,-0Zm-1.533,2.414c-0.449,0.05 0.104,0.885 1.446,1.702c3.48,2.119 6.999,3.685 10.45,3.533c2.552,-0.112 2.97,-0.302 2.978,-0.86c0.015,-1.051 -0.413,-1.517 -2.785,-1.259c-2.053,0.223 -5.027,-0.098 -7.076,-0.985c-2.337,-1.011 -2.893,-1.249 -3.733,-1.684c-0.659,-0.341 -1.076,-0.47 -1.28,-0.447l-0,0Zm3.315,8.481c4.332,0.708 9.485,0.687 13.986,0.431c0.85,-0.051 0.9,2.024 0.9,2.024c0.598,6.29 5.031,11.497 8.1,18.345c-22.54,-0.616 -45.219,0.049 -67.926,-0.128c0,-0 8.25,-14.451 10.75,-19c0.548,-1 0.604,-1.707 0.309,-2.122c-0.456,-0.642 -0.419,-1.728 0.093,-2.356c0.555,-0.255 0.332,-0.71 0.091,-1.231c-0.404,-1.386 0.639,-2.345 1.731,-2.789c11.27,-1.917 21.512,4.908 31.966,6.826Z" style="fill:#242424;fill-rule:nonzero;"/><path id="path6353-8" d="M129.158,21.207c0,-0 -8.963,17.513 -12.144,22.112c-16.96,1.829 -13.369,-6.828 -48.424,-6.751l-7.621,-15.136l68.189,-0.225Zm15.679,17.441l0.242,48.442l-2.286,-2.139l-0.542,-48l10.217,-9.839l0.056,2.882l-7.687,8.654Zm-6.185,5.452c-2.433,4.926 0.284,10.942 0.283,10.939c-1.411,-0.35 -5.345,7.157 -5.695,6.94c-6.02,-7.424 -7.063,-18.487 0.292,-25.343c1.857,4.765 5.096,7.464 5.12,7.464Zm-4.493,33.798c-4.575,4.701 -8.202,8.362 -11.828,13.623c-0.297,0.428 19.3,25.459 18.995,25.898c-3.023,3.359 -7.075,5.828 -10.228,9.885c-0,-0 -16.071,-21.156 -16.441,-20.97c-1.628,6.621 -2.82,12.615 -2.509,19.535c0.991,17.705 8.515,28.545 8.573,28.331c6.392,-25.491 33.634,-41.936 32.472,-39.151l0.028,11.368c-0.298,-0.569 -12.883,7.288 -19.939,24.1c-0.407,0.969 -12.355,4.89 -12.271,5.038c0.51,1.318 5.786,8.824 5.786,8.824c0,0 -2.131,0.998 -2.368,0.995c-6.839,-8.552 -12,-19.818 -13.756,-30.546c-2.13,-11.554 -3.508,-33.276 19.533,-57l3.953,0.07Zm-69.072,29.892c3.606,11.253 3.507,22.904 1.849,31.039c-2.529,14.74 -11.793,25.294 -19.223,33.342l-3.264,-0.11c5.548,-4.931 9.098,-9.704 11.189,-13.928l-19.228,-25.275l-10.959,2.383c-0,-0 0.33,-11.307 -0.01,-11.307c8.518,-7.09 14.639,-13.507 19.033,-23.837c2.694,-1.002 11.623,-4.873 11.623,-4.873c2.66,3.547 -12.322,29.195 -9.421,28.1c1.322,1.097 15.959,20.954 16.244,20.913c6.748,-20.775 0.166,-42.591 -11.705,-57.829c1.347,-0.878 2.566,-1.561 2.455,-1.355c5.085,7.094 9.54,15.563 11.417,22.737l0,0Zm35.126,10.416c-0.76,-1.184 -4.181,25.354 4.81,46.596c-0.856,0.652 -8.273,2.079 -8.273,2.079l-1.996,-6.36l5.06,-2.155l-0.934,-2.981c-3.928,1.916 -12.435,4.744 -17.667,13.485c0,-0 -25.424,0.219 -25.966,0.174c-0.527,-0.045 5.186,-5.55 10.604,-16.696c2.475,-5.09 4.444,-11.677 4.854,-19.405c0.081,-1.528 5.817,7.179 5.817,7.179c-1.43,7.357 -5.253,14.599 -9.064,21.841c0,0 5.847,0.334 9.931,0.214c6.352,-6.98 10.335,-10.659 19.912,-13.993c-2.194,-11.047 4.007,-12.131 -20.106,-15.63c2.735,-14.241 1.524,-31.304 -4.301,-47.534c5.581,-0.427 5.82,-0.726 8.724,-1.516l2.012,5.918l-5.445,2.52l0.88,3.341c0.022,-0.002 12.018,-3.651 17.893,-14.174l26.277,-0.03c-10.134,11.057 -14.267,21.994 -16.468,36.454c-2.15,-0.388 -6.554,0.673 -6.554,0.673l0,0Zm-64.622,95.467c-3.304,2.78 -9.935,10.02 -9.935,10.02l-0.087,-3.709l7.526,-7.871l-0.076,-48.593l2.546,2.454l0.026,47.699Zm3.478,-17.786c1.355,-0.649 4.056,-3.843 5.344,-7.431c8.719,7.833 5.128,22.229 0.356,25.226c-1.385,-3.144 -5.396,-7.311 -5.303,-7.223c0.922,-3.292 1.628,-6.631 -0.397,-10.572Zm77.195,32.622l-67.243,-0.119c3.836,-7.595 7.355,-13.734 11.432,-21.21c2.121,-2.574 48.04,8.309 48.256,7.225l7.555,14.104Z" style="fill:#bdbdbd;fill-rule:nonzero;"/><path id="path6355-9" d="M152.611,30.88l0.449,63.804l-7.643,-7.466l-0.454,-48.999l7.648,-7.339Zm-35.072,12.364c1.578,0.768 0.055,2.767 0.984,4.382c-1.004,3.251 -9.349,1.692 -14.465,0.553c-12.74,-3.317 -15.617,-7.614 -33.18,-6.018c-0.144,-0.246 -1.934,-4.88 -1.814,-5.368c15.115,-2.995 34.403,8.164 48.475,6.451Zm-27.242,33.039c1.592,1.16 3.087,1.375 4.564,1.627c-2.592,4.585 -5.731,8.764 -10.974,11.379l-2.44,-6.07c3.084,-1.595 6.111,-3.492 8.85,-6.936Zm31.843,15.763c-0,0 2.262,-3.719 4.397,-5.528c6.348,8.559 20.542,26.783 20.542,26.783l6.024,-3.067c-0,0 0.024,3.528 -0.113,3.775c-16.268,8.431 -27.431,24.364 -32.346,39.284c-0,0 -2.62,-2.688 -2.275,-3.825c4.399,-11.769 11.921,-23.571 22.982,-32.423l-19.211,-24.999Zm-20.29,17.364l-20.538,-0.03l-0.909,-7.179c7.864,-2.65 14.354,-8.064 20.423,-14.326l9.741,0.171c-3.193,7.037 -7.631,14.175 -8.717,21.364l-0,-0Zm-76.038,30.248c-0.664,-2.024 0.008,-4.207 -0.25,-4.116c24.6,-12.235 31.63,-39.088 31.63,-39.088c0,-0 2.336,3.718 2.229,4.293c-12.733,28.46 -21.252,29.308 -22.889,32.399l19.367,25.204l-4.381,5.991l-20.772,-27.182c-2.065,0.956 -3.241,1.757 -4.934,2.499Zm12.13,-36.819c-4.172,7.545 -8.475,11.93 -12.762,14.948l0.208,-9.957l12.554,-4.991Zm115.012,29.612l-0.107,9.66l-12.671,5.484c3.503,-7.68 8.259,-11.796 12.778,-15.144Zm-56.453,8.685l0.749,6.794c-7.693,3.375 -14.489,7.888 -19.975,14.064c-5.894,0.285 -9.92,-0.117 -9.888,-0.036c-0.01,0.012 5.278,-7.897 8.996,-20.94l20.118,0.118Zm-63.734,71.369l-7.002,7.115l-0.221,-63.617l7.033,6.854l0.19,49.648Zm61.537,-51.7l2.222,6.295c-3.494,1.317 -6.14,4.186 -8.605,7.026c-1.809,-2.058 -4.823,-2.466 -4.787,-2.32c4.361,-6.867 8.041,-9.14 11.17,-11.001Zm13.128,47.674c-0,-0 0.874,0.509 0.778,1.225c-0.29,0.928 0.933,3.029 0.934,3.029c-14.912,4.55 -36.625,-8.252 -49.512,-5.559c0.108,-0.905 -0.041,-1.984 0.325,-2.838c-0.406,-1.813 -0.693,-1.872 1.068,-2.979c9.054,-2.576 18.595,2.917 27.439,5.543c7.215,2.285 13.075,1.703 18.968,1.579Z" style="fill:#3f3f3f;fill-rule:nonzero;"/><path id="path6357-5" d="M130.21,20.784l-70.076,0.131l8.422,15.863c-0.018,0.023 -0.673,2.618 0.674,2.931c0.433,0.1 0.681,0.504 0.768,0.892c-0.109,1.103 0.389,1.572 0.808,2.142c6.662,-0.946 12.448,-0.474 17.228,0.607c10.738,3.219 19.316,8.048 28.91,6.127c1.55,-0.396 2.2,-1.786 1.686,-3.038c-0.233,-0.569 -0.589,-0.574 -0.172,-0.921c0.465,-0.54 0.712,-1.791 0.2,-2.246c-0.604,-0.348 -0.758,0.252 -0.122,-0.923l11.674,-21.565Zm-1.418,0.751l-5.739,10.651c-3.392,-0.175 -3.271,3.108 -3.122,3.189c-2.256,-1.62 -4.68,2.407 -1.38,3.561c-2.696,2.836 -6.695,0.215 -6.455,0.011c3.847,0.733 4.056,-3.588 1.549,-4.294c3.449,-4.765 -5.583,-6.614 -3.926,-0.734c-4.576,-0.83 -3.749,4.406 -0.346,4.358c-0.796,1.951 -7.077,0.474 -6.806,-0.976c4.247,-0.453 2.549,-4.344 0.712,-4.348c4.441,-4.228 -4.446,-8.127 -4.21,-1.753c-3.565,-0.754 -3.985,4.006 -0.557,4.319c-1.256,1.776 -5.739,0.657 -6.982,-1.374c3.538,-0.472 3.317,-3.598 0.549,-4.103c3.509,-4.493 -5.128,-6.154 -4.231,-0.93c-3.094,-1.07 -4.792,3.082 -0.783,4.269c-4.107,2.46 -8.567,-1.207 -8.084,-1.282c4.687,0.279 3.754,-4.444 0.362,-4.188c2.158,-4.904 -6.393,-5.177 -4.224,-0.091c-3.846,-0.071 -3.508,4.412 0.177,4.711c-2.321,1.701 -4.937,1.851 -6.62,0.259c3.507,-0.928 2.049,-5.028 -1.479,-3.893c-0.327,-3.43 -3.099,-2.702 -3.161,-2.598l-2.482,-4.656l67.238,-0.108Zm24.821,3.837l-11.474,11.506l0.149,47.74c-2.435,-2.304 -4.519,-4.761 -7.306,-7.019l-4.772,0.038c-12.458,12.743 -19.281,23.648 -20.779,43.177c-1.002,13.065 3.315,29.494 14.763,45.416l2.795,-1.707l-5.523,-8.371l11.7,-5.215c4.66,-9.88 10.184,-18.997 20.288,-24.218l0.057,-12.788l0.177,-0.265l-0.134,-4.015l-5.009,2.687c-1.494,-2.2 -6.296,-8.582 -10.988,-14.759c-4.971,-6.543 -9.664,-12.656 -9.664,-12.656l-0.327,0.25l0.655,-0.799l20.795,27.376c0,-0 3.284,-1.618 4.25,-2.157l-0.131,-13.892l0.562,0.028l-0.084,-70.357Zm-1.308,1.945l0.074,2.559l-7.753,8.14c-0.009,16.083 0.042,32.166 0.096,48.249l-1.907,-1.896l-0.261,-47.548l9.751,-9.504Zm-74.733,0.682c0.661,0.076 1.166,0.842 0.696,1.62c-1.047,1.731 -0.259,3.181 2.288,4.52c3.589,1.887 9.454,-0.227 8.247,-3.01c-0.772,-0.888 -0.056,-1.514 0.962,-1.482c1.154,0.036 1.545,0.811 0.805,1.641c-0.923,1.06 -0.681,2.134 0.395,3.358c3.223,4.617 9.745,2.786 8.881,-1.259c-0.378,-1.006 0.698,-1.41 1.817,-0.963c0.712,0.284 0.607,1.39 -0.172,1.781c-0.896,0.091 -1.024,1.397 -0.917,2.235c0.156,1.22 1.944,2.421 3.713,3.058c1.28,0.462 2.47,0.561 3.409,0.475c1.982,-0.182 3.088,-1.535 2.762,-3.564c-0.193,-1.196 0.14,-2.437 1.536,-1.779c0.764,0.36 0.573,1.229 -0.207,2.031c-2.744,2.694 2.781,5.974 6.116,3.715c0.566,-0.468 0.979,-0.548 0.979,-0.548c-2.092,5.236 -8.642,0.331 -8.581,0.117c-6.904,3.871 -9.818,-1.473 -10.815,-2.335c-6.036,1.343 -7.219,0.682 -10.586,-2.976c-6.043,2.972 -8.972,0.445 -11.494,-1.153c-2.96,2.781 -6.713,2.858 -8.669,1.462c-0.366,-0.615 -0.873,-1.395 -0.915,-1.628c-0.032,-0.182 0.244,0.029 0.924,0.518c3.549,2.554 9.44,-0.627 7.866,-3.994c-0.423,-0.907 -0.356,-1.297 0.277,-1.66c0.225,-0.154 0.462,-0.205 0.683,-0.18Zm-11.293,1.802c1.047,0.026 1.302,1.666 0.752,2.043c-0.212,-0.444 -1.051,-1.985 -0.971,-2.025c0.076,-0.014 0.149,-0.02 0.219,-0.018l-0,-0Zm86.013,1.738l0.423,62.667l-6.998,-6.975l-0.385,-48.672l6.96,-7.02Zm-74.786,2.671c0.478,0.511 1.384,1.021 2.191,1.532l-3.801,-0.244c0.502,-0.343 0.995,-0.662 1.61,-1.288Zm11.281,1.158c0.613,0.669 1.204,1.248 1.836,1.791l-3.496,-0.851l1.66,-0.94Zm31.937,0.536c0.161,-0.045 0.116,0.239 -0.218,0.943c-0.157,0.341 -0.306,0.617 -0.425,0.613c-0.296,-0.244 -0.092,-0.91 0.149,-1.139c0.227,-0.244 0.397,-0.39 0.494,-0.417Zm12.898,0.488c-9.491,9.679 -4.972,21.021 -0.147,26.504c1.062,-3.841 6.105,-7.843 6.045,-7.938c-2.171,-3.409 -1.984,-8.353 -0.205,-10.926c-0.01,0.055 -3.897,-3.188 -4.442,-4.873c-0.383,-1.081 -0.464,-1.818 -1.251,-2.767Zm-0.213,0.542l0.614,1.02c-6.849,8.003 -3.946,17.836 0.044,22.491l-0.733,1.448c-9.216,-11.498 -3.14,-22.023 0.076,-24.959l-0.001,0Zm-60.784,0.203c7.425,-0.085 15.718,0.476 21.971,2.948c7.005,2.09 13.461,6.133 23.103,3.425c0.276,0.004 0.421,0.416 0.404,0.797c-0.015,0.372 -0.153,0.671 -0.462,0.908c-12.593,3.195 -19.336,-3.648 -29.396,-5.549c-4.974,-0.865 -11.503,-1.383 -15.77,-1.048c-2.447,0.248 -2.962,0.169 -2.947,-0.857c0.009,-0.642 -0.061,-0.627 3.097,-0.624Zm26.734,1.2l1.85,2.314l-4.169,-1.579c0.961,-0.191 1.638,-0.463 2.319,-0.735Zm34.796,0.765c0.056,-0.013 0.121,0.02 0.237,0.127c0.586,0.675 -1.007,0.731 -0.408,0.015c0.07,-0.072 0.115,-0.13 0.171,-0.142l0,-0Zm-59.523,0.928c9.897,-0.129 18.26,1.935 24.455,4.754c6.181,2.333 11.857,3.113 16.343,2.425c2.463,-0.378 2.826,-0.438 2.816,0.228c-0.477,2.074 -3.137,1.88 -5.076,1.891c-5.43,0.033 -11.533,-1.583 -15.762,-3.49c-8.496,-3.831 -16.81,-4.918 -25.329,-3.849c-0.408,0.062 -0.829,0.005 -1.133,-0.32c-0.773,-0.864 -0.247,-1.404 1.686,-1.584c0.674,-0.029 1.34,-0.046 2,-0.055l-0,0Zm59.945,0.41c0.396,0.02 0.866,0.201 1.052,0.447c0.481,0.633 -0.134,2.392 -0.774,2.382c-0.492,-0.007 -1.191,-2.247 -0.832,-2.668c0.106,-0.125 0.317,-0.172 0.554,-0.161Zm-24.302,0.366c0.739,0.639 1.578,1.26 2.564,1.858c-1.954,0.02 -3.901,-0.19 -5.69,-0.5c1.03,-0.383 2.056,-0.736 3.126,-1.358Zm22.709,0.302c0.172,0.005 0.312,0.294 0.477,0.871c0.352,1.233 0.319,1.37 -0.382,1.55c-0.412,0.1 -0.761,0.316 -1.163,0.368c-0.42,-0.005 -0.286,-0.629 0.401,-1.952c0.292,-0.562 0.495,-0.843 0.667,-0.837Zm3.539,1.322l1.914,1.647c-1.287,3.064 -1.924,6.334 0.243,10.497l-2,1.878c-2.775,-5.61 -2.601,-9.993 -0.157,-14.022Zm-2.55,1.649c0.367,0.001 0.624,0.123 0.685,0.46c-0.151,0.903 -0.602,2.462 -1.097,2.353c-0.768,-0.17 -2.06,-2.222 -0.932,-2.55c0.5,-0.145 0.976,-0.264 1.344,-0.263Zm6.468,0.576l-1.299,4.633l1.427,4.771l0.722,-0.215l-1.365,-4.563l1.24,-4.423l-0.725,-0.203Zm-9.329,0.805c0.483,-0.017 1.773,1.416 1.759,1.861c-0.037,0.224 -1.403,1.121 -1.946,1.485c-0.262,0.203 -0.245,0.099 -0.248,-0.139c-0.01,-0.679 0.044,-2.431 0.284,-3.104c0.03,-0.069 0.082,-0.1 0.151,-0.103Zm2.607,2.616c0.266,0.031 0.239,0.405 0.223,1.546c-0.013,0.86 0.038,1.417 -0.189,1.437c-0.176,0.016 -0.689,-0.314 -1.19,-0.698c-1.27,-0.973 -0.988,-1.639 0.455,-2.11c0.25,-0.082 0.434,-0.145 0.569,-0.168c0.051,-0.008 0.095,-0.011 0.132,-0.007l0,0Zm-2.723,2.05c0.17,0.042 0.411,0.216 0.746,0.514c0.964,0.86 1.131,1.064 0.247,1.771c-0.259,0.207 -0.604,0.487 -0.766,0.488c-0.358,0.002 -0.523,-0.679 -0.567,-1.851c-0.026,-0.697 0.057,-0.992 0.34,-0.922Zm2.835,1.808c0.398,-0.023 0.607,0.419 0.927,1.82c0.207,0.927 0.347,1.3 0.092,1.289c-0.494,0.011 -0.962,-0.116 -1.351,-0.235c-1.866,-0.57 -1.926,-1.818 -0.138,-2.714c0.185,-0.093 0.338,-0.153 0.47,-0.16Zm-1.886,3.137c0.293,0.002 1.567,0.329 1.939,0.76c-0.051,0.432 -0.453,1.53 -0.809,1.825c-0.466,-0.036 -1.129,-1.511 -1.19,-2.564c-0,-0.014 0.018,-0.021 0.06,-0.021l0,0Zm3.115,0.669c0.082,-0.014 0.162,0.012 0.235,0.089c0.178,0.349 0.386,0.651 0.549,1.013c0.192,0.431 0.066,0.641 -0.373,1.07c-0.602,0.557 -1.085,0.601 -1.529,0.258c-0.165,-0.274 0.544,-2.333 1.118,-2.43Zm-0.883,3.221l0.462,0.093l-0.309,0.601c-0.062,-0.187 -0.419,-0.729 -0.153,-0.694Zm-43.81,16.898c-3.366,4.293 -8.889,7.098 -8.925,7.032l-0.186,0.519c0,-0 -1.012,0.345 -1.902,0.516c-0.286,0.054 -0.871,0.166 -1.26,0.302c-0.601,0.212 -0.899,0.436 -1.826,0.356c-1.929,-0.186 -3.866,0.378 -3.826,0.388c5.746,15.935 7.105,30.32 4.861,47.03c-2.117,-0.017 -6.759,-0.097 -6.759,-0.097c-0.467,4.694 -1.058,9.392 -2.492,13.825c-1.841,5.691 -4.062,10.982 -7.637,15.82c-2.019,3.038 -3.781,5.199 -5.868,8.047l26.494,-0.062c3.507,-5.926 10.262,-10.875 15.692,-12.938c1.848,-0.698 2.109,-0.594 2.416,0.279c0.547,1.562 0.52,1.495 -0.926,1.909c-7.095,2.518 -11.479,6.999 -15.136,12.709c-0.389,0.602 -0.472,0.856 -0.302,0.957c2.375,-0.376 3.842,1.164 5.278,2.294c1.512,-2.184 4.05,-5.066 6.031,-5.92c0.542,-0.024 1.388,-0.517 1.757,-0.995c0.467,-0.603 0.874,-0.524 1.391,-0.48c0.615,0.009 1.551,-0.127 2.819,-0.708c0.718,-0.33 1.047,-0.404 2.1,-0.457c0.938,0.031 1.833,-0.337 2.626,-0.597c0.92,-0.271 0.593,-0.534 0.065,-1.727c-2.685,-6.922 -4.609,-14.988 -5.31,-21.558c-0.788,-7.537 -0.548,-16.678 0.5,-23.658c2.57,-0.017 4.184,0.115 6.89,0.069c1.847,-15.095 6.857,-27.08 16.869,-37.86l-27.067,-0.07c-3.101,8.317 -17.252,14.662 -17.717,14.194l-0.746,-3.036c-0,-0 10.18,-1.462 17.036,-14.453c-0.701,0.427 -3.254,0.13 -4.94,-1.63l0,0Zm0.068,0.607c1.786,1.32 2.836,1.458 3.938,1.756c-3.039,5.693 -6.627,8.682 -10.4,10.76l-2.234,-5.875c3.086,-1.258 6.287,-3.952 8.696,-6.641Zm43.346,1.443c-14.724,14.198 -21.238,26.348 -21.752,42.379c-0.59,18.437 5.009,30.699 14.439,43.767l-2.023,1.152c-9.046,-12.069 -15.512,-28.444 -14.43,-44.6c1.036,-18.787 8.119,-29.613 20.557,-42.623l3.209,-0.075Zm-17.874,3.289l6.64,0.009l-4.853,6.301l-5.87,-0.178l4.083,-6.132Zm-18.92,0.053l17.862,0.013l-3.988,6.222l-10.573,0.053c-5.111,6.237 -11.417,11.211 -19.728,14.065c0,0 -1.026,-5.829 -1.255,-6.253c9.493,-3.605 15.048,-8.918 17.682,-14.1Zm12.557,0.184l-2.426,2.784l1.883,2.434l2.655,-2.448l-2.112,-2.77Zm-5.676,0.244l-2.178,2.843l2.316,2.254l2.233,-2.374l-2.371,-2.723Zm-6.41,0.148l-0.478,3.683l3.24,1.771l0.381,-3.588l-3.143,-1.866Zm18.912,0.379l-2.316,3.576l2.816,0.123l2.693,-3.691l-3.193,-0.008Zm-35.333,1.599l2.078,5.696c-0.569,0.338 -1.163,0.585 -1.789,0.719l-1.738,-6.001l1.449,-0.414Zm-2.117,0.7l1.717,5.942c-0.7,0.365 -1.401,0.544 -2.101,0.772l-1.901,-6.315l2.285,-0.399Zm-25.369,0.219l-2.495,1.472l-0.382,-0.257l-25.871,14.967l-0.014,4.545l30.03,-12.67c0.596,0.638 0.946,1.349 1.448,2.134l-12.033,5.143c-3.618,9.984 -11.771,18.256 -19.374,24.06c0.037,9.911 0.084,30.66 0.084,30.66l18.094,18.121c2.32,-2.133 4.377,-4.328 6.436,-6.709l-20.775,-27.499l1.842,-1.205l20.555,27.357c-0.172,0.209 -0.353,0.403 -0.528,0.608c-0.361,-0.465 -4.535,-5.837 -9.339,-12.087c-5.007,-6.514 -10.311,-13.488 -11.399,-15.157l-0.444,0.288c1.147,1.761 6.416,8.676 11.424,15.191c4.837,6.294 9.099,11.779 9.405,12.172c-2.187,2.522 -4.507,4.801 -6.829,7.078l4.131,-0.061c2.901,-2.979 23.914,-22.444 20.376,-51.845c-1.514,-12.575 -5.006,-23.454 -14.342,-36.306l0,-0Zm22.137,0.094c3.866,11.079 6.938,26.852 3.813,47.144c-0,-0 -1.12,0.02 -1.622,0.009c3.215,-16.017 0.266,-33.023 -4.693,-46.877l2.502,-0.276Zm-22.191,0.327c18.429,24.836 21.764,61.575 -6.395,86.928l-2.412,-0.11c2.067,-1.922 3.953,-3.885 5.702,-5.875l0.154,0.199l0.418,-0.324c0,-0 -0.213,-0.276 -0.217,-0.282c21.573,-24.912 18.77,-54.717 0.694,-79.292l2.056,-1.244Zm73.993,0.122c0.015,0.021 4.684,6.102 9.645,12.632c4.666,6.143 9.464,12.528 10.941,14.691l-0.713,0.383l-20.566,-26.858l0.693,-0.848Zm-1.036,1.502l20.21,26.29l-5.099,3.703l-18.99,-25.077l3.879,-4.916Zm-33.053,0.008l-0.119,3.552l3.209,0.496l-0.04,-3.788l-3.05,-0.26Zm17.899,1.412l1.917,0.087l-2.524,1.731l1.619,2.081l2.591,-1.701l-1.443,-2.103l3.786,0.081l-2.608,4.059c0.025,-0.039 -5.582,-0.162 -5.582,-0.162l2.244,-4.073Zm-1.085,0.117c-0.212,-0.03 -7.849,14.462 -8.728,20.752l-19.926,0.097l-0.78,-6.766c6.587,-2.409 13.689,-6.496 19.901,-14.009c1.061,0.07 9.533,-0.074 9.533,-0.074l0,0Zm-20.504,2.159l-0.636,3.315l2.867,0.621l0.566,-3.298l-2.797,-0.638Zm32.33,2.025l18.731,24.894l-1.948,1.365l-18.21,-24.212l1.427,-2.047Zm-13.452,0.582l5.627,0.154l-2.407,4.738l-5.534,-0.07l2.314,-4.822Zm-23.464,0.29l-0.409,3.4l2.95,0.814l0.44,-3.58l-2.981,-0.634Zm25.271,0.019l-2.631,1.778l1.691,2.375l2.735,-1.778l-1.795,-2.375Zm-29.335,2.031l-1.005,3.04l2.791,1.502l0.883,-2.83l-2.669,-1.712Zm-26.328,0.592c0.829,1.028 -0.491,5.692 -2.053,2.714c-0.339,-0.605 -0.786,-1.486 -0.786,-1.486l0.799,-0.298c0.644,2.214 1.236,1.391 1.305,-0.563c0.539,-0.242 0.597,-0.28 0.735,-0.367Zm2.716,1.359l1.668,3.123c-10.542,26.126 -24.753,33.832 -33.345,39.057l-0.028,-3.662c22.977,-11.46 31.581,-38.518 31.705,-38.518l-0,0Zm-6.47,0.221c0.433,0.895 1.173,1.825 1.352,2.795c0.071,0.424 -0.142,0.579 -0.607,0.842c-1.265,0.623 -2.672,1.011 -3.689,0.473c-0.303,-0.502 0.933,-3.308 0.933,-3.308l2.011,-0.802Zm68.369,0.604c0.786,0.052 1.864,0.515 2.777,1.256c1.707,1.387 2.441,3.244 2.643,6.894c0.129,2.346 0.302,2.824 0.981,1.856c1.22,-2.159 4.142,-1.103 4.507,1.177c0.204,1.207 -0.854,2.079 -1.195,0.984c-0.906,-2.274 -3.122,-1.727 -2.762,0.531c0.238,1.49 1.721,2.312 4.65,3.142c3.521,0.997 4.568,2.208 5.254,5.112c0.304,1.286 0.255,1.959 -0.42,2.631c-0.334,0.332 -0.758,0.67 -0.758,0.67c-0,-0 -0.47,-1.955 -0.667,-2.86c-0.348,-1.662 -2.674,-1.57 -2.411,0.163c0.153,1.012 0.188,0.991 -0.317,0.969c-2.4,-0.118 -1.983,-3.924 0.783,-3.63c0.577,-0.069 0.653,-0.307 0.165,-0.511c-0.485,-0.204 -2.345,-0.683 -2.631,-0.682c-3.01,0.01 -7.352,-4.643 -7.245,-8.773c0.069,-2.701 -0.841,-4.644 -1.772,-4.865c-0.74,-0.175 -1.815,0.502 -1.721,1.329c0.128,1.141 -0.794,0.784 -1.325,-0.035c-0.81,-1.133 0.235,-2.766 2.165,-2.638c0.821,-0.161 -0.604,-0.685 -1.66,-0.992c-0.958,-0.055 -0.149,-1.241 0.029,-1.452c0.136,-0.158 0.348,-0.247 0.612,-0.273c0.099,-0.01 0.206,-0.011 0.318,-0.003l0,-0Zm-13.44,0.435l5.643,0.014l-1.807,4.769l-5.707,-0.054l1.871,-4.729Zm-57.991,0.257c-4.361,12.074 -13.687,22.416 -22.218,27.705l-0.036,-2.689c1.802,-1.325 13.239,-9.66 19.157,-23.689l3.097,-1.327Zm59.876,0.081l-2.619,1.816l2.016,1.996l2.734,-1.74l-2.131,-2.072Zm-53.263,1.562c0.319,-0 0.578,0.26 0.578,0.582c-0,0.321 -0.259,0.58 -0.578,0.58c-0.32,0 -0.577,-0.259 -0.577,-0.58c-0,-0.322 0.257,-0.582 0.577,-0.582Zm4.952,0.505c5.627,13.235 7.687,26.119 3.295,42.745l-15.805,-20.627c4.716,-6.031 9.419,-12.96 12.51,-22.118Zm-6.906,0.782c0.303,0.042 0.328,0.383 0.239,1.201c-0.214,1.968 -1.522,4.13 -2.324,4.2c-0.268,0.023 -0.625,-0.5 -0.73,-0.951c-0.128,-0.548 -1.072,-1.928 -1.666,-2.59c-0.747,-0.831 -0.708,-0.948 0.362,-1.034c1.274,-0.102 2.52,-0.354 3.237,-0.616c0.417,-0.152 0.7,-0.235 0.882,-0.21Zm-14.036,0.529l-13.879,5.384l0.039,10.935c9.466,-6.879 13.102,-15.228 13.84,-16.319l-0,0Zm12.576,0.697c-0.548,0.057 -1.538,0.535 -1.61,0.878c0.016,0.206 0.693,1.393 1.101,1.446c0.69,-0.108 0.98,-1.682 0.861,-2.221c-0.035,-0.096 -0.169,-0.123 -0.352,-0.103Zm-13.68,0.188c-3.975,6.752 -7.868,10.926 -11.727,14.012l-0.143,-9.035l11.87,-4.977Zm78.815,0.004l16.42,21.723l-1.537,1.537l-15.942,-20.578l1.059,-2.682Zm-69.305,0.653c0.978,-0.018 2.624,3.705 2.12,4.376c-0.252,0.371 -2.197,0.207 -3.234,0.057c-1.021,-0.199 -1.172,-0.218 -0.828,-1.065c0.459,-1.124 1.495,-3.152 1.757,-3.314c0.058,-0.036 0.12,-0.053 0.185,-0.054l-0,-0Zm56.757,0.164l5.881,0.112l-1.421,5.133l-6.039,-0.035l1.579,-5.21Zm2.383,0.246l-2.866,1.951l2.262,2.282l2.769,-1.913l-2.165,-2.32Zm8.707,2.552l15.859,20.749c-6.085,6.889 -10.175,14.775 -12.677,21.606c-5.872,-12.888 -7.269,-27.626 -3.182,-42.355Zm-64.001,1.308c0.32,0 0.578,0.259 0.578,0.581c0,0.321 -0.258,0.582 -0.578,0.582c-0.32,-0 -0.578,-0.261 -0.578,-0.582c-0,-0.322 0.258,-0.581 0.578,-0.581Zm-6.425,0.745c0.165,-0.018 0.417,0.026 0.698,0.147c1.25,0.537 4.151,-0.033 4.228,0.244c0.432,0.62 -0.216,2.311 -1.439,3.482c-0.598,0.571 -1.144,0.943 -1.46,0.949c-0.316,0.005 -0.375,-0.434 -0.609,-1.189c-0.381,-1.251 -1.094,-2.406 -1.602,-3.412c-0.062,-0.123 0.018,-0.203 0.184,-0.221Zm-0.894,1.226c0.491,-0.125 1.06,0.93 1.545,2.5c0.449,1.448 0.222,1.813 -0.629,1.825c-0.437,0.051 -0.737,0.043 -1.114,0.041c-2.175,-0.012 -2.901,-0.148 -2.269,-1.223c0.844,-1.049 1.342,-2.045 2.263,-3.015c0.066,-0.068 0.134,-0.11 0.204,-0.128l0,-0Zm3.848,0.069c-0.356,-0.004 -0.779,0.178 -0.965,0.426c-0.204,0.389 -0.117,1.135 0.46,1.439c0.337,0.177 1.268,-1.212 1.01,-1.631c-0.101,-0.163 -0.291,-0.232 -0.505,-0.234Zm54.798,0.054l5.81,0.134l-1.055,6.091l-4.755,-6.225Zm50.523,0.532l0.037,3.008c-18.51,10.595 -26.1,23.111 -32.449,38.982l-1.763,-3.037c6.421,-16.44 16.415,-28.66 29.952,-36.653c0.008,0.009 0.024,0.035 0.03,0.043l0.445,-0.287c0,-0.004 -0.012,-0.016 -0.014,-0.02c1.227,-0.712 2.478,-1.393 3.762,-2.036l-0,0Zm-105.884,4.022c0.319,0 0.578,0.259 0.578,0.581c-0,0.321 -0.259,0.58 -0.578,0.58c-0.32,0 -0.577,-0.259 -0.577,-0.58c-0,-0.322 0.257,-0.581 0.577,-0.581Zm-6.432,0.014c0.233,-0.035 0.783,0.203 1.595,0.292c1.092,0.119 2.831,-0.064 3.261,0.24c0.187,0.245 0.014,0.891 -0.336,1.619c-0.493,1.025 -1.39,1.899 -2.058,2.296c-1.694,0.786 -1.3,-0.214 -1.573,-1.226c-0.159,-0.59 -0.401,-1.341 -0.586,-1.874c-0.453,-1.005 -0.536,-1.312 -0.303,-1.347Zm-1.108,1.05c0.438,-0.041 0.753,0.564 1.04,1.682c0.571,1.867 0.701,2.584 -0.727,2.421c-0.397,-0.003 -0.958,-0.018 -1.618,-0.155c-1.671,-0.348 -1.867,-0.496 -0.864,-1.677c0.372,-0.438 0.926,-1.098 1.229,-1.468c0.37,-0.519 0.678,-0.778 0.94,-0.803Zm113.467,0.117l-0.012,1.625c-1.365,0.479 -2.234,1.622 0.058,1.988l0.037,1.28c-1.048,-0.382 -1.948,-0.947 -3.029,-1.317c-0.702,-0.239 -0.509,-0.804 0.217,-1.606c0.81,-0.961 1.606,-1.435 2.728,-1.97l0.001,-0Zm-109.563,0.229c-0.261,-0.015 -0.543,0.013 -0.726,0.081c-0.563,0.208 -0.179,1.582 0.377,1.579c0.519,-0.143 1.265,-1.11 0.945,-1.49c-0.096,-0.099 -0.336,-0.156 -0.596,-0.17Zm104.408,1.928c0.32,-0 0.579,0.26 0.579,0.582c-0,0.321 -0.259,0.58 -0.579,0.58c-0.319,0 -0.577,-0.259 -0.577,-0.58c0,-0.322 0.258,-0.582 0.577,-0.582Zm-48.802,0.433c0.451,0.028 0.95,0.141 0.95,0.141c-0.199,-0.067 -0.889,8.781 -0.834,14.339c0.104,10.583 1.889,21.053 6.02,31.542c-0.788,0.485 -2.73,0.732 -2.73,0.732c-2.606,-7.954 -4.916,-16.51 -5.2,-24.627c-0.253,-8.84 -0.381,-14.17 1.089,-21.94c0.02,-0.102 0.133,-0.154 0.291,-0.178c0.12,-0.017 0.264,-0.018 0.414,-0.009l-0,0Zm-12.86,0.183l6.347,-0l0,4.214l4.534,0l-0.367,4.804l-4.167,0l0,4.215l-6.347,-0l-0,-4.215l-4.966,0l0.385,-4.804l4.581,0l-0,-4.214Zm-50.125,1.206c0.152,-0.03 0.39,0.045 0.713,0.216c0.627,0.34 2.288,0.597 3.186,0.526c1.022,-0.081 0.992,0.195 0.693,1.058c-0.53,1.53 -2.582,3.175 -3.551,3.176c-0.323,-0 -0.529,-0.169 -0.524,-0.573c0.009,-0.516 -0.36,-2.748 -0.566,-3.363c-0.224,-0.653 -0.206,-0.99 0.048,-1.04l0.001,0Zm113.084,0.147c0.556,-0.022 1.5,0.365 2.76,1.083c1.098,0.626 1.303,1.008 0.755,1.392c-0.929,0.567 -3.648,2.76 -4.148,2.626c-0.662,-0.569 -0.531,-4.165 0.207,-4.939c0.097,-0.102 0.24,-0.155 0.426,-0.162Zm-106.568,0.157c0.32,0 0.579,0.259 0.579,0.581c-0,0.321 -0.259,0.582 -0.579,0.582c-0.319,-0 -0.578,-0.261 -0.578,-0.582c0,-0.322 0.259,-0.581 0.578,-0.581Zm104.705,0.058c0.359,0.01 0.502,0.199 0.404,0.579c-0.405,1.582 -0.033,4.081 -0.129,4.657c-1.528,-0.511 -2.616,-1.211 -4.12,-1.388c-0.453,-0.063 -0.569,-0.147 -0.36,-0.546c0.682,-1.31 1.971,-2.682 3.331,-3.131c0.364,-0.12 0.658,-0.178 0.874,-0.171Zm-112.435,0.512c0.497,0.013 0.84,0.836 0.977,2.239c0.139,1.428 -0.075,2.241 -1.21,2.057c-0.344,0.007 -0.77,-0.053 -1.283,-0.171c-1.987,-0.448 -2.43,-0.905 -0.736,-2.258c0.627,-0.5 1.291,-1.122 1.484,-1.36c0.284,-0.351 0.542,-0.512 0.768,-0.507Zm3.365,0.757c-0.313,-0.01 -0.614,0.033 -0.702,0.115c-0.271,0.251 -0.145,1.418 0.081,1.558c0.577,0.197 1.744,-1.031 1.398,-1.461c-0.139,-0.136 -0.464,-0.201 -0.777,-0.212Zm107.935,0.601c-0.17,0.013 -0.408,0.128 -0.718,0.347c-0.733,0.518 -0.702,0.843 0.124,1.34c0.416,0.36 0.89,0.401 1.008,0.194c0.127,-0.224 0.095,-0.734 -0.099,-1.612c-0.042,-0.192 -0.145,-0.281 -0.315,-0.269Zm-4.342,0.707c0.32,0 0.578,0.259 0.578,0.581c0.001,0.321 -0.258,0.582 -0.578,0.582c-0.319,-0 -0.577,-0.261 -0.577,-0.582c0,-0.322 0.258,-0.581 0.577,-0.581Zm-54.942,0.41l-0,4.199l5.054,-0l-0,-4.199l-5.054,0Zm66.125,0.01l0.05,2.884c-13.9,8.423 -19.908,24.203 -19.907,24.207l-3.24,1.235c4.53,-10.857 10.72,-20.329 23.097,-28.326l-0,0Zm-105.84,0.628l15.623,20.479l-0.98,2.587l-16.256,-21.436l1.613,-1.63Zm-16.087,0.885c0.128,0 0.329,0.099 0.632,0.271c0.517,0.295 1.568,0.776 2.705,0.875c0.931,0.081 0.999,0.467 0.711,1.084c-0.823,1.369 -2.379,2.016 -3.623,2.446c-0.68,0.234 -0.32,-1.834 -0.593,-3.765c-0.059,-0.643 -0.047,-0.912 0.168,-0.911Zm112.844,0.173c1.332,0.109 3.126,0.86 3.116,1.52c0,0.285 -2.996,2.829 -3.321,2.824c-0.736,-0.011 -1.552,-3.868 -0.89,-4.212c0.258,-0.134 0.651,-0.168 1.095,-0.132Zm-2.702,0.276c0.384,-0.025 0.531,0.259 0.49,0.933c-0.007,0.733 0.309,2.005 0.721,2.913c0.321,0.706 0.686,1.178 0.336,1.189c-0.211,0.007 -0.857,-0.273 -1.43,-0.434c-0.862,-0.24 -1.541,-0.344 -2.327,-0.36c-1.577,-0.03 -1.784,-0.016 -1.105,-1.321c0.489,-0.94 1.591,-2.181 2.362,-2.56c0.409,-0.219 0.723,-0.345 0.953,-0.36Zm-111.459,0.056c0.451,-0.055 0.603,0.436 0.64,1.671c0.065,1.851 -0.133,2.85 -1.117,2.871c-0.447,0.01 -1.214,-0.266 -1.914,-0.608c-1.856,-0.907 -1.806,-1.115 0.709,-2.91c0.799,-0.609 1.331,-0.981 1.682,-1.024Zm7.107,0.645c0.319,0 0.578,0.259 0.578,0.581c-0,0.321 -0.259,0.582 -0.578,0.582c-0.32,-0 -0.577,-0.261 -0.577,-0.582c-0,-0.322 0.257,-0.581 0.577,-0.581Zm-4.615,0.507c-0.193,0.022 -0.281,0.162 -0.25,0.5c0.127,1.211 0.078,1.338 1.16,0.667c0.604,-0.381 0.85,-0.655 -0.027,-0.957c-0.39,-0.134 -0.689,-0.231 -0.883,-0.21l0,0Zm108.257,0.575c-0.22,-0.03 -0.465,0.099 -0.717,0.391c-0.704,0.817 -0.556,1.19 0.458,1.405c0.422,0.089 0.764,0.06 1.044,-0.002c0.466,-0.103 0.001,-0.709 -0.228,-1.237c-0.146,-0.341 -0.338,-0.528 -0.557,-0.557l-0,-0Zm-97.961,1.546c0.283,0.029 0.368,0.549 0.4,1.145c0.173,3.191 4.639,3.684 3.075,0.858c-0.513,-0.912 -0.193,-1.267 0.727,-0.803c1.453,0.734 1.934,2.474 0.525,3.276c-1.674,0.673 -1.108,0.819 1.032,1.546c4.555,1.565 6.51,4.436 6.749,9.905c-0.087,2.493 0.251,3.382 1.417,3.722c1.068,0.312 2.276,-1.052 1.51,-1.771c-0.416,-0.39 -0.756,-0.744 -0.536,-0.959c0.708,-0.692 2.48,0.43 2.462,1.634c-0.011,0.787 -0.307,0.949 -1.479,1.875c-0.325,0.257 -0.049,0.739 0.427,0.746c1.79,-0.58 1.665,1.802 0.702,1.88c-3.296,-0.091 -6.761,-3.704 -6.41,-6.682c0.248,-2.099 -0.153,-3.656 -0.721,-2.797c-1.255,1.899 -4.953,0.637 -4.92,-1.643c0.017,-1.213 0.823,-1.414 1.286,-0.318c0.684,1.618 2.603,1.659 2.887,-0.037c0.266,-1.59 -1.074,-2.759 -4.656,-4.061c-4.197,-0.99 -6.887,-4.893 -5.232,-6.948c0.343,-0.426 0.585,-0.586 0.755,-0.568l-0,-0Zm93.542,0.026c0.32,0 0.577,0.264 0.577,0.585c-0,0.322 -0.257,0.581 -0.577,0.581c-0.32,-0 -0.583,-0.259 -0.583,-0.581c0,-0.321 0.263,-0.585 0.583,-0.585Zm-109.976,0.972c0.894,0.268 1.448,0.649 2.469,0.99c0.625,0.211 0.995,0.362 0.443,1.024c-0.866,1.038 -1.794,1.687 -2.849,2.33l-0.008,-1.336c1.686,-0.751 1.522,-1.445 -0.037,-1.828l-0.018,-1.18Zm113.455,0.561c1.2,0.046 2.129,0.433 2.549,0.868c0.122,-0.091 -2.773,3.389 -3.304,3.718c-1.201,-1.042 -1.364,-2.916 -1.32,-4.338c0.541,-0.148 1.06,-0.225 1.545,-0.247c0.182,-0.008 0.358,-0.008 0.53,-0.001l-0,-0Zm-3.146,0.32c0.273,-0.015 0.31,0.272 0.384,1.048c0.125,1.508 0.887,2.977 1.218,4.135c-1.082,-0.085 -2.317,-0.444 -3.464,-0.432c-1.365,0.029 -1.766,0.122 -1.758,-0.388c-0.016,-1.371 1.259,-3.317 2.816,-4.051c0.393,-0.185 0.643,-0.303 0.807,-0.312l-0.003,0Zm-105.326,0.009c0.32,0 0.579,0.261 0.579,0.582c-0,0.322 -0.259,0.581 -0.579,0.581c-0.319,-0 -0.578,-0.259 -0.578,-0.581c0,-0.321 0.259,-0.582 0.578,-0.582Zm122.89,1.107c-6.421,4.305 -11.478,10.509 -14.229,16.648l14.151,-5.978l0.078,-10.67Zm-115,0.082l18.469,24.081l-1.342,1.965l-18.899,-24.635l1.772,-1.411Zm96.339,0.767c-0.143,0.014 -0.296,0.107 -0.457,0.279c-0.575,0.616 -0.653,1.106 -0.29,1.368c0.532,0.215 0.926,0.245 1.518,0.247c0.541,-0.037 0.256,-0.363 -0.145,-1.312c-0.174,-0.41 -0.386,-0.606 -0.626,-0.582Zm17.731,0.438l-0.034,9.057l-12.102,5.124c2.427,-5.291 6.921,-10.538 12.136,-14.181Zm-81.815,0.391l5.056,7.177l-5.977,-0.037l0.921,-7.14Zm-34.695,0.353l19.04,24.748l-4.009,5.28l-19.972,-26.337l4.941,-3.691Zm94.945,0.761c0.319,-0 0.578,0.259 0.578,0.58c0,0.322 -0.259,0.581 -0.578,0.581c-0.32,-0 -0.578,-0.259 -0.578,-0.581c-0,-0.321 0.258,-0.58 0.578,-0.58Zm2.439,1.443c1.221,0.013 3.096,0.294 3.366,0.573c0.371,0.324 -0.829,1.713 -1.503,2.689c-0.347,0.409 -0.731,1.517 -1.259,1.028c-0.942,-0.883 -2.132,-3.982 -1.522,-4.205c0.178,-0.065 0.512,-0.09 0.918,-0.085Zm-2.327,0.544c0.457,0.047 0.716,0.602 0.886,1.641c0.097,0.601 0.725,1.622 1.278,2.428c0.618,0.9 0.363,1.044 -1.202,0.682c-1.092,-0.213 -2.441,0.046 -3.45,0.097c-0.987,-0.07 -0.055,-3.23 1.43,-4.382c0.439,-0.341 0.783,-0.495 1.058,-0.466Zm-0.506,1.815c-0.151,0.022 -0.327,0.135 -0.554,0.333c-0.842,0.735 -0.487,1.531 0.664,1.492c0.91,-0.031 0.97,-0.156 0.538,-1.142c-0.22,-0.503 -0.398,-0.721 -0.648,-0.683Zm-3.8,2.654c0.32,-0 0.577,0.263 0.577,0.584c0,0.322 -0.257,0.582 -0.577,0.582c-0.319,0 -0.582,-0.26 -0.582,-0.582c-0,-0.321 0.263,-0.584 0.582,-0.584Zm-30.615,0.426c0.037,2.162 0.315,4.325 0.635,6.488c-8.48,3.121 -15.048,7.785 -19.879,13.952l-9.105,0.051c2.749,-5.141 6.541,-11.003 8.67,-20.475l19.679,-0.016Zm-26.505,0.04l5.971,0.089l-1.576,4.676l-5.7,-0.063l1.305,-4.702Zm61.554,0.295c0.89,-0.008 2.013,0.211 1.888,0.623c-0.298,0.793 -2.266,4.059 -2.45,4.056c-0.524,-0.008 -1.712,-1.835 -2.046,-3.146c-0.247,-0.973 0.015,-1.178 1.85,-1.452c0.19,-0.053 0.461,-0.079 0.758,-0.081Zm-59.123,0.256l-2.812,1.745l2.257,2.181l2.655,-1.847l-2.1,-2.079Zm55.306,1.125c0.312,-0.016 0.538,0.25 0.675,0.891c0.114,0.532 0.67,1.657 1.372,2.563c0.815,1.054 0.807,1.079 -0.384,1.153c-1.316,-0.02 -2.396,0.616 -3.423,0.741c-1.394,0.044 -0.706,-3.742 1.105,-5.033c0.249,-0.193 0.467,-0.305 0.655,-0.315Zm25.767,1.226l-30.819,13.292l4.446,6.585l26.404,-15.482l-0.031,-4.395Zm-25.961,1.04c-0.277,-0.03 -0.518,0.206 -0.735,0.71c-0.21,0.492 -0.021,0.754 0.548,0.763c1.028,0.015 1.336,-0.468 0.724,-1.13c-0.194,-0.209 -0.372,-0.325 -0.537,-0.343Zm-59.315,1.817l5.917,0.043l-1.838,4.338l-5.566,-0.1l1.487,-4.281Zm2.804,0.31l-3.082,1.456l1.748,2.188l2.783,-1.607l-1.449,-2.037Zm58.532,0.895c0.592,0.035 0.683,0.409 0.249,1.344c-0.853,1.841 -1.19,2.831 -1.755,2.835c-0.44,0 -0.974,-0.547 -1.576,-1.612c-0.871,-1.54 -0.843,-1.64 0.588,-2.084c0.967,-0.257 1.706,-0.44 2.21,-0.479c0.105,-0.008 0.2,-0.01 0.284,-0.007l0,0.003Zm-5.728,-0c0.32,-0 0.577,0.265 0.577,0.586c0,0.322 -0.257,0.581 -0.577,0.581c-0.32,-0 -0.583,-0.259 -0.583,-0.581c0,-0.321 0.263,-0.586 0.583,-0.586Zm-26.591,0.341l0.509,2.52l-3.118,-0.847l-0.659,3.095l3.109,0.964l0.671,-3.196l0.805,3.991c-0,0 -10.676,2.589 -17.59,13.664l-17.384,-0.082l3.821,-6.058l10.304,-0.132c6.166,-7.645 12.789,-11.375 19.532,-13.919Zm27.755,1.341c0.174,0.033 0.341,0.165 0.549,0.391c0.287,0.312 1.586,2.443 1.586,2.443l-1.109,0.561c-1.347,-2.166 -1.346,-1.119 -1.856,0.727l-1.293,0.593c-0.16,0.032 0.522,-3.823 1.527,-4.518c0.24,-0.166 0.422,-0.23 0.596,-0.197Zm-58.729,2.246l5.682,0.085l-2.362,4.8l-5.734,-0.036l2.414,-4.849Zm1.784,0.07l-2.384,1.914c-0.05,0.04 1.744,2.51 1.744,2.51l2.585,-2.166l-1.945,-2.258Zm21.921,0.096l-0.594,3.499l3.116,0.65l0.793,-3.261l-3.315,-0.888Zm-4.376,2.635l-0.59,3.985l2.931,0.604l0.848,-3.353l-3.189,-1.236Zm-60.515,0.044c0,0 0.1,47.212 0.237,70.011l10.781,-11.123l-0.041,-47.856l-10.977,-11.032Zm0.914,1.301l6.437,6.472l0,49.816l-6.437,6.486l-0,-62.774Zm37.387,1.556l5.778,0.047l-2.111,3.903l-5.979,-0.094l2.312,-3.856Zm2.129,0.284l-2.826,1.087l1.829,2.212l2.566,-1.487l-1.569,-1.812Zm33.928,0.607l2.088,6.615l-1.719,0.374l-2.271,-6.357l1.902,-0.632Zm-14.895,0.636l-3.498,0.085l0.255,3.49l3.355,-0.17l-0.112,-3.405Zm12.386,0.254l1.965,6.418l-1.695,0.665l-2.205,-6.144l1.935,-0.939Zm-2.589,1.312l2.121,6.001c-5.2,2.435 -6.591,4.874 -8.434,6.864c-1.191,-1.282 -2.603,-2.032 -4.463,-2.277c2.973,-4.69 6.603,-8.358 10.776,-10.588Zm-34.025,1.696l6.274,0.024l-4.082,6.057l-6.87,0.015l4.678,-6.096Zm17.561,0.127l-0.455,3.4l3.155,1.605l0.412,-3.978l-3.112,-1.027Zm-3.914,0.208l-2.265,2.576l2.358,2.619l2.388,-2.657l-2.481,-2.538Zm-4.784,0.183l-2.507,2.471l1.976,2.603l2.419,-2.529l-1.888,-2.545Zm-35.564,0.805l1.873,1.94l0,47.335l-9.492,10.027l0,-2.754l7.621,-7.905l-0.002,-48.643Zm26.886,0.054l-2.378,3.536l3.521,0.07l2.259,-3.551l-3.402,-0.055Zm-15.959,23.965c-1.302,2.94 -3.044,6.684 -5.864,7.874c2.099,4.194 1.827,8.386 0.337,10.685c2.13,1.994 4.316,4.381 5.673,7.815c6.728,-5.974 7.81,-18.245 -0.146,-26.374Zm0.163,0.556c5.305,5.626 7.628,17.517 0.039,24.67l-0.464,-1.147c5.993,-7.375 4.143,-17.056 -0.197,-22.223l0.622,-1.3Zm-1.367,3.364c0.068,-0.01 0.132,-0.009 0.19,0.007c0.392,0.083 0.564,0.641 0.18,1.371c-0.24,0.689 -0.8,1.269 -1.267,1.213c-0.57,-0.075 -0.47,-1.382 0.219,-2.153c0.24,-0.269 0.476,-0.405 0.678,-0.435l0,-0.003Zm1.587,0.774c0.247,-0.021 0.53,0.383 0.994,1.352c0.498,1.039 0.703,1.703 0.351,1.727c-0.827,-0.187 -1.602,-0.483 -2.177,-1.163c-0.338,-0.4 0.108,-1.175 0.59,-1.757c0.08,-0.097 0.159,-0.152 0.242,-0.159Zm-3.657,1.771c1.124,0.474 3.598,9.731 0.227,13.484l-1.775,-1.497c0.98,-2.564 1.623,-5.82 -0.346,-10.491c0.219,-0.014 1.494,-1.28 1.894,-1.496Zm2.341,0.974c0.684,0.011 1.796,0.439 2.104,0.927c0.338,0.536 -0.641,2.132 -1.346,2.554c-0.251,0.195 -0.461,0.111 -0.534,0.046c-0.408,-0.296 -0.965,-3.097 -0.72,-3.385c0.088,-0.103 0.268,-0.145 0.496,-0.142l0,0Zm-6.096,0.841l-0.722,0.216l1.365,4.561l-1.242,4.425l0.726,0.203l1.3,-4.634l-1.427,-4.771Zm9.188,1.034c0.323,-0.046 0.508,0.442 0.585,1.57c0.045,0.662 0.094,1.176 -0.104,1.205c-0.155,0.022 -0.637,-0.301 -1.093,-0.573c-0.794,-0.474 -0.812,-0.682 -0.129,-1.565c0.302,-0.39 0.546,-0.609 0.741,-0.637Zm-2.55,2.153c0.614,0.042 1.88,0.435 2.092,1.224c0.358,0.674 -1.07,1.749 -1.907,1.731c-0.155,0 -0.29,-0.039 -0.388,-0.119l-0.131,-2.762c-0,-0.063 0.129,-0.088 0.334,-0.074l-0,0Zm21.859,1.095c-4.733,-0.027 -7.245,1.21 -6.345,3.445c0.577,0.581 0.183,0.801 -0.065,1.15c-1.001,1.029 -0.443,1.778 0.168,2.917c0,0 -7.841,14.088 -11.758,21.107l69.174,0.178l-2.723,-5.158l0.47,-0.322c-0.741,-1.242 -1.372,-2.64 -2.13,-3.872l-0.546,0.063c-0.895,-1.724 -1.257,-2.362 -2.428,-4.404l0.528,-0c-0.272,-0.908 -0.97,-1.512 -0.984,-2.163c-0.008,-0.811 0.201,-1.634 -0.294,-2.183c-0.587,-0.65 -0.658,-0.83 -0.537,-1.21c0.32,-1.012 -0.591,-2.132 -1.516,-2.031c-6.519,0.876 -13.147,0.081 -19.802,-1.886c-6.691,-1.977 -12.531,-5.02 -19.052,-5.544c-0.763,-0.057 -1.484,-0.086 -2.16,-0.09l-0,0.003Zm-0.871,0.338c8.703,-0.201 14.675,3.534 22.026,5.714c7.014,2.08 12.125,2.732 19.981,1.917c0.969,0.081 0.956,0.656 0.964,1.22c-8.426,1.13 -16.175,0.287 -24.737,-2.968c-8.289,-3.13 -17.415,-6.254 -23.405,-3.452c0,-0 -0.037,-1.192 0.648,-1.53c-0,-0 0.632,-0.515 2.745,-0.807c0.606,-0.05 1.198,-0.081 1.778,-0.094Zm-18.072,0.63c0.322,0 0.351,0.613 0.193,1.848c-0.125,0.975 -0.298,1.617 -0.562,1.615c-0.233,-0 -0.599,-0.569 -1.048,-1.31c-0.35,-0.578 -0.278,-0.796 0.497,-1.499c0.429,-0.435 0.727,-0.654 0.92,-0.654Zm-3.075,1.599c0.241,-0.016 1.924,1.414 1.755,2.153c-0.343,0.936 -1.515,0.737 -2.233,0.706l0.45,-2.835c-0,-0.015 0.012,-0.023 0.028,-0.024l-0,0Zm21.162,0.616c0.283,-0.008 0.57,-0.008 0.862,-0c5.129,0.129 11.418,2.323 16.146,4.078c11.053,4.103 19.655,3.865 25.801,3.396c0.541,0.107 0.971,1.526 0.104,1.536c-11.492,0.127 -9.635,1.569 -27.5,-3.702c-6.944,-2.049 -12.505,-5.242 -20.532,-2.397l-0.039,-1.571c1.397,-0.902 3.173,-1.296 5.157,-1.342l0.001,0.002Zm-18.876,2.545c0.298,0.027 0.242,0.324 -0.01,1.026c-0.275,0.765 -0.52,1.14 -0.786,1.146c-0.207,0.008 -0.424,-0.213 -0.678,-0.649c-0.489,-0.839 -0.424,-1 0.524,-1.307c0.466,-0.151 0.772,-0.232 0.95,-0.216l0,0Zm-3.151,0.778c-0,-0 0.887,0.82 1.337,1.626c0.303,0.783 -0.608,0.995 -1.495,1.07l-0.847,-1.089l1.005,-1.607Zm23.483,0.363c1.561,-0.021 3.222,0.102 4.871,0.761l-3.767,1.286l-2.625,-1.993c0.493,-0.024 1.001,-0.047 1.521,-0.054l0,-0Zm-3.943,0.796c2.95,-0.129 5.02,2.134 4.935,2.237c4.17,-2.42 7.867,-1.909 10.991,2.156c0.813,-0.453 6.63,-1.519 10.829,3.115c4.236,-2.138 8.175,-1.241 11.675,1.149c2.587,-2.455 5.313,-2.843 8.146,-1.663l0.839,1.695c-0.212,0.08 -1.126,-1.701 -5.559,-0.871c-1.489,0.279 -4.049,2.794 -2.615,4.021c0.657,0.934 0.676,1.356 0.096,1.922c-0.571,0.558 -1.544,0.269 -1.873,-0.29c-0.228,-0.403 -0.129,-0.963 0.237,-1.419c1.557,-1.944 -3.336,-5.321 -6.857,-4.734c-2.68,0.447 -4.964,2.065 -3.979,3.297c0.803,1.002 0.278,2.017 -0.686,2.01c-0.991,-0.008 -1.787,-0.799 -0.928,-1.886c1.912,-2.416 -1.004,-5.252 -5.462,-5.31c-3.153,-0.042 -4.202,0.739 -4.032,2.997c0.08,1.058 -0.127,1.351 -0.859,1.511c-1.169,0.256 -1.76,-1.091 -0.79,-2.119c2.093,-2.22 -0.286,-5.482 -4.245,-5.693c-1.449,-0.077 -1.734,-0.001 -3.351,0.917c-1.263,0.717 -1.709,1.801 -1.09,2.642c0.797,1.083 -0.277,2.378 -1.517,1.845c-0.886,-0.381 -1.323,-1.065 -0.343,-2.224c1.288,-1.522 0.646,-2.688 -1.802,-3.625c-1.551,-0.594 -2.632,-0.544 -3.529,-0.16c-0.565,0.241 -1.057,0.616 -1.546,1.044c0.608,-1.056 1.148,-2.036 1.148,-2.036c0.759,-0.341 1.486,-0.498 2.167,-0.528Zm14.05,1.176c1.713,0.54 3.378,1.141 4.927,1.887l-2.646,0.545l-2.281,-2.432Zm-14.399,0.927c0.171,-0.008 0.347,-0.008 0.524,0.008c0.852,0.054 1.75,0.336 2.42,0.996c-2.749,-0.37 -3.723,3.287 -0.364,4.1c-4.428,3.31 3.878,8.265 3.977,1.418c3.905,0.692 3.398,-4.499 0.921,-4.902c1.267,-1.405 4.993,-1.444 6.941,1.518c-3.313,-1.731 -5.106,2.735 -1.665,3.985c-4.247,3.746 4.071,7.199 3.876,1.146c3.135,1.869 5.29,-2.894 1.105,-3.625c0.239,-0.857 5.719,-0.864 7.11,1.352c-3.886,-0.892 -4.065,3.866 -0.636,4.253c-3.442,4.393 5.296,6.615 3.829,0.62c3.376,1.343 4.652,-2.889 1.364,-4.249c-0.183,-0.673 5.324,-1.246 7.251,1.183c-4.232,0.639 -2.75,4.764 -0.009,4.434c0,0 -0.039,0.118 -0.194,0.519c-1.294,4.14 5.664,4.487 4.7,0.097c-0.155,-0.404 -0.324,-0.944 -0.324,-0.944c1.918,0.393 3.09,-0.393 2.952,-2.203c-0.478,-2.403 -1.74,-2.224 -3.355,-1.745c-0.678,-0.712 3.895,-3.092 6.767,-0.967c-3.517,1.016 -1.736,5.16 1.206,4.601c0.122,1.323 1.552,3.177 3.416,2.272l1.973,3.901l-66.814,-0.007l5.724,-9.936c3.059,0.558 3.777,-2.03 3.824,-2.394c3.973,1.025 3.363,-4.157 1.37,-4.507c-0.07,-0.411 0.913,-0.876 2.111,-0.925l0,0.001Zm-18.044,0.02c0.309,-0.029 0.612,0.015 0.49,0.172l-0.571,0.713l-0.446,-0.62c-0.096,-0.134 0.218,-0.236 0.527,-0.265Zm13.996,2.166c0.443,0.497 0.571,1.553 -0.766,1.582l0.766,-1.582Zm29.651,0.775l3.606,0.761l-1.891,0.914l-1.715,-1.675Zm11.155,1.464l3.658,0.021l-1.615,1.27l-2.043,-1.291Zm11.758,3.772c0.031,-0.015 0.08,0.024 0.148,0.144c0.144,0.254 0.895,1.388 0.86,1.422c-0.35,0.03 -0.697,-0.333 -0.852,-0.62c-0.186,-0.361 -0.252,-0.901 -0.158,-0.946l0.002,-0Z" style="fill:#0f0f0f;fill-rule:nonzero;"/><path id="path12536" d="M130.52,184.893c4.149,6.852 8.514,13.511 13.968,19.2c-5.454,5.689 -9.819,12.348 -13.968,19.2c-4.149,-6.852 -8.514,-13.511 -13.969,-19.2c5.455,-5.689 9.82,-12.348 13.969,-19.2Z" style="fill:#3f3f3f;fill-rule:nonzero;"/><path id="path12538" d="M164.472,193.47c1.729,2.855 3.547,5.63 5.82,8c-2.273,2.37 -4.091,5.145 -5.82,8c-1.729,-2.855 -3.548,-5.63 -5.82,-8c2.272,-2.37 4.091,-5.145 5.82,-8Z" style="fill:#3f3f3f;fill-rule:nonzero;"/><path id="path12540" d="M48.063,64.546c4.149,-6.852 8.514,-13.511 13.969,-19.2c-5.455,-5.688 -9.82,-12.348 -13.969,-19.2c-4.149,6.852 -8.514,13.512 -13.969,19.2c5.455,5.689 9.82,12.348 13.969,19.2Z" style="fill:#3f3f3f;fill-rule:nonzero;"/><path id="path12542" d="M14.11,55.978c1.729,-2.854 3.548,-5.629 5.821,-8c-2.273,-2.37 -4.092,-5.145 -5.821,-8c-1.729,2.855 -3.547,5.63 -5.82,8c2.273,2.371 4.091,5.146 5.82,8Z" style="fill:#3f3f3f;fill-rule:nonzero;"/><path id="path12544" d="M163.834,214.887l-2.656,-0l3.902,9.748l2.98,-4.118l-0.02,-5.63l-2.094,-0l0,-2.904l7.377,0l0,2.904l-2.43,-0l-0,20.963l2.43,-0.009l0,2.538l-7.485,-0l0,-2.624l2.066,-0l0.044,-10.218l-6.534,10.304l2.306,-0l0,2.538l-7.963,-0l0,-2.538l2.101,-0l5.38,-8.42l-5.267,-12.539l-2.338,0l-0.012,-2.903l8.188,-0l0.025,2.907l-0,0.001Z" style="fill:#3f3f3f;fill-rule:nonzero;"/><path id="path12546" d="M14.748,34.562l2.656,0l-3.901,-9.748l-2.981,4.118l0.021,5.63l2.093,0l-0,2.904l-7.377,-0l-0,-2.904l2.43,0l0,-20.963l-2.43,0.009l-0,-2.538l7.485,0l-0,2.624l-2.066,0l-0.044,10.217l6.534,-10.303l-2.306,0l-0,-2.538l7.963,0l0,2.538l-2.101,0l-5.38,8.42l5.268,12.538l2.337,0l0.012,2.904l-8.188,0l-0.025,-2.908l0,0Z" style="fill:#3f3f3f;fill-rule:nonzero;"/></g></svg>