<?xml version="1.0" encoding="UTF-8" standalone="no"?><!DOCTYPE svg PUBLIC "-//W3C//DTD SVG 1.1//EN" "http://www.w3.org/Graphics/SVG/1.1/DTD/svg11.dtd"><svg width="100%" height="100%" viewBox="0 0 179 250" version="1.1" xmlns="http://www.w3.org/2000/svg" xmlns:xlink="http://www.w3.org/1999/xlink" xml:space="preserve" xmlns:serif="http://www.serif.com/" style="fill-rule:evenodd;clip-rule:evenodd;stroke-linejoin:round;stroke-miterlimit:2;"><g id="g4942"><path id="rect6355-6-85-3-5-0-1" d="M178.583,7.972c-0,-4.4 -3.573,-7.972 -7.973,-7.972l-162.638,0c-4.4,0 -7.972,3.572 -7.972,7.972l0,233.504c0,4.4 3.572,7.973 7.972,7.973l162.638,-0c4.4,-0 7.973,-3.573 7.973,-7.973l-0,-233.504Z" style="fill:#fff;"/><path id="path147-6-9-8-7-0-5-6-46-4-5" d="M164.811,209.47c3.141,-0.071 4.55,-3.751 2.224,-6.609c-0.338,-0.416 -0.373,-0.656 0.245,-0.255c1.567,1.09 4.571,0.373 4.725,-2.959c0.19,-4.105 -5.324,-5.288 -6.36,-0.923c-0.054,0.461 -0.414,0.45 -0.327,-0.203c0.094,-1.775 0.627,-3.433 1.359,-5.051l-3.735,0c0.732,1.618 1.265,3.276 1.359,5.051c0.087,0.653 -0.273,0.664 -0.327,0.203c-1.036,-4.365 -6.55,-3.182 -6.36,0.923c0.154,3.332 3.158,4.049 4.725,2.959c0.618,-0.401 0.583,-0.161 0.246,0.255c-2.327,2.858 -0.919,6.538 2.223,6.609c0,0 0,0 0,0l0.003,0Z" style="fill-rule:nonzero;"/><path id="path147-6-9-8-7-4-5-62-9-4-5" d="M13.773,39.979c-3.142,0.07 -4.551,3.751 -2.224,6.608c0.337,0.417 0.372,0.657 -0.246,0.256c-1.567,-1.09 -4.57,-0.373 -4.724,2.959c-0.19,4.105 5.324,5.288 6.359,0.923c0.054,-0.461 0.414,-0.451 0.328,0.203c-0.095,1.775 -0.627,3.433 -1.36,5.051l3.735,-0c-0.732,-1.618 -1.265,-3.276 -1.359,-5.051c-0.087,-0.654 0.273,-0.664 0.328,-0.203c1.035,4.365 6.549,3.182 6.359,-0.923c-0.154,-3.332 -3.158,-4.049 -4.724,-2.959c-0.619,0.401 -0.584,0.161 -0.246,-0.256c2.327,-2.857 0.918,-6.537 -2.224,-6.608c-0.001,-0 0,-0 0,-0l-0.002,-0Z" style="fill-rule:nonzero;"/><path id="path37-5-2-4" d="M7.958,28.734l-2.206,0l-0,-3.007l2.206,-0c-0,-0 0.017,-1.621 0.08,-4.48c0.137,-6.094 0.289,-7.04 2.053,-8.717c3.484,-3.314 9.318,-0.614 9.249,4.371c-0.101,7.034 -0.028,13.741 -0.234,14.691c-0.365,1.673 -0.402,1.768 -0.253,2.073c0.306,0.614 2.941,0.88 2.941,0.709l-0,2.962c-2.013,0.156 -2.849,-0.032 -4.46,-1.183c-1.005,0.971 -4.066,1.945 -6.5,0.799c-1.852,-0.872 -3.255,-3.123 -2.876,-8.218Zm7.457,5.251c-1.094,-1.58 -2.934,-3.736 -4.665,-4.502c-0.108,1.817 0.049,3.34 0.687,4.159c1.017,1.305 2.659,1.603 3.978,0.343Zm0.907,-17.375c-0.812,-2.299 -2.896,-3.078 -4.42,-1.64c-0.952,0.895 -1.104,1.836 -1.125,6.952c-0.012,3.155 -0.012,4.481 -0.012,4.481c2.965,0.962 5.737,4.419 5.714,4.374l0.072,-9.542c0.058,-1.549 -0.019,-3.099 -0.228,-4.625l-0.001,-0Z" style="fill-rule:nonzero;"/><path id="path37-3-2-7-4" d="M170.623,220.714l2.207,0l-0,3.008l-2.207,0c0,0 -0.017,1.621 -0.08,4.48c-0.137,6.094 -0.289,7.04 -2.053,8.717c-3.484,3.314 -9.318,0.614 -9.249,-4.371c0.101,-7.034 0.028,-13.741 0.234,-14.691c0.365,-1.673 0.402,-1.768 0.253,-2.073c-0.306,-0.614 -2.941,-0.88 -2.941,-0.709l0,-2.962c2.013,-0.156 2.849,0.033 4.46,1.182c1.005,-0.97 4.066,-1.944 6.5,-0.798c1.852,0.872 3.255,3.123 2.876,8.217Zm-7.457,-5.25c1.094,1.58 2.934,3.736 4.665,4.501c0.108,-1.816 -0.049,-3.339 -0.687,-4.158c-1.017,-1.305 -2.659,-1.603 -3.978,-0.343Zm-0.907,17.375c0.812,2.299 2.896,3.078 4.42,1.64c0.952,-0.895 1.104,-1.837 1.125,-6.952c0.012,-3.155 0.012,-4.482 0.012,-4.482c-2.965,-0.961 -5.737,-4.418 -5.714,-4.373l-0.072,9.542c-0.058,1.549 0.019,3.099 0.228,4.625l0.001,0Z" style="fill-rule:nonzero;"/><g id="g5457-6-3-6"><g id="g3405-1-0-4"><path id="path3391-4-8-9-0" d="M95.578,228.761c0.442,-6.53 0.062,-13.541 0.359,-18.856c-0.201,-0.374 0.525,-1.406 0.563,-1.406c-0.431,-0.789 -0.577,-2.812 -0.032,-4.607c4.263,-16.285 11.982,-28.958 19.933,-40.777c6.466,19.532 -13.837,33.235 -18.106,50.301c-1.424,5.91 -1.211,10.037 -1.757,15.375l-0.96,-0.03Zm-33.756,0.248l-24.152,-37.412l5.245,-2.56l24.826,39.841l-5.919,0.131Zm31.241,-69.307c0.214,1.074 1.056,1.651 1.951,1.16c0.876,-0.482 0.977,-0.514 0.432,0.333c-1.204,1.87 1.234,3.679 2.799,2.075c0.556,-0.57 0.649,-1.498 0.144,-1.969c-0.57,-0.533 -0.695,-0.808 0.147,-0.403c2.113,0.858 3.277,-2.207 1.23,-3.238c-0.528,-0.266 -1.557,-0.03 -1.944,0.374c-0.467,0.489 -0.533,0.317 -0.408,-0.062c0.073,-0.224 0.126,-0.588 0.302,-1.022c0.138,-0.34 0.237,-0.804 0.237,-0.804l-2.159,0.023c-0,-0 0.174,0.496 0.351,0.913c0.166,0.393 0.229,0.687 0.31,0.85c0.291,0.588 -0.059,0.371 -0.642,-0.064c-0.824,-0.615 -1.858,-0.443 -2.446,0.366c-0.216,0.476 -0.398,0.971 -0.304,1.468Zm3.118,-30.437l4.643,-0.138c1.336,4.928 2.888,9.728 5.106,14.128c-4.086,6.802 -5.188,14.475 -0.434,22.252l-14.723,0.023c3.979,-11.818 5.257,-24.389 5.408,-36.265Zm4.855,18.383c0.623,-0.559 0.703,-1.572 0.135,-2.248c-0.714,-0.849 -0.55,-0.893 0.408,-0.338c1.381,0.801 2.703,-0.931 1.888,-2.462c-0.518,-0.972 -2.193,-1.188 -2.833,-0.323c-0.534,0.721 -0.475,0.061 -0.064,-0.897c0.151,-0.352 0.367,-1.014 0.367,-1.014l-2.249,0.047c-0,-0 0.29,0.638 0.445,1.049c0.411,1.088 0.427,1.433 -0.206,0.733c-1.373,-1.158 -2.984,-0.319 -2.999,1.343c0.015,1.277 1.169,2.097 2.18,1.5c0.615,-0.363 0.89,-0.449 0.198,0.384c-0.477,0.794 -0.306,1.806 0.324,2.281c0.864,0.523 1.788,0.494 2.406,-0.055Zm-31.103,4.402c0.181,-0.133 0.248,-0.046 0.137,0.134c-0.095,0.154 -0.337,0.372 -0.544,0.603c-1.05,1.171 0.308,2.66 2.001,2.429c1.152,-0.157 1.828,-1.974 0.977,-2.691c-0.276,-0.185 -0.492,-0.22 -0.701,-0.473c-0.017,-0.101 0.03,-0.169 0.132,-0.129c0.151,0.063 0.457,0.311 0.612,0.354c1.071,0.291 1.879,-0.153 2.151,-0.911c0.172,-0.876 0.007,-1.818 -0.708,-2.31c-0.664,-0.446 -1.645,-0.318 -2.218,0.444c-0.586,0.78 -0.666,0.038 -0.187,-1.039c0.179,-0.403 0.303,-0.977 0.303,-0.977l-2.069,0.11c0,-0 0.11,0.446 0.292,0.959c0.46,1.172 0.789,1.508 0.202,0.902c-2.527,-1.492 -3.366,0.537 -3.407,1.344c-0.078,1.52 2.128,2.381 3.027,1.251Zm10.115,-22.913l3.733,0.012c-2.815,15.005 -8.582,27.573 -18.285,36.222l-18.26,-0.056l-8.799,-6.169l3.398,-4.425c23.182,2.395 33.054,-9.13 38.213,-25.584Zm-16.8,34.782c1.093,-0.483 1.547,-1.723 0.825,-2.556c-0.654,-0.753 -0.721,-0.988 0.283,-0.401c1.343,0.784 2.642,-0.782 1.983,-2.314c-0.41,-0.954 -1.702,-1.249 -2.631,-0.601c-0.817,0.612 -0.802,0.338 -0.375,-0.627c0.211,-0.478 0.374,-1.243 0.374,-1.243l-2.288,0.032c0,-0 0.165,0.545 0.332,0.92c0.382,0.858 0.52,1.252 0.343,1.254c-0.086,0.001 -0.369,-0.261 -0.534,-0.413c-0.456,-0.42 -1.701,-0.499 -2.163,-0.056c-1.37,1.309 -0.599,3.601 1.143,3.178c1.125,-0.273 1.383,-0.702 0.451,0.359c-1.149,1.307 0.63,3.188 2.257,2.468Zm-14.432,-0.455c0.946,-0.447 1.263,-1.541 0.733,-2.247c-0.533,-0.711 -0.796,-1.169 0.152,-0.529c1.26,0.636 2.362,-0.209 2.346,-1.646c-0.017,-1.506 -1.703,-2.208 -2.943,-1.301c-0.21,0.153 -0.468,0.291 -0.514,0.291c-0.151,0.002 0.124,-0.812 0.426,-1.345c0.131,-0.232 0.361,-0.703 0.361,-0.703l-2.288,-0.088c-0,0 0.128,0.625 0.307,1.106c0.365,0.977 0.454,1.302 -0.185,0.748c-1.72,-1.613 -3.556,0.441 -2.832,2.213c0.384,0.998 1.558,0.998 2.251,0.499c0.629,-0.488 0.307,0.16 -0.124,0.675c-1.175,1.407 0.548,3.153 2.31,2.327Zm104.486,-37.619l0.12,2.776l-29.566,24.706l-1.24,-1.904l30.686,-25.578Zm-109.969,5.196c4.257,-3.037 8.992,-8.491 13.666,-11.333c3.414,7.869 -4.594,15.584 -13.666,11.333Zm77.728,-1.445c-3.008,-16.634 14.815,-13.168 13.875,-11.684l-13.875,11.684Zm-95.712,-10.175l29.269,-23.926l1.33,2.011l-30.878,25.365l0.279,-3.45Zm80.178,-24.135c0.082,0.25 0.968,1.203 0.969,1.29c-0.253,-0.189 -1.756,-1.034 -2.49,-0.213c-0.256,0.301 -0.582,1.019 -0.547,1.764c0.307,1.332 1.82,1.803 2.895,0.89c0.309,-0.263 0.575,-0.581 0.638,-0.469c0.054,0.097 -0.114,0.556 -0.252,0.918c-0.159,0.373 -0.749,1.156 -0.321,1.155l2.079,-0.004c-0,0 -0.077,-0.488 -0.326,-1.028c-0.465,-1.01 -0.445,-1.558 0.116,-0.831c1.092,1.416 3.208,0.236 2.987,-1.462c-0.16,-1.226 -1.397,-1.927 -2.308,-1.343c-0.099,0.064 -0.391,0.355 -0.433,0.357c-0.111,0.005 0.193,-0.463 0.395,-0.851c0.671,-1.289 -0.33,-2.482 -1.862,-2.354c-0.495,0.041 -1.036,0.354 -1.039,0.398c-0.576,0.466 -0.67,1.27 -0.501,1.783Zm25.27,-12.003c2.928,2.701 5.857,4.681 8.785,6.41l-2.763,4.375c-18.729,-1.739 -32.348,5.686 -38.031,25.814l-2.899,-0.063c1.161,-12.556 5.169,-24.349 17.575,-36.516l17.333,-0.02Zm-17.949,3.004c0.005,0.596 1.096,1.304 0.853,1.468c-0.111,0.059 -0.761,-0.507 -1.059,-0.539c-2.162,-0.231 -2.61,3.141 -0.468,3.519c0.422,0.074 1.292,-0.188 1.55,-0.401c0.343,-0.282 0.581,-0.515 0.651,-0.489c0.132,0.048 -0.167,0.649 -0.403,1.094c-0.218,0.414 -0.523,1.276 -0.523,1.276l2.458,0.011c0,0 -0.222,-0.756 -0.444,-1.292c-0.282,-0.686 -0.342,-1.121 -0.152,-1.075c0.082,0.02 0.174,0.234 0.346,0.382c1.065,0.917 2.628,0.525 3.038,-0.907c0.386,-1.346 -1.221,-2.732 -2.34,-1.979c-0.391,0.264 -0.391,0.066 -0.001,-0.524c0.356,-0.54 0.269,-1.356 -0.054,-1.842c-1.175,-1.25 -3.505,-0.356 -3.452,1.298Zm17.652,3.993c-0.059,-0.3 0.017,-0.215 0.332,0.114c0.985,1.029 2.683,0.869 3.115,-0.494c0.431,-1.361 -0.886,-2.919 -2.035,-2.384c-0.597,0.278 -0.607,0.18 -0.266,-0.266c0.881,-1.148 -0.09,-2.662 -1.601,-2.645c-1.38,0.015 -2.194,1.348 -1.522,2.492c0.275,0.469 0.186,0.569 -0.298,0.333c-1.412,-0.687 -2.73,1.554 -1.695,2.884c0.608,0.781 2.015,0.863 2.82,0.087c0.429,-0.412 0.425,-0.215 0.114,0.639c-0.271,0.744 -0.571,1.346 -0.571,1.346l2.443,0.021c0,0 -0.653,-1.243 -0.836,-2.127Zm-52.328,30.108c0.711,-0.185 -2.51,-10.413 -4.87,-14.976c2.617,-6.076 6.089,-11.227 0.183,-22.007l15.03,-0.042c-4.404,12.232 -5.832,36.991 -5.833,36.984l-4.51,0.041Zm1.318,-11.848c0,-0 -0.742,-1.024 -0.787,-1.853c-0.09,-0.532 0.047,-0.564 0.323,-0.022c1.339,1.484 3.151,0.051 3.16,-1.263c0.153,-1.203 -1.249,-2.233 -2.15,-1.633c-0.631,0.421 -0.803,0.3 -0.24,-0.483c0.793,-1.103 -0.071,-2.538 -1.489,-2.523c-1.845,0.021 -2.551,1.749 -1.229,2.983c0.977,0.911 0.066,0.372 -0.709,0.047c-1.511,-0.635 -2.501,0.907 -1.823,2.464c0.467,1.074 1.84,1.354 2.645,0.485c0.442,-0.477 0.849,-0.756 0.61,-0.036c-0.125,0.583 -0.8,1.817 -0.8,1.817l2.489,0.017Zm2.327,-16.226c0,-0 -0.89,-1.119 -1.043,-1.961c-0.053,-0.31 0.166,-0.231 0.672,0.204c1.617,1.392 3.839,-1.104 2.332,-2.628c-0.518,-0.524 -1.045,-0.676 -1.65,-0.359c-0.755,0.395 -0.694,0.203 -0.317,-0.206c0.552,-0.599 0.511,-1.693 -0.084,-2.225c-1.644,-1.469 -4.246,0.72 -2.718,2.291c0.666,0.683 0.35,0.595 -0.382,0.156c-1.385,-0.831 -2.918,1.445 -1.877,2.781c1.232,1.045 2.156,0.531 3.009,-0.126c0.185,-0.098 0.345,-0.142 0.346,-0.061c0.002,0.151 -0.852,2.165 -0.852,2.165l2.564,-0.031Zm-19.78,-6.175c-4.359,-14.133 6.934,-27.822 13.839,-38.372c7.283,-10.469 6.378,-27.858 6.687,-27.164l1.034,0.12c-0,0 -0.8,10.194 -0.348,14.799c0.47,4.05 0.367,4.302 0.078,4.703c-0.076,0.378 0.037,1.481 -0.045,1.86c-2.015,8.777 -9.657,29.96 -21.245,44.054Zm74.956,-26.326l-24.597,-39.148l5.911,-0.275c2.193,3.485 23.561,36.714 23.561,36.714l-4.875,2.709Z" style="fill:#3f3f3f;fill-rule:nonzero;"/><path id="path3395-8-0-1-6" d="M35.714,229.703c2.797,-10.282 -4.781,-34.195 -9.517,-37.319c5.554,-0.236 12.234,-0.346 12.023,-0.656c0,0 23.618,37.248 23.425,37.445c-0.182,0.187 -25.931,0.53 -25.931,0.53Zm95.722,-58.333c-5.724,-0.816 -3.466,-5.58 0.214,-6.074c-0.48,0.08 0.394,-2.369 3.362,-3.359c0.674,-1.226 1.203,-3.319 1.82,-4.291c-1.779,0.58 -3.941,2.087 -12.024,0.899c0.704,-3.84 8.435,-4.495 11.223,-3.901c1.61,0.375 3.199,2.78 3.689,2.831c4.962,-0.829 11.276,3.672 9.366,8.242c-0.296,0.651 -1.051,-0.774 -2.722,-1.381c-5.399,-1.963 -5.777,-4.893 -7.019,-6.205c-0.451,-0.085 -2.839,4.653 -2.839,4.653l0.746,3.218c1.295,-0.119 7.05,3.447 -0.115,5.862c-1.981,6.847 -5.712,2.015 -5.701,-0.494Zm13.563,-30.574c-0.306,-0.311 0.241,-2.443 0.968,-3.669c0.392,-0.662 1.299,-1.107 1.831,-1.013c0.947,0.167 0.799,1.548 -0.456,5.591c-0.053,0.584 -1.334,0.645 -2.343,-0.909Zm-113.981,-28.316c-1.57,-0.006 -0.162,-4.289 0.804,-5.648c0.318,-0.422 1.571,0.477 1.636,1.098c0.115,1.111 -1.587,4.991 -2.44,4.55Zm-1.114,-29.121c1.917,0.464 4.943,2.399 6.389,3.461c1.798,1.345 1.307,3.987 2.745,4.221c0.972,-0.482 2.754,-4.807 2.754,-4.807c-0,-0 0.447,-2.223 -0.82,-2.907c-3.153,-1.703 -3.097,-3.543 -2.897,-3.706c0.936,-2.431 2.797,-1.998 3.803,-2.134c0.021,-1.33 -0.023,-4.139 2.724,-3.849c2.402,0.227 2.639,3.668 1.629,3.7c-0.02,-0.058 4.542,-0.656 4.497,2.361c-0.024,1.636 -2.73,3.729 -3.572,2.969c-0,0 0.452,3.261 -3.636,4.379c-0.955,0.974 -1.735,5.12 -1.735,4.752c2.465,-2.231 6.325,-2.754 12.415,-1.953c-3.773,7.014 -14.205,3.731 -15.02,2.374c-5.249,-1.588 -10.173,-3.655 -9.276,-8.861Zm44.936,-16.81l16.598,-0.208c-0.062,0.565 5.22,2.964 9.785,0.359c0.881,-0.503 18.552,-0.222 18.552,-0.222c4.009,5.939 11.293,16.733 11.293,16.733l-16.684,0.389c-14.158,11.512 -15.957,24.396 -19.378,37.1l6.166,0.063c9.914,-28.509 34.376,-28.391 49.765,-16.223l-15.833,12.919c-12.265,-6.204 -17.52,12.082 -13.799,12.128l31.883,-26.133c0,-0 0.546,2.133 0.491,2.205c-2.272,2.988 -40.283,33.925 -40.283,33.925l-1.669,-1.849l-2.166,1.838c0,-0 0.867,1.59 1.634,2.383c-7.53,6.059 -7.779,17.176 -2.228,23.244l-2.72,0.219c-1.006,1.282 -7.908,-12.961 -0.163,-22.126c-3.128,-6.151 -5.056,-14.52 -5.447,-14.908c0.083,0.986 -4.939,0.658 -4.939,0.658c-0.383,12.5 -1.684,24.758 -4.679,36.569l23.068,0.498l-9.82,17.088c-0,0 -11.019,-0.276 -15.767,-0.609c-4.956,-2.892 -7.814,-0.693 -12.466,0.377c-6.62,0.195 -16.364,-0.114 -16.364,-0.023c-3.305,-6.582 -6.857,-11.422 -11.684,-17.063c-0.613,-1.025 19.595,-0.392 19.595,-0.392c-0,0 10.101,-15.322 11.941,-19.649c1.436,-3.377 4.657,-15.673 4.657,-15.673c0.149,0.64 -1.834,-3.198 -6.454,-3.111c-3.819,25.461 -33.993,34.038 -52.15,17.651l-0.169,-2.961l40.011,-32.543l1.778,2.061c-0.382,-0.307 -24.563,19.87 -24.161,19.742c7.167,3.761 15.459,0.717 14.495,-11.63c5.678,-4.116 10.706,-8.911 15.649,-13.805c0.106,-0.191 5.516,12.17 5.383,14.549c3.111,-1.048 4.954,1.149 4.895,0.774c-1.119,-7.149 5.125,-34.254 5.244,-37.37c-3.468,-0.28 -8.066,-0.152 -15.277,-0.439c5.792,11.242 3.78,18.857 -4.317,25.783l-1.693,-2.134c0.688,0.384 11.826,-9.281 2.858,-23.722c-0.411,0.034 -4.727,-0.391 -4.727,-0.391l9.296,-16.071Zm42.992,-46.461c-0,0 25.252,-0.608 25.261,0.134c-0.806,13.604 2.356,26.013 9.988,37.49c-0,0 -11.185,-0.397 -10.981,-0.256l-24.268,-37.368Z" style="fill:#bdbdbd;fill-rule:nonzero;"/><path id="path3393-8-5-4-3" d="M23.691,19.124l-0,211.201l131.2,-0l-0,-211.201l-131.2,-0Zm118.865,0.918c-0.01,-0.012 -1.693,22.352 9.944,36.999c-7.108,-1.08 -11.177,0.011 -15.316,2.943l0.566,0.585c5.701,-3.512 10.537,-2.588 15.486,-2.041l-0,28.77c-0.036,1.397 -5.926,0.775 -9.56,-1.966c-2.415,-1.594 -4.111,-3.58 -5.661,-5.851c-0.333,-0.386 -2.407,-4.259 -6.212,-11.591c-1.935,-3.728 -4.493,-8.813 -6.57,-12.754c-1.345,-2.552 -3.845,-7.372 -4.021,-7.756c-0.368,-0.802 -3.09,-6.127 -4.15,-8.065c-2.798,-5.118 -7.318,-14.049 -8.93,-17.249c-0.356,-0.831 -0.899,-1.299 0.073,-1.272c0.215,0.006 0.431,-0.029 0.554,0c0.171,0.086 0.379,-0.161 0.379,-0.161l33.418,-0.591Zm-60.084,0.497l1.189,0.138c-0.048,2.385 -0.41,4.163 -0.501,7.337c-0.144,3.402 -0.088,5.988 0.273,9.31c0.178,1.632 0.284,2.69 0.011,2.902c-0.131,0.107 -0.249,0.671 -0.13,0.879c-0.018,0.453 -0.078,1.358 -0.078,1.358c-1.832,8.992 -11.656,32.051 -20.714,43.294c-0.153,0.057 -0.321,0.115 -0.505,0.173c-0.98,-4.381 -0.421,-10.234 0.734,-14.635c1.683,-6.109 4.827,-11.009 8.326,-15.933c7.997,-11.244 11.539,-19.719 11.396,-34.823l-0.001,-0Zm-56.97,0.189l56.176,0c0.314,7.731 -0.622,14.317 -3.39,21.204c-3.281,7.419 -8.373,12.933 -12.269,19.761c-4.704,8.244 -6.209,16.796 -4.607,25.397c-4.806,6.308 -8.855,9.335 -12.7,12.266c0,0 -2.881,-3.038 -4.482,-4.738c0,0 0.676,-0.056 1.466,-0.088c3.652,-0.411 7.604,-0.931 9.13,-4.742c0.217,-0.424 0.126,-0.612 -0.132,-0.67c-2.859,0.397 -5.344,-0.005 -6.966,0.11c-3.965,0.281 -5.64,1.658 -5.64,1.658c0.605,-1.299 1.222,-2.743 1.623,-3.921c1.802,0.019 2.689,-0.658 3.328,-1.474c0.913,-0.025 1.612,-0.021 2.856,-0.057c-0.04,-1.234 0.017,-2.979 0.017,-2.979c1.261,-1.302 2.116,-2.806 0.162,-5.107c-0,0 -0.079,-1.072 -0.108,-2.901c-0.901,-0.144 -2.92,-0.051 -2.92,-0.051c-1.633,-2.305 -4.529,-1.724 -5.408,-0.002c0,0 -1.302,0.073 -2.195,0.077c-0.018,0.487 -0.172,2.646 -0.172,2.646c-0,0 -3.807,2.603 0.142,5.671l-0.052,2.578c0.739,0.06 1.269,0.01 2.233,0.195c0,0 -1.511,3.518 -2.504,5.188c-0.34,0.089 -0.259,-0.106 -0.67,-1.273c-0.494,-1.375 -1.612,-2.878 -2.56,-3.618c-1.285,-0.994 -3.044,-1.302 -4.27,-2.166c-1.182,-0.832 -2.016,-1.907 -2.392,-1.707c-0.123,0.418 -0.26,2.821 0.185,4.364c0.627,2.539 4.27,4.156 7.313,5.371c0.234,0.152 0.442,0.382 0.443,0.465c0.007,0.42 -0.401,0.29 -1.4,0.191c-1.508,-0.151 -2.132,0.261 -2.661,1.553c-0.159,0.319 -0.534,0.868 -0.839,1.231c-0.305,0.364 -0.623,0.719 -0.668,0.873c-0.045,0.155 -0.357,0.938 -0.668,1.593c-0.191,0.404 -0.51,0.827 -0.533,1.423c-0.071,1.819 -0.097,4.264 0.175,5.805c0.201,1.131 1.627,1.781 2.118,1.873c0.754,0.141 0.89,0.907 0.772,1.534c-0.581,3.093 -2.356,4.987 -2.925,3.971c-0.15,-0.267 -0.308,-1.531 -0.35,-1.515c-0.027,0.01 -0.298,1.075 -0.194,1.508c0.111,0.466 0.705,0.808 1.29,0.595c0.868,-0.315 1.552,-1.178 2.091,-3.14c0.22,-0.803 0.428,-1.25 0.803,-1.308c0.686,0.047 1.757,1.463 1.757,1.463c-3.563,2.977 -10.403,8.383 -10.403,8.383l-0.002,-97.49Zm118.342,0l9.392,0l-0,35.59c-6.912,-9.742 -10.486,-20.932 -9.392,-35.59Zm-44.247,0.024c0.225,0.006 0.447,0.023 0.65,0.032c1.475,2.78 5.074,5.465 5.06,5.452c0,0 0.09,1.209 -0.041,1.423c-0.076,0.372 -5.716,-4.302 -6.343,-6.875c0.218,-0.033 0.448,-0.038 0.673,-0.032l0.001,-0Zm-15.048,0.001c0.37,0.006 1.032,-0.008 1.213,0c0.244,0.386 -0.725,2.847 -1.324,3.244c-0.567,0.375 -0.608,-0.062 -0.198,-2.237c0.064,-0.344 0.102,-0.878 0.309,-1.007Zm2.622,0c0.491,0.02 0.573,-0.008 1.063,0c0.238,0.6 -1.115,3.45 -2.794,5.601c-0.871,1.115 -1.309,1.439 -1.58,1.172c-0.229,-0.507 -0.224,-1.099 0.578,-2.026c0.661,-0.765 1.786,-2.552 2.25,-3.553c0.124,-0.365 0.252,-1.013 0.483,-1.194Zm2.305,0c0.445,0.009 0.687,-0.009 0.951,0c0.377,1.531 -3.107,7.822 -5.65,9.513c-0.904,0.6 -0.963,0.442 -0.891,-0.566c0.049,-0.677 0.114,-0.623 1.042,-1.511c1.325,-1.268 2.771,-3.225 3.567,-4.96c0.817,-1.781 0.834,-2.348 0.981,-2.476Zm11.894,0c0.546,0.003 0.894,-0.003 1.287,0c0.696,0.708 1.832,1.722 2.078,2.531c0.151,0.496 0.261,1.065 0.154,1.333c-0.607,0.38 -3.636,-3.453 -3.519,-3.864Zm4.892,0c0.086,0.002 0.164,0.006 0.236,0c1.252,1.475 2.068,3.94 3.14,5.78c0.136,0.234 1.112,1.765 0.314,1.189c-0.327,-0.269 -0.921,-0.948 -1.868,-2.027c-2.24,-2.549 -2.307,-2.391 -2.263,-3.025c0.018,-0.667 -0.364,-1.709 0.159,-1.901c0.102,-0.016 0.196,-0.017 0.282,-0.016l0,0Zm-14.861,0.031c0.448,-0.015 0.859,0 1.305,0c0.116,0.2 -0.039,0.887 -0.147,1.289c-1.149,3.26 -4.005,7.951 -7.359,10.616c-1.304,1.008 -1.526,1.001 -1.621,-0.04c-0.055,-0.605 0.223,-0.782 0.836,-1.208c2.845,-1.978 5.402,-5.411 6.484,-8.917c0.211,-0.683 0.131,-1.532 0.502,-1.74l-0,0Zm3.028,0c0.255,-0.009 0.76,0.014 0.999,0c1.325,2.44 4.057,8.179 10.48,10.416c0.461,0.101 0.954,1.419 0.6,1.781c-3.522,-1.023 -9.91,-4.715 -12.079,-12.197Zm2.279,0l1.149,0c1.615,3.302 4.655,6.538 7.767,8.13c0.453,0.258 0.24,0.906 0.392,1.36c-3.495,-0.52 -8.081,-5.866 -9.308,-9.49Zm-3.004,0.513c-0.209,0.036 3.046,9.583 12.296,12.385c0.802,0.252 1.273,0.599 1.222,1.074c-0.065,0.6 -0.046,0.675 -0.938,0.227c-2.527,-1.324 -6.13,-1.943 -9.139,-0.41c-0.469,0.239 -0.946,0.891 -0.568,1.302c0.216,0.209 0.748,0.054 1.425,-0.21c3.502,-1.367 8.863,-0.563 9.81,1.585c0.672,1.525 0.786,2.649 0.419,2.837c-0.28,0.142 -0.756,-0.37 -1.594,-1.107c-2.665,-2.344 -5.851,-2.996 -8.384,-0.744c-0.548,0.488 -1.09,0.402 -1.281,0.603c-0.186,0.195 0.034,0.634 0.189,1.061c0.163,0.447 0.171,0.569 0.01,0.946c-0.222,0.517 -0.231,1.179 -0.206,1.671c0.059,1.201 0.851,2.235 3.131,3.818c1.261,0.876 2.174,1.105 2.174,1.105c0,0 -0.546,-0.425 -1.172,-0.933c-3.73,-3.03 -4.407,-4.264 -1.99,-3.214c2.414,0.973 5.763,-0.003 8.133,-1.816c0.807,-0.014 1.286,-0.155 1.711,0.155c1.768,4.162 3.213,9.7 5.564,15.069c-2.807,3.18 -12.579,10.967 -19.547,10.69c-6.016,-0.24 -8.139,-10.114 -9.47,-15.57c-0.447,-2.309 -0.959,-4.66 -0.897,-7.921c-0,-0 0.108,-0.088 0.263,-0.059c1.009,0.191 2.745,0.324 3.626,0.118c1.601,-0.375 1.922,-0.661 2.015,-0.425c0.111,0.279 -0.555,0.907 -1.72,1.706c-0.506,0.348 -2.009,1.23 -2.009,1.23c1.444,-0.494 2.559,-0.902 3.704,-1.722c0,-0 -0.525,2.371 -0.623,2.616c-0.952,2.367 -0.86,2.581 0.994,4.039c0.645,0.508 1.235,1.014 1.376,1.235c0.152,0.358 0.363,0.664 0.556,0.993c0,0 -0.09,-0.712 -0.241,-1.581c-0.216,-0.796 -0.995,-1.586 -1.547,-1.971c-1.012,-0.705 -0.854,-1.399 -0.016,-3.803c2.472,-7.09 1.842,-10.251 -0.88,-11.791c-1.227,-0.695 -4.664,-0.51 -5.747,0.398c-0.534,0.447 -0.461,-0.431 -0.376,-0.489c6.529,-4.5 8.061,-8.957 9.727,-13.097l-0,-0Zm12.602,3.636c1.854,1.844 4.161,4.349 5.551,6.131c0.762,0.949 1.164,1.923 1.771,2.921c0.115,0.181 0.229,0.388 0.147,0.472c-0.031,0.036 -0.296,-0.119 -0.443,-0.23c-1.358,-1.026 -6.965,-7.43 -6.965,-7.43c-0.259,-1.051 -0.44,-1.41 -0.061,-1.864l0,-0Zm0.707,4.122c0.117,-0.024 0.307,0.15 0.403,0.225c-0,-0 4.858,5.319 7.641,7.935c0.548,1.153 1.596,2.813 1.57,3.093c-0.011,0.124 -0.594,-0.327 -0.595,-0.327c-3.075,-2.842 -5.917,-6.035 -8.869,-9.061c0.028,0.016 -0.234,-1.253 -0.237,-1.765c0.016,-0.063 0.047,-0.093 0.087,-0.1Zm0.96,3.992c0.539,0.211 0.893,0.798 1.241,1.172c1.717,1.844 4.988,5.011 8.742,8.695c0.653,1.067 1.13,2.022 1.444,2.649c0.52,0.994 0.347,1.023 -0.111,0.656c-3.477,-2.853 -6.388,-6.328 -9.663,-9.511c-0.425,-0.439 -1.274,-1.414 -1.274,-1.414c0.03,0.036 -1.067,-2.293 -0.379,-2.247Zm-20.345,2.265c1.434,-0.043 2.845,0.328 3.558,1.209c0.648,0.803 0.911,2.073 0.552,2.441c-0.225,0.23 -1.021,-0.419 -1.021,-0.419c-3.377,-1.899 -4.539,-0.985 -6.372,-0.427c-0.261,0.079 -0.539,-0.627 -0.204,-1.326c0.672,-1.161 2.376,-1.445 3.487,-1.478Zm21.247,1.797c3.613,3.631 7.282,7.665 11.191,10.788c0.547,0.468 0.923,0.769 1.172,1.021c0.516,1.026 1.704,3.467 1.704,3.467c-4.188,-2.936 -13.623,-13.06 -13.519,-12.992c0.094,0.047 -0.791,-1.853 -0.548,-2.284Zm-7.068,0.603c0.659,-0.006 1.382,0.201 1.952,0.427c1.82,0.724 2.965,1.495 1.08,1.238c-2.622,-0.358 -3.518,-0.377 -4.479,-0.222c-1.783,0.287 -1.923,0.487 -2.079,0.203c-0.409,-0.746 1.547,-1.627 3.526,-1.646Zm-14.889,0.213c0.657,-0.004 1.371,0.14 2.07,0.447c2.225,0.975 2.616,1.61 0.722,1.305c-0.983,-0.159 -2.785,-0.143 -4.076,0.191c-0.409,0.105 -0.861,0.345 -0.966,0.379c-0.458,0.146 -0.584,-0.197 -0.389,-0.772c0.338,-0.994 1.383,-1.542 2.639,-1.55Zm16.106,2.845l0.459,0.034c-0.574,3.258 -3.819,2.941 -4.693,0.142l0.459,-0.01c1.71,2.676 2.988,1.101 3.775,-0.166l-0,-0Zm1.808,0.169c1.5,-0.017 1.402,0.887 -0.16,1.493c-1.198,0.464 -1.332,0.38 -0.894,-0.519c0.422,-0.864 0.379,-0.967 1.054,-0.974Zm-15.885,0.117l0.434,0c0.146,2.936 -3.933,3.474 -4.184,0.272l0.387,-0.017c1.337,2.517 2.881,0.996 3.363,-0.255l-0,0Zm1.973,0.287c0.094,0.014 0.186,0.051 0.275,0.115c0.462,0.316 0.174,0.75 -0.828,1.363c-0.905,0.565 -1.137,-0.118 -0.392,-1.064c0.351,-0.293 0.661,-0.457 0.945,-0.414Zm7.349,0.11c0.179,-0.056 0.602,0.738 0.242,0.927c-0.215,0.113 -0.532,-0.211 -0.568,-0.451c-0.028,-0.19 0.092,-0.401 0.326,-0.476Zm12.215,0.184c2.722,3.007 5.463,6.027 13.478,12.572c-0,-0 1.133,2.019 1.38,2.808c-0.195,0.241 -0.297,0.213 -0.859,-0.066c-5.227,-4.046 -10.087,-8.968 -13.893,-13.542c-0.181,-0.646 -0.585,-1.268 -0.106,-1.772l-0,-0Zm-25.915,0.288c0.063,0.01 0.11,0.054 0.124,0.06c0.287,0.14 0.544,0.704 0.344,1.051c-0.199,0.156 -0.507,-0.088 -0.641,-0.278c-0.134,-0.189 -0.136,-0.54 -0.046,-0.689c0.078,-0.129 0.156,-0.154 0.219,-0.144l0,-0Zm-0.68,0.491c1.213,10.012 2.977,24.872 11.522,25.458c2.801,0.192 6.045,-1.732 6.574,-1.414l17.751,-0.141c3.641,7.402 7.552,12.17 12.183,17.232c6.432,3.868 15.54,6.38 21.058,4.876c-3.512,2.778 -7.564,1.99 -12.026,0.801c-0.25,-0.067 -0.512,-0.144 -0.773,-0.237l-3.368,5.082c-7.499,-1.782 -31.576,-0.52 -37.923,25.727c0,0 0.653,0.334 0.501,0.153c5.041,-22.782 26.332,-27.323 36.483,-25.054l-0.872,1.336c-16.843,-2.066 -30.556,8.497 -33.822,23.477l0.324,0.296c6.32,-22.648 32.89,-31.027 49.363,-15.329l3.022,-2.146l-0.099,2.904l-40.499,34.024l-1.618,-1.679c-0.685,0.52 -1.322,1.085 -1.972,1.741c-0,0 1.628,1.901 1.677,2.024c-6.717,5.488 -8.867,16.088 -2.466,23.484c0.694,0.802 0.582,0.997 0.452,0.112c-5.726,-6.248 -4.999,-17.298 2.139,-22.534l1.439,1.891c-3.084,6.92 -4.705,17.713 3.445,18.647c2.961,7.957 -0.445,17.385 -4.248,23.704c-4.03,7.28 -8.914,13.33 -11.962,21.26c-1.482,3.309 -3.839,13.123 -3.714,20.622l-0.889,-0.009l0.39,-19.361c-0,-0 0.52,-0.77 0.543,-0.849c-0.54,-1.004 -0.525,-1.961 -0.162,-2.995c-1.778,-6.242 -1.923,-17.458 -7.662,-22.611c-2.814,-2.423 -6.552,-2.521 -11.393,-0.533c-10.682,0.019 -9.098,0.57 -17.725,0.076c-3.569,-6.551 -7.897,-12.934 -12.58,-17.665c-2.189,-2.448 -5.243,-3.774 -8.105,-5.548c1.148,-2.183 2.461,-3.792 3.883,-4.829c0.296,-0.422 0.497,-0.878 0.879,-1.235c29.088,2.802 35.397,-25.445 34.069,-24.727l-0.258,0.223c-7.952,29.105 -36.384,27.985 -50.61,15.403c-1.61,1.613 -2.027,-0.186 -2.088,-1.699l40.761,-33.315l1.844,1.845l1.786,-1.649l-1.461,-2.626c10.682,-11.09 5.864,-16.043 2.435,-23.642c0.096,-0.4 -4.556,-0.246 -4.556,-0.246c2.889,-4.318 5.348,-8.76 7.762,-13.214c3.746,-6.741 8.938,-18.551 10.566,-27.111Zm27.734,3.685c-0.022,-0.104 12.659,12.783 14.285,12.537c0.758,0.447 2.643,4.11 2.643,4.11c0.054,0.116 0.045,0.331 -0.26,0.18c-2.144,-1.064 -11.107,-8.522 -15.688,-14.073c-0.336,-0.808 -0.742,-1.835 -0.98,-2.754Zm-14.775,1.183c-0.928,0.084 -0.695,0.53 -0.299,0.71c2.211,1.071 1.26,3.268 -1.074,1.871c-1.839,-1.121 -3.296,-1.222 -3.285,-0.253c0.007,0.41 0.505,0.936 0.99,0.93c0.909,0.059 1.733,0.392 2.626,0.588c1.394,0.3 2.437,-0.07 2.786,-0.918c0.592,-1.44 -0.816,-3.011 -1.744,-2.928Zm16.933,4.143c0.093,-0.001 0.191,0.05 0.278,0.09c-0.155,-0.136 6.305,6.961 15.113,12.824c0.342,0.396 1.193,2.443 1.329,2.719c-0.036,0.193 -0.23,0.004 -0.23,0.004c-4.448,-2.578 -10.32,-7.691 -15.882,-13.494c-0,-0 -0.535,-1.287 -0.699,-2.124c0.03,-0.014 0.06,-0.019 0.091,-0.019l0,-0Zm-14.396,2.645c-0.201,0.028 -0.469,0.331 -0.801,0.514c-0.677,0.374 -0.892,0.473 -2.557,-0.027c-0.903,-0.272 -1.05,-0.253 -1.589,0.148c-0.472,0.35 -0.732,0.408 -1.258,0.172c-0.946,-0.425 -1.385,-0.116 -2.262,0.191c-0.834,0.303 -1.12,-0.067 -1.871,-0.238c-0.1,0.001 -0.142,3.039 -0.043,3.136c0.034,0.034 0.78,-0.459 1.203,-0.675c0.728,-0.371 0.624,-0.312 1.687,-0.269c1.568,0.272 3.122,0.18 4.172,-0.233c1.308,-0.371 2.33,-0.301 3.233,0.441c0.549,0.45 1.276,0.376 0.851,-0.453c-0.147,-0.286 -0.479,-1.34 -0.439,-1.733c0.06,-0.586 -0.071,-0.962 -0.288,-0.974c-0.013,-0.001 -0.025,-0.001 -0.039,0l0.001,0Zm16.31,2.174c0.136,-0.038 0.35,0.14 0.442,0.195c2.973,2.859 6.641,7.223 15.266,12.28c0.449,0.789 1.056,1.838 1.44,2.656c0.036,0.227 -0.019,0.428 -0.24,0.35c-5.329,-3.387 -8.292,-5.033 -15.68,-12.334c-0.46,-0.74 -0.949,-2 -1.329,-3.027c0.02,-0.072 0.056,-0.108 0.101,-0.12Zm-0.813,1.285l3.299,6.211l-11.108,-0.024c2.823,-1.687 5.517,-3.936 7.809,-6.187l-0,0Zm-18.177,0.072c-0.062,0.009 -0.141,0.031 -0.235,0.068c-1.824,0.727 -2.099,0.878 -3.908,0.436c-1.054,-0.257 -0.765,0.357 -0.225,0.61c1.365,0.641 3.341,0.188 4.074,-0.319c0.423,-0.273 0.73,-0.855 0.294,-0.795l0,0Zm-2.107,1.986c-1.91,0.027 -3.712,0.694 -3.846,1.472c-0.026,0.151 0.13,0.319 0.427,0.14c1.294,-0.781 4.508,-1.036 6.939,-0.156c0.394,0.143 0.462,-0.102 0.054,-0.439c-0.909,-0.753 -2.267,-1.036 -3.574,-1.017l0,-0Zm23.977,2.479c0.09,0.024 0.209,0.128 0.266,0.173c3.596,3.328 7.066,6.389 14.804,10.843c0.557,1.218 1.364,2.677 1.505,2.803c-7.252,-3.529 -15.157,-10.495 -15.157,-10.495c0,0 -1.243,-2.222 -1.528,-3.174c-0.008,-0.08 0.007,-0.124 0.034,-0.143c0.019,-0.014 0.046,-0.015 0.076,-0.007l-0,-0Zm2.743,5.356c-0,0 6.62,5.615 14.168,9.426c0.306,0.294 1.065,2.102 1.312,2.295c0.25,0.196 -0.299,0.194 -0.843,-0.086c-3.95,-1.825 -12.42,-7.662 -12.42,-7.662c-0.813,-1.336 -1.976,-2.726 -2.217,-3.973Zm3.371,5.799c1.159,0.895 10.985,7.057 12.798,7.197c0,-0 0.868,0.977 1.585,1.866c0.668,0.828 0.913,0.958 0.99,1.126c0.077,0.166 -0.251,0.157 -0.306,0.151c-4.42,-1.927 -8.917,-3.954 -12.74,-7.157c-0.516,-0.439 -0.631,-0.639 -0.885,-0.974c-0.337,-0.447 -1.337,-2.042 -1.442,-2.209Zm-80.309,0.174c1.37,0.136 2.768,1.547 2.761,3.638c6.158,0.52 3.248,6.23 -0.33,5.357c1.419,3.244 -2.843,4.462 -3.441,3.91c-0.241,1.049 -1.864,4.425 -2.209,5.429c4.563,-3.243 11.904,-1.804 12.968,-2.012c-2.652,5.559 -11.318,4.206 -11.606,3.973c0,0 -4.588,-2.186 -4.929,-2.248c-5.938,-1.905 -7.693,-3.023 -8.095,-8.586c0.029,-0.204 0.11,-0.197 0.31,-0.05c0.515,0.356 2.514,1.662 3.252,2.022c3.381,1.596 4.352,3.324 5.372,6.038c0.244,0.264 0.442,0.241 0.747,0.008c1.306,-1.695 1.916,-3.106 2.521,-4.925c0.078,-0.203 0.249,-0.41 0.149,-0.704c-0.239,-0.803 -0.824,-1.841 -0.226,-2.627c-1.909,0.087 -3.736,-1.312 -3.503,-2.713c0.508,-2.597 1.607,-2.129 3.665,-2.507c-0.119,-3.003 1.224,-4.14 2.594,-4.003l0,-0Zm83.565,4.798c4.494,2.532 8.313,4.986 12.408,6.307c0.584,0.219 0.884,0.235 1.175,0.441c0.29,0.206 1.538,0.979 1.833,1.152c1.868,1.099 2.06,1.047 1.596,1.231c-0.513,0.204 -3.793,-0.756 -6.565,-1.784c-4.917,-1.822 -6.657,-2.856 -8.436,-4.464c-0.4,-0.416 -2.268,-2.656 -2.011,-2.883Zm-61.457,5.211l3.074,0.051c4.795,5.85 6.102,16.184 -2.27,22.743c-1.142,-1.325 -2.187,-2.719 -3.211,-4.134c6.765,-5.65 4.711,-11.299 -0.171,-16.948l2.578,-1.712Zm-28.136,8.911c0.379,-0.009 0.986,0.227 1.617,0.713c0.675,0.519 2.333,1.607 3.018,1.901c0.35,0.151 0.461,0.19 0.461,0.19l4.418,5.03l-11.378,9.274c-0,0 -0.923,-0.947 -1.217,-1.263c-0.278,-0.3 -0.198,-0.55 0.148,-0.89c0.279,-0.272 0.299,-0.863 0.252,-1.153c-0.069,-0.43 -0.058,-0.915 0.486,-1.317c0.438,-0.324 0.506,-0.891 0.485,-1.048c-0.016,-0.125 0.238,-0.539 0.618,-0.817c0.799,-0.584 1.04,-1.295 0.77,-2.132c-0.113,-0.35 -0.174,-0.442 0.284,-0.748c1.039,-0.657 1.145,-1.262 1.033,-2.209c-0.161,-0.844 0.583,-0.629 1.193,0.429c0.333,0.578 0.428,1.525 0.594,2.603c0.197,1.271 0.332,1.617 0.401,1.437c0.394,-1.025 -0.073,-4.876 -1.241,-5.399c-1.708,-0.764 -3.135,-2.322 -2.707,-2.933c0.148,-0.212 0.174,-0.14 1.215,0.342c0.61,0.283 1.175,0.512 1.26,0.515c1.205,0.038 0.473,-0.479 0.081,-0.534c-0.472,-0.065 -1.881,-0.927 -2.047,-1.228c-0.275,-0.502 -0.123,-0.754 0.256,-0.763Zm-2.91,0.663c1.111,-0.013 1.326,0.286 1.337,1.246c0.008,0.566 0.218,1.002 1.104,2.131c0.361,0.46 0.602,0.813 0.578,0.993c-0.039,0.298 -0.146,-0.011 -1.371,-0.156c-0.435,-0.051 -0.656,-0.058 -0.808,0.168c-0.422,0.627 -1.316,-0.026 -1.866,-0.951c-1.311,-2.204 -0.848,-3.41 1.026,-3.431Zm21.185,1.328l12.096,14.844l-1.365,1.062l-12.142,-14.642l1.411,-1.264Zm-2.023,0.911l1.296,2.194c0,0 -3.749,3.212 -4.735,4.118c-7.963,6.466 -25.939,21.145 -25.939,21.145l-0.243,-2.952l29.621,-24.505Zm-21.834,0.397c0.236,0.006 0.505,0.306 0.888,0.892c0.332,0.508 1.045,1.528 1.804,2.229c1.474,1.362 1.616,1.238 0.419,1.367c-0.475,0.051 -0.631,-0.004 -0.921,0.722c-0.878,1.097 -3.47,-2.837 -2.863,-4.341c0.237,-0.588 0.436,-0.875 0.673,-0.869Zm4.314,2.134c0.274,0.024 0.528,0.175 0.747,0.266c0.642,0.264 0.686,0.418 0.58,1.033c-0.101,0.588 -0.548,0.74 -1.426,-0.035c-0.586,-0.554 -0.57,-1.099 -0.181,-1.241c0.095,-0.026 0.188,-0.031 0.28,-0.023l-0,-0Zm19.212,0.353l1.421,1.839l-32.215,26.16l0,-3.01c0.787,0.102 21.435,-17.924 30.794,-24.989Zm-25.019,0.299c0.087,-0.018 0.221,0.278 0.579,0.817c0.728,1.099 1.397,1.824 2.16,2.4c0.721,0.545 0.802,0.85 0.307,0.854c-0.211,0.001 -0.501,0.224 -0.653,0.486c-0.305,0.527 -0.331,0.402 -0.803,0.125c-0.675,-0.395 -1.39,-0.981 -1.62,-1.776c-0.293,-1.011 -0.332,-2.137 0.03,-2.906Zm5.094,2.089c0.823,-0.029 1.414,0.93 0.87,1.706c-0.302,0.295 -0.575,0.436 -1.177,0.08c-0.795,-0.469 -0.938,-1.19 -0.287,-1.595c0.203,-0.127 0.405,-0.185 0.594,-0.191Zm-5.292,2.076c0.173,-0.008 0.484,0.242 1.006,0.779c0.401,0.412 1.097,0.764 1.376,0.92c0.625,0.349 0.655,0.47 0.315,0.751c-0.145,0.119 -0.621,0.128 -0.751,0.507c-0.369,1.084 -1.937,-0.177 -2.086,-1.727c-0.076,-0.787 -0.083,-1.22 0.14,-1.23Zm3.94,0.128c1.029,0.043 1.515,1.246 0.695,1.838c-0.447,0.323 -1.574,-0.247 -1.686,-0.837c-0.074,-0.381 0.6,-1.018 0.991,-1.001Zm24.056,0.895c0.597,-0 1.08,0.484 1.08,1.083c0,0.598 -0.483,1.083 -1.08,1.083c-0.596,-0 -1.08,-0.485 -1.08,-1.083c0,-0.599 0.484,-1.083 1.08,-1.083Zm-3.228,0.448c0.597,0 1.08,0.485 1.08,1.083c0,0.598 -0.483,1.083 -1.08,1.083c-0.597,0 -1.081,-0.485 -1.081,-1.083c-0,-0.598 0.484,-1.083 1.081,-1.083Zm-21.431,1.446c0.992,0.008 1.044,0.996 0.455,1.505c-0.353,0.304 -0.67,0.399 -1.126,0.034c-0.622,-0.5 -0.593,-1.104 -0.107,-1.385c0.275,-0.182 0.501,-0.156 0.778,-0.154l-0,0Zm21.815,1.52l-1.735,4.385l-4.677,0.633l1.735,-4.385l4.677,-0.633Zm2.02,0.064c0.597,0 1.08,0.485 1.08,1.083c0,0.599 -0.483,1.083 -1.08,1.083c-0.596,0 -1.084,-0.484 -1.084,-1.083c-0,-0.598 0.488,-1.083 1.084,-1.083Zm94.852,0.065l0,2.738l-38.12,31.817l-1.29,-1.69l39.41,-32.865Zm-89.375,0.076l1.217,1.57l-39.443,32.243l0,-2.262l38.226,-31.551Zm67.051,2.609c-9.58,-0.08 -19.668,7.381 -14.692,23.959l5.019,-4.035c-2.161,-10.932 6.464,-15.282 14.655,-12.106l5.097,-4.356c-2.66,-2.246 -6.33,-3.431 -10.079,-3.462Zm-82.598,2.592c0.597,-0 1.08,0.485 1.08,1.083c0,0.598 -0.483,1.083 -1.08,1.083c-0.597,0 -1.08,-0.485 -1.08,-1.083c0,-0.598 0.483,-1.083 1.08,-1.083Zm-3.28,0.266c0.597,-0 1.046,0.449 1.046,1.048c0,0.598 -0.449,1.121 -1.046,1.121c-0.597,-0 -1.08,-0.488 -1.08,-1.086c0,-0.598 0.483,-1.083 1.08,-1.083Zm17.453,2.198l-4.977,3.995c1.286,10.467 -3.791,15.797 -14.708,12.209l-5.279,4.199c14.264,9.838 32.93,-2.843 24.964,-20.403Zm-15.315,0.945c0.597,0 1.08,0.485 1.08,1.083c0,0.599 -0.483,1.083 -1.08,1.083c-0.597,0 -1.08,-0.484 -1.08,-1.083c0,-0.598 0.483,-1.083 1.08,-1.083Zm-1.854,0.259l-1.733,4.385l-4.678,0.635l1.734,-4.385l4.677,-0.635Zm106.537,0.016c0.596,0 1.084,0.485 1.084,1.083c-0,0.599 -0.488,1.083 -1.084,1.083c-0.597,0 -1.08,-0.484 -1.08,-1.083c-0,-0.598 0.483,-1.083 1.08,-1.083Zm-0.836,2.368l-1.734,4.385l-4.677,0.634l1.733,-4.385l4.678,-0.634Zm-113.673,3.138c0.597,0 1.083,0.485 1.083,1.084c0,0.598 -0.486,1.083 -1.083,1.083c-0.597,-0 -1.08,-0.485 -1.08,-1.083c0,-0.599 0.483,-1.084 1.08,-1.084Zm-3.109,0.121c0.597,-0 1.084,0.485 1.084,1.083c0,0.598 -0.487,1.083 -1.084,1.083c-0.597,0 -1.08,-0.485 -1.08,-1.083c0,-0.598 0.483,-1.083 1.08,-1.083Zm108.083,0.644c0.597,-0 1.08,0.484 1.08,1.083c-0,0.598 -0.483,1.083 -1.08,1.083c-0.597,-0 -1.08,-0.485 -1.08,-1.083c-0,-0.599 0.483,-1.083 1.08,-1.083Zm11.049,0.167l-0,2.406l-30.957,25.808l-1.303,-1.677l32.26,-26.537Zm-116.967,2.346c0.596,-0 1.079,0.484 1.08,1.083c-0,0.598 -0.484,1.087 -1.08,1.087c-0.597,0 -1.081,-0.489 -1.081,-1.087c0,-0.599 0.484,-1.083 1.081,-1.083Zm108.128,0.26c0.597,-0 1.08,0.484 1.08,1.083c-0,0.598 -0.483,1.087 -1.08,1.087c-0.597,0 -1.08,-0.489 -1.08,-1.087c-0,-0.599 0.483,-1.083 1.08,-1.083Zm-110.025,0.116l-1.734,4.385l-4.677,0.633l1.733,-4.385l4.678,-0.633Zm106.967,0.079c0.597,0 1.08,0.485 1.08,1.083c0,0.599 -0.483,1.088 -1.08,1.088c-0.597,-0 -1.083,-0.489 -1.083,-1.088c0,-0.598 0.486,-1.083 1.083,-1.083Zm12.075,0.384l-0.092,3.061c-9.644,8.244 -29.37,24.621 -29.301,24.631l-1.491,-2.064c0,0 21.625,-18.677 30.884,-25.628Zm-13.245,1.976l-1.734,4.385l-4.678,0.635l1.735,-4.385l4.677,-0.635Zm13.067,1.933l-0,99.088l-55.917,0.025c-0.701,-6.138 1.139,-14.258 4.188,-22.392c1.883,-5.026 4.589,-8.757 7.641,-13.256c5.849,-8.581 10.274,-17.291 8.568,-28.336c-0.223,-1.639 -0.448,-2.425 -0.371,-2.866c0.711,-1.337 3.531,-5.393 5.593,-7.081c3.025,-2.478 7.236,-6.18 7.573,-5.961c1.005,1.944 2.194,3.516 3.768,4.703c0.278,0.302 0.286,0.566 -0.354,0.701c-4.177,-0.038 -8.476,0.882 -9.87,4.586c-0.187,0.702 -0.191,0.694 0.653,0.609c0.427,-0.044 2.142,-0.041 3.34,0.007c2.202,0.172 5.668,0.188 7.407,-1.14c0.336,-0.322 0.521,-0.301 0.584,-0.125c0.149,0.858 -1.539,3.681 -1.539,3.681l-2.787,1.544c0,0 -1.141,0.054 -2.554,0.019l-0.025,2.515c-1.108,0.656 -3.008,3.47 0.046,5.627l-0.1,2.738l2.693,0.049c1.786,1.715 3.24,1.707 4.88,0.092l3.105,0.003l-0.012,-2.957c1.53,-1.233 1.747,-3.328 0.182,-5l-0.038,-3l-2.388,0.016c-0,-0 -0.494,-0.385 -0.508,-0.689c0,-0.198 1.744,-3.57 2.078,-4.052c0.434,-0.626 0.316,-0.268 1.011,1.177c0.994,2.069 1.977,2.913 4.496,4.134c2.248,1.09 3.05,1.598 3.702,2.222c0.52,0.497 0.826,0.34 1.026,-0.401c0.434,-1.649 0.301,-3.301 -0.605,-4.81c-1.912,-3.187 -5.243,-3.333 -5.772,-4.071c-0.069,-0.175 0.609,-0.378 1.337,-0.705c1.261,-0.768 3.106,-3.091 3.344,-4.024c-0.043,-0.449 0.252,-1.864 0.47,-2.178c0.252,-0.556 0.279,-0.816 0.268,-2.31c-0.225,-0.852 -0.02,-1.963 0.085,-2.345c0.115,-0.775 -0.296,-1.689 -0.879,-2.81c-0.219,-1.041 -0.168,-0.771 0.504,-3.117c0.11,-0.379 0.865,-3.646 -0.101,-3.87c0.547,2.546 -0.155,4.633 -1.12,6.075c-0.652,-0.199 -1.204,-0.712 -1.76,-1.136c0,-0 -0.014,-1.229 0.244,-2.45c-0.152,0.414 -0.254,1.482 -0.734,1.733c-0.257,0.06 -0.612,-0.17 -1.281,-0.748c-0.256,-0.221 -0.804,-0.606 -0.804,-0.606c0,0 7.786,-6.69 10.733,-8.908l-0,-0Zm-126.482,1.061c0.597,-0 1.08,0.484 1.08,1.083c0,0.598 -0.483,1.083 -1.08,1.083c-0.596,-0 -1.08,-0.485 -1.08,-1.083c0,-0.599 0.484,-1.083 1.08,-1.083Zm104.75,0.245c0.597,0 1.082,0.485 1.082,1.083c-0,0.598 -0.485,1.083 -1.082,1.083c-0.596,0 -1.08,-0.485 -1.08,-1.083c0,-0.598 0.484,-1.083 1.08,-1.083Zm2.355,2.97c0.597,-0 1.079,0.485 1.08,1.083c-0,0.598 -0.483,1.083 -1.08,1.083c-0.597,0 -1.08,-0.485 -1.08,-1.083c-0,-0.598 0.483,-1.083 1.08,-1.083Zm-3.497,0.461c0.597,0 1.08,0.485 1.08,1.083c0,0.599 -0.483,1.083 -1.08,1.084c-0.596,-0 -1.08,-0.485 -1.08,-1.084c0,-0.598 0.484,-1.083 1.08,-1.083Zm-1.334,2.425l-1.735,4.385l-4.678,0.635l1.735,-4.385l4.678,-0.635Zm-17.411,1.739l11.683,14.841l-1.492,1.297l-11.589,-15.005l1.398,-1.133Zm30.13,0.771c-0,0 1.681,0.869 2,1.264c0.113,0.434 -0.19,0.568 -0.638,0.973c-0.205,0.264 -0.334,0.517 -0.345,1.087c-0.013,0.615 0.19,0.89 -0.058,1.161c-0.413,-0.021 -0.744,0.52 -0.727,0.958c0.014,0.335 -0.422,0.706 -0.678,0.958c-0.453,0.448 -0.587,0.541 -0.878,2.056c-0.03,0.152 -0.019,0.545 -0.233,0.75c-0.634,0.057 -1.094,1.614 -1.383,1.713c-0.463,-0.03 -1.198,-0.597 -1.377,-1.435c-0.117,-0.545 -0.085,-1.603 0.044,-2.284c0.153,-0.811 0.222,-1.547 0.171,-1.742c-0.118,-0.451 -0.416,-0.174 -0.412,0.46c-0,0.258 -0.096,1.029 -0.259,1.757c-0.163,0.729 -0.607,1.698 -0.408,2.273c0.298,0.857 1.393,1.22 1.887,1.674c1.298,1.193 1.581,1.776 1.729,2.041c1.038,1.904 1.041,2.227 0.781,3.659c-0.15,0.824 -0.951,0.685 -1.433,0.35c-0,-0 -3.085,-2.25 -4.428,-3.368c-2.033,-1.694 -3.46,-3.425 -4.323,-5.349l10.968,-8.956Zm-21.355,0.789c0.597,0 1.08,0.483 1.08,1.082c0,0.598 -0.483,1.083 -1.08,1.083c-0.597,-0 -1.08,-0.485 -1.08,-1.083c0,-0.599 0.483,-1.082 1.08,-1.082Zm23.883,1.485c0.163,0.023 0.312,0.097 0.46,0.195c0.993,0.658 0,1.76 -0.899,1.355c-0.779,-0.33 -0.72,-1.123 -0.106,-1.44c0.203,-0.106 0.381,-0.134 0.545,-0.11Zm1.71,0.894c0.963,0.016 2.029,2.306 1.833,2.979c-0.287,0.783 -0.55,0.811 -1.91,-0.342c-1.344,-1.14 -1.363,-1.187 -0.82,-1.803c0.302,-0.35 0.445,-0.812 0.897,-0.834Zm-22.924,0.418c0.597,-0 1.08,0.484 1.08,1.083c0,0.598 -0.483,1.087 -1.08,1.087c-0.596,0 -1.08,-0.489 -1.08,-1.087c0,-0.599 0.484,-1.083 1.08,-1.083Zm-3.349,0.417c0.597,0 1.08,0.485 1.08,1.083c0,0.599 -0.483,1.083 -1.08,1.083c-0.597,0 -1.079,-0.484 -1.08,-1.083c0,-0.598 0.483,-1.083 1.08,-1.083Zm23.725,0.772c1.067,0.158 1.346,0.966 0.855,1.566c-0.666,0.813 -2.161,0.075 -1.807,-0.892c0.161,-0.439 0.551,-0.666 0.952,-0.674Zm1.912,1.219c0.417,-0.035 1.047,0.543 1.735,1.502c0.773,1.079 0.835,1.428 0.616,2.086c-0.319,0.958 -0.518,1.134 -1.212,0.199c-0.262,-0.352 -0.87,-1.178 -1.304,-1.634c-0.925,-0.972 -1.07,-0.725 -0.518,-1.468c0.256,-0.344 0.432,-0.663 0.683,-0.685Zm-3.414,0.884c0.076,-0.008 0.154,-0.007 0.236,0.001c0.216,0.022 0.448,0.101 0.672,0.248c0.958,0.496 1.05,1.141 0.484,1.598c-0.666,0.365 -1.841,-0.068 -2.069,-0.729c-0.219,-0.634 0.147,-1.065 0.677,-1.118l0,-0Zm2.531,1.678c0.541,-0.035 0.988,0.526 1.651,1.599c1.128,1.826 1.19,2.44 0.228,3.644c-0.692,0.866 -0.762,0.913 -1.439,-0.467c-0.553,-1.128 -1.606,-2.45 -2.581,-3.242c-0.407,-0.331 -0.55,-0.794 -0.256,-0.826c0.085,-0.009 0.446,-0.025 0.801,-0.038c0.52,-0.019 0.709,-0.09 0.994,-0.37c0.189,-0.186 0.39,-0.287 0.602,-0.3l-0,-0Zm-3.887,1.425c0.503,-0.024 1.154,0.25 1.639,0.814c0.549,0.579 0.484,1.109 -0.595,1.216c-0.485,0.19 -1.808,-0.679 -1.814,-1.263c-0.008,-0.489 0.325,-0.745 0.77,-0.767Zm2.619,2.118c0.452,-0.023 0.687,0.46 1.196,1.484c0.781,1.573 0.556,2.428 -0.795,3.124c-0.916,0.473 -1.615,0.614 -1.733,0.074c-0.065,-1.094 -0.37,-2.269 -0.864,-3.029c-0.825,-1.247 -0.972,-1.69 -0.066,-1.322c0.48,0.194 1.002,0.172 1.551,-0.117c0.22,-0.151 0.48,-0.203 0.711,-0.214l-0,-0Zm-4.659,2.529c-0.314,-0.007 -0.516,0.186 -0.431,0.701c0.285,0.14 0.736,0.009 1.076,0.132c0.458,0.166 0.742,0.913 1.231,0.791c0.051,-0.63 -1.184,-1.609 -1.876,-1.624Zm-3.599,0.482c1.177,0.477 4.239,2.705 4.239,2.705l-2.79,5.82c0.508,0.912 0.713,3.175 0.713,3.175c3.528,-0.27 5.439,5.693 -0.056,5.142c0.627,3.687 -5.294,6.576 -5.133,-0.03c-6.168,0.48 -4.098,-6.528 -0.297,-5.213c-0.114,-2.969 1.861,-3.353 3.254,-4.082c1.141,-1.295 1.842,-4.227 1.842,-4.227l-0.278,-0.895c-1.17,2.05 -6.151,2.637 -11.625,1.551c1.482,-3.521 5.978,-3.421 10.131,-3.946l0,-0Zm6.386,3.032c0.134,-0.008 0.277,-0.004 0.428,0.01c2.016,0.182 5.419,2.16 6.158,3.267c1.419,2.128 1.33,4.452 0.736,4.808c-0.626,-0.353 -1.17,-0.967 -1.817,-1.248c-3.261,-1.41 -5.865,-2.566 -6.33,-4.64c-0.583,-1.54 -0.112,-2.144 0.825,-2.197l0,-0Zm-110.656,1.246c5.306,-0.051 10.827,2.089 14.767,5.81c1.186,1.186 0.541,0.846 -0.408,0.393c-2.524,-1.207 -8.78,-3.998 -11.793,-4.039c-5.587,-1.572 -5.775,-0.857 -7.734,-1.36c1.654,-0.527 3.399,-0.787 5.168,-0.804Zm-4.119,1.681c5.203,-0.106 9.77,2.575 11.92,5.714c5.136,6.789 8.619,15.421 13.162,23.323c5.934,10.322 11.466,21.965 20.745,39.205l-0.891,0.28l-35.388,0.064c1.691,-18.374 -7.799,-35.906 -9.095,-36.482c7.935,0.11 13.207,-1.222 15.587,-3.517l-0.765,-1.176c-4.665,4.037 -11.661,4.223 -16.324,2.975c0.106,-9.924 -0.308,-20.406 0,-30.327c0.352,-0.033 0.702,-0.052 1.049,-0.059l0,-0Zm8.852,1.54c1.42,-0.109 9.166,3.086 12.631,5.473c0.962,0.998 2.369,2.732 2.37,2.902c0.008,0.461 -0.677,-0.107 -4.024,-2.021c-2.533,-1.428 -5.162,-2.568 -7.72,-3.663c-0.118,-0.05 -0.351,-0.152 -0.351,-0.152c0,0 -0.19,-0.218 -0.515,-0.47c-0.911,-0.707 -2.682,-1.961 -2.391,-2.069Zm3.766,3.618c-0.077,-0.014 7.682,2.804 13.856,7.734c0.821,0.656 1.829,3.101 1.829,3.101c-0.551,-1.04 -10.302,-6.89 -13.725,-8.229c-0.008,-0.005 -1.96,-2.606 -1.96,-2.606Zm2.736,3.741c0.423,-0.254 11.77,6.462 13.433,8.196c0.754,0.578 2.52,3.385 2.526,3.95c0.008,0.503 -0.546,0.07 -1.562,-0.871c-5.226,-4.893 -12.776,-8.582 -12.837,-8.5l-1.56,-2.775Zm2.106,3.904c5.328,2.26 12.022,7.696 15.4,10.932c0.845,0.838 1.447,2.052 1.561,2.617c0.071,0.35 -0.106,0.327 -0.175,0.514c-4.378,-5.038 -13.999,-10.789 -15.275,-11.239c0.01,0.319 -1.058,-1.953 -1.511,-2.824Zm2.051,3.956c3.138,1.026 12.115,8.212 15.64,11.743c0.613,0.626 1.586,2.825 1.368,3.093c-0.106,0.132 -0.096,0.063 -0.353,-0.116c-1.401,-1.397 -8.597,-7.799 -14.601,-11.39c-0.564,-0.283 -2.455,-3.273 -2.054,-3.33Zm2.656,4.598c0.104,0.008 0.292,0.142 0.614,0.32c5.521,3.054 13.525,10.744 15.042,12.593c0.345,0.569 0.889,1.614 0.849,2.254c-0.069,0.503 -0.271,0.075 -2.503,-2.128c-3.587,-3.522 -7.713,-6.93 -12.086,-9.793c-0.841,-0.579 -0.68,-0.653 -1.29,-1.718c-0.612,-1.068 -0.855,-1.545 -0.626,-1.528Zm34.187,0.072c0.408,-0.014 0.788,-0 1.126,0.045c3.942,0.113 5.483,3.106 7.911,8.622c1.988,5.435 2.811,10.415 2.902,14.38c0.008,0.266 -0.475,0.038 -0.694,-0.021c-1.056,-0.284 -2.371,-0.549 -3.894,-0.163c-0.71,0.18 -1.767,0.207 -1.767,0.207c0.79,-1.119 1.696,-1.51 2.641,-2.217c0.366,-0.229 0.754,-0.515 0.754,-0.515c-1.264,0.146 -2.182,0.788 -3.33,1.521c-0,0 0.159,-0.786 0.357,-1.275c1.147,-2.828 1.494,-4.502 -0.213,-5.026c-1.094,-0.309 -1.551,-0.942 -1.888,-2.037c-0.512,1.116 0.281,2.238 1.154,2.844c1.187,0.854 1.422,1.09 0.777,3.112c-0.905,2.833 -1.097,3.526 -1.263,4.184c-0.095,0.378 -0.279,1.022 -0.372,1.439c-0.358,1.605 -0.315,3.009 -0.249,4.344c0.391,2.982 3.596,4.452 7.899,2.796c0.407,-0.159 0.577,-0.016 0.577,-0.016c-3.428,3.496 -7.276,5.73 -9.518,12.792c-2.883,-5.826 -6.966,-10.392 -13.756,-12.222l-0.1,-1.217c2.368,1.139 6.959,2.688 9.873,0.947c1.561,-1.069 1.086,-1.757 -0.807,-1.02c-2.255,0.877 -6.328,0.774 -8.361,-0.375c-0.414,-0.234 -0.836,-0.031 -0.955,0.009c-0.106,-0.685 -1.085,-3.266 -0.942,-4.237c-0.084,-0.136 0.62,-0.143 0.755,0.038c0.563,0.753 3.419,2.996 6.387,2.82c1.476,-0.087 2.688,-0.535 3.97,-1.891c0.107,-0.095 0.63,-0.164 0.701,-0.244c0.114,-0.128 0.031,-0.322 0.026,-0.391c-0.031,-0.103 -0.223,-0.385 -0.349,-0.704c-0.165,-0.278 -0.2,-0.569 -0.172,-0.793c0,-0.186 0.127,-0.284 0.224,-0.415c0.111,-0.249 0.081,-0.567 0.019,-0.736c-0.263,-0.178 -0.228,-0.51 -0.09,-0.667c0.332,-0.376 -2.246,-2.852 -3.577,-3.696c-0.28,-0.177 -1.055,-0.303 -1.055,-0.303c0,0 0.308,0.529 0.862,0.898c1.961,1.306 3.391,3.012 3.067,3.235c-0.25,0.171 -1.128,-0.205 -2.022,-0.416c-1.794,-0.422 -3.949,-0.691 -6.286,0.999c-0.874,0.72 -3.184,0.829 -3.184,0.829c-0.029,-1.223 -5.021,-14.488 -5.343,-14.759c1.949,-2.27 8.012,-7.607 14.092,-9.91c1.406,-0.462 2.889,-0.754 4.113,-0.795l-0,-0Zm-21.973,3.199l11.06,0.172c-2.781,1.403 -7.833,6.437 -7.833,6.437c-1.445,-2.916 -1.887,-4.371 -3.227,-6.609Zm-9.559,1.462c0.824,0.005 9.601,7.178 10.85,8.872c0.15,0.204 1.039,1.145 1.977,2.088c2.271,2.282 3.208,3.601 3.218,4.542c0.008,0.445 -0.4,0.155 -1.006,-0.514c-4.547,-5.065 -7.506,-7.815 -13.125,-11.699c-0.638,-0.343 -2.619,-2.985 -1.947,-3.28c0.009,-0.004 0.02,-0.009 0.033,-0.009l-0,0Zm30.025,1.321c-0.247,-0.008 -0.206,0.229 -0.072,0.449c1.393,1.234 5.071,1.179 6.339,0.182c1.15,-0.905 -0.358,-0.427 -0.827,-0.225c-1.099,0.472 -2.278,0.419 -3.808,0.012c-0.893,-0.238 -1.385,-0.409 -1.632,-0.418l0,0Zm3.392,2.011c-1.286,0.012 -2.63,0.399 -2.331,0.873c0.109,0.172 0.462,0.496 1.302,0.038c1.214,-0.602 3.707,0.188 3.78,0.207c0.255,0.067 -0.829,-0.716 -1.193,-0.877c-0.401,-0.177 -0.974,-0.247 -1.558,-0.241l-0,-0Zm-30.99,1.34c4.718,2.894 10.464,8.684 13.913,12.82c0.574,0.712 0.989,1.589 0.994,2.105c0.009,0.742 -0.15,0.33 -3.282,-2.853c-2.457,-2.521 -6.166,-5.951 -8.621,-7.799c-1.476,-1.078 -1.738,-1.217 -2.433,-2.496c-0.651,-1.2 -0.886,-1.796 -0.571,-1.777Zm35.984,0.11c-0.023,-0.003 -0.045,0.002 -0.071,0.015c-0.744,0.375 -1.348,0.772 -2.057,0.76c-1.301,-0.024 -2.442,-0.808 -4.467,0.08c-0.887,0.423 -2.064,0.333 -3.209,-0.061c-1.038,-0.358 -0.793,-0.052 -0.399,1.083c0.179,0.516 0.29,1.248 0.291,1.356c0,0.252 0,0.269 0.734,-0.141c0.638,-0.358 0.772,-0.48 2.133,-0.163c1.383,0.322 1.405,0.203 2.055,-0.137c0.567,-0.296 0.684,-0.474 1.071,-0.317c0.759,0.306 1.617,0.437 2.589,-0.075c0.745,-0.393 0.988,-0.129 1.333,0.045c0.468,0.237 0.65,0.086 0.466,-0.382c-0.073,-0.186 -0.21,-0.986 -0.213,-1.239c-0.008,-0.419 -0.099,-0.803 -0.256,-0.824l-0,0Zm-64.282,1.843c11.758,14.688 9.881,35.861 9.489,35.689l-9.489,0.041l0,-35.73Zm30.794,2.968c4.696,3.302 10.285,9.058 13.382,13.038c0.527,0.688 0.099,0.905 0.362,1.734c0.097,0.308 -0.423,-0.146 -1.915,-1.753c-1.859,-2.002 -4.916,-5.013 -6.928,-6.76c-2.204,-1.914 -2.841,-2.395 -3.31,-3.042c-0.37,-0.541 -1.879,-3.141 -1.591,-3.217Zm26.431,1.351c-0.05,-0.001 -0.099,0.002 -0.147,0.004c-1.672,0.079 -2.522,1.958 -1.089,3.285c0.539,0.499 1.595,0.56 1.595,0.56c-0,-0 -0.474,-0.37 -0.662,-0.515c-1.193,-0.92 -1.072,-2.352 0.287,-2.367c0.47,-0.005 0.5,0.163 1.589,0.946c1.28,0.922 2.793,0.922 2.775,-0.004c-0.014,-0.681 -0.267,-1.378 -1.411,-1.265c-0.301,0.029 -0.702,0.061 -1.054,-0.028c-0.336,-0.086 -0.623,-0.293 -0.756,-0.352c-0.398,-0.177 -0.779,-0.259 -1.127,-0.264Zm-23.379,4.325c3.593,2.418 8.53,7.888 11.054,11.114c0.579,0.756 0.618,1.591 0.384,2.041c-0.055,0.089 -0.497,-0.187 -0.497,-0.187c-2.918,-3.445 -6.227,-6.578 -9.476,-9.759c0,0 -1.93,-3.112 -1.465,-3.209Zm32.421,3.477c0.687,0.025 1.506,0.488 2.41,1.754l-0.776,0.387c-1.176,-1.768 -2.252,-1.792 -3.153,0.273l-0.578,-0.145c-0.286,-0.268 0.585,-2.326 2.097,-2.269Zm2.236,0.247c0.324,0.011 0.89,0.187 1.021,0.518c0.148,0.306 -0.018,0.651 -0.462,0.635c-0.067,-0.002 -0.497,-0.532 -0.71,-0.855c-0.158,-0.197 -0.09,-0.305 0.151,-0.298Zm-15.798,0.136c1.068,0.052 2.138,0.661 2.603,2.027l-0.868,0.039c-1.655,-2.18 -2.892,-0.717 -3.633,0.193l-0.932,-0.127c0.084,-1.346 1.456,-2.199 2.83,-2.132l-0,0Zm11.054,0.165c0.131,0.002 0.261,0.026 0.382,0.073c-0.343,0.521 -0.401,0.956 -0.479,1.427c-0.338,0.14 -0.819,0.433 -1.177,0.059c-0.666,-0.606 0.359,-1.577 1.274,-1.559l0,-0Zm-13.653,0.228c0.41,0.001 0.287,-0.026 0.109,0.204c-0.18,0.233 -0.475,0.647 -0.606,1.017c-0.056,0.257 -0.083,0.368 -0.324,0.376c-0.459,0.014 -1.272,-0.15 -1.265,-0.144c-0.354,-0.335 1.025,-1.418 2.086,-1.453Zm5.339,0.321c0.273,-0.033 0.209,0.359 0.122,0.513c-0.173,0.205 -0.242,0.272 -0.339,0.016c-0.046,-0.122 -0.119,-0.22 -0.178,-0.293c-0.135,-0.175 -0.119,-0.182 0.047,-0.212c0.075,-0.013 0.251,-0.022 0.347,-0.024l0.001,0Zm-18.49,1.367c3.382,2.873 5.928,6.128 8.633,9.127c0.539,0.669 0.791,1.313 0.687,1.749c-0.13,0.543 -1.239,-0.752 -1.239,-0.752c0.028,0.012 -6.603,-7.083 -6.603,-7.083c0,-0 -1.682,-3.026 -1.478,-3.041Zm32.687,0.373c1.012,-0.026 0.335,1.695 -1.072,2.112c-1.555,0.79 -3.337,0.601 -5.152,-0.436c-1.035,-0.592 -1.349,-1.215 -0.447,-0.966c3.397,0.938 4.223,0.764 6.272,-0.566c0.122,-0.104 0.252,-0.129 0.399,-0.144Zm-22.58,0.62c0.235,0.008 0.7,0.117 1.452,0.312c3.254,0.989 4.238,0.952 6.108,0.091c1.192,-0.548 1.686,-0.469 1.176,0.356c-0.939,1.518 -4.255,1.685 -6.744,0.837c-0.659,-0.224 -1.237,-0.616 -1.871,-1.093c-0.341,-0.355 -0.423,-0.513 -0.121,-0.503Zm15.004,1.006c0.195,-0.013 0.557,0.212 0.999,0.463c2.725,1.549 4.737,1.265 6.417,0.226c0.304,-0.278 0.468,-0.144 0.509,0.125c0.143,0.944 0.186,1.622 -0.244,2.076c-0.25,0.265 -0.676,0.383 -1.317,0.6c-2.639,0.89 -5.851,0.254 -6.466,-1.731c-0.2,-1.021 -0.327,-1.732 0.102,-1.759Zm-21.627,4.257c0.01,-0.001 0.02,-0.002 0.031,-0c0.191,0.029 0.632,0.414 1.326,1.203c3.627,4.126 5.634,6.497 5.267,7.691c-0.034,-0 -0.055,0.257 -0.209,0.124c-1.995,-1.727 -3.625,-3.615 -4.838,-5.59c-1.329,-2.163 -1.875,-3.402 -1.577,-3.428Zm29.224,1.577c0.553,0.228 0.015,1.35 0.022,1.325c-3.062,2.347 -6.775,7.935 -7.109,10.687c-0.063,0.526 0.04,1.11 -0.154,1.3c-0.194,-0.002 -0.524,0.003 -0.964,0c-0.284,-0.052 -0.357,-0.194 -0.33,-0.521c0.268,-2.944 1.926,-7.895 8.535,-12.791l-0,-0Zm-22.647,0.051c0.216,-0.006 0.551,0.108 1.018,0.309c2.749,1.182 3.773,1.611 5.552,3.065c3.314,2.71 7.014,9.285 5.933,9.887c-0.284,0.004 -0.611,-0.007 -0.743,0c-0.404,-0.738 -0.701,-1.717 -1.074,-2.414c-2.222,-4.095 -5.112,-6.911 -9.185,-8.903c-1.504,-0.735 -1.657,-0.653 -1.771,-1.269c-0.087,-0.463 -0.008,-0.667 0.27,-0.675Zm22.625,2.365c0.275,-0.024 0.341,0.48 0.247,1.494c-0.038,0.42 -0.069,0.621 -0.212,0.845c-1.737,1.774 -4.197,5.188 -5.016,8.557c-0.406,-0.033 -1.174,0.048 -1.164,0c-0.234,-0.125 -0.256,-0.829 -0.185,-1.114c0.643,-2.596 2.326,-5.769 4.919,-8.563c0.729,-0.785 1.168,-1.199 1.411,-1.219Zm-22.052,0.075c3.517,1.463 8.115,4.803 10.186,10.842c-0.459,-0.028 -1.117,0.033 -1.286,-0c-0.35,-0.138 -0.531,-0.789 -1.186,-2.022c-1.708,-3.218 -4.168,-5.552 -6.833,-6.784c-0.496,-0.229 -0.761,-0.374 -0.921,-0.552c-0.178,-0.369 -0.408,-1.407 0.04,-1.484l-0,-0Zm0.784,2.878c0.452,0.086 1.702,0.898 2.747,1.667c1.848,1.36 4.741,5.681 4.16,6.276c-0.624,-0.012 -0.584,-0.003 -1.198,0c-1.979,-3.531 -4.594,-5.308 -5.637,-6.289c-0.316,-0.533 -1.055,-1.791 -0.072,-1.654l-0,0Zm-4.111,0.624c0.085,-0.022 0.432,0.319 1.061,0.981c1.856,1.955 3.035,4.123 2.763,5.217c-0.231,0.926 -0.501,0.418 -2.626,-3.647c-0.895,-1.711 -1.323,-2.52 -1.198,-2.551Zm25.405,0.054c0.042,1.125 -0.047,1.402 -0.166,1.998c-0.081,0.407 -0.35,0.595 -0.603,0.912c-1.02,1.419 -1.691,2.931 -2.075,4.355l-1.249,0c0.148,-1.845 1.844,-4.875 4.093,-7.265Zm-21.045,2.073c0.561,0.075 4.926,4.664 4.287,5.192c-0.763,-0.019 -0.399,0.01 -1.311,0c-0.53,-1.19 -2.927,-3.697 -2.926,-3.697l-0.111,-1.449c0,-0.036 0.024,-0.051 0.061,-0.046Zm20.77,1.624c0.011,-0.002 0.021,-0.002 0.031,0c0.221,0.046 0.147,3.314 -0.038,3.568c-0.353,0.034 -1.023,-0.029 -1.381,0c-0.218,-0.118 -0.331,-0.528 -0.248,-0.767c0.205,-0.596 1.28,-2.727 1.636,-2.801l0,0Zm-20.217,1.483c0.451,0 1.661,1.777 1.546,2.085c-0.512,0.006 -1.41,-0.018 -1.468,0c-0.117,-0.088 -0.295,-1.786 -0.159,-2.063c0.023,-0.015 0.051,-0.022 0.081,-0.022Z" style="fill:#242424;fill-rule:nonzero;"/><path id="path3389-2-3-5-0" d="M111.452,19.501l0.622,0.819l-3.633,0.019c0.595,0.503 14.054,27.662 31.265,59.04c2.849,5.507 8.282,7.492 14.592,7.733l-16.714,-26.99c1.78,-0.972 5.315,-3.575 7.453,-3.092c0.132,0.659 0.766,0.397 0.775,-0.188l0.774,0.016l0.272,0.425l3.248,0l0.266,-0.385l2.799,0.404c-7.482,-9.248 -11.428,-23.5 -10.147,-37.411l-24.815,0.054l-0.33,-0.436l-6.427,-0.008Zm-29.208,0.845c0.299,5.743 -0.458,12.819 -2.332,18.096c-2.821,9.136 -9.798,16.653 -13.94,24.221c-4.441,8.258 -5.484,15.444 -4.235,23.304l0.812,0.071c9.468,-12.95 16.8,-28.421 20.903,-43.636c0.09,-0.331 -0.061,-0.916 0.013,-1.252c-0.175,-0.402 -0.022,-0.838 0.088,-0.955c0.239,-0.251 0.151,-1.239 -0.026,-2.871c-0.447,-4.849 -0.359,-8.654 0.046,-13.048c0.311,-3.374 0.291,-3.905 0.291,-3.905l-1.62,-0.025Zm60.309,0.39c-0.806,9.116 1.018,21.637 5.288,29.035c0,-0 -0.135,0.497 -0.225,0.632c-0.407,0.615 -0.608,0.083 -0.855,-0.413c-0.909,-1.685 -2.627,-1.948 -3.379,-1.01c-1.662,2.271 0.138,3.167 1.537,4.45c-5.716,-0.35 -7.622,-6.658 -6.3,-9.778c-0.03,0.595 0.288,1.493 0.707,2.13c1.607,2.444 3.953,0.382 3.28,-1.551c-0.278,-0.8 -1.302,-2.133 -1.302,-2.133c-0,0 1.392,-0.206 1.961,-0.551c0.532,-0.331 0.867,-0.916 0.73,-1.718c-0.11,-0.643 -0.139,-0.923 -0.482,-1.503c-0.422,-0.528 -1.178,-0.893 -1.782,-0.852c-1.18,0.079 -1.323,0.892 -2.096,1.45c-0.191,-1.466 -1.128,-2.583 -2.657,-2.306c-1.163,0.211 -2.002,1.453 -1.289,3.006c0.36,0.793 0.865,1.033 1.374,1.72c-8.213,-0.922 -7.318,-10.701 -6.409,-10.526c-0,0 0.247,-0.047 0.173,0.328c-0.467,2.393 2.497,3.823 3.797,2.084c0.828,-1.411 -0.951,-3.637 -0.951,-3.637c0,-0 1.184,-0.255 1.722,-0.566c2.145,-1.241 -0.141,-4.805 -2.137,-3.93c-0.7,0.32 -0.878,0.972 -1.561,1.318c-0.457,-0.509 -0.484,-1.067 -1.305,-1.525c-2.252,-1.257 -3.661,1.717 -2.415,3.026c0.512,0.53 1.414,1.014 1.238,1.078c-6.984,-0.884 -6.915,-8.289 -6.755,-8.238l20.093,-0.02Zm-29.469,0.02l4.822,0l23.42,36.518l-4.274,2.1l-23.968,-38.618Zm5.801,0l2.662,0c0.411,8.161 7.265,9.257 8.325,9.138c-1.75,5.519 1.147,11.575 8.124,12.435c-1.6,5.116 1.233,11.86 6.814,11.677l0.592,0.375c-0.36,0.737 -0.438,2.251 -0.417,2.275c-1.241,0.091 -1.913,0.272 -2.719,0.432c-7.213,-10.906 -23.381,-36.332 -23.381,-36.332Zm-36.355,0.041l0.961,0c-0.285,4.348 -0.901,10.083 -0.498,14.323c0.47,4.049 0.493,4.624 0.203,5.025c-0.397,0.447 -0.187,0.656 -0.109,1.02c0.105,0.666 0.115,0.674 0.019,1.052c-0.846,3.4 -1.929,6.922 -3.303,10.484c-4.494,12.424 -11.825,25.971 -17.575,33.075c-0.007,-0.025 -0.262,0.023 -0.266,0c-1.573,-9.913 1.79,-18.177 3.545,-21.568c3.558,-6.876 9.146,-12.745 12.465,-19.948c2.825,-6.129 4.909,-13.496 4.557,-23.46l0.001,-0.003Zm49.102,7.092c0.607,0 1.095,0.495 1.095,1.103c0,0.608 -0.488,1.102 -1.095,1.102c-0.606,-0 -1.099,-0.494 -1.099,-1.102c0,-0.608 0.493,-1.103 1.099,-1.103Zm7.766,12.178c0.614,0 1.111,0.499 1.111,1.114c0,0.616 -0.497,1.114 -1.111,1.114c-0.613,0 -1.11,-0.498 -1.11,-1.114c-0.001,-0.615 0.497,-1.114 1.11,-1.114Zm-55.801,2.174l-0,0.001c0.399,1.592 -7.434,25.476 -18.565,40.674l4.861,0.102l0.15,0.538c6.81,10.08 2.551,18.998 -2.947,23.141l1.903,2.543l-1.713,1.39l-1.714,-2.044c-13.934,10.481 -41.125,33.679 -41.125,33.679l0.152,3.72l2.122,-1.676c13.792,13.388 43.039,12.655 50.709,-14.979l2.055,0.047c-4.639,20.255 -23.516,28.182 -37.763,24.824l-3.338,4.808l0.894,0.479c-0.165,-0.256 -0.315,-0.345 -0.074,-0.58l2.835,-3.659c21.316,2.737 34.187,-9.36 38.363,-25.747l2.719,0.046c-2.333,13.765 -8.768,25.885 -17.945,35.37c-6.623,-0.027 -18.268,-0.179 -18.268,-0.179c4.24,4.12 12.338,16.691 12.662,17.967c-0,-0 8.329,0.267 17.265,0.047c3.275,-1.478 7.659,-2.072 9.706,-1.038c3.596,1.818 6.977,8.562 8.497,19.382c0.391,2.787 0.745,3.968 0.853,4.53c0.02,0.102 0.265,0.175 0.301,0.156c0.137,-0.073 -0.219,0.494 -0.234,0.913c-0.015,0.419 -0.001,1.05 0.198,1.269c0.252,0.278 0.222,0.461 0.187,0.581c-0.022,0.079 -0.509,0.529 -0.509,0.529c-0.072,6.303 -0.038,12.027 -0.381,19.78l1.236,0.007c-0.009,-12.475 3.745,-24.019 9.53,-31.965c3.517,-5.215 7.238,-10.836 9.297,-16.187c2.317,-6.024 2.636,-12.353 1.395,-17.693l-0.847,0.047c-5.088,-3.498 -7.162,-10.962 -0.894,-16.296l-2.218,-2.894c-6.259,4.853 -7.696,13.803 -1.212,21.212l-2.537,-0.008c-6.327,-7.917 -4.926,-17.01 2.385,-23.499l-1.636,-2.084l1.779,-1.571l1.604,1.761l40.816,-34.197l-0.03,-3.741l-3.127,2.544c-18.308,-16.973 -45.46,-5.064 -49.441,15.38l-2.488,0.025c5.218,-22 24.445,-28.217 38.353,-25.291l3.431,-5.206c-2.525,-0.712 -4.987,-2.392 -7.311,-4.378c-0.98,-0.837 -1.597,-1.349 -2.309,-2.187c-6.587,-6.98 -11.06,-16.673 -11.27,-16.689l-17.911,-0.044c-2.628,1.302 -7.128,2.784 -9.597,0.784c-5.302,-4.293 -7.081,-12.954 -7.81,-18.528c-0.221,-1.734 -0.408,-4.753 -0.571,-5.754c-0.101,-0.184 -0.297,-0.194 -0.474,-0.162l0.001,-0Zm63.501,9.634c0.6,0 1.085,0.49 1.085,1.091c-0,0.601 -0.485,1.087 -1.085,1.087c-0.599,0 -1.083,-0.486 -1.083,-1.087c0,-0.601 0.484,-1.091 1.083,-1.091Zm2.333,1.282c0.883,1.147 1.667,2.329 2.105,3.579c-0.412,-0.012 -0.799,0.117 -1.256,-0.242c-0.107,-1.263 -0.625,-2.02 -1.278,-2.861l0.429,-0.476Zm-3.276,1.609c0.362,0.178 0.649,1.549 0.396,1.784c-0.436,0.093 -0.733,0.062 -0.88,-0.091c-0.219,-0.362 0.196,-1.623 0.484,-1.693Zm-71.235,11.913l16.628,0.02c2.893,2.223 5.721,1.929 9.826,0.146l18.49,0l1.045,1.902l-46.89,0c0.261,-0.707 0.901,-2.068 0.901,-2.068l-0,0Zm-1.372,2.972l47.855,-0l1.208,1.953l-50.247,-0l1.184,-1.953Zm4.62,2.836l5.37,0l-1.99,3.386l-5.54,-0l2.16,-3.386Zm11.92,0l5.124,0l-2.281,3.383l-5.078,-0l2.235,-3.383Zm16.574,0l-2.157,3.383l-5.21,-0l2.238,-3.351l5.129,-0.032Zm6.426,0l5.132,0l-1.918,3.383l-5.315,-0l2.101,-3.383Zm-68.937,0.526c-3.328,-0.038 -2.711,4.387 -2.397,4.249c-2.089,-0.48 -3.633,0.516 -3.89,2.301c-0.204,1.416 1.176,3.434 3.59,3.152c-0.321,0.371 0.007,2.513 0.326,2.708c0,0 0.041,0.31 -1.233,2.975c-1.512,3.162 -1.82,3.313 -2.505,1.236c-0.737,-2.235 -1.876,-3.367 -4.844,-4.812c-0.791,-0.385 -1.91,-1.057 -2.487,-1.493c-1.325,-1.001 -1.341,-0.985 -1.279,1.048c0.081,2.64 0.881,3.798 3.692,5.357c1.376,0.762 4.009,1.84 4.486,1.835c0.336,0 1.569,0.55 3.396,1.527c0.357,0.191 1.579,0.865 3.143,1.017c1.661,0.117 5.401,-0.276 7.569,-1.531c1.217,-0.705 1.687,-1.335 2.584,-3.136c0,-0 -3.072,0.159 -4.476,-0.211c-2.916,-0.171 -4.366,0 -6.577,1.15c-1.85,0.963 -1.954,1.135 -1.182,-0.456c0.353,-0.731 0.681,-1.591 0.979,-2.447c0.322,-0.851 0.408,-0.922 1.217,-1.005c1.774,-0.181 2.784,-1.207 2.948,-2.988c0.044,-0.477 -0.026,-0.981 -0.026,-0.981c1.208,0.179 3.681,-0.422 3.604,-2.93c-0.07,-2.256 -1.674,-2.774 -3.648,-2.929c0.254,-1.156 -0.588,-3.608 -2.989,-3.636l-0.001,0Zm0.041,0.701c2.916,0.02 2.848,2.703 1.578,4.226l-1.551,-1.279l-1.251,1.158c-1.361,-0.873 -1.356,-4.123 1.224,-4.105Zm79.776,0.032l1.435,2.124l-2.961,-0l1.526,-2.124Zm-54.435,3.05l5.49,-0l-2.203,3.105l-5.191,-0c-0,-0 1.162,-1.983 1.904,-3.105Zm17.305,-0l-2.074,3.225l-4.799,0l1.923,-3.158l4.95,-0.067Zm6.43,-0l4.96,-0l-1.961,3.44l-4.903,-0l1.904,-3.44Zm11.675,-0l5.023,-0l-2.044,3.44l-4.953,-0l1.974,-3.44Zm11.379,-0l5.175,-0l-2.136,3.44l-4.99,-0l1.951,-3.44Zm-68.039,0.618c1.252,0.052 2.443,1.083 2.236,2.45c-0.437,2.896 -3.22,2.739 -4.011,1.323l1.135,-1.298l-1.391,-1.368c0.506,-0.814 1.28,-1.137 2.031,-1.107Zm-4.019,0.021l2.466,2.494l-2.404,2.414l-2.479,-2.376l2.417,-2.532Zm-3.613,0.198c0.559,0.036 1.13,0.316 1.584,0.845l-1.333,1.507l1.464,1.41c-0.943,1.314 -4.567,1.209 -3.84,-1.953c0.288,-1.254 1.191,-1.869 2.125,-1.809Zm86.145,0.476l1.527,2.103l-2.863,0.024l1.336,-2.127Zm-82.461,0.541l-1.167,1.166l1.167,1.165l1.167,-1.165l-1.167,-1.166Zm22.917,2.041l61.391,0.2l1.643,2.014c-21.434,0.37 -42.423,-0.345 -64.32,-0.362l1.286,-1.852Zm-21.582,1.31c2.432,1.496 0.635,4.649 -1.976,4.113c-1.947,-0.856 -2.344,-2.881 -0.593,-4.056l1.371,1.135l1.198,-1.192Zm21.05,1.208l-1.675,0.007l-1.632,1.914c6.169,6.515 5.942,12.168 0.195,17.095l2.311,2.594c6.447,-5.53 7.876,-14.219 0.801,-21.61l-0,-0Zm6.337,0.25c3.458,5.417 6.448,15.677 -3.854,25.076l-1.243,-1.511c8.97,-8.784 6.862,-16.171 2.844,-23.499l2.253,-0.066Zm0.959,0.132l13.941,0.054c-2.985,11.404 -5.078,18.119 -5.393,35.958l-4.029,0.024c0.438,-0.411 -2.085,-10.773 -5.031,-14.365c6.177,-10.515 2.848,-16.446 0.512,-21.671l0,-0Zm-43.848,0.015c0.241,-0 0.698,0.378 1.703,0.892c2.98,1.524 5.344,2.964 5.916,5.112c0.408,1.161 0.154,1.183 -1.018,0.09c-0.871,-0.814 -1.799,-1.515 -4.121,-3.11c-0.818,-0.561 -1.077,-0.469 -0.602,0.215c0.342,0.492 1.077,1.052 2.567,1.963c1.081,0.66 2.569,1.983 2.452,2.178c-0.107,0.177 -0.292,0.162 -0.812,-0.066c-0.241,-0.106 -1.018,-0.425 -1.725,-0.713c-3.036,-1.235 -4.332,-2.753 -4.514,-5.276c-0.064,-0.878 -0.119,-1.283 0.154,-1.285Zm63.617,0.055c-0,0 0.42,0.555 0.474,0.787c0.116,0.5 -0.374,0.959 -1.916,1.647c-0.53,0.236 -0.969,0.365 -0.955,0.674c0.071,0.728 1.459,1.838 1.289,2.829c-0.32,0.758 -2.249,1.502 -2.731,2.396c-0,0.615 1.254,1.556 1.075,2.392c-0.097,0.249 -0.501,0.504 -1.099,1.024c-1.224,1.065 -1.299,1.229 -0.85,2.058c1.043,1.925 1.081,1.782 -0.343,3.15c-1.435,1.379 -1.408,1.362 -0.722,2.56c0.739,1.292 0.705,1.233 -0.287,2.061c-0.973,0.811 -0.933,0.976 -0.412,1.984c0.504,0.973 0.618,0.987 -0.23,1.741c-0.991,0.88 -1.175,0.972 -0.477,2.079c0.723,1.146 0.775,1.098 -0.041,2.034c-0.772,0.887 -0.862,0.928 -0.443,1.531c0.526,0.758 0.625,0.96 0.075,1.793c-0.595,0.901 -0.592,0.837 -0.046,1.676c0.459,0.706 0.379,1.491 0.379,1.491l-1.724,-0.007c-0,-0 -0.012,-0.994 -0.214,-1.36c-0.488,-0.886 -0.476,-1.162 0.105,-1.948c0.596,-0.807 0.497,-0.876 -0.057,-1.683c-0.562,-0.817 -0.483,-0.808 0.247,-1.737c0.669,-0.852 0.704,-1.255 0.324,-1.741c-0.903,-1.154 -0.898,-1.641 0.01,-2.405c0.693,-0.582 0.757,-0.841 0.159,-1.838c-0.585,-0.976 -0.658,-1.066 0.416,-2.038c1.098,-0.994 1.086,-0.972 0.349,-2.099c-0.714,-1.093 -0.675,-1.165 0.471,-2.232c1.16,-1.079 1.175,-1.083 0.415,-2.444c-0.711,-1.274 -0.717,-1.251 0.672,-2.492c1.383,-1.156 1.854,-1.303 0.474,-2.961c-0.769,-1.316 -0.221,-1.445 1.042,-2.1c2.214,-1.356 1.205,-1.272 0.275,-3.285c-0.778,-1.349 -0.332,-1.359 1.023,-2.033c0.336,-0.145 0.709,-0.311 1.091,-0.525c0.907,-0.507 0.415,-0.971 0.415,-0.971l1.767,-0.008Zm2.894,0.031l6.655,0.085c-7.714,9.878 -11.426,22.511 -12.758,35.838l-2.515,-0.04c-0.157,-10.407 3.109,-23.41 8.618,-35.883l0,0Zm7.607,0.066l3.28,0.059c0,0 0.615,0.741 0.893,1.008c1.416,1.61 1.538,1.29 -1.58,3.055c-1.969,1.115 -2.842,1.632 -2.958,2.099c-0.088,0.47 0.86,1.405 0.972,2.034c-0,0.07 -2.677,1.869 -3.163,2.123c-0.675,0.329 -0.71,0.612 -0.039,1.781c0.771,1.344 0.708,1.297 -0.957,2.462c-1.624,1.136 -1.942,1.024 -1.251,2.154c0.961,1.57 0.509,1.924 -1.752,3.148c-0.571,0.309 -0.586,0.62 -0.187,1.691c0.554,1.49 0.699,1.339 -0.469,2.146c-1.38,0.952 -1.623,0.979 -1.317,1.562c0.888,1.695 1.241,2.108 0.054,2.661c-0.905,0.422 -0.924,0.661 -0.424,1.78c0.503,1.125 0.633,1.081 -0.26,1.715c-0.828,0.587 -1.315,0.457 -0.509,1.418c0.637,0.76 0.58,1.36 0.062,1.827c-0.447,0.189 -0.654,1.041 -0.524,1.059l-1.151,0.031c-0.9,-1.217 0.162,-1.913 0.322,-2.032c0.147,-0.281 -0.032,-0.479 -0.396,-1.138c-0.5,-0.907 -0.482,-1.017 0.237,-1.547c0.727,-0.536 0.75,-0.397 0.265,-1.581c-0.564,-1.378 -0.538,-1.535 0.349,-2.174c0.873,-0.629 0.885,-0.77 0.291,-1.976c-0.626,-1.273 -0.625,-1.274 0.926,-2.306c1.091,-0.727 1.106,-0.683 0.528,-2.03c-0.399,-0.93 -0.117,-1.252 1.367,-2.271c0.848,-0.583 0.913,-0.697 0.514,-1.391c-1.101,-1.911 -1.09,-1.969 0.807,-3.202c1.552,-1.008 1.539,-1.096 0.941,-2.439c-0.649,-1.456 -0.707,-1.343 1.421,-2.622c1.752,-1.053 1.848,-0.991 1.127,-2.259c-0.897,-1.576 -0.839,-1.318 2.666,-3.327c1.264,-0.868 2.403,-0.567 1.145,-2.045c-0.553,-0.709 -1.232,-1.473 -1.232,-1.473l0.002,0Zm10.639,0.108l15.928,0.057c3.806,3.213 6.626,5.053 8.632,5.778c0,0 -2.683,4.466 -2.889,4.303c-15.44,-2.982 -33.802,6.044 -37.956,25.505l-2.432,0.017c0.899,-7.637 2.903,-14.015 6.594,-20.668c3.662,-6.46 7.035,-10.235 12.123,-14.992l-0,-0Zm-72.534,2.486c0.243,-0.009 0.432,0.292 0.42,0.847c-0.043,0.781 -0.412,1.556 -0.765,2.333c-0.742,1.583 -1.48,2.753 -1.869,2.757c-0.916,0.011 -0.891,-0.195 0.326,-2.582c0.623,-1.097 1.283,-3.26 1.888,-3.355Zm6.522,3.364c1.603,0.032 3.261,0.18 4.745,0.22c0.016,3.352 -10.465,5.041 -11.009,3.349c1.827,-1.434 7.229,-0.797 8.374,-2.08c-1.38,-0.08 -3.25,0.147 -4.531,0.17c-1.598,0.029 -4.178,0.713 -4.204,0.996c-0.167,-0.882 2.743,-2.536 5.049,-2.64c0.513,-0.024 1.041,-0.026 1.576,-0.015l-0,-0Zm5.642,5.336c0,-0 -20.437,16.958 -30.54,25.163l0.062,3.657l32.332,-26.541l-1.854,-2.279Zm-0.066,0.837l1.307,1.59l-30.353,24.796l-0.108,-2.598l29.154,-23.788Zm75.793,1.035c6.446,0.027 13.384,2.325 20.143,7.667l-1.091,1.166c-29.645,-22.116 -56.943,11.465 -41.89,35.487c-0.136,0.309 -1.183,1.077 -1.183,1.077c-12.845,-21.352 2.963,-45.486 24.021,-45.397Zm3.83,2.823c1.683,0.013 4.78,1.17 6.088,2.749c1.523,1.839 1.081,2.658 -0.854,0.923c-2.08,-1.515 -3.798,-1.866 -0.91,-0.078c0.637,0.395 1.211,1.166 1.241,1.251c0.105,0.307 -0.428,-0.014 -2.849,-0.899c-1.439,-0.526 -3.263,-1.95 -3.737,-2.919c-0.355,-0.725 0.139,-1.034 1.021,-1.027Zm-6.239,0.05c0.525,-0.008 0.992,0.037 1.324,0.132c2.121,0.611 2.789,0.931 3.579,1.548c0.541,0.421 0.367,0.725 -0.261,0.455c-0.731,-0.314 -3.046,-1.005 -3.46,-0.962c-0.603,0.061 0,0.457 0.865,0.674c1.916,0.481 2.868,0.976 1.501,0.996c-0.714,0.107 -3.837,0.116 -4.687,0.017c-1.42,-0.168 -3.547,-1.467 -3.057,-1.933c0.528,-0.502 2.621,-0.914 4.196,-0.927l-0,-0Zm-6.08,1.998c2.514,0.03 3.874,0.972 1.126,1.161c-4.724,0.75 -5.631,1.78 -0.396,0.553c1.218,-0.286 1.195,0.155 0.353,0.569c-0.689,0.335 -1.548,0.501 -2.264,0.849c-1.292,0.539 -4.251,0.659 -5.405,0.219c-1.703,-0.649 3.644,-3.385 6.586,-3.351Zm20.229,0.43c1.27,0.033 3.981,1.878 5.187,3.61c0.788,1.132 0.396,1.945 -0.796,1.036c-0.239,-0.181 -1.951,-1.641 -2.044,-1.675c-0.16,-0.059 1.42,1.447 1.651,1.871c0.198,0.359 0.655,1.182 -0.197,1.199c-1.332,-0.165 -4.461,-3.669 -4.481,-5.399c-0.007,-0.463 0.257,-0.653 0.68,-0.642Zm-15.762,0.984c0.53,-0.017 0.259,0.265 -0.746,0.975c-1.813,1.28 -0.868,1.023 1.251,-0.071c0.644,-0.332 1.422,-0.592 1.695,-0.642c0.273,-0.051 0.598,-0.125 0.723,-0.163c0.569,-0.176 0.129,0.528 -0.798,1.272c-1.95,1.567 -4.152,2.799 -5.672,3.176c-1.938,0.481 -2.348,0.542 -1.632,-0.67c1.138,-1.927 2.796,-3.469 4.379,-3.768c0.356,-0.068 0.624,-0.103 0.8,-0.109l0,0Zm6.52,0.031c0.807,-0.017 1.804,0.153 3.376,0.492c1.104,0.346 0.815,0.42 -0.51,0.565c-2.49,0.273 -1.453,0.564 0.969,0.521c3.303,-0.025 -1.656,1.194 -3.264,1.438c-1.254,0.055 -1.623,0.011 -4.36,-0.503c-1.042,-0.196 -0.417,-0.962 1.559,-1.909c0.807,-0.387 1.423,-0.588 2.23,-0.604Zm20.416,0.448l0.09,2.135l-39.998,33.535l-1.359,-1.507l41.267,-34.163Zm-13.609,1.836c1.595,-0.021 3.9,1.088 3.652,1.757c-0.092,0.25 -0.27,0.238 -1.488,-0.086c-0.799,-0.214 -2.231,-0.438 -2.04,-0.261c0.065,0.061 1.182,0.49 1.608,0.593c1.409,0.339 3.096,1.137 2.723,1.374c-0.653,0.398 -1.249,0.087 -2.023,0.007c-1.934,-0.269 -5.111,-1.248 -5.634,-1.737c-0.593,-0.555 1.486,-1.621 3.202,-1.644l-0,-0.003Zm-18.658,0.125c0.288,0.015 0.396,0.284 0.121,0.651c-0.417,0.551 -0.608,1.013 -0.983,1.69c-1.337,2.07 -2.18,2.89 -3.465,3.693c-1.285,0.802 -1.47,0.664 -1.357,-1.006c0.145,-1.734 1.384,-3.556 3.133,-4.413c0.807,-0.114 1.269,-0.328 0.422,0.69c-1.503,1.805 -0.473,1.62 0.93,-0.43c0.446,-0.651 0.912,-0.891 1.199,-0.875Zm-5.197,0.241c0.867,-0.008 1.157,0.303 0.046,0.826c-1.057,0.497 -3.162,1.973 -3.213,2.135c-0.088,0.274 0.7,-0.157 2.008,-0.873c1.749,-0.958 1.904,-0.935 1.058,0.16c-0.956,1.238 -3.257,2.788 -5.063,3.362c-2.526,0.694 -2.465,0.208 -1.053,-1.672c1.345,-2.044 2.489,-3.018 4.212,-3.575c0.755,-0.245 1.484,-0.361 2.004,-0.363l0.001,-0Zm-42.843,0.311c9.166,15.85 4.078,31.956 -6.556,40.169c-11.118,8.586 -28.414,8.075 -38.621,-2.23l1.417,-1.34c-0.007,0.008 16.089,16.444 36.362,1.853c10.288,-7.405 14.538,-24.891 6.05,-37.081l1.348,-1.371Zm-41.06,0.035c-0.028,0.001 -0.052,0.008 -0.069,0.017c-0.309,0.201 -1.471,3.624 -1.705,5.045c-0.069,0.415 0.031,0.822 0.372,1.156c0.239,0.235 0.626,0.083 0.746,0.035c0.775,-0.351 1.203,-0.89 1.88,-2.598c0.455,-0.935 0.517,-2.052 0.427,-2.442c-0.036,-0.158 -0.287,-0.527 -0.602,-0.736c-0.348,-0.232 -0.838,-0.477 -1.047,-0.477l-0.002,0Zm0.181,0.713c0.367,0 1.091,0.596 1.18,1.022c0.008,0.743 -0.417,1.979 -0.734,1.795c-0.529,-0.659 -1.138,-0.244 -1.239,-0.483c-0.068,-0.731 0.4,-1.688 0.723,-2.325c0.021,-0.008 0.046,-0.009 0.071,-0.009l-0.001,0Zm98.994,0.586l0,0.004c4.076,-0 8.128,1.198 11.103,3.841l-1.587,1.461c-6.979,-4.989 -15.105,-3.529 -19.92,-0.163c-4.767,3.331 -8.986,10.704 -4.853,21.09l-1.492,1.357c-4.631,-8.354 -2.146,-19.395 6.049,-24.618c2.89,-1.842 6.592,-2.895 10.304,-2.964c0.132,-0 0.265,-0.008 0.396,-0.008Zm-60.27,1.226c0.123,0 0.311,0.406 0.291,0.904c-0.024,0.598 -0.276,1.378 -0.68,1.543c-0.455,0.186 -0.741,-1.173 -0.741,-1.173c0.279,-0.443 0.659,-0.894 1.13,-1.274Zm72.971,0.467c0.167,-0.008 0.328,-0 0.467,0.017c0.455,0.056 0.459,0.464 0.031,0.856c-0.462,0.424 -0.704,0.446 -1.17,0.105c-0.416,-0.305 -0.438,-0.528 -0.078,-0.787c0.188,-0.12 0.474,-0.177 0.75,-0.191l0,0Zm-78.279,0.094l1.352,1.671l-4.685,3.779l-0.56,0.044l-35.867,29.783l-0.009,-2.645l39.769,-32.632Zm64.942,0.85c3.711,-0.112 7.359,0.939 10.002,3.183l-4.885,4.041c-9.764,-5.086 -17.594,3.978 -14.832,12.211l-4.225,3.676c-5.431,-14.945 4.459,-22.824 13.94,-23.111Zm-15.576,0.007l0.043,0c0.032,0.008 0.066,0.031 0.097,0.062c0.171,0.168 -0.169,2.926 -0.424,3.437c-0.092,0.187 -0.164,0.426 -0.163,0.534c0,0.226 -0.9,2.117 -1.605,3.365c-0.266,0.47 -0.549,1.088 -0.628,1.376c-0.567,2.729 -1.788,-1.66 -1.357,-4.208c0.203,-1.197 1.898,-3.67 2.389,-3.487c0.251,0.093 0.233,0.282 -0.206,1.239c-1.224,2.67 -1.53,4.046 -0.244,1.465c1.483,-2.976 1.869,-3.74 2.098,-3.783l0,0Zm-82.985,0.055c0.182,0.01 0.326,0.111 0.405,0.323c0.054,0.181 0.112,0.557 0.012,0.741c-0.25,0.565 -0.769,0.937 -1.293,0.904c-0.231,-0.016 -0.483,-0.218 -0.514,-0.468c-0.028,-0.225 0.026,-0.609 0.311,-0.901c0.373,-0.383 0.777,-0.616 1.08,-0.599l-0.001,-0Zm37.19,0.172c0.579,0.028 1.189,1.588 0.801,2.301c-0.318,0.584 -0.377,0.475 -0.933,-0.654c-0.292,-0.594 -0.517,-1.231 -0.517,-1.231l0.474,-0.374c0.039,-0.021 0.081,-0.034 0.121,-0.039c0.019,-0 0.035,-0.008 0.053,-0l0.001,-0.003Zm-0.975,0.658c-0,0 0.609,1.106 0.758,1.987c0.09,0.538 0.075,0.437 -0.514,0.214c-0.464,-0.29 -0.566,-0.459 -0.855,-0.822c-0.19,-0.336 -0.379,-0.584 -0.379,-0.584l0.99,-0.795Zm3.659,0.237c0.308,-0.011 0.638,0.301 0.94,1.064c1.136,2.863 1.032,6.076 -0.244,7.593c-0.211,0.251 -0.263,0.263 -0.516,0.106c-0.208,-0.129 -0.229,-1.49 -0.028,-1.876c0.062,-0.12 0.251,-0.942 0.265,-1.406c0.033,-1.1 -0.268,-1.237 -0.412,-0.217c-0.167,1.178 -0.348,2.001 -0.668,1.293c-0.161,-0.36 -0.243,-0.719 -0.365,-1.102c-0.639,-2.476 0.105,-5.424 1.028,-5.455l0,-0Zm-4.945,0.733c-0,-0 1.092,1.415 1.542,1.921c0.159,0.273 0.153,0.342 -0.1,0.439c-0.433,0.166 -1.88,-0.799 -2.453,-1.098c-0.309,-0.247 -0.174,-0.436 -0.174,-0.436c0.395,-0.299 0.79,-0.592 1.185,-0.826Zm43.092,0.05c0.583,-0.008 0.581,0.197 -0.042,1.095c-3.475,5.013 -2.774,4.268 -0.563,1.527c1.229,-1.525 1.442,-1.67 1.577,-1.329c0.101,0.256 -1.361,3.222 -2.117,4.297c-0.391,0.555 -1.725,1.485 -2.4,1.828c-1.653,0.839 -1.471,0.502 -0.86,-1.578c0.779,-3.227 2.737,-5.821 4.403,-5.84l0.002,-0Zm-45.132,1.734c9.527,23.755 -16.56,34.181 -28.33,23.195l1.371,-1.095c16.373,11.136 32.533,-6.703 25.136,-20.663c0,0 0.672,-0.558 1.823,-1.437Zm2.208,0.576c1.568,0.161 3.883,3.038 4,4.641c0.248,1.138 -0.073,1.333 -0.629,0.533c-0.94,-1.74 -0.827,-0.637 -0.027,1.091c0.425,0.873 0.522,1.919 0.081,1.975c-0.603,-0.123 -1.908,-2.21 -2.307,-3.07c-0.952,-1.885 -1.02,-1.565 -1.542,-4.359c-0.098,-0.523 0.039,-0.807 0.424,-0.811l-0,0Zm-4.741,0.78c7.256,13.955 -8.354,30.721 -24.232,19.883l4.759,-3.787c8.287,3.986 17.533,-0.956 14.885,-12.414l4.588,-3.682Zm68.125,1.601c1.498,-0.041 2.979,0.277 4.268,1l-13.091,10.938c-2.105,-7.082 3.472,-11.793 8.823,-11.938Zm-20.048,0.977c0.427,-0.089 0.79,2.657 0.869,6.51c0.078,3.77 0.174,4.143 -0.995,2.755c-0.489,-0.565 -1.092,-1.106 -1.359,-1.613c-0.776,-1.471 -0.529,-3.012 -0.315,-5.166c0.2,-2.009 0.917,-1.695 0.8,0.409c-0.075,1.354 -0.06,3.037 0.152,3.035c0.077,-0 0.098,-0.13 0.048,-0.315c-0.101,-0.385 0.362,-4.749 0.552,-5.264c0.082,-0.222 0.166,-0.335 0.246,-0.351l0.002,-0Zm-36.077,1.661c0.946,0.371 1.216,3.535 0.192,6.595c-0.44,1.315 -1.117,2.174 -2.125,2.704c-0.72,0.378 -0.888,0.258 -0.564,-0.401c0.598,-1.075 0.917,-2.19 1.158,-3.577c0.097,-1.354 -0.616,-0.267 -0.556,0.311c-0.558,2.526 -1.291,2.906 -1.196,0.246c0.07,-1.961 0.325,-2.801 1.246,-4.149c0.463,-0.674 0.959,-1.603 1.845,-1.729Zm32.835,0.318c0.389,0 0.484,0.528 0.135,1.548c-0.241,0.707 -1.063,2.996 -0.966,2.987c0.06,-0.007 0.943,-2.063 1.122,-2.399c0.296,-0.552 0.405,-0.657 0.664,-0.632c0.253,1.016 -0.008,2.286 -0.131,3.339c-0.535,2.743 -2.398,5.576 -3.112,4.733c-1.163,-1.374 -0.619,-6.938 0.924,-8.629c0.581,-0.637 1.062,-0.949 1.364,-0.947Zm-49.859,0.421c1.406,9.704 -6.579,13.847 -13.478,10.92c0.146,-0.037 13.478,-10.92 13.478,-10.92Zm32.644,0.179l1.39,1.831l2.548,0.134l-1.305,1.928l1.298,2.47l-2.844,0.055l-1.635,1.885l-1.423,-1.703l-2.486,-0.133l1.449,-2.317l-1.168,-2.218l2.683,-0.127l1.493,-1.805Zm-21.389,0.835c0.32,0.011 1.892,2.083 2.048,2.848c0.475,1.852 0.3,5.356 -0.365,5.236c-0.721,-2.524 -0.441,-3.829 -0.7,-3.539c-0.448,0.464 0.278,4.334 0.04,5.287c-0.114,0.243 -0.5,-0.05 -0.933,-0.674c-1.156,-1.667 -1,-8.189 -0.116,-9.151c0.007,-0.007 0.016,-0.007 0.026,-0.007l0,-0Zm85.112,3.931l-31.452,26.128l1.814,2.341l29.696,-24.584l-0.058,-3.885Zm-45.428,0.451c0.138,-0.028 0.452,0.193 1.042,0.842c1.029,1.394 2.12,3.308 2.517,4.78c0.151,0.573 0.394,1.331 0.54,1.686c0.221,0.533 0.238,0.681 0.108,0.842c-0.545,0.673 -2.823,-1.022 -3.558,-2.645c-1.033,-2.28 -1.059,-4.335 -0.023,-2.334c0.376,0.728 0.843,1.789 0.838,1.368c0,-0.12 -0.458,-1.649 -0.807,-2.33c-0.217,-0.429 -1.008,-2.137 -0.657,-2.209l0,-0Zm45.095,0.635l0.066,2.163l-29.295,24.566l-1.149,-1.403c0,-0 27.592,-23.011 30.378,-25.326l-0,-0Zm-45.736,1.337c0.137,0.014 0.209,0.21 0.167,0.65c-0.134,1.428 -0.485,4.537 -0.412,4.811c0.044,0.165 0.463,-2.059 0.559,-2.454c0.501,-2.061 1.266,2.866 0.805,5.073c-0.072,0.347 -0.219,0.906 -0.296,1.25c-0.076,0.344 -0.32,0.931 -0.419,1.086c-0.83,1.309 -2.78,-3.901 -2.451,-6.555c0.204,-1.654 1.555,-3.911 2.047,-3.861Zm-33.89,1.14c0.383,-0.02 0.456,0.357 0.391,1.15c-0.221,2.717 -2.023,5.571 -3.998,6.33c-1.966,0.756 -2.148,0.604 -0.982,-0.806c0.883,-1.07 1.42,-2.192 1.271,-2.337c-0.082,-0.08 -0.279,0.368 -0.995,1.289c-0.897,1.155 -1.046,0.177 -0.229,-1.52c0.705,-1.465 1.363,-2.231 2.688,-3.127c0.935,-0.632 1.516,-0.96 1.854,-0.979Zm17.813,0.826c-0.396,11.704 -3.306,24.419 -8.924,35.472l-5.249,0.012c6.427,-9.493 10.53,-21.247 11.671,-35.432l2.502,-0.052Zm2.307,0.012c0,-0 0.788,0.819 1.108,1.371c0.353,0.609 0.452,1.142 -0.19,1.597c-0.745,0.632 -1.056,0.397 0.159,1.964c0.64,0.825 0.432,0.961 -0.362,1.656c-0.819,0.718 -0.866,0.757 -0.104,1.727c0.814,1.037 0.961,1.195 -0.102,1.997c-0.957,0.722 -0.968,0.893 -0.221,2.066c0.689,1.081 0.897,1.069 -0.423,2.188c-1.128,0.956 -1.156,0.692 -0.068,2.451c0.4,0.647 0.375,0.69 -0.359,1.341c-1.803,1.599 -1.711,1.499 -1.455,1.92c1.976,2.84 1.084,2.758 -0.849,4.113c-0.39,0.335 -0.29,0.712 0.582,2.131c0.742,1.206 0.634,1.468 -1.103,2.666c-1.809,1.247 -1.868,1.415 -0.964,2.688c0.891,1.253 0.911,1.167 -0.536,2.461c-0.653,0.584 -1.188,1.123 -1.188,1.123l-3.207,0c0,0 0.678,-0.62 1.139,-0.963c2.632,-1.953 2.621,-1.746 1.511,-3.155c-0.982,-1.246 -0.887,-1.329 0.109,-2.042c0.716,-0.513 1.682,-1.041 2.406,-1.565c0.39,-0.278 0.099,-0.51 -0.55,-1.742c-0.728,-1.38 -0.767,-1.221 0.587,-2.338c1.482,-1.223 1.507,-1.178 0.703,-2.727c-0.806,-1.554 -0.817,-1.419 0.2,-2.252c1.513,-1.238 1.585,-1.171 0.789,-2.605c-0.635,-1.144 -0.641,-1.113 0.431,-2.187c1.081,-1.083 0.946,-1.014 0.306,-2.006c-0.651,-1.008 -0.616,-1.143 0.241,-1.909c0.924,-0.824 0.792,-0.773 0.025,-1.826c-0.755,-1.038 -0.743,-0.961 0.175,-1.765c0.483,-0.423 0.968,-0.854 0.941,-1.052c-0.071,-0.513 -0.559,-1.24 -1.029,-1.94c-0.179,-0.267 0.179,-0.349 0.753,-0.947c0.584,-0.608 0.558,-0.455 0.117,-1.262c-0.239,-0.436 -0.692,-1.173 -0.692,-1.173l1.12,-0.004Zm-8.593,0.028l0.914,0.023c-0,0 0.157,0.208 0.369,0.425c0.587,0.6 0.612,0.952 0.022,1.274c-0.565,0.309 -0.349,0.741 0.123,1.437c0.502,0.739 0.498,0.653 -0.22,1.379c-0.742,0.605 -1.126,0.776 -0.308,1.921c0.465,0.53 0.407,1.079 -0.315,1.554c-0.555,0.366 -1.476,0.669 -0.504,2.061c0.474,0.991 0.511,0.928 -0.479,1.632c-1.316,0.937 -1.563,0.775 -0.959,2.14c0.672,1.518 0.738,1.54 -0.641,2.558c-1.604,1.184 -1.658,1.28 -0.991,2.697c0.674,1.429 0.691,1.066 -1.006,2.391c-1.243,0.971 -1.526,1.025 -1.158,1.828c0.69,1.504 0.983,1.907 -1.029,2.941c-2.323,1.193 -2.441,1.282 -1.325,3.058c0.907,1.444 0.706,1.24 -0.792,2.104c-2.166,1.25 -3.123,1.793 -3.19,2.181c-0.044,0.439 1.689,1.746 1.689,1.746l-3.022,0.082c-0,-0 -1.271,-1.035 -1.764,-1.517c-1.368,-1.334 -1.381,-0.896 3.163,-3.108c2.508,-1.22 2.297,-0.944 1.888,-1.656c-1.209,-2.103 -1.251,-2.321 1.018,-3.466c1.972,-0.996 1.633,-1.067 1.154,-2.572c-0.418,-1.311 -0.352,-1.191 0.687,-1.963c2.512,-1.869 2.443,-1.675 2.051,-2.591c-0.386,-0.901 -0.681,-1.321 -0.391,-1.765c0.905,-1.302 2.83,-1.577 2.043,-3.127c-0.367,-1 -0.499,-1.224 0.61,-2.089c0.999,-0.834 1.005,-0.733 0.365,-1.835c-0.78,-1.011 -0.668,-1.177 0.473,-1.971c0.813,-0.745 0.803,-0.726 0.346,-1.453c-0.629,-1.003 -0.598,-1.034 0.3,-1.824c0.732,-0.643 0.858,-0.678 0.392,-1.387c-0.619,-0.941 -0.516,-1.148 0.3,-1.609c0.5,-0.283 0.497,-0.398 0.455,-0.876c-0.009,-0.092 -0.27,-0.623 -0.27,-0.623l0.002,-0Zm11.34,0.054l4.208,0.012c1.344,7.823 3.691,11.034 5.047,13.511c-5.32,8.564 -4.11,15.676 -0.862,21.971l-13.326,-0.048c3.416,-11.72 5.177,-23.512 4.933,-35.444l0,-0.002Zm-28.882,0.031c0.154,-0.011 0.264,0.24 0.525,0.686c0.843,1.441 0.247,3.485 -0.987,5.626c-0.923,1.602 -1.09,0.378 -0.668,-1.928c0.266,-1.455 -0.465,0.724 -0.812,2.48c-0.189,0.953 -0.645,1.721 -1.139,1.676c-0.466,-0.076 -0.321,-1.411 -0.306,-1.706c0.105,-2.103 0.886,-3.592 2.404,-5.68c0.575,-0.791 0.807,-1.141 0.983,-1.154Zm42.955,4.115c0.2,-0.009 0.479,0.074 0.824,0.272c0.268,0.154 0.749,0.447 1.083,0.632c1.167,0.644 1.262,0.839 0.707,1.487c-0.685,0.801 -1.125,0.496 -2.311,-0.838c-0.801,-0.899 -0.814,-1.53 -0.303,-1.553Zm-0.389,1.76c0.189,0.008 0.577,0.208 0.955,0.643c0.769,0.882 0.677,1.628 -0.173,1.415c-0.348,-0.509 -0.528,-1.286 -0.86,-1.859c-0.075,-0.13 -0.035,-0.201 0.078,-0.199Zm37.583,0.114c-0.745,0.001 -1.99,0.987 -2.228,1.989c-0.724,3.061 -0.723,2.929 -0.075,3.374c0.191,0.131 0.333,0.227 0.427,0.285c0.381,0.301 0.9,0.766 0.968,0.674c0.619,-0 1.557,-3.917 1.526,-4.725c0.039,-0.853 0.07,-0.957 -0.143,-1.345c-0.096,-0.175 -0.266,-0.252 -0.474,-0.252l-0.001,-0Zm-38.154,0.066c0.05,-0.01 0.111,0.017 0.186,0.078c0.488,0.487 0.685,1.358 0.933,1.982c-0,0.135 -0.055,0.357 -0.124,0.491c-0.422,0.812 -1.078,0.024 -1.146,-1.376c-0.038,-0.787 -0,-1.147 0.151,-1.175Zm38.039,0.604l0.095,-0c0.5,0.022 0.422,0.541 -0.273,1.293c-0.365,0.395 -1.119,0.582 -1.368,0.338c-0.362,-0.355 0.386,-1.33 1.201,-1.565c0.132,-0.039 0.247,-0.06 0.345,-0.066l0,-0Zm-84.513,0.427l0.081,0c0.261,0.017 0.481,0.135 0.653,0.335c0.333,0.413 0.193,1.052 0.035,1.586c-0.395,1.399 -3.01,4.107 -3.947,4.118c-0.559,-0.098 1.776,-3.072 1.849,-3.573c-0.174,-0.17 -1.62,1.505 -2.3,2.669c-0.307,0.527 -0.657,1.177 -0.843,1.29c-0.487,0.057 -1.05,0.367 -1.053,0.038c0.08,-1.486 2.982,-4.724 3.971,-5.625c0.607,-0.573 1.132,-0.83 1.554,-0.838l-0,0Zm6.996,0.141c2.242,-0.024 -2.17,4.893 -5.026,5.602c-0.889,0.221 -2.53,0.279 -2.647,0.094c-0.117,-0.185 0.015,-0.337 0.381,-0.433c0.589,-0.156 3.507,-2.016 3.505,-2.235c-0,-0.276 -1.209,0.181 -2.238,0.849c-0.667,0.433 -0.98,0.343 -0.618,-0.179c1.676,-2.417 3.919,-3.667 6.643,-3.698Zm38.802,0.008c0.127,0.01 0.254,0.264 0.334,0.83c0.407,1.054 0.425,1.342 0.043,1.652c-0.658,0.53 -0.819,0.382 -0.811,-0.838c0.007,-1.005 0.222,-1.662 0.434,-1.644l-0,-0Zm-73.845,1.399c0,-0 0.817,0.306 0.477,0.696c-0.236,0.271 -1.243,0.041 -1.243,-0.038l0.766,-0.658Zm112.612,0.031c0.267,-0.018 0.272,0.23 0.131,0.854c-0.074,0.327 -0.396,2.049 -0.967,2.527c-0.069,0.046 -0.897,-0.449 -1.123,-0.677c-0.103,-0.106 -0.427,-0.348 -0.47,-0.507c-0.141,-0.521 0.01,-1.197 0.404,-1.534c0.154,-0.132 0.464,-0.206 0.63,-0.208c0.131,0 0.516,-0.128 0.858,-0.28c0.239,-0.107 0.416,-0.167 0.537,-0.175Zm-112.325,1.189c0.538,-0.008 1.199,0.054 1.76,0.245c1.653,0.482 4.685,1.843 5.151,2.29c0.679,0.65 -1.092,1.344 -3.224,1.368c-1.13,0.013 -1.342,-0.223 -2.906,-1.161c-0.2,-0.133 -1.112,-0.733 -0.847,-0.951c0.29,-0.297 1.162,0.085 2.25,0.639c0.354,0.181 1.217,0.129 1.215,-0.031c0,-0.188 -2.172,-0.998 -3.799,-1.516c-1.068,-0.34 -1.043,-0.683 -0.389,-0.829c0.188,-0.029 0.466,-0.051 0.789,-0.053l0,-0.001Zm-2.136,0.743c-0,0 0.449,0.4 1.033,0.838c0.633,0.475 1.368,1.062 1.88,1.843c0.74,0.905 1.91,3.156 1.779,3.563c-0.299,0.935 -3.423,-0.705 -5.978,-3.268c-0.831,-0.833 -1.317,-1.453 -1.317,-1.453l0.974,-0.884c-0,0 0.857,0.718 1.846,1.593c1.856,1.642 1.843,1.078 -0.023,-0.651c-0.528,-0.488 -1.014,-0.927 -1.014,-0.927c0.025,-0.313 0.32,-0.59 0.82,-0.654l-0,0Zm76.331,0.078c-0,0 0.998,1.037 1.368,1.515c-6.08,5.961 -8.403,14.289 -2.534,23.157l-2.816,-0.012c-5.276,-10.41 -2.775,-18.248 3.982,-24.66l-0,0Zm-51.428,0.245c0.378,-0.017 0.034,0.43 -0.637,1.574c-1.253,2.138 -1.501,2.677 -3.536,3.21c-0.524,0.136 -1.27,0.028 -1.577,0.066c-0.875,0.11 -0.486,-0 0.855,-0.871c1.857,-1.208 0.28,-0.587 -1.438,0.299c-0.994,0.514 -2.038,0.488 -2.129,0.222c-0.05,-0.146 0.404,-0.533 0.696,-0.795c2.616,-2.345 3.417,-2.246 5.851,-3.093c1.061,-0.37 1.657,-0.6 1.915,-0.611l0,-0.001Zm-10.932,2.133l-0,0.003c0.946,0.007 1.829,0.102 2.614,0.278c0.52,0.117 1.366,0.221 0.652,0.868c-0.808,0.763 -2.991,1.804 -4.607,1.874c-0.227,0.008 -3.554,-0.228 -2.844,-0.944c0.142,-0.079 0.594,-0.058 0.983,-0.132c1.843,-0.35 1.345,-0.648 -0.924,-0.526c-2.842,0.152 -2.973,-0.142 -0.821,-0.732c1.574,-0.431 3.12,-0.653 4.538,-0.682c0.138,0 0.273,-0.007 0.409,-0.007Zm15.183,0.225c1.265,-0.013 2.248,0.213 2.253,0.696c0.009,0.784 -2.388,2.505 -3.96,2.845c-0.37,0.08 -0.895,0.196 -1.168,0.257c-0.548,0.124 -3.586,0.018 -3.882,-0.089c-1.422,-0.518 -0.433,-0.723 2.175,-1.026c1.135,-0.132 1.677,-0.43 1.675,-0.647c-0,-0.105 -0.838,-0.134 -2.082,0.024c-1.391,0.176 -1.118,-0.233 0.613,-1.133c1.144,-0.594 2.943,-0.913 4.376,-0.927l0,-0Zm-23.409,1.086c0.177,0.007 0.604,0.151 1.313,0.448c1.514,0.442 3.596,0.942 5.02,2.501c1.151,1.117 1.431,1.478 1.189,1.871c-0.293,0.476 -3.864,0.113 -5.366,-0.531c-0.992,-0.425 -2.174,-1.337 -2.715,-2.126c-1.309,-1.912 -0.758,-2.417 0.905,-1.08c2.005,1.61 2.302,1.776 2.658,1.703c0.143,-0.029 -0.21,-0.361 -0.882,-0.861c-1.688,-1.258 -2.511,-1.935 -2.122,-1.925Zm12.352,2.054c1.679,0 2.041,0.128 3.671,0.876c2.04,0.721 1.545,1.362 -2.075,2.267c-1.813,0.427 -3.637,0.128 -4.962,-0.689c-2.917,-1.8 -2.724,-2.161 0.533,-1.356c1.071,0.264 2.137,0.314 2.203,0.113c0.05,-0.154 -1.244,-0.484 -2.296,-0.833c-1.139,-0.379 -0.16,-0.347 2.118,-0.371c0.301,0 0.568,-0.007 0.808,-0.007l-0,0Zm83.955,7.777c0,-0 -0.372,0.177 -0.537,0.267c-0.13,0.072 -1.139,0.199 -2.242,0.281c-3.715,0.213 -6.587,1.112 -8.283,4.323c1.49,-0.101 9.92,1.428 12.259,-1.618c0.489,-0.637 -1.258,4.814 -2.154,5.056c-2.222,-0.268 -3.157,3.227 -2.934,3.08c-2.241,0.871 -3.979,1.382 -3.41,3.99c0.249,1.137 1.399,2.488 3.835,2.148c-0.663,4.522 4.855,5.693 5.463,0.241c0,0 1.076,-0.205 1.491,-0.254c2.516,-0.598 3.127,-4.285 -0.567,-5.455c-1.024,-0.304 -1.083,-0.497 -1.083,-0.497c0.191,-0.832 0.146,-1.704 -0.454,-2.674c0.814,-1.947 2.842,-5.702 2.842,-5.702l-4.226,-3.186Zm-0.307,0.996c0.356,0 0.617,0.032 0.697,0.128c0.508,0.68 -2.14,1.807 -4.96,2.05c-0.632,0.054 -2.024,0.182 -2.06,0.245c-0.304,0.534 5.454,0.146 7.247,-0.861c0.614,-0.344 0.67,-0.042 0.403,0.49c-2.082,2.684 -7.108,2.023 -11.037,1.552c-0.224,-0.227 -0.032,-0.504 0.848,-1.22c1.614,-1.314 2.777,-1.753 5.326,-2.015c0.534,-0.017 2.467,-0.361 3.536,-0.369Zm2.84,2.11c0.576,-0.044 1,0.381 0.971,0.795c-0.362,1.155 -2.254,4.68 -2.254,4.68c-0.233,0.232 -1.06,0.396 -0.998,-0.496c0.01,-0.957 1.798,-4.903 2.281,-4.979Zm3.488,0.13c-0.618,0.046 -1.309,0.444 -1.318,0.934c0.554,4.044 3.614,5.007 6.551,6.281c0.773,0.356 1.429,0.987 2.204,1.395c1.451,-1.985 -0.185,-5.839 -2.74,-7.095c-1.898,-0.888 -3.627,-1.595 -4.697,-1.515Zm0.252,0.693c3.134,-0.106 7.133,2.481 7.406,5.676c0.019,0.102 0.152,2.056 -0.295,1.987c-0.674,-0.195 -1.037,-0.875 -2.118,-1.329c-2.247,-1.071 -5.29,-2.021 -5.971,-4.932c-0.116,-0.818 0.157,-0.901 0.843,-0.241c1.536,1.226 3.05,1.644 4.569,2.828c0.421,0.329 1.936,1.171 0.901,0.123c-0.7,-0.71 -2.762,-1.948 -3.858,-2.476c-1.522,-0.734 -2.351,-1.626 -1.477,-1.636Zm-115.115,3.989c-0.478,0 -0.971,0.017 -1.478,0.047l17.355,27.204c-4.271,2.259 -6.378,3.249 -13.471,2.692l0.027,0.359l-3.014,-0.177c5.206,8.148 11.63,18.777 9.807,37.321l21.265,-0.022c0.407,0.58 0.486,0.424 0.995,-0.031l9.554,-0.052l0.257,0.311l4.445,-0.031c0,-0 -20.33,-38.152 -30.542,-57.095c-3.933,-7.124 -8.018,-10.534 -15.2,-10.525l0,-0.001Zm107.96,0.948c1.139,-0.028 2.272,0.756 2.28,2.282c0.008,0.795 -0.665,1.903 -0.665,1.903l-1.549,-1.48l-1.48,1.486c-0.729,-0.605 -1.16,-1.754 -0.922,-2.409c0.456,-1.118 1.449,-1.76 2.336,-1.782Zm-17.95,0.545c1.469,5.739 3.052,13.654 -9.682,31.94c-7.534,10.819 -9.999,21.025 -10.3,33.481l-0.761,0.009c0.36,-6.836 0.408,-19.231 0.408,-19.231l0.711,-0.635c-0,0 -0.324,-0.526 -0.467,-1.144c-0.24,-1.043 -0.038,-0.695 0.583,-3.495c2.604,-13.521 19.508,-40.925 19.508,-40.925Zm-68.015,2.629l64.553,0.297l-0.858,1.698l-62.466,-0.448l-1.229,-1.547Zm86.046,0.491l2.396,2.341l-2.342,2.637l-2.468,-2.586l2.414,-2.392Zm-4.062,0.073c0.699,-0.013 1.452,0.27 2.096,0.923l-1.308,1.395l1.134,1.196c-1.167,2.456 -4.274,0.539 -4.17,-1.299c0.076,-1.344 1.085,-2.192 2.248,-2.215Zm7.833,0.223c1.176,-0.016 2.075,1.12 2.197,2.215c0.187,1.698 -2.453,3.614 -3.792,1.257l1.042,-1.327l-1.178,-1.295c0.603,-0.597 1.196,-0.842 1.731,-0.85Zm-3.755,0.982l-1.167,1.167l1.167,1.165l1.167,-1.165l-1.167,-1.167Zm-74.293,0.866l5.288,0.05l-1.966,3.688l-5.362,-0.022l2.04,-3.716Zm11.78,0.028l4.857,-0l-2.053,3.738l-4.914,0l2.11,-3.738Zm11.469,-0l5.152,-0l-2.091,3.738l-5.291,0l2.23,-3.738Zm11.53,-0l5.274,-0l-1.92,3.738l-5.471,0l2.117,-3.738Zm11.745,-0l5.082,-0l-2.058,3.738l-5.229,0l2.205,-3.738Zm-56.117,0.017l3.416,0l-1.395,2.463l-2.021,-2.463Zm82.479,2.278l1.467,1.345l1.208,-1.263c1.955,1.574 0.597,4.159 -1.439,4.205c-1.402,0.031 -3.439,-2.348 -1.236,-4.287Zm-69.161,2.071l4.966,-0l-1.868,3.365l-4.865,-0l1.767,-3.365Zm11.039,0.026l5.447,0l-1.92,3.367l-5.183,-0l1.656,-3.367Zm11.662,0l5.421,0l-1.767,3.367l-5.475,-0l1.821,-3.367Zm11.621,0l5.377,0l-1.675,3.367l-5.684,-0l1.982,-3.367Zm-44.345,0.129l3.427,0l-1.461,2.696l-1.966,-2.696Zm2.584,3.904l50.316,0.448l-0.855,1.635l-48.183,0.009l-1.278,-2.092Zm1.767,2.93l47.151,0.116l-1.084,2.263l-16.29,-0.074c-3.179,-2.379 -6.812,-1.28 -10.956,0.074c-0,-0 -12.471,0.13 -17.375,-0l-1.446,-2.379Zm-15.68,9.59l24.869,39.359l-5.497,-0.062l-23.615,-37.025l4.243,-2.272Zm-4.985,2.564l23.478,36.786c-1.077,-0.025 -2.077,0.041 -3.154,0.025c0.436,-6.87 -5.077,-10.092 -8.317,-10.256c1.943,-8.034 -3.899,-11.415 -7.795,-12.053c1.58,-10.442 -7.041,-11.922 -7.166,-11.817c0.042,-0.857 -0.119,-1.474 -0.234,-2.189c1.038,-0.045 2.088,-0.141 3.188,-0.496Zm-3.803,0.582c-0.051,0.221 0.442,2.303 -0.486,1.92l-0.066,-1.915l0.552,-0.005Zm-6.034,0.012l1.091,0.044c0.336,1.383 1.045,1.657 2.007,2.585c0,0 -1.231,0.211 -1.517,0.013c-0.512,-0.355 -1.581,-2.642 -1.581,-2.642l-0,0Zm4.762,2.382c0.596,0 1.078,0.486 1.078,1.083c-0,0.597 -0.482,1.079 -1.078,1.079c-0.595,-0 -1.075,-0.482 -1.075,-1.079c-0,-0.597 0.48,-1.083 1.075,-1.083Zm2.134,0.832c3.088,-0.203 7.567,3.118 6.386,9.333c-0.206,-0.434 -0.448,-1.388 -0.949,-2.066c-2.129,-2.879 -4.637,1.066 -2.947,2.676c0.828,0.789 1.216,1.101 1.127,1.173c-1.904,-0.363 -3.345,1.327 -2.553,3.203c1.32,2.428 3.155,1.142 4.217,-0.298c-0,-0 0.654,2.172 1.304,2.448c0.995,0.423 2.367,-0.113 2.835,-1.318c0.696,-1.793 -0.996,-2.252 -1.368,-3.251c3.572,0.117 8.124,5.351 6.053,9.892c0.271,-1.035 -0.835,-3.353 -2.986,-2.756c-1.074,0.377 -1.449,1.947 -0.582,3.561c0.277,0.517 0.427,0.71 0.427,0.71c-0,-0 -0.93,0.122 -1.175,0.273c-2.791,1.723 0.807,6.425 2.884,3.486c0.212,-0.349 0.559,-0.748 0.559,-0.748c0.343,0.654 0.449,1.575 1.075,1.891c2.571,1.298 3.717,-1.442 2.636,-2.785c-0.608,-0.756 -1.295,-1.629 -1.295,-1.629c-0.107,-0.484 7.707,1.571 6.756,9.193l-20.716,-0.028c1.92,-11.709 -2.729,-25.104 -5.102,-29.186l1.027,-1.361c0.258,0.506 0.686,1.781 1.442,2.025c2.403,0.776 3.136,-0.911 2.814,-2.642c-0.172,-0.922 -1.46,-1.661 -1.869,-1.795l0,-0.001Zm5.485,11.019c0.565,-0 1.023,0.462 1.023,1.028c0,0.567 -0.458,1.026 -1.023,1.026c-0.565,-0 -1.025,-0.459 -1.025,-1.026c-0,-0.566 0.46,-1.028 1.025,-1.028Zm7.775,12.198c0.571,0 1.033,0.464 1.033,1.036c0,0.572 -0.462,1.036 -1.033,1.036c-0.57,0 -1.033,-0.464 -1.033,-1.036c0,-0.572 0.463,-1.036 1.033,-1.036Z" style="fill-rule:nonzero;"/></g></g><path id="path147-0-8-1-3-6-7-5-8" d="M130.708,223.293c7.854,-0.17 11.376,-9.003 5.559,-15.861c-0.843,-1.001 -0.93,-1.575 0.615,-0.614c3.916,2.616 11.426,0.896 11.811,-7.101c0.475,-9.853 -13.31,-12.692 -15.898,-2.214c-0.137,1.105 -1.036,1.08 -0.82,-0.489c0.236,-4.259 1.568,-8.239 3.398,-12.121l-9.337,-0c1.83,3.882 3.162,7.862 3.398,12.121c0.217,1.569 -0.683,1.594 -0.82,0.489c-2.588,-10.478 -16.372,-7.639 -15.897,2.214c0.384,7.997 7.894,9.717 11.81,7.101c1.546,-0.961 1.459,-0.387 0.615,0.614c-5.817,6.858 -2.295,15.691 5.559,15.861c0,-0 0,-0 0.008,-0l-0.001,-0Z" style="fill-rule:nonzero;"/><path id="path147-0-8-1-0-3-83-6-6-4" d="M47.882,26.156c7.854,0.17 11.376,9.003 5.559,15.861c-0.844,1.001 -0.931,1.575 0.614,0.614c3.917,-2.616 11.427,-0.896 11.811,7.1c0.475,9.854 -13.309,12.692 -15.898,2.215c-0.136,-1.105 -1.036,-1.08 -0.819,0.489c0.236,4.259 1.568,8.239 3.398,12.121l-9.338,-0c1.831,-3.882 3.162,-7.862 3.399,-12.121c0.216,-1.569 -0.683,-1.594 -0.82,-0.489c-2.588,10.477 -16.373,7.639 -15.898,-2.215c0.385,-7.996 7.895,-9.716 11.811,-7.1c1.545,0.961 1.458,0.387 0.615,-0.614c-5.818,-6.858 -2.295,-15.691 5.559,-15.861c0,-0 0,-0 0.008,-0l-0.001,-0Z" style="fill-rule:nonzero;"/></g></svg>