<?xml version="1.0" encoding="UTF-8" standalone="no"?><!DOCTYPE svg PUBLIC "-//W3C//DTD SVG 1.1//EN" "http://www.w3.org/Graphics/SVG/1.1/DTD/svg11.dtd"><svg width="100%" height="100%" viewBox="0 0 179 250" version="1.1" xmlns="http://www.w3.org/2000/svg" xmlns:xlink="http://www.w3.org/1999/xlink" xml:space="preserve" xmlns:serif="http://www.serif.com/" style="fill-rule:evenodd;clip-rule:evenodd;stroke-linejoin:round;stroke-miterlimit:2;"><g id="g6503"><path id="rect7399-8-3" d="M178.583,7.972c-0,-4.4 -3.573,-7.972 -7.973,-7.972l-162.638,-0c-4.4,-0 -7.972,3.572 -7.972,7.972l0,233.504c0,4.4 3.572,7.973 7.972,7.973l162.638,-0c4.4,-0 7.973,-3.573 7.973,-7.973l-0,-233.504Z" style="fill:#fff;"/><path id="path7431-0-1" d="M13.774,39.979c-3.449,4.385 -7.138,6.909 -7.2,10.331c-0.021,1.108 0.651,2.991 2.755,3.351c1.365,0.233 3.245,-0.752 3.284,-2.754c-0.008,-0.398 0.473,-0.388 0.469,0.158c-0.065,1.579 -0.625,3.417 -1.567,4.914l4.518,-0c-0.942,-1.497 -1.503,-3.335 -1.567,-4.914c-0.008,-0.546 0.475,-0.556 0.469,-0.158c0.039,2.002 1.918,2.987 3.283,2.754c2.104,-0.36 2.776,-2.243 2.755,-3.351c-0.062,-3.422 -3.751,-5.946 -7.199,-10.331Z" style="fill-rule:nonzero;"/><path id="path7435-3-6" d="M164.809,209.47c-3.448,-4.385 -7.138,-6.909 -7.199,-10.331c-0.021,-1.108 0.651,-2.991 2.755,-3.351c1.365,-0.233 3.244,0.752 3.284,2.754c-0.008,0.398 0.473,0.388 0.468,-0.158c-0.064,-1.579 -0.624,-3.417 -1.566,-4.914l4.517,0c-0.942,1.497 -1.502,3.335 -1.566,4.914c-0.009,0.546 0.474,0.556 0.468,0.158c0.04,-2.002 1.919,-2.987 3.284,-2.754c2.104,0.36 2.776,2.243 2.755,3.351c-0.062,3.422 -3.751,5.946 -7.2,10.331Z" style="fill-rule:nonzero;"/><path id="path37-0-2-9" d="M7.958,28.734l-2.206,0l-0,-3.007l2.206,-0c-0,-0 0.017,-1.621 0.08,-4.48c0.137,-6.094 0.289,-7.04 2.053,-8.717c3.484,-3.314 9.318,-0.614 9.249,4.371c-0.101,7.034 -0.028,13.741 -0.234,14.691c-0.365,1.673 -0.402,1.768 -0.253,2.073c0.306,0.614 2.941,0.88 2.941,0.709l-0,2.962c-2.013,0.156 -2.849,-0.033 -4.46,-1.183c-1.005,0.971 -4.066,1.945 -6.5,0.799c-1.852,-0.872 -3.255,-3.123 -2.876,-8.218Zm7.457,5.251c-1.094,-1.58 -2.934,-3.736 -4.665,-4.502c-0.108,1.817 0.049,3.34 0.687,4.159c1.016,1.305 2.659,1.603 3.978,0.343Zm0.907,-17.375c-0.812,-2.299 -2.896,-3.078 -4.42,-1.64c-0.952,0.895 -1.104,1.836 -1.125,6.952c-0.012,3.155 -0.012,4.482 -0.012,4.482c2.965,0.961 5.737,4.418 5.713,4.373l0.073,-9.542c0.058,-1.549 -0.019,-3.099 -0.228,-4.625l-0.001,-0Z" style="fill-rule:nonzero;"/><path id="path37-0-5-5-3" d="M170.623,220.715l2.206,-0l0,3.007l-2.206,0c0,0 -0.017,1.621 -0.08,4.48c-0.137,6.093 -0.289,7.039 -2.053,8.717c-3.484,3.314 -9.318,0.614 -9.249,-4.371c0.101,-7.034 0.028,-13.741 0.234,-14.691c0.365,-1.673 0.402,-1.768 0.253,-2.074c-0.306,-0.613 -2.941,-0.879 -2.941,-0.708l0,-2.962c2.013,-0.156 2.849,0.033 4.46,1.182c1.005,-0.97 4.066,-1.944 6.5,-0.798c1.852,0.872 3.255,3.123 2.876,8.218Zm-7.457,-5.251c1.094,1.58 2.934,3.736 4.665,4.501c0.108,-1.816 -0.049,-3.339 -0.687,-4.158c-1.017,-1.305 -2.659,-1.603 -3.978,-0.343Zm-0.907,17.375c0.812,2.299 2.896,3.078 4.42,1.64c0.952,-0.895 1.104,-1.837 1.125,-6.952c0.012,-3.155 0.012,-4.482 0.012,-4.482c-2.965,-0.961 -5.737,-4.418 -5.714,-4.373l-0.072,9.542c-0.058,1.549 0.019,3.099 0.228,4.625l0.001,0Z" style="fill-rule:nonzero;"/><path id="path4075-4-3-9" d="M81.663,228.936l18.779,-34.271c-0,0.008 4.479,1.768 9.782,3.146c-5.09,13.285 -0.037,30.808 -0.037,30.808c-0,0 -28.539,0.288 -28.525,0.317l0.001,-0Zm-51.463,-58.522c-1.065,-14.554 0.616,-26.896 1.293,-40.262c0.044,-0.186 -6.099,-3.994 -6.099,-3.994l14.439,-8.148c1.438,0.747 2.264,0.617 2.604,-0.766c-1.456,-4.957 -1.742,-9.757 1.594,-13.863c2.5,-3.001 8.206,-1.459 9.866,-1.466c1.292,-0.005 4.367,-10.239 -0.833,-13.256c-1.102,-0.64 -1.624,5.973 -2.375,8.753c-3.347,-1.957 -9.533,-3.606 -10.359,-7.059c-0.423,-1.913 5.654,-5.595 4.461,-7.752c-1.738,-3.141 -6.228,-7.84 -8.15,-6.55c-1.816,1.643 -6.149,5.002 -6.12,7.3c1.353,4.12 4.794,4.407 6.602,8.305c0.45,0.842 3.776,4.383 3.776,4.383c-1.249,1.911 0.771,5.252 0.865,4.741l-15.752,-6.874c0,0 3.611,27.212 -0.202,31.24c-0.404,0.426 3.373,-1.068 3.437,-0.835c1.148,1.455 13.87,9.556 17.512,12.468c6.466,-9.033 8.828,-13.007 17.163,-21.022c1.829,-1.514 5.907,-4.28 8.239,-7.603c1.874,-2.67 2.651,-5.678 2.314,-8.012c-0.435,-3.019 -0.703,-5.084 -2.563,-7.49c-4.298,-5.557 -11.133,-10.858 -11.013,-10.955l2.336,-1.903c0,-0 8.43,6.982 12.001,12.117c2.405,3.459 2.426,8.217 2.426,8.217c-0,0 4.879,-0.194 5.997,0.021c0.135,0.026 20.734,18.749 20.734,18.749l-38.893,0.148c-7.261,6.858 -11.145,12.693 -18.064,22.543c-0.413,-0.181 -12.599,-9.829 -12.091,-8.747c-0,0 2.922,26.425 1.622,36.095c-0.892,8.215 -2.113,17.037 -2.658,24.613c1.728,-0.377 4.278,-0.868 4.761,1.773c0.422,3.606 -4.215,2.769 -4.323,2.457c0.008,-0.003 2.588,5.564 2.588,5.564c0,-0 -4.016,6.938 -3.904,6.636c0.069,-0.187 -3.651,-6.159 -3.651,-6.159c0,-0 2.761,-5.014 3.177,-6.031c0.284,-0.694 -4.226,1.83 -4.403,-1.829c-0.182,-3.765 4.706,-2.867 4.452,-2.391c-0.603,-8.05 -1.952,-16.373 -2.806,-23.156l0,0Zm60.388,18.111c0.111,-0.084 -10.659,-4.328 -20.551,-3.928c-3.486,-1.359 -9.17,-2.781 -12.965,-0.248c-4.267,-2.893 -7.95,-6.079 -11.693,-9.234c1.048,-0.014 5.557,-25.936 7.542,-34.115c-1.145,-10.944 9.383,-10.936 10.297,-2.17c11.343,11.744 25.231,23.892 39.546,35.843c-2.277,4.73 -10.497,8.336 -12.176,13.852Zm24.799,-77.419c-12.932,-13.202 -39.995,-36.804 -39.995,-36.804l12.669,-12.381c6.65,1.984 13.484,3.643 21.209,3.721c0.03,0.03 8.466,3.843 12.961,-0.01l11.694,9.279c0,-0 -4.85,25.545 -7.698,34.461c0.06,3.531 -1.274,7.833 -4.757,8.472c-2.975,0.545 -5.263,-3.678 -6.083,-6.738Zm26.136,-30.582c1.349,-8.305 1.627,-14.35 2.563,-24.038c-5.832,1.711 -5.753,-6.162 -0.024,-4.091l-2.656,-5.86l3.933,-6.601l3.61,6.268l-3.108,5.557c6.749,-0.072 4.963,6.594 -0.662,4.875c1.049,9.281 3.359,18.657 3.247,27.832c2,14.716 -2.46,35.193 -1.721,35.678l6.301,4.34l-1.077,32.016l-9.951,-4.366l-2.961,2c0.951,1.884 2.16,3.691 2.568,5.738c0,-0 6.853,5.643 5.902,7.402c0.442,0.26 -4.877,7.308 -6.437,7.132c-2.975,-0.337 -6.425,-4.192 -7.419,-6.928c-0.84,-2.757 6.153,-5.46 5.271,-7.478c-1.055,-2.413 -3.719,-3.574 -6.081,-4.283c-3.255,-0.979 -4.745,-3.559 -4.894,-3.559c0,-0 -1.265,10.233 -2.483,9.415c-4.9,-3.291 -1.549,-13.733 -0.64,-13.442c-0,-0 2.14,0.492 4.668,0.73c8.907,0.935 8.304,-10.031 6.578,-15.338c-0.617,-2.076 2.023,-1.41 3.147,-1.725c4.325,-1.276 11.015,-5.745 11.015,-5.745c-6.962,-3.866 -13.107,-8.278 -18.621,-12.461c0,0 -5.117,8.745 -11.184,14.81c-4.416,4.416 -5.134,5.919 -12.525,11.605c-0.143,0.11 -5.601,6.643 -3.002,14.271c2.224,6.527 12.912,13.594 12.833,14.065l-2.104,2.013c0.085,0.117 -15.13,-9.45 -14.775,-19.74c-0.017,-0.389 -6.915,-0.523 -6.915,-0.523l-20.048,-18.603l16.983,-0.073l8.72,7.13l5.448,0.284c0.356,0.313 0.554,-1.442 5.352,-5.025c9.169,-6.847 20.529,-24.43 20.529,-24.43c-0,0 12.012,8.459 12.024,8.46c-0.601,-12.703 -2.646,-26.364 -1.403,-37.312l-0.001,-0Zm-43.735,-60.033c0,-0 -12.481,23.473 -19.326,34.531l-9.696,-2.784c4.063,-10.796 0.173,-31.371 -0.849,-31.889l29.871,0.142Z" style="fill:#bdbdbd;fill-rule:nonzero;"/><path id="path4073-4-2-4" d="M23.691,19.125l0,211.199l131.2,0l0,-211.199l-131.2,-0Zm44.191,1.225c14.891,0.609 29.798,0.475 44.697,0.475c0.093,1.204 -1.743,4.214 -3.195,4.275l-0.695,1.239c2.742,-0.944 4.023,-2.737 4.831,-5.514l1.059,-0c0,-0 -0.197,0.468 -0.574,1.615c-1.142,2.775 -3.421,5.352 -6.087,5.276l-0.54,0.964c3.709,-0.115 6.573,-3.601 7.423,-6.217c0.327,-0.855 0.456,-1.638 0.456,-1.638l1.241,-0c-0,-0 -0.282,1.134 -0.452,1.68c-1.819,5.823 -6.697,7.524 -9.357,7.403l-0.412,0.736c5.472,0.27 9.813,-4.456 10.431,-8.523c0.123,-0.461 0.408,-1.296 0.408,-1.296l1.13,-0c-0,-0 -0.289,1.217 -0.374,1.655c-1.462,6.255 -7.931,9.887 -12.169,9.187c-0.181,0.295 -0.382,0.678 -0.523,0.957c8.506,-0.322 11.146,-4.721 13.086,-8.606c2.314,3.497 4.327,7.257 9.872,9.376l0,1.339c0,-0 -0.581,0.077 -1.09,-0.006c-6.76,-1.094 -8.996,5.236 -6.118,14.691c0.787,2.588 0.434,2.192 -1.25,3.812c-0.802,0.772 -1.008,2.273 -1.008,2.273c0,-0 0.419,-0.707 1.122,-1.29c0.306,-0.254 0.933,-0.496 1.396,-0.816c1.25,-0.726 1.239,-1.225 0.79,-2.942c-0.407,-2.085 -1.065,-4.144 -1.245,-6.266c0.907,0.511 1.557,1.191 2.577,1.315c-0,0 -0.482,-0.573 -0.951,-0.942c-0.722,-0.5 -1.189,-1.12 -1.659,-1.834c-0,0 0.555,0.17 0.884,0.274c2.329,0.731 4.328,0.678 6.589,-0.7c0.258,6.237 -0.598,15.699 -5.814,22.465c-4.001,4.502 -11.662,1.095 -14.496,-0.326c-1.147,-0.575 -9.647,-5.749 -12.204,-14.901l-0.424,0.802c0.953,2.304 2.174,5.48 2.174,5.48c-0.06,-0.322 0.365,2.505 1.275,7.305c-0.483,0.005 -1.016,-0.132 -1.54,-0.272c-1.141,-4.253 -1.444,-7.623 -2.359,-11.733l-0.506,0.873c0.023,0.142 1.24,7.666 2.075,10.654c-0.482,-0.045 -1.37,-0.245 -1.37,-0.245c-0.681,-3.153 -1.213,-5.331 -1.847,-8.429l-0.541,0.95c0.77,2.503 1.112,4.782 1.527,7.207c-0.599,-0.09 -1.203,-0.148 -1.775,-0.466c0,0 -0.8,-4.154 -0.98,-4.607l-0.479,0.823c0.058,0.253 0.733,2.488 0.678,3.508c-0.574,-0.095 -1.569,-0.381 -2.27,-0.617c-0.216,0.377 -0.733,1.172 -0.733,1.172l-0,0.002c-0,-0 14.788,4.673 19.505,3.325c-0.008,0.129 9.037,3.966 14.084,0.706c0,-0 8.779,6.52 12.209,9.126c-0,0.296 1.21,1.766 2.447,2.645c3.136,2.02 4.927,4.561 4.763,3.471c0.17,-1.648 1.624,-14.898 1.904,-17.266c1.043,-7.979 1.042,-7.894 -0.168,-7.527c-5.236,1.289 -4.366,-5.745 0.499,-4.472l-2.466,-5.437c-0,0 2.741,-4.896 4.061,-6.72l3.55,6.444l-2.907,5.683c5.661,-0.426 5.107,6.703 -0.434,4.316c-0,-0 -0.034,2.118 -0.022,1.963c0.053,-0.606 0.045,-1.124 0.237,-1.237c5.398,1.917 6.761,-5.713 0.844,-5.541c0.953,-1.662 1.845,-3.286 2.834,-5.118l-4.182,-7.637l-4.726,7.874l2.378,4.915c-0.534,-0.139 -0.964,-0.054 -1.536,0.005c-3.502,0.718 -2.749,6.365 1.254,5.588c0.457,-0.088 1.144,-0.435 1.144,-0.435l-2.583,23.062c-0,-0 -0.255,0.208 -1.292,-0.541c-1.198,-0.864 -3.707,-2.743 -3.867,-2.936c0.896,-14.744 -2.785,-30.256 -6.988,-39.969c-0.267,-0.745 -0.109,-15.371 -0.109,-15.371l24.056,0l0,67.994c-1.246,-0.79 -2.727,-1.829 -4.008,-2.735c-0.384,-0.311 -0.622,-0.681 -0.457,-1.275c-0.422,0.903 -0.167,1.292 -0.167,1.292l5.264,4.211l-0.209,66.856c-9.372,-4.172 -8.648,-4.953 -16.195,-7.191c0.009,-0.004 1.668,3.749 1.193,4.426c1.125,1.083 3.016,3.35 3.108,5.568c1.007,0.874 1.289,0.983 2.044,2.24l3.158,-1.143l-0.717,3.294c3.357,2.356 0.124,5.522 -0.497,5.231c-0,-0 1.48,3.184 1.818,4.633c-0.53,-0.036 -3.188,-1.48 -3.928,-1.822c-1.927,3.798 -5.18,0.61 -5.206,0.05l-3.61,1.61l1.278,-4.114c-2.324,-1.416 -3.893,-3.557 -0.136,-5.862l-0.868,-3.211l3.09,1.216c0,0 0.577,-0.928 1.015,-1.604c-1.156,-5.042 -8.756,-4.089 -11.197,-8.624c-0,0 -0.599,5.661 -1.214,7.71c-0.24,5.414 -4.027,-0.063 -4.027,-5.79c-0,-1.294 1.624,-5.645 2.173,-5.856c0.571,-0.08 5.996,2.548 9.639,-0.062c1.659,-1.729 4.52,-6.59 1.772,-14.202c-0.91,-1.759 1.728,-1.982 2.585,-1.388c0,-0 7.929,-4.155 11.508,-6.156c-6.004,-3.305 -18.489,-12.098 -18.481,-12.515c-1.665,2.649 -3.573,4.87 -6.255,8.616c-4.348,5.128 -7.746,10.001 -13.263,14.099c-7.759,5.659 -9.582,11.355 -7.418,18.043c1.64,5.123 7.178,8.523 12.897,13.921c-9.853,8.986 -16.616,16.378 -21.36,24.545c4.004,2.11 13.662,5.164 13.662,5.164c-3.587,11.943 -1.955,21.43 0.409,30.952c-0,-0 -28.033,0.035 -42.58,-0.423c-0.124,0.122 -1.699,0.04 -1.72,-0.061c-0.057,-1.064 2.621,-3.993 3.423,-3.584c0.403,-0.397 1.253,-0.599 1.1,-1.087c-2.007,-0.24 -5.051,3.234 -5.172,4.671l-1.196,0c-0.245,-0.214 2.172,-5.868 7.017,-6.319c-0.05,0.204 0.65,-0.44 0.124,-0.715c-5.648,0.67 -8.279,6.949 -8.112,7.034l-0.873,0c1.921,-6.173 6.921,-8.123 9.815,-8.391c0.027,-0.012 0.938,-0.329 0.694,-0.87c-6.396,1.113 -9.584,3.886 -11.121,9.261l-1.152,0c0.832,-5.452 6.43,-10.229 12.759,-10.073c0.198,-0.126 0.44,-0.274 0.337,-0.894c-7.023,0.793 -10.525,3.141 -13.411,9.183c-2.581,-6.71 -9.752,-9.895 -9.838,-9.923c0,-0 -0.174,-1.878 0.227,-1.801c6.119,2.219 8.454,-3.103 8.199,-6.195c-0.143,-1.721 -0.045,-2.669 -0.62,-5.149c-0.512,-2.212 -0.893,-3.702 -0.852,-4.662c0.04,-0.95 0.338,-1.142 1.039,-1.461c1.312,-0.595 2.132,-2.753 1.841,-3.017c-0.674,1.569 -2.455,1.84 -3.276,2.894c-0.655,0.868 -0.366,2.251 0.801,7.051c0.711,2.925 -0.133,1.58 -1.792,0.664l-1.108,-0.629c0.743,0.766 1.529,1.488 2.286,2.238c0.678,0.621 0.298,1.003 -0.674,0.644c-1.4,-0.7 -4.097,-0.407 -5.131,0.475c-0.403,0.287 -0.545,0.257 -0.647,-0.008c-0.452,-7.455 0.329,-12.04 2.794,-17.642c1.594,-3.808 3.966,-6.66 7.131,-6.863c3.188,-0.264 7.772,0.856 11.936,3.689c4.89,3.327 9.655,8.385 10.161,14.592c0.02,0.072 0.377,-0.529 0.539,-0.847c0.224,-0.738 -0.592,-2.955 -1.866,-5.524c-0.235,-1.933 -0.9,-5.321 -1.421,-7.613c0.396,-0.18 1.241,-0.079 1.479,0.21c0.895,3.79 1.533,6.74 2.301,11.817c0.011,0.495 0.645,-0.733 0.647,-1.059c-0.11,-0.758 -2.223,-10.693 -2.18,-10.467c0.012,-0.337 2.004,0.107 1.73,0.421c0,-0 1.514,8.333 1.622,8.075l0.512,-0.708c-0,-0 -1.445,-6.085 -1.264,-7.259c0.123,-0.179 1.243,0.184 1.598,0.377c0.445,0.598 0.731,2.77 0.919,4.251c0.515,0.394 0.617,-0.744 0.578,-1.045c-0.371,-0.589 -0.763,-2.79 -0.469,-2.904c0.232,-0.089 1.514,0.423 1.76,0.643c0.29,0.258 1.41,-1.294 1.126,-1.563c-6.055,-2.323 -13.694,-3.679 -19.442,-3.77c-1.336,0.005 -1.867,-0.184 -3.916,-0.925c-5.217,-1.887 -9.53,-0.006 -10.163,0.59c-6.37,-4.435 -13.481,-10.627 -19.141,-14.578c-0.267,-0.177 -0.902,-0.282 -0.972,-0.282c-0.898,6.879 -1.525,14.839 -2.29,21.187c-0.312,2.514 -0.338,2.905 -0.223,2.976c1.851,-0.96 4.255,-0.376 4.718,1.196c0.694,2.353 -1.573,3.972 -3.792,2.828c-0.824,-0.425 -0.943,-0.341 -0.567,0.463c0.649,1.447 2.522,5.258 2.522,5.258c0,0.001 -2.476,5.278 -3.756,6.685c-1.248,-2.019 -2.893,-4.166 -3.583,-6.371c0.98,-1.922 2.832,-4.398 3.417,-6.292c-2.213,1.012 -4.707,0.696 -4.654,-2.218c0.087,-2.111 1.924,-2.56 4.59,-1.577c-2.751,-18.147 -3.541,-28.913 -2.867,-29.004c-0.182,-0.13 -3.422,-2.46 -5.105,-4.104l0.197,-139.617l41.294,-0c4.245,11.402 3.076,25.113 0.539,32.253c4.507,0.826 9.061,1.893 14.205,4.851c-8.691,12.763 -22.332,26.556 -37.108,35.387c-0.838,0.379 -3.589,-1.341 -3.912,-3.039c-0.075,-0.395 0.142,-1.171 0.585,-1.157c1.086,0.353 2.138,0.837 3.198,1.27c-0,0 -1.477,-3.711 -0.764,-4.275c0.463,-0.305 0.843,-0.56 1.14,-0.874c1.061,-1.373 0.976,-2.929 -0.147,-4.125c-0.452,-0.475 -0.979,-0.802 -1.243,-0.923c-0,-0 1.042,-2.897 1.564,-4.262l-4.101,1.36c-1.894,-2.798 -4.452,-2.746 -5.831,0.029c-0,-0 -0.886,-0.33 -2.553,-1.068c-1.439,-0.638 -2.325,-0.964 -2.325,-0.964c0.539,1.609 1.245,3.12 1.861,4.983c-2.824,1.804 -2.18,4.847 0.198,5.754l-1.252,4.109c-0,0 2.67,-0.997 4.118,-1.384c0,0 1.27,1.278 1.646,2.492c0.646,2.083 2.112,3.593 3.039,4.453c-1.545,1.134 -2.308,1.517 -4.048,2.354l6.006,2.429c-0.373,-1.271 -1.169,-2.215 -1.249,-3.823c-0.071,-1.378 -0.149,-1.404 -1.039,-2.337c-1.634,-1.427 -1.808,-3.121 -2.357,-4.24c-0.749,-0.442 -1.23,-1.146 -1.583,-1.888c-0.395,-0.83 -2.979,1.115 -3.37,0.747c-0.479,-0.513 0.833,-3.138 0.688,-3.399c-1.054,-0.091 -4.008,-2.396 -0.49,-4.965l-1.123,-4.176c-0,0 2.678,1.172 3.961,1.828c0.891,-4.173 4.956,-2.172 5.613,-0.373c0,-0 3.222,-1.061 3.023,-0.2c-0.09,0.773 -0.614,2.703 -0.614,2.703c2.897,2.569 2.298,3.831 -0.056,5.516c-0.036,1.362 0.536,3.48 0.536,3.48c-0,0 -1.639,-0.73 -2.719,-1.036c-0.432,0.433 -0.922,1.215 -0.84,1.618c0.732,3.248 4.73,4.151 10.654,7.471c0.203,-2.098 1.648,-4.966 1.811,-7.484c0.102,-1.836 0.166,-1.865 1.456,-1.279c3.394,2.456 2.358,9.206 1.121,11.974c-0.733,1.568 -0.854,1.527 -2.278,1.073c-1.972,-0.63 -5.459,-0.377 -7.378,0.275c-2.653,1.088 -3.905,7.017 -3.934,8.818c-0.047,1.711 0.085,3.407 0.981,5.521c0.372,1.353 -0.31,2.395 -1.527,2.033c-0.273,-0.081 -0.924,-0.329 -0.924,-0.329l-11.451,5.934l0.296,0.49c0,0 7.409,-3.903 11.074,-5.819c1.83,0.715 1.585,0.862 2.771,-0.376c0.709,-0.732 1.059,-0.747 2.01,-0.656c5.788,0.557 8.351,-0.288 9.352,-2.718c0.15,-0.365 0.093,-0.352 0.684,-0.651c1.095,-0.427 1.61,-1.198 1.666,-2.166c0.036,-0.635 0.312,-0.722 0.794,-1.166c0.901,-0.828 1.084,-1.867 0.517,-2.934c-0.267,-0.503 -0.472,-0.661 -0.361,-1.182c0.186,-0.873 -0.137,-1.782 -0.974,-2.743c-0.964,-1.107 -0.957,-0.92 0.858,-2.613c3.565,-3.395 6.706,-5.993 10.173,-9.064c2.372,-2.102 2.116,-1.951 3.039,-0.989c3.398,3.539 4.73,9.056 3.2,13.909c-0.071,0.228 -0.102,0.202 0.077,-0c0.961,-1.092 0.987,-6.583 0.166,-9.019c-1.001,-2.993 -1.971,-4.552 -5.282,-7.483c-2.068,-1.87 -7.694,-7.268 -7.694,-7.268c8.185,-7.111 17.001,-15.949 21.944,-24.076c-2.537,-2.725 -14.297,-5.238 -14.297,-5.238c1.463,-3.043 4.359,-16.711 -0.599,-31.866l-0.001,0Zm50.774,0.475l1.061,0.028c0.496,3.799 3.903,8.322 7.438,9.724c0.491,0.186 0.961,0.683 0.961,0.683l0,0.777c0,0 -0.618,0.183 -0.967,0.096c-2.627,-1.26 -6.273,-4.204 -8.381,-9.267c-0.168,-0.835 -0.112,-2.041 -0.112,-2.041l0,-0Zm1.981,-0l1.13,-0c0.608,3.597 3.241,6.099 6.349,8.244l0,0.723c0,-0 -0.444,0.188 -0.48,0.182c-2.694,-1.118 -6.778,-5.214 -6.999,-9.149Zm1.95,-0l1.362,-0c0.486,2.417 1.808,4.447 4.167,5.807l0,1.557c-3.193,-2.201 -5.056,-4.375 -5.529,-7.364Zm2.034,-0l1.092,-0c0.358,1.593 1.294,2.621 2.403,3.655l0,1.465c-1.854,-1.167 -3.194,-3.356 -3.495,-5.12Zm3.507,-0l-0.012,2.708c-0.886,-0.813 -1.344,-1.252 -1.663,-2.663l1.675,-0.045Zm-22.051,14.206c-2.249,1.022 -2.813,1.701 -2.485,1.947c0.236,0.173 1.684,-0.449 2.41,-0.544c3.916,-0.97 6.611,-1.208 9.163,-0.094c0.875,0.382 1.543,0.534 1.543,0.534c0,-0 -0.029,-0.831 -0.884,-1.502c-3.039,-2.088 -6.708,-1.662 -9.747,-0.341Zm19.36,0.842c0.179,-0.006 0.357,-0.003 0.532,0.01c0.844,0.064 1.626,0.354 2.14,0.929l-0.018,1.599c-1.818,-1.609 -3.804,-1.556 -5.893,-1.23c0.691,-0.772 1.985,-1.267 3.239,-1.308l-0,-0Zm-15.675,0.962c-3.704,0.289 -4.987,2.165 -7.378,4.101c-0.983,0.748 -0.759,1.326 0.438,1.13c1.478,-0.243 2.074,-0.184 4.09,0.505c2.2,0.753 3.777,1.065 4.986,0.6c0.962,-0.37 1.534,-0.503 1.61,-0.321c0.105,0.252 -0.733,1.102 -2.79,2.757c-0.68,0.547 -1.008,0.991 -1.008,0.991c0,-0 0.654,-0.13 1.738,-0.875c1.309,-1.048 2.21,-1.716 2.484,-2.291c0.132,-0.279 0.143,-1.278 0.39,-1.278c0.831,-0 0.404,-1.039 -0.352,-1.48c-0.497,-0.354 -0.387,-0.726 0.256,-1.408c1.009,-1.063 0.666,-1.544 -0.43,-0.882c-0.193,0.105 -0.287,-0.219 -0.956,-0.623c-1.058,-0.639 -1.95,-0.938 -3.078,-0.926Zm0.388,0.649c0.85,-0.006 1.646,0.209 2.281,0.745c0.386,0.325 0.422,0.696 0.422,0.696c0,0 -0.752,0.259 -1.863,0.249c-1.651,-0.016 -3.056,0.158 -5.017,0.809c-1.441,0.479 -2.006,0.572 -2.006,0.572c0,-0 0.489,-0.536 0.951,-0.93c1.237,-1.056 3.363,-2.13 5.232,-2.141Zm13.849,0.092c1.706,-0.029 2.797,0.605 3.983,1.609l-0.009,0.312c0,-0 -0.722,0.009 -1.43,-0.24c-1.303,-0.457 -3.063,-0.392 -4.279,-0.054c-1.256,0.349 -1.472,0.471 -1.302,-0.207c0.208,-0.832 1.539,-1.387 3.035,-1.42l0.002,0Zm-15.392,3.041c0.135,-0.004 0.567,0.02 0.728,0.02c0.449,2.193 2.118,1.47 2.284,0.134l0.613,0.001c-0.261,1.783 -2.684,3.276 -3.625,-0.155l-0,-0Zm14.586,0.022c0.3,1.702 1.879,2.26 2.566,0.13l0.552,0.011c-0.422,3.551 -4.173,1.821 -3.573,-0.127l0.455,-0.014Zm-15.184,0.016c0.178,0.644 0.476,1.129 0.723,1.6c-0.968,-0.231 -1.621,-0.426 -2.225,-0.839c0.517,-0.463 0.866,-0.639 1.502,-0.761Zm13.99,0.075c0.061,0.606 0.258,1.147 0.586,1.753c0,-0 -0.606,-0.102 -1.002,-0.169c-0.385,-0.065 -0.828,-0.288 -0.755,-0.583c0.16,-0.648 0.544,-0.827 1.171,-1.001Zm4.962,0.106c0.348,0.077 0.043,-0.021 1.14,0.295c0,-0 0.027,0.472 0.027,0.689c-0.628,0.337 -1.733,0.756 -1.764,0.661c0.027,0.189 0.622,-1.49 0.597,-1.645l0,-0Zm-14.19,0.016c-0,-0 0.175,0.067 0.344,0.066c0.178,-0.002 0.286,0.091 0.34,0.22c0.1,0.241 0.01,0.615 -0.177,0.779c-0.311,0.245 -1.024,0.426 -1.024,0.426c0.359,-0.497 0.42,-0.994 0.517,-1.491l-0,-0Zm1.459,9.308c0,-0 -0.951,0.072 -1.296,0.27c-1.537,0.882 -1.171,4.007 0.506,4.424c0.674,0.167 1.287,0.259 2.421,-0.283c0.675,-0.322 1.619,-0.575 1.885,-0.464c0.557,0.233 0.733,-0.26 0.851,-0.816c0.266,-1.242 -1.769,-1.273 -3.388,0.012c-2.043,1.621 -3.615,-0.777 -1.683,-2.572c0.255,-0.237 0.687,-0.594 0.704,-0.571l0,-0Zm-16.109,6.639l1.716,1.986l1.078,4.734c-0.654,0.112 -1.446,-0.252 -1.446,-0.252c-0.535,-2.142 -1.059,-4.285 -1.348,-6.468Zm23.371,1.191c-0.018,0.002 -0.039,0.006 -0.059,0.016c-0.072,0.031 -0.392,0.175 -0.834,0.225c-0.255,0.028 -0.641,-0.153 -0.916,-0.136c-0.751,0.047 -1.452,0.268 -1.64,0.346c-0.231,0.095 -0.459,0.135 -0.656,0.019c-0.561,-0.331 -2.193,-0.238 -2.689,0.054c-0.587,0.25 -1.247,0.254 -1.729,0.005c-0.207,-0.108 -0.42,-0.38 -0.457,-0.343c-0.077,0.077 -0.391,1.417 -0.486,1.936c0,0.182 -0.125,0.486 -0.049,0.517c0.095,0.039 0.402,-0.241 0.782,-0.435c0.78,-0.398 1.651,-0.368 3.181,0.008c1.889,0.463 2.624,0.328 3.739,-0.241c0.888,-0.454 1.428,-0.563 2.018,-0.4c0.145,0.04 0.534,0.24 0.587,0.189c0.104,-0.1 -0.182,-0.66 -0.427,-1.215c-0.177,-0.401 -0.242,-0.56 -0.365,-0.545l-0,-0Zm-20.382,2.136c1.657,1.573 1.534,1.441 2.581,2.219l-0.05,1.517c-0,-0 -1.284,0.028 -1.913,-0.168c-0.199,-0.589 -1.06,-3.546 -0.62,-3.568l0.002,0Zm13.659,0.573c-0.338,-0.013 -0.159,0.341 -0.011,0.447c0.112,0.077 0.278,0.152 0.501,0.235c0.618,0.232 1.203,0.433 1.84,0.645c0,0 -0.556,0.163 -0.831,0.256c-0.494,0.167 -1.271,0.348 -1.393,0.786c-0.001,0.085 0.12,0.098 0.25,0.047c0.906,-0.357 3.12,-0.587 4.127,-0.392c1.307,0.442 1.389,0.137 0.133,-0.52c-0.254,-0.1 -0.944,-0.238 -0.944,-0.238c0,-0 0.744,-0.255 0.938,-0.359c0.2,-0.107 0.438,-0.214 0.576,-0.331c0.78,-0.502 0.244,-0.709 -0.749,-0.232c-0.993,0.478 -2.763,0.469 -3.569,0.016c-0.357,-0.181 -0.704,-0.349 -0.868,-0.36l-0,0Zm-10.407,2.146l1.546,1.211l-1.582,-0.152l0.036,-1.059Zm-35.013,30.419c-0.312,0 -0.565,0.255 -0.565,0.568c0,0.312 0.253,0.568 0.565,0.568c0.312,0 0.567,-0.256 0.567,-0.568c-0,-0.313 -0.255,-0.568 -0.567,-0.568Zm2.065,0.574l-7.091,3.372l1.874,0.628l-0.015,1.944l1.726,-0.553l0.731,1.815l2.775,-7.206Zm0.313,1.588c-0.312,0 -0.565,0.255 -0.565,0.567c0,0.313 0.253,0.568 0.565,0.568c0.312,-0 0.567,-0.255 0.567,-0.568c-0,-0.312 -0.255,-0.567 -0.567,-0.567Zm-8.989,3.451c-0.312,-0 -0.566,0.25 -0.566,0.562c-0,0.313 0.254,0.568 0.566,0.568c0.312,-0 0.567,-0.255 0.567,-0.568c-0,-0.312 -0.255,-0.562 -0.567,-0.562Zm2.179,1.055l-7.958,3.662l2.36,0.718l-0.624,2.434l1.921,-0.808l1.073,1.632l3.228,-7.638Zm0.236,1.743c-0.312,-0 -0.567,0.254 -0.567,0.567c0,0.313 0.255,0.567 0.567,0.567c0.312,0 0.562,-0.254 0.562,-0.567c-0,-0.313 -0.25,-0.567 -0.562,-0.567Zm-15.793,0.364c2.993,-0.004 6.35,1.138 7.496,3.705c0.304,1.283 -0.955,2.046 -3.644,1.308c-4.444,-1.221 -5.273,-1.358 -4.535,-0.601c0.098,0.099 0.293,0.344 0.958,0.571c1.674,0.572 4.915,1.232 5.789,1.142c1.194,-0.159 2.021,0.398 1.723,1.395c-0.339,1.132 -1.89,1.597 -4.222,1.268c-2.414,-0.341 -3.744,-0.621 -4.546,-0.864c-1.03,-0.312 -1.067,-0.285 -0.579,0.439c0.255,0.377 0.28,0.68 0.657,0.751c1.594,-0.09 3.291,0.215 4.755,0.353c2.628,0.235 3.039,0.982 1.11,2.122c-0.915,0.54 -3.651,0.393 -5.206,-0.168c-1.112,-0.4 -3.659,-0.973 -2.677,-0.197c0.236,0.187 0.156,0.644 0.567,0.788c1.347,0.186 5.156,0.455 5.752,0.995c0.383,0.348 -0.48,1.231 -2.259,1.691c-2.677,0.509 -6.679,0.296 -7.737,-0.427c-1.957,-3.994 -0.904,-10.53 2.16,-13.085c0.978,-0.766 2.643,-1.184 4.438,-1.186Zm17.55,2.084c-0.313,-0 -0.562,0.254 -0.562,0.567c-0,0.313 0.249,0.563 0.562,0.563c0.312,-0 0.566,-0.25 0.566,-0.563c0,-0.313 -0.254,-0.567 -0.566,-0.567Zm2.364,0.605l-8.218,4.1l2.078,0.618l-0.491,2.396l1.926,-0.795l1.165,1.611l3.54,-7.93Zm0.063,2.006c-0.312,0 -0.566,0.255 -0.566,0.567c0,0.313 0.254,0.568 0.566,0.568c0.313,-0 0.567,-0.255 0.567,-0.568c0,-0.312 -0.254,-0.567 -0.567,-0.567Zm4.78,4.835c-3.645,3.553 -7.752,6.366 -11.504,9.817l0.814,-0.033l2.044,-1.847l57.567,-0.181l-1.345,1.966l0.567,0.244c-0,0 1.727,-2.557 1.61,-2.674c-12.649,0.036 -22.412,0.007 -36.287,0.103c-2.529,-2.509 -5.2,-4.86 -7.844,-7.244l-5.622,-0.151Zm-17.5,2.278c-0.312,-0 -0.566,0.254 -0.566,0.567c-0,0.313 0.254,0.567 0.566,0.567c0.312,0 0.564,-0.254 0.564,-0.567c-0,-0.313 -0.252,-0.567 -0.564,-0.567Zm75.157,0.433c5.712,4.679 11.512,8.372 17.46,11.915c-3.104,1.726 -6.761,3.681 -9.851,5.251c-1.177,0.445 -1.692,-0.135 -2.527,0.019c-0.602,0.154 -0.774,0.267 -1.133,0.742c-0.588,0.779 -0.427,0.754 -3.572,0.612c-3.173,-0.144 -4.481,-0.074 -5.164,0.274c-0.655,0.335 -1.78,1.482 -1.78,1.956c0,0.457 -0.359,1.043 -1.012,1.239c-0.761,0.185 -1.64,0.789 -1.603,1.725c-0.203,0.706 -0.634,1.019 -1.016,1.405c-0.905,0.914 -0.814,1.632 -0.552,2.481c0.121,0.38 0.584,0.351 0.212,1.417c-0.971,2.781 2.302,4.279 2.358,4.264l-14.525,12.453c-1.641,-0.95 -3.291,-3.84 -3.841,-5.647c-2.028,-6.668 0.525,-11.935 4.378,-15.229c1.335,-1.142 3.128,-2.502 3.627,-2.844c7.256,-6.199 13.567,-14.979 18.541,-22.033l0,0Zm-73.059,0.479l-8.034,3.802l2.587,0.437l-0.494,2.239l1.874,-0.711l0.992,1.887l3.075,-7.654Zm0.492,1.777c-0.312,0 -0.567,0.255 -0.567,0.567c0,0.313 0.255,0.565 0.567,0.565c0.312,-0 0.562,-0.252 0.562,-0.565c-0,-0.312 -0.25,-0.567 -0.562,-0.567Zm72.708,0.331c0,-0 -2.538,6.263 -3.075,8.385c2.15,-1.11 8.449,-4.322 8.449,-4.322l-2.694,-0.501l0.303,-2.453l-2.07,1.052l-0.913,-2.161Zm-90.864,2.548c-0.312,-0 -0.566,0.254 -0.566,0.567c-0,0.313 0.254,0.567 0.566,0.567c0.312,0 0.567,-0.254 0.567,-0.567c-0,-0.313 -0.255,-0.567 -0.567,-0.567Zm2.46,0.517c0,0 -5.978,2.81 -8.677,4.022l2.519,0.529l-0.441,2.454l2.273,-0.887l0.917,2.425l3.409,-8.543Zm0.321,1.853c-0.312,0 -0.567,0.255 -0.566,0.568c-0,0.312 0.254,0.564 0.566,0.564c0.312,-0 0.566,-0.252 0.566,-0.564c0,-0.313 -0.254,-0.568 -0.566,-0.568Zm84.603,0.409c-0.312,-0 -0.566,0.25 -0.566,0.563c-0,0.312 0.254,0.567 0.566,0.567c0.313,-0 0.562,-0.255 0.562,-0.567c0,-0.313 -0.249,-0.563 -0.562,-0.563Zm9.775,0.513l-2.846,7.92l7.696,-3.881l-2.09,-0.571l0.011,-1.959l-1.719,0.501l-1.052,-2.01Zm-90.95,1.904c-0.312,0 -0.566,0.255 -0.566,0.567c-0,0.313 0.254,0.568 0.566,0.568c0.313,-0 0.567,-0.255 0.567,-0.568c-0,-0.312 -0.254,-0.567 -0.567,-0.567Zm84.173,0.144c-0.313,0 -0.564,0.255 -0.564,0.567c0,0.313 0.251,0.563 0.564,0.563c0.312,0 0.566,-0.25 0.566,-0.563c0,-0.312 -0.254,-0.567 -0.566,-0.567Zm-81.812,0.581l-8.155,3.985l2.531,0.594l-0.278,2.549l2.058,-1.169l1.117,2.326l2.727,-8.285Zm0.509,1.684c-0.313,-0 -0.535,0.254 -0.535,0.567c0,0.313 0.255,0.564 0.567,0.564c0.312,0 0.562,-0.251 0.562,-0.564c0,-0.313 -0.282,-0.567 -0.594,-0.567Zm84.799,0.501c-0.312,-0 -0.567,0.254 -0.567,0.567c0,0.313 0.255,0.564 0.567,0.564c0.312,0 0.566,-0.251 0.566,-0.564c0,-0.313 -0.254,-0.567 -0.566,-0.567Zm-11.995,0.473l-3.017,7.821l8.114,-3.724l-2.575,-0.604l0.046,-2.042l-1.81,0.681l-0.758,-2.132Zm-7.66,0.531c-0,0.18 -2.074,2.21 -2.074,2.21l-23.945,0.222c2.576,0.115 6.922,4.715 10.057,7.516l5.944,-0.238c3.292,-3.237 8.238,-5.699 10.444,-9.699c-0.156,-0.203 -0.424,-0.022 -0.426,-0.011l-0,-0Zm22.621,1.531c-0.312,-0 -0.566,0.254 -0.566,0.567c-0,0.313 0.254,0.563 0.566,0.563c0.312,-0 0.562,-0.25 0.562,-0.563c0,-0.313 -0.25,-0.567 -0.562,-0.567Zm-18.485,2.73c-0.312,0 -0.562,0.25 -0.562,0.563c-0,0.313 0.25,0.567 0.562,0.567c0.312,0 0.566,-0.254 0.566,-0.567c0,-0.313 -0.254,-0.563 -0.566,-0.563Zm9.745,0.782c0.712,0.002 1.553,0.041 2.412,0.037c1.716,-0.009 3.369,0.05 3.797,0.377c2.653,2.238 1.396,12.699 -1.948,14.02c-3.67,0.827 -6.208,0.98 -9.393,-1.124c-0.904,-0.441 -2.575,-1.776 -2.225,-2.876c0.477,-1.353 1.669,-1.254 5.431,-0.081c1.373,0.428 2.127,0.341 2.478,0.073c0.327,-0.25 -0.1,-0.529 -0.802,-0.532c-0.283,-0 -1.5,-0.301 -2.515,-0.614c-1.432,-0.441 -1.843,-0.571 -2.769,-0.626c-1.557,-0.092 -2.01,-0.152 -2.01,-1.106c-0,-1.782 2.474,-2.018 7.026,-0.972c0.544,0.125 1.531,0.263 1.773,0.256c0.176,0.067 -0.348,-0.59 -0.436,-0.983c-0.164,-0.14 -0.458,-0.208 -1.233,-0.234c-2.927,-0.287 -5.357,-0.486 -5.41,-0.87c-0.259,-1.886 3.528,-2.399 7.454,-0.886c1.008,0.389 1.029,0.228 1.021,-0.066c-0.014,-0.543 -1.702,-1.493 -4.192,-1.467c-2.421,0.026 -2.083,-1.206 -0.092,-2.132c0.34,-0.158 0.921,-0.195 1.633,-0.194l-0,0Zm-6.953,2.057c-0.312,0 -0.562,0.256 -0.562,0.569c0,0.313 0.25,0.567 0.562,0.567c0.313,0 0.567,-0.254 0.567,-0.567c-0,-0.313 -0.254,-0.569 -0.567,-0.569Zm-9.236,1.802l-3.294,8.224l8.321,-4.246l-2.744,-0.516l0.241,-1.731l-2.012,0.382l-0.512,-2.113Zm-3.728,5.415c-0.312,0 -0.565,0.255 -0.565,0.568c-0,0.312 0.253,0.567 0.565,0.567c0.312,-0 0.563,-0.255 0.563,-0.567c0,-0.313 -0.251,-0.568 -0.563,-0.568Zm7.589,0.335l-2.797,7.159l7.1,-3.178l-2.097,-0.573l0.299,-2.169l-1.803,0.758l-0.702,-1.997Zm-4.951,2.02c-0.312,-0 -0.567,0.254 -0.566,0.567c-0,0.313 0.254,0.567 0.566,0.567c0.312,0 0.564,-0.254 0.564,-0.567c-0,-0.313 -0.252,-0.567 -0.564,-0.567Zm1.819,2.733c-0.312,-0 -0.567,0.251 -0.567,0.564c0,0.313 0.255,0.567 0.567,0.567c0.312,0 0.562,-0.254 0.562,-0.567c-0,-0.313 -0.25,-0.564 -0.562,-0.564Zm-3.57,1.677l-2.395,6.78l6.671,-3.236l-1.95,-0.644c0,0 0.107,-1.524 -0.076,-1.453c-0.116,0.045 -1.371,0.395 -1.371,0.395l-0.879,-1.842Zm5.939,0.811c-0.312,-0 -0.565,0.25 -0.565,0.563c-0,0.312 0.253,0.567 0.565,0.567c0.312,-0 0.566,-0.255 0.566,-0.567c0,-0.313 -0.254,-0.563 -0.566,-0.563Zm26.254,2.072c0,-0 7.611,3.846 10.734,5.311l0,70.766l-41.769,-0c-4.722,-14.118 -1.33,-26.382 -0.079,-31.518c-2.202,-0.184 -13.557,-3.867 -13.898,-5.134c4.499,-7.158 10.604,-13.663 17.076,-19.605c6.216,-5.784 12.363,-10.557 18.112,-14.027c2.229,-1.346 2.905,-1.543 3.781,-0.745c1.428,1.301 2.318,2.433 1.851,3.344c-0.105,0.206 -0.441,0.547 -0.441,0.547l-3.435,-1.308l1.113,3.902c-3.09,1.26 -3.034,4.606 -0.051,6.381l-2.053,4.729l4.77,-2.103c0.183,1.03 3.585,3.523 5.701,0.001l4.306,2.105l-1.484,-5.282c1.414,-1.35 2.238,-3.506 0.015,-5.493l1.024,-4.138l-3.89,1.268c-0.975,-1.335 -1.541,-1.242 -1.765,-1.606c-0.067,-0.497 -0.078,-1.656 -0.725,-2.723c-0.535,-0.883 -1.147,-1.821 -1.719,-2.478c-0.303,-0.514 -0.061,-0.558 1.492,-1.399c0.73,-0.395 1.333,-0.795 1.333,-0.795l0.001,-0Zm-35.099,1.189c-0.312,-0 -0.566,0.254 -0.566,0.567c-0,0.313 0.254,0.567 0.566,0.567c0.312,0 0.567,-0.254 0.567,-0.567c-0,-0.313 -0.255,-0.567 -0.567,-0.567Zm2.55,2.623c-0.312,-0 -0.567,0.251 -0.567,0.564c0,0.313 0.255,0.567 0.567,0.567c0.312,0 0.566,-0.254 0.566,-0.567c0,-0.313 -0.254,-0.564 -0.566,-0.564Zm-84.324,5.484l4.501,3.041c0.091,0.377 -0.676,0.124 -0.263,4.776c0.373,4.202 1.65,11.49 2.993,23.314c-5.346,-2.257 -6.383,7.26 -0.116,5.22c0.281,0.058 -3.282,5.538 -3.282,5.538c0,0 2.854,5.189 4.22,7.394l4.311,-7.664l-2.819,-5.304c4.415,2.254 6.702,-4.456 2.066,-5.334c-1.12,-0.153 -2.359,0.407 -2.359,0.407l2.439,-22.954c1.965,1.337 5.55,4.019 5.55,4.019c0.816,12.647 0.218,23.187 7.277,41.587l0.073,12.741l-24.591,-0l0,-66.781Zm4.912,2.798c0.009,0.005 0.104,0.08 0.104,0.08c-0.038,-0.063 -0.073,-0.084 -0.104,-0.08Zm43.306,21.871c0.335,-0.014 0.646,0.073 0.836,0.233c0.21,0.199 0.358,0.709 0.081,0.84c-0.306,0.046 -1.1,-0.681 -1.255,-1.023c0.113,-0.028 0.227,-0.045 0.338,-0.05Zm2.149,0.238c0.434,-0.008 0.948,0.075 1.183,0.344c-0.108,0.829 0.404,2.327 0.307,2.682c-0.262,0.129 -1.589,-1.296 -1.916,-1.643c-0.068,-0.473 0.008,-1.074 0.031,-1.346c0.114,-0.02 0.25,-0.034 0.395,-0.037l-0,0Zm-11.764,0.337c-0.143,0.008 -0.366,0.07 -0.676,0.213c-0.815,0.417 -1.743,0.718 -2.907,0.713c-0.934,-0.004 -2.542,-0.49 -2.379,-0.371c0.425,0.762 1.535,0.364 1.556,0.862c-0.276,0.491 -1.014,0.444 -1.381,0.915c-0.077,0.125 0.108,0.231 0.628,0.176c1.578,-0.716 3.64,-0.704 5.527,-0.083c0.396,0.083 0.136,-0.298 -0,-0.399c-0.245,-0.18 -0.65,-0.369 -0.991,-0.41c-1.648,-0.293 -0.924,-0.458 0.178,-0.952c0.607,-0.222 0.874,-0.688 0.445,-0.664Zm14.167,0.056c0.425,0.009 0.882,0.117 1.171,0.364c0.283,1.836 1.089,4.786 0.964,5.781c-0.12,-0.095 -1.143,-1.105 -1.899,-2.177c-0.265,-0.642 -0.68,-2.877 -0.644,-3.946c0.127,-0.018 0.266,-0.025 0.408,-0.022Zm-11.27,2.489c-0.219,0.017 -0.768,0.297 -1.37,0.541c-1.015,0.411 -1.955,0.315 -3.321,-0.066c-1.186,-0.331 -1.618,-0.239 -2.799,0.357c-0.783,0.503 -1.642,0.644 -2.263,0.292c-0.804,-0.458 -0.798,-0.302 -0.4,0.831c0.1,0.283 -0.097,1.139 0.253,1.337c0.267,0.15 0.574,-0.349 0.78,-0.419c0.206,-0.069 1.5,0.511 2.222,-0.129c1.289,-0.468 1.677,0.291 2.569,0.217c1.449,-0.511 2.355,-1.044 3.599,-0.056c0.074,-0.37 0.364,-2.391 0.827,-2.87c-0.012,-0.027 -0.047,-0.039 -0.097,-0.035l-0,0Zm-2.64,5.818c-1.042,0.013 -1.606,0.655 -2.95,0.532c-1.074,-0.075 -1.442,0.879 -0.987,1.574c0.32,0.49 0.749,0.579 2.213,-0.093c0.602,-0.276 1.438,-0.885 1.927,-0.836c1.432,0.144 1.778,1.53 0.586,2.701c-0.58,0.342 -0.585,0.714 -0.408,0.72c0.472,0.018 1.426,-0.546 1.642,-1.203c0.594,-1.801 -0.474,-3.427 -2.023,-3.395Zm4.678,8.297c-1.356,0.286 -3.311,1.846 -3.976,2.855c-0.622,0.984 -1.217,2.097 -0.783,2.647c0.356,0.451 0.855,0.887 0.898,1.132c0.037,0.213 -0.255,0.425 -0.527,0.73c-1.191,1.335 -0.906,1.407 0.764,0.541c1.823,2.48 5.447,1.681 7.607,0.125c3.395,-2.225 5.266,-4.352 2.591,-3.464c-1.227,0.407 -1.687,0.336 -3.177,-0.338c-2.233,-1.011 -3.945,-1.306 -5.796,-0.66c-2.343,0.819 -0.546,-1.117 2.091,-2.795c0.572,-0.364 0.642,-0.779 0.308,-0.773Zm-14.695,3.818c0.793,-0.058 1.616,0.536 2.053,1.965l-0.782,0.012c-0.559,-1.887 -1.91,-1.883 -2.495,0.011l-0.654,-0.045c0.32,-1.176 1.085,-1.885 1.878,-1.943l-0,0Zm13.918,0.143c1.011,-0.097 2.11,0.94 2.038,1.978l-0.587,0.026c-0.356,-1.142 -1.612,-2.147 -2.496,-0.275l-0.407,-0.084c0.271,-1.121 0.845,-1.587 1.452,-1.645l-0,-0Zm-1.878,0.26c0.366,-0 0.459,0.416 0.043,1.092c-0.292,0.476 -0.641,0.432 -0.99,0.073c-0.315,-0.315 -0.295,-0.371 0.047,-0.683c0.365,-0.333 0.681,-0.482 0.9,-0.482l0,-0Zm4.325,0.011c0.159,-0.004 0.461,0.127 0.8,0.241c0.892,0.302 1.094,0.552 0.729,0.917c-0.359,0.36 -1.04,0.468 -1.354,0.263c-0.014,-0.449 -0.458,-0.795 -0.474,-1.246c0,-0.121 0.14,-0.17 0.299,-0.175Zm-13.961,0.017c0.618,-0.029 1.447,0.337 1.386,0.695c-0.066,0.39 -0.676,0.645 -1.178,0.687c-0.337,0.044 -0.323,-0.092 -0.411,-0.332c-0.079,-0.213 -0.181,-0.486 -0.238,-0.699c-0.139,-0.411 0.125,-0.339 0.441,-0.351Zm-4.226,0.135c0,-0 -0.345,1.032 -0.5,1.384c-1.293,-0.069 -1.171,-0.641 -0.561,-1.054c0.329,-0.25 0.661,-0.255 1.061,-0.33Zm20.796,2.254c0.072,-0.01 0.119,-0.001 0.131,0.038c-1.477,1.967 -5.482,3.389 -7.786,1.101c0.681,-0.344 1.049,-0.472 1.544,-0.342c1.61,0.42 3.613,0.121 4.976,-0.381c0.462,-0.17 0.917,-0.385 1.135,-0.416l-0,0Zm-21.799,0.198c0.234,0.004 0.525,0.207 0.931,0.338c1.145,0.37 3.047,0.327 4.531,-0.016c0.71,-0.164 1.046,-0.385 1.202,-0.272c0.278,0.202 -0.01,0.905 -1.036,1.357c-1.337,0.494 -3.375,0.762 -4.919,-0.027c-1.321,-0.674 -1.467,-1.393 -0.709,-1.38l-0,0Zm-0.353,1.477c1.211,0.802 2.423,1.054 3.921,0.914c2.243,-0.082 2.643,-0.359 0.753,0.644c-1.746,0.927 -4.438,0.756 -4.957,-0.248c-0.297,-0.576 -0.106,-1.261 0.283,-1.31Zm10.869,1.345c-0.008,-0 -0.014,0 -0.019,0.003c0.181,1.212 2.213,2.323 3.189,2.585c2.069,0.92 5.36,0.009 7.836,-1.061c1.809,-0.781 2.461,-1.961 0.307,-1.29c-3.467,1.078 -7.817,1.16 -9.996,0.323c-0.708,-0.337 -1.195,-0.565 -1.317,-0.56l-0,-0Zm-11.405,4.541c4.338,0.98 9.579,7.68 9.56,10.61l-1.401,-0c-2.133,-7.454 -7.67,-9.066 -8.212,-9.511c-0.248,-0.914 0.063,-1.121 0.053,-1.099l0,-0Zm-0.069,1.887c5.155,2.262 6.988,6.297 7.76,8.723l-1.508,-0c-1.123,-3.338 -3.14,-5.719 -6.264,-7.201c-0.212,-0.465 0.012,-1.522 0.012,-1.522l-0,-0Zm-0.009,2.285c2.641,0.78 4.971,4.262 5.632,6.438l-1.318,-0.008c-0.935,-2.427 -2.26,-3.983 -4.364,-4.88c-0.087,-0.457 -0.07,-0.974 0.049,-1.55l0.001,-0Zm-0.045,2.366c1.241,0.25 3.341,2.18 3.643,4.072l-1.211,-0c-0.426,-1.275 -1.745,-2.439 -2.421,-2.914c-0,-0.232 -0.012,-1.158 -0.012,-1.158l0.001,-0Zm0.128,2.019l0.008,-0c0.133,-0.083 1.984,1.587 1.671,2.053l-1.667,-0c-0.019,-0.519 -0.032,-2.058 -0.009,-2.053l-0.003,-0Z" style="fill:#242424;fill-rule:nonzero;"/><path id="path4071-9-6-8" d="M97.82,20.815c-3.144,6.1 -19.275,33.573 -19.438,34.529l4.131,1.83l20.055,-36.219c0,-0 -4.156,-0.136 -4.748,-0.14Zm47.455,22.994l-1.748,2.488l1.418,2.844l1.718,-2.712l-1.388,-2.62Zm-73.786,27.514c0,0 -5.784,5.758 -8.045,8.443c4.86,4.857 14.147,10.955 14.216,20.339l6.403,0.024l20.726,18.571c0,0 18.769,0.137 19.119,0.056c0.378,-0.088 7.047,-9.651 7.047,-9.651l11.893,8.687c0,-0 -0.57,-9.356 -1.019,-15.089c-0.148,-3.834 -0.274,-6.192 2.524,-7.889c-3.845,-1.836 -3.602,-5.21 -0.775,-7.689c-1.465,-0.571 -2.847,-4.354 -2.47,-6.12c0,-0 -1.226,-0.968 -1.962,-1.505c-1.793,1.643 -4.618,4.059 -5.179,6.622c-0.527,2.806 2.317,4.727 3.96,2.678c0.464,-0.578 0.877,-0.416 0.877,0.338c0,1.529 -1.921,2.393 -3.546,1.597c-0.379,-0.186 -0.714,-0.31 -0.748,-0.276c3.092,7.256 4.225,10.051 2.506,14.484c-0.743,2.749 -0.393,4.383 0.935,4.383c0.747,0 0.724,0.72 -0.032,0.984c-1.605,0.56 -2.6,-0.625 -2.657,-3.156c-0.034,-1.538 -0.061,-1.576 -0.849,-1.205c-2.745,1.293 -5.726,-1.018 -4.434,-3.435c0.271,-0.508 0.592,-0.348 0.76,0.377c0.316,1.36 1.027,1.959 2.312,1.955c2.962,-0.012 4.203,-4.204 2.494,-8.426c-0.343,-0.847 -0.515,-0.799 -0.966,0.272c-0.706,1.681 -1.89,2.175 -2.866,1.197c-0.328,-0.327 -0.486,-0.859 -0.264,-0.886c0.051,-0.006 0.377,-0.02 0.721,-0.031c1.726,-0.055 2.322,-1.732 1.513,-4.255c-0.711,-2.217 -0.82,-2.619 -1.032,-3.82c-0.326,-1.857 -0.099,-3.266 0.819,-5.068c1.457,-2.046 2.82,-3.402 4.807,-5.032c-1.224,-1.025 -2.313,-1.82 -3.694,-2.85c-0,-0 -8.826,24.261 -8.201,33.714c-1.119,12.454 -10.259,9.008 -10.932,0.383l-43.961,-38.721Zm0.535,3.76c2.5,0.726 4.195,4.703 5.209,12.108c0.376,2.746 2.046,6.591 3.258,7.5c3.058,2.293 7.844,0.526 7.848,-2.899c0.008,-4.264 -5.971,-4.896 -6.063,-0.641c-0.022,1.003 -0.536,1.055 -1.028,0.101c-0.439,-0.851 -0.044,-2.442 0.811,-3.245c0.547,-0.515 0.504,-0.612 -0.54,-1.189c-3.635,-2.011 -5.182,-5.009 -3.239,-6.284c0.85,-0.558 2.011,0.147 1.478,0.897c-0.833,1.173 -0.843,1.358 -0.147,2.332c2.05,2.271 4.595,2.277 6.99,3.366c2.525,1.152 3.679,3.691 2.797,6.155c-0.208,0.582 -0.41,1.155 -0.45,1.275c-0.09,0.27 0.058,0.272 1.835,0.035c2.828,-0.377 5.97,0.635 7.518,2.421c0.832,0.96 1.499,3.119 1.521,4.92c0.008,0.347 0.11,1.13 0.24,1.741c0.13,0.611 0.302,1.643 0.38,2.293c0.74,6.164 5.863,9.317 8.077,4.97c1.393,-2.735 -1.828,-5.472 -3.468,-2.946c-0.576,0.888 -1.17,0.48 -0.838,-0.575c0.645,-2.049 3.199,-2.397 4.938,-0.672c0.941,0.933 1.392,3.049 0.935,4.391c-0.24,0.705 -0.214,0.75 0.307,0.568c1.168,-0.408 3.189,-0.016 3.914,0.761c1.708,1.831 1.365,4.029 -0.737,4.742c-0.956,0.32 -2.039,-0.013 -2.394,-1.135c-0.155,-0.8 0.394,-1.03 0.819,-0.342c0.795,1.289 2.527,0.25 2.118,-1.271c-0.465,-1.73 -1.942,-2.098 -4.667,-1.158c-4.332,1.493 -5.731,1.369 -7.805,-0.696c-1.481,-1.473 -2.037,-2.747 -2.436,-5.557c-0.44,-3.103 -0.483,-3.183 -1.249,-2.53c-3.667,3.125 -8.51,-1.597 -5.404,-4.702c0.96,-0.962 1.667,-0.124 0.803,0.952c-1.262,1.571 0.383,3.758 2.444,3.249c3.752,-0.928 2.986,-6.429 -1.075,-7.714c-1.238,-0.392 -4.638,-0.229 -7.254,0.346c-7.304,1.606 -10.53,-1.517 -12.033,-11.636c-0.176,-1.182 -0.381,-2.055 -1.075,-4.601c-0.823,-3.019 -3.621,-4.659 -5.148,-3.015c-1.217,1.31 -0.577,3.073 1.118,3.077c1.689,0.004 1.171,1.165 -0.59,1.322c-3.056,0.272 -3.588,-4.824 -0.656,-6.284c1.069,-0.534 1.886,-0.608 2.938,-0.43Zm-40.863,1.708l0.998,3.677l3.777,1.069l-1.198,-3.451l-3.577,-1.295Zm9.739,1.133l-1.014,3.282l2.812,-0.981l0.984,-3.145l-2.782,0.844Zm31.065,5.373c0.6,-0 1.086,0.487 1.086,1.088c0,0.601 -0.486,1.088 -1.086,1.088c-0.6,0 -1.086,-0.487 -1.086,-1.088c-0,-0.601 0.486,-1.088 1.086,-1.088Zm-36.102,1.907l-3.281,1.095l-0.573,2.601l3.016,-0.678l0.838,-3.018Zm6.852,1.176l-2.357,-0.723l0.558,2.686l2.576,1.055l-0.777,-3.018Zm105.558,-0.509l-1.565,1.22c4.561,3.97 -0.362,7.797 -0.515,7.538c3.297,2.186 2.71,5.634 2.282,8.79c-0.78,5.632 -1.084,10.959 -1.936,16.73c0,0 3.972,2.746 6.614,3.809c0.05,0.006 0.016,-33.864 0.016,-33.864l-4.896,-4.223Zm-56.276,5.101c0.6,-0 1.086,0.487 1.086,1.088c0,0.601 -0.486,1.088 -1.086,1.088c-0.6,0 -1.086,-0.487 -1.086,-1.088c-0,-0.601 0.486,-1.088 1.086,-1.088Zm-66.677,2.785l0.136,31.605l6.53,-11.698l-4.493,-5.192l3.884,-4.154c-2.289,-3.385 -4.159,-6.98 -6.057,-10.561Zm63.589,4.816c0.6,0 1.087,0.488 1.087,1.088c-0,0.601 -0.487,1.089 -1.087,1.089c-0.6,-0 -1.086,-0.488 -1.086,-1.089c0,-0.6 0.486,-1.088 1.086,-1.088Zm14.827,3.234c0.6,-0 1.086,0.487 1.086,1.088c0,0.601 -0.486,1.088 -1.086,1.088c-0.6,-0 -1.086,-0.487 -1.086,-1.088c-0,-0.601 0.486,-1.088 1.086,-1.088Zm42.469,35.208l4.797,4.932l-3.797,4.674l5.95,10.03l-0.095,-31.031l-6.855,11.395Zm-120.946,-10.38l0.228,33.994l5.129,3.748l1.301,-1.23c-3.31,-3.541 -1.333,-6.176 1.163,-7.7c-4.402,-1.027 -3.066,-6.876 -2.803,-9.586c-0.108,-5.032 1.733,-10.774 1.166,-15.612l-6.184,-3.614Zm29.543,4.725l-7.352,10.262c0,-0 -8.078,-6.13 -12.151,-8.896c0.436,4.428 0.833,10.077 1.374,14.84c1.321,6.955 -2.118,7.075 -2.15,7.741c5.466,4.155 0.878,8.041 0.056,7.846c2.911,1.588 2.671,6.412 2.671,6.412l1.381,0.782c2.089,-1.414 4.336,-3.608 5.074,-5.88c0.934,-3.172 -1.816,-5.808 -3.546,-3.396c-0.849,1.185 -1.53,0.392 -0.834,-0.972c0.636,-1.245 2.295,-1.87 3.398,-1.278c0.642,0.344 0.498,-0.549 -0.492,-3.047c-0.333,-0.838 -0.603,-1.752 -1.071,-3.606c-0.453,-1.794 -0.277,-3.956 0.508,-6.156c1.132,-3.172 0.73,-5.162 -1.082,-5.336c-0.967,-0.093 -1.072,-0.396 -0.283,-0.843c1.76,-0.999 3.467,0.423 3.398,2.833c-0.038,1.303 -0.023,1.325 0.663,1.049c3.474,-1.396 6.219,2.215 3.79,4.986c-0.742,0.847 -1.21,0.31 -0.721,-0.828c0.755,-1.757 0.036,-3.01 -1.73,-3.023c-2.563,-0.02 -3.981,3.527 -2.972,7.426c0.315,1.217 0.364,1.233 1.214,0.42c0.755,-0.721 1.32,-0.953 1.905,-0.777c1.213,0.363 1.531,1.656 0.369,1.496c-1.998,-0.275 -2.523,1.821 -1.393,5.549c1.651,5.676 -0.293,8.843 -5.035,12.269c1.71,1.527 2.805,2.395 5.065,3.774l8.071,-32.67c-0,0 -0.136,-1.855 -0.335,-2.73c-0.008,-8.769 8.161,-9.608 10.717,-1.646c0.245,0.764 1.544,2.716 1.544,2.716l42.519,37.798c0,0 7.938,-7.684 7.829,-7.888c-6.03,-6.088 -14.174,-10.393 -14.471,-20.054c-1.445,-0.042 -6.276,0.048 -6.276,0.048l-20.675,-18.997c-6.488,0.042 -12.243,-0.423 -18.977,-0.224l-0,0Zm11.584,0.712c1.136,-0.036 2.281,0.555 2.281,1.504c0,0.819 -0.547,1.006 -1,0.342c-0.634,-0.928 -1.37,-1.002 -2.118,-0.214c-2.076,2.185 1.149,4.183 4.856,3.008c2.271,-0.719 3.37,-0.913 4.202,-0.746c3.502,0.704 5.194,3.072 5.493,7.683c0.151,2.345 0.147,2.336 1.159,1.407c2.465,-2.262 6.025,-1.003 6.58,2.328c0.238,1.429 -1.298,3.229 -2.759,3.229c-0.572,0 -0.481,-0.599 0.136,-0.894c1.485,-0.709 1.544,-3.055 0.101,-3.971c-1.915,-1.217 -4.438,0.681 -4.407,3.314c0.038,3.167 2.398,4.625 7.061,4.357c0.682,-0.039 2.396,-0.12 3.805,-0.179c2.227,-0.095 4.62,-0.515 6.89,1.201c2.376,1.893 3.953,5.657 4.628,11.095c1.062,6.693 1.883,8.487 4.127,8.648c1.331,0.095 2.46,-1.041 2.46,-2.36c-0.001,-0.93 -1.229,-1.75 -2.161,-1.442c-1.126,0.372 -1.353,-0.849 -0.245,-1.313c1.536,-0.643 3.412,0.595 3.829,2.529c0.243,1.128 -1.026,3.29 -2.358,3.829c-3.474,1.407 -5.945,-1.467 -6.758,-7.901c-0.499,-2.951 -0.773,-4.94 -1.691,-7.462c-1.686,-4.641 -4.456,-6.557 -7.472,-5.168c-3.415,1.572 -2.738,6.694 0.881,6.657c1.988,0.157 2.404,-1.306 2.445,-2.873c0.047,-1.155 1.354,-0.071 1.466,0.725c0.107,0.965 -0.756,2.159 -1.518,2.724c-1.232,0.826 -0.794,0.774 0.466,1.106c3.387,0.625 5.904,5.115 3.879,6.64c-1.052,0.643 -2.17,-0.303 -1.44,-1.232c1.159,-1.478 -0.804,-3.811 -4.377,-4.595c-4.679,-1.027 -6.543,-4.517 -4.855,-8.103c0.559,-1.187 0.607,-1.159 -1.676,-1.03c-5.022,0.284 -6.805,-0.411 -8.491,-3.326c-0.509,-0.88 -0.734,-2.057 -0.842,-4.396c-0.194,-4.186 -0.575,-6.778 -1.102,-7.508c-2.608,-3.613 -8.033,-2.532 -7.355,1.465c0.357,2.099 2.521,2.772 4,1.244c1.116,-1.155 1.637,-0.082 0.547,1.127c-2.623,2.908 -7.187,-0.487 -5.831,-4.337c0.311,-0.881 0.352,-0.853 -1.33,-0.902c-3.743,-0.108 -5.524,-3.316 -3.112,-5.6c0.423,-0.4 1.012,-0.591 1.606,-0.61Zm9.031,13.773c0.6,-0 1.086,0.487 1.086,1.088c0,0.601 -0.486,1.088 -1.086,1.088c-0.6,-0 -1.086,-0.487 -1.086,-1.088c0,-0.601 0.486,-1.088 1.086,-1.088Zm15.048,3.863c0.6,-0 1.086,0.487 1.086,1.088c0,0.601 -0.486,1.088 -1.086,1.088c-0.6,-0 -1.086,-0.487 -1.086,-1.088c-0,-0.601 0.486,-1.088 1.086,-1.088Zm-3.231,7.1c0.599,-0 1.086,0.487 1.086,1.088c-0,0.601 -0.487,1.088 -1.086,1.088c-0.6,-0 -1.087,-0.487 -1.087,-1.088c0,-0.601 0.487,-1.088 1.087,-1.088Zm47.819,4.232l0.689,3.218l2.493,0.657l-0.39,-2.757l-2.792,-1.118Zm8.721,1.114l-0.054,1.908l2.218,0.262l0.784,-3.29l-2.948,1.12Zm-37.23,2.881c0.6,-0 1.087,0.487 1.087,1.088c-0,0.601 -0.487,1.088 -1.087,1.088c-0.6,-0 -1.086,-0.487 -1.086,-1.088c0,-0.601 0.486,-1.088 1.086,-1.088Zm31.847,4.433l-2.607,0.724l-1.252,3.627l3.337,-1.211l0.522,-3.14Zm5.099,0.326l0.319,2.687l3.212,1.454l-1.086,-3.83l-2.445,-0.311Zm-47.336,22.905l-19.938,36.108l5.449,-0.076l18.817,-34.047l-4.328,-1.985Zm-62.706,8.741l-1.761,2.375l1.672,2.755l1.92,-2.767l-1.831,-2.363Z" style="fill:#3f3f3f;fill-rule:nonzero;"/><path id="path4069-2-6-0" d="M112.32,19.905l-9.064,0.001l-0.316,0.356l-4.715,-0l-0.015,-0.353l-30.882,0c3.671,11.15 4.011,22.138 0.826,32.696c1.815,0.092 9.734,2.127 14.093,4.821c-0.807,2.079 -13.164,17.303 -21.552,24.166c2.384,2.365 5.008,4.73 7.766,7.337c4.171,3.965 5.644,6.694 5.92,11.84c-0.187,6.051 -3.588,9.607 -8.277,12.944c-4.011,2.651 -10.366,10.06 -16.035,17.793c-0.87,1.188 -3.429,4.897 -3.429,4.897c-8.538,-6.98 -17.68,-12.364 -17.914,-12.323c-0,0 9.225,-4.924 11.165,-5.928c1.491,0.958 3.514,0.139 2.542,-1.969c-1.867,-4.799 -0.581,-9.748 1.728,-13.186c0.894,-1.331 5.667,-1.882 8.74,-1.086c1.744,0.954 2.094,-0.273 3.181,-4.403c1.082,-4.109 -0.66,-9.307 -3.143,-9.324c-0.583,-0.008 -0.91,0.212 -0.79,1.674c0.091,1.103 -0.175,1.675 -0.459,2.372c-0.612,1.499 -0.938,2.971 -1.136,4.915c-0.23,-0.417 -2.755,-2.701 -6.517,-3.671c-2.731,-0.323 -4.119,-3.731 -4.004,-3.738c0,-0 0.41,-0.924 0.769,-1.283c0.933,0.447 1.849,0.972 2.956,1.297c-0,0 -0.255,-1.368 -0.354,-1.737c-0.507,-1.903 -0.48,-2.192 0.252,-2.587c1.816,-0.98 2.007,-2.732 0.59,-4.325c-0.358,-0.408 -0.659,-0.669 -1.14,-0.875l0.896,-3.575c-0,-0 -0.82,0.176 -1.477,0.376c-1.9,0.578 -1.76,0.598 -2.57,-0.326c-1.759,-2.01 -4.331,-1.552 -4.855,0.692c-0.045,0.257 -0.164,0.665 -0.164,0.664l-4.052,-1.97c0.119,0.952 1.171,4.178 1.171,4.178c-3.545,2.759 -0.549,5.202 0.418,5.46c0,0 -0.829,2.641 -1.114,3.739l4,-1.146c0.336,0.763 0.75,1.343 1.582,1.878c0.217,2.253 1.949,4.07 3.144,5.164c-0,-0 0.172,0.823 0.069,1.35c-0.258,1.311 1.071,3.387 1.297,3.511c-5.489,-2.249 -11.209,-4.949 -16.732,-7.599l0.344,68.004c0,0 1.287,1.155 3.838,2.985c1.225,0.879 1.225,0.884 0.97,1.897c-0.337,1.337 -0.254,2.356 0.884,11.153c0.603,4.652 1.259,9.478 1.846,13.804c0.234,1.576 0.265,2.587 0.265,2.587c-1.219,-0.566 -2.994,-0.624 -3.912,0.408c-1.583,1.807 -0.316,4.715 2.029,4.653c0.889,-0.012 1.376,-0.194 2,-0.523l-3.499,6.16l4.028,6.795l4.019,-7.267l-2.923,-5.748c2.016,1.124 4.175,1.015 4.63,-1.773c0.146,-2.667 -2.858,-3.415 -4.841,-2.269l2.475,-23.889l1.327,0.976l0.434,-0.236l-1.16,-0.992c0.252,-3.801 -0.999,-5.145 -2.351,-6.065c4.52,-2.576 2.561,-6.648 -0.444,-7.902c-0,0 1.952,-1.143 2.344,-2.342c0.333,-1.073 0.208,-2.772 -0.17,-5.787c-0.282,-4.649 -1.28,-14.255 -1.28,-14.255c3.949,2.983 8.004,6.175 11.817,9.191l7.641,-10.64l18.419,0.128c0,-0 14,12.732 21.046,19.225l6.081,0.054c0.681,9.768 7.445,13.023 14.172,19.815l-7.157,7.229l-43.828,-39.215c0,0 -0.209,-0.572 -0.294,-0.921c-1.012,-4.154 -3.76,-5.893 -6.258,-5.601c-2.621,0.308 -4.856,2.894 -4.744,7.295c0.017,0.681 0.263,1.881 0.263,1.881l-8.007,33.409c0,-0 -3.201,-2.448 -4.929,-3.626l-0.381,0.222l4.686,3.529l0.349,-0.152l1.331,1.042l0.1,0.711c4.1,2.795 11.052,8.009 11.052,8.009c3.282,-2.442 6.732,-1.625 10.187,-0.706c-0,-0 2.513,0.84 3.849,0.834c6.79,0.153 12.802,1.474 19.112,3.758l-23.004,40.852l43.82,0.089c-2.16,-8.55 -4.455,-17.235 -0.353,-31.82c-4.321,-0.873 -13.93,-4.726 -13.93,-4.726c0,0 -0.046,-0.218 0.361,-0.718c1.776,-2.545 6.268,-9.442 10.478,-13.43c0.513,-0.368 7.85,-7.502 7.922,-7.727c0.04,-0.127 0.215,-0.608 0.503,-0.797c0.676,-0.452 2.475,-2.154 2.475,-2.154l-9.201,-7.793c0,-0 -0.386,-0.222 -0.516,-0.295c-1.282,-0.719 -3.596,-4.726 -4.166,-7.408c-1.311,-6.171 1.109,-11.05 7.94,-16.058c6.669,-4.575 19.316,-22.333 19.358,-22.727c6.819,5.656 12.143,8.584 18.142,12.293c-3.624,2.083 -6.579,3.477 -9.115,4.854c-1.646,0.94 -1.871,1.137 -3.262,0.742c-1.575,0.013 -2.114,0.62 -1.714,1.981c2.384,3.775 1.36,12.564 -1.865,14.258c-2.798,1.47 -5.52,1.072 -7.769,0.238c-1.735,-0.557 -1.712,-0.562 -2.486,1.015c-1.703,3.632 -1.811,6.691 -0.24,10.174c1.289,2.796 3.205,4.071 3.442,0.301c0.138,-2.214 1.112,-4.802 1.081,-7.18c1.955,2.162 3.251,3.149 6.459,4.029c2.152,0.336 4.437,3.041 4.366,4.143c-0.591,0.598 -0.771,1.361 -0.866,1.306c-1.048,-0.342 -3.318,-1.309 -3.318,-1.309l0.966,3.42c0,-0 -0.159,0.154 -0.624,0.392c-2.136,1.092 -1.998,4.043 0.245,5.223c0.456,0.24 0.488,0.353 0.294,0.983c-0.279,1.402 -0.892,2.345 -1.223,3.735c0,0 0.306,0.011 2.863,-1.174l1.005,-0.466l0.605,0.649c1.325,1.418 2.918,1.408 4.307,-0.024l0.636,-0.657l1.776,0.902c1.674,0.851 2.114,1.026 2.114,1.026c0,0 -0.964,-3.751 -1.143,-4.181c-0.097,-0.232 -0.294,-0.468 -0.439,-0.521c-0.238,-0.089 -0.201,-0.144 0.434,-0.648c1.611,-1.279 1.773,-3.043 0.401,-4.384c-0.524,-0.511 -0.59,-0.619 -0.59,-0.619l0.834,-3.478l-3.459,1.148c-0.546,-1.164 -1.413,-1.692 -1.96,-1.928c-0.059,-1.57 -0.257,-3.184 -2.949,-5.638c0.907,-0.83 -0.171,-2.83 -1.059,-4.029c1.514,0.509 5.301,2.115 5.301,2.115l0.572,-0.022l1.809,0.868l0.212,0.322c-0,-0 5.689,2.69 8.301,3.948c-0.008,-0.14 -0.026,-2.956 -0.033,-33.946c-0.009,-18.477 0.025,-33.673 -0.016,-33.77c-1.42,-1.255 -3.194,-2.447 -4.273,-3.168c-1.22,-0.816 -1.138,-0.809 -0.884,-1.749c0.291,-1.08 0.283,-2.563 -0.103,-5.343c-0.285,-2.053 -1.316,-9.269 -2.035,-15.094c-0.504,-4.086 -0.623,-4.993 -0.747,-5.65c-0.2,-1.655 0.014,-2.376 -0.022,-2.4c5.713,2.479 6.164,-5.742 0.437,-4.632c1.096,-2.214 2.018,-3.242 2.957,-5.606c-1.194,-2.577 -3.839,-6.934 -3.838,-6.934l-4.187,7.302l2.465,5.053c-2.834,-0.512 -4.338,1.555 -3.814,3.408c0.57,1.639 2.139,2.099 3.523,1.438c1.066,-0.421 1.065,-0.527 0.12,7.482c-0.279,2.368 -1.521,13.441 -1.692,15.089c-0.115,1.107 -0.185,1.414 -0.636,1.17c-0.61,-0.263 -0.959,-0.646 -1.571,-1.05l-0.353,0.337c0.544,0.442 1.2,0.996 1.858,1.602c-0.151,2.933 -0.091,4.632 2.346,6.063c-4.418,2.774 -1.835,7.041 0.759,7.658c-1.546,0.4 -3.071,2.392 -2.702,6.351l1.254,16.32l-11.976,-8.909l-7.029,10.078l-18.519,0.021l-20.89,-18.882c0,-0 -4.58,-0.063 -6.459,-0.109c0.213,-0.099 -0.395,-5.838 -3.418,-9.584c-3.286,-3.914 -10.766,-10.373 -10.761,-10.375l7.856,-7.99l44.103,39.767c-0,-0 0.213,1.126 0.325,1.605c1.475,6.278 8.606,6.659 10.122,0.264c0.245,-1.033 0.539,-3.438 0.43,-3.724c2.231,-9.618 5.061,-20.352 7.215,-28.625c0.434,-1.563 0.745,-3.156 1.186,-4.717l3.435,2.486l0.369,-0.385c-1.302,-1.009 -3.531,-2.618 -3.531,-2.618l0.023,-0.685c-7.161,-5.137 -8.635,-6.5 -12.875,-9.867c-3.285,2.899 -7.984,1.725 -10.928,0.7c-0.759,-0.299 -2.622,-0.785 -2.622,-0.785c-7.334,0.01 -13.776,-1.409 -19.861,-3.4l23.462,-41.854Zm-18.25,0.952l3.209,0.063l-18.985,33.933l-2.018,-0.789c0,0 0.185,-0.097 0.183,-1.527c-0,-1.535 -0.334,-2.191 -1.024,-3.098c-0.578,-0.784 -0.825,-0.826 0.868,-0.593c3.462,0.476 5.921,-3.295 4.546,-6.238c-0.53,-1.136 -0.455,-1.205 0.948,-1.345c3.861,-0.386 5.362,-5.292 2.629,-7.737c-0.564,-0.513 -0.312,-0.838 0.742,-0.61c3.34,0.722 5.927,-2.989 4.6,-5.896c-0.433,-0.811 -0.044,-0.945 0.566,-1.026c2.86,-0.671 3.833,-2.921 3.736,-5.137l0,-0Zm-25.586,0.007l14.861,0.008c-2,3.064 1.53,4.878 1.977,4.663c-3.204,1.753 -2.324,4.224 -0.662,5.073c1.613,0.823 4.031,0.083 3.386,-3.483l0.795,-0.347c0.773,0.876 1.541,6.306 -4.356,5.55c-1.05,-0.134 -1.62,0.847 -0.741,1.391c4.659,5.366 -2.634,7.738 -2.952,6.848l-0.023,-0.908c1.972,0.363 4.496,-2.184 2.283,-4.447c-1.258,-1.287 -4.908,-0.659 -4.283,3.246c-2.156,-3.226 -4.508,-2.254 -5.143,-0.55c-0.491,1.322 0.134,3.132 2.284,3.439c-2.401,2.015 -1.236,4.263 0.415,4.76c1.822,0.548 3.684,-0.196 3.181,-3.512c0.029,-0.314 0.664,-0.212 0.717,-0.23c1.884,4.71 -2.619,6.44 -5.05,5.469c-0.901,-0.352 -1.372,1.04 -0.415,1.748c1.452,1.076 1.003,4.171 0.833,4.202c-2.7,-1.026 -6.569,-1.785 -6.424,-1.727c2.579,-10.221 2.413,-20.614 -0.682,-31.189l-0.001,-0.004Zm23.694,0.008l1.342,-0c0.017,1.925 -0.817,4.294 -4.097,4.66c0.015,-0.517 -0.023,-1.005 -0.156,-1.551c1.23,-0.279 2.862,0.063 2.911,-3.109Zm5.86,0.104l4.287,0.019l-20.168,35.863l-3.223,-1.661l19.104,-34.221Zm-10.575,2.72c0.758,0 1.375,0.614 1.375,1.373c-0,0.759 -0.617,1.375 -1.375,1.375c-0.757,0 -1.368,-0.616 -1.368,-1.375c-0,-0.759 0.611,-1.373 1.368,-1.373Zm-8.596,15.639c0.702,0 1.269,0.567 1.269,1.27c-0,0.702 -0.567,1.275 -1.269,1.275c-0.701,0 -1.268,-0.573 -1.268,-1.275c-0,-0.703 0.567,-1.27 1.268,-1.27Zm66.393,1.014l3.414,5.953l-3.895,6.91l-3.25,-6.622l3.731,-6.241Zm-0.061,2.028l-2.402,3.972l2.181,4.07l2.478,-3.868l-2.257,-4.174Zm0.046,1.703l1.241,2.402l-1.508,2.436l-1.254,-2.576l1.521,-2.262Zm2.338,8.037c1.246,0 2.257,1.014 2.256,2.263c-0,1.25 -1.01,2.262 -2.256,2.262c-1.245,-0 -2.255,-1.012 -2.255,-2.262c-0,-1.249 1.01,-2.263 2.255,-2.263Zm-5.545,0.041c1.219,0 2.208,0.992 2.208,2.215c0,1.223 -0.989,2.215 -2.208,2.215c-1.219,-0.001 -2.207,-0.992 -2.207,-2.215c-0,-1.223 0.988,-2.214 2.207,-2.215Zm2.726,3.169c0,-0 0.42,1.88 0.621,3.578c0.073,0.616 0.269,2.154 0.434,3.42c0.483,3.741 0.759,6.815 1.23,10.26c1.164,8.473 1.427,11.178 1.152,11.899c-0.734,2.526 -4.175,2.72 -5.613,1.252c-1.087,-1.109 -1.246,-2.329 -0.818,-5.503c0.8,-6.275 0.783,-7.997 1.621,-14.612c0.288,-2.741 0.628,-5.311 1.001,-8.013c0.107,-0.967 0.372,-2.281 0.372,-2.281Zm-56.361,7.181c0,0 11.023,3.639 19.408,3.474c1.231,0 1.431,-0.012 2.964,0.49c0.908,0.297 2.338,0.7 3.176,0.893c2.586,0.502 4.858,0.361 6.87,-0.461c0.317,-0.129 0.781,-0.52 1.25,-0.378c0.286,0.087 0.702,0.657 0.702,0.657c-7.343,1.953 -24.52,1.592 -35.213,-2.923l0.843,-1.752Zm56.629,1.158c-0.046,0.009 -0.093,0.07 -0.147,0.155c-0.18,0.284 -0.032,2.149 0.636,8.079c1.274,11.329 1.269,11.572 -0.276,12.763c-0.759,0.586 -0.877,0.82 -0.512,1.033c0.272,0.159 0.25,0.163 0.804,0.014c1.3,-0.362 1.836,-1.395 1.826,-3.505c-0.009,-1.609 -0.027,-1.804 -0.527,-5.756c-0.173,-1.368 -0.411,-3.298 -0.528,-4.29c-0.837,-7.057 -1.029,-8.525 -1.276,-8.484l0,-0.009Zm-57.738,1.185c10.973,3.936 22.438,5.052 36.258,2.927c0.451,0.404 0.896,0.771 1.341,1.127c-0.21,0.371 -0.427,0.74 -0.651,1.107c-0.4,0.193 -0.804,0.381 -1.213,0.563c0.373,0.25 0.753,0.495 1.138,0.736c0.193,0.409 0.389,0.817 0.588,1.224c0.251,-0.386 0.494,-0.775 0.731,-1.165c0.412,-0.205 0.82,-0.417 1.223,-0.634c-0.401,-0.217 -0.794,-0.439 -1.182,-0.667c-0.185,-0.362 -0.367,-0.727 -0.547,-1.092c1.552,1.235 3.106,2.244 4.876,3.363c-12.323,3.769 -32.226,3.12 -44.503,-2.347c-0.467,-0.27 -0.74,-0.487 -0.74,-0.487c0.371,-0.881 0.854,-1.742 1.359,-2.573c0.136,0.317 0.272,0.634 0.415,0.95c-0.066,0.447 -0.13,0.895 -0.191,1.344c0.422,-0.184 0.839,-0.373 1.252,-0.566c0.456,0.059 0.91,0.113 1.364,0.161c-0.206,-0.405 -0.407,-0.811 -0.602,-1.217c0.055,-0.449 0.113,-0.897 0.173,-1.345c-0.4,0.198 -0.803,0.391 -1.211,0.581c-0.347,-0.049 -0.694,-0.104 -1.041,-0.159c0.392,-0.633 0.794,-1.259 1.163,-1.831Zm4.983,2.694c-0.384,0.226 -0.773,0.448 -1.166,0.667c-0.446,-0.029 -0.893,-0.063 -1.341,-0.103c0.206,0.4 0.418,0.8 0.636,1.199c-0.033,0.451 -0.063,0.903 -0.091,1.355c0.406,-0.214 0.807,-0.433 1.205,-0.655c0.457,0.025 0.915,0.046 1.371,0.061c-0.235,-0.389 -0.463,-0.78 -0.687,-1.171c0.022,-0.452 0.047,-0.903 0.074,-1.353l-0.001,-0Zm3.985,1.012c-0.369,0.251 -0.742,0.499 -1.12,0.744c-0.448,0.001 -0.896,-0.002 -1.346,-0.011c0.234,0.386 0.473,0.77 0.718,1.152l0,1.36c0.39,-0.242 0.776,-0.486 1.158,-0.735c0.459,-0.005 0.916,-0.016 1.373,-0.031c-0.26,-0.373 -0.516,-0.748 -0.765,-1.124c-0.009,-0.452 -0.013,-0.903 -0.018,-1.355l0,0Zm4.06,0.752c-0.355,0.275 -0.714,0.547 -1.076,0.816c-0.448,0.03 -0.896,0.054 -1.346,0.075c0.259,0.37 0.523,0.738 0.791,1.105c0.027,0.453 0.056,0.905 0.087,1.358c0.374,-0.267 0.744,-0.536 1.11,-0.808c0.457,-0.034 0.913,-0.071 1.368,-0.113c-0.282,-0.358 -0.56,-0.717 -0.833,-1.078c-0.036,-0.451 -0.069,-0.903 -0.101,-1.355l-0,0Zm20.605,0.313c-0.254,0.365 -0.515,0.728 -0.782,1.089c-0.418,0.158 -0.84,0.309 -1.264,0.456c0.353,0.281 0.71,0.56 1.074,0.833c0.156,0.425 0.316,0.849 0.478,1.273c0.283,-0.364 0.56,-0.729 0.83,-1.096c0.428,-0.167 0.853,-0.34 1.274,-0.518c-0.377,-0.254 -0.749,-0.513 -1.115,-0.776c-0.168,-0.419 -0.332,-0.839 -0.495,-1.261Zm-16.499,0.202c-0.338,0.294 -0.682,0.586 -1.028,0.876c-0.446,0.055 -0.894,0.107 -1.342,0.154c0.281,0.354 0.568,0.706 0.858,1.057c0.053,0.45 0.109,0.901 0.166,1.352c0.357,-0.289 0.71,-0.579 1.059,-0.872c0.455,-0.06 0.909,-0.125 1.36,-0.192c-0.301,-0.341 -0.6,-0.683 -0.893,-1.028c-0.062,-0.449 -0.121,-0.898 -0.18,-1.347Zm12.422,0.223c-0.284,0.345 -0.573,0.69 -0.868,1.032c-0.431,0.126 -0.865,0.248 -1.301,0.366c0.334,0.305 0.674,0.608 1.017,0.908c0.125,0.436 0.253,0.872 0.383,1.308c0.307,-0.343 0.61,-0.687 0.907,-1.033c0.44,-0.134 0.877,-0.273 1.311,-0.416c-0.355,-0.285 -0.705,-0.573 -1.05,-0.864c-0.135,-0.433 -0.268,-0.867 -0.399,-1.301Zm-8.287,0.068c-0.038,0.036 -0.077,0.072 -0.115,0.109c-0.285,0.274 -0.573,0.547 -0.865,0.818c-0.442,0.079 -0.886,0.154 -1.332,0.226c0.301,0.338 0.605,0.674 0.913,1.008c0.078,0.447 0.158,0.893 0.24,1.339c0.313,-0.283 0.624,-0.567 0.931,-0.854c0.026,-0.024 0.052,-0.047 0.078,-0.072c0.449,-0.083 0.898,-0.17 1.345,-0.26c-0.318,-0.325 -0.632,-0.652 -0.943,-0.98c-0.086,-0.445 -0.17,-0.89 -0.252,-1.334Zm4.155,0.078c-0.307,0.327 -0.618,0.653 -0.934,0.977c-0.439,0.101 -0.879,0.198 -1.321,0.292c0.317,0.323 0.637,0.645 0.962,0.964c0.1,0.443 0.2,0.888 0.303,1.33c0.326,-0.323 0.649,-0.649 0.967,-0.977c0.447,-0.106 0.891,-0.215 1.334,-0.329c-0.335,-0.309 -0.667,-0.62 -0.994,-0.933c-0.108,-0.441 -0.213,-0.883 -0.317,-1.324Zm-30.236,0.715c0.287,-0.008 0.944,0.632 1.216,1.349c0.533,1.41 0.288,2.973 -0.548,3.491c-1.137,0.704 -2.474,-0.4 -1.692,-1.397c0.138,-0.176 0.362,-0.352 0.497,-0.395c0.585,-0.186 0.722,-1.109 0.404,-2.705c-0.048,-0.236 0.011,-0.339 0.123,-0.343Zm4.257,0.541c11.878,3.896 25.355,5.205 39.241,2.356c0,-0 -6.579,26.921 -6.721,26.934l-32.52,-29.29Zm-5.824,0.084c0.625,-0 0.739,1.062 0.175,1.627c-0.72,0.721 -2.095,0.141 -1.808,-0.763c0.083,-0.263 1.22,-0.864 1.633,-0.864Zm3.414,0.623c0.129,-0.01 0.376,0.249 0.765,0.774c1.334,1.8 1.439,3.809 0.244,4.725c-1.4,1.074 -2.423,-0.592 -1.256,-2.047c0.302,-0.377 0.346,-1.073 0.166,-2.614c-0.064,-0.55 -0.049,-0.828 0.081,-0.838Zm46.058,0.649c0.153,-0.007 0.425,0.114 0.97,0.381c0.851,0.418 1.147,1.029 0.737,1.524c-0.596,0.719 -2.228,-0.705 -1.92,-1.675c0.046,-0.148 0.094,-0.226 0.213,-0.23Zm-1.28,0.937c0.213,0.021 0.555,0.413 0.95,1.209c0.255,0.511 0.402,0.656 0.83,0.811c1.016,0.368 1.205,1.422 0.311,1.734c-0.971,0.339 -1.693,-0.36 -2.137,-2.067c-0.293,-1.126 -0.232,-1.715 0.046,-1.687l-0,-0Zm-42.489,0.753c0.148,-0.009 0.43,0.322 0.877,0.984c1.328,1.962 0.87,5.733 -0.803,6.613c-0.737,0.387 -1.251,0.303 -1.842,-0.29c-0.865,-0.866 -0.653,-1.552 0.631,-2.025c1.093,-0.403 1.447,-1.65 1.109,-3.918c-0.134,-0.906 -0.138,-1.353 0.028,-1.364l0,0Zm6.323,0.622c8.112,6.701 15.436,13.886 24.874,22.272c2.242,-6.908 5.509,-21.252 5.52,-21.299c-0.357,0.295 -15.856,2.496 -30.394,-0.973Zm35.426,0.019c0.135,0 0.526,1.007 0.749,1.927c0.202,0.833 1.004,2.229 1.314,2.282c1.598,0.271 2.28,1.163 1.49,1.954c-0.58,0.581 -1.836,0.252 -2.441,-0.637c-1.137,-1.671 -1.912,-5.526 -1.112,-5.526Zm-90.511,0.925c0.964,0.008 1.892,0.617 2.126,1.873c0.273,1.462 -0.553,2.525 -1.251,2.354c-0.758,-0.284 -1.015,-1.487 -1.015,-1.487c-0,0 -0.18,0.98 -0.492,1.476c-0.68,1.039 -2.111,-0.503 -1.855,-2c0.25,-1.462 1.394,-2.225 2.487,-2.216Zm57.735,0.385c8.834,1.329 16.434,1.673 26.973,0.527l-4.966,19.317l-22.007,-19.844Zm-6.673,0.03c0.131,0.009 0.401,0.244 0.82,0.688c1.373,1.454 1.767,3.472 0.875,4.473c-0.543,0.61 -0.907,0.681 -1.484,0.286c-0.738,-0.506 -0.794,-1.268 -0.118,-1.618c0.622,-0.323 0.678,-1.03 0.187,-2.371c-0.367,-1 -0.471,-1.47 -0.28,-1.458Zm-57.629,0.497l3.227,1.342l1.156,2.733l-3.219,-0.833l-1.164,-3.242Zm12.204,0.363l-0.958,2.719l-2.484,0.93l0.967,-2.941l2.475,-0.708Zm84.191,0.57c0.12,0 0.297,0.343 0.512,1.054c0.533,1.76 0.759,2.204 1.245,2.436c0.792,0.379 0.85,1.341 0.101,1.683c-0.475,0.217 -0.631,0.173 -0.969,-0.272c-0.527,-0.692 -0.952,-2.017 -1.029,-3.206c-0.072,-1.115 -0.013,-1.692 0.14,-1.695Zm-35.93,1.229c0.093,-0.008 0.232,0.131 0.435,0.373c1.254,1.493 1.391,3.783 0.268,4.469c-1.087,0.664 -2.609,-0.706 -1.661,-1.496c0.901,-0.243 0.74,-1.347 0.749,-1.966c0.017,-0.964 0.053,-1.369 0.209,-1.38Zm9.527,0.159l15.451,14.066l3.548,-13.915c-6.103,0.549 -12.479,0.386 -18.999,-0.151Zm-37.958,0.706c4.882,5.164 11.269,9.341 12.787,14.475c2.719,7.068 0.724,15.267 -5.642,19.958c-9.643,6.238 -14.729,15.273 -20.8,23.316c-0.532,0.668 -2.367,3.539 -2.367,3.539c-5.216,-4.662 -14.632,-11.294 -21.545,-15.021l2.755,-1.544c5.433,3.103 12.188,7.521 18.264,12.669c3.684,-5.566 8.213,-11.735 12.262,-16.12c5.317,-6.576 10.808,-8.752 13.092,-12.082c3.347,-4.879 3.49,-10.662 0.738,-15.599c-2.715,-4.711 -7.994,-7.942 -11.5,-11.842l1.956,-1.749Zm46.333,0.382l6.04,0c0,0 -0.886,0.741 -1.567,1.197c-0.426,0.285 -0.925,0.247 -1.865,-0.147c-0.914,-0.383 -2.608,-1.05 -2.608,-1.05Zm6.917,0l1.409,0.046c-1.053,1.325 -2.133,2.18 -3.547,3.358c-0.182,0.079 -0.283,0.11 -0.709,-0.028c-2.887,-0.957 -5.537,-2.173 -8.349,-3.323l2.508,-0.013c-0,0 1.206,0.386 3.018,1.139c2.077,0.863 2.615,1.129 3.416,0.603c0.773,-0.515 1.413,-1.29 2.254,-1.78l0,-0.002Zm2.852,0l-0.505,1.854c-0.842,1.053 -2.546,2.27 -3.968,3.468c-0.334,0.174 -0.322,0.204 -1.78,-0.363c-5.369,-2.089 -7.965,-3.446 -7.965,-3.446l-1.089,-0.976c-0,-0 1.4,0.401 2.323,0.765c1.888,0.69 3.773,1.484 5.586,2.203c2.324,0.919 2.196,0.948 4.423,-1.021c2.411,-2.132 2.975,-2.484 2.975,-2.484Zm-81.337,0.171l2.344,2.689l-3.122,2.631l-2.359,-2.781l3.137,-2.539Zm88.903,-0c0.539,1.01 0.9,2.204 1.775,3.055c0.658,0.63 0.823,1.115 0.432,1.47c-1.019,0.631 -1.195,-0.39 -1.511,-1.056c-0.555,-1.173 -1.233,-2.757 -0.696,-3.469Zm-84.728,0.269c2.614,-0.108 3.221,3.452 0.919,4.624c-0.843,0.319 -1.812,0.176 -2.335,-0.348c-0.507,-0.508 -0.579,-0.937 -0.231,-1.203c0.542,-0.386 1.834,-0.415 1.834,-0.415c-0,0 -1.172,-0.396 -1.694,-0.689c-1.027,-0.586 -0.138,-1.903 1.507,-1.969Zm51.429,0.009c0.141,0.008 0.383,0.294 0.728,0.865c1.26,2.085 1.194,6.054 -0.121,7.058c-0.683,0.523 -1.534,0.448 -2.105,-0.186c-0.754,-0.836 -0.522,-1.679 0.597,-2.175c1.081,-0.479 1.301,-1.551 0.861,-4.196c-0.154,-0.921 -0.145,-1.376 0.038,-1.366l0.002,-0Zm-60.406,0.006c0.645,0.029 1.252,0.329 1.614,0.915c0.264,0.436 0.137,0.756 -0.362,0.973c-0.607,0.24 -1.76,0.459 -1.76,0.459c-0,-0 1.117,0.184 1.792,0.458c0.845,0.374 0.78,1.06 -0.458,1.649c-2.383,1.134 -4.573,-1.899 -2.669,-3.745c0.514,-0.497 1.197,-0.739 1.843,-0.709Zm62.456,1.557l0.058,0c0.219,0.027 0.623,0.344 1.028,0.882c1.421,1.885 1.668,4.718 0.458,5.27c-1.278,0.583 -2.197,-0.619 -1.277,-1.671c0.651,-0.745 0.571,-1.834 -0.294,-3.991c-0.126,-0.314 -0.095,-0.47 0.027,-0.49Zm-58.05,0.031c-0.451,0 -0.818,0.366 -0.818,0.817c0,0.452 0.367,0.817 0.818,0.817c0.452,-0 0.817,-0.366 0.817,-0.817c0,-0.45 -0.365,-0.816 -0.817,-0.817Zm88.731,0.058c0.112,-0.009 0.316,0.445 0.645,1.36c0.722,2.015 1.338,2.86 2.082,2.86c0.934,0 1.424,1.283 0.687,1.8c-1.456,1.022 -3.364,-1.481 -3.504,-4.601c-0.041,-0.937 -0.022,-1.411 0.09,-1.419Zm-7.697,0.997l0,0.002l-0.43,1.644c0,0 -0.993,0.967 -1.703,1.582c-1.128,0.976 -1.405,1.171 -2.296,0.867c-1.37,-0.474 -2.727,-0.904 -4.155,-1.338l-3.302,-2.735l7.534,2.945c-0,0 0.653,0.192 0.881,-0.036c0.987,-0.988 2.069,-1.754 3.471,-2.931l0,0Zm7.107,1.549c0.095,-0.021 0.19,0.099 0.256,0.4c0.341,1.548 0.837,2.671 1.254,2.845c0.528,0.221 0.73,0.679 0.507,1.146c-0.641,1.347 -2.327,-1.032 -2.327,-3.284c-0.001,-0.639 0.152,-1.071 0.31,-1.107Zm-27.189,0.109c0.092,-0.008 0.24,0.131 0.473,0.364c1.041,1.044 1.357,3.927 0.52,4.765c-1.209,1.211 -2.5,-0.588 -1.327,-1.849c0.311,-0.333 0.311,-0.358 0.237,-1.835c-0.051,-1.029 -0.056,-1.436 0.097,-1.445Zm-63.107,0.287l-0.815,2.705l-2.603,0.672l0.609,-2.227l2.809,-1.15Zm3.118,0.276c0.206,-0.008 0.441,0.07 0.687,0.248c1.06,0.77 1.148,2.085 0.652,3.055c-0.474,0.948 -1.444,1.219 -2.383,1.123c-1.216,-0.135 -2.135,-0.985 -2.071,-2.285c0.021,-0.652 0.304,-1.374 0.744,-1.683c0.31,-0.217 0.565,-0.128 0.833,0.318c0.25,0.436 0.677,1.424 0.677,1.424c-0,-0 0.014,-1.013 0.157,-1.534c0.117,-0.415 0.374,-0.653 0.704,-0.666Zm1.986,0.236l1.885,0.646l0.746,2.565l-2.111,-0.82l-0.52,-2.391Zm107.494,0.472c2.013,1.37 2.712,1.866 4.846,3.77l-0.062,33.471l-6.112,-3.804c0.648,-5.475 1.065,-10.984 1.802,-16.424c0.449,-5.17 1.441,-6.655 -2.014,-8.848c3.815,-1.812 2.691,-5.856 0.335,-7.493l1.205,-0.672Zm-30.32,0.128l-0.341,1.531c-1.224,2.099 -2.32,1.992 -4.194,1.019l-2.249,-1.917c1.456,0.304 2.237,0.771 3.661,1.22c0.706,0.196 0.965,0.071 1.462,-0.376c0.572,-0.521 1.003,-0.911 1.661,-1.477Zm-17.321,0.397c0.139,-0.014 0.397,0.142 0.64,0.407c0.763,0.834 0.961,1.655 0.896,3.684c-0.147,1.443 -0.082,2.518 -1.264,3.327c-0.577,0.379 -1.576,0.379 -2.022,0.008c-1.07,-0.718 -0.479,-2.154 0.923,-2.224c0.884,-0.016 1.248,-2.912 0.746,-4.721c-0.078,-0.281 -0.058,-0.465 0.081,-0.478l-0,-0.003Zm24.547,0.298c0.172,0 0.476,0.439 0.657,1.158c0.261,1.042 0.627,1.627 1.202,1.921c0.737,0.376 0.975,1.1 0.505,1.527c-0.938,0.85 -1.896,-0.17 -2.203,-2.344c-0.015,-0.247 -0.446,-2.239 -0.161,-2.262Zm20.126,0.359c2.091,0.032 3.274,1.497 3.271,3.274c-0.022,1.281 -0.72,2.584 -2.007,3.124c-3.07,0.906 -4.748,-1.153 -4.718,-3.157c0.023,-1.616 1.364,-3.274 3.454,-3.241Zm-42.819,0.767c0.183,-0 0.493,0.262 0.613,0.394c1.759,1.761 1.838,5.53 0.117,5.53c-2.065,-0.685 -0.455,-1.905 -0.415,-2.222c0.161,-1.298 -0.136,-2.13 -0.439,-3.342c-0.05,-0.269 0.015,-0.362 0.124,-0.36Zm42.933,0.223c-0.369,-0.011 -0.344,0.361 0.332,0.945c1.226,1.058 0.626,3.01 -0.927,3.019c-0.716,0.007 -0.892,0.488 -0.268,0.739c2.412,0.97 4.058,-2.703 1.897,-4.233c-0.451,-0.319 -0.813,-0.463 -1.034,-0.47Zm-92.233,0.494c1.941,0.663 2.61,4.367 2.684,5.674c0.087,2.274 -0.97,5.992 -1.913,6.735c-2.441,1.923 -3.586,-4.878 -1.498,-9.254c0.183,-0.359 0.412,-0.843 0.327,-1.737c-0.085,-0.887 0.064,-1.412 0.4,-1.418Zm64.135,0.357c-0,0 -0.245,1.111 -0.505,1.718c-0.301,0.703 -0.521,0.725 -1.221,0.125c-0.39,-0.334 -1.036,-1.027 -1.036,-1.027c0.609,0.095 1.154,0.412 1.671,0.155c0.553,-0.273 0.998,-0.786 1.091,-0.971Zm7.367,0.059c0.138,0.007 0.313,0.391 0.546,1.158c0.639,2.098 1.198,2.887 2.045,2.887c1.387,0 1.689,1.673 0.38,2.102c-0.486,0.159 -0.649,0.158 -1.269,-0.009c-0.934,-0.249 -2.212,-3.406 -2.029,-5.013c0.086,-0.755 0.189,-1.13 0.327,-1.125l-0,-0Zm-85.421,1.219c0.509,-0.012 0.708,0.24 1.007,0.86c0.341,0.706 1.236,1.602 1.991,1.993c1.823,0.897 3.742,1.599 5.543,2.5c2.335,1.175 4.429,4.773 2.996,5.149c-0.52,0.12 -1.118,0.125 -1.65,0.076c-0.173,-0.091 -0.511,-0.483 -0.752,-0.877c-1.065,-1.746 -3.057,-3.456 -6.129,-4.256c-2.166,-0.564 -4.107,-3.236 -4.524,-4.492c-0.108,-0.326 -0.113,-0.581 0.178,-0.664c0.617,-0.178 1.034,-0.281 1.34,-0.289Zm65.854,0.218c0.097,-0.016 0.238,0.108 0.453,0.338c1.29,1.38 1.45,3.916 0.292,4.633c-1.256,0.778 -2.356,-0.509 -1.37,-1.601c0.434,-0.482 0.434,-0.482 0.434,-1.928c-0,-0.997 0.03,-1.416 0.191,-1.442Zm18.767,1.609c0.154,0.008 0.387,0.435 0.668,1.279c0.398,1.197 0.452,1.291 0.907,1.526c0.771,0.399 0.895,0.996 0.33,1.563c-1.054,1.055 -2.115,-0.644 -2.119,-3.389c0,-0.66 0.077,-0.984 0.214,-0.979Zm-16.853,0.19c0.096,0.009 0.365,0.22 0.573,0.467c1.579,1.876 1.26,6.27 -0.502,6.929c-0.588,0.22 -0.766,0.23 -1.131,0.073c-1.314,-0.569 -1.154,-1.958 0.464,-2.84c1.211,-0.66 0.348,-4.612 0.596,-4.629l0,-0Zm-80.752,1.384l6.521,3.242c0,-0 1.787,3.769 2.61,5.183c0.565,0.98 1.697,1.927 0.529,2.58c-1.962,1.333 -3.075,2.091 -3.058,2.919c0.014,0.669 0.845,1.352 1.963,2.67c1.606,1.893 1.59,1.458 0.132,4.346c-1.117,2.025 -2.067,6.61 -2.067,6.61l-6.588,3.4c1.96,-4.69 4.268,-8.681 6.854,-11.534c-1.921,-1.43 -3.535,-2.919 -5.22,-4.894c1.243,-1.668 2.884,-3.014 4.399,-4.464c-3.076,-3.484 -5.004,-6.826 -6.075,-10.058Zm82.472,0.059l0.034,-0c0.274,0.018 0.899,0.698 1.448,1.791c0.71,1.412 0.778,3.188 0.147,3.819c-1.086,1.089 -2.501,-0.309 -1.486,-1.468c0.717,-0.521 0.524,-1.819 -0.043,-3.168c-0.261,-0.647 -0.256,-0.949 -0.1,-0.974Zm-83.193,0.633c1.697,3.612 3.593,6.549 5.538,9.33l-4.243,4.462c1.306,1.519 2.89,3.151 5.113,5.045c-2.729,3.04 -4.52,7.296 -6.313,11.315l-0.095,-30.152Zm97.6,0.078c0.147,0.011 0.357,0.448 0.571,1.328c0.27,1.11 0.457,1.394 1.102,1.671c1.027,0.441 1.048,1.435 0.043,1.792c-0.369,0.131 -1.06,-0.24 -1.346,-0.726c-0.377,-0.694 -0.571,-1.629 -0.567,-2.484c-0.059,-1.058 0.031,-1.593 0.197,-1.581l0,0Zm22.229,0.539c0.426,-0.016 0.9,0.018 1.302,0.13c1.604,0.45 2.185,2.06 1.872,5.043c-0.419,3.99 -0.911,8.429 -1.311,12.094c-0.462,4.229 -0.844,6.916 -0.844,6.916l-0.395,-0.304c-0,-0 0.115,-2.288 0.264,-3.69c0.359,-3.158 0.557,-5.922 0.861,-9.077c0.682,-7.02 0.516,-9.24 -0.752,-9.888c-0.98,-0.501 -1.403,-0.205 -0.679,0.478c1.379,1.066 1.336,1.512 -0.14,18.798c-0.152,1.789 -0.214,3.054 -0.214,3.054l-1.873,-1.165c0,-0 -0.139,-1.482 -0.315,-3.72c-0.423,-4.214 -0.668,-8.707 -0.949,-12.746c-0.3,-4.31 0.504,-5.818 3.173,-5.923Zm-34.54,0.635c0.459,0.168 1.362,1.85 1.415,1.999c0.205,0.57 1.135,4.821 -1.246,3.6c-0.634,-0.359 -0.67,-0.919 -0.202,-1.465c0.524,-0.61 0.647,-1.487 0.384,-2.739c-0.159,-0.762 -0.351,-1.395 -0.351,-1.395Zm-69.611,0.661c0.068,-0.012 0.146,-0.012 0.234,0.008c2.014,0.383 4.225,1.56 5.651,3.032c0.885,0.942 0.84,1.7 -0.543,1.788c-1.331,0.196 -1.359,0.414 -1.995,-0.138c-0.286,-0.224 -0.842,-0.773 -1.476,-0.871c-1.884,-0.292 -2.903,-3.62 -1.871,-3.815l-0,-0.004Zm81.528,1.117c0.212,0.343 0.234,1.016 0.41,1.498c0.301,1.347 1.224,2.343 2.053,2.219c0.557,-0.067 1.326,0.1 1.408,0.768c0.162,0.565 -0.134,1.1 -0.744,1.345c-0.69,0.276 -1.469,0.107 -2.057,-0.447c-1.24,-1.167 -1.996,-4.975 -1.07,-5.383Zm-9.825,0.046c0.033,-0.014 0.077,-0.014 0.137,0.007c0.722,0.278 1.644,2.595 1.742,4.433c0,1.316 -0.205,2.972 -1.337,3.598c-0.72,0.373 -1.465,0.186 -1.79,-0.443c-0.399,-0.773 -0.101,-1.569 0.723,-1.942c1.008,-0.455 1.335,-2.505 0.721,-4.505c-0.03,-0.292 -0.42,-1.051 -0.196,-1.144l0,-0.004Zm-76.796,0.967l5.315,2.696c-0.773,1.058 -1.381,2.039 -1.8,3.156c-1.689,-1.92 -2.575,-3.875 -3.515,-5.852Zm78.93,0.923c0.091,-0 0.397,0.29 0.665,0.549c1.326,1.287 1.898,3.623 1.097,4.477c-0.64,0.682 -1.625,0.636 -1.812,-0.081c-0.068,-0.352 0.305,-1.01 0.469,-1.326c0.245,-0.47 0.154,-1.812 -0.216,-2.793c-0.166,-0.44 -0.321,-0.824 -0.203,-0.826Zm-36.921,0.53l6.005,0.206l20.117,18.152l-1.888,-0.044l-18.485,-16.872l-5.753,0.012l0.004,-1.454Zm-34.715,1.017c0.777,0.059 0.487,1.775 0.118,2.253c-2.293,3.65 -2.92,8.252 -1.512,12.341c1.07,2.9 -1.264,3.074 -2.221,1.163c-0.736,-1.429 -1.398,-3.947 -0.936,-6.565c0.56,-3.179 1.55,-8.642 4.38,-9.18c0.062,-0.012 0.119,-0.016 0.171,-0.012l-0,0Zm77.857,1.577c4.201,0.155 5.397,6.161 4.692,9.461c-0.61,2.855 -1.739,4.275 -3.343,4.868c-6.568,2.43 -9.429,-10.84 -3.336,-14.013c0.726,-0.242 1.387,-0.338 1.987,-0.316Zm-43.507,0.791l5.664,0.116c5.163,4.704 10.713,9.094 16.238,14.814l-2.787,0l-14.474,-13.189l-4.94,-0.14l0.299,-1.601Zm43.211,0.874c-3.062,0.124 -3.311,4.282 -3.219,5.856c0.223,2.269 1.125,5.619 3.999,5.355c2.109,-0.211 3.085,-2.712 2.893,-5.716c-0.182,-2.828 -1.333,-5.498 -3.673,-5.495Zm-43.727,1.38l4.97,0.112l13.608,12.564l-2.169,0c-4.083,-3.683 -8.131,-7.727 -11.858,-10.877l-5.156,-0.202l0.605,-1.597Zm43.265,0.084c0.082,-0.008 0.165,-0.003 0.249,0.017c1.195,0.29 1.122,2.648 0.55,3.385c-0.52,0.602 -1.716,-0.539 -1.823,-1.976c-0.05,-0.67 0.451,-1.37 1.024,-1.426l0,-0Zm-81.588,0.343c-0.4,1.372 -0.662,2.915 -0.826,4.582l-2.079,-2.646l2.905,-1.936Zm83.71,2.553c0.508,0 0.919,0.413 0.919,0.921c0,0.509 -0.411,0.922 -0.919,0.922c-0.508,-0 -0.918,-0.413 -0.918,-0.922c-0,-0.508 0.41,-0.921 0.918,-0.921Zm-41.752,0.463l9.905,9.327l-2.821,0.031l-8.124,-7.377l-5.156,-0.194l1.01,-1.761l5.186,-0.026Zm38.518,0.159c0.508,-0 0.918,0.412 0.918,0.921c-0,0.509 -0.41,0.921 -0.918,0.921c-0.508,0 -0.92,-0.412 -0.92,-0.921c-0,-0.509 0.412,-0.921 0.92,-0.921Zm11.789,0.017c5.583,4.347 13.462,10.114 21.649,14.791c-0,-0.016 -1.349,1.063 -2.592,1.404c-6.371,-3.519 -13.951,-8.482 -18.647,-12.506c-4.433,6.537 -12.948,18.429 -20.517,23.92c-4.777,3.423 -7.183,7.642 -7.169,12.574c0.014,5.103 1.814,8.424 6.824,12.603c3.233,2.696 6.765,6.137 6.765,6.137l-2.093,1.746c-6.911,-5.951 -15.729,-12.177 -13.983,-22.315c0.658,-4.605 2.19,-7.906 6.548,-11.461c1.673,-1.298 3.364,-2.305 4.838,-3.781c13.54,-14.509 18.377,-23.112 18.377,-23.112Zm-9.882,1.449c0.341,0.057 0.629,0.562 0.819,0.923c0.512,1.054 0.794,2.436 -0.811,2.529c-0.95,0.055 -1.494,-1.53 -0.671,-2.942c0.234,-0.417 0.458,-0.544 0.663,-0.51Zm-46.896,0.642l5.346,0.161c-0,-0 5.272,4.602 7.934,7.153l17.905,0c9.848,0 17.942,0.039 17.988,0.086c0.123,0.122 -1.271,1.998 -1.271,1.998l-59.058,0.034c0.012,-0.009 3.648,-3.251 4.95,-4.16c2.305,-1.611 4.418,-3.111 6.206,-5.27l0,-0.002Zm-36.189,2.227c0.386,1.428 0.71,2.885 1.377,4.201l-4.101,2.181c0.754,-2.174 1.617,-4.267 2.724,-6.382Zm113.864,11.877c-0.815,2.223 -2.947,6.759 -5.521,10.197c-0.511,0.659 -0.861,1.174 -0.861,1.174l5.024,4.819l-4.36,4.643c2.449,2.553 4.519,6.463 5.609,9.576c-1.978,-0.783 -3.089,-1.256 -5.528,-2.616c-0.69,-1.733 -1.392,-3.569 -2.168,-5.152c-1.779,-3.612 -1.755,-3.259 -0.303,-4.322c2.127,-1.556 2.76,-1.917 2.207,-2.701c-0.388,-0.552 -2.897,-3.536 -3.048,-3.63c-0.231,-0.143 -0.129,-0.584 0.298,-1.29c1.454,-2.616 2.645,-5.497 3.386,-8.059l5.265,-2.639Zm0.95,0.182l0.133,30.366c-1.8,-3.627 -3.672,-7.333 -5.758,-9.649c-0.079,-0.157 4.551,-4.686 4.551,-4.686c-1.696,-1.575 -2.689,-2.516 -5.059,-4.702c2.308,-3.333 4.135,-7.689 6.133,-11.329Zm-127.398,1.053l5.759,3.35c-0.304,4.283 -0.688,9.906 -1.278,15.611c-0.495,4.45 -0.7,6.503 0.088,7.738c0.667,0.904 2.466,1.88 2.466,1.88c-3.029,1.229 -4.198,4.853 -0.802,7.563c0,0 -0.824,0.649 -1.19,1.041l-4.725,-3.54l-0.318,-33.643Zm90.149,1.535c-1.436,1.612 -3.687,4.003 -5.414,5.146c-2.305,1.525 -5.541,4.451 -5.386,4.495c0,0 -3.391,-0.017 -5.687,-0.108l-7.92,-7.081c-9.103,-0.109 -21.483,0.115 -35.721,-0.053l1.582,-2.226l58.546,-0.173Zm28.238,1.391c-0.78,2.511 -1.99,4.831 -3.522,7.007c-0.355,-1.543 -0.55,-3.181 -1.292,-4.492l4.814,-2.515Zm-111.898,0.806l0.692,0.492c-0,-0 -0.412,5.241 -0.548,6.775c-0.242,2.833 -0.362,5.386 -0.609,8.273c-0.496,5.732 -0.412,6.576 0.711,7.461c0.864,0.648 1.452,0.354 0.686,-0.466c-0.505,-0.65 -0.502,-0.637 -0.655,-1.593c-0.107,-0.665 -0.09,-1.657 0.062,-4.345c0.855,-15.144 1.031,-15.652 1.05,-15.657l1.722,1.116c-0.096,0.232 1.578,15.261 1.408,18.998c-0.199,4.369 -6.07,3.404 -6.348,0.161c-0.115,-0.745 0.999,-13.012 0.999,-13.012l0.83,-8.203Zm47.883,0.881l2.304,0.068l14.213,13.088l4.845,0.105l-0.422,1.652l-4.682,-0.013l-16.258,-14.9Zm8.812,0l2.231,0l8.135,7.388l5.009,0.078l-0.955,1.422l-4.981,-0.144l-9.439,-8.744Zm-2.776,0.009l12.026,10.863l4.099,0.213l-0.631,1.484l-4.862,-0.135l-13.51,-12.397l2.878,-0.028Zm-11.595,0.04l2.497,-0l18.799,16.955l4.927,0.09l-0.075,1.527l-5.931,-0.027l-20.217,-18.545Zm62.869,0.463c0.121,-0.015 0.252,-0.008 0.393,0.017c0.992,0.25 1.481,1.212 2.181,4.784c0.815,4.165 -0.953,10.924 -3.167,12.192c-1.145,0.903 -2.391,-0.052 -1.582,-1.23c2.642,-3.843 2.99,-10.132 1.428,-13.649c-0.434,-0.989 -0.098,-2.009 0.747,-2.113l0,-0.001Zm-79.364,0.645c6.007,0.072 7.559,12.429 1.65,14.162c-3.839,0.568 -5.814,-2.912 -6.371,-6.053c-0.657,-3.903 1.059,-8.153 4.721,-8.109Zm0.074,1.612c-3.122,-0.177 -3.652,3.891 -3.375,5.802c0.359,2.476 1.891,5.312 4.12,5.07c2.931,-0.319 3.301,-4.24 3.01,-6.214c-0.35,-2.381 -1.661,-4.539 -3.755,-4.658Zm-0.156,0.99c0.838,-0.013 1.455,1.109 1.226,2.5c-0.148,0.901 -0.49,2.01 -1.501,1.257c-0.471,-0.431 -0.893,-1.694 -0.78,-2.637c0.075,-0.62 0.38,-1.102 1.055,-1.12Zm82.831,2.857l2.819,3.268l-3.203,2.25c0.45,-1.719 0.599,-3.548 0.384,-5.518Zm-80.786,0.296c0.508,-0 0.919,0.415 0.919,0.924c-0,0.509 -0.411,0.921 -0.919,0.921c-0.508,0 -0.919,-0.412 -0.919,-0.921c-0,-0.509 0.411,-0.924 0.919,-0.924Zm-3.29,0.567c0.509,-0 0.92,0.412 0.92,0.921c0,0.509 -0.411,0.922 -0.92,0.922c-0.508,-0 -0.922,-0.413 -0.922,-0.922c-0,-0.509 0.414,-0.921 0.922,-0.921Zm1.957,1.183c0.386,0.051 0.693,0.625 0.91,0.948c0.615,0.917 0.696,2.066 0.259,2.548c-0.884,1.051 -2.263,-0.072 -2.097,-1.696c-0.001,-0.77 0.209,-1.635 0.759,-1.788c0.058,-0.017 0.114,-0.02 0.169,-0.012l0,-0Zm7.78,3.612c1.319,-0 1.691,1.558 0.555,2.32c-0.739,0.496 -0.903,2.106 -0.446,4.337c0.37,1.611 0.177,1.861 -0.783,0.409c-1.639,-2.633 -1.217,-7.066 0.674,-7.066Zm-3.084,0.848c1.157,-0.045 1.528,0.841 0.853,1.519c-0.395,0.44 -0.356,1.599 0.085,2.553c0.625,1.381 0.478,1.798 -0.69,0.47c-1.614,-1.729 -1.589,-4.491 -0.248,-4.542Zm76.475,0.671c1.313,1.749 2.477,4.03 3.539,6.615l-5.692,-2.619l2.153,-3.996Zm-85.395,0.587c2.464,0.019 3.312,6.112 2.234,6.442c-0.403,-0.467 -0.598,-1.978 -0.929,-2.624c-0.256,-0.776 -0.479,-1.229 -0.897,-1.202c-2.405,0.204 -2.303,-2.1 -0.923,-2.535c0.179,-0.057 0.351,-0.082 0.515,-0.081Zm14.037,2.225c0.692,0.048 0.534,1.19 0.127,1.892c-0.64,1.103 -0.113,1.931 -0.027,3.22c0.072,0.586 0.104,0.741 -0.376,0.291c-1.141,-0.997 -1.747,-4.4 -0.72,-5.03c0.442,-0.284 0.766,-0.389 0.996,-0.373l0,-0Zm57.076,0.288c0.703,-0.069 1.359,0.689 1.57,1.199c0.452,1.15 0.411,3.971 0.183,5.472c-0.349,2.298 -0.902,4.408 -1.129,5.989c-0.805,0.959 -2.789,-2.434 -2.975,-5.111c-0.312,-2.123 0.344,-6.677 2.048,-7.466c0.101,-0.046 0.203,-0.073 0.303,-0.083Zm7.749,0.352c0.499,-0.022 0.384,0.146 0.753,0.532c0.561,0.587 0.788,0.73 1.579,0.979c1.632,0.514 3.427,2.795 2.735,3.487c-0.546,0.434 -2.033,-0.385 -2.541,-0.56c-0.546,-0.188 -1.228,-0.424 -1.517,-0.521c-1.367,-0.462 -3.335,-2.989 -2.723,-3.498c0.327,-0.272 1.326,-0.401 1.714,-0.419Zm-3.979,0.415c1.011,0.01 1.287,0.263 1.866,1.353c0.857,1.616 2.449,2.754 4.763,3.411c2.953,0.903 5.502,2.618 5.378,5.794c-0.705,0.008 -1.41,0.056 -2.114,0.271c-0.818,-2.305 -2.852,-3.626 -4.602,-4.024c-4.037,-0.917 -7.784,-5.021 -6.718,-6.649c0.487,-0.188 0.924,-0.162 1.427,-0.156Zm-69.645,0.207l34.879,30.428c-14.719,-5.47 -28.223,-5.352 -41.279,-3.33l6.4,-27.098Zm-5.182,0.525c1.337,0.139 1.706,1.962 1.761,3.171c0,1.666 -0.472,1.603 -0.737,-0c-0.127,-0.71 -0.347,-0.986 -0.92,-1.158c-1.301,-0.391 -1.385,-2.013 -0.104,-2.013Zm18.727,0.023c0.736,0.06 1.383,0.72 1.331,1.467c-0.065,0.947 -1.363,1.149 -1.632,1.383c-0.652,0.568 -0.565,2.209 -0.287,4.122c0.214,1.148 -0.072,1.098 -0.675,0.198c-1.067,-1.593 -1.045,-4.356 -0.337,-5.984c0.399,-0.917 1.027,-1.233 1.6,-1.186Zm-2.918,0.16c0.905,0.016 0.601,1.172 0.399,1.677c-0.343,0.378 -0.349,2.145 -0.039,3.332c0.173,0.656 -0.147,0.707 -0.59,0.186c-1.363,-1.727 -1.294,-4.839 -0.237,-5.126c0.183,-0.049 0.337,-0.071 0.467,-0.069l-0,0Zm-16.027,2.45c0.81,0.048 1.252,1.749 1.32,2.616c0.133,1.687 -0.354,1.849 -0.862,0.226c-0.131,-0.377 -0.345,-0.757 -0.511,-0.871c-0.949,-0.651 -1.117,-1.158 -0.566,-1.709c0.226,-0.196 0.432,-0.273 0.619,-0.262Zm6.433,1.136l-4.729,20.205c11.639,-0.978 16.927,-1.184 29.362,1.25l-24.633,-21.455Zm13.811,0.297c0.091,-0 0.188,0.011 0.29,0.037c0.712,0.178 0.957,1.109 0.128,1.989c-0.272,0.349 -0.526,0.888 -0.194,2.316c0.454,1.955 -0.31,1.33 -1.241,-0.515c-0.559,-1.109 -0.354,-3.829 1.017,-3.827l-0,-0Zm-21.973,0.1c1.265,-0 2.437,2.056 2.456,4.306c0.014,1.818 -0.245,1.684 -0.92,-0.052c-0.474,-1.149 -0.857,-1.563 -1.718,-1.863c-1.596,-0.556 -1.457,-2.391 0.182,-2.391l0,-0Zm8.546,0.582l21.902,19.174c-8.968,-1.436 -17.774,-1.546 -26.325,-0.47l4.423,-18.704Zm18.228,0.723c1.718,-0 2.394,2.126 0.287,2.87c-1.256,0.443 -0.719,2.987 -0.489,4.498c0.088,0.57 -0.091,0.61 -0.453,0.101c-1.323,-1.956 -2.064,-6.89 0.655,-7.469Zm-2.831,0.799c0.737,-0.039 1.16,0.715 0.512,1.592c-0.311,0.492 -0.347,1.02 -0.132,1.973c0.557,2.051 0.701,2.43 -0.462,1.388c-1.225,-1.297 -1.759,-3.865 -0.733,-4.625c0.288,-0.214 0.569,-0.315 0.815,-0.328Zm-42.77,0.01c2.034,-0.014 3.511,1.302 3.433,3.141c-0.086,2.025 -1.352,3.301 -3.212,3.408c-2.075,0.105 -3.357,-1.554 -3.403,-3.273c-0.041,-1.518 0.923,-3.26 3.182,-3.276Zm-0.033,0.812c-2.327,-0.008 -3.199,3.066 -1.273,4.485c0.826,0.608 1.478,0.436 0.799,-0.21c-1.279,-1.219 -0.765,-3.233 0.919,-3.604c0.833,-0.183 0.511,-0.668 -0.445,-0.671Zm28.329,0.521l-2.8,13.608c5.729,-0.891 12.661,-0.619 18.011,-0.116l-15.211,-13.492Zm-9.434,0.518c1.394,-0.071 1.801,2.027 1.812,2.862c-0,1.081 -0.127,1.644 -0.325,1.066c-0.469,-1.363 -0.933,-2.111 -1.437,-2.111c-0.273,-0.07 -0.505,-0.178 -0.725,-0.426c-0.495,-0.656 -0.015,-1.364 0.675,-1.391Zm9.694,0.542l1.847,1.571c-1.188,-0.522 -2.2,0.827 -2.2,0.827l0.353,-2.398Zm18.641,0.904c0.643,0.054 1.086,0.673 0.364,1.665c-0.536,0.675 -0.532,2.099 -0.116,3.757c0.116,0.464 -0.318,0.121 -0.754,-0.43c-0.826,-1.044 -1.213,-2.266 -1.064,-3.269c0.084,-1.267 0.928,-1.778 1.57,-1.723Zm-28.847,0.452c1.195,0.136 1.646,2.636 1.618,3.393c-0.04,0.793 -0.219,1.328 -0.376,0.847c-0.307,-1.045 -0.944,-2.547 -1.495,-2.891c-0.943,-0.589 -0.676,-1.265 0.253,-1.349Zm88.852,0.351c1.493,0.069 2.566,1.034 2.645,2.45c0.043,0.882 -0.323,1.785 -0.865,2.075c-0.554,0.297 -0.892,-0.105 -1.223,-1.121c-0.243,-0.747 -0.329,-1.035 -0.329,-1.035c-0,0 -0.206,0.935 -0.271,1.13c-0.432,1.297 -1.838,1.31 -2.428,-0.139c-0.627,-1.69 1.124,-3.421 2.471,-3.36Zm-77.172,0.563c0.42,0 2.049,0.731 2.049,0.731l1.621,1.437c0,-0 -1.491,-0.648 -2.017,-0.835c-1.256,-0.445 -1.229,-0.449 -2.243,0.381c-1.043,0.854 -1.901,1.48 -1.901,1.48l0.323,-1.846c-0,-0 1.527,-1.348 2.168,-1.348Zm71.678,0.26l2.214,1.031l0.469,2.298l-2.041,-0.507l-0.642,-2.822Zm-84.798,0.045c1.537,0.085 2.261,2.657 2.479,4.23c0.24,1.951 -0.305,2.118 -0.834,0.255c-0.453,-1.595 -0.898,-2.178 -1.667,-2.178c-1.396,0.237 -1.83,-1.733 -0.687,-2.181c0.253,-0.099 0.489,-0.139 0.709,-0.126Zm35.863,0.086c1.456,0.118 1.482,2.196 0.049,2.54c-0.997,0.239 -0.992,1.789 -0.707,4.038c0.064,0.513 0.202,1.134 0.17,1.22c-0.151,0.407 -0.658,-0.216 -1.342,-1.657c-1.019,-2.628 -0.701,-5.554 1.119,-6.06c0.266,-0.074 0.502,-0.098 0.71,-0.081l0.001,0Zm60.226,0.046l-0.616,2.658l-1.873,-0.129l-0.071,-1.628l2.56,-0.901Zm-63.839,0.097c0.843,-0.05 1.159,0.985 0.714,1.631c-1.026,1.489 -0.104,2.863 0.124,4.028c0.04,0.677 -0.833,0.014 -1.335,-0.973c-1.048,-2.058 -1.109,-3.719 -0.168,-4.461c0.248,-0.146 0.471,-0.214 0.665,-0.225Zm-18.509,1.266c1.599,0.377 2.798,0.956 4.476,1.636l2.394,2.119c0,0 -2.101,-0.777 -3.565,-1.396c-3.295,-1.394 -2.821,-1.439 -5.426,0.548c-0.752,0.574 -1.536,1.229 -1.536,1.229l0.317,-1.703c0,-0 0.985,-0.979 2.212,-1.865c0.529,-0.382 0.766,-0.571 1.128,-0.568Zm-30.658,0.804c1.686,-0.046 2.794,1.298 3.199,2.798c0.235,0.87 0.033,1.673 -0.014,2.507c-1.142,8.765 -1.657,16.911 -2.686,25.028c-0.021,0.158 -0.208,1.067 -0.208,1.067c0,-0 -0.127,-0.345 -0.299,-1.055c-1.239,-7.502 -2.046,-15.737 -3.088,-23.17c-0.238,-2.776 -0.953,-6.406 2.553,-7.116c0.186,-0.036 0.367,-0.054 0.541,-0.059l0.002,0Zm17.214,0.978c1.074,0.016 1.535,3.495 1.542,3.85c-0.027,0.651 -0.359,0.382 -0.441,-0c-0.266,-0.867 -0.82,-1.807 -1.285,-2.181c-0.561,-0.452 -0.694,-1.063 -0.313,-1.445c0.179,-0.158 0.344,-0.227 0.497,-0.224Zm-17.311,0.014c-0.744,0.03 -1.623,0.542 -1.935,1.201c-0.638,1.346 -0.472,4.087 0.74,12.303c0.101,0.684 0.241,1.826 0.311,2.538c0.212,2.181 0.502,3.915 0.71,4.236c0.397,0.613 0.447,-0.045 0.162,-2.18c-0.145,-1.09 -0.341,-2.754 -0.437,-3.699c-0.545,-3.897 -0.664,-6.67 -1.002,-10.225c-0.169,-1.748 0.534,-3.036 1.851,-3.385c0.713,-0.189 0.752,-0.511 0.085,-0.727c-0.148,-0.048 -0.313,-0.069 -0.485,-0.062l-0,0Zm107.622,0.09l2.25,2.482l-2.629,2.729l-2.475,-2.72l2.854,-2.491Zm-5.2,0.012c0.631,-0.018 1.488,0.195 2.031,0.739c0.7,0.701 0.663,0.965 -0.511,1.393c-0.57,0.212 -0.962,0.376 -0.962,0.376c-0,0 0.529,0.209 0.922,0.319c1.125,0.376 1.065,1.029 0.033,1.802c-1.407,1.052 -3.667,-0.344 -3.641,-2.196c0.022,-1.468 0.924,-2.399 2.128,-2.433Zm9.107,0.008c2.463,0.008 3.368,3.461 0.958,4.679c-0.895,0.452 -2.395,0.239 -2.768,-0.483c-0.181,-0.562 0.022,-0.889 0.469,-1.127c0.544,-0.29 1.341,-0.538 1.341,-0.538c-0,-0 -1.304,-0.254 -1.672,-0.873c-0.792,-1.334 0.662,-1.633 1.672,-1.658Zm-80.21,0.174c0.637,-0.008 1.751,0.524 4.479,1.625c1.499,0.605 3.231,1.295 3.231,1.295l2.456,2.176c-0,0 -3.364,-1.058 -4.535,-1.652c-0.254,-0.129 -0.813,-0.367 -1.242,-0.529c-0.428,-0.161 -1.49,-0.577 -2.361,-0.928c-1.873,-0.755 -1.895,-0.76 -2.522,-0.23c-0.269,0.227 -0.927,0.745 -1.463,1.151c-0.535,0.406 -1.317,1.001 -1.738,1.321c-0.495,0.377 -1.121,0.948 -1.121,0.948l0.396,-2.098c-0,-0 0.354,-0.348 0.986,-0.832c0.512,-0.393 1.384,-1.063 1.939,-1.489c0.564,-0.433 0.858,-0.753 1.495,-0.758Zm22.621,0.861c0.064,-0.003 0.126,0.003 0.189,0.021c1.449,0.409 1.481,1.458 0.709,2.033c-0.633,0.648 -0.72,1.71 -0.256,3.086c0.128,0.38 0.284,0.83 0.249,0.864c-0.669,0.671 -2.431,-3.563 -2.01,-4.824c0.22,-0.66 0.675,-1.16 1.119,-1.18l0,-0Zm53.461,0.792c-0.448,-0 -0.817,0.368 -0.818,0.816c0,-0 0,-0 0,-0c0,0.448 0.37,0.817 0.818,0.817c0,-0 0,-0 0,-0c0.449,-0.001 0.817,-0.37 0.817,-0.817c-0.001,-0.448 -0.369,-0.815 -0.817,-0.816Zm-90.708,0.412c0.461,-0.022 0.996,0.328 1.264,1.056c0.728,2.037 0.284,4.535 -0.46,2.207c-0.287,-0.925 -1.073,-1.66 -1.531,-2.242c-0.368,-0.47 0.32,-1.002 0.727,-1.021Zm15.056,0.058c0.295,0.01 0.688,0.157 1.396,0.447c0.64,0.262 2.44,0.864 3.464,1.259c1.59,0.615 3.25,1.426 3.25,1.426l-3.599,-0.201c0,-0 -1.223,-0.409 -1.951,-0.709c-2.637,-1.085 -2.49,-1.079 -3.802,-0.081c-0.469,0.357 -1.06,0.932 -1.06,0.932l-1.83,0.101c-0,0 0.86,-0.919 2.103,-1.841c0.406,-0.302 0.961,-0.732 1.23,-0.957c0.309,-0.257 0.503,-0.385 0.799,-0.376Zm28.476,0.707c0.691,0.08 1.126,0.791 1.176,1.367c0.055,0.656 -0.678,1.307 -1.612,1.488c-0.196,0.732 -0.754,2.403 -0.428,4.894c0.263,1.167 -0.231,1.193 -0.734,0.075c-0.815,-1.814 -2.002,-7.192 1.286,-7.817c0.109,-0.016 0.213,-0.018 0.312,-0.007l-0,0Zm-3.79,0.332c0.899,0.012 0.923,1.024 0.618,1.67c-0.43,0.907 -0.572,1.643 -0.337,2.79c0.261,1.276 0.315,1.589 -0.408,0.792c-1.401,-1.871 -1.607,-4.855 -0.315,-5.191c0.166,-0.044 0.313,-0.062 0.442,-0.061l-0,0Zm-41.662,0.247l-0,0.002c0.089,-0 0.183,0 0.282,0.017c2.187,0.347 2.832,4.077 2.527,5.673c-0.579,1.931 -0.551,0.627 -0.753,-0.178c-0.539,-1.944 -1.162,-3.002 -1.828,-3.113c-1.681,-0.28 -1.565,-2.351 -0.228,-2.401l-0,0Zm17.191,0.808c0.598,0.044 1.884,0.488 2.555,0.842l-4.034,0.033c-0,-0 0.88,-0.918 1.479,-0.875l-0,0Zm76.419,0.563c0.276,-0.025 0.651,0.3 1.093,0.751c1.012,1.033 0.568,2.66 -0.799,3.462c-2.146,1.26 -4.587,-1.113 -3.409,-3.294c0.646,-1.197 1.423,-0.984 2.086,0.705c0.122,0.205 -0,-0.212 0.225,-0.726c0.226,-0.512 0.528,-0.873 0.804,-0.898Zm-3.601,0.121l-0.643,2.596l-2.614,1.26l0.953,-3.199l2.304,-0.657Zm5.439,0.444l2.083,0.167l1.157,3.373l-3.003,-1.283l-0.237,-2.257Zm-49.224,1.906c1.516,0.062 1.669,1.496 0.799,2.123c-0.487,0.468 -0.655,1.146 -0.554,2.228c0.045,0.481 0.141,1.069 0.137,1.137c-0.015,0.231 -0.207,0.196 -0.467,-0.088c-1.6,-1.747 -1.387,-5.462 0.085,-5.4Zm-45.833,0.561c0.961,-0 2.05,2.756 1.514,3.81c-0.337,0.62 -0.664,0.466 -0.787,-0.252c-0.092,-0.523 -0.391,-1.238 -1.165,-1.366c-1.125,-0.36 -0.759,-2.192 0.438,-2.192Zm48.154,1.638c0.137,-0.004 0.286,0.006 0.45,0.03c0.734,0.38 0.801,1.224 0.138,1.697c-0.514,0.367 -0.648,0.677 -0.728,1.671c0.168,2.263 -1.348,0.826 -1.221,-1.231c0.087,-1.413 0.403,-2.137 1.361,-2.167l-0,0Zm-48.96,0.725c0.689,-0 1.507,1.239 1.326,1.963c-0.097,0.575 -0.398,0.474 -0.818,0.047c-0.163,-0.127 -0.529,-0.258 -0.699,-0.31c-1.031,-0.312 -0.858,-1.699 0.191,-1.699l-0,-0.001Zm19.586,0.952c9.315,-0.043 19.005,1.438 27.058,4.66c-0.585,1.088 -1.067,2.093 -1.576,3.063c-0.161,-0.365 -0.324,-0.73 -0.494,-1.094c0.061,-0.448 0.119,-0.898 0.175,-1.347c-0.42,0.189 -0.834,0.382 -1.245,0.58c-0.456,-0.053 -0.913,-0.101 -1.367,-0.142c0.212,0.402 0.418,0.804 0.618,1.208c-0.049,0.449 -0.102,0.899 -0.156,1.347c0.397,-0.203 0.798,-0.402 1.204,-0.596c0.399,0.05 0.799,0.108 1.199,0.169c-0.293,0.553 -0.594,1.098 -0.938,1.634c-9.505,-3.132 -19.756,-5.464 -36.791,-2.938c-0.699,-0.539 -0.84,-0.643 -1.239,-0.948c0.2,-0.328 0.401,-0.656 0.611,-0.981c0.406,-0.184 0.816,-0.363 1.23,-0.537c-0.37,-0.257 -0.744,-0.512 -1.124,-0.761c-0.184,-0.414 -0.371,-0.826 -0.559,-1.237c-0.259,0.38 -0.511,0.762 -0.757,1.146c-0.416,0.194 -0.83,0.393 -1.239,0.598c0.394,0.229 0.782,0.464 1.164,0.702c0.138,0.288 0.273,0.577 0.408,0.866c-1.16,-0.884 -1.753,-1.332 -4.132,-3.235c5.379,-1.382 11.577,-2.127 17.95,-2.157Zm31.243,0.416c0.891,0 1.445,1.005 0.791,1.434c-0.458,0.301 -1.474,0.382 -1.679,0.136c-0.422,-0.51 0.176,-1.571 0.888,-1.57Zm-31.64,0.564c-0.325,0.324 -0.646,0.649 -0.964,0.976c-0.446,0.106 -0.89,0.216 -1.333,0.329c0.335,0.309 0.664,0.619 0.992,0.932c0.107,0.441 0.213,0.881 0.317,1.323c0.308,-0.328 0.619,-0.652 0.935,-0.976c0.438,-0.101 0.879,-0.2 1.321,-0.294c-0.317,-0.323 -0.639,-0.643 -0.964,-0.963c-0.1,-0.442 -0.201,-0.884 -0.304,-1.327Zm-4.341,0.089c-0.308,0.34 -0.61,0.682 -0.909,1.027c-0.44,0.131 -0.878,0.267 -1.313,0.407c0.353,0.287 0.701,0.578 1.045,0.871c0.132,0.434 0.263,0.867 0.391,1.301c0.287,-0.344 0.578,-0.686 0.874,-1.026c0.432,-0.125 0.867,-0.244 1.303,-0.361c-0.334,-0.306 -0.671,-0.611 -1.013,-0.912c-0.124,-0.436 -0.25,-0.872 -0.378,-1.307Zm8.659,0.041c-0.207,0.188 -0.413,0.378 -0.618,0.568c-0.129,0.121 -0.257,0.241 -0.385,0.362c-0.449,0.085 -0.898,0.172 -1.345,0.263c0.318,0.325 0.634,0.651 0.946,0.979c0.086,0.444 0.171,0.888 0.255,1.333c0.138,-0.134 0.275,-0.266 0.415,-0.399c0.186,-0.178 0.374,-0.355 0.563,-0.532c0.442,-0.08 0.885,-0.158 1.33,-0.232c-0.302,-0.336 -0.607,-0.672 -0.916,-1.005c-0.08,-0.446 -0.162,-0.892 -0.245,-1.337Zm-12.998,0.31c-0.286,0.36 -0.567,0.721 -0.842,1.084c-0.43,0.161 -0.856,0.327 -1.28,0.497c0.372,0.261 0.74,0.527 1.102,0.795c0.162,0.422 0.32,0.845 0.477,1.268c0.261,-0.361 0.528,-0.72 0.8,-1.078c0.421,-0.153 0.844,-0.301 1.27,-0.444c-0.351,-0.284 -0.705,-0.566 -1.065,-0.844c-0.152,-0.426 -0.306,-0.853 -0.462,-1.278Zm17.317,0.017c-0.355,0.291 -0.706,0.585 -1.054,0.881c-0.453,0.063 -0.905,0.129 -1.356,0.199c0.303,0.34 0.602,0.681 0.897,1.023c0.065,0.449 0.128,0.898 0.19,1.346c0.337,-0.296 0.678,-0.591 1.023,-0.883c0.446,-0.059 0.893,-0.115 1.342,-0.166c-0.285,-0.352 -0.573,-0.701 -0.866,-1.049c-0.057,-0.45 -0.116,-0.901 -0.176,-1.351Zm4.304,0.56c-0.371,0.271 -0.738,0.543 -1.101,0.819c-0.457,0.038 -0.912,0.081 -1.367,0.128c0.285,0.354 0.565,0.71 0.842,1.068c0.041,0.451 0.079,0.902 0.116,1.353c0.352,-0.277 0.709,-0.551 1.068,-0.824c0.448,-0.034 0.897,-0.066 1.347,-0.091c-0.263,-0.367 -0.531,-0.732 -0.804,-1.096c-0.031,-0.453 -0.066,-0.904 -0.101,-1.357Zm4.27,0.813c-0.387,0.246 -0.77,0.496 -1.149,0.749c-0.459,0.011 -0.917,0.026 -1.373,0.046c0.264,0.37 0.524,0.742 0.778,1.115c0.014,0.453 0.025,0.905 0.034,1.357c0.367,-0.256 0.738,-0.509 1.113,-0.759c0.447,-0.006 0.896,-0.008 1.346,-0.006c-0.239,-0.382 -0.484,-0.763 -0.733,-1.143c-0.007,-0.453 -0.009,-0.906 -0.016,-1.359l-0,-0Zm4.212,1.087c-0.403,0.22 -0.801,0.443 -1.196,0.67c-0.458,-0.019 -0.915,-0.034 -1.371,-0.044c0.239,0.387 0.473,0.773 0.702,1.161c-0.017,0.452 -0.036,0.904 -0.057,1.355c0.381,-0.231 0.767,-0.458 1.158,-0.682c0.446,0.024 0.894,0.053 1.341,0.087c-0.211,-0.398 -0.427,-0.795 -0.65,-1.19c0.027,-0.452 0.051,-0.904 0.074,-1.357l-0.001,0Zm-20.362,2.208c8.733,-0.011 16.692,1.497 23.395,4.05c0,-0 -0.869,1.876 -1.176,2.079c-4.81,-1.923 -13.008,-3.712 -18.547,-3.809c-2.03,-0.075 -2.479,-0.129 -3.227,-0.388c-4.221,-1.391 -7.948,-1.992 -11.385,0.062l-1.404,-0.994c4.244,-0.676 8.374,-0.996 12.344,-1l-0,-0Zm-37.012,11.258c1.246,-0 2.256,1.012 2.255,2.261c0.001,1.25 -1.009,2.263 -2.255,2.263c-1.246,0 -2.256,-1.013 -2.256,-2.263c-0,-1.249 1.01,-2.261 2.256,-2.261Zm65.4,0.059c0.715,0.437 3.354,1.609 3.354,1.609l-18.545,33.588l-4.49,0.036l19.681,-35.233Zm-59.735,0.06c1.245,-0 2.256,1.013 2.255,2.263c-0,1.249 -1.01,2.261 -2.255,2.262c-1.246,-0.001 -2.255,-1.013 -2.256,-2.262c-0,-1.25 1.01,-2.263 2.256,-2.263Zm63.696,1.766c0.497,0.274 2.299,0.574 2.455,0.922c0.068,0.174 -0.068,0.516 -0.108,0.959c-0.097,1.068 0.168,2.25 0.813,3.198c1.057,1.471 -0.087,0.797 -1.143,0.786c-2.384,-0.61 -5.421,2.643 -4.267,5.991c0.267,0.742 0.213,0.801 -1.064,1.191c-2.9,0.884 -4.164,3.967 -2.771,6.72c0.726,1.434 0.748,1.362 -0.529,1.468c-3.549,0.295 -5.61,3.448 -4.12,6.672c0.23,0.499 0.082,0.637 -0.692,0.782c-2.422,0.445 -3.506,2.473 -3.812,4.701l-3.205,0.032l18.443,-33.422Zm3.063,1.186l6.157,1.683c-2.557,8.708 -2.911,18.824 0.166,30.525l-14.155,0.015c1.966,-1.768 1.19,-4.211 -1.108,-4.748c2.23,-1.283 2.231,-4.695 -0.442,-5.106c-2.349,-0.36 -3.562,1.877 -2.519,4.12l-1.003,0.274c-0,0 -0.45,-0.565 -0.553,-0.867c-0.887,-2.588 0.969,-5.157 4.131,-5.149c1.951,0.008 2.354,-0.548 1.276,-1.749c-1.927,-2.147 -1.32,-5.164 1.196,-6.351c1.159,-0.547 1.841,-0.185 1.841,-0.185l0.06,1.422c0,0 -0.47,0.046 -0.835,0.105c-2.78,0.445 -2.263,4.882 0.562,4.843c1.554,-0.021 2.666,-1.201 2.666,-2.898c-0,-0.476 -0,-1.18 -0,-1.18c1.427,2.447 3.88,2.623 4.925,0.632c1.229,-2.343 -1.003,-3.816 -3.239,-3.574c0,0 0.47,-0.305 0.767,-0.458c2.381,-1.227 1.561,-4.732 -1.073,-4.732c-1.807,-0 -2.862,1.682 -2.279,3.465c0.093,0.286 0.315,0.745 0.315,0.745l-1.074,0.273c-0,0 -0.244,-0.186 -0.354,-0.357c-1.844,-2.888 1.117,-6.069 4.849,-5.347c1.366,0.429 1.322,-0.518 0.554,-1.373c-0.824,-1.232 -1.44,-2.627 -0.834,-4.025l0.003,-0.003Zm-69.565,1.258l3.231,5.706l-3.62,6.571l-3.589,-6.155l3.978,-6.122Zm-0.318,2.97l-2.243,3.093l2.196,3.552l2.083,-3.594l-2.036,-3.051Zm-0.097,1.162l1.458,1.958l-1.47,2.405l-1.439,-2.257l1.451,-2.106Zm66.777,6.164c0.679,-0 1.233,0.55 1.233,1.231c-0,0.681 -0.554,1.232 -1.233,1.232c-0.68,-0 -1.23,-0.551 -1.23,-1.232c-0,-0.681 0.55,-1.231 1.23,-1.231Zm-8.701,15.467c0.704,-0 1.278,0.568 1.278,1.274c-0,0.705 -0.574,1.278 -1.278,1.278c-0.704,0 -1.271,-0.573 -1.271,-1.278c0,-0.706 0.567,-1.274 1.271,-1.274Zm-1.929,0.85l0,0.003c-0.116,0.05 0,1.158 0.283,1.617c-1.838,0.113 -2.326,1.522 -2.504,2.711l-1.646,-0.007c0.275,-4.021 3.75,-4.112 3.867,-4.324Z" style="fill-rule:nonzero;"/><path id="path153-6-3-1-9-55-1-6" d="M47.878,26.156c-7.38,10.526 -15.278,16.583 -15.409,24.795c-0.044,2.659 1.394,7.178 5.897,8.043c2.921,0.559 6.944,-1.806 7.028,-6.61c-0.013,-0.956 1.013,-0.931 1.003,0.379c-0.138,3.79 -1.337,8.202 -3.353,11.793l9.669,-0c-2.016,-3.591 -3.216,-8.003 -3.353,-11.793c-0.01,-1.31 1.016,-1.335 1.003,-0.379c0.084,4.804 4.106,7.169 7.028,6.61c4.503,-0.865 5.941,-5.384 5.897,-8.043c-0.132,-8.212 -8.029,-14.269 -15.41,-24.795Z" style="fill-rule:nonzero;"/><path id="path153-6-3-1-8-6-8-8-0" d="M130.705,223.293c-7.381,-10.526 -15.279,-16.583 -15.41,-24.795c-0.044,-2.659 1.394,-7.178 5.897,-8.044c2.922,-0.558 6.944,1.806 7.028,6.61c-0.013,0.957 1.013,0.932 1.003,-0.379c-0.137,-3.789 -1.337,-8.201 -3.353,-11.792l9.669,-0c-2.016,3.591 -3.216,8.003 -3.353,11.792c-0.01,1.311 1.016,1.336 1.003,0.379c0.084,-4.804 4.106,-7.168 7.028,-6.61c4.503,0.866 5.941,5.385 5.897,8.044c-0.131,8.212 -8.029,14.269 -15.409,24.795Z" style="fill-rule:nonzero;"/></g></svg>