<?xml version="1.0" encoding="UTF-8" standalone="no"?><!DOCTYPE svg PUBLIC "-//W3C//DTD SVG 1.1//EN" "http://www.w3.org/Graphics/SVG/1.1/DTD/svg11.dtd"><svg width="100%" height="100%" viewBox="0 0 179 250" version="1.1" xmlns="http://www.w3.org/2000/svg" xmlns:xlink="http://www.w3.org/1999/xlink" xml:space="preserve" xmlns:serif="http://www.serif.com/" style="fill-rule:evenodd;clip-rule:evenodd;stroke-linejoin:round;stroke-miterlimit:2;"><g id="g7107"><path id="rect7166-7" d="M178.583,8.008c-0,-4.42 -3.589,-8.008 -8.008,-8.008l-162.567,-0c-4.42,-0 -8.008,3.588 -8.008,8.008l0,233.433c0,4.419 3.588,8.008 8.008,8.008l162.567,-0c4.419,-0 8.008,-3.589 8.008,-8.008l-0,-233.433Z" style="fill:#fff;"/><path id="path6307-8" d="M112.359,21.034c0,-0 20.284,29.39 27.162,34.606c0.506,0.238 8.987,-1.386 8.987,-1.386c-4.347,-10.432 -7.143,-21.225 -4.322,-33.325l-31.827,0.105Zm11.271,46.481c-13.983,3.957 -27.94,7.677 -43.099,1.228l-16.555,16.034c-0.137,0.413 20,9.134 20.339,8.114c-9.872,26.633 5.519,31.469 15.319,2.172c12.827,-1.684 28.215,-3.428 40.933,-12.279c-11.009,-6.633 -16.948,-15.348 -16.937,-15.269Zm-84.104,4.741c-5.3,-3.26 -9.442,3.45 -5.562,6.801c-0.456,1.957 -0.611,4.87 1.278,6.15c1.736,1.1 4.974,-0.041 5.441,-0.029c0.034,0.001 0.084,3.523 -0.186,3.514c-0.502,-0.017 -2.397,-1.635 -3.566,-1.986c-3.95,-1.188 -9.553,-1.961 -9.455,-1.757c0.165,0.343 -0.937,1.343 3.471,4.117c1.637,1.031 6.81,-0.13 10.93,1.173c2.51,0.794 4.765,2.06 6.128,1.403c3.593,-0.985 4.998,-5.692 4.752,-5.657c-0.12,-0.142 -10.867,2.772 -9.856,3.283l-0.033,-4.086c4.239,0.467 8.065,-2.612 3.899,-7.892c3.102,-3.091 -1.237,-10.459 -7.241,-5.033l-0,-0.001Zm17.659,18.691c-10.425,10.535 -31.734,30.306 -31.734,30.306l0.228,14.756l20.818,18.675c1.649,-19.825 12.887,-38.327 23.588,-47.583c0.982,-2.814 -10.633,-15.166 -12.9,-16.154Zm74.276,3.645c-1.57,12.189 -2.998,28.812 -23.627,47.29c3.575,6.103 8.125,12.314 14.673,15.279c0.465,1.048 18.926,-19.151 30.284,-28.701l-0.06,-12.936l-21.27,-20.932Zm-92.973,2.616c-0.043,0.266 -0.805,3.468 -1.001,3.383c0.015,0.174 2.112,-0.781 2.349,-1.659c0.208,-0.77 0.689,-1.813 0.721,-1.96c-0.473,-3.296 -1.367,-0.955 -2.069,0.236Zm-7.722,8.522c-0.75,1.814 -1.451,5.147 -1.192,7.316c3.693,1.853 4.696,-5.856 3.703,-6.593c-0.595,-0.252 -2.005,-0.741 -2.511,-0.723Zm114.059,35.346c-0.343,1.537 -0.27,1.993 0.412,2.293c1.195,0.526 1.733,-0.109 2.693,-2.612c0.571,-1.491 1.08,-3.733 0.62,-4.625c-2.266,-1.584 -3.463,3.783 -3.725,4.944Zm-64.593,12.936c-15.158,2.407 -30.326,3.893 -42.364,13.306c1.357,-0.159 15.946,13.575 16.701,15.507c22.296,-10.918 43.952,-2.671 43.952,-2.671l16.317,-15.765c0.629,-0.298 -17.747,-7.887 -21.209,-9.165c12.515,-33.77 -7.304,-28.695 -13.397,-1.212Zm59.669,-3.855c-0.991,0.801 -1.49,1.527 -2.262,2.566l0.779,1.262l1.994,-2.205l-0.511,-1.623Zm-14.279,14.208c2.101,-0.95 9.559,-4.575 9.879,-3.737l-0.158,3.628c-1.141,-0.374 -8.505,0.846 -4.246,8.466c-2.682,6.054 3.295,9.175 7.482,5.173c8.774,3.018 7.6,-5.784 5.789,-7.206c1.427,-2.222 -0.366,-6.953 -1.259,-6.969c0,-0 7.657,1.73 6.908,0.364c-0.341,-0.624 -0.769,-1.7 -2.471,-2.838c-1.961,-1.313 -5.406,-0.837 -8.195,-1.422c-2.981,-0.625 -4.901,-1.694 -7.406,-1.844c-3.782,0.345 -7.311,3.673 -6.323,6.385Zm-85.333,28.567l-10.55,2.827c4.404,10.885 6.146,20.892 4.884,33.092l30.62,0.155l-24.954,-36.074Z" style="fill:#bdbdbd;fill-rule:nonzero;"/><path id="path6309-7" d="M67.784,228.898c-13.435,-19.223 -25.884,-37.509 -42.413,-57.663c0,0 0.014,-7.789 0.072,-15.515l50.777,72.989l-8.436,0.189Zm27.199,-31.038c-0.432,-3.651 -1.174,-8.02 -2.241,-11.78l9.271,-8.763c-1,7.83 -2.536,13.838 -7.03,20.543Zm44.309,-27.619c2.075,2.762 -1.426,4.296 -2.748,3.067c-2.681,-2.493 1.245,-5.068 2.748,-3.067Zm-91.925,-17.398c-1.539,0.988 2.764,-24.091 14.576,-37.052c7.184,20.629 -5.492,32.196 -14.576,37.052Zm58.27,-0.093l-7.844,-2.122l3.693,-10.998c0,-0 7.578,1.73 6.95,4.013c-2.045,7.435 -2.799,9.107 -2.799,9.107Zm-36.314,-4.228c2.124,-3.5 3.737,-7.36 5.222,-11.31l7.858,-0.164l-3.949,10.9l-9.131,0.574Zm47.279,-15.433c-6.072,-12.118 1.081,-31.299 14.291,-36.578c-0.476,12.289 -4.28,24.737 -14.291,36.578Zm-40.806,-3.443c0.267,-4.304 -0.224,-8.815 -0.818,-12.812c8.373,1.934 17.501,3.228 27.612,3.689l0.964,11.602c-8.979,-1.649 -18.115,-2.826 -27.758,-2.479Zm20.056,-17.679c0.894,-3.598 2.04,-7.119 3.601,-10.516l9.567,-0.447c-0.049,-0.187 -4.082,6.382 -5.048,11.124c-1.523,-0.162 -8.12,-0.161 -8.12,-0.161Zm-18.139,-2.868c-2.793,-0.988 -6.611,-1.264 -8.096,-3.429l2.905,-9.227l8.603,2.645l-3.412,10.011Zm24.143,-88.044l6.742,-0.064c0,-0 32.396,41.553 44.537,57.724c-0.404,1.646 0.136,15.594 0.136,15.594c-17.198,-24.262 -51.415,-73.254 -51.415,-73.254Zm-62.555,58.607c-2.874,-2.902 1.612,-5.201 3.25,-2.995c1.324,1.784 -1.495,4.768 -3.25,2.995Zm36.782,-7.441c0.104,-9.629 6.916,-21.057 6.845,-20.765c-0.079,-0.019 0.971,9.413 2.28,12.381c-0.353,0.523 -8.803,8.988 -9.125,8.384Z" style="fill:#3f3f3f;fill-rule:nonzero;"/><path id="path6311-0" d="M23.984,19.463l0,210.523l130.615,0l-0,-210.523l-130.615,-0Zm1.628,1.598l57.466,0c-0,0 0.06,0.828 -0.077,4.406c-0.248,7.272 -0.554,14.89 -0.078,22.303c0.08,2.566 0.028,5.099 0.396,7.638c0.358,2.473 0.516,5.139 1.669,7.443c0.463,1.248 0.479,1.152 -1.286,2.788c-0.866,0.802 -1.603,1.655 -1.57,1.806c0.01,0.05 -0.04,0.238 0.094,0.132c0.088,-0.071 0.728,-0.706 0.799,-0.789c0.478,-0.565 1.278,0.16 4.008,0.931c0.535,0.152 1.29,0.657 1.867,1.076c4.08,3.447 9.822,2.372 14.114,0.492c1.218,-0.533 1.516,-0.588 3.474,-0.821c7.249,-0.862 14.994,-4.036 14.977,-4.027l0.946,1.554c0,-0 0.356,-0.066 0.61,0.324c4.169,7.894 17.781,16.915 17.539,16.498l-8.896,4.937c0.682,0.846 1.475,1.763 2.317,2.71l0.139,0.032l0.054,0.187c7.17,8.017 18.863,18.706 18.863,18.706l0,19.562c-3.976,3.189 -7.899,6.844 -11.396,10.413c-1.005,0.998 -1.715,1.567 -1.333,1.586c0.908,-0.139 1.691,0.759 2.429,1.381c0.468,0.523 0.356,0.475 -0.184,1.189c-0.379,0.502 -0.519,0.647 -0.52,1.01c0.013,0.702 0.009,1.172 -0.614,1.699c-0.387,0.487 -0.608,0.799 -0.678,1.377c-0.07,0.576 -0.066,0.946 -0.461,1.456c-0.67,0.143 -0.733,1.12 -0.615,1.558c0.702,0.697 0.381,1.453 0.446,1.294c-1.34,1.459 -2.746,2.722 -1.848,0.684c0.405,-0.759 0.546,-1.389 0.546,-1.389c-0,-0 -0.646,0.67 -0.983,0.986c-0.517,0.48 -0.706,0.198 -0.721,-1.29c-0.067,-1.127 -0.54,-2.699 -0.729,-3c-0.105,-0.167 -0.122,0.124 -0.073,1.208c0.064,1.427 0.233,1.841 -0.268,3.266c-0.677,1.924 -1.159,2.197 -0.059,2.131c1.042,-0.064 1.922,-0.076 2.378,0.548c0.153,0.21 0.352,0.569 0.772,0.781c0.857,0.47 1.538,0.992 2.015,1.511c1.54,1.68 1.099,3.18 -1.879,2.162c-1.569,-0.536 -0.543,-1.211 1.143,-1.055c1.035,0.097 1.211,-0.287 0.315,-0.562c-1.667,-0.309 -1.936,-0.496 -3.036,0.814c-4.616,-0.458 -7.209,-3.045 -8.454,-5.153c-0.521,-0.882 -0.675,-1.115 -0.312,-1.614c-1.896,0.645 -4.229,3.871 -5.854,5.376c-4.776,-2.717 -10.674,-7.617 -14.046,-13.183c-1.676,3.152 -3.646,8.89 -3.646,8.89l-7.495,-2.098l-0.089,0.157l7.409,2.14l-0.723,2.479c-0.078,0.268 -1.224,3.089 -1.224,3.089l11.573,5.414c-1.001,1.756 -2.779,2.354 -3.071,4.258l16.044,-15.343c0,-0 2.07,3.077 2.84,3.775c0.722,0.654 0.947,0.813 0.105,1.008c-3.77,0.554 -6.696,3.417 -5.675,7.255c0.164,0.427 0.495,0.27 1.21,-0.18c2.504,-2.273 8.622,-4.377 8.83,-3.843l0.025,2.444c-6.586,0.095 -5.912,4.949 -5.429,7.553c-0,0.056 -1.906,1.727 -1.906,1.727c0.674,0.354 1.333,0.72 1.956,1.156c-0.579,3.239 2.174,7.931 7.581,5.529c0.467,0.48 0.908,0.964 1.424,1.568c0.553,-0.643 1.19,-2.156 1.19,-2.156c2.686,1.218 8.259,-1.509 5.409,-7.755l1.57,-1.502l-1.508,-0.954c-0.039,-1.588 -0.284,-3.006 -1.23,-4.389c-0,-0 2.535,0.648 4.411,0.757c1.158,0.105 2.135,0.135 2.038,-0.567c-0.029,-0.207 -0.202,-1.218 -0.315,-1.549c-0.559,-1.636 -3.462,-2.838 -6.281,-2.997c-0.46,-0.025 -0.956,-0.011 -1.054,-0.131c-0.184,-0.224 0.146,-0.543 0.449,-0.49c1.544,0.269 3.028,-0.875 3.296,-2.33c0.053,-0.255 0.368,-0.723 0.821,-1.219c0.803,-0.882 0.867,-0.858 0.852,-2.131c-0.011,-0.884 0.143,-1.081 0.55,-1.674c0.525,-0.845 0.769,-1.947 0.505,-3.087c-0.084,-0.362 -0.425,-0.873 -0.134,-1.774c0.473,-1.465 -0.567,-2.806 -1.93,-3.57c-0.796,0.567 -1.994,0.117 -2.911,-0.317c-0.311,-0.153 1.055,-8.102 3.882,-7.392c0.47,0.286 0.668,1.667 0.632,1.691c0.131,0 0.2,-0.812 0.017,-1.353c-0.192,-0.566 -0.63,-1.106 -1.473,-0.946c-0.654,0.123 -1.409,0.993 -1.751,1.43c-1.32,1.687 -1.335,2.765 -1.776,4.56c-0.212,0.848 -0.235,0.798 -1.407,-0.12c-0.84,-0.658 -1.249,-0.868 -0.956,-1.255c0.131,-0.173 0.677,-0.721 0.677,-0.721l10.706,-9.872l-0,99.191l-58.345,-0l0.405,-13.037c1.086,-8.932 -0.823,-27.691 -2.269,-29.455c1.115,-1.256 4.574,-4.284 4.383,-4.42l-0.459,-0.272l-1.829,1.687l-4.517,-1.371c-1.927,-1.334 -3.893,-2.569 -5.933,-3.094c-3.33,-0.857 -9.745,1.875 -9.751,1.903c-10.248,0.761 -18.456,4.932 -18.341,4.9c-0.446,-0.411 -1.036,-1.722 -1.052,-1.714c-5.283,-7.37 -10.476,-11.499 -17.572,-16.537l8.988,-4.975l-21.297,-22.307l-0.187,-18.112l30.849,-29.567c0.182,-0.51 9.843,6.84 13.44,12.822c0.69,-2.924 1.974,-5.579 3.045,-8.45c0.112,-0.263 6.139,2.232 7.926,2.338c0.267,0.016 0.483,-0.266 0.483,-0.266l-7.953,-2.592l1.626,-4.67c-0,-0 0.566,-1.268 -0.074,-1.479c-3.625,-1.175 -7.027,-3.248 -10.494,-5.014c-0,0 1.619,-1.804 1.643,-1.884c0.024,-0.075 0.679,-1.044 0.523,-1.378c-1.764,1.715 -16.158,15.098 -16.158,15.098c-0.409,-2.297 -1.052,-3.1 -2.451,-4.517c0.762,-0.037 1.956,-0.793 2.645,-1.297c2.11,-1.54 3.258,-4.288 2.981,-5.894c-2.025,0.646 -3.854,1.402 -6.39,1.863c-1.425,0.26 -2.776,0.906 -3.596,1.598l-0.127,-2.563c0.009,0.029 3.413,0.599 4.991,-1.693c1.36,-1.975 0.803,-4.237 0.49,-5.39c0.036,-0.256 -0.04,-0.227 0.546,-0.769c0.433,-0.4 1.108,-0.917 1.108,-0.917c0.029,-0.145 -1.759,-0.809 -2.061,-1.416c0.476,-4.75 -3.31,-6.583 -6.514,-5.739c-0.599,0.181 -0.885,0.294 -1.597,-0.501c-0.106,-0.119 -0.96,-1.024 -0.96,-1.024c-0,-0 -0.377,0.873 -0.57,1.255c-0.628,1.242 -0.801,0.868 -2.156,0.934c-3.431,0.169 -4.963,2.946 -4.175,6.356c0.184,0.8 0.101,0.677 -0.423,1.689c-0.267,0.516 -0.704,1.177 -0.704,1.177c-0,-0 0.629,0.349 1.053,0.539c0.628,0.281 0.662,0.611 0.659,1.239c0.088,1.383 0.39,2.31 1.183,3.499c-2.688,0.062 -4.749,-0.191 -7.183,-1.001c0.372,3.752 3.132,5.149 6.511,5.699c-0,-0 -0.356,0.332 -0.729,0.48c-0.79,0.23 -1.284,0.926 -1.277,1.549c-0.114,0.596 -0.499,1.194 -0.853,1.512c-0.526,0.457 -0.958,1.1 -0.751,2.344c-0.052,0.902 -0.27,1.162 -0.534,1.507c-0.53,0.691 -0.71,1.378 -0.578,2.286c0.062,0.423 0.193,1.329 0.106,2.265c-0.146,1.559 0.411,2.144 1.118,3.242c0.459,0.711 0.362,0.73 0.256,1.246c-0.254,1.239 -0.519,1.876 -0.794,2.818c-0.615,2.109 -0.638,3.708 -0.136,4.12c0.758,0.62 1.616,0.433 2.015,0.31c2.989,-0.926 2.472,-3.868 2.629,-5.843c0.085,-0.508 0.259,-0.752 0.427,-0.728c0.845,0.992 1.739,1.565 2.89,2.19c-3.979,4.059 -6.527,6.544 -11.557,10.973l0.004,-98.98Zm58.346,0l2.399,0c-0.506,0.946 -2.396,3.898 -2.567,3.107l0.168,-3.107Zm3.334,0l1.399,0c-1.366,3.249 -3.278,5.213 -5.09,7.181l0.062,-2.09c0.056,0.131 2.714,-2.922 3.629,-5.091Zm2.408,0l1.382,0c0,0 0.04,0.652 -0.125,1.108c-1.047,3.388 -7.544,9.818 -7.357,8.854l-0.066,-1.659c-0.029,0.072 4.881,-4.783 6.166,-8.303Zm2.369,0l1.51,0c4.939,8.604 13.778,11.615 16.002,12.195l1.293,1.892c-10.422,-2.047 -16.003,-8.753 -18.624,-12.901c-0.203,-0.322 -0.181,-1.186 -0.181,-1.186Zm2.562,0l1.595,0c3.305,5.503 9.235,8.532 11.287,9.172c0.548,0.605 1.139,1.711 1.369,1.956c-5.535,-1.503 -11.736,-6.29 -14.251,-11.128Zm2.424,0l1.456,0c1.761,2.547 4.519,4.406 6.073,5.624c0.835,0.657 1.938,1.997 1.835,2.263c-3.46,-1.096 -7.507,-5.038 -9.364,-7.887Zm2.227,0l1.919,0c0.819,1.188 1.563,2.154 2.423,3.369c0.161,0.231 0.259,0.505 0.218,0.609c-0.13,0.338 -0.519,0.088 -1.595,-0.868c-1.764,-1.568 -2.965,-3.11 -2.965,-3.11Zm2.527,0l41.803,0c-1.063,11.658 -1.249,20.673 4.785,32.762c-1.09,1.146 -9.3,1.471 -11.888,2.828c-0.047,0.325 0.665,0.889 0.665,0.889c2.707,-1.259 13.262,-2.409 13.262,-2.409c-4.42,-7.723 -8.058,-22.676 -5.321,-34.07l7.923,0l-0,56.256c-0,-0 0.093,10.693 0.319,16.798c-4.056,-5.255 -9.282,-12.452 -12.794,-17.9c-4.262,-6.01 -9.005,-13.06 -13.877,-19.674c-1.436,-2.084 -3.483,-4.787 -5.154,-7.222c-2.624,-3.759 -4.794,-6.677 -7.515,-10.724c-2.905,-4.191 -5.691,-7.993 -9.145,-12.859c-2.927,-4.141 -3.063,-4.675 -3.063,-4.675Zm-10.081,1.649l0.961,1.536c-2.33,3.852 -5.252,7.321 -9.149,10.056l-0.021,-2.012c4.423,-3.192 6.334,-6.401 8.209,-9.58l0,0Zm1.555,2.225c2.779,3.752 8.765,9.557 18.367,11.292c-0,0 0.545,0.494 1.34,1.58c1.009,1.377 1.025,1.431 1.158,3.688c0.089,4.131 1.428,9.738 2.758,13.264c-0.165,0.877 -0.318,1.324 -1.968,3.557c-6.872,9.305 -21.513,18.107 -28.726,6.094c-2.406,-3.849 -2.64,-11.228 -2.793,-15.828c0,-0 0.046,-0.324 0.063,-0.412c0.174,-0.835 0.412,-0.703 1.714,-0.345c1.321,0.568 2.696,0.109 4.093,-0.272c1.59,-0.644 1.722,-0.148 0.188,1.287c-0.531,0.497 -1.179,1.255 -1.111,1.218c0.068,-0.036 0.961,-0.401 1.355,-0.702c1.226,-0.935 1.515,-0.577 1.061,0.453c-1.927,4.367 -2.269,4.54 0.441,5.753c0.565,0.253 0.95,0.535 1.267,0.813c1.854,1.748 1.188,0.807 0.67,0.004c-0.798,-1.256 -0.077,-1.92 1.27,-1.142c0.899,0.52 2.081,0.938 2.723,0.739c1.247,-0.407 1.628,-1.775 1.258,-3.283c-0.296,-0.833 -2,-2.306 -1.606,-0.765c1.024,-0.046 1.908,1.411 1.018,2.397c-0.672,0.908 -1.87,0.416 -3.707,-0.801c-1.015,-0.765 -2.247,-0.374 -2.199,0.567c0.032,0.632 -0.861,0.486 -1.441,-0.319c-0.322,-0.447 -0.103,-1.733 0.502,-2.952c3.808,-7.676 0.598,-15.119 -5.998,-13.02c-0.725,0.23 -1.38,0.417 -1.38,0.417l-0.035,-2.936c3.787,-2.646 7.803,-6.864 9.717,-10.346l0.001,0Zm9.013,11.915c-1.975,-0.064 -3.831,0.446 -5.157,1.865c-0.995,1.203 -0.643,2.275 1.54,1.196c1.778,-0.878 2.025,-0.982 3.963,-1.052c2.75,-0.1 5.219,0.777 8.273,2.656c2.025,1.245 2.32,1.34 1.77,0.559c-1.124,-2.156 -6.044,-5.082 -10.389,-5.224Zm-16.058,2.085c0.526,-0 1.098,0.027 1.56,0.14c1.909,0.482 3.742,1.745 3.422,2.269c-0.114,0.188 -0.226,0.224 -0.469,0.097c-1.396,-0.691 -3.621,-1.822 -6.839,-0.442c-0.355,0.152 -0.552,-0.084 -0.55,-0.513c-0,-0.832 1.4,-1.497 2.876,-1.551Zm17.297,1.107c-1.43,-0.016 -2.944,0.466 -4.648,1.467c-1.138,0.592 -1.528,0.908 -2.012,0.643c-1.155,-0.632 -0.911,-0.136 -0.194,1.138c0.506,0.899 0.502,1.083 0.427,1.634c-0.082,0.599 -0.071,0.622 0.51,1.262c1.086,1.431 2.166,2.811 3.792,3.896c0.507,0.338 1.185,0.723 1.236,0.724c0.162,0.006 0.1,-0.125 -0.19,-0.408c-2.082,-2.008 -3.724,-3.806 -1.604,-3.042c2.469,0.807 4.817,-0.199 6.742,-0.855c0.785,-0.243 1.61,-0.447 1.815,-0.447c1.778,0.001 2.198,-0.741 1.061,-1.872c-2.405,-2.703 -4.553,-4.113 -6.935,-4.14Zm0.02,0.511c1.504,0.021 3.104,0.576 4.458,1.765c0.796,0.737 1.214,1.137 1.135,1.329c-0.085,0.206 -0.697,-0.142 -1.723,-0.691c-2.064,-1.103 -4.404,-1.363 -7.328,-0.517c-2.27,0.657 -1.599,-0.386 0.93,-1.367c0.76,-0.351 1.626,-0.531 2.528,-0.519Zm-16.737,0.277c1.734,-0.028 3.539,0.542 4.747,1.585c0.842,0.729 0.227,0.899 -1.142,0.331c-2.071,-0.859 -3.817,-0.996 -5.517,-0.198c-0.533,0.25 -1.148,0.548 -1.317,0.532c-0.284,-0.193 -0.404,-0.753 -0.158,-1.15c0.683,-0.672 2.038,-1.079 3.387,-1.1Zm28.578,0.596c0.127,0.006 0.319,0.208 0.604,0.609c0.519,0.73 0.538,1.091 0.108,2.369c-0.525,1.56 -0.735,1.307 -0.867,-0.87c-0.086,-1.413 -0.088,-2.118 0.155,-2.108Zm1.72,2.353c0.197,-0.028 0.428,0.321 0.797,1.043c0.258,0.505 0.197,0.656 -0.608,3.017c-0.336,0.989 -0.653,1.776 -0.662,1.783c-0.247,0.196 -0.216,0.178 -0.322,0.043c-0.574,-0.735 -0.532,-2.169 -0.038,-3.887c0.374,-1.302 0.578,-1.963 0.832,-1.999l0.001,0Zm-15.625,0.178c0.062,-0.005 0.447,0.079 0.447,0.079c-0.04,3.498 2.659,2.793 3.016,0.309c0,-0 0.665,-0.069 0.767,0.097c0.32,0.52 -0.423,2.017 -1.533,2.507c-0.811,0.363 -1.913,0.274 -2.571,-0.334c-0.184,-0.342 -0.741,-1.642 -0.637,-2.181c0.13,-0.314 0.323,-0.461 0.511,-0.477Zm-12.319,0.395c0.215,0.014 0.304,0.111 0.34,0.397c0.138,1.155 -1.015,2.409 -2.509,2.478c-1.445,0.162 -2.226,-0.961 -2.182,-2.058c0,-0.833 0.72,-0.938 0.799,-0.279c0.229,1.902 1.851,2.011 2.591,0.961c0.28,-0.411 0.216,-1.425 0.702,-1.489c0.102,-0.009 0.187,-0.014 0.259,-0.01l0,0Zm10.712,0.013c0.028,-0.001 0.053,-0.001 0.081,0c0.265,0.014 0.457,0.086 0.562,0.408l0.578,1.776c-0.425,0.51 -2.042,-0.522 -2.039,-1.297c-0,-0.536 0.404,-0.866 0.818,-0.887Zm6.782,0.384c0.115,-0.005 0.269,0.038 0.496,0.116c1.491,0.477 1.531,0.709 0.256,1.17c-1.522,0.549 -1.62,0.62 -1.263,-0.444c0.199,-0.593 0.257,-0.832 0.511,-0.842Zm-15.808,0.168c1.106,0.068 1.199,1.006 0.227,1.319c-1.448,0.641 -1.937,0.598 -1.376,-0.347c0.304,-0.669 0.577,-0.96 1.149,-0.972Zm-6.915,0.338c0.131,-0.001 0.282,0.049 0.444,0.17c0.166,0.503 0.447,0.889 0.669,1.409c-0.227,0.226 -0.768,0.223 -1.113,-0.051c-0.692,-0.55 -0.574,-1.521 -0,-1.529l-0,0.001Zm34.756,1.083c0.429,0.003 0.867,0.683 1.009,1.191c-1.5,1.932 -1.264,5.539 -1.612,6.628c-0.303,0.886 -0.4,0.121 -1.235,-2.173c-0.337,-0.927 1.36,-5.532 1.753,-5.635c0.027,-0.007 0.057,-0.012 0.085,-0.011l-0,-0Zm1.535,1.979c0.333,0.191 0.786,0.631 0.866,1.321c0.047,0.401 -0.15,0.933 -0.278,1.459c-0.303,1.253 -0.713,3.619 -0.861,5.805c-0.062,0.93 -0.058,1.768 -0.1,1.849c-0.451,0.886 -1.403,-1.499 -1.321,-3.398c0.296,-1.516 0.461,-6.828 1.694,-7.036Zm1.383,2.149c0.165,-0.048 0.395,0.108 0.735,0.577c0.212,0.295 0.346,0.521 0.411,0.776c0.113,0.442 0.018,0.97 -0.241,2.097c-0.689,2.986 -0.588,6.205 -0.139,9.509c0.095,0.696 -0.387,0.347 -1.115,-0.85c-0.404,-0.664 -0.663,-1.574 -0.787,-2.649c-0.254,-2.348 0.235,-5.532 0.652,-8.044c0.115,-0.695 0.209,-1.337 0.484,-1.416Zm1.877,2.395l1.205,1.455c0,-0 -0.515,3.347 -0.512,5.133c-0.084,0.669 0.599,7.942 0.821,8.531c-0.74,-0.832 -1.086,-1.321 -1.898,-2.365c-0.092,0.015 -0.794,-7.165 -0.309,-9.912c0.294,-1.661 0.693,-2.842 0.693,-2.842Zm1.891,2.892c0.202,-0.008 0.458,0.221 0.781,0.676c0.292,0.41 0.435,0.747 0.451,1.258c0.011,0.372 -0.173,0.66 -0.178,1.324c-0.035,3.956 0.498,7.689 1.169,11.289c0.237,1.288 -0.224,0.763 -0.986,-0.052c-0.698,-0.746 -0.711,-1.03 -1.084,-2.091c-0.075,-0.211 -0.817,-7.507 -0.811,-8.059c0.027,-2.267 0.091,-3.529 0.352,-4.073c0.085,-0.178 0.185,-0.268 0.306,-0.272l0,-0Zm-8.038,0.307c1.18,2.567 2.243,5.194 3.659,7.643c0,0 -1.401,0.723 -1.769,0.469c-0.592,-1.619 -2.729,-5.953 -2.766,-6.72c0.038,-0.252 0.876,-1.392 0.876,-1.392Zm-22.235,2.131c-0.18,0.024 -0.348,0.115 -0.497,0.307c-0.423,0.498 -0.927,0.29 -1.947,-0.159c-0.523,-0.161 -0.441,0.054 -1.305,0.504c-0.67,0.349 -0.906,0.358 -1.349,0.355c-0.586,-0.006 -0.796,-0.212 -0.798,0.201c0,0.228 -0.035,1.261 -0.173,1.794c-0.189,0.726 -0.353,1.045 -0.249,1.171c0.298,0.274 0.548,0.107 1.176,-0.501c1.041,-1.008 1.743,-0.719 2.903,-0.344c1.319,0.427 1.592,0.583 2.798,0.161c1.709,-0.599 2.738,-0.599 3.418,-0.165c1.173,0.749 1.528,0.704 1.045,-1.343c-0.156,-0.66 -0.167,-1.683 -0.263,-1.861c-0.109,-0.2 -0.406,0.372 -0.718,0.582c-0.597,0.403 -0.906,0.396 -2.252,-0.045c-0.597,-0.197 -1.249,-0.728 -1.789,-0.657l0,-0Zm20.779,0.353c0.126,-0.025 0.252,0.035 0.358,0.221c0.52,1.23 2.592,5.339 2.529,5.798c-0.403,0.363 -0.943,0.627 -1.264,0.303c-1.035,-1.895 -1.346,-2.917 -2.188,-5.044c-0.188,-0.381 0.188,-1.205 0.565,-1.278Zm11.485,0.07c0.147,-0.02 0.453,0.285 0.681,0.591c0.71,0.951 0.752,1.069 0.774,2.088c0.081,3.697 0.546,8.048 1.585,11.404c0.204,0.66 0.592,1.463 0.55,1.572c-0.348,0.509 -1.965,-0.854 -2.453,-2.927c-0.672,-2.633 -1.066,-5.381 -1.28,-7.169c-0.271,-3.145 -0.268,-5.395 0.143,-5.559Zm-12.762,1.664c0.125,-0.013 0.24,0.086 0.333,0.374c0.597,1.154 1.348,3.145 1.854,4.34c0.231,0.519 -0.949,0.927 -1.22,0.751c-0.472,-0.353 -0.696,-1.346 -1.005,-1.941c-0.985,-2.159 -1.161,-2.204 -0.615,-2.876c0.21,-0.292 0.445,-0.627 0.653,-0.648Zm15.1,1.698c0.087,0 0.199,0.086 0.341,0.269c0.623,0.738 1.046,1.301 1.208,1.848c0.118,0.396 0.024,0.694 0.067,1.413c0.111,1.883 0.604,4.453 2.002,9.714c0.137,0.513 0.32,1.121 0.297,1.286c-0.135,0.966 -1.547,-0.601 -1.958,-2.218c-0.477,-1.836 -1.347,-4.179 -1.604,-6.347c-0.528,-3.441 -0.821,-5.965 -0.353,-5.965l-0,0Zm-16.776,0.175c0.339,0.065 0.52,0.671 0.764,1.217c1.175,2.749 1.268,2.744 0.528,2.961c-0.782,0.23 -0.829,0.156 -1.748,-1.716c-0.67,-1.366 -0.803,-1.539 -0.24,-2.031c0.216,-0.254 0.392,-0.384 0.54,-0.423c0.056,-0.015 0.108,-0.017 0.156,-0.008l0,0Zm-15.603,0.562c-0.133,0.003 -0.526,0.301 -0.922,0.458c-0.971,0.385 -2.696,0.412 -3.746,0.094c-1.863,-0.749 -1.338,0.224 0.309,0.816c1.278,0.431 3.81,0.097 4.202,-0.701c0.241,-0.256 0.329,-0.671 0.157,-0.667Zm13.863,1.35c0.112,-0.02 0.215,0.005 0.295,0.094c1.049,1.625 1.365,2.275 1.188,2.401c-0.168,0.168 -0.999,0.483 -1.341,0.315c-0.428,-0.211 -0.802,-1.215 -0.99,-2.002c0.099,-0.288 0.511,-0.748 0.848,-0.808Zm-25.981,0.779c0.469,0.002 1.688,1.645 1.44,1.941c-0.068,0.153 -0.525,0.008 -1.593,-0.289c-0.357,-0.132 -1.163,-0.237 -0.908,-0.756c0.127,-0.235 0.874,-0.897 1.061,-0.896Zm24.281,0.538c0.041,-0.006 0.079,-0.002 0.112,0.013c0.16,0.143 0.676,1.405 0.758,1.702c-0.105,0.281 -0.896,0.345 -1.232,0.325c-0.289,-0.603 -0.364,-0.89 -0.444,-1.289c0.095,-0.21 0.522,-0.711 0.806,-0.751l0,-0Zm22.694,0.131l0.007,-0c0.168,0.006 0.458,0.299 0.888,0.915c0.812,1.165 0.702,1.081 1.286,3.864c0.662,3.156 1.454,5.404 2.254,8.627c0.011,0.535 -0.206,0.393 -0.799,0.031c-0.968,-0.591 -1.286,-1.247 -1.591,-2.958c-0.52,-2.826 -1.62,-5.441 -2.042,-8.779c-0.222,-1.099 -0.24,-1.704 -0,-1.7l-0.003,-0Zm-24.396,1.127c0.571,-0.02 0.494,0.863 0.331,1.006c-0.418,0.365 -1.57,0.256 -1.767,0.277c-0.443,-0.696 1.063,-1.26 1.436,-1.283Zm27.302,3.004c0.168,0.023 0.619,0.661 1.464,1.851c0.811,1.143 0.634,0.956 1.12,2.838c0.687,2.6 1.823,4.476 2.489,6.868c0,0.274 -0.33,0.239 -0.646,0.109c-0.615,-0.258 -1.164,-0.694 -1.684,-1.121c-0.357,-0.386 -0.355,-0.876 -1.407,-4.504c-0.38,-1.309 -0.478,-1.65 -0.952,-3.639c-0.397,-1.663 -0.575,-2.429 -0.384,-2.402Zm-87.982,7.768c2.759,5.09 1.737,7.346 -4.198,8.051c-0.428,-0.06 -0.023,2.608 -0.035,3.8c2.974,-1.705 6.569,-2.103 9.883,-3.174c-0.902,2.897 -2.486,6.18 -7.283,5.674c-5.128,-3.884 -10.916,-1.55 -14.92,-3.127c-2.178,-0.813 -3.01,-3.239 -3.036,-3.655c2.612,0.262 5.56,0.823 8.091,0.639c-2.764,-2.135 -1.956,-5.088 -1.567,-6.439c-3.291,-3.958 -0.536,-8.682 4.166,-7.62c0.485,0.111 1.443,0.584 1.443,0.584c5.366,-4.68 9.781,0.666 7.456,5.267Zm91.704,-2.477c0.188,-0.018 0.603,0.474 1.434,1.639c2.464,3.456 4.598,6.671 4.565,6.852c-0.106,0.596 -2.674,-0.447 -3.322,-1.3c-0.738,-0.972 -2.815,-5.973 -2.812,-6.767c0,-0.266 0.038,-0.414 0.135,-0.424Zm-100.375,14.804c1.282,0.189 1.641,0.299 1.627,0.801c0.11,0.427 -3.111,0.483 -3.547,0.166c-0.349,-0.252 0.1,-0.806 0.444,-0.939c0.505,-0.14 0.983,-0.075 1.476,-0.028l0,0Zm88.47,0.619c-17.761,8.637 -24.986,31.125 -15.957,48.388l-1.249,0.905c-8.906,-18.361 -2.281,-38.037 12.187,-47.973c0.586,-0.418 1.881,-0.74 2.484,-1.141c0,0 -5.902,1.351 -7.9,2.134c-0.405,-0.014 -1.596,0.407 -2.875,1.797c-1.118,1.039 -4.614,5.872 -4.503,6.04l-9.29,0.375l0.009,0.344l9.118,-0.212c-9.389,15.498 -7.083,30.244 -1.286,40.564l0.211,0.195c3.128,-1.727 6.336,-4.966 8.515,-7.828c-5.27,-17.068 0.389,-30.474 15.161,-38.123c0.014,-0.232 -0.032,-0.682 -0.081,-1.072l-1.033,-0.998c-16.407,7.288 -22.975,25.307 -16.293,41.697l-1.103,1.205c-8.363,-16.905 0.523,-38.005 16.103,-44.154l-0.645,-0.623c-16.9,7.949 -24.249,28.084 -15.947,45.254l-1.047,0.929c-9.444,-18.796 0.454,-39.851 16.023,-47.122l-0.602,-0.581Zm-91.269,0.016c0,0 -0.118,1.004 0.236,1.346c0.162,0.717 -0.097,0.638 -0.705,0.493c-1.496,-0.358 -0.329,0.496 0.895,1.184c1.205,0.679 1.043,0.656 -0.009,1.324c-0.707,0.45 -0.634,0.619 -0.539,0.96c0.141,0.506 0.238,0.169 0.531,-0.102c0.616,-0.567 1.107,-0.709 1.654,-0.706c0.821,0.003 0.905,0.663 0.759,1.177c-0.326,1.079 -1.435,1.02 -2.344,0.752c-1.486,-0.439 -3.913,-3.022 -3.875,-4.544c-0.103,-1.363 1.756,-1.946 3.397,-1.884l0,0Zm5.795,0.042c0.294,-0.007 0.668,0.213 0.886,0.29c0.575,0.213 1.3,0.498 2.098,0.832c1.102,0.351 2.218,0.922 2.938,1.404c2.192,1.465 2.058,4.395 1.9,4.686l-11.327,10.761c-0,0 -0.64,-0.313 -1.242,-0.621c-1.904,-0.974 -2.362,-1.489 -1.305,-2.028c0.513,-0.262 0.678,-0.824 0.752,-1.374c0.098,-0.737 0.059,-0.612 0.499,-0.948c0.765,-0.585 0.802,-0.826 0.806,-1.797c-0,-0.643 0.068,-0.939 0.302,-1.343c0.569,-1.106 0.324,-1.952 0.779,-3.063c0.626,-0.621 0.922,-2.3 1.475,-1.83c0.545,0.572 0.337,1.352 0.368,1.76c0.101,-0.101 0.556,-0.317 0.65,-0.338c0.237,-0.055 0.475,0.027 0.536,0.399c-0.083,1.054 -0.019,2.172 0.169,3.173c0.841,2.91 0.721,2.501 0.388,0.085c-0.179,-1.301 -0.196,-2.378 0.33,-3.596c0.497,-0.868 0.523,-1.039 -0.555,-1.466c-0.401,-0.159 -1.083,-0.439 -1.224,-0.716c-0.173,-0.339 -0.686,-0.8 -1.355,-0.958c-1.627,-0.384 -2.575,-1.96 -2.34,-2.194c0.154,-0.154 0.81,0.047 1.224,0.062c1.486,0.052 1.801,-0.023 2.459,-0.59c0.351,-0.301 0.508,-0.571 0.787,-0.591l0.002,0.001Zm77.988,2.035c-15.217,12.341 -17.884,32.305 -10.293,47.71l-1.314,1.035c-9.54,-18.071 -3.132,-37.565 8.589,-48.225l3.018,-0.52Zm-87.851,1.471c0.269,-0.025 0.562,0.369 1.63,1.513c0.72,0.771 1.469,1.442 1.863,1.667c0.894,0.429 0.7,0.249 -0.046,0.958c-0.761,0.876 -0.341,1.597 -1.251,1.158c-2.367,-1.114 -4.031,-4.397 -2.491,-5.187c0.116,-0.06 0.205,-0.101 0.295,-0.109l-0,-0Zm-1.177,3.452c0.057,-0.005 0.12,0.004 0.182,0.019c0.292,0.071 0.646,0.621 1.026,1.005c1.052,1.062 1.541,1.535 2.382,1.908c0.827,0.366 0.85,0.455 0.268,1.102c-0.212,0.235 -0.339,0.518 -0.389,0.676c-0.049,0.157 -0.061,0.356 -0.239,0.391c-0.922,0.177 -3.985,-1.685 -4.106,-2.97c0.099,-1.202 0.402,-2.095 0.876,-2.131l-0,-0Zm6.492,0.357c0.531,-0.014 0.843,0.46 0.84,1.23c-0,0.533 -0.302,0.75 -0.911,0.979c-1.301,0.488 -2.103,-0.445 -1.193,-1.476c0.382,-0.433 0.9,-0.724 1.264,-0.733Zm-0.795,3.133c0.982,0.004 1.266,0.833 0.546,1.549c-0.676,0.672 -2.039,0.676 -2.036,-0.062c-0,-0.579 0.865,-1.489 1.49,-1.487l0,-0Zm-6.086,0.992c0.664,0.197 2.281,1.365 2.992,1.502c0.037,0.393 -0.436,0.501 0.235,1.242c0.305,0.336 0.331,0.565 0.066,0.706c-0.81,0.433 -3.619,-0.936 -3.808,-2.345c-0.091,-0.688 0.138,-1.08 0.515,-1.105l0,-0Zm3.666,1.687c0.966,0.04 2.058,0.069 1.943,0.532c-0.083,0.335 -0.428,1.222 -0.871,1.056c-0.215,-0.08 -0.424,-0.295 -0.574,-0.439c-0.515,-0.496 -0.651,-1.155 -0.498,-1.149Zm-3.004,2.304c0.592,-0.292 2.477,0.3 2.661,0.764c0.767,1.935 -0.243,6.141 -2.001,6.56c-0.675,0.161 -1.46,0.407 -1.978,-0.799c-0.072,-0.008 1.071,-6.406 1.318,-6.525Zm40.173,1.12c-0.415,0.302 -0.468,0.345 -0.628,0.586c2.814,2.555 13.04,29.24 -8.27,48.682l-4.523,1.359c20.46,-16.105 17.057,-38.969 11.536,-48.833c-0.584,0.12 -0.812,0.649 -0.903,0.773c6.235,9.619 8.566,36.774 -15.967,49.901c0.009,0.009 0.111,0.113 0.112,0.115c0.025,0.049 0.158,0.18 0.267,0.275c0.042,-0.353 11.067,-3.037 10.289,-3.105c10.276,-9.106 19.225,-30.824 8.087,-49.753Zm-3.698,3.312c-0.508,0.536 -0.557,0.459 -0.732,0.781c8.854,17.425 0.633,38.855 -15.708,46.951c0.295,0.303 0.372,0.383 0.604,0.622c18.741,-10.171 24.029,-31.735 15.836,-48.354Zm-1.448,1.485c-0.388,0.256 -0.44,0.255 -0.653,0.667c7.355,14.881 1.589,35.529 -15.872,44.002c0.146,0.149 0.377,0.39 0.662,0.681c20.354,-10.968 22.24,-31.821 15.863,-45.35Zm-1.689,1.776c-0.691,0.921 -2.082,2.212 -2.082,2.212c2.198,1.672 7.417,26.276 -14.693,37.17c-0.011,0.79 -0.665,1.483 0.797,2.433c16.013,-7.272 22.979,-26.601 15.978,-41.815l0,0Zm80.328,30.415c0.589,0.042 1.118,0.221 1.665,0.293c1.989,0.258 3.28,1.712 2.391,2.596c-0.292,0.291 -0.7,0.124 -1.992,-0.509c-0.594,-0.292 -0.689,-0.565 -0.812,-1.222c-0.147,-0.787 -0.304,-0.866 -0.503,-0.255c-0.202,0.617 -0.419,0.999 -1.098,0.843c-1.907,-0.444 -1.187,-1.76 0.349,-1.746Zm-1.336,2.516c1.002,0.051 0.923,0.74 0.223,1.374c-0.657,0.499 -1.108,0.595 -1.478,0.221c-0.65,-0.657 0.253,-1.646 1.255,-1.595Zm2.436,0.441c0.632,-0 1.437,0.289 2.394,1.086c1.143,0.952 1.404,3.256 0.355,3.655c-0.439,0.167 -0.508,-0 -1.445,-0.889c-0.631,-0.602 -1.316,-1.145 -1.991,-1.467c-1.377,-0.657 -1.552,-0.906 -0.622,-1.353c0.196,-0.101 0.449,-0.337 0.565,-0.524c0.239,-0.383 0.312,-0.506 0.744,-0.508Zm-3.41,2.219c0.967,0.07 1.094,1.218 0.234,1.641c-0.249,0.202 -1.053,-0.095 -1.097,0.128c0.06,0.392 -0.334,0.227 -0.41,0.086c-0.133,-0.166 -0.164,-0.403 -0.163,-0.594c0.015,-0.635 0.731,-1.343 1.436,-1.261Zm1.78,0.845c0.038,-0 0.084,-0 0.143,0.008c0.182,0.007 0.427,0.116 0.809,0.321c2.321,1.271 3.456,3.264 2.671,4.388c-0.515,0.738 -1.355,0.456 -1.994,-0.59c-0.36,-0.59 -1.316,-1.343 -2.401,-1.895c-1.243,-0.631 -1.269,-0.722 -0.371,-1.153c0.368,-0.177 0.644,-0.427 0.824,-0.745c0.156,-0.277 0.205,-0.327 0.319,-0.331l0,-0.003Zm-2.363,2.583c0.436,0.023 0.86,0.178 0.977,0.61c0.153,0.566 -0.93,0.901 -1.807,0.916c-0.446,0.008 -0.962,0.095 -1.096,-0.219c-0.126,-0.295 0.306,-0.837 0.485,-0.97c0.356,-0.25 0.654,-0.272 1.011,-0.319c0.138,-0.016 0.284,-0.025 0.43,-0.017l-0,-0.001Zm2.1,1.063c0.444,0.096 0.912,0.868 1.149,1.105c1.753,1.752 1.553,2.702 0.413,3.415c-0.777,0.487 -2.024,0.608 -2.433,0.204c-0.661,-0.578 -0.644,-1.241 0.086,-1.454c0.682,-0.146 0.427,-0.42 -0.21,-0.582c-2.274,-0.647 -3.671,-1.857 -1.199,-1.595c0.709,0.076 1.396,-0.477 1.767,-0.918c0.134,-0.163 0.278,-0.207 0.427,-0.175Zm-118.429,1.78l51.07,73.089l-41.267,-0c1.453,-11.625 -1.464,-24.526 -5.322,-32.945c4.199,-0.713 8.2,-1.827 12.204,-2.933l-0.814,-1.056c-4.777,1.913 -9.184,2.614 -13.334,3.089c5.508,9.398 7.474,22.353 5.823,33.845l-7.867,-0l0,-56.742l-0.493,-16.347Zm107.459,2.479c3.536,1.091 6.902,2.804 10.178,2.538c1.804,0.01 3.649,0.302 5.397,1.243c1.18,0.558 1.794,2.651 1.794,2.651c-1.851,0.971 -7.613,-0.772 -7.613,-0.772c3.656,2.353 2.367,6.697 1.584,7.23c5.05,6.396 -2.8,9.669 -5.291,7.37c-3.687,3.673 -10.013,0.596 -7.576,-5.458c-0,0 -4.632,-8.867 4.501,-8.275c-0,0 0.158,-3.583 -0.1,-3.747c-3.063,-0.249 -6.74,2.389 -9.797,4.018c-0.917,-4.769 3.632,-6.066 6.923,-6.798Zm-98.312,8.398c0.722,-0.028 2.524,1.246 2.744,2.204c0.044,0.197 0.513,1.375 1.037,2.471c0.011,0.202 1.785,3.414 1.005,3.134c-1.551,-2.112 -4.322,-5.709 -5.019,-7.462c0,-0.234 0.03,-0.339 0.233,-0.347Zm3.769,2.027c0.404,0.02 1.484,0.898 1.759,1.185c0.097,0.531 0.634,1.919 1.058,2.834c1.104,2.383 2.813,6.119 2.466,7.183c-0.115,0.351 -0.115,0.521 -0.159,0.499c-0.79,-0.921 -1.542,-2.246 -2.279,-3.21c-0.041,-0.08 0.015,-0.131 -0.175,-0.86c-0.762,-3.466 -1.993,-5.286 -2.793,-7.311c-0.072,-0.238 -0.011,-0.327 0.123,-0.32Zm2.743,1.715c0.149,0.104 2.177,1.534 2.382,1.739c0.72,2.563 3.593,10.773 2.849,12.24c-0.259,-0.203 -1.355,-1.526 -1.507,-2.208c-0.331,-3.927 -1.574,-6.751 -2.907,-9.677c-0.375,-0.882 -0.669,-1.764 -0.817,-2.094Zm3.814,2.883c0.642,0.314 1.307,1.033 1.683,1.675c0.252,0.436 0.382,0.949 0.618,2.028c0.735,3.35 2.138,6.746 1.507,10.321c-0.393,0.534 -1.249,-0.677 -1.371,-1.871c-0.405,-3.959 -0.754,-5.856 -2.143,-10.512c-0.269,-0.903 -0.473,-1.61 -0.294,-1.641Zm3.258,3.071c0.137,0.008 0.418,0.261 0.887,0.703c0.912,0.858 1.041,1.173 1.046,2.596c0.03,2.092 0.725,4.482 0.833,6.594c0.063,1.219 0.284,4.372 0.096,4.559c-0.266,0.367 -1.442,-0.97 -1.351,-3.017c0.15,-2.462 0.027,-4.315 -1.02,-8.574c-0.483,-1.968 -0.727,-2.809 -0.518,-2.858l0.027,0l-0,-0.003Zm2.809,2.963c0.338,0.04 1.166,1.224 1.54,2.305c0.344,1.003 0.231,2.277 0.482,3.358c0.561,3.705 0.527,7.417 0.378,8.538c-0.075,0.559 -0.434,0.332 -0.926,-0.201c-0.715,-0.775 -0.616,-0.792 -0.608,-2.943c0.009,-1.844 -0.4,-6.4 -0.588,-7.326c-0.348,-1.712 -0.492,-3.346 -0.411,-3.627c0.023,-0.079 0.07,-0.112 0.133,-0.104Zm32.002,0.352c0.491,0 0.982,0.031 1.474,0.09c3.686,0.589 6.632,3.111 8.321,7.264c1.63,4.223 2.032,9.985 2.285,15.282c-0.017,1.267 -0.539,0.947 -1.904,0.16c-1.492,-0.731 -1.809,-0.52 -3.986,-0.019c-1.359,0.312 -1.236,-0.615 0.999,-2.151c0.761,-0.498 1.646,-1.163 1.355,-1.263c-0.147,-0.05 -0.828,0.134 -1.32,0.532c-2.193,1.777 -2.788,2.21 -2.155,0.482c0.159,-0.436 0.667,-1.647 0.879,-2.227c0.795,-2.171 -0.121,-3.1 -2.819,-4.474c-0.675,-0.344 -1.118,-0.918 -0.444,0.282c0.551,0.982 -0.589,1.775 -2,0.626c-0.98,-0.798 -2.95,-0.266 -3.586,0.731c-0.616,0.965 -0.285,2.765 0.929,3.349c1.07,0.462 1.469,0.128 0.434,-0.591c-1.331,-0.925 -1.072,-2.485 0.422,-2.479c0.369,0 1.021,0.414 2.669,1.312c1.18,0.64 2.019,0.369 2.021,-0.586c-0,-0.639 0.366,-0.587 1.141,-0.203c1.045,0.518 0.93,0.987 0.379,2.434c-0.373,1.01 -0.558,2.159 -0.899,3.215c-0.88,3.555 -0.997,7.58 -0.024,8.835c2.588,3.338 5.335,2.984 7.688,0.779l-0.1,3.655c-2.399,1.93 -5.202,3.246 -9.53,10.402c-1.509,-1.9 -7.984,-9.669 -18.368,-11.424l-2.336,-3.205c0.04,-0.199 -1.746,-11.919 -2.914,-15.909c0,-0 1.285,-1.956 2.452,-3.398c4.37,-5.398 11.57,-11.527 18.937,-11.5l-0,-0.001Zm-11.248,2.605c0.363,0.022 0.355,0.439 -0.82,0.812c-0.399,0.127 -0.529,-0.671 -0.311,-0.823c0.385,-0.045 0.803,-0.009 1.131,0.011l0,-0Zm-2.625,0.198c0.183,-0.011 0.323,-0.008 0.444,0.151c0.559,0.718 0.786,1.153 0.277,1.546c-0.675,0.565 -1.289,0.422 -1.664,-0.651c-0.241,-0.764 0.327,-1.005 0.943,-1.046Zm-15.718,0.016c0.519,0.37 1.152,1.366 1.771,2.275c0.351,2.08 0.336,4.24 0.488,6.43c0.16,2.305 -0.055,4.232 -0.391,4.928c-0.344,0.832 -1.04,0.256 -1.213,-0.882c-0.041,-0.274 0.187,-3.099 0.187,-4.651c0,-2.669 -0.682,-5.964 -0.842,-8.1Zm13.669,0.7c0.515,0.359 1.019,1.473 1.231,2.157c-0.038,0.211 -0.224,0.389 -0.628,0.717c-0.401,0.368 -0.528,0.345 -0.976,-0.363c-0.702,-1.1 -1.031,-1.823 -0.893,-2.203c0.444,-0.413 0.866,-0.587 1.266,-0.308Zm24.512,0.055c1.006,0.086 2,0.547 2.979,0.779l-1.495,1.448c-0.444,-0.743 -0.949,-1.485 -1.484,-2.227Zm-27.714,0.575c0.295,-0.033 0.745,-0.018 0.937,0.181c0.552,0.72 1.514,2.603 1.462,3.303c-0.14,0.238 -0.358,0.45 -0.59,0.583c-0.183,0.05 -0.35,-0.271 -0.972,-1.375c-1.083,-1.919 -1.399,-2.461 -0.837,-2.692Zm-1.247,0.624c0.606,0.524 2.007,3.446 2.088,4.201c-0.016,0.227 -0.082,0.423 -0.216,0.575c-0.908,0.979 -0.678,0.823 -2.031,-1.968c-1.141,-2.295 -1.443,-2.522 -0.688,-2.78c0.301,-0.121 0.615,-0.229 0.847,-0.028l0,-0Zm-2.17,0.75c0.396,-0.008 0.507,0.659 1.28,2.172c1.294,2.861 1.779,3.258 1.486,3.563c-0.361,0.457 -0.572,0.778 -0.915,0.224c-0.78,-1.272 -1.553,-2.894 -2.279,-4.318c-0.582,-1.063 -0.634,-1.193 -0.261,-1.453c0.215,-0.149 0.534,-0.186 0.689,-0.188Zm24.481,0.704c-0.599,-0.008 -1.146,0.045 -1.393,0.108c-0.486,0.137 -2.441,0.757 -1.243,0.869c0.241,0.023 0.855,-0.13 1.286,-0.16c1.21,-0.084 3.726,0.144 3.635,-0.088c-0.143,-0.545 -1.286,-0.718 -2.285,-0.729Zm-25.548,1.528c1.887,3.535 2.862,4.857 2.535,5.42c-0.268,0.339 -0.684,0.767 -0.93,0.665c-0.395,-0.163 -0.922,-1.328 -2.238,-3.966c-1.359,-2.726 -1.5,-2.93 -0.801,-3.284c0.889,-0.492 1.079,0.499 1.434,1.165Zm-3.113,-0.714c0.255,-0.026 0.515,0.594 0.652,0.818c0.845,1.377 0.733,1.195 0.723,5.676c-0.008,2.788 -0.363,4.567 -0.828,5.253c-0.244,0.36 -0.674,0.148 -0.887,-0.555c-0.098,-0.322 0.18,-0.799 0.232,-1.308c0.329,-3.355 0.1,-6.709 0.108,-9.884Zm22.061,0.585c-0.091,-0 -0.155,0.028 -0.177,0.083c-0.086,0.223 0.091,0.574 0.562,1.248c0.394,0.563 0.297,1.018 0.294,1.775c-0.008,1.071 0.073,1.15 0.811,0.609c0.654,-0.48 0.706,-0.511 1.873,0.283c0.692,0.471 1.564,0.525 2.129,0.008c0.398,-0.367 0.537,-0.201 1.07,-0.062c0.58,0.323 0.745,0.373 1.991,-0.233c0.841,-0.373 0.874,-0.427 1.374,-0.164c0.88,0.778 1.011,0.497 0.892,-0.52c-0,-0.355 0.105,-1.017 0.209,-1.447c0.438,-1.808 -0.271,-1.828 -1.208,-0.676c-0.363,0.446 -1.172,0.639 -1.937,0.279c-1.095,-0.516 -2.804,-0.307 -4.068,-0.094c-1.495,0.252 -2.186,-0.161 -2.787,-0.675c-0.255,-0.218 -0.757,-0.418 -1.028,-0.411l-0,-0.003Zm-19.663,3.868c0.187,-0.041 0.474,0.515 0.895,1.692c0.542,1.52 -0.405,6.803 -0.976,7.668c-0.302,0.455 -0.495,0.733 -1.115,-0.108c-0.247,-0.37 -0.054,-0.488 0.19,-1.527c0.372,-1.581 0.685,-4.138 0.704,-5.327c0.009,-1.544 0.09,-2.353 0.302,-2.398Zm1.906,5.124c0.134,0.01 0.292,0.315 0.507,0.917c0.305,0.827 0.157,2.421 -0.244,3.641c-0.232,0.711 -0.452,1.469 -0.848,2.105c-0.134,0.356 -0.825,0.232 -1.015,-0.559c-0.12,-0.5 0.295,-1.122 0.496,-1.919c0.202,-0.8 0.432,-1.817 0.546,-2.329c0.21,-1.25 0.361,-1.87 0.558,-1.856Zm14.749,2.341c-0.017,-0 -0.032,-0 -0.043,0.007c0,-0.007 -0.01,0.009 -0.015,0.012c-0.031,0.032 1.438,1.637 1.832,2.086c0.206,0.175 1.978,2.332 0.877,1.837c-2.778,-1.154 -6.028,-0.589 -8.03,1.346c-0.25,0.242 -0.458,-0.008 -1.216,-0.062c-1.555,-0.116 -2.12,0.502 -1.175,1.27c0.145,0.117 0.447,0.17 0.583,0.358c0.125,0.173 0.088,0.484 0.153,0.57c3.006,4.001 8.574,4.779 12.069,2.167c0.439,-0.329 0.686,-0.445 1.096,-0.322c0.813,0.242 0.886,-0.441 0.168,-1.395c-0.314,-0.416 -0.7,-0.895 -0.476,-1.033c0.444,-0.383 0.663,-1.009 -0.109,-1.243c-0.532,-0.162 -1.128,-0.755 -1.427,-1.583c-0.349,-0.967 -3.772,-3.94 -4.291,-4.01l0.004,-0.005Zm-13.658,1.734c0.149,-0.02 0.233,0.188 0.252,0.226c0.405,0.819 0.341,3.812 -0.278,4.82c-0.371,0.445 -1.219,-0.383 -1.092,-1.231c0.097,-0.645 0.805,-3.541 0.949,-3.705c0.063,-0.072 0.12,-0.103 0.169,-0.11Zm13.333,2.432c0.548,-0.008 1.298,0.241 1.895,0.782c0.323,0.292 0.888,1.557 0.653,2.053c-0.065,0.252 -0.743,0.238 -0.805,0.052c-0.372,-2.553 -2.437,-2.924 -3.092,-0.54c-0,-0 -0.426,0.362 -0.48,-0.335c0.147,-1.354 0.782,-2.002 1.829,-2.012l-0,-0Zm16.627,0.216c0.656,-0.012 1.281,0.319 1.602,1.021c0.224,0.49 0.25,0.902 0.161,1.117c-0.067,0.161 -0.287,0.091 -0.287,0.091c-1.048,-2.881 -2.475,-1.549 -2.992,0.045c0,-0 -0.539,0.167 -0.606,-0.008c-0.067,-0.172 -0.026,-0.496 0.188,-0.945c0.41,-0.856 1.19,-1.31 1.934,-1.324l-0,0.003Zm-14.021,0.185c0.371,-0.02 1.006,0.281 1.481,0.761c0.483,0.488 0.53,0.779 0.14,1.141c-0.234,0.217 -1.067,0.432 -1.228,0.054l-0.701,-1.642c-0.066,-0.156 0.139,-0.305 0.308,-0.314l-0,0Zm-5.05,0.077c0.415,-0 0.502,0.096 -0.15,1.618c-0.14,0.325 -1.813,-0.147 -1.494,-0.775c0.479,-0.499 1.228,-0.844 1.644,-0.843Zm17.126,0.214c-0.15,0.054 -0.782,1.658 -0.782,1.658c-0.597,-0.072 -1.313,0.012 -1.442,-0.478c-0.122,-0.463 0.12,-0.745 0.961,-1.068c0.49,-0.221 1.221,-0.262 1.263,-0.112Zm4.539,0.318c0.628,0.249 0.782,0.771 0.701,1.049c-0.062,0.21 -0.38,0.235 -0.573,0.05c-0.223,-0.215 -0.445,-0.636 -0.477,-0.904c-0.037,-0.307 0.258,-0.231 0.349,-0.195Zm-31.577,1.482c0.195,0.368 0.547,2.451 0.136,2.397c-0.399,-0.103 -0.585,-0.732 -0.655,-1.297c-0.014,-0.117 0.341,-1.086 0.519,-1.1Zm6.975,1.111c0.184,-0.026 0.65,0.138 1.34,0.529c2.273,1.101 4.603,1.257 7.078,0.703c1.427,-0.371 1.792,-0.59 1.994,-0.344c0.342,0.417 -0.199,0.834 -2.215,1.514c-2.21,0.744 -4.503,0.619 -7.519,-1.514c-0.81,-0.573 -0.915,-0.854 -0.678,-0.888Zm25.029,0.421c0.077,0.012 0.142,0.06 0.192,0.154c0.374,0.7 -0.882,1.438 -1.545,1.55c-1.785,0.302 -3.505,0.146 -4.904,-0.683c-0.954,-0.712 -0.559,-1.221 0.503,-0.672c1.143,0.591 3.468,0.7 4.702,0.103c0.463,-0.224 0.818,-0.492 1.052,-0.452Zm-28.029,1.459c-0.127,0.028 0.086,0.35 0.529,0.832c3.109,3.498 10.527,5.395 14.697,1.789c1.306,-1.228 1.106,-1.78 -0.954,-0.799c-3.421,0.85 -7.887,1.649 -13.069,-1.115c-0.716,-0.526 -1.092,-0.732 -1.203,-0.707Zm21.306,0.037c0.018,-0.008 0.083,-0 0.11,0.007c0.19,0.015 0.521,0.194 1.264,0.525c1.298,0.58 3.531,0.344 4.23,0.071c1.64,-0.639 1.989,0.166 0.426,1.032c-1.743,1.057 -4.147,0.643 -5.551,-0.719c-0.434,-0.39 -0.67,-0.875 -0.479,-0.914l-0,-0.002Zm-20.514,6.255c6.122,0.561 15.695,6.984 19.298,14.301l-2.373,-0c-3.62,-5.758 -9.189,-10.724 -15.799,-12.453c-0.261,-0.202 -1.266,-1.592 -1.126,-1.848Zm26.922,1.374l0,1.99c-1.026,0.843 -4.959,4.213 -7.749,9.104c-0.198,-0.257 -0.481,-0.835 -0.847,-1.245c2.943,-5.174 5.91,-8.135 8.596,-9.849Zm-24.525,1.549c1.405,-0.096 10.545,5.157 13.623,11.378l-1.619,-0c-3.461,-4.52 -7.309,-7.801 -10.725,-8.984c-0.83,-0.878 -1.806,-2.355 -1.279,-2.394Zm24.525,1.476l0,2.666c-2.186,2.133 -3.796,4.613 -5.048,7.236l-1.696,-0c0.05,0.031 -0.319,-0.421 -0.506,-1.083c1.849,-3.242 3.926,-6.092 7.25,-8.819Zm-22.135,2.179c0.82,0 7.336,4.807 8.256,7.723l-1.643,-0c-1.387,-1.966 -3.446,-4.189 -5.337,-5.314c-0.775,-0.963 -1.711,-2.151 -1.361,-2.344c-0,-0.045 0.03,-0.065 0.085,-0.065l-0,0Zm22.135,1.743c0.018,0.012 0.008,0.04 0,0.087l0,2.192c-0.951,1.105 -1.885,2.036 -2.928,3.701l-1.399,-0c1.195,-2.588 4.059,-6.151 4.327,-5.98Zm-18.884,3.139c0.017,-0 0.04,-0 0.067,0.009c0.507,0.134 2.358,2.238 2.299,2.832l-0.833,-0c-0.468,-0.592 -1.022,-1.565 -1.351,-2.171c-0.18,-0.335 -0.304,-0.647 -0.182,-0.67l-0,-0Zm18.884,0.379l0,2.462l-1.95,-0c-0.151,-0.028 1.221,-1.969 1.95,-2.462Z" style="fill:#242424;fill-rule:nonzero;"/><path id="path6313-8" d="M122.559,20.679c-7.115,0.001 -14.177,0.042 -21.204,0.114l52.322,74.422l0.044,-16.533l-16.79,-21.723c3.821,-1.181 8.487,-1.996 12.161,-2.324c-4.718,-10.487 -7.079,-20.337 -5,-33.835c-7.245,-0.084 -14.416,-0.122 -21.532,-0.121l-0.001,0Zm20.662,0.466c-0.41,4.766 -0.948,10.08 -0.085,15.982c-2.723,-0.997 -3.363,0.707 -3.814,0.886c-0.512,-1.145 -2.411,-3.127 -4.56,-0.798c-1.117,1.21 -0.574,3.487 2.019,4.514c-2.97,0.229 -4.513,-2.315 -5.034,-4.939c-1.605,-1.03 -3.291,-2.048 -3.452,-5.659l0.823,0.136c-0.274,2.52 2.338,3.804 3.866,2.602c0.989,-0.759 1.094,-1.931 0.704,-3.751c0.793,-0.163 2.653,-0.941 2.161,-3.336c-0.678,-3.305 -4.064,-2.917 -5.612,-0.743c-1.286,-1.596 -3.643,-1.893 -4.589,0.585c-0.527,1.38 0.674,2.932 2.038,3.231c-3.029,0.582 -4.555,-3.604 -4.725,-6.438l-1.255,-2.232c8.188,-0.047 11.769,-0.039 21.515,-0.04l0,0Zm-41.014,0.083l6.077,0.007l44.351,57.533l0.093,14.323l-50.521,-71.863Zm15.364,0.007l0.969,0.013c0.759,5.064 3.665,8.729 8.634,10.513c0.258,4.138 2.247,9.758 9.798,11.657c-0.223,4.671 2.772,9.136 5.977,11.276c-0,-0.001 -0.866,0.214 -1.542,0.279c-4.309,-3.425 -5.798,-10.55 -5.798,-10.55c-1.368,-0.492 -8.362,-3.058 -9.82,-12.432c-3.135,-0.585 -8.063,-5.664 -8.218,-10.754l0,-0.002Zm-3.908,0.013l3.407,0c0.347,4.08 2.849,9.022 8.366,11.342c1.297,6.619 3.934,9.594 9.779,12.319c0.886,3.856 3.208,8.66 5.617,10.22l-1.344,0.296l-25.825,-34.177Zm16.632,6.241c0.77,0 1.393,0.626 1.393,1.398c0,0.772 -0.623,1.395 -1.393,1.395c-0.77,-0 -1.395,-0.623 -1.395,-1.395c-0,-0.772 0.625,-1.398 1.395,-1.398Zm-46.988,7.627c0.08,0.202 -19.042,16.418 -17.181,46.927l-0.554,0.62l0.153,0.218c-0.632,0.718 -1.242,1.295 -1.931,1.996c3.966,2.533 10.877,5.299 10.899,5.227l-1.321,3.067l8.262,2.674l-1.108,2.917c-0,0 -5.748,-1.911 -8.13,-2.707c-1.175,2.612 -1.886,5.372 -2.741,8.089c-0.081,0.219 -0.269,0.112 -0.562,-0.312c-4.292,-7.337 -13.105,-12.631 -12.807,-12.106l-31.258,29.73l-0.213,18.372l21.633,22.349c-0,0 -6.261,3.089 -9.223,5.114c2.303,1.885 4.91,3.335 7.2,5.117c4.736,3.349 7.933,8.273 11.003,11.607c14.478,-7.196 29.06,-6.797 41.653,-2.428c-1.468,1.548 -3.105,2.888 -4.618,4.566c3.661,9.628 2.489,28.749 2.304,29.269c7.621,-7.804 18.956,-24.539 17.444,-48.1l3.208,-3.222c-0.059,-0.166 -8.021,-4.438 -11.339,-5.369l0.917,-2.929l-7.949,-2.489l0.887,-2.325l7.917,2.299c1.499,-3.689 3.087,-8.857 3.087,-8.857c3.161,4.741 6.646,9.054 13.819,13.442l31.078,-29.807l-0.2,-19.166l-21.161,-21.211l8.808,-4.601c-0.846,-0.685 -2.074,-1.333 -2.944,-2.018c-0.063,-0.049 0.176,-0.197 0.113,-0.245c-0.221,-0.171 -0.384,-0.309 -0.609,-0.466c-0.05,-0.036 -0.209,0.194 -0.259,0.158c-2.989,-2.101 -5.978,-4.168 -8.331,-6.682c-0.06,-0.063 0.03,-0.324 -0.029,-0.388c-1.223,-1.309 -2.441,-2.527 -3.685,-3.816c-0.576,-0.583 -1.529,-1.969 -1.529,-1.969l-0.054,-0.457l-1.336,-1.686c-4.303,2.545 -22.649,8.93 -40.401,1.859l3.375,-3.381c-0.898,-2.172 -1.482,-4.596 -1.713,-6.581c-0.929,-7.961 -0.573,-22.299 -0.573,-22.299l-0.001,0Zm55.959,4.509c0.812,-0 1.471,0.661 1.471,1.475c0,0.815 -0.659,1.476 -1.471,1.476c-0.812,-0 -1.469,-0.661 -1.469,-1.476c0,-0.814 0.657,-1.475 1.469,-1.475Zm4.603,1.755c0.749,3.667 2.397,8.991 4.039,12.58l-1.956,0.218c-1.592,-1.037 -3.274,-2.55 -3.45,-4.695c-4.305,0.033 -5.566,-6.736 -3.994,-5.924c-0.2,2.312 1.455,3.223 3.078,2.996c1.398,-0.195 2.607,-2.129 0.944,-4.264c0.739,-0.289 1.1,-0.507 1.339,-0.911Zm-61.002,10.843c0.285,4.69 1.201,8.11 2.058,11.652l-8.505,8.046c0.664,-7.343 2.817,-13.906 6.447,-19.698Zm40.792,15.447l1.078,1.552c-12.291,7.235 -33.27,7.748 -46.051,1.647l1.697,-1.62c11.238,5.088 29.538,5.466 43.276,-1.579Zm-79.83,2.414c-1.239,-0.015 -2.669,0.459 -4.184,1.615c-5.638,-2.575 -9.331,3.445 -5.844,7.432c-0.516,2.869 -0.905,3.405 1.249,6.31c-2.288,0.292 -5.18,-0.309 -7.637,-0.688c0.416,4.25 6.487,5.239 9.014,4.772c2.729,-0.593 5.302,0.76 5.414,0.792c1.604,0.449 2.601,1.223 4.183,1.596c2.977,0.355 6.412,-2.011 6.941,-6.158c-1.784,0.458 -3.743,1.102 -5.48,1.483c-1.702,0.419 -2.984,0.832 -4.28,1.849l-0.109,-3.511c8.833,0.421 4.989,-7.997 4.489,-8.359c1.641,-3.321 -0.332,-7.09 -3.755,-7.133l-0.001,0Zm80.289,0.265l1.92,4.632l-5.104,1.735l-1.306,-4.535l4.49,-1.832Zm-80.657,0.139c3.002,0.03 5.686,3.199 2.803,6.748c5.589,4.942 -1.573,10.238 -4.984,6.562c-4.541,4.169 -9.366,-0.186 -6.829,-4.726c-4.843,-4.345 1.131,-10.171 5.211,-6.418c1.002,-1.544 2.434,-2.179 3.799,-2.166Zm34.857,1.696c0.719,0 1.301,0.584 1.301,1.305c0,0.72 -0.582,1.305 -1.301,1.305c-0.718,0 -1.302,-0.585 -1.302,-1.305c0,-0.721 0.584,-1.305 1.302,-1.305Zm-33.165,0.082c-0.028,-0.012 -0.06,-0.008 -0.093,0.015c-1.229,0.866 -1.941,2.17 -3.041,3.217c-1.469,-0.482 -2.551,-0.155 -3.518,0.458c-1.478,-0.78 -1.877,-1.38 -3.338,-2.085c-0.475,-0.229 -0.498,0.31 -0.357,0.453c1.049,1.06 2.03,1.503 3.225,2.416c-0.114,1.105 0.066,2.002 0.483,2.839c-0.822,1.561 -1.6,2.001 -2.307,3.675c-0.108,0.256 0.127,0.401 0.313,0.246c1.235,-1.03 1.824,-1.993 2.847,-3.336c1.572,0.545 2.123,0.214 3.108,-0.137c0.974,0.749 1.747,1.476 2.988,2.185c0.388,0.222 0.408,-0.356 0.395,-0.367c-0.921,-0.755 -1.946,-1.496 -2.834,-2.394c0.534,-1.996 -0.009,-2.653 -0.42,-3.299c0.763,-1.095 1.763,-2.043 2.7,-3.599c-0.013,-0.087 -0.068,-0.251 -0.151,-0.287l-0,0Zm36.101,0.299l4.598,1.433l-1.014,4.792l-4.899,-1.584l1.315,-4.641Zm33.27,1.177l1.282,4.674l-4.782,1.275l-0.785,-4.963l4.285,-0.986Zm3.358,0.078c0.719,-0 1.301,0.583 1.301,1.303c-0,0.721 -0.582,1.305 -1.301,1.305c-0.719,0 -1.302,-0.584 -1.302,-1.305c-0,-0.72 0.583,-1.303 1.302,-1.303Zm10.872,0.166l4.02,3.588l-4.463,2.259l-2.148,-4.675l2.591,-1.172Zm-37.911,1.037l4.672,0.551l-0.19,5.032l-5.36,-0.719l0.878,-4.864Zm-16.205,0.053l5.199,2.287l-1.873,5.249l-5.324,-2.291l1.998,-5.245Zm13.399,0.407c1.916,0.301 1.4,2.567 0,2.61c-0.719,0 -1.302,-0.584 -1.302,-1.305c0,-0.72 0.583,-1.305 1.302,-1.305Zm16.804,0.009l0.64,5.035l-4.85,0.295l-0.104,-5.117l4.314,-0.213Zm-64.223,0.431c1.043,-0 1.891,0.843 1.891,1.888c-0,1.045 -0.848,1.894 -1.891,1.894c-1.042,0 -1.884,-0.849 -1.884,-1.894c0,-1.045 0.842,-1.888 1.884,-1.888Zm67.558,0.142c0.719,0 1.301,0.585 1.301,1.305c0,0.721 -0.582,1.304 -1.301,1.304c-0.719,-0 -1.302,-0.583 -1.302,-1.304c0,-0.72 0.583,-1.305 1.302,-1.305Zm-10.085,0.423c0.719,0 1.303,0.585 1.303,1.305c-0,0.721 -0.584,1.304 -1.303,1.304c-0.719,-0 -1.302,-0.583 -1.302,-1.304c0,-0.72 0.583,-1.305 1.302,-1.305Zm22.84,0.322l1.889,5.176l-5.299,1.712l-1.499,-5.315l4.909,-1.573Zm-80.282,0.035c-0.551,0 -0.998,0.447 -0.998,0.997c0,0.55 0.447,0.996 0.998,0.996c0.55,0 0.997,-0.446 0.997,-0.996c0,-0.55 -0.447,-0.996 -0.997,-0.997Zm83.998,0.105c0.719,-0 1.303,0.584 1.303,1.305c-0,0.72 -0.584,1.305 -1.303,1.305c-0.718,-0 -1.3,-0.585 -1.3,-1.305c-0,-0.721 0.582,-1.305 1.3,-1.305Zm9.163,1.468l3.421,2.426l-1.695,0.948c-0.445,-1.067 -1.228,-2.332 -1.726,-3.374Zm-48.941,0.47l5.055,1.098l-0.773,5.308l-5.515,-1.102l1.233,-5.304Zm-15.033,0.291l2.684,1.265l-1.77,4.424l-4.341,-2.319l3.427,-3.37Zm11.999,0.287c0.719,-0 1.301,0.584 1.301,1.305c-0,0.72 -0.582,1.305 -1.301,1.305c-0.719,-0 -1.301,-0.585 -1.301,-1.305c0,-0.721 0.582,-1.305 1.301,-1.305Zm29.192,0.291l0.902,5.308l-5.701,0.803l-0.353,-5.412l5.152,-0.699Zm21.345,0.101c0.719,0 1.3,0.585 1.3,1.305c-0,0.721 -0.581,1.305 -1.3,1.305c-0.718,-0 -1.302,-0.584 -1.302,-1.305c0,-0.72 0.584,-1.305 1.302,-1.305Zm-4.043,0.04l1.885,4.677l-5.577,2.338l-1.651,-4.682l5.343,-2.333Zm-14.223,0.336c0.719,0 1.301,0.585 1.301,1.305c-0,0.721 -0.582,1.305 -1.301,1.305c-0.718,0 -1.302,-0.584 -1.302,-1.305c0,-0.72 0.584,-1.305 1.302,-1.305Zm-18.834,0.532l5.335,0.097l-0.061,5.367l-5.845,-0.163l0.571,-5.301Zm42.684,0.373l2.099,1.461c-21.604,13.927 -51.953,15.652 -75.637,1.944c0,0 0.97,-0.966 1.52,-1.532c21.351,12.809 52.52,11.011 72.018,-1.873Zm-45.578,0.606c0.719,-0 1.301,0.584 1.301,1.305c-0,0.72 -0.582,1.305 -1.301,1.305c-0.719,-0 -1.302,-0.585 -1.302,-1.305c-0,-0.721 0.583,-1.305 1.302,-1.305Zm10.956,0.295c0.719,0 1.302,0.585 1.302,1.305c0,0.721 -0.583,1.305 -1.302,1.305c-0.719,0 -1.301,-0.584 -1.301,-1.305c0,-0.72 0.582,-1.305 1.301,-1.305Zm-25.417,0.719l5.572,1.615l-0.949,4.41l-6.112,-1.762l1.489,-4.263Zm-3.689,0.031c0.719,-0 1.302,0.584 1.302,1.305c0,0.72 -0.583,1.303 -1.302,1.303c-0.719,0 -1.299,-0.583 -1.299,-1.303c-0,-0.721 0.58,-1.305 1.299,-1.305Zm43.29,0.939l1.332,4.951l-6.162,1.319l-0.743,-4.868l5.573,-1.402Zm3.539,0.718c0.719,0 1.302,0.585 1.302,1.305c0,0.721 -0.583,1.305 -1.302,1.305c-0.718,0 -1.301,-0.584 -1.301,-1.305c0,-0.72 0.583,-1.305 1.301,-1.305Zm-80.508,0.769l-0.014,3.471c-1.022,-0.844 -2.176,-1.743 -3.358,-2.651c1.206,0.064 2.326,-0.27 3.37,-0.82l0.002,-0Zm-12.684,0.085c0.281,0 0.939,0.229 1.723,0.226c2.509,-0.008 7.195,0.777 8.581,1.918c0.463,0.379 1.154,0.715 1.531,1.327c-0,0.292 -0.413,0.301 -1.018,-0.076c-1.162,-0.724 -3.095,-1.369 -5.682,-1.728c-0.467,-0.065 -0.527,-0.046 -0.528,0.175c0,0.272 0.431,0.431 1.794,0.655c1.763,0.29 2.138,0.464 2.529,0.572c1.047,0.287 0.378,0.671 -0.7,0.774c-4.399,0.413 -7.692,-1.484 -8.355,-3.652c-0.053,-0.142 0,-0.19 0.125,-0.191Zm61.283,0.078l5.534,0.719l-0.252,4.643l-6.057,-0.695l0.775,-4.667Zm-47.683,0.165c0.202,0.015 0.391,0.093 0.617,0.239c1.033,0.669 0.301,3.068 -0.225,3.748c-0.341,0.381 -1.139,0.179 -1.135,-0.358c0.121,-0.481 -0.049,-2.776 0.055,-3.487c0.274,-0.109 0.487,-0.157 0.688,-0.142l0,-0Zm64.756,0.445l0.285,4.788l-6.038,0.275l0.046,-4.702l5.707,-0.361Zm-20.372,0.322c0.719,-0 1.299,0.584 1.299,1.305c0,0.72 -0.58,1.305 -1.299,1.305c-0.719,-0 -1.303,-0.585 -1.303,-1.305c-0,-0.721 0.584,-1.305 1.303,-1.305Zm-33.647,0.066c0.223,3.513 -5.159,5.897 -7.173,4.819c-0.891,-0.478 -0.521,-0.772 1.247,-1.131c2.287,-0.607 3.796,-1.198 3.797,-1.626c0,-0.263 -0.347,-0.23 -1.28,0.117c-1.436,0.484 -2.927,0.691 -4.298,1.308c-1.025,0.467 -1.423,0.63 -1.654,0.35c-0.482,-0.588 1.794,-2.072 4.155,-2.466c1.772,-0.296 3.559,-1.243 5.206,-1.371Zm57.349,0.439c0.719,0 1.3,0.585 1.3,1.305c0,0.721 -0.581,1.304 -1.3,1.304c-0.719,-0 -1.301,-0.583 -1.301,-1.304c0,-0.72 0.582,-1.305 1.301,-1.305Zm-12.104,0.955c0.719,0 1.304,0.585 1.304,1.305c-0,0.721 -0.585,1.304 -1.304,1.304c-0.719,-0 -1.301,-0.583 -1.301,-1.304c0,-0.72 0.582,-1.305 1.301,-1.305Zm28.999,2.217c8.709,8.313 18.257,17.885 26.132,25.758c-0.011,4.119 -0.036,12.359 -0.036,12.359l-30.071,28.65c-5.445,-3.333 -10.054,-7.499 -14.299,-14.898c0.479,-0.415 1.083,-0.775 1.446,-1.228l-1.752,1.038c-5.547,-8.894 -7.899,-26.614 1.523,-40.82l-9.52,0.35l1.552,-3.249l10.365,-0.567l4.19,-4.507c0,-0 1.329,-0.247 2.43,-0.501c1.091,-0.253 3.319,-0.892 4.952,-1.421c1.634,-0.53 3.025,-0.965 3.087,-0.964l0.001,-0Zm-70.302,2.302c0,0 8.95,4.878 13.92,14.643c-16.065,13.853 -22.117,29.983 -23.484,46.774c-8.743,-8.198 -13.163,-12.733 -21.063,-20.694l0.285,-11.881l30.342,-28.842Zm33.79,1.549c-2.316,4.963 -4.309,10.401 -6.093,16.227l-2.49,-0.738c0,0 1.611,-0.676 2.328,-1.103l-1.292,-2.089l2.451,-1.009l-1.45,-1.771l2.486,-1.445l-1.243,-1.563l2.279,-1.142l-1.415,-1.631l2.389,-1.336l-1.246,-1.561l3.296,-0.839Zm0.762,0.013c0,0 0.321,0.062 0.698,0.137c0.09,-0.034 -0.449,1.301 -0.392,1.348c0.87,0.179 0.921,0.13 1.182,0.208l0.662,-1.374l1.089,0.206c-2.196,4.967 -4.544,10.402 -5.892,16.284l-1.282,-0.267c0,-0 0.375,-1.242 0.376,-1.407c-0.151,-0.031 -0.873,-0.335 -1.097,-0.426c-0.076,0.194 -0.534,1.63 -0.534,1.63l-1.013,-0.027c1.66,-6.423 4.555,-13.546 6.203,-16.312l0,0Zm4.171,0.192l2.274,1.886l-2.578,1.006l1.334,1.782l-2.733,0.991l1.568,1.851l-2.706,1.002l1.614,2.24l-2.816,0.951l1.778,1.969l-2.54,1.192l1.521,1.51c0,0 -1.584,0.524 -1.676,0.547c-0.255,0.066 -1.321,-0.197 -1.321,-0.197c1.606,-5.732 3.59,-11.542 6.281,-16.73Zm-55.311,0.955c-0.628,0.408 -0.269,1.297 -1.057,2.057c-0.126,0.136 -0.134,0.45 -0.184,0.723c-0.037,0.207 -0.662,2.686 -0.662,2.686c0,0 0.158,-0.189 0.408,-0.98c0.212,-0.675 0.396,-1.956 0.512,-2.17c0.58,-0.178 0.669,-2.077 1.258,-1.817c0.34,0.151 0.274,0.461 0.082,1.189c-0.419,1.455 -0.584,2.068 0.136,1.076c1.074,-1.296 1.18,-2.467 -0.03,-2.714c-0.127,-0.025 -0.389,-0.047 -0.463,-0.049l-0,-0.001Zm16.244,0.539l-28.098,26.449l-0.087,9.869l9.781,9.937l6.94,6.744c2.52,-15.105 8.299,-29.514 22.529,-41.983c-2.18,-3.515 -5.915,-7.943 -11.065,-11.016Zm75.744,0.272c-16.51,7.779 -20.31,23.732 -15.197,38.174c7.868,-10.144 14.046,-19.674 15.197,-38.174Zm-58.762,0.808l7.496,2.419l-2.823,9.652l-6.751,-2.054l-0.69,-1.708l2.768,-8.309Zm57.931,0.251c-0.718,12.908 -5.572,25.515 -14.02,35.408c-4.272,-10.564 -1.703,-27.455 14.02,-35.408Zm-40.385,0.071l-0.471,1.201l1.039,0.293l0.44,-1.219l-1.008,-0.275Zm-1.036,2.835l-0.426,1.218l1.063,0.361l0.399,-1.238l-1.036,-0.341Zm44.23,0.222c-2.311,17.904 -11.959,34.196 -22.153,42.499c3.249,5.282 7.068,8.679 10.949,11.515l28.713,-27.574l-0.11,-9.198l-17.399,-17.242Zm-76.664,0.554c0.988,-0.065 1.27,2.386 0.781,4.198c-0.176,0.655 -0.238,0.988 -0.238,0.988c-0,-0 0.331,-0.308 1.203,-0.787c5.643,-2.821 3.824,1.469 1.166,3.056c-0.594,0.317 -1.205,0.693 -1.205,0.693c-0,0 0.562,0.129 1.174,0.243c3.424,0.713 2.696,2.722 -0.876,2.41c-0.528,-0.046 -1.149,-0.149 -1.149,-0.119c0,0.029 0.215,0.783 0.462,1.408c1.204,3.039 -1.042,3.277 -2.519,1.344c-0.205,-0.269 -0.671,-1.012 -0.671,-1.012c0,-0 -0.146,0.563 -0.235,1.106c-1.276,4.764 -4.424,4.643 -3.249,-0.191c0.147,-0.499 0.325,-1.394 0.325,-1.394c0,-0 -0.707,0.429 -1.477,0.774c-4.078,1.825 -4.74,-0.053 -1.036,-2.799c1.054,-0.782 1.413,-1.089 1.413,-1.089c-0.656,-0.051 -1.263,-0.151 -1.797,-0.285c-2.955,-0.744 -3.742,-2.516 0.993,-2.433c0.7,0.015 1.41,0.062 1.41,0.062c-0,0 -0.233,-1.018 -0.48,-1.785c-1.142,-3.552 1.161,-3.974 3.103,-0.792c0.413,0.676 0.53,0.68 0.53,0.68c0.263,-1.845 1.141,-4.163 2.372,-4.276l-0,-0Zm51.566,0.665c-1.973,3.493 -3.693,6.965 -4.513,10.587l-7.672,-0.132c0.531,-3.212 1.887,-6.552 3.506,-10.084c3.123,-0.086 5.939,-0.221 8.679,-0.371Zm-20.257,1.548l-0.442,1.286l1.113,0.342l0.404,-1.252l-1.075,-0.376Zm-57.375,2.411c-0.822,2.142 -1.098,4.525 -1.554,6.437c-0.192,1.108 0,1.57 0.667,1.818c0.942,0.352 2.302,-0.129 3.063,-1.22c0.429,-0.616 0.743,-1.886 0.808,-4.131l0.074,-2c-1.166,-0.217 -1.963,-0.53 -3.056,-0.904l-0.002,0Zm56.337,0.279l-0.368,1.18l1.075,0.4l0.409,-1.192l-1.116,-0.388Zm49.683,0.443c1.303,0.032 1.547,0.15 2.729,0.851l2.282,2.352c-0.598,0.574 -0.974,1.382 -0.974,2.277c0,1.74 1.41,3.153 3.146,3.153c0.86,0 2.209,-0.911 2.209,-0.911l3.613,3.755c-2.273,0.88 -3.952,-0.832 -5.176,-2.379c-0.121,1.537 -1.251,6.459 -3.564,6.86c-1.771,-0.297 0.033,-7.346 0.051,-7.184c-1.217,1.291 -7.15,2.664 -6.734,1.223c0.825,-2.862 5.263,-3.964 5.847,-4.461c-2.359,-1.423 -5.348,-5.368 -3.433,-5.536l0.004,-0Zm-105.733,0.094c0.751,0.053 1.266,0.143 1.777,0.357c0.238,0.064 0.249,0.262 0.275,0.45c0.009,0.845 0.215,3.325 -0.566,3.35c-0.868,-0.018 -1.683,0.168 -2.254,0.606c-0.46,0.351 -0.611,0.099 -0.487,-0.803c0.12,-0.873 0.552,-2.709 0.738,-3.452c0.03,-0.306 0.274,-0.522 0.517,-0.508Zm23.442,0.032c-1.736,0 -3.144,1.412 -3.144,3.152c-0,1.741 1.408,3.154 3.144,3.154c1.737,-0 3.146,-1.413 3.146,-3.154c0,-1.74 -1.409,-3.152 -3.146,-3.152Zm0,1.102c1.129,0 2.047,0.919 2.047,2.05c0,1.132 -0.918,2.047 -2.047,2.047c-1.128,0 -2.043,-0.915 -2.043,-2.047c-0,-1.131 0.915,-2.05 2.043,-2.05Zm16.229,0.039c7.208,12.473 6.373,29.595 -2.125,42.051l9.136,-0.641l-1.201,2.344l-9.741,0.952c-1.488,1.366 -2.843,2.926 -4.306,4.387l-0.015,0.517c-3.339,0.777 -6.681,1.671 -10.085,2.901c-1.797,-1.769 -5.176,-5.305 -5.154,-5.394l0.218,-1.143c23.166,-11.848 16.389,-35.61 14.758,-37.564c2.76,-3.134 5.794,-6.089 8.515,-8.41l-0,-0Zm-16.263,1.466c-0.294,0 -0.537,0.242 -0.537,0.537c0,0 0,0 0,0.001c0,0.294 0.243,0.536 0.537,0.536c0.295,0 0.538,-0.242 0.538,-0.536c-0,-0.001 -0,-0.001 -0,-0.001c-0.001,-0.295 -0.243,-0.537 -0.538,-0.537Zm80.556,0.801c0.938,0 1.697,0.764 1.697,1.705c-0,0.94 -0.759,1.704 -1.697,1.704c-0.938,0 -1.699,-0.764 -1.699,-1.704c-0,-0.941 0.761,-1.705 1.699,-1.705Zm7.553,0.459l1.074,1.108c-0.121,0.101 -0.191,0.252 -0.191,0.41c-0,0.294 0.242,0.536 0.537,0.536c0.152,-0 0.297,-0.065 0.398,-0.178l1.029,1.063c-0.37,0.365 -0.877,0.595 -1.438,0.595c-1.128,-0 -2.045,-0.916 -2.045,-2.047c0,-0.584 0.245,-1.114 0.636,-1.487Zm-97.774,0.365c0.938,0 1.695,0.76 1.695,1.701c-0,0.94 -0.757,1.704 -1.695,1.704c-0.938,0 -1.701,-0.764 -1.701,-1.704c-0,-0.941 0.763,-1.701 1.701,-1.701Zm-13.099,0.659c0.165,-0.01 0.319,0.008 0.455,0.056c0.796,0.266 0.61,1.012 -0.418,1.668c-0.665,0.424 -1.275,0.516 -1.86,0.202c-0.97,-0.52 0.671,-1.86 1.823,-1.926l0,-0Zm13.589,4.225l-10.237,9.928c0.644,-1.65 0.668,-3.294 0.717,-4.942c3.08,0.318 4.37,-1.249 3.92,-4.473c1.989,0.119 4.051,-0.092 5.6,-0.513Zm16.402,1.134c4.746,13.568 0.624,27.925 -14.222,36.241c0.612,-13.001 6.054,-25.43 14.222,-36.241Zm13.522,1.188c8.147,2.137 17.42,3.135 27.049,3.142c0.072,3.672 0.248,7.557 0.999,11.306c-8.202,-2.151 -17.362,-3.151 -27.37,-2.974c0.415,-3.882 -0.25,-8.286 -0.678,-11.474Zm60.413,2.007l-8.677,10.169l0.365,-5.552c2.922,0.373 3.962,-1.172 3.532,-4.225c1.594,0.198 3.186,-0.082 4.78,-0.392Zm-84.303,0.563l-0.686,4.062c-1.731,0.046 -3.43,0.664 -3.407,4.539l-5.175,-0.063l9.268,-8.538Zm95.479,0.749c0.938,0 1.698,0.764 1.698,1.705c-0,0.941 -0.76,1.705 -1.698,1.705c-0.939,-0 -1.7,-0.764 -1.7,-1.705c0,-0.941 0.761,-1.705 1.7,-1.705Zm-103.35,0.518c0.939,-0 1.701,0.764 1.701,1.704c0,0.941 -0.762,1.701 -1.701,1.701c-0.938,-0 -1.698,-0.76 -1.698,-1.701c0,-0.94 0.76,-1.704 1.698,-1.704Zm99.561,1.747l-0.908,6.15c-2.364,-0.208 -4.336,0.156 -3.729,4.325c-2,-0.196 -4.778,0.278 -6.639,0.439l11.276,-10.914Zm-8.473,1.114c0.939,-0 1.7,0.764 1.7,1.704c-0,0.941 -0.761,1.701 -1.7,1.701c-0.938,-0 -1.701,-0.76 -1.701,-1.701c0,-0.94 0.763,-1.704 1.701,-1.704Zm-103.543,1.319c0.938,0 1.701,0.764 1.701,1.705c-0,0.941 -0.763,1.7 -1.701,1.7c-0.938,0 -1.695,-0.759 -1.695,-1.7c-0,-0.941 0.757,-1.705 1.695,-1.705Zm5.635,2.017c2.171,0.488 1.169,5.558 0.68,6.937c-0.037,0.038 6.053,-3.199 6.416,-1.771c0.238,2.865 -5.043,4.862 -5.043,4.862c0,-0 3.559,3.099 3.659,5.048c0.009,1.26 -1.487,1.027 -3.431,-0.571c-0.831,-0.818 -1.472,-1.431 -2.044,-2c0.668,-0.578 1.088,-1.434 1.088,-2.388c-0,-1.74 -1.407,-3.152 -3.143,-3.152c-0.959,0 -1.819,0.431 -2.396,1.11c-0.45,-0.436 -0.961,-0.942 -1.646,-1.592c-1.123,-1.052 -1.91,-1.889 -1.797,-2.267c1.481,-1.046 4.428,1.763 4.691,2.019c-0.221,-0.548 1.408,-5.944 2.966,-6.235Zm89.311,4.336c1.6,0 0.829,3.287 0.335,4.885c0,-0 0.87,-0.682 1.255,-0.863c2.81,-1.319 3.856,0.174 2.44,1.906c-0.68,0.891 -1.608,1.089 -2.362,1.837c1.911,0.128 3.475,0.451 4.521,2.116c-0.806,1.475 -3.438,1.076 -5.499,0.568c1.207,1.432 1.749,5.206 0.257,5.249c-1.506,-0.404 -2.241,-2.083 -2.831,-3.289c-0.483,1.344 -0.952,2.782 -2.029,3.781c-1.068,0.991 -1.616,0.169 -1.561,-1.509c0.022,-0.668 0.511,-2.66 0.511,-2.66c-6.328,2.141 -5.855,-0.756 -0.917,-3.293c-3.042,-1.454 -4.891,-2.763 0.283,-3.06c-0.137,-0.124 -1.04,-2.901 -0.074,-3.552c0.898,-0.604 2.812,1.472 2.904,1.573c0.575,-1.973 1.212,-3.688 2.767,-3.689l-0,0Zm-91.123,3.708c1.128,-0 2.046,0.918 2.046,2.05c0,0.65 -0.305,1.228 -0.777,1.603c-0.505,-0.505 -0.738,-0.736 -1.102,-1.102c0.135,-0.101 0.215,-0.261 0.215,-0.429c0,-0.294 -0.242,-0.537 -0.537,-0.537c-0.168,0.001 -0.327,0.08 -0.428,0.215c-0.299,-0.299 -0.708,-0.712 -1.021,-1.02c0.374,-0.475 0.953,-0.78 1.604,-0.78Zm113.226,0.126c-1.102,0.101 -1.787,1.081 -2.296,1.936c-0.104,0.173 -0.296,0.235 -0.367,0.464c-0.457,1.474 -0.855,3.238 -1.099,5.436c0.698,0.287 2.273,0.774 2.969,0.513c0.196,-0.083 0.136,-0.591 0.202,-0.759c0.414,-1.119 3.057,-7.774 0.591,-7.59Zm-0.319,0.343c0.287,-0.029 0.544,0.104 0.709,0.507c0.277,0.672 -0.612,1.403 -1.761,1.399c-0.683,-0 -0.906,0.093 -0.602,-0.502c0.249,-0.496 1.023,-1.342 1.654,-1.404Zm-14.71,0.032c0.939,-0 1.701,0.764 1.701,1.705c0,0.94 -0.762,1.7 -1.701,1.7c-0.938,-0 -1.698,-0.76 -1.698,-1.7c0,-0.941 0.76,-1.705 1.698,-1.705Zm-89.626,0.12c0.938,0 1.701,0.76 1.701,1.701c-0,0.94 -0.763,1.704 -1.701,1.704c-0.939,0 -1.697,-0.764 -1.697,-1.704c0,-0.941 0.758,-1.701 1.697,-1.701Zm80.381,0.691c-1.736,0 -3.144,1.411 -3.144,3.152c0,1.741 1.408,3.154 3.144,3.154c1.737,-0 3.146,-1.413 3.146,-3.154c0,-1.741 -1.409,-3.152 -3.146,-3.152Zm-42.03,0.423c-0.827,3.633 -2.1,7.105 -3.707,10.541c-3.032,0.184 -6.308,0.326 -8.469,0.634c3.6,-6.321 3.686,-7.807 5.019,-11.156l7.157,-0.019Zm5.21,0.513c0.851,0.101 1.784,0.23 2.625,0.393c-1.548,5.46 -3.593,11.065 -6.235,16.461l-1.6,-0.248l-0.757,-0.939l2.54,-1.017l-1.981,-2.028l3.282,-0.993l-2.019,-1.996l3.241,-0.811l-1.734,-2.113l2.909,-1.138l-1.849,-2.391l3.099,-0.855l-1.521,-2.325Zm36.82,0.166c1.129,0 2.046,0.919 2.046,2.05c-0,1.132 -0.917,2.047 -2.046,2.047c-1.128,0 -2.042,-0.915 -2.042,-2.047c0,-1.131 0.914,-2.05 2.042,-2.05Zm-33.614,0.312l1.083,0.175l-0.335,1.161l1.233,0.263l0.398,-1.254c0,0 0.99,0.091 1.095,0.171c-1.29,5.271 -5.851,16.304 -5.909,16.245l-1.174,-0.175l0.31,-1.113l-1.093,-0.156c-0,-0 -0.376,0.79 -0.527,1.197l-1.165,-0.097c2.824,-6.461 4.747,-11.42 6.084,-16.417Zm57.407,0.419c0.866,-0.008 0.815,0.443 0.187,2.08c-0.59,1.539 -0.811,2.155 -1.098,2.355c-0.682,0.485 -2.154,0.079 -2.035,-0.629c0.387,-2.299 0.526,-3.28 1.117,-3.592c0.617,-0.122 1.218,-0.212 1.829,-0.214Zm-53.06,0.191l2.819,0.546l-2.357,1.407l1.498,1.754l-2.898,1.239l1.759,1.824l-2.797,1.146l1.7,2.007l-2.901,1.228l1.976,1.716l-3.262,1.032l1.236,1.903l-1.227,0.687l-1.516,-0.236c2.514,-5.879 4.13,-10.715 5.97,-16.253Zm29.278,0.582c-0.295,-0 -0.537,0.242 -0.537,0.536c-0,0.001 -0,0.001 -0,0.001c-0,0.295 0.242,0.537 0.537,0.537c0.294,-0 0.537,-0.242 0.537,-0.537c-0,-0 -0,-0 -0,-0.001c-0,-0.294 -0.243,-0.536 -0.537,-0.536Zm-22.35,0.823l5.523,1.506l1.103,1.976l-2.589,8.772l-7.36,-2.168l3.323,-10.086Zm-10.976,0.846l-0.526,1.44l1.216,0.253l0.468,-1.483l-1.158,-0.21Zm-1.069,3.308l-0.526,1.44l1.142,0.226l0.54,-1.456l-1.156,-0.21Zm-1.077,2.908l-0.538,1.433l1.111,0.229l0.531,-1.437l-1.104,-0.225Zm51.89,2.637c-0,-0 -0.564,0.409 -0.712,0.59c0.123,0.329 0.48,0.835 0.426,1.167c-0.049,0.249 -0.324,0.451 -0.741,0.895c-1.04,1.213 -1.407,1.08 -0.804,-0.215c0.199,-0.407 0.289,-0.783 0.289,-0.783c-0.241,0.338 -0.421,0.737 -0.584,1.054c-0.343,0.662 -0.665,1.287 -0.665,1.287c0.662,0.229 1.104,0.724 1.531,1.044c0,-0 0.216,-0.588 0.367,-1.15c0.209,-0.783 0.624,-1.104 1.131,-1.374c0.32,-0.17 0.627,-0.479 0.627,-0.479c-0.559,-0.571 -0.624,-1.388 -0.865,-2.036Zm-53.04,0.354l-0.57,1.525l1.108,0.272l0.615,-1.558l-1.153,-0.239Zm-62.488,3.835c-0.101,6.076 0.099,10.077 -0.114,16.629l16.411,21.321l-2.559,0.861c0,-0 -0.029,0.297 -0.167,0.335c-3.507,0.967 -9.194,1.929 -9.194,1.929c4.231,9.684 6.975,21.792 5.082,33.888l42.471,-0.112l-51.93,-74.851Zm54.24,1.251c12.348,0.1 24.592,3.217 35.584,9.046l-1.464,1.471c-21.6,-11.719 -51.349,-11.673 -73.058,2.516l-1.768,-1.3c12.587,-8.085 26.712,-11.847 40.706,-11.733Zm-53.447,0.88l49.99,71.99l-5.871,0.085l-44.075,-57.801l-0.044,-14.274Zm107.282,1.302c-5.275,0.969 -7.852,3.132 -7.436,6.689c0.094,1.422 1.723,-0.079 1.723,-0.082c-0,-0 2.858,-2.327 8.428,-3.424l-0.183,3.265c-6.877,-0.025 -6.502,5.45 -4.524,8.297c-0.693,1.317 -2.208,5.913 2.781,7.661c2.488,0.497 5.124,-1.529 5.042,-1.634c4.59,2.176 9.917,-1.473 5.764,-7.793c1.562,-2.756 0.461,-4.802 -1.03,-6.562c2.07,0.286 4.102,0.921 6.979,0.925c0.008,-2.974 -2.452,-4.302 -7.575,-4.706c-3.629,0.514 -9.969,-2.662 -9.969,-2.636Zm-55.34,0.334l0.74,-0l-0.24,5.078l-5.582,0.257l-0.362,-5.059c1.922,-0.133 3.707,-0.273 5.444,-0.279l0,0.003Zm6.689,0.135l5.989,0.73l-0.908,4.748l-5.515,-0.593l0.434,-4.885Zm48.542,0.057c0.496,0.056 0.339,0.631 -0.34,0.764c-1.076,0.211 -3.838,1.823 -3.84,2.241c-0,0.27 0.136,0.232 1.146,-0.31c1.438,-0.72 2.831,-1.205 4.323,-1.825c0.928,-0.42 1.39,-0.129 1.055,0.664c-0.221,0.525 -0.31,0.565 -2.461,1.249c-2.309,0.654 -3.381,1.548 -5.355,2.622c-1.271,0.66 -1.529,0.661 -1.526,-0.226c0.147,-3.675 4.369,-4.864 6.998,-5.179Zm-51.798,0.614c0.749,0 1.354,0.609 1.354,1.36c-0,0.75 -0.605,1.359 -1.354,1.359c-0.749,-0 -1.357,-0.609 -1.357,-1.359c0,-0.751 0.608,-1.36 1.357,-1.36Zm-14.816,0.362l0.446,4.608l-5.488,1.414l-1.255,-4.76c2.099,-0.516 4.198,-0.878 6.297,-1.262Zm70.7,0.349c1.505,0.23 1.385,3.684 0.615,4.283c-1.184,0.855 -1.911,-0.932 -1.383,-3.304c0.149,-0.713 0.425,-0.962 0.768,-0.979Zm-67.586,0.187c0.749,0 1.355,0.608 1.355,1.358c0,0.751 -0.606,1.359 -1.355,1.359c-0.749,0 -1.355,-0.608 -1.355,-1.359c-0,-0.75 0.606,-1.358 1.355,-1.358Zm26.811,0.395l6.203,1.698l-1.517,4.814l-5.822,-1.643l1.136,-4.869Zm-3.379,0.094c0.749,0 1.357,0.608 1.357,1.358c-0,0.751 -0.608,1.36 -1.357,1.36c-0.748,-0 -1.355,-0.609 -1.355,-1.36c-0,-0.75 0.607,-1.358 1.355,-1.358Zm50.757,0.403c2.673,0.028 6.198,1.373 6.205,3.445c-0.055,0.588 -5.6,-0.193 -8.161,-1.227c-0.909,-0.367 -2.016,-1.483 -2.014,-1.949c-0,-0.277 0.542,-0.258 0.763,0.012c0.361,0.439 1.637,0.898 4.571,1.639c2.253,0.568 2.478,0.591 2.479,0.248c-0.359,-0.656 -3.655,-1.064 -5.291,-1.6c-1.344,-0.445 0.902,-0.541 1.448,-0.568l-0,0Zm-4.719,1.073c0.674,0.317 0.915,0.947 1.287,1.28c-0.462,0.22 -0.668,0.442 -1.417,0.498c0.014,-0.496 -0.119,-1.088 0.13,-1.778Zm-81.256,0.372c0.748,-0 1.358,0.609 1.358,1.359c-0,0.751 -0.61,1.359 -1.358,1.359c-0.749,0 -1.354,-0.608 -1.354,-1.359c0,-0.75 0.605,-1.359 1.354,-1.359Zm-3.648,0.385l1.464,4.705l-5.244,2.287l-1.858,-4.663c1.813,-0.955 3.795,-1.649 5.638,-2.329Zm24.249,0.768c0,0 4.179,0.008 5.621,0.022l-0.338,5.311l-5.212,0.041l-0.071,-5.374Zm-5.581,0.291l0.291,5.304l-5.02,0.676l-0.992,-5.335l5.721,-0.645Zm31.736,0.046c0.748,0 1.358,0.609 1.358,1.359c-0,0.751 -0.61,1.358 -1.358,1.358c-0.749,0 -1.354,-0.607 -1.354,-1.358c-0,-0.75 0.605,-1.359 1.354,-1.359Zm36.32,0.124c3.056,0.013 5.97,3.538 2.95,7.23c4.954,3.82 -0.433,10.242 -4.811,6.499c-6.261,6.165 -9.76,-2.206 -7.169,-4.426c-3.826,-6.303 0.875,-10.285 5.725,-7.505c0.893,-1.27 2.109,-1.804 3.305,-1.798Zm-51.16,0.151l5.506,1.227l-1.108,5.246l-5.379,-1.095l0.981,-5.378Zm18.225,0.129l5.035,2.507l-3.903,3.767l-2.902,-1.448l1.77,-4.826Zm-32.281,0.594c0.749,-0 1.355,0.609 1.355,1.359c0,0.751 -0.606,1.358 -1.355,1.358c-0.749,0 -1.357,-0.607 -1.357,-1.358c0,-0.75 0.608,-1.359 1.357,-1.359Zm10.88,0.17c0.748,0 1.356,0.609 1.356,1.36c0,0.75 -0.608,1.359 -1.356,1.359c-1.996,-0.313 -1.459,-2.674 -0,-2.719Zm-25.078,0.766l1.227,5.245l-5.101,1.728l-1.823,-5.11l5.697,-1.863Zm3.504,0.372c0.748,-0 1.355,0.609 1.355,1.359c-0,0.751 -0.607,1.359 -1.355,1.359c-0.749,0 -1.355,-0.608 -1.355,-1.359c-0,-0.75 0.606,-1.359 1.355,-1.359Zm77.397,0.46c-0.136,-0 -0.304,0.07 -0.442,0.247c-0.731,0.929 -1.557,1.861 -2.337,2.754c-1.269,-0.525 -2.499,-0.317 -3.322,0.249c-1.105,-0.876 -1.988,-1.716 -3.227,-2.446c-0.191,-0.113 -0.408,0.026 -0.295,0.192c0.777,1.137 1.959,1.78 2.923,2.889c-0.375,1.215 -0.371,2.166 0.345,3.188c-0.531,0.896 -1.617,2.014 -2.283,3.272c-0.25,0.473 0.293,0.409 0.329,0.381c1.076,-0.817 1.599,-1.906 2.787,-2.882c1.268,0.343 1.97,0.653 3.237,-0.395c1.199,0.553 1.891,1.395 3.233,2.178c0.441,0.257 0.575,-0.302 0.38,-0.5c-1.123,-1.136 -1.876,-1.592 -3.053,-2.553c0.268,-0.441 0.458,-2.008 -0.46,-3.081c0.842,-1.049 1.228,-1.464 2.347,-2.989c0.212,-0.288 0.067,-0.5 -0.162,-0.504Zm-41.23,0.457l4.969,2.092l-1.778,5.207l-4.799,-1.965l1.608,-5.334Zm-54.676,0.35c0.748,-0 1.356,0.607 1.356,1.357c0,0.751 -0.608,1.36 -1.356,1.36c-0.749,-0 -1.355,-0.609 -1.355,-1.36c-0,-0.75 0.606,-1.357 1.355,-1.357Zm50.834,0.139c0.749,0 1.355,0.608 1.355,1.358c0,0.751 -0.606,1.359 -1.355,1.359c-0.749,0 -1.357,-0.608 -1.357,-1.359c0,-0.75 0.608,-1.358 1.357,-1.358Zm-54.305,0.372l1.627,4.038l-3.699,-2.764l2.072,-1.274Zm40.78,1.04l4.95,0.587l-0.783,4.729l-4.269,-0.388l0.102,-4.928Zm-5.403,0.014l-0.048,4.86l-4.703,0.202l-0.399,-4.853l5.15,-0.209Zm-24.192,0.885c0.749,-0 1.356,0.607 1.356,1.357c-0,0.751 -0.607,1.36 -1.356,1.36c-0.748,-0 -1.355,-0.609 -1.355,-1.36c0,-0.75 0.607,-1.357 1.355,-1.357Zm-3.749,0.097l1.913,4.884l-2.966,1.436l-3.978,-3.772l5.031,-2.548Zm17.698,0.061l0.765,4.65l-4.902,1.214l-1.191,-4.729l5.328,-1.135Zm70.082,0.047c1.068,-0 1.932,0.867 1.932,1.937c0,1.07 -0.864,1.938 -1.932,1.938c-1.067,0 -1.933,-0.868 -1.933,-1.938c-0,-1.07 0.866,-1.937 1.933,-1.937Zm-57.373,0.147c0.749,-0 1.357,0.609 1.357,1.359c-0,0.751 -0.608,1.36 -1.357,1.36c-0.749,-0 -1.355,-0.609 -1.355,-1.36c-0,-0.75 0.606,-1.359 1.355,-1.359Zm13.355,0.501l5.229,1.697l-1.758,4.197l-4.516,-1.227l1.045,-4.667Zm-23.172,0.175c0.748,-0 1.355,0.609 1.355,1.359c-0,0.751 -0.607,1.358 -1.355,1.358c-0.749,0 -1.354,-0.607 -1.354,-1.358c-0,-0.75 0.605,-1.359 1.354,-1.359Zm67.18,0.095c-0.551,0 -0.998,0.446 -0.998,0.997c0,0.55 0.447,0.996 0.998,0.996c0.551,0 0.998,-0.446 0.998,-0.996c-0,-0.551 -0.447,-0.997 -0.998,-0.997Zm-47.299,0.406c0.749,0 1.354,0.607 1.354,1.358c0,0.75 -0.605,1.359 -1.354,1.359c-0.748,0 -1.356,-0.609 -1.356,-1.359c-0,-0.751 0.608,-1.358 1.356,-1.358Zm-33.201,1.592l1.801,4.154l-4.918,2.132l-2.143,-4.236l5.26,-2.05Zm3.488,0.248c0.748,-0 1.353,0.609 1.353,1.359c0,0.751 -0.605,1.36 -1.353,1.36c-0.749,-0 -1.358,-0.609 -1.358,-1.36c-0,-0.75 0.609,-1.359 1.358,-1.359Zm18.12,1.253c8.075,-0.016 15.366,1.676 21.218,4.105l-1.742,1.638c-18.981,-6.538 -31.396,-3.593 -44.125,2.003l-1.285,-1.591c8.998,-4.412 17.859,-6.138 25.934,-6.155Zm21.473,0.052c0.748,-0 1.355,0.608 1.355,1.359c-0,0.75 -0.607,1.358 -1.355,1.358c-0.749,-0 -1.354,-0.608 -1.354,-1.358c-0,-0.751 0.605,-1.359 1.354,-1.359Zm-49.464,2.97l0,0.008c1.09,0.065 1.194,2.101 0.686,1.514l-1.212,-1.414c0.197,-0.084 0.371,-0.118 0.526,-0.108Zm50.741,0.853c-0.04,1.545 -1.497,11.899 -6.423,19.018c-0.299,-3.601 -1.168,-7.905 -2.136,-10.778c-0,0 5.299,-4.91 8.559,-8.24Zm-63.011,15.691l25.632,34.648l-2.691,-0.018c-1.079,-6.51 -4.834,-9.873 -9.196,-11.654c-0.35,-5.478 -3.746,-10.433 -9.302,-12.175c-0.362,-3.663 -2.011,-7.266 -6.147,-10.3l1.704,-0.501Zm-2.544,0.796c4.907,3.766 5.148,4.68 6.554,10.488c7.016,2.37 8.778,7.603 9.232,12.043c4.62,1.815 8.406,5.696 9.065,11.283l-1.41,0.008c-1.005,-6.339 -4.985,-8.868 -9.193,-10.052c0.328,-8.949 -6.613,-11.74 -9.037,-12.16c0.142,-6.446 -4.018,-9.106 -6.703,-11.269c0.524,-0.134 1.026,-0.231 1.492,-0.341l0,0Zm-4.098,0.923c2.097,0.687 3.687,3.615 3.526,4.963c2.765,0.349 5.67,3.029 5.032,5.82c-0.204,0.119 -0.528,0.143 -0.847,-0.177c0.741,-5.416 -7.322,-2.735 -4.1,1.183l-1.442,0.943c-1.159,-5.42 -2.585,-8.49 -4.133,-12.404c0.565,-0.15 1.964,-0.328 1.964,-0.328Zm6.678,11.354c0.716,-0 1.293,0.582 1.293,1.3c0,0.718 -0.577,1.301 -1.293,1.301c-0.717,-0 -1.297,-0.583 -1.297,-1.301c0,-0.718 0.58,-1.3 1.297,-1.3Zm3.322,0.626c1.873,-0.129 3.691,3.35 3.602,5.219c3.079,0.874 4.076,3.998 3.974,5.135l-0.675,-0.014c-1.083,-4.951 -6.71,-2.259 -4.36,1.69c-3.009,1.114 -2.772,3.898 -1.886,4.999c1.223,1.52 4.339,1.473 5.29,-0.866c2.925,3.794 6.963,-0.464 3.402,-4c2.916,1.077 3.384,4.995 2.945,6.218c1.354,0.463 2.913,2.616 2.705,2.604l-21.851,0.008c0,-0 1.056,-8.84 -0.068,-15.511c1.454,0.35 2.43,0.702 4.103,-1.267c2.707,2.247 4.652,0.551 4.511,-1.39c-0.208,-1.358 -0.907,-2.031 -2.067,-2.748c0.125,-0.043 0.25,-0.068 0.375,-0.077l0,-0Zm6.039,11.446c0.738,-0 1.336,0.6 1.336,1.34c-0,0.74 -0.598,1.34 -1.336,1.34c-0.738,0 -1.335,-0.6 -1.335,-1.34c0,-0.74 0.597,-1.34 1.335,-1.34Z" style="fill-rule:nonzero;"/><path id="path7198-0" d="M14.111,55.979c-1.729,-2.855 -3.548,-5.63 -5.82,-8c2.272,-2.371 4.091,-5.145 5.82,-8c1.729,2.855 3.547,5.629 5.82,8c-2.273,2.37 -4.091,5.145 -5.82,8Z" style="fill:#3f3f3f;fill-rule:nonzero;"/><path id="path7202-9" d="M164.473,209.47c-1.729,-2.855 -3.548,-5.629 -5.821,-8c2.273,-2.37 4.092,-5.145 5.821,-8c1.728,2.855 3.547,5.63 5.82,8c-2.273,2.371 -4.092,5.145 -5.82,8Z" style="fill:#3f3f3f;fill-rule:nonzero;"/><path id="path7204-2" d="M48.063,64.556c-4.149,-6.852 -8.514,-13.511 -13.969,-19.2c5.455,-5.689 9.82,-12.348 13.969,-19.2c4.149,6.852 8.514,13.511 13.969,19.2c-5.455,5.689 -9.82,12.348 -13.969,19.2Z" style="fill:#3f3f3f;fill-rule:nonzero;"/><path id="path7222-2" d="M130.52,223.303c-4.149,-6.852 -8.514,-13.512 -13.969,-19.2c5.455,-5.689 9.82,-12.349 13.969,-19.2c4.149,6.851 8.514,13.511 13.969,19.2c-5.455,5.688 -9.82,12.348 -13.969,19.2Z" style="fill:#3f3f3f;fill-rule:nonzero;"/><path id="path37-2-1-6-5" d="M8.296,28.734l-2.206,0l-0,-3.007l2.206,-0c0,-0 0.017,-1.621 0.08,-4.48c0.137,-6.094 0.289,-7.04 2.053,-8.717c3.484,-3.314 9.318,-0.614 9.249,4.371c-0.101,7.034 -0.028,13.741 -0.234,14.691c-0.365,1.673 -0.402,1.767 -0.253,2.073c0.306,0.614 2.941,0.88 2.941,0.709l0,2.962c-2.013,0.156 -2.849,-0.033 -4.46,-1.183c-1.005,0.97 -4.066,1.945 -6.5,0.799c-1.852,-0.872 -3.255,-3.123 -2.876,-8.218Zm7.457,5.251c-1.093,-1.58 -2.933,-3.736 -4.665,-4.502c-0.108,1.817 0.049,3.34 0.688,4.159c1.016,1.305 2.658,1.603 3.977,0.343Zm0.907,-17.375c-0.811,-2.299 -2.896,-3.078 -4.42,-1.64c-0.952,0.895 -1.104,1.837 -1.125,6.952c-0.012,3.155 -0.012,4.481 -0.012,4.481c2.966,0.962 5.738,4.419 5.714,4.374l0.072,-9.542c0.057,-1.549 -0.019,-3.099 -0.228,-4.625l-0.001,-0Z" style="fill:#3f3f3f;fill-rule:nonzero;"/><path id="path37-3-27-1-5" d="M170.287,220.714l2.207,0l-0,3.008l-2.207,0c0,0 -0.016,1.621 -0.08,4.48c-0.137,6.094 -0.289,7.04 -2.053,8.717c-3.483,3.314 -9.317,0.614 -9.248,-4.371c0.1,-7.034 0.028,-13.741 0.233,-14.691c0.365,-1.673 0.402,-1.768 0.253,-2.073c-0.305,-0.614 -2.941,-0.88 -2.941,-0.709l0,-2.962c2.013,-0.156 2.85,0.033 4.46,1.182c1.005,-0.97 4.066,-1.944 6.501,-0.798c1.851,0.872 3.254,3.123 2.875,8.217Zm-7.457,-5.25c1.094,1.58 2.934,3.736 4.665,4.501c0.108,-1.816 -0.049,-3.339 -0.687,-4.158c-1.016,-1.305 -2.659,-1.603 -3.978,-0.343Zm-0.907,17.375c0.812,2.299 2.897,3.078 4.42,1.64c0.952,-0.895 1.105,-1.837 1.125,-6.952c0.012,-3.155 0.012,-4.482 0.012,-4.482c-2.965,-0.961 -5.737,-4.418 -5.713,-4.373l-0.072,9.542c-0.058,1.549 0.019,3.099 0.228,4.625l0,0Z" style="fill:#3f3f3f;fill-rule:nonzero;"/></g></svg>