<?xml version="1.0" encoding="UTF-8" standalone="no"?><!DOCTYPE svg PUBLIC "-//W3C//DTD SVG 1.1//EN" "http://www.w3.org/Graphics/SVG/1.1/DTD/svg11.dtd"><svg width="100%" height="100%" viewBox="0 0 179 250" version="1.1" xmlns="http://www.w3.org/2000/svg" xmlns:xlink="http://www.w3.org/1999/xlink" xml:space="preserve" xmlns:serif="http://www.serif.com/" style="fill-rule:evenodd;clip-rule:evenodd;stroke-linejoin:round;stroke-miterlimit:2;"><g id="g6073"><path id="rect10414-2-6" d="M178.583,7.972c-0,-4.4 -3.573,-7.972 -7.973,-7.972l-162.638,0c-4.4,0 -7.972,3.572 -7.972,7.972l0,233.504c0,4.4 3.572,7.973 7.972,7.973l162.638,-0c4.4,-0 7.973,-3.573 7.973,-7.973l-0,-233.504Z" style="fill:#fff;"/><path id="path10446-4-8" d="M13.774,55.979c-0,-0 -1.78,-2.552 -4.181,-5.552c-1.606,-2.008 -2.89,-4.182 -3.009,-6.055c-0.137,-2.139 1.159,-4.285 3.505,-4.389c2.346,-0.104 3.297,1.649 3.685,3.095c0.387,-1.446 1.339,-3.199 3.684,-3.095c2.347,0.104 3.643,2.25 3.506,4.389c-0.119,1.873 -1.403,4.047 -3.009,6.055c-2.401,3 -4.181,5.552 -4.181,5.552Z" style="fill:#3f3f3f;fill-rule:nonzero;"/><path id="path10448-8-7" d="M164.809,193.47c0,0 -1.779,2.552 -4.18,5.552c-1.606,2.008 -2.89,4.182 -3.01,6.055c-0.137,2.139 1.16,4.285 3.506,4.389c2.345,0.104 3.297,-1.649 3.684,-3.095c0.388,1.446 1.34,3.199 3.685,3.095c2.346,-0.104 3.643,-2.25 3.506,-4.389c-0.12,-1.873 -1.404,-4.047 -3.01,-6.055c-2.401,-3 -4.181,-5.552 -4.181,-5.552Z" style="fill:#3f3f3f;fill-rule:nonzero;"/><path id="path37-2-5-5-0" d="M7.958,28.734l-2.206,0l-0,-3.007l2.206,-0c-0,-0 0.017,-1.621 0.08,-4.48c0.137,-6.094 0.289,-7.04 2.053,-8.717c3.484,-3.314 9.318,-0.614 9.249,4.371c-0.101,7.034 -0.028,13.741 -0.234,14.691c-0.365,1.673 -0.402,1.767 -0.253,2.073c0.306,0.614 2.941,0.88 2.941,0.708l0,2.963c-2.013,0.156 -2.849,-0.033 -4.46,-1.183c-1.005,0.97 -4.066,1.945 -6.5,0.799c-1.852,-0.872 -3.254,-3.123 -2.876,-8.218Zm7.457,5.251c-1.093,-1.58 -2.934,-3.736 -4.665,-4.502c-0.108,1.817 0.049,3.34 0.688,4.159c1.016,1.305 2.658,1.603 3.977,0.343Zm0.907,-17.376c-0.812,-2.298 -2.896,-3.077 -4.42,-1.639c-0.952,0.895 -1.104,1.836 -1.125,6.952c-0.012,3.155 -0.012,4.481 -0.012,4.481c2.965,0.962 5.737,4.419 5.714,4.374l0.072,-9.542c0.058,-1.549 -0.019,-3.099 -0.228,-4.626l-0.001,0Z" style="fill:#3f3f3f;fill-rule:nonzero;"/><path id="path37-3-27-3-0-9" d="M170.623,220.714l2.207,0l-0,3.008l-2.207,0c0,0 -0.017,1.621 -0.08,4.48c-0.137,6.094 -0.289,7.04 -2.053,8.717c-3.484,3.314 -9.318,0.614 -9.249,-4.371c0.101,-7.034 0.028,-13.741 0.234,-14.691c0.365,-1.673 0.402,-1.768 0.253,-2.073c-0.306,-0.614 -2.941,-0.88 -2.941,-0.709l0,-2.962c2.013,-0.156 2.849,0.033 4.46,1.182c1.005,-0.97 4.066,-1.944 6.5,-0.798c1.852,0.872 3.255,3.123 2.876,8.217Zm-7.457,-5.25c1.094,1.58 2.934,3.736 4.665,4.501c0.108,-1.816 -0.049,-3.339 -0.687,-4.158c-1.016,-1.305 -2.659,-1.603 -3.978,-0.343Zm-0.907,17.375c0.812,2.299 2.896,3.078 4.42,1.64c0.952,-0.895 1.104,-1.837 1.125,-6.952c0.012,-3.155 0.012,-4.482 0.012,-4.482c-2.965,-0.961 -5.737,-4.418 -5.714,-4.373l-0.072,9.542c-0.058,1.549 0.019,3.099 0.228,4.625l0.001,0Z" style="fill:#3f3f3f;fill-rule:nonzero;"/><path id="path3054-4-0-3" d="M23.691,19.125l0,211.199l131.2,0l0,-211.199l-131.2,-0Zm2.096,1.703l54.055,-0l-0.181,13.539c-0,-0 -0.072,0.347 -0.175,0.469c1.055,0.618 1.25,9.039 0.862,11.86c0.178,0.87 0.115,2.487 0.115,2.487c-3.254,4.482 -4.977,8.736 -6.426,13.946c-0.56,0.223 -1.385,0.685 -1.969,0.843l-0.166,0.71c1.277,-0.705 4.897,-1.856 4.897,-1.856c16.127,7.906 27.976,5.971 40.66,0.097c-1.706,7.913 1.814,18.335 12.663,18.316c0.351,-0.11 -2.341,-6.154 -2.99,-6.522c-3.495,-1.522 -4.933,-5.099 -4.56,-9.2l-0.58,-0.979c-1.191,4.983 1.676,10.043 5.612,11.279l1.058,2.323c-7.134,-2.152 -10.172,-8.87 -7.797,-15.512c-1.239,-5.543 -2.904,-6.279 -3.854,-7.764c-6.203,-2.38 -7.357,-8.158 -6.272,-12.828c0.121,-0.885 -2,-4.143 -1.946,-4.101c-2.127,4.633 -3.016,10.491 1.85,16.428c-3.148,4.194 -7.206,7.513 -11.743,10.347c-6.632,3.48 -11.607,1.134 -14.81,-6.572c-1.924,-4.627 -2.613,-9.24 -2.603,-14.071c0.011,-2.991 0.044,-3.081 1.158,-2.574c1.047,0.476 3.317,0.544 4.673,-0.159c0.79,-0.41 1.226,-0.539 1.31,-0.388c0.111,0.201 -0.41,0.902 -1.561,2.093c-0.548,0.565 -1.189,1.413 -1.189,1.413c-0,0 0.917,-0.132 2.144,-1.355c0.447,-0.446 1.275,-1.456 1.275,-1.456c0,-0 -0.211,1.169 -0.396,1.79c-0.07,0.238 -0.295,1.246 -0.501,2.237c-0.206,0.99 -0.488,2.153 -0.626,2.586c-0.545,1.718 -0.397,2.514 1.241,3.308c0.863,0.418 2.341,1.841 2.327,1.841c0,0 -0.352,-1.561 -0.222,-2.063c0.157,-0.604 0.871,-0.176 1.598,0.173c1.607,0.772 2.543,0.794 3.405,0.069c1.19,-0.999 0.849,-3.244 -0.622,-3.829c-1.08,-0.43 -1.267,-0.031 -0.19,0.724c1.616,1.134 -0.206,2.885 -1.579,1.799c-1.074,-0.85 -2.939,-0.944 -3.147,-0.237c-0.197,0.669 -0.4,0.548 -1.144,0.111c-1.155,-0.679 -1.163,-0.798 -0.195,-4.544c1.833,-7.094 1.652,-9.698 -0.777,-11.853c-1.799,-1.596 -4.77,-2.336 -7.852,-0.563l0,-2.416c4.524,-1.818 7.816,-4.911 10.469,-9.946l0.518,-0c2.643,5.754 6.915,9.971 14.95,13.002c0.699,0.393 -1.276,-4.507 -1.707,-4.011c-4.263,-1.661 -8.065,-4.965 -10.157,-8.991l1.162,-0c1.225,1.78 3.707,5.112 8.126,7.355c0.205,-1.061 -2.841,-5.867 -3.526,-7.355l37.037,-0c-1.175,9.072 -2.83,18.778 3.683,36.446c-3.055,-1.613 -15.303,1.824 -13.147,2.503c1.082,-1.257 8.887,-3.111 14.662,-1.74c-0.477,-0.415 -8.807,-19.894 -3.962,-37.209l14.105,-0l-0,82.11c-0.052,-0.472 -1.192,-0.976 -1.083,-1.282c0.107,-0.763 -0.011,-2.19 -0.542,-2.79c-0.223,-0.252 -0.588,-0.649 -0.732,-0.939c-0.363,-0.726 -0.96,-1.48 -1.438,-1.682c-0.237,-0.101 -0.511,-0.157 -0.547,-0.322c-0.033,-0.154 -0.112,-0.66 -0.214,-1.126c-0.253,-1.167 -0.479,-1.131 0.259,-2.292c2.734,-4.726 4.254,-8.808 2.699,-14.228c-2.473,2.491 -4.264,5.571 -5.946,7.846c-0.375,-3.251 -0.321,-5.704 -0.375,-8.309c1.32,-0.379 2.12,-1.086 2.688,-2.894c0,0 1.415,1.114 2.282,0.955l-0.571,-2.1c3.786,-1.168 4.304,-6.137 -0.167,-7.187l0.403,-2.616c-0.72,0.299 -2.203,0.785 -2.203,0.785c-2.246,-4.349 -6.153,-2.603 -7.066,0.206l-1.745,-0.747c0.189,0.89 0.415,1.793 0.255,2.683c-3.664,1.641 -2.759,6.131 0.166,6.719l-0.256,2.097l2.201,-0.714c0.321,0.985 0.157,1.555 1.916,2.664c-0.044,4.396 -0.114,7.145 0.023,11.05c-2.292,-2.361 -4.505,-4 -8.384,-5.204c0,0 -0.035,0.946 0.19,2.384c0.074,0.474 0.06,0.405 -0.162,0.404c-0.504,-0.012 -2.876,-3.818 -2.876,-3.818c-3.905,8.24 -10.018,21.518 -17.969,29.376c-4.326,4.275 -6.517,8.968 -7.638,13.006c-0,-0 -1.654,0.027 -3.137,-0.321c1.951,-9.316 6.356,-28.262 6.356,-28.262c0,-0 3.097,-0.885 4.909,-1.08l-0.019,-0.733l-4.264,0.997l0.204,-1.623l4.025,-0.795l-0.011,-0.385l-4.26,0.574l0.695,-2.702c-0,-0 -9.562,1.411 -12.987,1.308c0.217,10.511 -0.608,19.243 -0.165,30.57l-4.674,-2.848c-0.416,-7.886 -0.54,-27.808 -0.54,-27.808l-12.908,-2.038l0.429,3.129c-10.701,-4.265 -21.436,-8.19 -29.34,-16.528c4.865,-3.756 12.988,-7.48 12.988,-7.48l-0.268,-0.598c-19.968,10.352 -27.212,17.545 -37.245,26.468l0.001,-73.88Zm54.845,-0l1.626,-0c-0.357,0.738 -0.878,1.377 -1.672,1.832l0.046,-1.832Zm2.797,-0l1.748,-0c-1.363,2.181 -2.811,3.588 -4.56,4.622l0.031,-1.709c1.011,-0.891 1.977,-1.898 2.781,-2.913Zm2.892,-0l1.614,-0c-2.191,3.385 -4.439,5.742 -7.318,7.18l0,-1.383c1.779,-1.39 4.299,-3.519 5.704,-5.797Zm2.464,-0l1.305,-0c-2.244,4.3 -5.374,7.354 -9.473,9.005l0,-1.033c4.49,-2.406 6.454,-5.176 8.168,-7.972Zm3.568,-0l1.567,-0c2.152,4.299 6.622,8.451 11.529,10.234l0.749,1.743c-6.469,-2.336 -10.754,-5.828 -13.845,-11.977Zm4.538,-0l1.12,-0c1.177,1.65 2.603,3.075 4.27,4.19l1.017,1.976c-2.25,-1.522 -4.762,-3.455 -6.407,-6.166Zm2.043,-0l1.25,-0l1.657,2.927c-1.104,-0.624 -1.939,-1.976 -2.907,-2.927Zm-1.437,11.246c-1.715,-0.008 -3.276,0.468 -4.406,1.395c-1.194,0.978 -0.315,2.045 1.402,1.243c2.925,-1.366 6.285,-0.751 9.913,1.246c3.054,1.682 1.984,-0.07 -0.865,-1.941c-1.954,-1.299 -4.099,-1.934 -6.044,-1.943Zm-13.794,2.203c2.461,0.02 5.28,1.116 5.349,2.567c-1.632,-1.372 -4.912,-2.039 -8.059,-0.629c-0.241,-0.051 -0.276,-0.913 -0.133,-1.228c0.678,-0.503 1.724,-0.719 2.843,-0.71Zm14.902,0.936c-1.556,-0 -2.979,0.409 -3.637,1.289c-0.336,0.417 -0.425,0.462 -0.796,0.4c-0.724,-0.121 -0.683,0.3 0.143,1.453c0.401,0.559 0.335,1.195 -0.2,1.953c-0.615,0.871 -0.49,0.893 1.336,1.787c0.656,0.322 1.253,0.706 1.832,1.107c1.042,0.707 1.759,1.39 2.959,1.691c-0.554,-0.707 -1.69,-1.502 -2.652,-2.306c-0.97,-0.635 -1.649,-1.399 -1.649,-1.399c-0,0 1.145,0.276 1.545,0.375c1.338,0.291 2.661,0.453 3.784,0.225c0.806,-0.162 1.855,-0.699 2.718,-1.449c0.22,-0.102 0.439,0.007 0.974,0.028c2.046,0.08 1.593,-0.525 -1.345,-2.137c-2.907,-1.595 -5.187,-1.885 -7.047,-1.009c-0.787,0.37 -1.238,0.463 -1.124,0.229c0.12,-0.244 0.338,-0.529 0.692,-0.735c3.006,-1.809 5.421,-0.309 8.071,1.049c1.137,0.682 1.578,0.641 1.578,0.641c-1.917,-1.98 -4.605,-3.168 -7.182,-3.192Zm-13.635,0.844c1.508,0.034 2.797,0.602 4.026,1.25c0.508,0.201 0.28,0.786 -0.184,0.601c-2.776,-1.253 -3.334,-1.864 -6.642,-0.704c-1.093,0.384 -1.526,0.044 -0.184,-0.534c1.096,-0.462 2.079,-0.634 2.984,-0.613Zm2.123,2.724c-0.752,3.841 -4.553,2.658 -4.124,0.021l0.699,0.003c0.054,2.319 2.366,2.304 2.761,0.023l0.664,-0.047Zm22.108,0.009l1.024,2.201c-2.239,5.545 0.8,13.013 7.41,14.802c-0.156,0.056 0.879,1.715 0.858,1.856c-12.409,-2.762 -11.455,-14.659 -9.292,-18.859Zm-11.754,0.144l0.348,0.019c1.071,2.677 2.628,1.138 2.931,0.008l0.791,0.02c-0.241,2.773 -4.423,3.243 -4.07,-0.047l0,0Zm-9.565,0.078c0.502,-0.059 0.673,0.698 0.532,0.838c-0.038,0.038 -0.957,0.936 -1.069,0.408c-0.165,-0.773 0.328,-1.208 0.537,-1.246Zm-5.789,0.076c0.043,0.001 0.085,0.003 0.131,0.009c0.312,0.239 0.43,0.952 0.266,1.32c-0.184,0.192 -0.929,-0.07 -1.074,-0.357c-0.221,-0.42 0.04,-0.974 0.677,-0.97l0,-0.002Zm20.126,0.258c0.245,0.009 0.919,0.302 0.854,0.629c-0.017,0.082 -0.954,0.777 -1.166,0.664c-0.407,-0.218 0.156,-1.217 0.236,-1.279c0.013,-0.011 0.042,-0.016 0.076,-0.014l0,-0Zm-5.482,0.12c0.008,-0.001 0.012,-0.001 0.015,0c0.072,0.054 0.671,0.428 0.162,1.121c-0.036,0.048 -0.715,-0.194 -0.726,-0.274c-0.056,-0.404 0.456,-0.818 0.549,-0.847l-0,0Zm15.036,4.863c-0.151,3.187 0.675,6.281 4.136,8.267l-0.744,-1.366c-0.887,-0.711 -2.747,-2.739 -2.515,-5.154l-0.877,-1.747Zm-31.079,5.697l0.39,2.097c-1.905,3.183 -3.35,6.31 -4.548,9.965l-1.8,0.66c1.429,-4.61 2.749,-8.262 5.958,-12.722Zm0.758,3.265l0.509,1.802c-0.935,1.733 -1.934,3.691 -2.537,5.969l-1.989,0.738c0.895,-3.019 2.204,-5.951 4.017,-8.509Zm6.306,0.747c-0.03,0 -0.059,0.002 -0.09,0.01c-0.021,0.356 -0.015,1.339 0.059,2.957c0.014,0.307 0.313,0.177 1.158,-0.257c0.737,-0.379 0.66,-0.439 1.374,-0.199c1.978,0.681 2.877,0.386 3.649,0.186c1.179,-0.306 1.66,-0.182 2.344,0.23c0.377,0.227 0.892,0.395 0.994,0.432c0.542,0.199 0.335,-0.042 -0.036,-1.515c-0.416,-1.656 -0.237,-1.839 -0.897,-1.408c-0.145,0.095 -0.565,0.329 -0.793,0.356c-0.576,0.068 -1.536,-0.641 -2.109,-0.416c-1.387,0.546 -1.375,0.402 -2.663,0.084c-0.644,-0.159 -1.261,0.236 -1.82,0.347c-0.32,0.04 -0.725,-0.81 -1.17,-0.807l0,0Zm23.603,0.858c2.344,2.162 4.753,2.901 7.367,3.72c-0.315,1.075 -0.945,2.284 -1.239,3.69c-13.605,7.232 -27.277,7.005 -40.173,0.439l6.692,-2.572c3.656,6.369 8.344,8.069 13.613,5.986c5.888,-2.755 10.248,-6.587 13.74,-11.263Zm-29.072,1.273l0.58,1.562l-0.861,2.353l-1.642,0.668c0.314,-1.603 0.921,-2.921 1.923,-4.583Zm12.296,1.81c-0.407,0.02 -1.022,0.295 -2.424,0.303c-0.76,0.004 -1.355,-0.064 -1.65,-0.004c-0.611,0.124 0.103,0.4 1.472,0.793c1.368,0.392 3.039,-0.199 3.247,-0.796c0.05,-0.146 -0.129,-0.321 -0.645,-0.296l0,0Zm-11.334,0.769l0.359,0.792l-0.613,0.222l0.254,-1.014Zm36.173,0.447l1.016,2.326c-1.76,3.83 -2.929,14.327 8.819,17.593l0.514,1.504c-7.996,0.157 -16.008,-10.065 -10.349,-21.423Zm-26.901,0.792c-1.148,-0.012 -2.35,0.275 -3.124,0.893c-0.7,0.557 0.155,0.909 1.065,0.463c1.179,-0.577 3.147,-0.53 4.302,0.197c0.884,0.606 1.345,0.499 0.754,-0.423c-0.464,-0.724 -1.696,-1.117 -2.997,-1.13Zm51.072,2.67c2.264,-0.009 4.807,2.645 2.487,5.173c7.439,-3.158 7.607,6.428 0.995,5.158c0.349,4.118 -2.582,4.507 -2.6,4.507c0.168,3.475 0.585,10.583 0.585,10.583c0,0 2.935,-6.264 6.055,-8.419c1.006,5.014 -1.719,10.416 -3.758,13.444c-1.264,1.822 -4.255,0.867 -3.984,2.098c0.059,0.272 0.544,0.76 1.03,1.223c0.311,0.296 0.632,0.483 1.359,0.459c1.277,-0.043 1.775,-0.304 1.013,0.812c-0.604,0.883 -2.725,1.066 -2.964,1.526c-0.556,1.068 -0.175,0.832 -1.126,1.77c-0.727,0.802 -0.475,0.393 -0.144,1.053c0.52,0.85 0.304,2.55 -0.212,3.694c-0.42,0.932 -0.373,1.596 -0.373,1.596c0.008,0.078 1.182,-1.218 1.536,-2.716c0.295,-1.246 0.64,-1.87 0.637,-1.173c-0,0.88 0.149,2.076 0.939,2.532c0.624,0.361 0.714,0.722 0.61,1.166c-0.107,0.459 0.38,0.864 0.861,1.247c0.113,0.114 0.492,0.262 0.452,0.505c-0.129,0.765 0.181,1.666 0.736,1.813c0.247,0.123 1.823,-0.012 2.083,-0.904c-0.026,-0.284 -0,-1.455 -0.63,-1.522c-0.443,-0.205 -0.397,-0.328 0.274,-0.731c1.004,-0.602 1.733,-1.034 2.229,-1.127c0.664,-0.09 1.301,-0.815 1.301,-0.815l0.128,48.12c-5.955,6.129 -12.483,12.229 -21.09,18.225c-5.002,-4.192 -10.467,-8.435 -16.269,-11.612l-2.004,-1.192l0.718,-0.924l-3.479,-4.615l3.916,-3.168l0.991,1.262l-1.852,1.809l2.779,3.092l6.25,-6.128l-4.117,-3.962l2.143,-4.035l1.37,0.676l-1.034,2.56l3.131,1.991l3.92,-7.83l-4.971,-2.275l1.26,-5.259l1.533,0.163l-0.509,3.787l3.873,0.773l1.576,-8.929l-5.686,-1.021l0.484,-5.092l1.586,0.02l-0.231,2.816l4.016,0.575l0.758,-7.783l-5.574,-0.929l0.719,-6.007l1.275,0.182l-0.247,3.705l4.089,0.702c0.449,-2.513 0.816,-5.668 1.483,-8.132l-5.268,-1.972l1.866,-5.045l1.184,0.415l-1.034,2.734l3.889,1.662l3.278,-6.504l-4.579,-3.26c1.026,-1.712 2.05,-3.339 3.517,-4.726l0.9,0.788l-1.564,2.522l3.129,2.321l1.967,-2.36c0.656,0.345 1.779,1.269 1.779,1.269l0.129,-0.478c-1.575,-0.893 -8.308,-5.899 -8.291,-9.84c4.025,0.761 6.076,3.1 8.842,5.797c-0.241,-4.248 -0.584,-8.563 -0.398,-12.863c-1.581,-1.102 -2.182,-2.524 -2.005,-4.317c-5.214,1.034 -6.454,-5.998 -0.273,-6.011c-0.361,-3.391 1.058,-4.643 2.606,-4.649l0,-0Zm-93.807,13.887c8.121,6.876 13.304,11.501 29.833,16.679l0.409,2.463c-9.504,-2.206 -19.873,-6.674 -32.199,-17.78l1.957,-1.362Zm-2.444,1.587c5.142,4.828 10.414,8.506 15.749,11.59l1.873,1.133l-0.965,0.995l3.138,4.551l-4.039,3.314l-0.961,-0.964l2.107,-2.078l-3,-2.967l-6.112,6.222l4.189,3.736l-2.429,3.756l-0.88,-0.4l1.29,-2.618l-3.893,-2.136l-4.353,8.043l5.542,2.537l-1.251,4.936l-1.293,-0.066l0.435,-3.868l-4.165,-0.742l-1.403,9.037l5.361,0.847l-0.128,5.204l-1.429,-0.024l0.1,-2.939l-4.232,-0.198l-0.378,7.584l5.209,0.68l-0.518,6.156l-1.282,-0.33l0.143,-3.996l-3.97,-0.392l-1.367,8.496l5.356,1.539l-1.892,5.296l-1.162,-0.64l0.76,-2.734c-0.976,-0.428 -3.722,-1.577 -3.722,-1.577l-3.498,6.599l4.537,3.106l-2.983,5.723l-0.951,-1.01l1.991,-3.384l-3.768,-2.381l-2.006,2.835c-0.911,-0.796 -2.691,-1.788 -3.316,-2.528c-0.668,-0.611 -1.176,-0.705 -2.035,-0.501c-0.678,0.161 -1.331,0.284 -1.182,0.043c0.074,-0.119 1.361,-0.991 3.329,-2.246c0.55,-0.351 0.983,-0.656 0.977,-0.97c-0.009,-0.234 0.298,-0.605 0.696,-0.846c0.439,-0.267 0.34,-0.517 0.269,-0.794c-0.38,-1.484 -0.14,-3.797 0.603,-5.355c0.497,-1.042 0.653,-1.23 0.328,-1.231c-0.957,0.123 -2.125,3.612 -2.348,4.595c-0.075,-0.078 -0.179,-0.998 -0.247,-1.352c-0.123,-0.639 -0.212,-1.036 -0.723,-1.158c-0.61,-0.146 -0.416,-0.439 -0.478,-0.901c-0.101,-0.748 -0.452,-1.222 -1.089,-1.487c-0.613,-0.255 -0.68,-0.358 -0.653,-0.971c-0,-0.482 -0.501,-1.297 -0.873,-1.557l-2.123,0.753c-0.167,0.564 0.054,1.296 0.405,1.562c1.067,1.01 -0.495,1.023 -1.564,1.681c-0.289,0.188 -0.634,0.598 -0.868,0.463c-2.325,-0.812 -0.694,-36.693 -1.132,-47.385c5.691,-5.926 22.274,-18.286 22.274,-18.286Zm86.016,8.657l0.82,0.913c-5.763,6.555 -9.339,14.187 -10.424,21.551c-1.225,6.6 -1.038,13.224 -2.132,19.555c-1.114,9.186 -3.68,14.074 -9.256,19.286c-2.451,2.291 -10.076,6.617 -10.284,6.575l-1.807,-0.45c15.635,-8.049 19.543,-13.601 21.235,-32.655c0.331,-23.905 11.143,-33.165 11.848,-34.775Zm1.536,1.601l0.008,-0l0.837,0.811l-4.564,6.482l4.499,3.189l-1.784,4.191l-1.363,-0.51l0.968,-2.858l-3.784,-1.604l-3.058,8.327l5.391,1.709l-0.888,5.426l-1.089,-0.296l-0,-3.697l-4.001,-0.82l-1.162,9.302l5.893,0.823l-0.433,4.801l-1.395,-0.097l-0.053,-2.858l-4.09,-0.218l-0.934,8.062l5.804,0.991l-1.05,5.728l-1.236,-0.296l0.278,-3.778l-3.892,-0.517l-2.251,7.737l4.888,2.478l-2.406,4.959l-1.032,-0.723l1.334,-2.931l-3.804,-1.889l-3.673,6.402l3.985,3.941l-3.892,4.101l-0.87,-1.118l2.009,-2.175l-3,-2.986l-6.241,4.991l3.186,4.22l-0.375,0.532l-3.29,-1.327l-1.576,-2.094l-1.884,0.832l-1.487,-0.572c9.217,-4.86 15.214,-10.496 17.691,-18.995c1.359,-4.699 1.764,-9.827 2.205,-14.995c0.646,-6.912 1.377,-14.482 3.714,-20.176c2.12,-5.067 4.697,-8.638 7.871,-12.505l-0.004,-0Zm-49.598,3.203l6.329,3.357l-0.093,2.229l-5.851,-2.948l-0.385,-2.638Zm1.779,0.063l4.511,0.622l0.019,1.828l-4.53,-2.45Zm-20.331,0.058l2.633,1.193l2.232,2.589l1.673,-1.102l1.814,0.683c-5.735,2.964 -10.823,6.511 -14.786,12.63c-4.416,6.818 -4.907,15.747 -5.472,24.363c-1.674,14.855 -4.646,22.415 -11.059,30.276l-0.746,-0.858l4.062,-7.056l-4.781,-3.106l2.178,-4.005l1.101,0.381l-0.854,2.388l3.956,2.097l3.031,-8.535l-5.577,-1.749l0.934,-5.34l1.403,0.125l-0.371,3.825l3.984,0.633l1.144,-9.026l-5.371,-0.827l0.119,-4.769l1.317,0.128l-0.009,2.901l4.236,0.229l0.33,-8.234l-5.268,-0.586l0.649,-5.814l1.474,0.152l-0.339,3.487l4.055,0.583l1.923,-7.527l-5.268,-2.392l2.843,-5.083l1.279,0.589l-1.307,2.816l3.654,1.791l3.831,-5.888l-4.071,-3.93l3.997,-4.207l0.982,0.968l-2.17,2.509l3.007,2.796l5.955,-5.025l-2.908,-4.397l0.561,-0.676Zm37.879,0.28l-0.185,2.109l-6.345,3.623l-0,-2.067l6.53,-3.665Zm34.053,0.074l1.302,0.902l-0.915,1.183l-1.224,-0.777l0.837,-1.308Zm-36.721,0.298l-3.8,2.206l-0,-2.194l3.8,-0.012Zm44.7,2.041c0.368,-0.03 0.651,0.068 0.78,0.209c0.252,0.274 0.131,0.852 -0.251,1.121c-0.563,0.396 -2.104,0.37 -2.256,-0.038c-0.179,-0.479 0.589,-1.007 1.334,-1.215c0.139,-0.042 0.271,-0.067 0.393,-0.077l0,0Zm-60.537,0.888l5.452,2.96l-0.019,2.085l-5.247,-2.901l-0.186,-2.144Zm17.763,0.066l-0.32,2.719l-5.615,2.993l-0.046,-2.357l5.981,-3.355Zm-27.178,0.05l2.236,0.572c-8.277,3.714 -16.459,9.099 -19.641,18.497c-0.994,2.812 -1.664,5.943 -2.1,9.95c-0.205,4.227 -0.487,8.411 -0.946,11.911c-0.946,7.213 -2.301,16.58 -11.254,27.404l-0.672,-0.82c13.545,-15.008 10.32,-35.49 13.424,-46.89c3.02,-9.489 7.513,-14.762 18.953,-20.624Zm72.182,1.863c0.09,0 0.187,0.009 0.294,0.025c0.944,0.145 0.737,1.908 -0.686,3.076c-0.791,0.65 -1.158,0.558 -1.742,0.038c-0.172,-0.232 -0.669,-0.396 -1.034,-0.352c-0.869,-0.003 0.857,-1.79 2.374,-2.556c0.303,-0.153 0.522,-0.23 0.794,-0.231l-0,0Zm-62.126,1.52l4.862,2.508l0.046,2.067l-4.498,-2.454l-0.41,-2.121Zm16.482,0.279l-0.263,2.272l-5.063,2.65l0.028,-2.094l5.298,-2.828Zm47.375,0.848c0.169,-0.016 0.299,0.049 0.421,0.185c0.691,0.773 -0.621,3.116 -2.108,3.818c-0.571,0.27 -0.923,0.225 -1.398,-0.186c-0.231,-0.201 -0.572,-0.463 -0.768,-0.443c-0.852,0.088 -0.382,-0.871 0.304,-0.927c0.19,-0.016 1.381,-0.913 2.283,-1.667c0.604,-0.505 0.986,-0.754 1.266,-0.78Zm-5.144,0.913c1.075,-0.026 1.466,0.872 0.193,1.265c-0.906,0.28 -1.412,0.081 -1.41,-0.532c0.191,-0.629 0.739,-0.702 1.217,-0.733Zm-58.045,1.215l4.314,2.175l0.019,2.229l-3.963,-2.078l-0.37,-2.326Zm15.435,0.307l-0.301,2.109l-4.646,2.4l0.013,-1.745l4.934,-2.764Zm48.693,0.885c0.294,0.018 0.381,0.347 0.378,0.932c0,0.967 -0.642,1.862 -1.599,2.299c-0.701,0.32 -1.194,0.295 -1.544,-0.082c-0.159,-0.171 -0.38,-0.31 -0.494,-0.314c-1.501,-0.06 -1.26,-0.449 0.177,-1.053c0.505,-0.212 1.499,-0.903 1.97,-1.241c0.529,-0.381 0.884,-0.555 1.112,-0.541Zm-5.507,0.688c0.736,0.003 1.384,0.525 0.977,0.862c-0.317,0.262 -1.504,0.389 -1.738,0.152c-0.445,-0.451 -0.049,-1.018 0.761,-1.014Zm-57.906,1.498l3.675,1.993l-0.019,2.121l-3.509,-1.997l-0.147,-2.117Zm14.103,0.164l-0.085,2.17l-4.222,2.094l-0.026,-2.07l4.333,-2.194Zm45.412,0.9c0.714,0.052 0.625,0.748 0.047,1.085c-0.431,0.301 -0.989,0.142 -1.217,-0.21c-0.513,-0.981 0.653,-0.863 1.17,-0.875l0,0Zm0.832,2.04c0.262,-0.023 0.505,0.027 0.593,0.187c0.176,0.319 0.062,0.671 -0.172,0.807c-0.313,0.132 -1.126,-0.006 -1.251,-0.244c-0.103,-0.196 -0.08,-0.3 0.119,-0.499c0.166,-0.132 0.449,-0.228 0.711,-0.251Zm-59.815,0.229l3.14,1.724l-0.019,2.083l-2.885,-1.686l-0.236,-2.121Zm13.056,0.055l-0.154,2.003l-3.652,1.822l0.049,-1.954l3.757,-1.871Zm-38.246,1.262c0.783,0.009 1.387,0.533 0.927,1.429c-1.209,1.398 -2.058,1.913 -3.321,2.811c-1.123,0.781 -0.733,-0.849 0.668,-3.254c0.401,-0.689 1.117,-0.993 1.726,-0.986Zm37.968,1.786l-0.288,2.205l-3.268,1.679l-0,-2.125l3.556,-1.759Zm-12.283,0.205l2.641,1.317l0.038,2.149l-2.397,-1.267l-0.282,-2.199Zm31.754,0.213c0.091,0.012 0.179,0.05 0.258,0.115c-0.046,1.006 -0.152,1.644 -0.203,2.506c-0.147,0.329 -0.918,-1.582 -0.835,-2.096c0.201,-0.367 0.507,-0.561 0.78,-0.525Zm-55.55,0.355c1.068,-0.02 1.84,0.713 1.479,1.801c-0.417,1.051 -2.828,1.711 -3.916,2.435c-0.711,0.355 -0.884,-0.029 -0.665,-0.648c0.102,-0.286 0.181,-0.51 -0.362,-0.591c-1.317,-0.195 -0.515,-0.838 1.9,-2.465c0.529,-0.357 1.078,-0.523 1.564,-0.532Zm52.975,0.687c0.379,-0.003 0.847,0.219 1.329,0.745c0.83,0.906 1.429,2.814 0.977,3.31c-0.347,-0.039 -0.519,0.475 -0.537,0.683c-0.052,0.601 -1.143,-0.495 -2.175,-2.225c-0.831,-1.393 -0.427,-2.503 0.406,-2.513Zm-44.491,0.322c3.256,-0.022 9.474,0.655 18.081,6.071c1.097,0.692 2.196,1.455 3.437,2.07c3.265,1.771 5.959,2.971 10.168,3.76l-0.12,2.189c0.693,2.452 0.877,5.935 1.32,7.609l0.989,2.034c0,0 -5.166,-0.044 -7.514,-0.508c-3.784,-0.619 -10.688,-3.844 -14.026,-6.381c-3.467,-2.557 -8.704,-4.682 -13.193,-5.506l-0.061,-1.884c-0,-0 -0.446,-6.45 -0.804,-7.333l-0.825,-2.039c0.202,0.082 1.068,-0.072 2.548,-0.082Zm27.167,1.414l-0.25,2.163l-2.867,1.352l0,-1.853l3.117,-1.662Zm14.493,0.085c1.114,0.075 2.921,2.153 3.789,3.891c0.042,0.236 -0.103,0.372 -0.332,0.343c-0.547,-0.099 -0.748,-0.297 -0.901,0.385c-0.038,0.169 0.06,0.474 -0.126,0.419c-0.973,-0.287 -3.756,-3.11 -3.585,-4.012c0.129,-0.678 0.472,-0.92 0.943,-1.014c0.068,-0.014 0.138,-0.017 0.212,-0.012l0,0Zm-25.73,0.156l2.089,1.118l0.093,2.133l-1.859,-0.804l-0.323,-2.447Zm-22.413,0.545c0.486,0.022 0.905,0.256 1.204,0.838c0.491,1.206 -0.379,1.932 -2.962,2.477c-2.244,0.537 -2.199,0.571 -1.885,-0.267c0.208,-0.556 -0.485,-0.618 -0.873,-0.766c-0.654,-0.249 -0.118,-0.326 1.766,-1.269c0.942,-0.501 1.94,-1.05 2.75,-1.013Zm-7.573,0.576c3.806,3.535 2.983,11.148 -1.982,13.116l0.24,-1.972c-0,-0 4.744,-3.151 1.25,-9.639c0.158,-0.503 0.324,-1.005 0.492,-1.505Zm53.377,1.333c1.288,0.005 4.902,3.305 3.362,3.423c-0.181,0.013 -0.119,0.249 -0.119,0.399c-0,0.15 -0.009,0.436 -0.05,0.544c-0.111,0.288 -0.533,0.231 -1.182,-0.156c-1.645,-0.979 -2.017,-1.291 -2.586,-1.832c-1.12,-1.066 -0.802,-2.383 0.575,-2.378l-0,0Zm-12.732,0.567l-0.024,1.78l-2.576,1.253l0.016,-1.607l2.584,-1.426Zm-32.158,1.31c1.413,0.24 2.054,1.734 0.491,2.558c-0.692,0.365 -2.971,0.11 -4.031,0.016c-1.197,-0.105 -0.491,-0.462 -0.426,-0.57c0.165,-0.272 0.292,-0.314 -0.332,-0.688c-0.496,-0.524 -0.779,-0.653 0.46,-0.815c1.319,-0.082 2.594,-0.545 3.838,-0.501l-0,-0Zm52.282,0.392c0.126,-0.004 0.114,0.21 0.062,0.761l-0.085,1.188c-0.79,0.126 -4.713,5.031 -1.526,10.735l-0.267,1.014c-0.122,0.501 -0.162,0.574 -0.575,0.264c-2.388,-1.66 -3.162,-10.11 1.785,-13.605c0.321,-0.214 0.505,-0.352 0.605,-0.357l0.001,-0Zm-9.312,0.99c0.461,0.009 1.026,0.139 1.673,0.435c1.506,0.69 2.507,1.247 2.741,1.615c0.144,0.228 -0.082,0.418 -0.386,0.506c-0.368,0.107 -0.413,0.261 -0.313,0.695c-0,0.252 0.062,0.53 -0.252,0.547c-0.581,0.031 -1.879,-0.38 -3.193,-1.091c-2.218,-1.2 -1.917,-2.736 -0.27,-2.707Zm-11.269,0.027l0,2.163l-2.115,-0.982l2.115,-1.181Zm-35.474,1.86c0.841,0.093 1.621,0.197 2.51,0.253c2.412,-0.042 3.416,1.656 1.422,2.504c-0.929,0.395 -2.409,-0.275 -4.203,-0.752c-0.717,-0.205 -0.964,-0.433 -0.49,-0.595c0.442,-0.152 0.48,-0.459 0.205,-0.866c-0.067,-0.408 0.062,-0.557 0.556,-0.544Zm56.046,0c-0.341,3.35 -0.621,5.96 -1.124,9.239c-0.367,-0.145 -2.969,-6.323 1.124,-9.239Zm-10.15,1.605c0.785,0.014 2.111,0.317 3.399,0.826c1.127,0.417 1.268,0.529 0.49,0.863c-0.453,0.211 -0.426,0.433 -0.273,0.692c0.162,0.274 0.773,0.569 -0.019,0.601c-0.758,0.057 -2.749,-0.056 -3.356,-0.163c-1.818,-0.321 -2.313,-1.968 -0.823,-2.734c0.12,-0.061 0.321,-0.09 0.583,-0.085l-0.001,0Zm-46.699,0.847c0.168,-0.001 0.477,0.09 1.036,0.267c3.264,1.036 4.586,2.291 2.988,3.508c-0.464,0.353 -1.183,0.202 -2.541,-0.56c-1.389,-0.78 -2.085,-1.208 -2.344,-1.484c-0.257,-0.275 -0.117,-0.589 0.278,-0.563c0.542,0.036 0.46,-0.237 0.416,-0.695c-0.03,-0.321 -0.049,-0.473 0.167,-0.473Zm14.783,1.983l1.652,0.743l-1.876,0.936l0.224,-1.679Zm-16.212,0.38c0.066,-0.006 0.157,0.016 0.285,0.074c0.319,0.148 0.802,0.468 1.465,0.957c1.404,1.036 2.224,1.748 2.251,2.376c0.013,0.311 -0.214,0.712 -0.568,0.901c-0.849,0.453 -1.66,0.082 -3.495,-1.806c-0.593,-0.61 -0.989,-0.937 -1.17,-1.208c-0.21,-0.316 -0.055,-0.613 0.293,-0.485c1.303,0.592 0.479,-0.772 0.939,-0.809l0,-0Zm50.019,0.462c0.413,-0.001 0.831,0.008 1.274,0.025c0.815,-0.025 0.804,0.393 0.574,0.544c-0.381,0.343 -0.273,0.688 0.112,0.873c0.265,0.127 0.156,0.395 -0.163,0.579c-0.187,0.107 -0.472,0.223 -0.861,0.345c-2.255,0.709 -3.917,0.499 -4.352,-0.558c-0.431,-1.045 0.219,-1.629 2.166,-1.769c0.429,-0.026 0.837,-0.037 1.25,-0.039l0,0Zm-31.354,0.316l4.324,2.455l0.715,27.333c15.668,1.582 27.335,5.033 40.328,17.241c-4.195,2.282 -6.162,3.425 -10.237,5.619l-0.59,0.854c10.334,-4.855 25.989,-14.947 37.333,-26.102l-0,72.484l-53.99,-0c-0.012,-4.265 0.01,-8.531 0.031,-12.796c-0.641,-3.665 -0.128,-7.854 -0.729,-11.394l-0.233,-3.407c3.346,-3.914 5.155,-8.849 6.751,-13.891c-0,-0 1.61,-0.628 2.394,-0.906l0.271,-0.99c-1.557,0.799 -5.128,2.139 -5.128,2.139c-11.407,-6.491 -27.614,-6.75 -40.317,-0.085c-0.263,0.187 -0.5,0.19 -0.5,0.19c2.346,-6.264 -1.106,-15.741 -12.619,-17.736l0.135,0.648c12.235,1.386 15.106,14.389 10.396,20.43c0.231,0.429 0.444,0.829 0.647,1.118c0.806,-1.249 1.362,-2.665 1.9,-4.094c5.908,-3.378 13.316,-5.135 20.644,-5.157c6.883,-0.02 13.697,1.492 19.116,4.625c-1.842,1.03 -7.72,2.466 -7.72,2.466c-3.303,-3.728 -4.987,-7.455 -10.959,-5.549c-6.256,1.624 -11.889,7.068 -15.059,10.68c-3.178,-1.903 -4.899,-2.367 -7.717,-2.524c0.139,0.357 0.37,0.741 0.429,0.945c10.385,0.003 13.984,11.708 9.228,18.197c0.012,-0.051 0.387,0.757 0.387,0.757c2.977,-3.953 3.769,-11.461 -1.507,-16.738c3.9,-4.374 11.388,-11.374 17.864,-10.965c2.357,0.149 4.684,3.019 6.233,5.31c3.281,4.85 4.123,11.622 4.356,15.484c0.057,1.012 0.192,1.747 0.194,2.28c0.008,1.546 -0.29,1.361 -1.283,1.103c-1.247,-0.323 -2.957,-0.337 -4.22,0.05c-0.726,0.222 -1.151,0.321 -1.314,0.252c-0.294,-0.125 0.257,-0.788 1.418,-2.236c1.067,-1.328 0.973,-1.876 0.973,-1.876c-0,-0 -0.792,0.479 -1.383,1.394c-0.813,1.258 -1.226,1.707 -1.313,1.415c-0.104,-0.348 0.257,-1.75 0.958,-4.091c0.838,-2.797 0.753,-2.992 -1.529,-4.73c-0.898,-0.561 -1.695,-1.045 -2.157,-1.911c0,0 -0.136,0.995 0.168,1.592c0.376,0.739 -0.421,1.077 -1.823,0.314c-3.299,-1.838 -5.446,1.884 -2.502,3.496c0.695,0.381 1.082,0.069 0.545,-0.43c-1.812,-1.685 -0.552,-3.104 1.899,-1.612c1.417,0.862 1.956,0.586 2.43,-0.494c0.262,-0.44 2.462,1.144 2.46,1.759c-0,0.403 -0.257,1.695 -0.506,2.56c-0.705,2.441 -0.896,3.198 -1.201,4.78c-0.553,2.87 -0.539,4.34 0.053,5.601c1.328,2.826 4.67,4.158 7.569,3.021c0.421,-0.165 1.229,-0.302 1.228,-0.302l0.034,2.073c-5.716,2.177 -9.846,8.973 -9.658,9.205l-2.038,0.005c-2.706,-5.404 -7.469,-9.472 -13.521,-11.721c-0.126,0.025 0.641,2.628 1.653,3.596c2.875,1.469 6.679,4.075 8.778,8.12l-1.445,0.024c-1.761,-2.7 -4.041,-4.523 -6.205,-6.113c0.161,-0.078 1.656,4.953 2.449,6.439l-37.267,0.653c2.543,-10.007 3.032,-21.11 -2.926,-35.665c4.94,0.305 9.322,-0.761 13.338,-2.524l-0.364,-1.038c-4.575,2.197 -9.595,2.629 -14.62,2.113c3.812,7.098 7.148,21.837 3.901,36.141l-14.121,-0l0,-79.057c-0.01,-0.013 0.423,1.266 0.956,1.947c0.43,0.433 0.72,1.081 0.842,1.55c0.156,0.6 0.322,0.635 1.174,1.277c0.409,0.308 0.645,0.579 0.645,0.738c-0.024,0.177 -0.029,0.725 0.247,1.061c0.751,0.913 0.619,1.5 0.054,2.09c-2.622,2.743 -4.266,8.508 -2.94,14.591c3.11,-2.106 6.314,-7.612 6.416,-7.621l0.3,7.519c-0.277,-0.061 -2.174,1.07 -2.197,2.548c-0.86,0.258 -1.909,-0.173 -2.781,-0.432l0.628,2.215c-3.191,1.28 -3.363,5.672 0.336,6.926c-0,-0 -0.337,1.717 -0.627,2.639l2.401,-0.369c1.396,4.191 6.752,2.85 6.726,-0.073c0,-0 1.63,0.615 2.249,0.889l-0.53,-2.88c3.275,-0.044 4.927,-5.972 0.144,-7.001c0.018,-0.798 0.31,-1.027 0.645,-1.958l-2.461,0.156c-0.451,-1.475 -2.104,-2.682 -2.166,-2.52l-0.339,-10.762c1.859,1.632 3.69,3.305 6.156,4.603c1.411,0.743 2.035,0.922 2.226,0.457c0.155,-1.324 -0.212,-2.421 -0.652,-3.765c0.724,0.128 3.162,3.467 3.361,5.027c8.896,-5.646 17.313,-12.768 17.313,-12.768l4.321,-0.75l-0.375,1.965l-3.923,0.742l-0.017,0.682l4.423,-0.911l-0.316,2.601c-0,-0 8.527,-1.546 12.841,-1.58c-0,0 0.104,-21.688 0.088,-24.052c-0.017,-2.554 -0,-5.608 -0,-5.608l0.003,0Zm-0.599,0.407l-0.019,1.629l-2.341,1.13l0.255,-1.652l2.105,-1.107Zm-19.892,0.509c0.205,0.012 0.542,0.331 1.031,0.933c2.258,2.781 2.561,3.317 1.822,4.055c-0.876,0.874 -2.104,0.028 -3.428,-2.409c-0.178,-0.328 -0.396,-0.748 -0.526,-0.901c-0.485,-0.571 -0.272,-0.75 0.343,-0.702c0.337,0.026 0.498,-0.093 0.506,-0.443c0.01,-0.368 0.092,-0.543 0.252,-0.533Zm53.891,1.414c1.017,0.071 0.571,0.398 0.401,0.614c-0.277,0.353 -0.372,0.564 0.224,0.832c0.099,0.048 0.318,0.32 0.119,0.438c-0.471,0.32 -2.574,1.284 -3.336,1.538c-1.479,0.494 -2.39,-0.718 -1.521,-1.922c0.364,-0.505 2.866,-1.588 4.113,-1.5Zm-56.167,0.219c0.474,0.003 0.978,1.211 1.094,1.385c1.5,2.25 1.688,3.301 0.699,3.958c-0.625,0.479 -1.958,-0.209 -2.263,-1.662c-0.233,-1.113 -0.34,-2.277 0.019,-3.201c0.137,-0.35 0.292,-0.481 0.45,-0.48l0.001,-0Zm22.156,0.454l0.012,1.759l-2.845,1.437l0.261,-1.938l2.572,-1.258Zm5.801,0.069l2.676,1.744l0.155,1.499l-2.767,-1.53l-0.064,-1.713Zm29.855,1.732c0.07,0.001 0.107,0.033 0.107,0.116c-0,0.207 -0.054,0.943 0.347,1.01c0.787,0.131 0.608,0.379 -0.081,0.976c-0.746,0.664 -1.427,1.452 -2.327,1.937c-2.321,0.862 -3.037,-1.581 -0.854,-2.885c0.908,-0.543 1.828,-0.966 2.808,-1.154Zm-29.782,0.906l3.1,1.836l0.109,1.849l-3.082,-1.577l-0.127,-2.108Zm-5.983,0.17l0.012,1.608l-3.028,1.744l0.252,-1.799l2.764,-1.553Zm37.301,1.425c0.2,-0.007 0.248,0.193 0.247,0.571c-0.049,1.093 -1.836,5.12 -3.259,3.056c-0.392,-0.768 0.008,-1.564 1.255,-2.513c0.99,-0.752 1.499,-1.105 1.757,-1.114Zm-60.431,0.217c0.245,0.359 0.619,0.817 0.788,1.034c-0.038,0.309 -0.527,0.443 -0.935,0.554c-0,0.045 0.036,-1.038 0.147,-1.588Zm23.169,0.928l-0.019,2.044l-3.59,1.965l0.385,-2.272l3.224,-1.737Zm5.94,0.288l3.556,1.908l0.418,2.255l-3.943,-2.054l-0.031,-2.109Zm-5.948,2.778l0,2.057l-4.034,2.082l0.273,-2.03l3.761,-2.109Zm6.017,0.178l3.977,2.276l0.522,2.144l-4.44,-2.307l-0.059,-2.113Zm-56.38,0.066c0.652,-0.009 0.885,0.689 0.393,1.134c-0.326,0.304 -1.248,0.243 -1.329,0c-0.416,-0.404 0.156,-1.124 0.936,-1.134Zm1.122,2.189c0.114,-0.009 0.232,-0.005 0.359,0.009c0.482,0.054 0.763,0.803 0.476,1.192c-0.531,0.718 -1.931,0.221 -1.726,-0.686c0.265,-0.343 0.551,-0.488 0.891,-0.515l0,0Zm49.172,0.678l0,1.84l-4.391,2.33l0.278,-2.059l4.113,-2.111Zm6.209,0.255l4.531,2.447l0.347,2.062l-4.87,-2.547l-0.008,-1.962Zm-57.439,0.055c0.219,-0.012 0.393,0.049 0.487,0.213c0.084,0.147 0.184,0.523 0.499,0.707c0.586,0.342 0.647,0.414 -0.468,0.905c-0.47,0.207 -1.392,0.838 -1.714,1.057c-0.987,0.667 -1.388,0.443 -1.46,-0.346c-0.091,-0.995 1.708,-2.483 2.656,-2.536Zm3.399,1.506c0.228,-0.013 0.451,0.031 0.61,0.137c0.377,0.25 0.397,0.752 0.034,1.005c-0.829,0.533 -2.126,-0.197 -1.436,-0.835c0.194,-0.179 0.498,-0.29 0.792,-0.307l-0,0Zm47.824,0.999l0.023,2.388l-4.897,2.599l0.324,-2.424l4.55,-2.563Zm-50.246,0.28c0.321,-0.019 0.628,0.056 0.896,0.255c0.29,0.372 0.639,0.482 0.842,0.49c0.84,0.032 0.572,0.342 -0.309,0.746c-1.215,0.558 -2.067,1.265 -2.942,2.081c-0.909,0.849 -0.975,1.031 -1.274,0.683c-1.111,-1.294 1.054,-4.157 2.787,-4.255Zm56.536,0.026l5.132,2.825l0.44,2.383l-5.572,-3.118l0,-2.09Zm-53.164,1.683c0.208,-0.005 0.403,0.044 0.557,0.17c0.364,0.3 0.153,0.877 -0.352,1.138c-0.43,0.221 -1.138,0.127 -1.341,-0.078c-0.484,-0.492 0.395,-1.213 1.136,-1.23Zm-2.479,1.199c0.312,-0.03 0.595,0.37 0.849,0.804c0.089,0.108 0.44,0.061 0.692,0.063c0.96,0.008 1.094,0.416 0.161,0.936c-0.272,0.152 -1.166,0.839 -1.764,1.351c-1.611,1.547 -2.485,1.184 -2.279,-0.4c0.197,-1.515 1.506,-2.673 2.341,-2.754l0,-0Zm55.643,0.148l5.662,3.123l0.552,2.567l-6.214,-3.368l0,-2.322Zm-6.248,0.047l-0.023,2.365l-5.329,2.835l0.413,-2.4l4.939,-2.8Zm6.333,3.01l6.341,3.86l0.232,2.513l-6.573,-3.806l0,-2.567Zm-6.337,0.419l0.012,2.319l-5.893,3.005l0.297,-2.19l5.584,-3.134Zm-47.839,1.534c0.151,-0.003 0.292,0.019 0.409,0.073c0.691,0.32 0.509,0.873 -0.529,1.442c-1.059,0.58 -1.421,0.479 -1.648,-0.172c-0.192,-0.548 0.955,-1.323 1.768,-1.343l0,-0Zm66.21,0.314c11.025,2.538 21.819,8.028 32.299,17.61l-2.19,1.556c0,0 -9.184,-10.532 -29.593,-16.707l-0.516,-2.459Zm-11.969,1.104l3.059,1.813l0.008,0.462l-3.065,-0.251l-0.002,-2.024Zm-52.106,0.019c0.232,0.013 0.436,0.148 1.529,0.672c4.389,3.187 6.148,5.109 7.238,8.602c0.653,2.094 0.64,2.008 -1.507,0.87c-2.019,-1.077 -4.786,-2.868 -6.572,-5.181c-0.296,5.443 0.337,12.21 0.337,12.21c2.741,1.359 1.854,4.897 1.846,4.876c7.056,-1.936 5.509,7.428 0.252,5.408c1.253,7.025 -6.745,6.454 -5.926,0.432c-6.366,-0.247 -5.24,-7.226 0.045,-6.262c-0.55,-2.153 0.208,-3.61 2.157,-4.535l-0.297,-9.196c-0,0 -5.19,7.489 -6.057,7.371c-0.509,-0.069 -1.273,-0.929 0.016,-7.496c0.672,-3.419 4.277,-7.582 6.295,-7.716c0.357,-0.024 0.505,-0.062 0.644,-0.055l0,0Zm5.075,0.069l0.93,0.642l-0.924,1.74l-1.137,-0.85l1.131,-1.532Zm40.598,0.451l-0.031,1.379l-2.857,0.17l2.888,-1.549Zm-30.302,15.636c-0.018,0.582 0.281,0.747 0.421,0.87c6.724,1.048 10.837,9.32 7.726,15.31c0.11,0.377 0.371,0.738 0.584,1.083c3.28,-4.676 0.839,-16.168 -8.731,-17.263Zm1.51,3.072c0.409,0.91 0.434,0.999 0.701,1.238c2.372,0.883 4.917,4.674 4.304,8.571c0.111,0.207 0.411,0.777 0.564,1.102c1.026,-3.052 -0.265,-9.071 -5.569,-10.911Zm52.48,12.285c-1.37,4.46 -3.141,8.852 -6.144,12.722l-0.371,-1.934c2.824,-4.36 4.163,-8.324 4.766,-10.062l1.749,-0.726Zm-2.664,1.157c0.176,0.283 -2.737,7.266 -4.175,8.536l-0.563,-1.802c1.172,-1.781 2.908,-6.077 2.857,-6.117l1.881,-0.617Zm-17.772,0.008c-0.091,0.009 -0.123,0.088 -0.124,0.263c0,0.641 0.663,1.147 1.873,1.423c1.636,0.373 3.928,-0.197 3.931,-0.976c-0,-0.45 -0.317,-0.481 -1.254,-0.045c-1.175,0.546 -2.213,0.438 -3.746,-0.378c-0.352,-0.187 -0.564,-0.297 -0.68,-0.287l-0,0Zm14.724,1.048c-0.454,1.692 -1.152,3.136 -2.014,4.428l-0.411,-1.021c0.597,-0.969 0.991,-2.077 1.495,-3.154l0.93,-0.253Zm-1.865,0.614c-0.221,0.589 -0.463,1.27 -0.969,1.795l-0.656,-1.399l1.625,-0.396Zm-10.421,1.298c-1.043,0.02 -2.141,0.377 -2.236,0.97c-0.046,0.284 0.38,0.175 2.442,-0.078c1.088,-0.133 1.607,0.515 2.604,0.447c0.508,-0.061 0.034,-0.532 -0.125,-0.669c-0.554,-0.474 -1.642,-0.69 -2.685,-0.67Zm-4.666,1.289c-0.111,0.023 0.013,0.307 0.428,1.033c0.225,0.393 0.281,1.193 0.324,1.688c-0.053,1.235 -0.05,1.196 0.556,0.482c0.382,-0.38 1.124,-0.296 2.299,0.024c0.757,0.206 0.938,0.28 1.464,-0.052c0.609,-0.384 0.752,-0.191 1.277,-0.085c0.506,0.102 0.966,-0.101 1.521,-0.256c0.678,-0.188 0.808,-0.144 1.398,0c0.902,0.43 0.771,0.391 0.846,-1.146c0.076,-1.513 -0.008,-1.619 -0.877,-1.109c-0.843,0.494 -1.423,0.716 -2.717,0.263c-1.411,-0.494 -1.61,-0.369 -2.611,-0.066c-1.209,0.366 -1.76,0.492 -2.723,-0.1c-0.634,-0.39 -1.059,-0.702 -1.185,-0.676l0,-0Zm-19.706,2.283l0.54,0.885c4.875,1.754 8.178,5.762 6.228,12.518l0.464,0.746c2.44,-6.807 -0.344,-12.434 -7.232,-14.149Zm1.509,2.882l0.664,1.371c3.669,1.783 3.45,6.69 3.244,6.497l0.576,1.279c0.917,-3.176 -0.755,-7.867 -4.484,-9.147Zm15.012,7.388c-0,-0 0.223,0.475 1.899,1.641c1.44,1.002 2.553,1.746 2.468,1.888c-0.057,0.096 -0.953,-0.123 -1.592,-0.314c-1.675,-0.501 -4.145,0.102 -5.53,1.083c-0.351,0.237 -0.937,-0.022 -1.445,-0.156c-0.203,-0.058 -0.651,-0.112 -0.872,-0.054c-1.048,0.276 -0.034,1.281 2.529,2.586c3.145,1.602 4.848,1.748 6.758,0.778c1.269,-0.66 1.725,-0.171 0.337,0.582c-4.996,1.604 -6.875,-1.042 -10.328,-2.55c3.267,3.918 9.424,4.994 11.783,2.492c0.124,-0.045 0.411,-0.024 0.549,-0.023c0.658,0.002 0.685,-0.207 0,-1.298c-0.413,-0.658 -1.249,-1.35 -0.232,-2.156c0.771,-0.61 0.715,-0.9 -0.217,-1.18c-0.245,-0.068 -0.22,0.094 -0.59,-0.205c-1.209,-0.981 -2.404,-1.832 -3.371,-2.406c-0.635,-0.371 -1.425,-0.641 -2.146,-0.708l-0,-0Zm1.281,3.518c0.94,0.026 1.885,0.753 2.181,2.061c0.026,0.117 0.05,0.237 0.066,0.362l-0.8,0.029c-0.664,-2.666 -2.662,-1.782 -2.861,-0.22l-0.722,-0.097c0.265,-1.487 1.197,-2.161 2.136,-2.135l0,-0Zm14.628,0.158c0.851,0.045 1.704,0.819 1.949,2.117l-0.533,0.079c-0.348,-0.982 -1.927,-2.3 -2.679,0.092l-0.672,-0.027c0.234,-1.621 1.083,-2.306 1.935,-2.261l-0,0Zm-12.207,0.644c0.207,-0.007 0.618,0.061 0.703,0.222c0.224,0.503 -0.403,0.879 -0.481,0.708c-0.134,-0.047 -0.299,-0.875 -0.222,-0.93Zm10.072,0.126c0.244,0.156 -0.171,0.827 -0.389,1.076c-0.212,0.229 -0.685,0.035 -0.883,-0.191c-0.173,-0.223 -0.026,-0.639 0.244,-0.816c0.379,-0.247 0.627,-0.323 1.028,-0.069Zm4.714,0.015c0.433,0.127 0.71,0.194 0.772,0.57c0,0.254 -0.287,0.529 -0.62,0.544c-0.147,0.007 -0.709,-0.407 -0.604,-0.999c0.082,-0.236 0.319,-0.154 0.452,-0.115Zm-19.945,0.031c0.151,-0.008 0.294,0.026 0.366,0.128c0.119,0.182 -0.103,0.727 -0.154,0.801c-0.027,0.038 -0.746,0.006 -0.73,-0.047c0.015,-0.054 -0.066,-0.464 0.109,-0.762c0.1,-0.063 0.258,-0.113 0.409,-0.12Zm13.412,1.887c0.067,0.004 0.22,0.037 0.36,0.125c2.011,1.316 4.598,1.902 6.461,0.962c0.416,-0.21 0.688,-0.198 0.687,0.005c0,0.222 -0.462,0.677 -1.321,0.936c-1.919,0.579 -5.086,-0.185 -6.181,-1.367c-0.322,-0.347 -0.192,-0.674 -0.009,-0.661l0.003,-0Zm-17.622,1.375c-0.192,-0.005 -0.254,0.11 -0.216,0.343c0.127,0.784 5.506,3.887 7.754,4.305c1.847,0.344 3.281,0.191 4.41,-0.468c2.743,-1.602 2.04,-3.77 -0.644,-2.137c-1.804,1.097 -6.373,0.592 -9.091,-0.986c-1.208,-0.702 -1.893,-1.048 -2.213,-1.057Zm17.81,0.334c0.16,0.003 0.36,0.063 0.57,0.187c2.222,1.206 3.875,1.22 5.201,0.836c1.353,-0.516 1.628,-0.603 1.772,-0.482c0.691,0.581 -0.442,1.487 -2.508,1.841c-1.652,0.273 -2.645,0.328 -4.532,-1.076c-1.095,-0.814 -0.981,-1.315 -0.503,-1.306Zm-17.134,4.267c4.709,1.756 10.007,5.843 12.377,10.794l-1.467,-0.012c-1.634,-2.866 -4.866,-6.505 -10.195,-9.064c-0.245,-0.755 -0.752,-1.384 -0.715,-1.718l-0,0Zm24.793,2.277l-0,1.569c-2.941,1.49 -5.406,3.784 -7.264,6.948l-1.665,-0.023c1.907,-3.395 4.764,-6.574 8.929,-8.494Zm-0,2.392l-0,1.927c-1.859,1.096 -3.412,2.541 -4.5,4.198l-1.968,0c1.578,-2.683 3.743,-4.823 6.468,-6.125Zm-21.63,1.573c1.427,0.881 3.638,2.971 4.46,4.592l-0.756,0.034c-0.772,-0.988 -2.005,-2.123 -3.009,-3.017c-0.376,-0.448 -0.588,-1.035 -0.695,-1.609l0,-0Zm21.63,1.143c0.023,-0 0.024,0.014 -0,0.045l-0,1.532c-0,0.04 -1.413,0.967 -2.013,1.832l-1.598,0c1.098,-1.997 3.382,-3.413 3.611,-3.409l-0,-0Zm-0,2.545l-0,0.864l-1.005,0.005c0.066,-0.098 0.623,-0.713 1.005,-0.869l-0,0Zm-19.595,0.216c0.301,0.159 0.533,0.728 0.533,0.728l-0.27,0.027l-0.263,-0.755Z" style="fill:#242424;fill-rule:nonzero;"/><path id="path3052-2-5-5" d="M37.568,193.808c3.309,0.091 10.293,-1.152 10.181,-1.026c0,0 21.669,36.207 20.787,35.849c-0.281,0.449 -27.758,0.432 -27.758,0.432c-0.595,0.008 5.83,-13.416 -3.21,-35.255Zm9.825,-25.507c10.558,-8.799 21.619,-8.864 33.495,-10.074l0.272,-29.901l4.299,2.587l0.091,27.397c15.677,1.181 29.203,6.955 40.823,17.062c0.145,0.22 -16.812,9.338 -24.238,11.75c-14.875,-7.751 -28.008,-5.756 -40.548,-0.126c2.398,-14.434 -8.81,-16.706 -12.753,-17.373c-0.494,-0.083 -1.083,-1.152 -1.441,-1.322Zm-13.553,4.667c0.185,-3.076 -0.014,-6.154 -0.243,-9.299c-0.06,-0.718 -6.174,9.356 -6.516,6.913c-0.856,-6.118 2.166,-13.896 6.911,-14.849c0.473,-0.644 9.874,5.208 9.444,10.265c-0.14,1.647 -8.386,-5.564 -8.42,-5.134c-0.194,0.843 0.243,12.129 0.498,12.106c2.375,1.344 1.858,3.069 2.117,4.5c6.364,-0.944 6.016,6.154 0.01,5.933c0.371,8.386 -7.373,4.597 -5.848,0.13c-7.799,-0.37 -3.958,-7.696 -0.074,-6.086c-0.235,-1.849 0.22,-3.777 2.121,-4.479l0,-0Zm9.348,-35.447l-17.038,-1.145l0.847,-39.643c9.714,-19.205 35.736,-8.91 35.752,-7.028c-14.593,9.252 -19.49,26.536 -19.561,47.816Zm29.457,-16.418l-0.493,-4.401c-1.27,-2.735 33.097,13.224 33.484,13.565l1,4.697c0.199,2.064 -21.859,-8.361 -33.991,-13.861Zm62.561,-7.81c-2.564,19.756 -2.42,39.632 -16.973,46.506c10.947,10.66 20.098,2.447 33.88,-4.463c0.374,-0.001 -0.458,-42.303 -0.69,-42.273c-5.46,0.29 -10.85,0.413 -16.217,0.23Zm-0.119,-28.252c-0.787,-1.015 5.97,1.809 8.649,5.753c-0.4,-0.457 -0.456,-13.939 -0.582,-13.403c-0.297,0.159 -2.382,-1.343 -1.839,-4.152c-5.978,1.328 -5.65,-6.481 -0.425,-6.162c-0.675,-7.105 7.957,-4.496 5.66,0.263c7.387,-1.368 6.112,6.969 0.529,5.613c0.474,3.162 -0.823,4.036 -2.637,4.667c0.116,1.325 0.611,10.167 0.611,10.167c-0,-0 5.461,-8.415 5.853,-7.689c1.926,1.83 -1.519,13.9 -6.063,14.249c-3.91,0.764 -10.663,-7.293 -9.756,-9.306Zm-17.609,-22.06c-2.464,8.54 4.288,18.298 10.668,18.271c1.283,-0.203 3.741,0.493 2.893,1.184c-10.065,8.198 -33.551,9.9 -33.557,9.545c0.246,10.063 -0.203,20.228 -0.442,30.289l-4.304,-2.606c-0.138,-9.178 -0.363,-18.565 -0.572,-27.741c-15.048,-1.974 -28.573,-6.854 -39.26,-17.234c7.096,-5.287 15.574,-8.59 23.718,-11.928c10.254,5.355 24.53,8.449 40.856,0.22Zm-8.462,-42.318c-0,-0 19.42,0.19 28.814,0.08c-3.159,13.04 -0.924,24.723 3.156,35.942c-1.082,-0.254 -8.263,0.332 -10.017,1.12c-0.282,0.284 -21.953,-37.142 -21.953,-37.142Z" style="fill:#bdbdbd;fill-rule:nonzero;"/><path id="path3050-3-4-7" d="M69.105,228.58l-21.139,-35.885l3.172,-1.385l21.793,37.322l-3.826,-0.052Zm-37.614,-47.977l3.054,-3.159l3.062,3.12l-3.202,2.99l-2.914,-2.951Zm67.821,-20.124l-0.43,-2.565c12.18,2.998 22.148,9.293 29.316,16.147l-1.707,1.256c0.532,-0.146 -17.302,-13.594 -27.179,-14.838Zm-34.984,-2.338l3.473,-0.752l-0.11,2.157l-3.369,0.675l0.006,-2.08Zm70.9,-1.893l-2.104,-1.705l1.514,-1.805l2.045,1.619l-1.455,1.891Zm-71.531,-17.388c8.216,-6.058 8.818,-13.222 8.797,-13.197l2.849,0.679l-6.581,27.506l-4.554,1.001c-0.023,-5.262 -0.513,-10.728 -0.511,-15.989Zm34.407,15.563c-1.773,-5.79 -5.263,-18.887 -5.263,-18.887c0.128,0.428 11.341,3.633 15.34,2.465c1.708,2.351 3.586,4.416 5.566,6.309c-4.152,4.084 -9.307,7.494 -15.643,10.113Zm47,-21.079l-1.975,-1.72l1.772,-2.182l2.169,1.662l-1.966,2.24Zm-25.805,-1.15c-1.609,-2.908 -1.721,-6.194 1.264,-9.436l-1.264,9.436Zm-61.392,-5.065c-0.057,-2.957 0.328,-5.774 1.026,-8.493c1.729,3.141 1.706,6.296 -1.026,8.493Zm45.159,-2.71c0,-0 4.343,-20.232 6.223,-28.16l4.797,-1.117l-0.214,16.385c-4.775,3.914 -8.126,13.24 -7.974,13.24l-2.832,-0.348Zm-69.787,-3.364l-2.096,-1.969l2.08,-2.022l1.778,2.043l-1.762,1.948Zm37.556,-7.887c-1.513,-2.218 -3.586,-4.491 -5.76,-6.775c3.569,-4.99 9.491,-7.879 15.767,-10.145l4.249,19.011c-4.803,-1.456 -9.982,-3.032 -14.256,-2.091Zm-29.435,-16.945l1.477,-1.847l1.934,1.531l-1.47,2.043l-1.941,-1.727Zm69.45,-5.56l2.993,-0.671l0.109,2.33l-3.585,0.666l0.483,-2.325Zm-60.481,-14.526l2.281,-1.428c8.012,7.232 16.859,12.22 26.508,15.058l0.323,2.695c-10.88,-3.373 -20.835,-8.056 -29.112,-16.325Zm93.606,-2.885l-2.967,-2.942l2.671,-2.987l3.173,2.757c-1.047,1.589 -2.877,3.172 -2.877,3.172Zm-16.438,-14.315l-22.207,-38.093l3.208,-0.027l21.853,36.693l-2.854,1.427Z" style="fill:#3f3f3f;fill-rule:nonzero;"/><path id="path3048-5-8-9" d="M105.127,20.202l-5.306,0.019l30.118,60.913c-9.202,-0.045 -14.579,-9.779 -12.261,-18.503c-18.647,8.487 -30.191,5.361 -40.957,-0.043l-4.592,1.772c0.305,-2.788 3.736,-13.261 8.867,-18.191l-0.008,-5.283l-0.124,-2.493l-0.406,-4.524c-7.633,7.228 -16.54,18.606 -17.655,34.763c-0,0 -6.952,3.589 -12.884,7.561c0.329,-0.045 9.241,10.96 30.651,17.139l-0.941,-3.511c3.183,0.899 7.708,1.609 12.209,2.183l0.604,27.578l5.113,3.045l0.173,-30.534c0.157,0.126 8.155,-0.284 12.462,-1.316l-0.606,2.943l4.255,-0.842l-0,2.147l-4.665,1.107l-6.641,28.541l3.868,0.867c1.132,-5.749 3.993,-10.4 8.137,-13.252l-0.043,-1.095c2.658,-1.918 8.182,-3.442 8.218,-3.407c1.884,-9.256 6.27,-15.669 10.932,-21.771l-2.22,-3.033l8.515,-3.142l-11.821,-20.222c4.548,-3.156 13.566,-1.981 13.566,-1.981c-3.865,-10.494 -7.262,-21.319 -3.444,-37.203l-32.879,0.028l-0.235,-0.26Zm31.91,0.575c-2.092,12.163 -1.398,24.01 3.452,35.268c0,-0 -0.707,0.041 -0.796,0.023c-0.066,-0.014 0.084,-0.608 0.047,-0.766c-0.096,-0.423 -0.794,-0.224 -1.379,0.172c-0.254,0.173 -0.549,0.369 -0.734,0.462c-0.601,0.301 -3.648,0.279 -3.648,0.279c0.995,-0.677 2.394,-2.582 1.582,-3.693c-0.184,-0.237 -0.296,-0.133 -0.475,0.186c-0.865,1.547 -1.295,1.79 -2.451,1.776c-1.815,-0.023 -3.114,-1.153 -2.967,-2.859c0.142,-1.657 2.568,-2.531 2.21,-0.924c-0.098,1.432 1.313,1.71 1.575,0.284c0.097,-0.535 0.02,-0.287 0.135,-0.913c2.825,-1.507 1.266,-4.578 -1.37,-3.935c-0.62,0.164 -0.698,0.223 -1.136,-0c-0.813,-0.421 -1.488,-0.289 -1.795,0.302c-0.27,0.522 0.141,0.937 0.745,0.939c0.626,0 0.747,0.308 0.746,0.685c-0,0.878 -1.511,1.3 -2.511,0.788c-2.637,-1.353 -1.661,-4.87 1.401,-4.858c0.931,-0 1.32,0.062 1.36,-0.14c0.111,-0.568 -1.309,-1.551 -2.112,-1.406c-0.68,0.133 -1.093,0.312 -0.734,-0.598c0.221,-0.939 0.214,-1.365 0.026,-2.071c-0.489,-1.008 -0.477,-0.491 -0.779,0.326c-1.009,1.682 -2.528,2.055 -3.838,1.135c-1.215,-0.854 -1.179,-2.475 -0.023,-3.632c0.802,-0.803 1.663,-0.256 1.181,0.641c-0.199,0.372 -0.042,0.832 0.317,0.925c0.724,0.185 1.175,-0.243 1.178,-1.126c-0.015,-0.487 -0.15,-0.596 0.721,-1.096c2.256,-1.296 0.57,-4.834 -1.976,-3.696c-0.559,0.249 -0.69,0.493 -0.943,0.376c-1.064,-1.011 -2.59,0.267 -1.688,0.943c0.39,0.191 0.868,0.265 0.994,0.277c0.219,0.126 0.146,0.44 -0.174,0.834c-1.054,1.25 -3.448,0.633 -4.013,-1.13c-0.654,-2.042 1.421,-4.188 3.012,-2.998c0.471,0.352 0.878,0.389 0.88,-0.132c0,-0.811 -1.012,-1.742 -2.308,-1.65c-1.316,0.093 -1.173,0.263 -0.457,-0.933c0.529,-1.065 0.458,-2.105 0,-2.731c-0.355,-0.482 -0.719,-0.583 -0.682,-0.074c0.288,1.583 -1.552,3.088 -3.064,2.424c-1.453,-0.654 -2.173,-2.29 -1.459,-3.709c0.658,-1.31 2.255,-1.446 1.989,-0.047c-0.125,0.892 0.549,1.361 1.201,0.835c0.236,-0.192 0.292,-0.359 0.309,-0.935c0.018,-0.641 -0.24,-0.83 0.17,-1.205c1.078,-0.144 1.144,-2.446 0.98,-2.541l17.301,-0.082Zm-24.999,0.071l3.876,0.013c-0.008,2.654 -3.455,2.381 -3.876,-0.013Zm5.709,0.007c0.684,0 1.252,0.233 1.252,0.92c0,0.687 -0.552,1.243 -1.236,1.243c-0.683,0 -1.24,-0.556 -1.24,-1.243c-0,-0.687 0.541,-0.92 1.224,-0.92Zm-12.126,0.09l2.75,-0l21.724,36.409l-2.572,1.258l-21.902,-37.667Zm4.517,1.271c1.317,0.757 2.533,1.379 4.184,1.542c-0.484,0.986 -0.925,2.064 -1.005,3.907l-3.179,-5.449Zm4.425,7.333c1.34,0.483 2.503,1.214 4.712,0.475c-1.178,1.048 -1.844,2.301 -2.343,3.622l-2.369,-4.097Zm11.302,4.398c0.633,0 1.148,0.517 1.148,1.154c-0,0.637 -0.515,1.149 -1.148,1.149c-0.633,0 -1.146,-0.512 -1.146,-1.149c-0,-0.637 0.513,-1.154 1.146,-1.154Zm-7.038,2.875c0.969,0.358 1.984,0.595 3.111,0.544c-0.558,0.77 -0.747,1.943 -0.783,3.284l-2.328,-3.828Zm3.326,5.738c0.896,0.44 1.959,1.08 3.841,0.875c-1.246,2.127 -0.98,2.715 -1.108,3.646l-2.733,-4.521Zm10.887,4.227c0.663,-0 1.202,0.541 1.202,1.208c-0,0.667 -0.539,1.208 -1.202,1.208c-0.664,-0 -1.201,-0.541 -1.201,-1.208c-0,-0.667 0.537,-1.208 1.201,-1.208Zm-6.747,2.711c0.821,0.467 2.442,0.733 2.46,0.607c-0.104,-0.078 -0.466,1.574 -0.529,2.611l-1.931,-3.218Zm3.78,6.203c1.167,0.692 2.459,0.625 3.218,0.707c-0.812,0.163 -1.577,0.368 -2.448,0.713l-0.77,-1.42Zm13.767,6.808c-2.812,0.183 -3.465,2.351 -3.131,4.549c-2.144,-0.345 -4.544,1.699 -3.873,4.198c0.636,2.37 2.828,2.454 4.341,2.296c-0.117,0.575 -0.436,2.512 1.89,4.15l0.311,12.304c-0,-0 -1.026,-0.946 -1.695,-1.616c-2.923,-2.928 -7.32,-5.05 -7.044,-3.4c0.04,0.243 0.134,0.858 0.205,1.367c0.464,2.786 4.185,5.798 6.722,7.314c0.907,0.508 1.469,1.052 1.469,1.052c-4.746,5.103 -7.297,10.547 -7.932,15.951c-0.591,5.02 -1.069,9.542 -1.538,14.151c-1.937,23.124 -11.803,28.941 -12.272,30.073l-0.185,3.083l-2.755,-0.206l-3.173,2.762c10.397,5.403 16.463,11.923 16.378,12.047c8.302,-5.467 15.467,-11.541 22.231,-17.827l-0.13,-51.485c-0,-0 -0.563,0.206 -0.708,0.205c-0.514,0 -0.578,0.231 -0.756,1.216c-0.096,0.527 -0.409,1.013 -0.654,1.359c-0.465,0.658 -0.298,0.325 0.287,0.563c1.332,0.542 -0.398,2.998 -2.291,3.297c-1.363,0.216 -2.124,0.469 -2.356,0.785c-2.869,2.524 -5.728,2.924 -7.889,1.996c-1.064,-0.457 -2.22,-1.124 -2.611,-2.237c-0.887,-2.527 0.962,-6.169 2.047,-8.272c1.99,-3.857 5.294,-6.754 5.294,-6.754l-0.54,-0.591c1.491,-0.083 3.672,-0.922 4.325,-1.851c3.193,-4.439 4.758,-10.416 3.252,-13.749c-2.247,1.732 -4.516,5.778 -5.843,8.163c-0.459,-3.533 -0.595,-9.701 -0.595,-9.701c0.476,-0.528 3.175,-0.232 2.577,-4.656c2.375,1.077 4.877,-0.572 4.773,-2.872c-0.163,-3.582 -2.908,-3.476 -5.141,-3.024c1.064,-2.164 -0.958,-4.771 -2.99,-4.64l-0,0Zm-0.045,0.302c2.935,0.091 3.517,3.353 1.719,5.199c-0,-0 -1.165,-0.902 -1.783,-1.415c-0.588,0.464 -0.757,0.864 -1.403,1.341c-0.764,-0.568 -1.226,-1.572 -1.233,-2.54c0.036,-1.513 1.554,-2.621 2.7,-2.585Zm-67.048,0.101c11.876,6.674 26.767,7.152 40.398,0.35l-0.166,1.13l-1.495,0.846l0.846,1.558l0.468,-0.226l0.012,1.03c-11.236,6.104 -30.059,7.366 -44.793,-2.77c0.757,-0.478 2.911,-1.022 2.911,-1.022l-0.708,0.872l1.844,1.203l0.868,-1.316l-1.392,-1.007l1.207,-0.648Zm1.047,2.047l-0.68,1.553l1.704,0.913l0.649,-1.565l-1.673,-0.901Zm-6.461,0.174c18.287,11.544 35.311,8.108 45.534,3.387l0.131,1.231c-13.195,5.645 -30.544,7.16 -47.059,-4.004l1.394,-0.614Zm43.047,0.742l-1.626,0.652l0.645,1.499l1.673,-0.718l-0.692,-1.433Zm-45.232,0.279c14.861,9.637 30.8,11.524 47.978,4.463l0.656,1.844c-16.73,6.757 -34.385,5.979 -50.515,-5.506l1.881,-0.801Zm11.419,0.056l-0.665,1.615l1.842,0.702l0.537,-1.584l-1.714,-0.733Zm31.253,0.667l-1.611,0.524l0.503,1.546l1.667,-0.571l-0.559,-1.499Zm-28.438,0.439l-0.397,1.624l1.88,0.532l0.328,-1.631l-1.811,-0.525Zm65.16,0c1.395,-0.039 2.752,1.056 2.9,2.676c0.254,2.761 -3.817,4.094 -5.339,1.517l1.341,-1.64l-1.2,-1.126c0.611,-0.971 1.461,-1.403 2.298,-1.427Zm-81.684,0.09l4.433,3.064l-3.221,5.033l-4.773,-3.223l3.561,-4.874Zm73.16,0.041c0.68,-0.01 1.366,0.26 1.926,0.932l-1.583,1.85l1.713,1.832c-2.032,2.172 -5.063,0.831 -5.032,-1.828c0.015,-1.395 1.48,-2.764 2.976,-2.786Zm3.676,0.099l2.816,2.455l-2.584,3.041l-2.641,-2.681l2.409,-2.815Zm-34.57,0.12l-1.692,0.509l0.387,1.491l1.75,-0.458l-0.445,-1.542Zm-22.815,0.47l-0.312,1.604l1.942,0.42l0.328,-1.596l-1.958,-0.428Zm20.023,0.272l-1.8,0.393l0.309,1.596l1.804,-0.381l-0.313,-1.608Zm37.552,0.376l-1.484,1.466l1.484,1.546l1.495,-1.546l-1.495,-1.466Zm-54.459,0.047l-0.228,1.615l2.036,0.276l0.158,-1.635l-1.966,-0.256Zm13.706,0.222l-1.83,0.209l0.185,1.585l1.9,-0.241l-0.255,-1.553Zm-10.806,0.187l-0.023,1.657l1.785,0.144l-0,-1.643l-1.762,-0.158Zm7.871,0.154l-1.792,0.066l0.012,1.605l1.83,-0.118l-0.048,-1.553l-0.002,-0Zm-32.693,0.016c-1.055,0 -1.909,0.858 -1.909,1.918c0,1.06 0.854,1.919 1.909,1.919c1.054,0 1.907,-0.859 1.906,-1.919c0,-1.06 -0.852,-1.918 -1.906,-1.918Zm29.688,0.055l-1.761,0.014l0.009,1.624l1.814,0.009l-0.062,-1.647Zm46.693,0.007l0.772,0.778l-0.772,0.764l-0.792,-0.764l0.792,-0.778Zm-0,0.498c-0.157,0 -0.283,0.122 -0.283,0.272c0,0.15 0.127,0.271 0.283,0.271c0.155,-0 0.282,-0.121 0.282,-0.271c0.001,-0.15 -0.126,-0.272 -0.282,-0.272Zm-76.389,0.116c0.692,0 1.252,0.563 1.252,1.258c0,0.696 -0.56,1.263 -1.252,1.263c-0.692,-0 -1.255,-0.567 -1.255,-1.263c0,-0.695 0.563,-1.258 1.255,-1.258Zm-6.785,0.093l2.537,2.078c-0.807,1.554 -3.363,4.835 -3.363,4.835l-4.688,-3.778l2.452,-1.395c-0.133,0.259 -0.208,0.551 -0.208,0.863c-0.001,1.041 0.841,1.884 1.877,1.884c1.036,-0 1.876,-0.843 1.876,-1.884c0,-1 -0.775,-1.815 -1.752,-1.88l1.269,-0.723Zm-1.417,1.336c0.695,-0 1.26,0.568 1.26,1.267c0,0.698 -0.565,1.262 -1.26,1.262c-0.694,-0 -1.259,-0.564 -1.259,-1.262c0,-0.699 0.565,-1.267 1.259,-1.267Zm86.234,0.598c0,-0 0.69,0.264 0.86,0.525c1.36,2.1 -0.057,4.598 -2.337,4.549c-2.665,-0.057 -3.366,-3.416 -1.533,-4.786l1.489,1.415l1.521,-1.703Zm-69.27,0.855l5.253,2.027l-1.993,5.74l-5.742,-2.369l2.482,-5.398Zm-21.587,0.598c21.427,19.415 51.867,20.811 73.992,7.923l1.348,-0.027l0.713,0.738c-25.205,14.99 -56.536,11.729 -77.689,-7.565l1.636,-1.069Zm59,1.157l1.692,5.675l-5.808,1.537l-1.298,-5.747l5.414,-1.465Zm-61.196,0.206c6.503,6.302 15.697,11.825 26.495,14.957l0.267,2.326c-11.463,-3.462 -20.121,-8.084 -28.555,-16.109l1.793,-1.174Zm25.174,0.089c-1.036,0 -1.876,0.847 -1.876,1.889c-0,1.041 0.84,1.882 1.876,1.882c1.036,0 1.877,-0.841 1.877,-1.882c0,-1.042 -0.841,-1.889 -1.877,-1.889Zm-9.342,0.423l5.419,2.882l-2.7,5.435l-5.753,-3.104l3.034,-5.213Zm9.318,0.199c0.695,-0 1.26,0.568 1.26,1.267c-0,0.698 -0.565,1.262 -1.26,1.262c-0.694,-0 -1.258,-0.564 -1.258,-1.262c0,-0.699 0.564,-1.267 1.258,-1.267Zm8.972,0.773l5.205,0.761l-0.239,5.802l-6.074,-0.733c0.233,-2.043 1.108,-5.83 1.108,-5.83Zm25.143,0.144c-1.036,-0 -1.876,0.845 -1.876,1.887c0,1.042 0.84,1.884 1.876,1.884c1.036,-0 1.878,-0.842 1.878,-1.884c-0,-1.042 -0.842,-1.887 -1.878,-1.887Zm-0.023,0.621c0.694,0 1.259,0.567 1.259,1.266c0,0.698 -0.565,1.262 -1.259,1.262c-0.695,0 -1.258,-0.564 -1.258,-1.262c-0,-0.699 0.563,-1.266 1.258,-1.266Zm-42.324,0.081c-1.036,0 -1.877,0.847 -1.878,1.889c0,1.041 0.842,1.882 1.878,1.882c1.036,0 1.876,-0.841 1.876,-1.882c-0,-1.042 -0.84,-1.889 -1.876,-1.889Zm33.28,0.009l0.745,5.828l-5.684,0.284l-0.336,-5.813l5.275,-0.299Zm40.741,0.521l0.808,-0c0.074,5.016 0.469,10.823 1.046,15.118c0.087,0.64 0.126,0.828 0.062,0.944c-0.558,0.994 -1.207,-0.258 -1.46,-3.111c-0.07,-0.787 -0.158,-1.931 -0.254,-2.684c-0.292,-2.275 -0.202,-10.267 -0.202,-10.267Zm-96.076,0.086c-8.547,5.363 -22.764,18.172 -22.679,18.471l0.057,49.222l1.113,0.054l0.918,-1.81c-1.422,-0.358 -1.024,-3.045 1.699,-3.584c0.465,-0.092 1.885,-0.573 2.232,-0.839c2.067,-1.585 5.427,-2.521 7.783,-1.896c3.436,0.884 4.431,3.544 2.486,7.841c-1.654,3.658 -3.49,7.797 -6.936,9.519c0,-0 0.563,0.516 0.768,0.649c6.679,-3.882 10.053,-17.805 9.872,-26.468c0.269,-8.873 1.79,-17.777 5.352,-24.253c5.886,-10.703 13.672,-15.006 13.632,-15.045c0,-0 -10.496,-6.409 -16.297,-11.862l-0,0.001Zm22.031,0.011c0.696,-0 1.26,0.568 1.26,1.267c-0,0.698 -0.564,1.26 -1.26,1.26c-0.694,0 -1.258,-0.562 -1.258,-1.26c0,-0.699 0.564,-1.267 1.258,-1.267Zm51.922,0.201l2.026,5.418l-5.634,2.319l-2.03,-5.693l5.638,-2.044Zm-32.408,0.026c-1.036,0 -1.877,0.847 -1.877,1.889c-0,1.042 0.841,1.882 1.877,1.882c1.037,0 1.876,-0.84 1.876,-1.882c0,-1.042 -0.839,-1.889 -1.876,-1.889Zm11.454,0.471c-1.036,-0 -1.877,0.845 -1.878,1.887c0,1.041 0.842,1.883 1.878,1.883c1.036,0 1.876,-0.842 1.876,-1.883c-0,-1.042 -0.84,-1.887 -1.876,-1.887Zm-11.477,0.151c0.695,0 1.26,0.568 1.259,1.267c0,0.698 -0.564,1.261 -1.259,1.261c-0.695,-0 -1.26,-0.563 -1.26,-1.261c0,-0.699 0.565,-1.267 1.26,-1.267Zm11.453,0.47c0.695,0 1.26,0.567 1.26,1.266c-0,0.698 -0.565,1.262 -1.26,1.262c-0.694,-0 -1.258,-0.564 -1.258,-1.262c0,-0.699 0.564,-1.266 1.258,-1.266Zm19.162,0.645c-1.036,0 -1.877,0.845 -1.877,1.887c-0,1.042 0.841,1.884 1.877,1.884c1.037,0 1.878,-0.842 1.878,-1.884c0,-1.042 -0.841,-1.887 -1.878,-1.887Zm31.392,0.496c0.92,2.901 -0.752,6.69 -0.838,6.933c-1.023,2.918 -2.254,5.305 -2.703,5.443c-0.381,0.146 -0.55,0.052 -0.548,-0.307c-0,-0.551 1.259,-4.29 2.248,-6.694c0.346,-0.883 0.658,-1.944 0.752,-2.8c-0.858,1.54 -2.968,5.694 -3.364,8.364c-0.205,1.779 -0.541,1.525 -0.787,-0.592c-0.342,-2.939 0.298,-4.449 3.584,-8.543c0.495,-0.719 1.193,-1.322 1.656,-1.804Zm-31.415,0.125c0.695,-0 1.26,0.568 1.26,1.266c-0.001,0.699 -0.565,1.263 -1.26,1.263c-0.695,-0 -1.259,-0.564 -1.258,-1.263c-0,-0.698 0.563,-1.266 1.258,-1.266Zm-39.794,0.097l5.629,1.448l-1.308,5.939l-6.354,-1.697l2.033,-5.69Zm29.862,1.356l1.63,5.813l-6.646,1.142l-1.036,-5.896l6.052,-1.059Zm-27.827,0.586c-1.037,0 -1.878,0.845 -1.878,1.887c0,1.042 0.842,1.884 1.878,1.884c1.035,0 1.876,-0.842 1.876,-1.884c-0,-1.042 -0.841,-1.887 -1.876,-1.887Zm9.936,0.376l6.02,0.346l0.054,6.044l-6.535,-0.284l0.461,-6.106Zm-9.96,0.246c0.695,-0 1.26,0.566 1.26,1.265c-0.001,0.699 -0.565,1.262 -1.26,1.262c-0.695,0 -1.258,-0.563 -1.258,-1.262c-0,-0.699 0.563,-1.265 1.258,-1.265Zm25.267,0.535c-1.036,-0 -1.876,0.846 -1.876,1.888c0,1.042 0.84,1.884 1.876,1.884c1.036,0 1.878,-0.842 1.878,-1.884c-0,-1.042 -0.842,-1.888 -1.878,-1.888Zm-12.48,0.486c-1.036,0 -1.878,0.845 -1.878,1.887c0,1.042 0.842,1.884 1.878,1.884c1.035,0 1.875,-0.842 1.876,-1.884c-0,-1.042 -0.841,-1.887 -1.876,-1.887Zm12.457,0.135c0.694,0 1.259,0.569 1.259,1.267c0,0.699 -0.565,1.263 -1.259,1.262c-0.695,0.001 -1.259,-0.563 -1.259,-1.262c0,-0.698 0.564,-1.267 1.259,-1.267Zm-12.481,0.487c0.695,-0 1.26,0.566 1.26,1.265c-0,0.699 -0.565,1.262 -1.26,1.262c-0.695,0 -1.259,-0.563 -1.259,-1.262c-0,-0.699 0.564,-1.265 1.259,-1.265Zm41.509,0.384c1.493,0.189 5.778,3.315 6.902,5.235c0.964,1.751 0.465,2.446 -0.644,0.882c-1.531,-1.715 -4.98,-4.402 -4.98,-4.402c0,0 0.405,0.694 2.206,2.459c1.786,1.751 3.67,4.033 3.668,4.439c0,0.269 -0.355,0.234 -0.865,-0.082c-1.438,-0.813 -2.665,-1.953 -3.845,-3.012c-1.594,-1.405 -3.435,-4.581 -3.084,-5.405c0.106,-0.249 0.358,-0.15 0.642,-0.114Zm-84.455,0.458c1.16,-0.034 2.469,0.708 2.522,2.066c0.038,0.96 0.102,1.034 0.965,1.049c0.823,0.015 3.217,0.299 3.217,0.299l-0,2.687c-0,0 -1.148,-0.007 -2.472,-0.07c-2.253,-0.108 -2.243,-0.11 -2.529,0.886c-0.116,0.402 -0.277,0.6 -0.726,0.896c-2.023,1.337 -3.975,-1.088 -2.719,-3.378c0.431,-0.787 0.457,-1.054 0.159,-1.526c-0.605,-1.367 0.2,-2.841 1.583,-2.909l-0,-0Zm0.494,1.375c-0.25,0 -0.522,0.108 -0.772,0.357c-0.334,0.333 -0.337,1.281 -0,1.833c0.317,0.528 0.309,0.671 -0.062,1.018c-0.654,0.613 -0.671,1.828 -0.034,2.286c0.581,0.417 1.198,-0.135 1.201,-0.978c-0,-0.923 0.646,-0.906 0.646,-0.906l4.233,0.075l0.013,-0.694l-3.07,-0.154c-0.428,-0 -0.874,-0.043 -1.204,-0.268c-0.349,-0.243 -0.748,-0.664 -0.368,-1.177c0.533,-0.718 0.057,-1.395 -0.58,-1.39l-0.003,-0.002Zm-9.176,1.589l2.009,3.433l2.34,0.085l0.204,2.09l2.846,1.841l-2.915,1.715l-0.144,2.103l-2.207,0.279l-2.052,2.582l-1.965,-2.579l-2.166,0.014l-0.031,-2.156l-2.981,-1.93l3.262,-1.844l-0.034,-2.463l2.313,-0.156l1.521,-3.014Zm70.933,1.561l0.097,2.073l-3.287,0.586l0.428,-2.111l2.762,-0.548Zm-21.062,2.089l4.429,0.135l-0.254,29.109c-0,0 -0.873,-0.007 -1.039,-0.007l-0.019,-1.135l-1.417,0.047l-1.441,-0.879l-0.259,-27.27Zm-49.871,0.738l-2.598,3.309l3.147,2.765l2.772,-3.235l-3.321,-2.839Zm51.2,0.442l-0,1.341l1.857,-0l-0,-1.341l-1.857,0Zm-51.142,1.147l1.832,1.347l-1.395,1.852l-1.764,-1.537l1.327,-1.662Zm70.968,0.761l-0.058,15.931c-6.086,4.803 -7.982,13.259 -7.982,13.258l-2.476,-0.147l6.291,-28.063l4.225,-0.979Zm-32.991,0.352c-5.477,2.621 -10.996,4.605 -16.428,10.856c2.103,1.904 4.325,3.844 6.302,7.088c4.522,-0.678 9.554,0.136 15.042,2.307l-4.916,-20.251Zm13.165,0.358l-0,1.387l1.857,-0l-0,-1.387l-1.857,-0Zm-63.839,0.066c1.368,-0.137 2.027,1.166 2.279,1.934c0.135,0.423 0.177,0.878 0.177,0.878c4.016,-0.338 2.992,4.348 0.432,4.509c-0.3,0.039 0.249,0.831 0.846,1.083c1.521,0.643 2.614,0.23 3.611,-1.107c0.765,-1.025 0.811,-1.172 0.811,-1.172l2.479,1.321c0,-0 0.072,-0.037 -0.366,1.106c-0.797,2.081 0.365,4.633 1.263,2.774c0.478,-0.992 1.883,-1.557 2.857,-1.147c1.138,0.48 1.532,2.523 0.734,3.811c-0.241,0.389 -0.249,0.47 -0.101,0.83c0.223,0.543 0.362,1.939 0.128,2.39c-0.304,0.584 -0.653,0.716 -1.336,0.239c-0.936,-0.652 -1.459,-0.923 -3.086,-1.378c-2.857,-0.541 -3.416,-1.552 -4.552,-3.915c-3.385,1.019 -8.449,-1.114 -7.774,-6.166c0.307,-1.115 0.392,-3.257 -0.174,-3.695c-1.107,-0.858 0.107,-2.096 1.772,-2.295Zm50.156,0.47l4.403,18.541c-4.832,-1.78 -9.575,-3.169 -13.771,-2.136c-1.922,-3.085 -3.56,-4.602 -5.692,-6.606c4.154,-5.036 9.434,-7.854 15.06,-9.799Zm-49.809,0.91c-0.284,-0 -0.606,0.12 -0.941,0.419c-0,-0 0.297,0.25 0.459,0.59c0.259,0.544 0.262,0.543 -0.031,1.748c-1.342,4.829 1.841,8.024 6.371,6.629c1.112,-0.346 1.07,-0.308 1.39,1.006c0.529,2.163 2.049,3.279 5.071,3.689c0.186,0.025 0.496,0.087 0.742,0.238c1.329,0.853 0.784,-0.282 0.42,-0.723c-0.259,-0.345 -0.732,-0.688 -0.732,-0.688c-0,0 0.405,-0.263 0.594,-0.364c0.853,-0.455 1.17,-2.235 0.467,-2.618c-0.642,-0.348 -1.735,0.177 -1.738,0.838c-0.008,1.208 -1.521,1.336 -2.847,0.332c-1.703,-1.289 -0.194,-4.536 -0.184,-4.532l-0.96,-0.425c0.128,0.114 -2.022,3.184 -4.666,2.114c-1.846,-0.748 -3.147,-2.899 -2.291,-3.513c0.624,-0.168 1.372,0.178 1.846,-0.189c0.944,-0.745 0.183,-2.052 -1.166,-2.005c-0.283,0.01 -0.927,0.137 -0.927,0.137c0.071,-0.609 0.226,-1.037 0.15,-1.624c-0.078,-0.587 -0.483,-1.054 -1.027,-1.059Zm63.511,1.409l-0,1.142l1.838,0.013l-0,-1.142l-1.838,-0.013Zm-0.019,2.353l0,1.177l1.857,-0l0,-1.177l-1.857,-0Zm0,2.536l0,1.204l1.857,-0l0,-1.204l-1.857,0Zm0,2.366l0,1.273l1.857,-0l0,-1.273l-1.857,0Zm0,2.372l0,1.189l1.857,-0l0,-1.189l-1.857,-0Zm0,2.42l0,1.201l1.857,-0l0,-1.201l-1.857,0Zm-60.66,1.173l1.834,2.657l1.857,0.081l0.074,1.825l3.159,2.428l-2.762,1.985l-0.2,1.968l-2.189,0.072l-1.773,3.007l-2.182,-2.638l-1.753,-0.284l-0.201,-2.4l-2.699,-2.031l2.537,-2.039l0.204,-2.133l2.066,0.184l2.028,-2.682Zm103.057,1.27c0.169,-0 0.353,0.05 0.552,0.151c0.656,0.333 0.864,0.372 2.569,0.458c1.978,0.101 2.676,0.279 3.657,0.937c0.591,0.396 0.626,0.396 1.259,-0.025c2.777,-1.851 5.948,-0.169 6.179,3.277c0.06,0.906 0.151,1.27 0.506,2.031c0.242,0.527 0.493,0.942 0.347,1.278c-0.445,1.026 -2.584,1.091 -3.749,-0.432c-0.209,-0.23 -0.421,-0.328 -0.711,-0.329c-0.578,0.216 -2.06,-0.956 -2.043,-1.007c-0.138,0.816 -0.207,1.465 -0.352,2.65l-2.591,-0.041c-0,-0 -0.057,-0.478 -0.177,-2.145c-0.138,-1.915 -0.612,-2.475 -1.221,-1.44c-1.048,1.782 -3.831,0.998 -3.992,-1.122c-0.055,-0.719 -0.096,-0.812 -0.487,-1.114c-1.311,-1.014 -0.93,-3.151 0.254,-3.127l0,-0Zm-42.397,0.105l0,1.064l1.857,0l0,-1.064l-1.857,0Zm42.695,1.138c-0.512,-0.064 -0.222,0.955 0.629,1.44c0.483,0.275 0.485,0.275 0.421,1.12c-0.115,1.53 1.353,2.28 2.004,1.024c0.113,-0.217 0.162,-0.493 0.117,-0.679c-0.274,-1.112 2.12,-0.81 2.695,0.341c0.133,0.265 0.281,0.968 0.352,1.678c0.068,0.673 0.084,1.452 0.084,1.452l0.765,0c-0,0 -0.008,-0.464 0.035,-0.908c0.19,-1.901 1.026,-3.104 2.154,-3.099c0.482,-0 0.499,0.087 0.162,0.714c-0.57,1.06 -0.02,1.828 1.31,1.837c0.843,0.007 0.841,0.007 1.155,0.61c0.345,0.662 0.606,0.872 0.927,0.749c0.227,-0.086 0.231,0.042 -0.066,-2.217c-0.442,-3.366 -2.389,-4.272 -5.078,-2.365c-0.761,0.54 -0.929,0.524 -1.604,-0.132c-1.012,-0.983 -1.652,-1.207 -3.63,-1.281c-0.809,-0.053 -1.648,-0.186 -2.432,-0.284Zm-63.816,0.962c-0.439,0.008 -0.949,0.102 -1.391,0.14c0.491,2.601 0.719,5.202 0.944,7.803c2.265,-0.395 5.198,-0.026 9.067,1.787c2.375,1.113 5.275,3.015 8.315,5.161c3.291,2.324 7.148,3.696 10.434,4.413c4.001,0.874 7.214,0.798 7.126,0.609c-0.177,0.029 -1.443,-6.382 -1.277,-7.752c-5.535,-0.511 -10.878,-2.572 -14.963,-5.364c-5.407,-3.696 -11.657,-6.91 -18.255,-6.797Zm21.121,0.218l0,1.08l1.857,0l0,-1.08l-1.857,-0Zm-60.66,0.214l-3.233,3.091l3.233,3.033l2.681,-3.033l-2.681,-3.091Zm-0,1.563l1.431,1.575l-1.455,1.577l-1.761,-1.624l1.785,-1.528Zm41.061,0.088c0.391,-0 0.775,0.28 2.07,1.009c1.087,0.754 1.954,1.226 1.638,0.045c0.248,-0.341 1.451,0.766 2.869,1.463c1.71,1.378 1.716,1.046 1.938,0.362c0.229,-0.5 0.546,-0.162 1.913,1.111c1.795,1.672 1.633,1.674 1.992,1.258c0.409,-0.781 0.546,-0.773 2.009,0.917c1.52,1.706 1.841,2.07 2.166,1.34c0.5,-0.378 0.758,-0.012 2.822,1.937c1.015,1.018 1.254,0.86 1.445,0.175c0.196,-0.706 0.252,-0.547 1.965,0.82c1.985,1.597 2.181,1.714 2.263,1.161c0.132,-0.879 0.746,-0.566 2.789,0.909c1.237,0.89 1.705,1.136 1.969,0.916c0.269,-0.479 -0.672,-1.401 1.324,-0.532l0.549,2.913l-0.692,-0.197c-0.424,-0.122 -1.354,-0.44 -1.003,0.468c0.202,0.525 -0.3,0.463 -1.85,-0.465c-2.22,-1.33 -2.63,-1.635 -2.796,-1.363c-0.293,0.996 -0.256,1.06 -1.754,-0.12c-1.742,-1.329 -2.093,-1.697 -2.336,-1.244c-0.033,1.004 -0.517,0.8 -2.143,-0.609c-1.373,-1.209 -1.667,-1.84 -2.282,-0.916c-0.169,0.321 -0.339,0.24 -0.566,0.074c-0.799,-0.594 -2.405,-2.3 -2.859,-2.789c-0.357,-0.392 -0.56,-0.265 -0.854,0.058c-0.273,0.302 -0.294,0.209 -1.181,-0.609c-2.118,-1.954 -2.512,-2.442 -2.808,-2.175c-0.241,0.458 -0.01,1.08 -1.637,-0.211c-2.041,-1.477 -2.927,-2.134 -2.789,-1.165c-0.35,0.434 -0.104,0.519 -2.146,-0.617c-1.942,-1.08 -2.188,-1.404 -2.468,-1.033c-0.191,0.586 -0.842,0.376 -0.842,0.342l-0.394,-2.964l0.699,0.009c-0,0 0.671,-0.276 0.98,-0.276l-0,-0.002Zm-15.574,0.248c-0.155,0.458 -1.227,3.102 -1.24,9.83c0.128,0.159 2.654,-2.431 2.777,-4.844c0.116,-2.286 -1.531,-4.992 -1.537,-4.986Zm35.169,0.187l-0,1.227l1.858,-0l0,-1.227l-1.858,-0Zm-35.036,0.973c2.361,3.764 -0.241,7.314 -0.889,7.565c0,-2.829 0.414,-5.49 0.889,-7.565Zm61.964,3.162c-3.881,2.46 -3.252,9.116 -1.348,10.822c0.14,-0 1.364,-7.191 1.348,-10.822Zm-0.531,0.819l-1.045,8.567c-1.357,-1.511 -1.597,-6.017 1.045,-8.567Zm24.477,1.446l2.051,2.595l1.823,0.135l0.405,1.872l2.662,2.179l-2.665,1.817l-0.236,2.075l-1.982,0.201l-1.961,3.104l-1.919,-3.042l-1.839,-0.197l-0.057,-1.997l-2.889,-2.144l2.758,-1.665l0.052,-2.257l2.159,0.01l1.638,-2.686Zm-72.619,0.812c-1.303,6.23 -4.415,10.493 -8.805,13.36l0.024,0.629l-7.396,2.983c-1.619,7.6 -4.533,15.014 -10.64,21.97l1.704,3.479l-8.26,2.854l11.824,20.395c0.814,-0 -5.729,3.114 -13.628,2.302c4.999,12.309 6.03,25.052 3.263,36.211l38.706,-0.163l-29.58,-58.376l-0.484,-0.951c-0.43,-0.808 15.509,1.777 12.3,17.334c-0.049,0.348 0.073,0.392 0.267,0.248c3.137,-2.71 23.969,-10.224 40.606,-0.303l4.944,-2.059c-2.353,8.282 -5.027,13.979 -9.535,18.972l0.763,11.787c7.977,-6.569 16.633,-18.629 17.796,-34.657c3.592,-1.761 6.716,-3.76 10.063,-5.643l0.444,0.142l2.167,-1.308c-6.948,-7.644 -21.135,-14.95 -30.225,-16.87l0.535,2.589c-5.016,-1.354 -8.768,-1.648 -12.67,-2.069l-0.598,-27.427l-5.051,-2.994l-0.159,30.254c-3.777,0.046 -12.461,1.546 -12.461,1.546l0.39,-2.587l-3.977,0.823l-0.07,-2.52l4.495,-1.298l6.519,-27.792l-3.271,-0.861Zm0.545,0.617l2.077,0.424l-6.453,27.248c-0,-0 -3.62,1.005 -3.842,0.865c-0.288,-5.109 -0.399,-15.522 -0.399,-15.522c6.369,-5.339 7.367,-9.119 8.617,-13.015Zm-44.291,2.001c0.972,-0.013 2.018,0.699 2.085,1.34c0.166,0.395 0.305,0.564 0.568,0.601c1.627,0.226 1.679,0.66 1.726,1.605c-0.23,1.809 0.975,0.289 1.316,-1.508c0.036,-0.187 0.016,-1.561 0.016,-1.561l1.992,-0.017c0,-0 0.068,1.434 0.098,1.662c0.175,1.39 0.763,2.516 1.172,1.778c1.402,-2.532 4.613,-1.24 4.106,1.201c-0.125,0.577 -0.116,0.613 0.275,1.052c0.638,0.715 0.874,1.473 0.663,2.132c-0.205,0.644 -0.654,0.741 -1.618,0.353c-0.454,-0.183 -1.002,-0.248 -2.471,-0.291c-2,0.022 -2.749,-0.164 -3.525,-1.386c-1.849,1.606 -3.876,1.462 -5.23,0.622c-1.008,-0.52 -1.597,-1.766 -1.754,-3.709c-0.029,-1.033 -0.317,-1.781 -0.953,-2.028c-0.343,-0.325 0.039,-0.971 0.625,-1.561c0.269,-0.194 0.584,-0.28 0.908,-0.284l0.001,-0.001Zm116.196,0.295l-2.739,3.433l3.257,2.929l3.031,-3.586l-3.549,-2.776Zm-63.421,0.492l3.792,2.184l0.487,27.038l-4.288,-0.12l0.009,-29.102Zm-52.567,1.581c0.19,0.636 0.238,1.031 0.179,1.473c-0.403,2.963 2.974,4.468 5.413,2.414c0.648,-0.747 0.755,-0.698 1.298,0.102c0.669,0.843 1.642,1.118 3.684,0.995c0.932,-0.057 1.55,0.443 1.954,0.111c0.292,-0.213 0.009,-0.777 -0.556,-1.106c-0.346,-0.201 -0.359,-0.233 -0.29,-0.929c0.173,-1.754 -1.265,-2.218 -2.287,-0.738c-0.843,1.223 -2.114,0.416 -2.524,-1.603c-0.244,-1.553 -0.439,-1.529 -0.623,-0.175c-0.199,1.647 -2.355,3.432 -3.216,2.622c-0.236,-0.239 -0.233,-0.18 0.009,-1.007c0.311,-1.061 0.061,-1.455 -1.089,-1.731c-0.189,-0.045 -0.406,-0.204 -0.48,-0.35c-0.571,-0.89 -0.587,-1.192 -1.402,-1.277c-0.896,-0.094 -0.225,0.675 -0.07,1.199l0,0Zm116.261,-0.574l1.738,1.506l-1.514,1.799l-1.85,-1.43l1.626,-1.875Zm-62.505,0.962l-0,1.279l1.621,-0l0,-1.279l-1.621,0Zm-0,2.575l-0,1.345l1.621,-0l0,-1.345l-1.621,-0Zm9.77,1.546c1.818,6.789 3.651,13.572 5.476,20.359c1.73,-0.695 11.717,-5.154 16.427,-10.86c-0.179,0.014 -4.282,-4.019 -5.719,-6.636c-4.711,0.78 -10.122,-0.213 -16.184,-2.863Zm-9.77,0.808l-0,1.257l1.621,-0l0,-1.255l-1.621,-0.002Zm10.792,0.341c4.294,1.288 9.794,3.065 14.857,2.16c1.306,2.36 3.197,4.301 5.33,6.093c-3.832,4.192 -9.374,7.391 -15.107,9.853l-5.08,-18.106Zm40.75,0.489c0.216,0 0.434,0.085 0.644,0.272c0.68,0.608 1.205,0.818 2.593,1.045c2.236,0.367 3.94,1.771 4.425,3.643c0.203,0.787 0.315,0.83 1.428,0.548c4.22,-1.067 7.473,2.451 6.469,7.147c-0.351,1.639 -0.458,1.835 0.032,2.485c1.072,1.162 1.305,1.178 0.131,2.203c-1.069,0.966 -3.192,0.498 -3.642,-1.069c-0.43,-0.858 -0.424,-0.924 -1.131,-1.037c-2.754,-0.442 -2.641,-4.271 -0.047,-4.715c0.217,-0.036 0.378,0.008 0.487,-0.042c0.736,-0.335 -0.802,-2.087 -2.073,-1.818c-1.56,0.329 -2.338,1.335 -2.952,2.912l-2.456,-1.409c0.617,-1.281 1.068,-2.933 0.533,-3.955c-0.433,-0.861 -0.979,-0.893 -1.146,-0.069c-0.394,1.94 -2.791,2.518 -4.365,0.939c-0.879,-0.882 -0.981,-1.828 -0.335,-3.106c0.418,-0.827 0.43,-0.886 0.252,-1.235c-0.619,-1.214 0.217,-2.745 1.153,-2.739l-0,0Zm-51.542,1.577l-0,1.31l1.626,-0.008l-0,-1.302l-1.622,0l-0.004,0Zm51.843,0.109c-0.499,0.008 -0.496,0.493 -0.035,1.088c0.41,0.418 0.49,0.61 -0.077,0.971c-0.71,0.662 -0.866,1.66 -0.375,2.42c0.737,1.141 2.439,0.505 2.244,-0.839c-0.137,-0.943 0.601,-1.365 1.773,-1.009c1.704,0.516 2.516,2.43 1.845,4.36c-0.126,0.363 -0.376,1.212 -0.376,1.212l0.503,0.307c-0,0 0.596,-0.958 0.83,-1.249c1.936,-2.393 6.513,-1.181 6.003,1.812c-0.079,0.941 -0.075,1.068 -1.093,0.773c-0.676,-0.35 -1.33,0.377 -1.31,1.286c0.034,0.818 0.74,1.474 1.719,1.343c0.776,-0.146 0.971,-0.12 0.915,0.932c0.08,0.731 0.351,1.217 0.827,1.465c1.156,0.48 1.749,-0.182 0.826,-1.154c-0.56,-0.589 -0.526,-1.5 -0.174,-2.354c0.421,-1.021 0.202,-3.265 -0.443,-4.532c-0.929,-1.824 -3.53,-2.589 -5.708,-1.678c-0.995,0.535 -1.105,0.659 -1.202,-0.279c-0.545,-2.327 -2.285,-4.086 -4.455,-4.242c-0.834,-0.06 -1.704,-0.518 -2.237,-0.633l0,0Zm-51.843,2.378l-0,1.208l1.626,-0l-0,-1.208l-1.626,-0Zm-0,2.361l-0,1.332l1.621,-0l0,-1.332l-1.621,0Zm-0,2.598l-0,1.332c-0,-0 0.887,-0.025 1.621,-0l0,-1.332l-1.621,0Zm52.968,2.136l1.776,2.641l1.965,0.132l0.231,2.132l2.982,1.868l-2.583,1.628l-0.02,2.062l-2.463,0.21l-2.178,2.904l-1.854,-2.563l-1.854,0.01l-0.435,-2.288l-3.283,-1.673l3.366,-1.93l-0.092,-2.404l2.291,-0.017l2.151,-2.712Zm-52.968,0.314l-0,1.368l1.621,0l0,-1.368l-1.621,0Zm-0,2.506l-0,1.352l1.621,-0l0,-1.352l-1.621,-0Zm51.972,1.005l-2.546,3.406l3.43,2.851l2.725,-3.444l-3.609,-2.813Zm-51.972,1.364l-0,1.48l1.621,-0l0,-1.48l-1.621,-0Zm52.233,0.179l1.769,1.374l-1.262,1.612l-1.757,-1.348l1.25,-1.638Zm-52.233,2.556l-0,1.238l1.621,0l0,-1.238l-1.621,-0Zm-48.272,0.158c-3.126,0.014 -6.084,5.107 -6.793,7.518c-0.838,3.09 -0.962,8.679 -0.166,8.837c2.802,-2.028 4.131,-5.466 6.237,-8.04c0.327,2.976 0.275,8.716 0.275,8.716c0,-0 -1.245,0.66 -1.917,1.701c-0.485,0.867 -0.64,1.902 -0.227,2.866c-1.558,-0.509 -4.382,0.065 -4.542,2.958c0.101,4.075 4.526,3.502 4.542,3.446c-0.094,-0.025 -0.871,4.333 3.055,4.795c1.409,0.166 3.886,-0.866 3.15,-4.83c2.479,0.411 4.616,-0.961 4.643,-3.359c0.031,-1.643 -1.21,-3.056 -3.348,-3.064c-0.446,-0 -1.387,0.201 -1.387,0.201c0.029,-0.237 0.857,-2.788 -2.019,-4.638l-0.452,-11.794c0,-0 0.992,1.087 1.436,1.498c1.911,1.77 3.158,2.661 5.363,3.83c2.147,1.138 1.883,0.858 1.512,-1.305c-1.015,-3.247 -3.136,-5.701 -7.621,-8.769c-0.577,-0.395 -1.161,-0.569 -1.741,-0.567Zm0.309,0.253l0.63,16.681l-0.931,-0l-0.799,-16.665l1.1,-0.016Zm92.017,0.551c0.083,0 0.168,0 0.256,0.009c2.023,0.171 2.542,2.448 1.633,3.458c-0.359,0.399 -0.483,0.484 -0.297,0.729c0.868,1.106 0.383,2.854 -0.475,3.123c-2.73,0.853 -3.144,-0.649 -3.136,-2.416l-4.217,-0.159l0.026,-2.47l4.65,0.094c-0.35,-1.122 0.321,-2.319 1.56,-2.366l-0,-0.002Zm-93.921,0.026c0.438,-0.024 -0.014,1.213 -1.233,3.003c-2.151,3.159 -3.12,5.999 -3.131,9.017c0.978,-3.062 1.734,-5.556 4.341,-9.292c0.406,-0.367 0.511,-0.142 0.501,1.083c-0.021,2.759 -1.321,5.663 -4.421,9.061c-0.517,0.567 -1.206,1.185 -1.255,1.185c-0.299,-0 -0.291,-0.627 -0.286,-1.939c0.02,-5.212 1.964,-9.836 4.904,-11.868c0.191,-0.131 0.383,-0.239 0.58,-0.25Zm3.089,0.241c1.36,0.401 3.803,2.597 4.809,3.726c1.165,1.265 2.727,4.766 2.452,5.305c-0.091,0.236 -0.288,0.199 -0.969,-0.187c-4.329,-2.45 -7.428,-5.47 -6.616,-6.447c0.227,-0.273 1.157,0.289 2.402,1.452c0.846,0.755 1.714,1.522 2.488,2.288c1.216,1.205 1.489,1.383 0.756,0.045c-0.658,-1.202 -2.524,-3.219 -4.781,-4.932c-0.917,-0.697 -1.126,-1.259 -0.541,-1.248l-0,-0.002Zm91.098,0.704c-0.058,0 -0.109,0.009 -0.15,0.027c-0.852,0.36 -0.505,1.471 -0.587,2.323l-4.681,-0.163l-0.026,0.652l4.391,0.24c0.077,0.666 -0.268,2.104 0.297,2.347c1.228,0.514 1.899,-1.079 0.856,-2.036c-0.371,-0.331 -0.773,-0.479 0.259,-0.947c0.681,-0.585 0.786,-1.727 0.205,-2.234c-0.161,-0.14 -0.39,-0.211 -0.564,-0.209l0,0Zm-59.215,0.194l-0.236,1.743l-2.715,0.688l-0.069,-1.863l3.02,-0.568Zm32.018,0.618c10.022,2.715 21.164,8.879 28.399,15.841l-1.449,0.955c-7.518,-6.983 -17.433,-12.284 -26.544,-14.917l-0.406,-1.879Zm-17.27,0.267c16.504,-0.046 31.55,6.408 43.692,16.829l-1.985,1.258c-11.075,-9.207 -23.345,-15.346 -39.853,-16.078c-10.791,-0.479 -23.105,2.303 -35.239,9.017l-0.904,-1.65c11.786,-6.463 23.357,-9.346 34.289,-9.376Zm-1.298,2.501l6.492,0.191l-0.402,6.062l-5.9,-0.194l-0.19,-6.059Zm-6.982,0.432l0.915,5.849l-5.649,1.059l-1.602,-5.863l6.336,-1.045Zm20.548,0.773l6.449,1.728l-2.127,5.961l-5.661,-1.623l1.339,-6.066Zm-10.329,0.085c-1.024,0 -1.854,0.834 -1.854,1.864c-0,1.029 0.83,1.865 1.854,1.865c1.024,-0 1.854,-0.836 1.854,-1.865c-0,-1.03 -0.83,-1.864 -1.854,-1.864Zm-0,0.644c0.683,0 1.236,0.545 1.236,1.22c-0,0.675 -0.553,1.224 -1.236,1.224c-0.683,-0 -1.236,-0.549 -1.236,-1.224c-0,-0.675 0.553,-1.22 1.236,-1.22Zm-12.806,0.014c-1.024,-0 -1.854,0.835 -1.854,1.864c0,1.03 0.83,1.864 1.854,1.864c1.024,-0 1.854,-0.834 1.854,-1.864c0,-1.029 -0.83,-1.864 -1.854,-1.864Zm0,0.645c0.683,-0 1.236,0.545 1.236,1.219c0,0.675 -0.553,1.223 -1.236,1.223c-0.682,0 -1.236,-0.548 -1.236,-1.223c0,-0.674 0.554,-1.219 1.236,-1.219Zm25.531,0.749c-1.024,0 -1.854,0.835 -1.854,1.865c-0,1.03 0.83,1.863 1.854,1.863c1.024,0 1.852,-0.833 1.852,-1.863c0,-1.03 -0.828,-1.865 -1.852,-1.865Zm-35.938,0.218l1.911,5.704l-5.472,2.23l-2.051,-5.635l5.612,-2.299Zm35.938,0.427c0.682,0 1.235,0.545 1.234,1.22c0,0.675 -0.552,1.223 -1.234,1.223c-0.683,-0 -1.236,-0.548 -1.236,-1.223c-0,-0.675 0.553,-1.22 1.236,-1.22Zm10.719,1.367l5.805,3.085l-3.002,5.452l-5.409,-2.835l2.606,-5.702Zm-48.597,0.494c-1.023,-0 -1.852,0.833 -1.852,1.863c-0,1.03 0.829,1.865 1.852,1.865c1.024,-0 1.855,-0.835 1.855,-1.865c-0,-1.03 -0.831,-1.863 -1.855,-1.863Zm21.928,0.178l0.27,5.76l-5.139,0.365l-0.935,-5.724l5.804,-0.401Zm6.168,0.302l5.857,0.816l-1.378,5.546l-5.302,-0.858l0.823,-5.504Zm-28.096,0.163c0.683,0 1.236,0.545 1.237,1.22c-0,0.675 -0.554,1.224 -1.237,1.224c-0.682,0 -1.234,-0.549 -1.234,-1.224c0,-0.675 0.552,-1.22 1.234,-1.22Zm19.194,0.747c-1.024,-0 -1.854,0.834 -1.854,1.863c-0,1.03 0.83,1.865 1.854,1.865c1.023,0 1.854,-0.835 1.854,-1.865c-0,-1.029 -0.831,-1.863 -1.854,-1.863Zm-9.362,0.232l1.519,5.605l-5.65,1.627l-1.734,-5.391l5.865,-1.841Zm20.511,0.09c-1.024,-0 -1.854,0.835 -1.854,1.865c-0,1.029 0.83,1.863 1.854,1.863c1.023,-0 1.854,-0.834 1.854,-1.863c-0,-1.03 -0.831,-1.865 -1.854,-1.865Zm-11.149,0.323c0.682,0 1.236,0.543 1.236,1.218c-0,0.675 -0.554,1.224 -1.236,1.224c-0.683,0 -1.236,-0.549 -1.236,-1.224c-0,-0.675 0.553,-1.218 1.236,-1.218Zm11.149,0.322c0.682,-0 1.236,0.545 1.235,1.22c0,0.675 -0.553,1.222 -1.235,1.222c-0.683,0 -1.236,-0.547 -1.236,-1.222c-0,-0.675 0.553,-1.22 1.236,-1.22Zm19.825,0.012c-1.023,-0 -1.852,0.834 -1.852,1.863c-0,1.03 0.829,1.865 1.852,1.865c1.024,0 1.854,-0.835 1.854,-1.865c0,-1.029 -0.83,-1.863 -1.854,-1.863Zm-10.029,0.544l5.662,1.945l-2.258,5.322l-5.42,-2.075l2.016,-5.192Zm10.029,0.101c0.683,0 1.236,0.543 1.236,1.218c0,0.675 -0.553,1.224 -1.236,1.224c-0.682,0 -1.236,-0.549 -1.236,-1.224c0,-0.675 0.554,-1.218 1.236,-1.218Zm-42.587,0.197c-1.024,-0 -1.852,0.835 -1.852,1.865c-0,1.029 0.828,1.863 1.852,1.863c1.024,0 1.854,-0.834 1.854,-1.863c0,-1.03 -0.83,-1.865 -1.854,-1.865Zm0,0.645c0.683,0 1.237,0.545 1.236,1.22c0,0.675 -0.553,1.223 -1.236,1.223c-0.682,-0 -1.236,-0.548 -1.236,-1.223c0,-0.675 0.554,-1.22 1.236,-1.22Zm34.3,1.088c-1.023,-0 -1.854,0.835 -1.854,1.864c0,1.03 0.831,1.864 1.854,1.864c1.024,-0 1.854,-0.834 1.854,-1.864c0,-1.029 -0.83,-1.864 -1.854,-1.864Zm0,0.645c0.683,-0 1.236,0.544 1.236,1.219c0,0.675 -0.553,1.223 -1.236,1.223c-0.682,0 -1.236,-0.548 -1.236,-1.223c0,-0.675 0.554,-1.219 1.236,-1.219Zm-66.313,0.648c1.481,0.063 2.593,1.401 2.66,2.793c0.051,1.059 -1.29,2.444 -1.29,2.444l-1.563,-1.455l-1.501,1.391c-0.253,0.084 -1.418,-1.909 -1.062,-2.94c0.463,-1.342 1.417,-2.29 2.756,-2.233Zm84.17,-0l4.484,3.69c-0,-0 -1.968,1.202 -2.332,1.416c0.044,-0.16 0.064,-0.329 0.064,-0.504c0,-1.029 -0.828,-1.864 -1.852,-1.864c-1.024,-0 -1.854,0.835 -1.854,1.864c-0,0.883 0.614,1.625 1.433,1.818c-0.461,0.266 -1.074,0.61 -1.074,0.61l-2.368,-1.997l3.499,-5.033Zm-35.674,0.178c9.026,0.128 18.702,2.822 28.576,9.682l-1.983,0.819c-12.209,-8.065 -28.91,-12.478 -48.002,-4.357l-0.658,-1.592c6.644,-2.782 14.103,-4.666 22.067,-4.552Zm27.49,1.623l4.805,2.964l-3.051,4.712l-4.692,-3.019l2.938,-4.657Zm-28.71,0.879c9.648,0.012 19.107,2.974 27.26,8.256l-2.016,0.761c-14.903,-9.629 -30.787,-9.115 -44.978,-3.343l-0.22,-1.353c6.789,-2.956 13.353,-4.329 19.954,-4.321Zm37.258,0.703c0.682,-0 1.234,0.544 1.234,1.219c0,0.675 -0.552,1.223 -1.234,1.223c-0.683,0 -1.236,-0.548 -1.236,-1.223c-0,-0.675 0.553,-1.219 1.236,-1.219Zm-88.978,0.887c0.816,-0.007 1.655,0.394 2.269,1.321l-1.657,1.681l1.513,1.71c-0,-0 -0.481,0.409 -0.829,0.599c-1.983,1.086 -4.153,-0.629 -4.049,-2.48c0.094,-1.686 1.393,-2.821 2.753,-2.831Zm81.122,0.033c-1.024,-0 -1.854,0.835 -1.854,1.864c0,1.03 0.83,1.864 1.854,1.864c1.024,-0 1.854,-0.834 1.854,-1.864c0,-1.029 -0.83,-1.864 -1.854,-1.864Zm-72.145,0.076c1.475,0.011 2.62,1.15 2.762,2.46c0.113,1.045 -0.428,2.048 -1.592,2.758c-1.58,0.964 -3.416,-0.596 -3.384,-0.692l1.331,-1.324l-1.601,-1.649c-0.046,-0.031 1.057,-1.564 2.484,-1.553Zm-4.614,0.32l2.731,2.738l-2.89,2.707l-2.675,-2.702l2.834,-2.743Zm72.002,7.286l-1.533,0.707l-2.09,-1.267l-0.618,1.194l1.163,0.74l-1.208,0.456c-13.924,-7.867 -29.657,-5.587 -40.115,-0.366c-0,-0 0.091,-0.81 0.097,-0.81l1.137,-0.585l-0.424,-1.447l-0.61,0.178l-0.047,-1.604c6.533,-2.958 12.933,-4.326 20.649,-4.247c7.716,0.079 16.64,2.542 23.599,7.051Zm4.757,-7.038c0.683,0 1.236,0.545 1.236,1.22c0,0.675 -0.553,1.223 -1.236,1.223c-0.682,-0 -1.236,-0.548 -1.236,-1.223c0,-0.675 0.554,-1.22 1.236,-1.22Zm-76.817,0.979l-1.456,1.456l1.448,1.554l1.414,-1.504l-1.406,-1.506Zm45.576,0.322l-1.907,0.087l0.1,1.565l1.861,-0.047l-0.054,-1.605Zm1.302,0.009l0.034,1.565l1.73,-0.009l-0.009,-1.544l-1.755,-0.012Zm3.069,0.026l-0.085,1.558l1.719,0.078l0.123,-1.549l-1.757,-0.087Zm-7.414,0.199l-1.954,0.214l0.216,1.573l1.85,-0.218l-0.112,-1.569Zm10.616,0.023l-0.139,1.608l1.765,0.203l0.239,-1.539l-1.865,-0.272Zm-53.141,0.008l0.849,0.909l-0.845,0.847l-0.9,-0.886l0.896,-0.87Zm39.231,0.479l-1.884,0.298l0.2,1.619l1.838,-0.364l-0.154,-1.553Zm17.096,-0l-0.314,1.499l1.754,0.423l0.286,-1.531l-1.726,-0.391Zm-56.332,0.145c-0.156,0 -0.283,0.122 -0.282,0.272c0,0.149 0.126,0.27 0.282,0.27c0.156,0 0.283,-0.121 0.283,-0.27c0,-0.15 -0.126,-0.272 -0.283,-0.272Zm36.147,0.51l-1.583,0.423l0.343,1.577l1.673,-0.411l-0.433,-1.589Zm23.192,0.062l-0.331,1.522l1.788,0.49l0.359,-1.46l-1.816,-0.552Zm-25.807,0.758l-1.656,0.589l0.428,1.461l1.684,-0.57l-0.456,-1.48Zm28.886,0.166l-0.552,1.465l1.548,0.625l0.684,-1.329l-1.68,-0.761Zm-60.534,0.786c1.649,1.467 1.623,4.899 -1.297,5.471c-2.55,0.501 -4.882,-3.339 -2.185,-5.353l1.591,1.597l1.891,-1.715Zm28.915,0.073l-1.572,0.649l0.647,1.449l1.492,-0.685l-0.567,-1.413Zm34.457,0.354l-0.606,1.343l1.711,0.758l0.59,-1.293l-1.695,-0.808Zm-48.796,8.622l21.587,36.898l-3.414,-0.066l-20.893,-35.655l2.72,-1.177Zm-3.544,1.404l1.194,1.867c-2.338,-1.872 -5.774,-0.297 -5.628,2.061c0.114,1.054 0.999,1.694 1.003,0.679c-0.106,-1.06 1.388,-1.983 2.472,-1.933c2.001,0.026 3.223,2.611 1.842,3.898c-0.908,0.841 -2.137,0.803 -1.723,-0.349c0.065,-0.398 0.033,-0.543 -0.154,-0.715c-0.574,-0.526 -1.633,0.159 -1.375,0.913c0.17,0.495 0.22,0.617 -0.37,1.026c-2.289,1.616 -0.694,4.803 2.077,3.352c0.567,-0.206 0.796,-0.237 1.054,-0.137c1.153,0.446 1.939,-0.56 0.846,-1.083c-0.635,-0.304 -0.651,-0.824 -0.039,-1.236c1.309,-0.879 3.347,0.495 3.341,2.253c-0.009,1.244 -1.638,2.164 -3.202,1.803c-0.93,-0.215 -1.041,0.418 -0.189,1.076c1.652,1.273 4.124,0.216 4.862,-2.075c0.232,-0.721 0.199,-0.872 0.199,-0.872l2.202,3.658c0,-0 -0.683,-0.325 -1.096,-0.451c-2.074,-0.637 -4.398,0.715 -4.405,2.563c-0,0.87 0.507,1.208 0.794,0.524c0.668,-1.589 2.12,-2.209 3.611,-1.538c1.379,0.619 2.01,2.025 1.472,3.278c-0.565,1.312 -2.458,1.699 -2.244,0.459c0.102,-0.591 -0.256,-0.953 -0.888,-0.894c-0.239,0.023 -0.546,0.721 -0.463,1.057c0.077,0.314 0.021,0.389 -0.789,1.024c-1.924,1.509 -0.443,3.973 1.959,3.26c0.403,-0.12 0.554,-0.111 0.915,0.064c0.869,0.421 1.78,0.16 1.783,-0.511c0,-0.462 -0.205,-0.639 -0.749,-0.641c-0.823,0 -0.645,-0.941 0.267,-1.399c2.285,-1.148 4.62,1.752 3.228,4.012c-0.598,0.971 -0.975,1.071 -3.112,0.835c-0.345,-0.039 -0.501,0.2 -0.296,0.482c0.632,0.901 2.514,1.186 3.609,0.687c1.183,-0.538 1.902,-1.897 1.985,-3.346l2.416,4.243c-1.878,-1.975 -5.12,-1.221 -5.641,1.608c0,0.717 0.649,1.09 0.874,0.501c0.977,-2.553 4.69,-1.77 4.679,0.987c0,0.444 -0.088,0.695 -0.371,1.083c-0.682,1.322 -2.422,1.648 -2.107,0.462c0.141,-0.367 -0.139,-0.765 -0.618,-0.881c-0.471,-0.113 -0.772,0.283 -0.76,1.006c0.009,0.54 0.012,0.705 0.012,0.705c-0.869,0.369 -1.423,1.09 -1.616,2.157l-16.91,0.039c2.011,-11.787 1.539,-22.43 -2.305,-32.495c-0.332,-0.873 -0.809,-2.142 -0.809,-2.142l2.984,0.079c0.719,0.628 3.441,0.384 4.503,-0.586l1.676,-0.417Zm2.871,4.63l1.747,3.155c-0.723,-0.417 -1.459,-0.694 -2.584,-0.79c0.587,-0.875 0.634,-1.66 0.837,-2.365Zm-4.591,3.353c0.637,-0 1.151,0.517 1.151,1.157c-0,0.639 -0.514,1.158 -1.151,1.158c-0.636,-0 -1.155,-0.519 -1.155,-1.158c0,-0.64 0.519,-1.157 1.155,-1.157Zm12.041,9.424l1.682,3.011c-0.819,-0.35 -1.51,-0.694 -2.789,-0.727c0.466,-0.547 0.868,-1.464 1.107,-2.284Zm-4.85,3.224c0.603,0 1.092,0.493 1.092,1.1c-0,0.606 -0.489,1.094 -1.092,1.094c-0.603,0 -1.09,-0.488 -1.09,-1.094c-0,-0.607 0.487,-1.1 1.09,-1.1Zm12.186,9.385l2.483,4.43c-0.977,-0.562 -2.029,-1.275 -3.348,-1.138c0.628,-1.349 0.971,-2.085 0.865,-3.292Zm-4.657,4.003c0.689,-0.063 1.365,0.554 1.353,1.524l-2.664,0.009c0.233,-1.025 0.776,-1.484 1.311,-1.533l0,-0Zm3.873,0.395c0.906,0.047 1.687,0.358 2.176,1.152l-3.35,0.009c-0,0 0.022,-1.165 1.174,-1.161l0,0Z" style="fill-rule:nonzero;"/><path id="path163-0-2-5-8-7-5-8-8-7" d="M47.878,64.556c0,-0 -3.733,-6.124 -8.768,-13.325c-3.369,-4.819 -6.063,-10.036 -6.313,-14.531c-0.287,-5.133 2.431,-10.284 7.353,-10.534c4.919,-0.249 6.916,3.959 7.728,7.428c0.813,-3.469 2.81,-7.677 7.728,-7.428c4.922,0.25 7.641,5.401 7.354,10.534c-0.251,4.495 -2.944,9.712 -6.313,14.531c-5.036,7.201 -8.769,13.325 -8.769,13.325Z" style="fill:#3f3f3f;fill-rule:nonzero;"/><path id="path163-0-2-5-8-7-7-8-4-8-6" d="M130.705,184.893c-0,-0 -3.734,6.124 -8.769,13.325c-3.369,4.819 -6.062,10.036 -6.313,14.53c-0.287,5.134 2.432,10.285 7.353,10.534c4.919,0.25 6.916,-3.958 7.729,-7.427c0.812,3.469 2.809,7.677 7.728,7.427c4.921,-0.249 7.64,-5.4 7.353,-10.534c-0.251,-4.494 -2.944,-9.711 -6.313,-14.53c-5.035,-7.201 -8.768,-13.325 -8.768,-13.325Z" style="fill:#3f3f3f;fill-rule:nonzero;"/></g></svg>